<?xml version="1.0" encoding="utf-8"?>
<!-- Generator: Adobe Illustrator 27.0.0, SVG Export Plug-In . SVG Version: 6.00 Build 0)  -->
<svg version="1.1" id="图层_1" xmlns="http://www.w3.org/2000/svg" xmlns:xlink="http://www.w3.org/1999/xlink" x="0px" y="0px"
	 viewBox="0 0 566.9 566.9" style="enable-background:new 0 0 566.9 566.9;" xml:space="preserve">
<style type="text/css">
	.st0{fill:#1F419B;}
	.st1{fill:#00AEEF;}
</style>
<path class="st0" d="M315,0C159.8,0,33.9,126.9,33.9,283.5S159.8,566.9,315,566.9c76.5,0,145.7-30.8,196.5-80.8
	c5.3-5.3,4.1-14.8,0-19l-57.6-58.5c-5.6-5.7-14.6-4.4-17.5-1.5c-29.4,29.1-69,46.9-112.7,46.9c-90.5,0-163.7-76.6-163.7-170.9
	c0-94,72.8-170.5,162.8-170.9h0.9c42.5,0,81.3,17,110.4,44.6c3.4,3.2,11.8,2.8,16.7-2.2l57-57.7c2.8-2.8,7.9-12,2-18
	C459.1,30.1,390.6,0,315,0z"/>
<path class="st1" d="M424.4,283.2c0,53.4-43.3,96.6-96.6,96.6s-96.6-43.3-96.6-96.6s43.3-96.6,96.6-96.6
	C381.1,186.5,424.4,229.8,424.4,283.2z"/>
</svg>
