<?xml version="1.0" encoding="utf-8"?>
<!-- Generator: Adobe Illustrator 26.3.1, SVG Export Plug-In . SVG Version: 6.00 Build 0)  -->
<svg version="1.1" id="Layer_1" xmlns="http://www.w3.org/2000/svg" xmlns:xlink="http://www.w3.org/1999/xlink" x="0px" y="0px"
	 viewBox="0 0 1208.2 387" style="enable-background:new 0 0 1208.2 387;" xml:space="preserve">
<style type="text/css">
	.st0{fill:#1F419B;}
	.st1{fill:#00AEEF;}
</style>
<path class="st0" d="M644,0C537.8,0,451.7,86.8,451.7,193.9S537.8,387.8,644,387.8c52.3,0,99.7-21.1,134.4-55.3
	c3.6-3.6,2.8-10.1,0-13L739,279.5c-3.8-3.9-10-3-12-1c-20.1,19.9-47.2,32.1-77.1,32.1c-61.9,0-112-52.4-112-116.9
	c0-64.3,49.8-116.6,111.4-116.9h0.6c29.1,0,55.6,11.6,75.5,30.5c2.3,2.2,8.1,1.9,11.4-1.5l39-39.5c1.9-1.9,5.4-8.2,1.4-12.3
	C742.6,20.6,695.7,0,644,0z M249.8,9.5c-2.8,0.2-8.9,1.9-12.3,11.6C233,33.9,109.4,364.4,109.4,364.4s-6.3,13.1,3.3,13.1h71.5
	c0,0,7.8-0.4,12.1-13.8l22.7-70.2h131.5l23.2,72.7c0,0,2.8,11.3,13.3,11.3h75.3c0,0,8.1-0.5,3-11.8c-5-11.3-126.9-346.1-126.9-346.1
	s-2-10.1-15.6-10.1h-71.5C251.3,9.5,250.7,9.4,249.8,9.5z M815.4,9.5c0,0-8.9-0.3-8.9,9.2v349.6c0,0,0,9.1,8.7,9.1h146.7
	c0,0,65.9,0.2,100.7-34.6c34.8-34.7,25.3-86.5,25.3-86.5s-8.3-59.2-73.8-74.2c0,0,58.8-16.6,55.1-85.7c-5.5-60.5-60.1-87-116.9-87
	L815.4,9.5z M887.4,73.8h53.9c0,0,45.4,0,46,42.1c0.6,42.1-47.6,41.1-47.6,41.1h-52.3V73.8z M285.1,88.5l44.7,139.9h-89.9
	L285.1,88.5z M887.4,217.5h61c0,0,55.5,0.4,55.9,48.4c0.4,48-53.3,48-53.3,48h-63.6L887.4,217.5z"/>
<path class="st1" d="M718.8,193.7c0,36.5-29.6,66.1-66.1,66.1c-36.5,0-66.1-29.6-66.1-66.1c0-36.5,29.6-66.1,66.1-66.1
	C689.2,127.6,718.8,157.2,718.8,193.7z"/>
</svg>
