<svg width="240" height="240" fill="none" xmlns="http://www.w3.org/2000/svg"><path fill-rule="evenodd" clip-rule="evenodd" d="M56.976 53.128c-6.016-10.42-2.446-23.745 7.974-29.76l70.806 122.638-9.432 5.445 5.446 9.433-9.434 5.447-5.446-9.433-.002.001L56.976 53.128Z" fill="#5DE2F8"/><path d="M110.98 119.43 63.322 36.885" stroke="#0A0B0D" stroke-width="2"/><path fill="#0A0B0D" d="M16 16h208v56H16z"/><path fill="#CED2DB" d="M16 0h208v16H16zm0 72h208v16H16z"/><path fill="#0052FF" d="M224 16h16v56h-16zM0 16h16v56H0z"/><path d="M120 88V0" stroke="#fff" stroke-width="2" stroke-dasharray="8 8"/><path fill="#fff" d="M32 32h176v24H32z"/><path d="M43.906 39.224c-1.929 0-3.125 1.294-3.125 3.394v2.135c0 2.148 1.208 3.418 3.125 3.418 1.928 0 3.124-1.27 3.124-3.418v-2.136c0-2.099-1.184-3.392-3.124-3.392Zm0 7.934c-1.245 0-1.978-.916-1.978-2.405V42.63c0-1.465.733-2.393 1.978-2.393s1.977.928 1.977 2.393v2.123c0 1.49-.732 2.405-1.977 2.405ZM48.78 48h1.27l1.793-2.612h.037L53.686 48h1.306l-2.44-3.344 2.318-3.15H53.6l-1.684 2.454h-.036l-1.684-2.453H48.89l2.319 3.185L48.779 48Zm11.16.17c1.55 0 2.563-.78 2.794-1.903h-1.147c-.085.5-.61 1.025-1.635 1.025-1.172 0-1.965-.867-1.965-2.246v-.048h4.857v-.391c0-1.843-1.013-3.271-2.941-3.271-1.916 0-3.04 1.489-3.04 3.417 0 1.917 1.05 3.418 3.077 3.418Zm-.037-5.943c1.086 0 1.782.708 1.818 1.99H58c.085-1.258.866-1.99 1.904-1.99Zm9.121 1.025c0 .513-.33.732-.976.842l-.952.159c-1.33.208-2.21.818-2.21 2.002 0 1.208.904 1.916 2.161 1.916 1.05 0 1.83-.513 2.124-1.355h.073l-.024.098c0 .708.28 1.086 1.086 1.086h.781v-.903h-.452c-.317 0-.463-.098-.463-.488V43.52c0-1.502-1.026-2.185-2.478-2.185-1.575 0-2.478.757-2.575 1.819h1.11c.061-.599.55-.952 1.453-.952 1 0 1.342.524 1.342 1.05Zm.037 2.124c0 1.147-.745 1.916-1.806 1.916-.757 0-1.27-.39-1.27-1.074v-.073c0-.635.5-.989 1.306-1.123l.928-.159c.44-.073.72-.268.842-.44v.953Zm8.047-1.928c.977-.208 1.6-.953 1.6-1.904 0-1.355-1.185-2.32-2.906-2.32-1.72 0-2.904.965-2.904 2.32 0 .952.622 1.696 1.599 1.904v.048c-1.038.183-1.807.977-1.807 2.185 0 1.44 1.245 2.49 3.112 2.49 1.868 0 3.113-1.05 3.113-2.49 0-1.208-.77-2.002-1.807-2.185v-.049Zm-3.088-1.892c0-.806.708-1.404 1.782-1.404s1.782.598 1.782 1.404v.122c0 .769-.732 1.391-1.782 1.391s-1.782-.622-1.782-1.391v-.122Zm-.183 3.954c0-.89.757-1.587 1.965-1.587 1.209 0 1.965.696 1.965 1.587v.147c0 .915-.768 1.599-1.965 1.599-1.196 0-1.965-.684-1.965-1.6v-.146ZM81.58 48h1.22l4.028-7.64v-.952h-6.14v.976h4.932L81.58 48Zm11.367-4.748c0 .513-.33.732-.977.842l-.951.159c-1.33.208-2.21.818-2.21 2.002 0 1.208.904 1.916 2.16 1.916 1.05 0 1.832-.513 2.124-1.355h.074l-.025.098c0 .708.281 1.086 1.087 1.086h.78v-.903h-.451c-.317 0-.464-.098-.464-.488V43.52c0-1.502-1.025-2.185-2.477-2.185-1.575 0-2.478.757-2.576 1.819h1.111c.061-.599.55-.952 1.452-.952 1.001 0 1.343.524 1.343 1.05Zm.037 2.124c0 1.147-.745 1.916-1.807 1.916-.757 0-1.27-.39-1.27-1.074v-.073c0-.635.501-.989 1.307-1.123l.927-.159c.44-.073.72-.268.843-.44v.953Zm6.9-5.09c.427 0 .769-.33.769-.744a.756.756 0 0 0-.77-.757h-.072c-.452 0-.782.33-.782.757 0 .415.33.744.782.744h.073ZM96.918 48h5.871v-.94h-2.38v-5.553h-3.21v.94h2.087v4.613h-2.368V48Zm13.662 0v-9.154h-1.123v3.906h-.061c-.354-.867-1.013-1.416-2.075-1.416-1.77 0-2.771 1.489-2.771 3.417 0 1.929.977 3.418 2.771 3.418 1.123 0 1.818-.598 2.136-1.501h.061V48h1.062Zm-4.907-3.002v-.476c0-1.404.818-2.222 1.892-2.222 1.086 0 1.892.842 1.892 2.222v.476c0 1.367-.806 2.22-1.892 2.22-1.074 0-1.892-.817-1.892-2.22Zm8.402-.83c0-1.233.793-1.856 1.684-1.856.83 0 1.55.537 1.55 1.66V48h1.123v-4.138c0-1.635-1.05-2.526-2.356-2.526-.964 0-1.672.464-1.965 1.294h-.061v-3.784h-1.098V48h1.123v-3.832Zm6.375-1.917c0 1.685 1.074 2.905 2.819 2.905 1.087 0 2.002-.573 2.222-1.635h.061v.378c0 2.038-.684 3.369-2.197 3.369-1.001 0-1.514-.525-1.575-1.123h-1.159c.146 1.184 1.135 2.05 2.734 2.05 2.197 0 3.356-1.684 3.356-4.528 0-2.343-.818-4.418-3.222-4.418-1.843 0-3.039 1.318-3.039 3.002Zm1.159-.085c0-1.062.684-1.99 1.88-1.99 1.172 0 1.904.953 1.904 1.99v.146c0 1.099-.769 1.941-1.892 1.941-1.269 0-1.892-.867-1.892-1.94v-.147Zm11.319 1.282c.976-.208 1.599-.953 1.599-1.904 0-1.355-1.184-2.32-2.905-2.32-1.721 0-2.905.965-2.905 2.32 0 .952.622 1.696 1.599 1.904v.048c-1.038.183-1.806.977-1.806 2.185 0 1.44 1.244 2.49 3.112 2.49 1.867 0 3.112-1.05 3.112-2.49 0-1.208-.769-2.002-1.806-2.185v-.049Zm-3.088-1.892c0-.806.708-1.404 1.782-1.404s1.782.598 1.782 1.404v.122c0 .769-.733 1.391-1.782 1.391-1.05 0-1.782-.622-1.782-1.391v-.122Zm-.183 3.954c0-.89.757-1.587 1.965-1.587 1.208 0 1.965.696 1.965 1.587v.147c0 .915-.769 1.599-1.965 1.599-1.196 0-1.965-.684-1.965-1.6v-.146Zm8.572-6.664h-1.123V48h1.123v-9.154Zm4.516 2.66h-1.391l-3.125 3.016L141.537 48h1.44l-3.405-3.527 3.173-2.966Zm5.155 7.202 2.88-7.201h-1.147l-1.953 5.138h-.073l-1.99-5.138h-1.244l2.685 6.408-.257.634c-.293.696-.5.842-1.171.842h-1.331v.952h1.367c1.257 0 1.782-.476 2.234-1.635Zm5.863-4.186c0-1.38.842-2.222 1.965-2.222 1.013 0 1.537.537 1.672 1.172h1.11c-.195-1.282-1.196-2.136-2.77-2.136-1.99 0-3.1 1.465-3.1 3.417 0 1.941 1.074 3.418 3.1 3.418 1.562 0 2.551-.855 2.77-2.16h-1.098c-.147.67-.696 1.208-1.684 1.208-1.123 0-1.965-.855-1.965-2.221v-.476Zm12.978-3.027h-1.16l-1.977 5.321h-.073l-1.99-5.321h-1.244L162.945 48h1.208l2.588-6.505ZM169.296 48h1.22l4.028-7.64v-.952h-6.139v.976h4.931L169.296 48Zm10.171-8.776c-1.928 0-3.124 1.294-3.124 3.394v2.135c0 2.148 1.208 3.418 3.124 3.418 1.928 0 3.125-1.27 3.125-3.418v-2.136c0-2.099-1.184-3.392-3.125-3.392Zm0 7.934c-1.245 0-1.977-.916-1.977-2.405V42.63c0-1.465.732-2.393 1.977-2.393s1.977.928 1.977 2.393v2.123c0 1.49-.732 2.405-1.977 2.405Zm8.877-6.872c.44 0 .769-.33.769-.744a.748.748 0 0 0-.769-.757h-.061c-.439 0-.781.33-.781.757 0 .415.342.744.781.744h.061Zm-.598 8.495c0 .44-.183.635-.634.635h-2.319v.94h2.526c1.074 0 1.55-.513 1.55-1.514v-7.335h-3.686v.94h2.563v6.334Zm4.472-7.274v.94h2.001v4.052c0 1 .489 1.501 1.55 1.501h2.49v-.94h-2.282c-.452 0-.635-.195-.635-.647v-3.966h2.917v-.94h-2.917v-1.709h-1.123v1.709h-2.001Z" fill="#000"/><path fill-rule="evenodd" clip-rule="evenodd" d="M183.028 53.128c6.016-10.42 2.446-23.745-7.974-29.76l-70.805 122.638 9.432 5.445-5.447 9.433 9.434 5.447 5.446-9.433.002.001 59.912-103.771Z" fill="#5DE2F8"/><path fill-rule="evenodd" clip-rule="evenodd" d="M40.345 234.897c15.63 9.025 35.617 3.669 44.64-11.961 9.025-15.63 3.67-35.617-11.96-44.641-15.63-9.024-35.617-3.669-44.642 11.962-9.024 15.63-3.668 35.616 11.962 44.64Zm5.445-9.438c10.42 6.016 23.745 2.446 29.76-7.974 6.017-10.42 2.447-23.745-7.974-29.761-10.42-6.016-23.744-2.446-29.76 7.975-6.016 10.42-2.446 23.744 7.974 29.76Zm153.867 9.438c-15.63 9.025-35.617 3.669-44.641-11.961-9.024-15.63-3.669-35.617 11.962-44.641 15.63-9.024 35.616-3.669 44.64 11.962 9.025 15.63 3.669 35.616-11.961 44.64Zm-5.445-9.438c-10.42 6.016-23.745 2.446-29.761-7.974-6.016-10.42-2.446-23.745 7.975-29.761 10.42-6.016 23.744-2.446 29.76 7.975 6.016 10.42 2.446 23.744-7.974 29.76Z" fill="#F34"/><path fill="#F34" d="m108.232 160.882 9.434 5.447-32.68 56.602-9.433-5.446zm23.538 0-9.434 5.447 32.68 56.602 9.434-5.446z"/><path fill-rule="evenodd" clip-rule="evenodd" d="m120.004 162.284-3.112-5.391-.002.001-9.464-16.392 12.578-21.787 12.578 21.787-9.464 16.392-.002-.001-3.112 5.391Z" fill="#0052FF"/><path d="m129.022 119.43 47.658-82.545" stroke="#0A0B0D" stroke-width="2"/><circle cx="119.5" cy="140.5" r="4.5" fill="#fff"/><path d="M56 135.998c-8.838 0-15.998 7.164-15.998 16.002 0-8.838-7.164-16.002-16.002-16.002 8.838 0 16.002-7.163 16.002-15.998 0 8.835 7.16 15.998 15.998 15.998Z" fill="#5DE2F8"/><path d="M188 147.999c-6.629 0-11.999 5.372-11.999 12.001 0-6.629-5.372-12.001-12.001-12.001 6.629 0 12.001-5.373 12.001-11.999 0 6.626 5.37 11.999 11.999 11.999Z" fill="#F34"/><path d="M216 115.999a8 8 0 0 0-7.999 8.001 8 8 0 0 0-8.001-8.001 8 8 0 0 0 8.001-7.999 7.999 7.999 0 0 0 7.999 7.999Z" fill="#CED2DB"/><path d="M122 214.999a8 8 0 0 0-7.999 8.001 8 8 0 0 0-8.001-8.001 8 8 0 0 0 8.001-7.999 7.999 7.999 0 0 0 7.999 7.999Z" fill="#0052FF"/></svg>