<svg xmlns="http://www.w3.org/2000/svg" x="0px" y="0px"
	 viewBox="0 0 11.7 11.7" style="enable-background:new 0 0 11.7 11.7;" xml:space="preserve">
<style type="text/css">
	.st0{fill:#0050F9;}
	.st1{fill:#57B4FC;}
</style>
<path class="st0" d="M10.7,2l1-2H1.6c0,0,0,0,0,0c0,0.2-0.2,0.4-0.4,0.4S0.8,0.3,0.8,0c0,0,0,0,0,0H0v11.7h0.8c0,0,0,0,0,0
	c0-0.2,0.2-0.4,0.4-0.4s0.4,0.2,0.4,0.4c0,0,0,0,0,0h10.1l-1-2l1-1.7l-1-2l1-2L10.7,2z M1.2,10.8c-0.2,0-0.4-0.2-0.4-0.4
	S1,10,1.2,10s0.4,0.2,0.4,0.4S1.4,10.8,1.2,10.8z M1.2,9.5C1,9.5,0.8,9.3,0.8,9.1S1,8.6,1.2,8.6s0.4,0.2,0.4,0.4S1.4,9.5,1.2,9.5z
	 M1.2,8.2C1,8.2,0.8,8,0.8,7.8S1,7.4,1.2,7.4s0.4,0.2,0.4,0.4S1.4,8.2,1.2,8.2z M1.2,6.9C1,6.9,0.8,6.7,0.8,6.4S1,6,1.2,6
	s0.4,0.2,0.4,0.4S1.4,6.9,1.2,6.9z M1.2,5.7C1,5.7,0.8,5.5,0.8,5.3C0.8,5,1,4.8,1.2,4.8S1.6,5,1.6,5.3C1.6,5.5,1.4,5.7,1.2,5.7z
	 M1.2,4.4C1,4.4,0.8,4.2,0.8,4c0-0.2,0.2-0.4,0.4-0.4S1.6,3.8,1.6,4C1.6,4.2,1.4,4.4,1.2,4.4z M1.2,3.1C1,3.1,0.8,2.9,0.8,2.6
	c0-0.2,0.2-0.4,0.4-0.4s0.4,0.2,0.4,0.4C1.6,2.9,1.4,3.1,1.2,3.1z M1.2,1.8C1,1.8,0.8,1.6,0.8,1.4c0-0.2,0.2-0.4,0.4-0.4
	s0.4,0.2,0.4,0.4C1.6,1.6,1.4,1.8,1.2,1.8z M6.6,8.5L4.1,6c0-0.2,0.4-2.4,2.5-2.4S9.1,5.7,9.1,6L6.6,8.5z"/>
<polygon class="st1" points="6.9,7.2 8.2,6 6.9,6 "/>
<path class="st1" d="M0,9.7h10.7l1-1.7l-1-2l1-2l-1-2H0V9.7z M1.2,9.5C1,9.5,0.8,9.3,0.8,9.1S1,8.6,1.2,8.6s0.4,0.2,0.4,0.4
	S1.4,9.5,1.2,9.5z M6.6,3.6c2.1,0,2.5,2.1,2.5,2.4L6.6,8.5L4.1,6C4.1,5.7,4.5,3.6,6.6,3.6z M1.2,2.2c0.2,0,0.4,0.2,0.4,0.4
	c0,0.2-0.2,0.4-0.4,0.4S0.8,2.9,0.8,2.6C0.8,2.4,1,2.2,1.2,2.2z M1.2,3.6c0.2,0,0.4,0.2,0.4,0.4c0,0.2-0.2,0.4-0.4,0.4
	S0.8,4.2,0.8,4C0.8,3.8,1,3.6,1.2,3.6z M1.2,4.8c0.2,0,0.4,0.2,0.4,0.4c0,0.2-0.2,0.4-0.4,0.4S0.8,5.5,0.8,5.3C0.8,5,1,4.8,1.2,4.8z
	 M1.2,6c0.2,0,0.4,0.2,0.4,0.4S1.4,6.9,1.2,6.9S0.8,6.7,0.8,6.4S1,6,1.2,6z M1.2,7.4c0.2,0,0.4,0.2,0.4,0.4S1.4,8.2,1.2,8.2
	S0.8,8,0.8,7.8S1,7.4,1.2,7.4z"/>
<polygon class="st1" points="6.3,7.2 6.3,6 5,6 "/>
</svg>
