<svg version="1.1" id="Capa_1" xmlns="http://www.w3.org/2000/svg" x="0px" y="0px"
	 viewBox="0 0 415.7 415.7"  xml:space="preserve">
<style type="text/css">
	.st0{fill:#1652F0;}
	.st1{fill:#BFE9FF;}
</style>
<path class="st0" d="M412.4,170.7c-0.8-4.5-4.8-7.8-9.3-7.8h-11.6c-4.6-18.7-11.9-36.5-22-53.1l8.2-8.2c3.2-3.2,3.7-8.4,1.1-12.1
	c-14.3-20.6-32-38.3-52.6-52.5c-3.8-2.6-8.9-2.2-12.1,1.1l-8.2,8.2c-16.5-10.1-34.3-17.4-53.1-22V12.7c0-4.6-3.3-8.5-7.8-9.3
	c-24.3-4.4-50-4.4-74.3,0c-4.5,0.8-7.8,4.8-7.8,9.3v11.6c-18.7,4.6-36.5,11.9-53.1,22l-8.2-8.2c-3.2-3.2-8.4-3.7-12.1-1.1
	C68.9,51.2,51.2,68.9,37,89.5c-2.6,3.8-2.2,8.9,1.1,12.1l8.2,8.2c-10.1,16.5-17.4,34.3-22,53.1H12.7c-4.6,0-8.5,3.3-9.3,7.8
	C1.1,182.8,0,195.3,0,207.8c0,12.5,1.1,25,3.3,37.2c0.8,4.5,4.8,7.8,9.3,7.8h11.6c4.6,18.7,11.9,36.5,22,53.1l-8.2,8.2
	c-3.2,3.2-3.7,8.4-1.1,12.1c14.3,20.6,32,38.3,52.6,52.5c3.8,2.6,8.9,2.2,12.1-1.1l8.2-8.2c16.5,10.1,34.3,17.4,53.1,22V403
	c0,4.6,3.3,8.5,7.8,9.3c12.1,2.2,24.6,3.3,37.2,3.3c12.5,0,25-1.1,37.2-3.3c4.5-0.8,7.8-4.8,7.8-9.3v-11.6
	c18.8-4.6,36.5-11.9,53.1-22l8.2,8.2c3.2,3.2,8.4,3.7,12.1,1.1c20.6-14.3,38.3-32,52.6-52.6c2.6-3.8,2.2-8.9-1.1-12.1l-8.2-8.2
	c10.1-16.5,17.4-34.3,22-53.1H403c4.6,0,8.5-3.3,9.3-7.8c2.2-12.1,3.3-24.6,3.3-37.2C415.7,195.3,414.6,182.8,412.4,170.7z"/>
<circle class="st1" cx="207.9" cy="207.9" r="144.7"/>
<path class="st0" d="M258.2,297.2H157.5c-38.2,0-69.2-31.8-69.2-70.8v-37c0-39,31-70.8,69.2-70.8h100.6c38.2,0,69.2,31.8,69.2,70.8
	v37C327.4,265.4,296.3,297.2,258.2,297.2z M165.3,151.5c-21.9,0-39.8,18.2-39.8,40.7v31.3c0,22.4,17.8,40.7,39.8,40.7h85.1
	c21.9,0,39.8-18.2,39.8-40.7v-31.3c0-22.4-17.8-40.7-39.8-40.7H165.3z"/>
<path class="st0" d="M277.2,228.1c-4.9,0-9.2-3.7-9.9-8.7c-0.9-6.7-6.6-11.8-13.4-11.8c0,0,0,0,0,0c-6.7,0-12.5,5-13.4,11.7
	c-0.8,5.5-5.8,9.3-11.3,8.5c-5.5-0.8-9.3-5.8-8.5-11.3c2.3-16.5,16.6-29,33.2-29c0,0,0.1,0,0.1,0c16.7,0.1,31,12.6,33.2,29.2
	c0.7,5.5-3.1,10.5-8.6,11.2C278,228.1,277.6,228.1,277.2,228.1z"/>
<path class="st0" d="M187,228.1c-4.9,0-9.2-3.7-9.9-8.7c-0.9-6.7-6.6-11.8-13.4-11.8c0,0,0,0,0,0c-6.7,0-12.5,5-13.4,11.7
	c-0.8,5.5-5.8,9.3-11.3,8.5c-5.5-0.8-9.3-5.8-8.5-11.3c2.3-16.5,16.6-29,33.2-29c0,0,0.1,0,0.1,0c16.7,0.1,31,12.6,33.2,29.2
	c0.7,5.5-3.1,10.5-8.6,11.2C187.9,228.1,187.5,228.1,187,228.1z"/>
</svg>
