<?xml version="1.0" encoding="utf-8"?>
<!-- Generator: Adobe Illustrator 27.0.0, SVG Export Plug-In . SVG Version: 6.00 Build 0)  -->
<svg version="1.1" id="图层_1" xmlns="http://www.w3.org/2000/svg" xmlns:xlink="http://www.w3.org/1999/xlink" x="0px" y="0px"
	 viewBox="0 0 217.7 124.7" style="enable-background:new 0 0 217.7 124.7;" xml:space="preserve">
<style type="text/css">
	.st0{fill:#0062FF;}
	.st1{fill:none;stroke:#000000;stroke-width:0.5;stroke-miterlimit:10;}
	.st2{fill:#2BBF7F;}
	.st3{fill:#F46C3D;}
	.st4{fill:#FFFFFF;}
	.st5{fill:#FFD200;}
	.st6{fill:#56B4FC;}
	.st7{fill:#0052FF;stroke:#FFFFFF;stroke-width:7.960000e-02;stroke-miterlimit:10;}
	.st8{opacity:0.1;fill:#3E3A39;enable-background:new    ;}
	.st9{fill:#606373;}
	.st10{fill:#11113B;}
	.st11{fill:#EFEFEF;}
	.st12{fill:#B1B1C9;}
	.st13{fill:#DCDBEA;stroke:#8D8DAA;stroke-width:7.960000e-02;stroke-miterlimit:10;}
	.st14{fill:#8D8DAA;}
	.st15{fill:none;stroke:#8D8DAA;stroke-width:7.960000e-02;stroke-miterlimit:10;}
	.st16{opacity:0.1;fill:#FFFFFF;enable-background:new    ;}
	.st17{fill:#060423;}
	.st18{fill:#D6D6D6;}
	.st19{fill:#FBF9F9;}
	.st20{fill:url(#SVGID_1_);}
	.st21{fill:#2CFBFB;}
	.st22{fill:none;stroke:#8D8DAA;stroke-width:0.1014;stroke-miterlimit:1.0138;}
	.st23{font-family:'Humanist521BT-Light';}
	.st24{font-size:9.7042px;}
	.st25{font-family:'ArialMT';}
</style>
<rect y="0" class="st0" width="217.7" height="124.7"/>
<circle class="st1" cx="108.8" cy="62.3" r="70.6"/>
<circle class="st1" cx="108.8" cy="62.3" r="57.7"/>
<circle class="st1" cx="108.8" cy="62.3" r="44.8"/>
<path class="st2" d="M65.5,62.4h-3.4c0.1-13.1,6-25.8,16.2-34.9l2.3,2.6C71.1,38.5,65.6,50.3,65.5,62.4z"/>
<path class="st3" d="M92,102.1c-6.3-2.6-11.9-6.7-16.4-12.1L73,92.2c4.8,5.8,10.9,10.2,17.7,13L92,102.1z"/>
<path d="M135,93.9"/>
<path class="st4" d="M139.5,97.3c6.8-5.9,11.7-13.7,14.2-22.5l-3.3-0.9c-2.3,8.2-7,15.5-13.3,21L139.5,97.3z"/>
<path class="st5" d="M56.7,41.9l-3.2-1.2c-2.6,6.7-4.1,14-4.1,21.6c0,6.2,1,12.2,2.7,17.9l3.2-1.1c-1.7-5.3-2.6-10.9-2.6-16.8
	C52.8,55.2,54.2,48.3,56.7,41.9z"/>
<path class="st2" d="M148.6,22.9C158.7,33,164.9,47,164.9,62.3c0,0.1,0,0.3,0,0.4l3.4,0.1c0-0.2,0-0.4,0-0.5
	c0-16.3-6.6-31.1-17.3-41.9L148.6,22.9z"/>
<path class="st2" d="M128.8,114.7c-6.2,2.4-13,3.7-20,3.7c-6.9,0-13.5-1.2-19.6-3.5l-1.1,3.2c6.4,2.4,13.4,3.7,20.7,3.7
	c7.4,0,14.6-1.4,21.1-3.9L128.8,114.7z"/>
<path class="st4" d="M67.2,24.9c5.8-6.4,13-11.5,21.1-14.7l-1-3.2c-8.7,3.4-16.4,8.8-22.6,15.6L67.2,24.9z"/>
<path class="st3" d="M172.3,89.2c-3.4,8-8.2,15.3-14.5,21.6l2.4,2.4c6.6-6.7,11.7-14.3,15.3-22.7L172.3,89.2z"/>
<path class="st5" d="M135.6-1.2c8.1,3.4,15.6,8.4,22,14.8c3,3,5.7,6.3,8.1,9.7l2.8-1.9c-2.5-3.6-5.3-7-8.5-10.2
	c-6.7-6.7-14.6-12-23.1-15.5L135.6-1.2z"/>
<path class="st4" d="M65.5,115.9c-1.9-1.5-3.7-3.1-5.4-4.8c-5.8-5.8-10.4-12.4-13.7-19.5L43.3,93c3.5,7.5,8.4,14.5,14.4,20.6
	c1.8,1.8,3.7,3.5,5.6,5.1L65.5,115.9z"/>
<circle class="st4" cx="179.5" cy="62.3" r="1.9"/>
<circle class="st4" cx="92" cy="20.5" r="1.9"/>
<circle class="st5" cx="127.2" cy="21.4" r="1.9"/>
<circle class="st5" cx="46.8" cy="28.4" r="1.9"/>
<circle class="st3" cx="38.2" cy="62.3" r="1.9"/>
<circle class="st2" cx="66.6" cy="101.9" r="1.9"/>
<circle class="st5" cx="119.9" cy="105.7" r="1.9"/>
<circle class="st2" cx="119.3" cy="5.7" r="1.9"/>
<circle class="st4" cx="109" cy="62.3" r="32"/>
<circle cx="109" cy="62.7" r="27.4"/>
<circle class="st4" cx="109" cy="65.5" r="27.4"/>
<path class="st6" d="M186.2,7.6h-4.5H181c-2.7,0-4.9,2.2-4.9,4.9v0.7v1.5v3.6h3.6h4.3h0.8c2.8,0,5.1-2.3,5.1-5.1v-0.7v-1.3V7.6
	C189.8,7.6,186.2,7.6,186.2,7.6z"/>
<path class="st7" d="M118.4,50l0.1-1.4c0,0-1.3-1.4-0.4-2.9s3.2-0.9,3.2-0.9s2.4,0.4,2.4,2c0,1.7-0.7,2.1-1.8,2.3
	c-1.1,0.2-2.7,0-2.7,0L118.4,50z"/>
<g>
	<path class="st4" d="M120.8,47.2C120.9,47.2,120.9,47.2,120.8,47.2c0.1,0.2,0.1,0.2,0.1,0.2v0.1c0,0-0.1,0-0.2,0v0.6
		c0,0.1,0,0.1-0.1,0.1h-0.1c0,0-0.1,0-0.1-0.1s0-0.1,0-0.1l0.1-0.7l-1.1-0.1l-0.1,0.7c0,0.1,0,0.1-0.1,0.1h-0.1c0,0-0.1,0-0.1-0.1
		s0-0.1,0-0.1l0.2-1.8v-0.1c0,0,0,0,0.1-0.1c0,0,0,0,0.1,0h0.1h0.1v0.1l-0.1,0.8l1.1,0.1l0.1-0.8v-0.1c0,0,0,0,0.1-0.1
		c0,0,0,0,0.1,0h0.1h0.1v0.1L120.8,47.2z	">
<animate  accumulate="none" additive="replace" attributeName="opacity" begin="-0.7142857142857143s" calcMode="linear" dur="1s" fill="remove" keyTimes="0;0.5;1" repeatCount="indefinite" restart="always" values="1;0.5;1">
			</animate>
	</path>
	<path class="st4" d="M121.6,48.2C121.6,48.3,121.6,48.3,121.6,48.2l-0.2,0.1h-0.1v-0.1c0-0.2,0-0.4,0.1-0.7c0-0.2,0-0.4,0.1-0.7
		c0,0,0-0.1,0.1-0.1h0.1h0.1c0,0,0,0.1,0.1,0.1c0,0.2,0,0.4-0.1,0.7C121.6,47.8,121.6,48,121.6,48.2z M121.4,46.4
		C121.4,46.4,121.4,46.3,121.4,46.4l0.2-0.1c0.1,0,0.1,0,0.1,0.1v0.1c0,0,0,0.1-0.1,0.1h-0.1C121.4,46.6,121.4,46.6,121.4,46.4
		L121.4,46.4z	">
<animate  accumulate="none" additive="replace" attributeName="opacity" begin="-0.8571428571428571s" calcMode="linear" dur="1s" fill="remove" keyTimes="0;0.5;1" repeatCount="indefinite" restart="always" values="1;0.5;1">
			</animate>
	</path>
	<path class="st4" d="M122.1,48.2C122.1,48.1,122.1,48.1,122.1,48.2c0.2-0.1,0.2-0.1,0.3-0.1s0.1,0,0.2,0.1s0.1,0.1,0,0.1
		c0,0,0,0.1-0.1,0.1c0,0-0.1,0-0.2,0S122.2,48.4,122.1,48.2C122.1,48.3,122.1,48.2,122.1,48.2z M122.4,46.4
		C122.4,46.3,122.5,46.3,122.4,46.4c0.1,0,0.2,0,0.2,0s0,0.1,0.1,0.1l-0.1,1.2c0,0,0,0.1-0.1,0.1s-0.1,0-0.1,0h-0.1v-0.1L122.4,46.4
		C122.3,46.4,122.4,46.4,122.4,46.4z	">
<animate  accumulate="none" additive="replace" attributeName="opacity" begin="-0.2857142857142857s" calcMode="linear" dur="1s" fill="remove" keyTimes="0;0.5;1" repeatCount="indefinite" restart="always" values="1;0.5;1">
			</animate>
	</path>
</g>
<ellipse class="st8" cx="108.1" cy="83.5" rx="10.8" ry="1.3">
<animate  accumulate="none" additive="replace" attributeName="rx" calcMode="linear" dur="2s" fill="remove" keyTimes="0;0.5;1" repeatCount="indefinite" restart="always" values="11.56;13.56;11.56">
	</animate>
</ellipse>
<g>
	<path class="st9" d="M102.4,69c-1.4,0.1-1.8,0.9-1.8,0.9c3.1,0.7,12,0.7,15.1,0c0,0-0.5-0.9-1.9-1C112,68.8,104.1,68.9,102.4,69z"
		/>
	<path class="st10" d="M112.7,69.5c0,0,0.3-0.3,0-0.6c-0.3-0.3-8.6-0.1-8.9,0s-0.1,0.6-0.1,0.6c-0.3,0.4,0.1,0.6,0.1,0.6
		c-0.1,0.1,0.1,0.3,0.1,0.3l0.3,0.2h3.9h4.3l0.3-0.2c0,0,0.2-0.1,0.1-0.3C112.6,70.1,112.9,69.9,112.7,69.5z"/>
	<path class="st11" d="M115.7,70c-3.1,0.7-12,0.7-15.1,0c0,0-0.5,8,4,9.2c0,0,1.7,0.4,3.5,0.4s3.5-0.4,3.5-0.4
		C116.2,78,115.7,70,115.7,70z"/>
	<path class="st12" d="M113.4,72.1c-0.1-1.1-0.1-1.5-0.2-1.6l0,0l0,0l0,0c0,0,0,0-0.1,0c-0.5,0.1-2.1,0.2-4.9,0.2s-4.4-0.2-4.9-0.2
		c-0.1,0-0.1,0-0.1,0l0,0l0,0l0,0c0,0.1-0.1,0.5-0.2,1.6c0,0.7,0,1.5,0,1.5s0,1.5,1,2.8c0.1,0.1,0.2,0.2,0.2,0.3
		c0.2,0.2,0.4,0.4,0.6,0.6l0,0l0,0c0.1,0,0.1,0.1,0.2,0.1l0,0h0.1c0,0,0,0,0.1,0l0,0c0.6,0.3,1.4,0.4,2.9,0.4l0,0l0,0l0,0l0,0
		c1.5,0,2.3-0.1,2.9-0.4l0,0c0,0,0,0,0.1,0h0.1l0,0c0.1,0,0.2-0.1,0.2-0.1l0,0l0,0c0.2-0.2,0.4-0.4,0.6-0.6c0.1-0.1,0.2-0.2,0.2-0.3
		c1-1.2,1-2.8,1-2.8S113.4,72.8,113.4,72.1z"/>
	<circle class="st13" cx="103.7" cy="71" r="0.3"/>
	<circle class="st13" cx="105" cy="76.5" r="0.3"/>
	<path class="st14" d="M113.1,70.5C113.1,70.5,113,70.5,113.1,70.5c-0.2,0-0.5,0-0.9,0.1c0.1,1,0.3,3.5-0.6,4.7
		c-1.2,1.7-4.8,3.1-6.9,1.7c0.1,0.1,0.2,0.1,0.2,0.2l0,0l0,0c0.1,0,0.1,0.1,0.2,0.1l0,0h0.1c0,0,0,0,0.1,0l0,0
		c0.6,0.3,1.4,0.4,2.9,0.4l0,0l0,0l0,0l0,0c1.5,0,2.3-0.1,2.9-0.4l0,0c0,0,0,0,0.1,0h0.1l0,0c0.1,0,0.2-0.1,0.2-0.1l0,0l0,0
		c0.2-0.2,0.4-0.4,0.6-0.6c0.1-0.1,0.2-0.2,0.2-0.3c1-1.2,1-2.8,1-2.8s0-0.9,0-1.5c-0.1-1.1-0.1-1.5-0.2-1.6l0,0
		C113.2,70.5,113.1,70.5,113.1,70.5z"/>
	<circle class="st7" cx="110.9" cy="72.7" r="1.7">
	
		<animate  accumulate="none" additive="replace" attributeName="fill" calcMode="linear" dur="2s" fill="remove" keyTimes="0;0.5;1" repeatCount="indefinite" restart="always" values="#272362;#0052ff;#272362">
		</animate>
	</circle>
	<circle class="st13" cx="112.6" cy="71" r="0.3"/>
	<path class="st15" d="M115.7,70c-3.1,0.7-12,0.7-15.1,0c0,0-0.5,8,4,9.2c0,0,1.7,0.4,3.5,0.4s3.5-0.4,3.5-0.4
		C116.2,78,115.7,70,115.7,70z"/>
	<path class="st16" d="M109.8,74.1c0.3,0.3,0.7,0.4,1.1,0.4c0.9,0,1.7-0.8,1.7-1.7c0-0.5-0.2-0.9-0.5-1.2c0.1,0.3,0.6,1.6-0.6,2.5
		C111.5,74,110.8,74.4,109.8,74.1z"/>
	<circle class="st13" cx="111.4" cy="76.5" r="0.3"/>
	<path class="st17" d="M114.8,75.9c-0.9-0.5-1.7,0.9-1.7,0.9c-1.3,2.4-4.1,2.8-4.1,2.8l0,0c1.5-0.1,2.7-0.4,2.7-0.4
		C113.3,78.8,114.3,77.4,114.8,75.9L114.8,75.9z"/>
	<path class="st17" d="M103.1,76.8c0,0-0.8-1.4-1.7-0.9c0.6,1.5,1.6,2.9,3.2,3.3c0,0,1.2,0.3,2.6,0.4
		C107.2,79.6,104.4,79.1,103.1,76.8z"/>
	<path class="st14" d="M115.7,70.1c-0.1,0-0.1,0-0.2,0c-0.2,0-0.5,0.1-0.8,0.1l-0.2,0.1c0,0-0.1,3.6,0.1,4.1
		c0.1,0.3,0.4,0.4,0.5,0.5C115.8,72.7,115.7,70.5,115.7,70.1z"/>
	<path class="st14" d="M103.8,70.4c0-0.1-0.1-0.2-0.3-0.3c-1.3-1-2.6-0.2-2.7-0.1C101.6,70.2,102.7,70.3,103.8,70.4z"/>
	<path class="st14" d="M112.4,70.4c0-0.1,0.1-0.2,0.3-0.3c1.3-1,2.6-0.2,2.7-0.1C114.6,70.2,113.6,70.3,112.4,70.4z"/>
	<path class="st15" d="M115.7,70c-3.1,0.7-12,0.7-15.1,0c0,0-0.5,8,4,9.2c0,0,1.7,0.4,3.5,0.4s3.5-0.4,3.5-0.4
		C116.2,78,115.7,70,115.7,70z"/>
	<path class="st18" d="M115.7,69.5c0,0,0.6,1,0.6,3.8c0,0,0,0.7-0.5,1c-0.4,0.2-0.7-0.3-0.7-0.5c-0.2-0.5-0.2-0.8-0.2-1.8
		c0-0.9-0.4-2.3-0.4-2.3h0.9L115.7,69.5z"/>
	<path class="st11" d="M114.4,69.7c0,0,0.4,1.4,0.4,2.3s0,1.3,0.2,1.8c0,0.1,0.1,0.3,0.2,0.4c0-0.1,0.1-0.2,0.1-0.3
		c0.4-1.5-0.3-3.2-0.7-4.1h-0.2V69.7z"/>
	<path class="st15" d="M115.7,69.5c0,0,0.6,1,0.6,3.8c0,0,0,0.7-0.5,1c-0.4,0.2-0.7-0.3-0.7-0.5c-0.2-0.5-0.2-0.8-0.2-1.8
		c0-0.9-0.4-2.3-0.4-2.3h0.9L115.7,69.5z"/>
	<path class="st11" d="M118.4,53c-1.4-0.9-16.7-2.1-18.2-1.4c0,0-3.5,1.5-4,5.2l-0.3,4.5c0,0-0.2,3.6,0.9,4.9c1.1,1.3,2.3,2.1,4,2.5
		c1.5,0.4,5.3,0.8,6.9,1l0,0c0.1,0,0.2,0,0.3,0c0.1,0,0.2,0,0.3,0l0,0c1.7,0.1,5.4,0.2,7,0.1c1.8-0.2,3-0.7,4.3-1.9s1.7-4.7,1.7-4.7
		l0.3-4.5C121.6,55,118.4,53,118.4,53z"/>
	<path class="st4" d="M96.2,56.8L96,59.3c1.2-5.9,4.8-7.4,4.8-7.4l-0.1-0.4c-0.2,0.1-0.3,0.1-0.5,0.2
		C100.2,51.6,96.7,53.1,96.2,56.8z"/>
	<path class="st17" d="M116.8,67.4c-0.1,0-0.1,0.1-0.2,0.1c-0.4,0.2-1.1,0.6-3.4,0.7l-4.7-0.3h-0.6l-4.7-0.5
		c-2.2-0.4-2.8-0.9-3.2-1.2c-0.1,0-0.1-0.1-0.2-0.1c-1.4-1.1-1.3-3.8-1.3-3.9l0.2-3c0.1-1.6,0.4-1.9,0.5-2l0,0l0,0
		c0.4-0.5,1.1-0.8,1.8-1.1c0.1,0,0.2-0.1,0.3-0.1c2.2-0.7,6.2-0.6,7.5-0.5h0.6c1.3,0.1,5.2,0.6,7.3,1.7c0.1,0,0.2,0.1,0.3,0.2
		c0.6,0.4,1.3,0.8,1.6,1.4v0.1l0,0c0,0.1,0.3,0.5,0.2,2l-0.1,2.9C118.7,63.9,118.3,66.6,116.8,67.4z"/>
	<path class="st18" d="M118.4,53C118.4,53,118.3,53,118.4,53l0.4,0.6c0,0,2.7,2.5,1.9,6.6s-1.5,7.1-5,8.7c-3,1.4-8.7,0.8-15.6-0.3
		c0.2,0.1,0.4,0.1,0.6,0.2c1.5,0.4,5.3,0.8,6.9,1l0,0c0.1,0,0.2,0,0.3,0c0.1,0,0.2,0,0.3,0l0,0c1.7,0.1,5.4,0.2,7,0.1
		c1.8-0.2,3-0.7,4.3-1.9s1.7-4.7,1.7-4.7l0.3-4.5C121.6,55,118.4,53,118.4,53z"/>
	<path d="M101.6,66.7c0,0-2.1-0.4-2.3-2.9c-0.2-2.5,0.3-5.3,0.3-5.3s0.1-1.1,2-1.7c1.2-0.4,4.2-1.1,8.2-0.7c2.5,0.3,6.7,0.7,8.6,2.6
		c0,0-10.5-4-16,0.4C102.3,59,98.3,62,101.6,66.7z"/>
	<path d="M115,58.8c0,0-11.6-3.5-13.9,4.5c0,0-0.4-5.2,7.2-5.6C108.3,57.7,112.6,57.7,115,58.8z"/>
	<path class="st15" d="M118.4,53c-1.4-0.9-16.7-2.1-18.2-1.4c0,0-3.5,1.5-4,5.2l-0.3,4.5c0,0-0.2,3.6,0.9,4.9c1.1,1.3,2.3,2.1,4,2.5
		c1.5,0.4,5.3,0.8,6.9,1l0,0c0.1,0,0.2,0,0.3,0c0.1,0,0.2,0,0.3,0l0,0c1.7,0.1,5.4,0.2,7,0.1c1.8-0.2,3-0.7,4.3-1.9s1.7-4.7,1.7-4.7
		l0.3-4.5C121.6,55,118.4,53,118.4,53z"/>
	<path class="st19" d="M109.5,50.2c-5.9-0.6-9.3,1.2-9.3,1.2s0.3,0.3,0.5,0.6c0.2,0.4,0.5,0.7,1.4,1.2c1.2,0.6,7,1.1,7,1.1
		s5.9,0.4,7.1-0.1c1-0.3,1.3-0.7,1.6-1c0.3-0.3,0.6-0.5,0.6-0.5S115.4,50.5,109.5,50.2z"/>
	<polygon class="st14" points="118.5,53.1 118.6,52.8 118.2,53 	"/>
	<path class="st11" d="M117,52c-1,0.5-4.3,2.1-7.5,1.9c-3.9-0.3-8.6-1.8-8.6-1.8s0,0-0.1,0c0.2,0.4,0.5,0.7,1.4,1.2
		c1.2,0.6,7,1.1,7,1.1s5.9,0.4,7.1-0.1c1-0.3,1.3-0.7,1.6-1c0.3-0.3,0.6-0.5,0.6-0.5S118,52.4,117,52z"/>
	<path class="st15" d="M109.5,50.2c-5.9-0.6-9.3,1.2-9.3,1.2s0.3,0.3,0.5,0.6c0.2,0.4,0.5,0.7,1.4,1.2c1.2,0.6,7,1.1,7,1.1
		s5.9,0.4,7.1-0.1c1-0.3,1.3-0.7,1.6-1c0.3-0.3,0.6-0.5,0.6-0.5S115.4,50.5,109.5,50.2z"/>
	
		<linearGradient id="SVGID_1_" gradientUnits="userSpaceOnUse" x1="15771.666" y1="26104.127" x2="16035.5635" y2="26104.127" gradientTransform="matrix(7.940000e-02 6.064879e-03 -6.064879e-03 7.940000e-02 -995.4788 -2107.4138)">
		<stop  offset="0" style="stop-color:#FFFFFF"/>
		<stop  offset="0.9994" style="stop-color:#99AAD1"/>
	</linearGradient>
	<path class="st20" d="M119.3,60.8c0.2-1.7-0.1-2.2-0.3-2.3c-0.3-0.6-1.1-1.1-1.7-1.5c-0.1-0.1-0.2-0.1-0.3-0.2l0,0
		c-1.1-0.6-2.8-1-5-1.4c-1.1-0.2-2-0.3-2.5-0.3l0,0h-0.2c0,0,0,0-0.1,0s-0.1,0-0.1,0h-0.2l0,0c-0.5,0-1.5-0.1-2.6-0.1
		c-2.2,0-4,0.2-5.1,0.6l0,0c-0.1,0-0.2,0.1-0.3,0.1c-0.7,0.3-1.5,0.6-1.9,1.2c-0.1,0.1-0.5,0.6-0.6,2.3l-0.2,3l0,0
		c0,0.1-0.1,3,1.5,4.2l0,0c0,0,0.1,0.1,0.2,0.1c0.4,0.3,1.1,0.8,3.4,1.3l4.7,0.5l0,0h0.3h0.3l0,0l4.8,0.3c2.3-0.1,3.1-0.5,3.5-0.7
		c0.1,0,0.1-0.1,0.2-0.1l0,0c1.7-1,2.1-3.8,2.1-3.9l0,0L119.3,60.8z M116.8,67.4c-0.1,0-0.1,0.1-0.2,0.1c-0.4,0.2-1.1,0.6-3.4,0.7
		l-4.7-0.3h-0.6l-4.7-0.5c-2.2-0.4-2.8-0.9-3.2-1.2c-0.1,0-0.1-0.1-0.2-0.1c-1.4-1.1-1.3-3.8-1.3-3.9l0.2-3c0.1-1.6,0.4-1.9,0.5-2
		l0,0l0,0c0.4-0.5,1.1-0.8,1.8-1.1c0.1,0,0.2-0.1,0.3-0.1c2.2-0.7,6.2-0.6,7.5-0.5h0.6c1.3,0.1,5.2,0.6,7.3,1.7
		c0.1,0,0.2,0.1,0.3,0.2c0.6,0.4,1.3,0.8,1.6,1.4v0.1l0,0c0,0.1,0.3,0.5,0.2,2l-0.1,2.9C118.7,63.9,118.3,66.5,116.8,67.4z"/>
	<polygon class="st14" points="100.2,51.6 100.2,51.4 100.4,51.5 	"/>
	<path class="st21" d="M108.5,66.6c0.4,0,0.7-0.3,0.7-0.6l-1.3-0.2C107.9,66.2,108.2,66.5,108.5,66.6z"/>
	<path class="st9" d="M107.8,69.5"/>
	<g>
		<path class="st11" d="M99.3,69.9c0,0-2.4-1.4-3-2.1c0,0-1.1-0.8-1.7-0.7c-0.6,0.2-0.7,0.7-0.5,1.2c0.2,0.4,1.7,3.1,4.5,3
			C98.7,71.3,98.6,70.3,99.3,69.9z"/>
		<path class="st18" d="M98.7,71.3c0,0,0-0.6,0.2-1c-1.9,0.1-3.8-0.9-4.3-1.2C95.3,70,96.6,71.4,98.7,71.3z"/>
		<path class="st22" d="M99.3,69.9c0,0-2.4-1.4-3-2.1c0,0-1.1-0.8-1.7-0.7c-0.6,0.2-0.7,0.7-0.5,1.2c0.2,0.4,1.7,3.1,4.5,3
			C98.7,71.3,98.6,70.3,99.3,69.9z"/>
		
			<animateTransform  accumulate="none" additive="replace" attributeName="transform" calcMode="linear" dur="0.5s" fill="remove" repeatCount="indefinite" restart="always" times="0;0.5;1" type="rotate" values="-0.5 0 0;0.1 0 0;-0.5 0 0;">
			</animateTransform>
	</g>
	<circle class="st21" cx="103.5" cy="63.3" r="2.2">
	
		<animate  accumulate="none" additive="replace" attributeName="r" calcMode="linear" dur="2s" fill="remove" keyTimes="0;0.01;0.02;0.98;0.99;1" repeatCount="indefinite" restart="always" values="0;0;2.78;2.78;0;0">
		</animate>
	</circle>
	<circle class="st21" cx="113.7" cy="63.7" r="2.2">
	
		<animate  accumulate="none" additive="replace" attributeName="r" calcMode="linear" dur="2s" fill="remove" keyTimes="0;0.01;0.02;0.98;0.99;1" repeatCount="indefinite" restart="always" values="0;0;2.78;2.78;0;0">
		</animate>
	</circle>
	
		<animateTransform  accumulate="none" additive="replace" attributeName="transform" calcMode="linear" dur="2s" fill="remove" keyTimes="0;0.5;1" repeatCount="indefinite" restart="always" type="translate" values="0 -1;0 1;0 -1">
		</animateTransform>
	<path class="st4" d="M110.3,72.8C110.3,72.8,110.3,72.8,110.3,72.8c0.5,0,0.9,0,1.3,0c0.1,0,0.2-0.1,0.2-0.2c0-0.1,0-0.1,0-0.2
		c0-0.2-0.1-0.3-0.3-0.5c-0.1-0.1-0.1-0.2,0-0.2c0.1-0.1,0.2-0.1,0.3,0c0.1,0.2,0.3,0.3,0.3,0.5c0.2,0.6-0.1,1.3-0.7,1.6
		c-0.2,0.1-0.4,0.1-0.6,0.1c-0.1,0-0.2-0.1-0.2-0.1c0-0.1,0-0.2,0.1-0.2c0,0,0.1,0,0.1,0c0.2,0,0.4-0.1,0.5-0.2
		c0.1,0,0.1-0.1,0.1-0.2c0-0.1-0.1-0.1-0.2-0.1c-0.1,0-0.1,0.1-0.2,0.1C110.8,73.4,110.4,73.2,110.3,72.8
		C110.3,72.8,110.3,72.8,110.3,72.8z"/>
	<path class="st4" d="M109.6,72.7c0-0.6,0.3-1.1,0.9-1.3c0.1,0,0.3-0.1,0.4-0.1c0.1,0,0.2,0.1,0.2,0.2c0,0.1-0.1,0.2-0.2,0.2
		c-0.1,0-0.2,0-0.3,0c-0.3,0.1-0.5,0.3-0.6,0.7c-0.1,0.3,0,0.6,0.2,0.9c0.1,0.1,0.1,0.1,0,0.2c0,0.1-0.1,0.1-0.2,0.1
		c0,0-0.1,0-0.1-0.1C109.7,73.3,109.6,73,109.6,72.7z"/>
	<path class="st4" d="M111.5,72.5c-0.4,0-0.8,0-1.2,0c0-0.1,0.1-0.2,0.1-0.2c0.1-0.1,0.3-0.2,0.4-0.2c0.2,0,0.3,0,0.5,0.2
		C111.4,72.3,111.5,72.4,111.5,72.5z"/>
</g>
<text transform="matrix(1 0 0 1 192.771 15.7488)" class="st4 st23 st24">Earn</text>
<g>
	<text transform="matrix(1 0 0 1 178.1997 16.0901)" class="st4 st25 st24">Ai</text>
</g>
</svg>
