<svg xmlns="http://www.w3.org/2000/svg" fill="currentColor" viewBox="0 0 512 512" style="enable-background:new 0 0 512 512" xml:space="preserve"><path d="M461.912 411.826H50.088c-27.619 0-50.087 22.468-50.087 50.087v33.391C.001 504.527 7.48 512 16.697 512h478.607c9.217 0 16.696-7.473 16.696-16.696v-33.391c-.001-27.619-22.468-50.087-50.088-50.087zM501.749 101.47 262.445 1.296a16.667 16.667 0 0 0-12.891 0L10.251 101.47a16.703 16.703 0 0 0-10.25 15.402v66.782c0 9.223 7.479 16.696 16.696 16.696h478.607c9.217 0 16.696-7.473 16.696-16.696v-66.782a16.705 16.705 0 0 0-10.251-15.402zM256 128.001c-9.22 0-16.696-7.475-16.696-16.696S246.779 94.61 256 94.61s16.696 7.475 16.696 16.696-7.475 16.695-16.696 16.695zM372.868 233.738h100.173v144.695H372.868zM205.912 233.738h100.173v144.695H205.912zM38.956 233.738h100.173v144.695H38.956z"/></svg>