<?xml version="1.0" encoding="utf-8"?>
<!-- Generator: Adobe Illustrator 27.0.0, SVG Export Plug-In . SVG Version: 6.00 Build 0)  -->
<svg version="1.1" id="图层_1" xmlns="http://www.w3.org/2000/svg" xmlns:xlink="http://www.w3.org/1999/xlink" x="0px" y="0px"
	 viewBox="0 0 566.9 566.9" style="enable-background:new 0 0 566.9 566.9;" xml:space="preserve">
<style type="text/css">
	.st0{fill:#FFC72F;}
</style>
<path class="st0" d="M144,384.8c6.2-26.7,21-52.4,37.8-73.8c6.1-7.7,23.5-20,22.5-30.6c-1.1-12.1-19.4-26.5-26.3-36
	c-15.3-20.8-26.5-45.3-32.9-70.2c-2-7.9-9-25.9-4.5-33.4c4.3-7.2,21.6-4.7,28.6-4.2c18.8,1.3,37.7,4.2,55.8,9.4
	c8.7,2.5,21.5,9.7,30.5,7.8c12.5-2.5,24.3-26.3,32.6-35.4c20.5-22.1,46.3-41.2,73.7-54c-6.3-15-19.8-27.4-32.4-37.3
	C258.8-28.7,147.4,5.7,122.3,93.2c-12.8,44.5-1.7,94.4,18.6,135c5.9,11.8,13,23.6,20.9,34.2c3.7,4.9,11.2,11.4,11.2,18
	c0,7.5-9.7,16-13.9,21.6c-12.7,17-23,35.9-30.5,55.8c-2,5.2-8.1,16.7-4.2,22.1C127.8,384.5,138.9,384.2,144,384.8 M149.5,147.2
	c0.6,31.1,37,21.8,61.2,27.9c15.3,3.8,44.2,23.5,59,20.1c10.8-2.5,23.9-33.7,31.1-42.6c24-29.1,52.6-46.2,84.5-64.8
	c6.1,22.5,15.2,43.1,17.7,66.6c1.6,14.1-2.4,37.3,3.2,50c2.8,6.2,11.2,7.2,16.9,9.2c14.4,5,28.2,11,41.4,18.5
	c15.3,8.8,30,18.8,43.2,30.6c4.3,3.9,11.1,13.5,17.8,11.7c7.9-2.1,12.8-16.2,15.8-22.8c11.4-25.2,17.3-53.5,13.4-81
	c-10-71.4-74.4-116.4-144.3-111.5c-45.7,3.2-86.2,35.3-117,66.5c-9.1,9.2-21.8,36.4-33.5,40.4c-8,2.7-24.9-7.9-33.1-10
	C200.9,149.1,176.2,147.2,149.5,147.2 M360.1,109.4c4.5,30.4,13.3,56.7,12.6,88.2c-0.2,8.4-7.5,28-0.7,34.5
	c7.8,7.4,29.9,8,40.3,11.5c24,8.1,46.9,20.7,66.6,36.5c6.6,5.3,25.1,17.9,25.1,27.2c0,7.5-16,15.7-21.5,19.3
	c-15.7,10.4-32.7,19.3-50.4,25.8c-7.9,2.9-21.8,4.3-27.7,10.4c-7.3,7.4-2.3,28.6-3.4,38.3c-4.2,35.3-22.3,65.3-28.3,99
	c27.2,8.7,56.6,12.3,84.6,5.6C554,482.4,577,368.1,525.1,293c-18.5-26.8-50.9-48.4-80.4-61.5c-11.4-5.1-42.2-9.5-48.5-20
	c-6.5-10.7-1.6-34.1-1.9-46.4c-0.5-21.8-6.6-44.6-14.4-64.8L360.1,109.4L360.1,109.4z"/>
<path class="st0" d="M345.7,458.6c-21.5-13.5-40.8-33.1-55.2-54c-5.7-8.3-13.8-31-22.9-34.9c-11.8-5.1-40.9,13.2-53.3,16.6
	c-35.8,9.8-68.4,6.7-104.4,2.1c5.4-26.1,16.8-51.1,30.6-73.8c5.7-9.3,20.7-23,20.8-34.2c0.1-13.8-20.4-34.5-27.2-46.8
	c-13.8-25.2-20.6-53.1-26-81c-18.8,1.7-37.7,14.1-52.2,25.6c-69.3,54.5-67.6,159.7,5.4,210.8c39.7,27.8,90.1,31.4,136.8,23.9
	c14.7-2.4,43.8-18,57.4-14.3c7.4,2,12.4,14.6,16.4,20.5c12.1,17.6,26.6,32.9,43.2,46.3c4.6,3.7,12.9,12.5,19.4,11.4
	C341.2,475.7,344.1,464.1,345.7,458.6L345.7,458.6z"/>
<path class="st0" d="M338.5,492.8l-60.4-52.2l-26.2-30.7l-50.2,12l-88.2,0.8c0,39.3,10.3,77,38.3,105.9
	c57.6,59.3,152.1,44.5,200.3-17.7c22.8-29.4,33.7-66.1,38.1-102.6c1.5-12.2-4.2-42.5,3.4-51.4c7.4-8.7,29.7-10.7,40.3-14.6
	c22.2-8.1,42.2-21.1,61.2-34.8c-3.1-6.5-9.5-15.6-18-14.2c-9.6,1.6-20.4,11.9-28.8,16.7c-15.1,8.6-31.8,14.8-48.6,19.3
	c-7.4,2-25.6,2.2-30.6,8.3c-3.8,4.7-1.2,13.2-0.6,18.5c1.6,13.4,1,27.9,0.5,41.4C367.5,432.8,351.7,461.2,338.5,492.8z"/>
</svg>
