<svg xmlns="http://www.w3.org/2000/svg" x="0px" y="0px"
	 viewBox="0 0 749.4 339.1" style="enable-background:new 0 0 749.4 339.1;" xml:space="preserve">
<style type="text/css">
	.st0{opacity:0.24;}
	.st1{fill:none;stroke:#727171;}
	.st2{fill:none;stroke:#FF0000;stroke-width:4;stroke-linecap:round;}
	.st3{fill:none;stroke:#2158E7;stroke-width:4;stroke-linecap:round;}
	.st4{fill:none;stroke:#231815;stroke-miterlimit:10;}
	.st5{fill:#595757;}
	.st6{font-family:'ArialMT';}
	.st7{font-size:12px;}
	.st8{fill:none;stroke:#231815;}
	.st9{fill:none;stroke:#2158E7;stroke-width:5;stroke-linecap:round;}
	.st10{fill:none;stroke:#FF0000;stroke-width:5;stroke-linecap:round;}
</style>
<g class="st0">
	<g>
		<line class="st1" x1="0" y1="274.4" x2="689.1" y2="274.4"/>
		<line class="st1" x1="0" y1="240" x2="689.1" y2="240"/>
		<line class="st1" x1="0" y1="205.7" x2="689.1" y2="205.7"/>
		<line class="st1" x1="0" y1="171.3" x2="689.1" y2="171.3"/>
		<line class="st1" x1="0" y1="136.9" x2="689.1" y2="136.9"/>
		<line class="st1" x1="0" y1="102.5" x2="689.1" y2="102.5"/>
		<line class="st1" x1="0" y1="68.2" x2="689.1" y2="68.2"/>
		<line class="st1" x1="0" y1="33.8" x2="689.1" y2="33.8"/>
	</g>
</g>
<g>
	<path class="st2" d="M9.7,252.7l4.1,1.4l4.1-9.1l4.1,9.9l4.1,8.4l4.1-0.1l4.1,13.3l4.1,0.4l4.1-9.1l4.1,3.1l4.1-7.4l4.1,7.6
		l4.1,5.3l4.1-1l4.1,6.4l4.1-0.8l4.1-5.3l4.1-1.7l4.1-2.3l4.1-0.8l4.1,3.6l4.1,0.7l4.1,4.6l4.1-1.4l4.1,3.7l4.1,1.3l4.1,1.2l4.1-0.8
		l4.1-1.4l4.1,1.4l4.1-4.1l4.1-3.2l4.1,4.7l4.1,2.8l4.1-0.7l4.1-0.9l4.1-2.3l4.1,4.2l4.1-1l4.1-0.8l4.1,0.4l4.1,0.1l4.1,1.5l4.1-0.9
		l4.1,0l4.1-0.1l4.1,0.3l4.1,3.1l4.1,6.4l4.1-0.7l4.1,2.3l4.1,1.3l4.1-3l4.1,0.5l4.1-0.8l4.1,2.1l4.1-0.1l4.1,0l4.1,0.5l4.1-0.9
		l4.1,0.1l4.1-0.4l4.1-0.2l4.1-0.5l4.1-0.3l4.1,0l4.1-0.5l4.1-4.3l4.1,0.1l4.1-0.5l4.1,0.6l4.1-2.2l4.1-5l4.1-4.8l4.1-2.1l4.1,0
		l4.1,4.3l4.1-5.3l4.1-7.3l4.1,0.3l4.1-2.8l4.1,5.1l4.1-1.6l4.1,4.2l4.1-5.7l4.1-2.2l4.1,4.8l4.1,0.7l4.1,1.5l4.1-2.5l4.1,0.4
		l4.1,1.1l4.1,7.8l4.1,0.8l4.1-1.7l4.1,0.2l4.1-5.2l4.1,1.3l4.1,0.7l4.1,2.1l4.1,6.3l4.1-2l4.1-0.5l4.1,1.6l4.1-1.6l4.1,0.5l4.1,0.1
		l4.1-3.3l4.1-2l4.1,0.4l4.1-2.9l4.1-3.3l4.1,1l4.1-0.2l4.1,5.7l4.1,1.9l4.1,10.6l4.1-1.9l4.1-0.2l4.1-3.6l4.1-0.5l4.1-0.9l4.1-2.3
		l4.1-4.7l4.1,0.7l4.1-3.7l4.1,3.8l4.1-2.9l4.1-1.2l4.1,1.7l4.1,0.2l4.1,0.7l4.1,0.2l4.1-0.9l4.1,0.4l4.1-2.9l4.1-4.4l4.1-2.4
		l4.1-0.9l4.1,1.1l4.1-0.3l4.1,5.7l4.1-0.3l4.1-2.3l4.1,0.6l4.1,0.4l4.1-2.8l4.1-0.6l4.1-6l4.1-2.9l4.1-6.7l4.1-1.9l4.1-9.7l4.1,0.9
		l4.1-4.6l4.1,0.8l4.1-17l4.1-11l4.1-26.9l4.1-20.1l4.1,9.3l4.1,13.9l4.1,7.9"/>
</g>
<g>
	<path class="st3" d="M9.7,308.4l4.1-0.3l4.1-0.5l4.1-0.2l4.1-0.1l4.1-0.3l4.1,0.2l4.1-0.3l4.1-0.9l4.1-0.1l4.1-0.9l4.1,0.3l4.1,0.2
		l4.1-0.5l4.1,0.4l4.1-0.4l4.1-1.1l4.1-0.6l4.1-0.7l4.1-0.5l4.1,0.3l4.1-0.2l4.1,0.6l4.1-0.6l4.1,0.5l4.1,0l4.1-0.1l4.1-0.6l4.1-0.7
		l4.1,0.1l4.1-1.6l4.1-1.4l4.1,1.2l4.1,0.6l4.1-0.6l4.1-0.7l4.1-1.2l4.1,1.3l4.1-0.8l4.1-0.7l4.1-0.2l4.1-0.3l4.1,0.4l4.1-0.8
		l4.1-0.3l4.1-0.4l4.1-0.2l4.1,1.3l4.1,3.1l4.1-0.7l4.1,1l4.1,0.5l4.1-2.2l4.1,0l4.1-0.9l4.1,1.1l4.1-0.4l4.1-0.3l4.1,0l4.1-1.1
		l4.1-0.3l4.1-0.7l4.1-0.5l4.1-0.7l4.1-0.6l4.1-0.4l4.1-0.8l4.1-4.6l4.1-0.2l4.1-0.9l4.1,0.2l4.1-2.7l4.1-5.7l4.1-5.5l4.1-2.6
		l4.1-0.4l4.1,4.5l4.1-6.3l4.1-8.6l4.1,0l4.1-3.6l4.1,5.5l4.1-2.2l4.1,4.5l4.1-7.1l4.1-3l4.1,5.4l4.1,0.5l4.1,1.4l4.1-3.4l4.1,0.1
		l4.1,1l4.1,9.4l4.1,0.6l4.1-2.5l4.1-0.1l4.1-7l4.1,1.4l4.1,0.6l4.1,2.4l4.1,8l4.1-3l4.1-1l4.1,1.9l4.1-2.5l4.1,0.4l4.1-0.2l4.1-4.9
		l4.1-3.2l4.1,0.2l4.1-4.5l4.1-5.2l4.1,1.1l4.1-0.6l4.1,8.1l4.1,2.5l4.1,15.6l4.1-3.2l4.1-0.7l4.1-5.8l4.1-1.1l4.1-1.7l4.1-3.9
		l4.1-7.9l4.1,0.8l4.1-6.4l4.1,5.8l4.1-5.1l4.1-2.3l4.1,2.4l4.1-0.1l4.1,0.8l4.1-0.1l4.1-1.9l4.1,0.3l4.1-5.3l4.1-8l4.1-4.6l4.1-1.9
		l4.1,1.5l4.1-0.8l4.1,9.8l4.1-0.9l4.1-4.4l4.1,0.7l4.1,0.4l4.1-5.3l4.1-1.3l4.1-11.3l4.1-5.6l4.1-12.7l4.1-3.8l4.1-18.2l4.1,1.4
		l4.1-8.9l4.1,1.2l4.1-31.9l4.1-20.7l4.1-50.5l4.1-37.8l4.1,17l4.1,25.7l4.1,14.4"/>
</g>
<g>
</g>
<g transform="translate(0,281.1106376647949)">
	<line class="st4" x1="17.8" y1="32.7" x2="17.8" y2="27.7"/>
	<line class="st4" x1="71" y1="32.7" x2="71" y2="27.7"/>
	<line class="st4" x1="124.7" y1="32.7" x2="124.7" y2="27.7"/>
	<line class="st4" x1="179" y1="32.7" x2="179" y2="27.7"/>
	<line class="st4" x1="233.3" y1="32.7" x2="233.3" y2="27.7"/>
	<line class="st4" x1="286.5" y1="32.7" x2="286.5" y2="27.7"/>
	<line class="st4" x1="340.2" y1="32.7" x2="340.2" y2="27.7"/>
	<line class="st4" x1="394.6" y1="32.7" x2="394.6" y2="27.7"/>
	<line class="st4" x1="448.9" y1="32.7" x2="448.9" y2="27.7"/>
	<line class="st4" x1="502.6" y1="32.7" x2="502.6" y2="27.7"/>
	<line class="st4" x1="556.4" y1="32.7" x2="556.4" y2="27.7"/>
	<line class="st4" x1="610.7" y1="32.7" x2="610.7" y2="27.7"/>
	<line class="st4" x1="665" y1="32.7" x2="665" y2="27.7"/>
</g>
<g transform="translate(0,291.1106376647949)">
	<g>
		<text transform="matrix(1 0 0 1 17.8128 40.6667)" class="st5 st6 st7">Jan ’18</text>
		<text transform="matrix(1 0 0 1 70.9584 40.6667)" class="st5 st6 st7">Apr ’18</text>
		<text transform="matrix(1 0 0 1 124.6945 40.6667)" class="st5 st6 st7">Jul ’18</text>
		<text transform="matrix(1 0 0 1 179.0212 40.6667)" class="st5 st6 st7">Oct ’18</text>
		<text transform="matrix(1 0 0 1 233.3478 40.6667)" class="st5 st6 st7">Jan ’19</text>
		<text transform="matrix(1 0 0 1 286.4934 40.6667)" class="st5 st6 st7">Apr ’19</text>
		<text transform="matrix(1 0 0 1 340.2295 40.6667)" class="st5 st6 st7">Jul ’19</text>
		<text transform="matrix(1 0 0 1 394.5562 40.6667)" class="st5 st6 st7">Oct ’19</text>
		<text transform="matrix(1 0 0 1 448.8828 40.6667)" class="st5 st6 st7">Jan ’20</text>
		<text transform="matrix(1 0 0 1 502.6189 40.6667)" class="st5 st6 st7">Apr ’20</text>
		<text transform="matrix(1 0 0 1 556.355 40.6667)" class="st5 st6 st7">Jul ’20</text>
		<text transform="matrix(1 0 0 1 610.6816 40.6667)" class="st5 st6 st7">Oct ’20</text>
		<text transform="matrix(1 0 0 1 665.0083 40.6667)" class="st5 st6 st7">Jan ’21</text>
	</g>
</g>
<g>
</g>
<g transform="translate(694.0706176757812,0)">
	<g>
		<text transform="matrix(1 0 0 1 -1 313.7773)" class="st5 st6 st7">0</text>
		<text transform="matrix(1 0 0 1 -1 279.4023)" class="st5 st6 st7">10,000</text>
		<text transform="matrix(1 0 0 1 -1 245.0273)" class="st5 st6 st7">20,000</text>
		<text transform="matrix(1 0 0 1 -1 210.6523)" class="st5 st6 st7">30,000</text>
		<text transform="matrix(1 0 0 1 -1 176.2773)" class="st5 st6 st7">40,000</text>
		<text transform="matrix(1 0 0 1 -1 141.9023)" class="st5 st6 st7">50,000</text>
		<text transform="matrix(1 0 0 1 -1 107.5273)" class="st5 st6 st7">60,000</text>
		<text transform="matrix(1 0 0 1 -1 73.1523)" class="st5 st6 st7">70,000</text>
		<text transform="matrix(1 0 0 1 -1 38.7773)" class="st5 st6 st7">$80,000</text>
	</g>
</g>
<g>
	<line class="st8" x1="689.1" y1="308.8" x2="0" y2="308.8"/>
</g>
<g>
	<text transform="matrix(1 0 0 1 35.4736 16.954)" class="st5 st6 st7">DCA $100/wk for a total $16,300</text>
</g>
<g>
	<text transform="matrix(1 0 0 1 278.5161 16.5461)" class="st5 st6 st7">Lump sum $16,300 buy on 12/18/2017</text>
</g>
<line class="st9" x1="9.7" y1="13.1" x2="28.5" y2="13.1"/>
<line class="st10" x1="251.2" y1="13.1" x2="270.1" y2="13.1"/>
</svg>
