<svg width="122" height="61" viewBox="0 0 122 61" fill="none" xmlns="http://www.w3.org/2000/svg">
<g clip-path="url(#clip0_22_2844)">
<path d="M41.3105 0H81.3744V34.9888H41.3105V0Z" fill="#CDD2DC"/>
<path d="M41.3105 0V4.36859C41.7928 8.73719 43.7216 13.0256 47.0569 16.3522C54.8929 24.1675 67.6314 24.1675 75.4673 16.3522C79.968 11.8633 81.8567 5.81143 81.2137 0H41.3105Z" fill="#0054FF"/>
<path d="M47.1758 18.7569C39.3398 26.5723 39.3398 39.2773 47.1758 47.0926C55.0118 54.908 67.7502 54.908 75.5862 47.0926C83.4222 39.2773 83.4222 26.5723 75.5862 18.7569C67.7502 10.9415 55.0118 10.9415 47.1758 18.7569Z" fill="#FFD000"/>
<path fill-rule="evenodd" clip-rule="evenodd" d="M60.7188 41.0007L60.9599 0H62.0047L61.7635 41.0007H60.7188Z" fill="#0A0B0D"/>
<path fill-rule="evenodd" clip-rule="evenodd" d="M68.5551 34.1071L61.2416 41.4415L54.1289 34.3476L54.5709 33.5059L61.2416 40.159L68.1131 33.2654L68.5551 34.1071Z" fill="#0A0B0D"/>
<path d="M0 45.0887H26.6825V52.9041H0V45.0887ZM88.4058 53.1445H122V60.9599H88.4058V53.1445ZM26.6825 52.864H81.4539V61H26.6825V52.864Z" fill="#CDD2DC"/>
<path d="M34.9199 44.8081H87.7625V52.9441H34.9199V44.8081Z" fill="#CDD2DC"/>
<path d="M75.8272 59.7976V58.1143H74.6619V59.7976H69.7594V58.1143H68.594V59.7976H63.6915V58.1143H62.5262V59.7976H57.5433V58.1143H56.378V59.7976H51.5156V58.1143H50.3503V59.7976H45.4478V58.1143H44.2824V59.7976H39.3799V58.1143H38.1744V59.7976H33.3523V58.1143H32.1869V59.7976H26.6816V61H81.4932V59.7976H75.8272ZM74.6619 51.9823V50.2589H75.8272V51.9823H80.7699V50.2589H81.9353V51.9823H87.5611V53.1446H34.6783V51.9823H40.1836V50.2589H41.349V51.9823H46.1711V50.2589H47.3364V51.9823H74.6619Z" fill="#0A0B0D"/>
<path d="M11.6138 28.3758C9.64473 28.3758 8.03735 29.979 8.03735 31.9428C8.03735 29.979 6.42998 28.3758 4.46094 28.3758C6.42998 28.3758 8.03735 26.7727 8.03735 24.8088C8.03735 26.7727 9.64473 28.3758 11.6138 28.3758ZM101.386 15.0296C98.3318 15.0296 95.8806 17.5144 95.8806 20.5204C95.8806 17.4744 93.3891 15.0296 90.3753 15.0296C93.4293 15.0296 95.8806 12.5447 95.8806 9.53876C95.8404 12.5847 98.3318 15.0296 101.386 15.0296Z" fill="#00E6FC"/>
<path d="M28.0084 16.3121C23.8292 16.3121 20.3733 19.7188 20.3733 23.9271C20.3733 19.7589 16.9576 16.3121 12.7383 16.3121C16.9175 16.3121 20.3733 12.9054 20.3733 8.69711C20.3733 12.8653 23.8292 16.3121 28.0084 16.3121Z" fill="#00D577"/>
<path d="M121.277 36.7122C116.133 36.7122 111.914 40.9205 111.914 46.0506C111.914 40.9205 107.694 36.7122 102.551 36.7122C107.694 36.7122 111.914 32.5039 111.914 27.3738C111.914 32.5039 116.133 36.7122 121.277 36.7122Z" fill="#FFD200"/>
<path d="M45.248 44.8081C45.8106 45.5696 46.4536 46.2911 47.1367 46.9724C54.9727 54.7878 67.7112 54.7878 75.5471 46.9724C76.2303 46.2911 76.8732 45.5696 77.4358 44.8081H45.248Z" fill="#0054FF"/>
<path d="M61.4017 47.5736C69.5022 47.5736 76.069 41.0241 76.069 32.9448C76.069 24.8656 69.5022 18.316 61.4017 18.316C53.3012 18.316 46.7344 24.8656 46.7344 32.9448C46.7344 41.0241 53.3012 47.5736 61.4017 47.5736Z" stroke="#0A0B0D" stroke-width="2.5" stroke-miterlimit="10"/>
</g>
<defs>
<clipPath id="clip0_22_2844">
<rect width="122" height="61" fill="white"/>
</clipPath>
</defs>
</svg>
