<svg xmlns="http://www.w3.org/2000/svg" xmlns:xlink="http://www.w3.org/1999/xlink" x="0px" y="0px"
	 viewBox="0 0 27.9 28" style="enable-background:new 0 0 27.9 28;" xml:space="preserve">
	<path fill="#0052FF" d="M17.6,11.1c-0.2,0-0.4-0.2-0.5-0.4l-0.3-1.2c-0.1-0.2-0.3-0.4-0.5-0.4h-1.5h-1.8h-1.5c-0.2,0-0.4,0.2-0.5,0.4
		l-0.3,1.2c-0.1,0.2-0.3,0.4-0.5,0.4H8c-0.3,0-0.5,0.2-0.5,0.5v7c0,0.3,0.2,0.5,0.5,0.5h11.8c0.3,0,0.5-0.2,0.5-0.5v-7
		c0-0.3-0.2-0.5-0.5-0.5L17.6,11.1L17.6,11.1z M15.8,14.7c-0.1,0.9-0.8,1.7-1.8,1.8c-1.1,0.1-2.1-0.9-2-2c0.1-0.9,0.8-1.7,1.8-1.8
		C15,12.6,15.9,13.6,15.8,14.7z"/>
	<path fill="#A1A1A1" d="M5.3,4.5C5.5,4.8,5.8,4.9,6,4.9l2.2,0.3c0.5,0.1,1-0.2,1.2-0.6c0.3-0.4,0.1-0.9-0.4-1.5l0,0
		C14,0.9,20,2.3,23.5,6.8c2.7,3.6,3.2,8.3,1.2,12.4c-0.3,0.5,0,1.2,0.5,1.4c0.5,0.3,1.2,0,1.4-0.5c1.1-2.3,1.6-4.8,1.4-7.4
		c-0.2-2.6-1.2-5.1-2.8-7.2C21,0,13.5-1.5,7.6,1.5c0-0.5-0.3-1-0.8-1.2C6.2,0.3,5.6,0.7,5.5,1.3c0,0-0.1,0.6-0.2,1.2
		C5.2,2.8,5.2,3.1,5.2,3.3C5.1,3.8,5,4.1,5.3,4.5C5.3,4.5,5.3,4.5,5.3,4.5z"/>
	<path fill="#A1A1A1" d="M23.8,26l0.4-2.8c0-0.3,0-0.6-0.2-0.8c-0.1-0.1-0.2-0.2-0.4-0.3c0,0,0,0-0.1,0c0,0,0,0,0,0c0,0-0.1,0-0.1-0.1
		C23.3,22,23.1,22,22.9,22c-0.2,0-0.5-0.1-0.9-0.1c-0.6-0.1-1.2-0.1-1.2-0.1c-0.6-0.1-1.1,0.4-1.2,0.9c-0.1,0.6,0.4,1.1,0.9,1.2
		c-5.2,3.5-12.3,2.3-16.1-2.7c-3.2-4.2-3.2-9.8-0.2-14.1c0.3-0.5,0.2-1.1-0.2-1.5C3.7,5.2,3,5.3,2.6,5.8C0.9,8.2,0,11.1,0,14
		c0,3,1,5.9,2.8,8.4c4.5,5.9,12.8,7.3,18.9,3.2l0,0.1c0,0.3,0,0.6,0.2,0.8c0.2,0.2,0.4,0.4,0.7,0.4C23.2,27,23.8,26.6,23.8,26z"/>
</svg>
