<svg xmlns="http://www.w3.org/2000/svg" x="0px" y="0px"
	 viewBox="0 0 1 40" style="enable-background:new 0 0 1 40;" xml:space="preserve">
<style type="text/css">
	.st0{fill:#0052FF;}
</style>
<circle class="st0" cx="0.5" cy="0.5" r="0.2"/>
<circle class="st0" cx="0.5" cy="0.5" r="0.2"/>
<circle class="st0" cx="0.5" cy="0.5" r="0.2"/>
<circle class="st0" cx="0.5" cy="0.5" r="0.2"/>
<circle class="st0" cx="0.5" cy="1.5" r="0.2"/>
<circle class="st0" cx="0.5" cy="1.5" r="0.2"/>
<circle class="st0" cx="0.5" cy="1.5" r="0.2"/>
<circle class="st0" cx="0.5" cy="1.5" r="0.2"/>
<circle class="st0" cx="0.5" cy="2.5" r="0.2"/>
<circle class="st0" cx="0.5" cy="2.5" r="0.2"/>
<circle class="st0" cx="0.5" cy="2.5" r="0.2"/>
<circle class="st0" cx="0.5" cy="2.5" r="0.2"/>
<circle class="st0" cx="0.5" cy="3.5" r="0.2"/>
<circle class="st0" cx="0.5" cy="3.5" r="0.2"/>
<circle class="st0" cx="0.5" cy="3.5" r="0.2"/>
<circle class="st0" cx="0.5" cy="3.5" r="0.2"/>
<circle class="st0" cx="0.5" cy="4.5" r="0.2"/>
<circle class="st0" cx="0.5" cy="4.5" r="0.2"/>
<circle class="st0" cx="0.5" cy="4.5" r="0.2"/>
<circle class="st0" cx="0.5" cy="4.5" r="0.2"/>
<circle class="st0" cx="0.5" cy="5.5" r="0.2"/>
<circle class="st0" cx="0.5" cy="5.5" r="0.2"/>
<circle class="st0" cx="0.5" cy="5.5" r="0.2"/>
<circle class="st0" cx="0.5" cy="5.5" r="0.2"/>
<circle class="st0" cx="0.5" cy="6.5" r="0.2"/>
<circle class="st0" cx="0.5" cy="6.5" r="0.2"/>
<circle class="st0" cx="0.5" cy="6.5" r="0.2"/>
<circle class="st0" cx="0.5" cy="6.5" r="0.2"/>
<circle class="st0" cx="0.5" cy="7.5" r="0.2"/>
<circle class="st0" cx="0.5" cy="7.5" r="0.2"/>
<circle class="st0" cx="0.5" cy="7.5" r="0.2"/>
<circle class="st0" cx="0.5" cy="7.5" r="0.2"/>
<circle class="st0" cx="0.5" cy="8.5" r="0.2"/>
<circle class="st0" cx="0.5" cy="8.5" r="0.2"/>
<circle class="st0" cx="0.5" cy="8.5" r="0.2"/>
<circle class="st0" cx="0.5" cy="8.5" r="0.2"/>
<circle class="st0" cx="0.5" cy="9.5" r="0.2"/>
<circle class="st0" cx="0.5" cy="9.5" r="0.2"/>
<circle class="st0" cx="0.5" cy="9.5" r="0.2"/>
<circle class="st0" cx="0.5" cy="9.5" r="0.2"/>
<circle class="st0" cx="0.5" cy="10.5" r="0.2"/>
<circle class="st0" cx="0.5" cy="10.5" r="0.2"/>
<circle class="st0" cx="0.5" cy="10.5" r="0.2"/>
<circle class="st0" cx="0.5" cy="10.5" r="0.2"/>
<circle class="st0" cx="0.5" cy="11.5" r="0.2"/>
<circle class="st0" cx="0.5" cy="11.5" r="0.2"/>
<circle class="st0" cx="0.5" cy="11.5" r="0.2"/>
<circle class="st0" cx="0.5" cy="11.5" r="0.2"/>
<circle class="st0" cx="0.5" cy="12.5" r="0.2"/>
<circle class="st0" cx="0.5" cy="12.5" r="0.2"/>
<circle class="st0" cx="0.5" cy="12.5" r="0.2"/>
<circle class="st0" cx="0.5" cy="12.5" r="0.2"/>
<circle class="st0" cx="0.5" cy="13.5" r="0.2"/>
<circle class="st0" cx="0.5" cy="13.5" r="0.2"/>
<circle class="st0" cx="0.5" cy="13.5" r="0.2"/>
<circle class="st0" cx="0.5" cy="13.5" r="0.2"/>
<circle class="st0" cx="0.5" cy="14.5" r="0.2"/>
<circle class="st0" cx="0.5" cy="14.5" r="0.2"/>
<circle class="st0" cx="0.5" cy="14.5" r="0.2"/>
<circle class="st0" cx="0.5" cy="14.5" r="0.2"/>
<circle class="st0" cx="0.5" cy="15.5" r="0.2"/>
<circle class="st0" cx="0.5" cy="15.5" r="0.2"/>
<circle class="st0" cx="0.5" cy="15.5" r="0.2"/>
<circle class="st0" cx="0.5" cy="15.5" r="0.2"/>
<circle class="st0" cx="0.5" cy="16.5" r="0.2"/>
<circle class="st0" cx="0.5" cy="16.5" r="0.2"/>
<circle class="st0" cx="0.5" cy="16.5" r="0.2"/>
<circle class="st0" cx="0.5" cy="16.5" r="0.2"/>
<circle class="st0" cx="0.5" cy="1.5" r="0.2"/>
<circle class="st0" cx="0.5" cy="1.5" r="0.2"/>
<circle class="st0" cx="0.5" cy="1.5" r="0.2"/>
<circle class="st0" cx="0.5" cy="22.5" r="0.2"/>
<circle class="st0" cx="0.5" cy="18.5" r="0.2"/>
<circle class="st0" cx="0.5" cy="18.5" r="0.2"/>
<circle class="st0" cx="0.5" cy="18.5" r="0.2"/>
<circle class="st0" cx="0.5" cy="18.5" r="0.2"/>
<circle class="st0" cx="0.5" cy="17.5" r="0.2"/>
<circle class="st0" cx="0.5" cy="17.5" r="0.2"/>
<circle class="st0" cx="0.5" cy="17.5" r="0.2"/>
<circle class="st0" cx="0.5" cy="17.5" r="0.2"/>
<circle class="st0" cx="0.5" cy="19.5" r="0.2"/>
<circle class="st0" cx="0.5" cy="19.5" r="0.2"/>
<circle class="st0" cx="0.5" cy="19.5" r="0.2"/>
<circle class="st0" cx="0.5" cy="19.5" r="0.2"/>
<circle class="st0" cx="0.5" cy="20.5" r="0.2"/>
<circle class="st0" cx="0.5" cy="20.5" r="0.2"/>
<circle class="st0" cx="0.5" cy="20.5" r="0.2"/>
<circle class="st0" cx="0.5" cy="20.5" r="0.2"/>
<circle class="st0" cx="0.5" cy="21.5" r="0.2"/>
<circle class="st0" cx="0.5" cy="21.5" r="0.2"/>
<circle class="st0" cx="0.5" cy="21.5" r="0.2"/>
<circle class="st0" cx="0.5" cy="21.5" r="0.2"/>
<circle class="st0" cx="0.5" cy="23.5" r="0.2"/>
<circle class="st0" cx="0.5" cy="23.5" r="0.2"/>
<circle class="st0" cx="0.5" cy="23.5" r="0.2"/>
<circle class="st0" cx="0.5" cy="23.5" r="0.2"/>
<circle class="st0" cx="0.5" cy="24.5" r="0.2"/>
<circle class="st0" cx="0.5" cy="24.5" r="0.2"/>
<circle class="st0" cx="0.5" cy="24.5" r="0.2"/>
<circle class="st0" cx="0.5" cy="24.5" r="0.2"/>
<circle class="st0" cx="0.5" cy="25.5" r="0.2"/>
<circle class="st0" cx="0.5" cy="25.5" r="0.2"/>
<circle class="st0" cx="0.5" cy="25.5" r="0.2"/>
<circle class="st0" cx="0.5" cy="25.5" r="0.2"/>
<circle class="st0" cx="0.5" cy="26.5" r="0.2"/>
<circle class="st0" cx="0.5" cy="26.5" r="0.2"/>
<circle class="st0" cx="0.5" cy="26.5" r="0.2"/>
<circle class="st0" cx="0.5" cy="26.5" r="0.2"/>
<circle class="st0" cx="0.5" cy="27.5" r="0.2"/>
<circle class="st0" cx="0.5" cy="27.5" r="0.2"/>
<circle class="st0" cx="0.5" cy="27.5" r="0.2"/>
<circle class="st0" cx="0.5" cy="27.5" r="0.2"/>
<circle class="st0" cx="0.5" cy="28.5" r="0.2"/>
<circle class="st0" cx="0.5" cy="28.5" r="0.2"/>
<circle class="st0" cx="0.5" cy="28.5" r="0.2"/>
<circle class="st0" cx="0.5" cy="28.5" r="0.2"/>
<circle class="st0" cx="0.5" cy="29.5" r="0.2"/>
<circle class="st0" cx="0.5" cy="29.5" r="0.2"/>
<circle class="st0" cx="0.5" cy="29.5" r="0.2"/>
<circle class="st0" cx="0.5" cy="29.5" r="0.2"/>
<circle class="st0" cx="0.5" cy="30.5" r="0.2"/>
<circle class="st0" cx="0.5" cy="30.5" r="0.2"/>
<circle class="st0" cx="0.5" cy="30.5" r="0.2"/>
<circle class="st0" cx="0.5" cy="30.5" r="0.2"/>
<circle class="st0" cx="0.5" cy="31.5" r="0.2"/>
<circle class="st0" cx="0.5" cy="31.5" r="0.2"/>
<circle class="st0" cx="0.5" cy="31.5" r="0.2"/>
<circle class="st0" cx="0.5" cy="31.5" r="0.2"/>
<circle class="st0" cx="0.5" cy="32.5" r="0.2"/>
<circle class="st0" cx="0.5" cy="32.5" r="0.2"/>
<circle class="st0" cx="0.5" cy="32.5" r="0.2"/>
<circle class="st0" cx="0.5" cy="32.5" r="0.2"/>
<circle class="st0" cx="0.5" cy="33.5" r="0.2"/>
<circle class="st0" cx="0.5" cy="33.5" r="0.2"/>
<circle class="st0" cx="0.5" cy="33.5" r="0.2"/>
<circle class="st0" cx="0.5" cy="33.5" r="0.2"/>
<circle class="st0" cx="0.5" cy="34.5" r="0.2"/>
<circle class="st0" cx="0.5" cy="34.5" r="0.2"/>
<circle class="st0" cx="0.5" cy="34.5" r="0.2"/>
<circle class="st0" cx="0.5" cy="34.5" r="0.2"/>
<circle class="st0" cx="0.5" cy="35.5" r="0.2"/>
<circle class="st0" cx="0.5" cy="35.5" r="0.2"/>
<circle class="st0" cx="0.5" cy="35.5" r="0.2"/>
<circle class="st0" cx="0.5" cy="35.5" r="0.2"/>
<circle class="st0" cx="0.5" cy="36.5" r="0.2"/>
<circle class="st0" cx="0.5" cy="36.5" r="0.2"/>
<circle class="st0" cx="0.5" cy="36.5" r="0.2"/>
<circle class="st0" cx="0.5" cy="36.5" r="0.2"/>
<circle class="st0" cx="0.5" cy="37.5" r="0.2"/>
<circle class="st0" cx="0.5" cy="37.5" r="0.2"/>
<circle class="st0" cx="0.5" cy="37.5" r="0.2"/>
<circle class="st0" cx="0.5" cy="37.5" r="0.2"/>
<circle class="st0" cx="0.5" cy="38.5" r="0.2"/>
<circle class="st0" cx="0.5" cy="38.5" r="0.2"/>
<circle class="st0" cx="0.5" cy="38.5" r="0.2"/>
<circle class="st0" cx="0.5" cy="38.5" r="0.2"/>
<circle class="st0" cx="0.5" cy="39.5" r="0.2"/>
<circle class="st0" cx="0.5" cy="39.5" r="0.2"/>
<circle class="st0" cx="0.5" cy="39.5" r="0.2"/>
<circle class="st0" cx="0.5" cy="39.5" r="0.2"/>
</svg>
