<svg xmlns="http://www.w3.org/2000/svg" x="0px" y="0px" viewBox="0 0 59 59" >
<path fill="#0052FF" d="M20.7,43.2c-1.2,0-2.3,0.7-2.7,1.8c-0.5,1.1-0.2,2.4,0.6,3.2l8.8,8.9c0.6,0.6,1.3,0.9,2.1,0.9
	c0.8,0,1.5-0.3,2.1-0.9l8.8-8.9c0.8-0.8,1.1-2.1,0.6-3.2s-1.5-1.8-2.7-1.8H20.7z"/>
<path fill="#56B4FC" d="M14.8,1.9C6.6,1.9,0,8.5,0,16.6v17.7c0,8.1,6.6,14.8,14.8,14.8h29.5c8.1,0,14.8-6.6,14.8-14.8V16.6
	c0-8.1-6.6-14.8-14.8-14.8H14.8z"/>
<path fill="#0052FF" d="M11.8,19.6c0-1.6,1.3-2.9,2.9-2.9h23.6c1.6,0,3,1.3,3,2.9c0,1.6-1.3,3-3,3H14.8C13.1,22.5,11.8,21.2,11.8,19.6z
	"/>
<path fill="#0052FF" d="M11.8,31.4c0-1.6,1.3-3,2.9-3h29.5c1.6,0,3,1.3,3,3s-1.3,2.9-3,2.9H14.8C13.1,34.3,11.8,33,11.8,31.4z"/>
</svg>
