<?xml version="1.0" encoding="utf-8"?>
<!-- Generator: Adobe Illustrator 27.0.0, SVG Export Plug-In . SVG Version: 6.00 Build 0)  -->
<svg version="1.1" id="图层_1" xmlns="http://www.w3.org/2000/svg" xmlns:xlink="http://www.w3.org/1999/xlink" x="0px" y="0px"
	 viewBox="0 0 768 439" style="enable-background:new 0 0 768 439;" xml:space="preserve">
<style type="text/css">
	.st0{fill:#2BBF7F;}
	.st1{fill:#2775CA;}
	.st2{fill:#FFFFFF;}
	.st3{fill:#21A27C;}
	.st4{fill:#0062FF;}
	.st5{fill:#2076FF;}
	.st6{fill:none;stroke:#000000;stroke-width:2;stroke-miterlimit:10;}
	.st7{fill:#FFD200;}
	.st8{fill:#F46C3D;}
	.st9{fill:none;stroke:#000000;stroke-width:2;stroke-miterlimit:10;stroke-dasharray:10.989,10.989;}
	.st10{fill:none;stroke:#000000;stroke-width:2;stroke-miterlimit:10;stroke-dasharray:12;}
</style>
<rect y="0" class="st0" width="768" height="439"/>
<path class="st1" d="M89.2,380.8c25.7,0,46.5-20.7,46.5-46.5s-20.7-46.5-46.5-46.5s-46.4,20.7-46.4,46.5
	C42.8,360.1,63.5,380.8,89.2,380.8z"/>
<path class="st2" d="M102,341.7c0-6.8-4-9.1-12.2-10.1c-5.8-0.8-7-2.3-7-5s1.9-4.5,5.8-4.5c3.5,0,5.4,1.2,6.4,4c0.2,0.6,0.8,1,1.4,1
	h3.1c0.8,0,1.4-0.6,1.4-1.4v-0.2c-0.8-4.3-4.3-7.6-8.7-7.9V313c0-0.8-0.6-1.4-1.5-1.5h-2.9c-0.8,0-1.4,0.6-1.5,1.5v4.5
	c-5.8,0.8-9.5,4.6-9.5,9.5c0,6.4,3.9,8.9,12,9.9c5.4,1,7.1,2.1,7.1,5.2s-2.7,5.2-6.4,5.2c-5,0-6.8-2.1-7.4-5
	c-0.2-0.8-0.8-1.2-1.4-1.2h-3.3c-0.8,0-1.4,0.6-1.4,1.4v0.2c0.8,4.8,3.9,8.3,10.2,9.3v4.6c0,0.8,0.6,1.4,1.5,1.5h2.9
	c0.8,0,1.4-0.6,1.5-1.5V352C98.1,351,102,347,102,341.7L102,341.7z"/>
<path class="st2" d="M79.3,362.1c-15.1-5.4-22.8-22.3-17.2-37.2c2.9-8.1,9.3-14.3,17.2-17.2c0.8-0.4,1.2-1,1.2-1.9V303
	c0-0.8-0.4-1.4-1.2-1.5c-0.2,0-0.6,0-0.8,0.2c-18.4,5.8-28.4,25.4-22.6,43.7c3.5,10.8,11.8,19.2,22.6,22.6c0.8,0.4,1.5,0,1.7-0.8
	c0.2-0.2,0.2-0.4,0.2-0.8v-2.7C80.5,363.2,79.9,362.5,79.3,362.1z M99.8,301.7c-0.8-0.4-1.5,0-1.7,0.8c-0.2,0.2-0.2,0.4-0.2,0.8v2.7
	c0,0.8,0.6,1.5,1.2,1.9c15.1,5.4,22.8,22.3,17.2,37.2c-2.9,8.1-9.3,14.3-17.2,17.2c-0.8,0.4-1.2,1-1.2,1.9v2.7
	c0,0.8,0.4,1.4,1.2,1.5c0.2,0,0.6,0,0.8-0.2c18.4-5.8,28.4-25.4,22.6-43.7C119,313.5,110.5,305.2,99.8,301.7L99.8,301.7z"/>
<path class="st3" d="M192.3,286.3c26.1,0,47.3,21.2,47.3,47.3s-21.2,47.3-47.3,47.3S145,359.7,145,333.6S166.2,286.3,192.3,286.3z"
	/>
<path class="st2" d="M198.1,327.3v-7h16.1v-10.7h-43.8v10.7h16.1v7c-13.1,0.6-22.9,3.2-22.9,6.3c0,3.1,9.8,5.7,22.9,6.3v22.5h11.6
	v-22.5c13-0.6,22.8-3.2,22.8-6.3C221,330.5,211.2,327.9,198.1,327.3L198.1,327.3z M198.1,338L198.1,338c-0.3,0-2,0.1-5.8,0.1
	c-3,0-5.1-0.1-5.9-0.1l0,0c-11.5-0.5-20.1-2.5-20.1-4.9s8.6-4.4,20.1-4.9v7.9c0.7,0.1,2.9,0.2,5.9,0.2c3.6,0,5.4-0.1,5.7-0.2v-7.9
	c11.5,0.5,20.1,2.5,20.1,4.9S209.7,337.4,198.1,338"/>
<rect x="48.9" y="144.9" class="st4" width="63.1" height="16.8"/>
<rect x="48.9" y="176.9" class="st4" width="63.1" height="16.8"/>
<rect x="48.9" y="207.3" class="st4" width="63.1" height="16.8"/>
<circle class="st5" cx="539.5" cy="264.4" r="36.5"/>
<g>
	<polygon class="st2" points="539.5,275.2 525.1,266.7 539.5,287 539.5,287 553.8,266.7 	"/>
	<polygon class="st2" points="539.5,253.6 553.8,262.1 539.5,241.9 539.5,241.9 525.1,262.1 	"/>
	<polygon class="st2" points="525.1,264.4 539.5,272.9 553.8,264.4 553.8,264.4 553.8,264.4 553.8,264.4 553.8,264.4 539.5,255.9 	
		"/>
</g>
<rect x="671.2" y="234.9" class="st4" width="59" height="59"/>
<rect x="691.1" y="262.9" class="st6" width="19.8" height="60.2"/>
<line class="st6" x1="80.5" y1="153.2" x2="80.5" y2="215.7"/>
<rect x="104.8" y="46.7" class="st2" width="36.3" height="36.3"/>
<line class="st6" x1="121.7" y1="64.9" x2="231.8" y2="64.9"/>
<rect x="502.6" y="46.7" class="st2" width="14.3" height="14.3"/>
<rect x="525.1" y="46.7" class="st7" width="14.3" height="14.3"/>
<rect x="502.6" y="71" class="st8" width="14.3" height="14.3"/>
<rect x="553" y="74.8" class="st8" width="135.2" height="136.9"/>
<path class="st2" d="M595.3,102c-8.9,0-16.1,7.2-16.1,16.1s7.2,16.1,16.1,16.1c8.9,0,16.1-7.2,16.1-16.1S604.2,102,595.3,102z
	 M595.3,124.7c-3.7,0-6.6-3-6.6-6.6s3-6.6,6.6-6.6s6.6,3,6.6,6.6C602,121.7,599,124.7,595.3,124.7z"/>
<path class="st2" d="M646.3,152.8c-8.9,0-16.1,7.2-16.1,16.1c0,8.8,7.2,16.1,16.1,16.1c8.8,0,16.1-7.2,16.1-16.1
	C662.4,160,655.2,152.8,646.3,152.8z M646.3,175.5c-3.7,0-6.6-3-6.6-6.6s3-6.6,6.6-6.6c3.7,0,6.6,3,6.6,6.6
	C652.9,172.5,650,175.5,646.3,175.5z"/>
<rect x="569.3" y="138.9" transform="matrix(0.7071 -0.7071 0.7071 0.7071 80.5175 481.195)" class="st2" width="103.6" height="9"/>
<circle class="st2" cx="647.4" cy="361.5" r="12.4"/>
<path d="M454.2,399.3H310.8c-13.3,0-24.2-10.8-24.2-24.2V62.9c0-13.3,10.8-24.2,24.2-24.2h143.4c13.3,0,24.2,10.8,24.2,24.2v312.3
	C478.4,388.5,467.5,399.3,454.2,399.3z"/>
<path class="st4" d="M453.3,386.1H311.7c-7.3,0-13.2-5.9-13.2-13.2V65.1c0-7.3,5.9-13.2,13.2-13.2h141.6c7.3,0,13.2,5.9,13.2,13.2
	v307.8C466.5,380.2,460.6,386.1,453.3,386.1z"/>
<circle class="st2" cx="546.4" cy="361.5" r="12.4"/>
<circle class="st7" cx="382.5" cy="320.3" r="9.1"/>
<circle class="st7" cx="240.7" cy="193.5" r="9.1"/>
<circle class="st7" cx="212" cy="166.5" r="9.1"/>
<circle class="st4" cx="240.7" cy="166.5" r="9.1"/>
<circle class="st4" cx="212" cy="193.5" r="9.1"/>
<g>
	<g>
		<polyline class="st6" points="164.8,239.7 164.8,118.1 323.3,118.1 		"/>
		<g>
			<polygon points="320.8,126.5 335.4,118.1 320.8,109.6 			"/>
		</g>
	</g>
</g>
<path d="M413.4,55.2h-58.9c-4.7,0-8.6,3.8-8.6,8.6l0,0c0,4.7,3.8,8.6,8.6,8.6h58.9c4.7,0,8.6-3.8,8.6-8.6l0,0
	C422,59,418.2,55.2,413.4,55.2z"/>
<path class="st8" d="M387.9,137.7h-26.1v-19.3c0-9.1,7.4-16.4,16.4-16.4h25.7v19.7C403.9,130.5,396.7,137.7,387.9,137.7z"/>
<g>
	<g>
		<path class="st6" d="M382.5,348L382.5,348c-0.7,0-1.4,0-2-0.1"/>
		<path class="st9" d="M376.8,347.4c-11.9-2.4-21.1-12.1-22.8-24.3"/>
		<path class="st6" d="M353.8,321.2c0-0.7-0.1-1.4-0.1-2l0,0"/>
	</g>
</g>
<path class="st6" d="M353.7,319.2L353.7,319.2c0-15.9,12.9-28.8,28.8-28.8l0,0c15.9,0,28.8,12.9,28.8,28.8l0,0
	c0,15.9-12.9,28.8-28.8,28.8l0,0"/>
<line class="st10" x1="353.7" y1="148.1" x2="353.7" y2="90.6"/>
<polyline class="st6" points="353.4,90.6 411,90.6 411,148.1 353.4,148.1 "/>
<g>
	<g>
		<polyline class="st6" points="391.6,319.2 620.6,319.2 620.6,232.2 		"/>
		<g>
			<polygon points="629.1,234.7 620.6,220 612.1,234.7 			"/>
		</g>
	</g>
</g>
<line class="st6" x1="558.8" y1="361.5" x2="635" y2="361.5"/>
<g>
	<path class="st2" d="M370.5,130.6l8.2-21.4h3.1l8.8,21.4h-3.2l-2.5-6.5h-9l-2.3,6.5H370.5z M376.7,121.8h7.3l-2.2-6
		c-0.7-1.8-1.2-3.3-1.5-4.5c-0.3,1.4-0.6,2.8-1.2,4.1L376.7,121.8z"/>
	<path class="st2" d="M392.5,112.2v-3h2.6v3H392.5z M392.5,130.6V115h2.6v15.6H392.5z"/>
</g>
<path class="st2" d="M367.4,220.1c0.5,0,0.9,0,1.3,0c11.6,0,23.2,0,34.8,0c2.9,0,5.4-1.7,5.9-4.3c0.3-1.5,0.1-3.1-0.1-4.6
	c-0.9-5.2-3.3-9.6-7-13.4c-1.8-1.8-2.1-4.2-1-6.3c1.7-3.1,5.8-3.7,8.4-1.1c4.1,4.2,7.1,9,8.8,14.6c5.4,17.3-2.7,35.7-19.1,43.5
	c-4.9,2.3-10.1,3.5-15.5,3.4c-2.4,0-4.5-1.7-5-3.9c-0.5-2.5,0.5-4.9,2.8-5.9c0.8-0.4,1.8-0.5,2.7-0.5c5.2-0.1,10-1.7,14.2-4.7
	c1.5-1.1,2.1-2.6,1.8-4.3c-0.5-2.8-3.2-4.1-5.9-2.9c-1.7,0.7-3.2,1.8-4.9,2.4c-9.1,3.3-19.4-1.9-22.2-11.1
	C367.5,220.7,367.4,220.5,367.4,220.1z"/>
<path class="st2" d="M347.9,216.9c0-16.4,9.6-30,24.1-35.1c3.8-1.3,7.7-2,11.8-2c3.1,0,5.3,2.1,5.5,5c0.1,2.9-2,5.2-5.1,5.4
	c-2.7,0.1-5.5,0.4-8,1.3c-9.1,3.2-15,9.5-17.1,18.9c-2,9,0.5,16.9,6.8,23.6c1.7,1.8,2,4,1,6.1c-0.9,1.9-2.8,3-5.1,2.8
	c-1.4-0.1-2.5-0.7-3.4-1.7C351.4,234.1,348,225.7,347.9,216.9z"/>
<path class="st2" d="M400.7,211.6c-11.2,0-22.2,0-33.4,0c0.6-2.6,1.7-4.7,3.3-6.7c3-3.7,7-5.8,11.7-6.2c5.1-0.5,9.6,1,13.3,4.5
	C398.2,205.4,399.9,208.2,400.7,211.6z"/>
</svg>
