<?xml version="1.0" encoding="utf-8"?>
<!-- Generator: Adobe Illustrator 27.0.0, SVG Export Plug-In . SVG Version: 6.00 Build 0)  -->
<svg version="1.1" id="图层_1" xmlns="http://www.w3.org/2000/svg" xmlns:xlink="http://www.w3.org/1999/xlink" x="0px" y="0px"
	 viewBox="0 0 931.6 932.3" style="enable-background:new 0 0 931.6 932.3;" xml:space="preserve">
<style type="text/css">
	.st0{fill:#0052FF;}
</style>
<path class="st0" d="M251.4,520.2c6.7,0,12,0,17.3,0c149.6,0,299.2,0,448.8-0.1c37.2,0,69.7-22.2,75.6-55.6
	c3.4-19.2,1.8-40.1-1.6-59.5c-11.8-66.5-42.6-123.7-89.7-172.2c-23-23.7-27.5-54.1-13.1-80.8c21.5-40.1,75.1-47.5,108-14.3
	c53.1,53.6,91.3,116.3,113.7,188.5c69.2,223.7-34.6,460.5-245.9,560.8c-63,29.9-129.7,44.6-199.4,44.2c-31-0.2-58.1-22.2-64.2-50.6
	c-7-32.7,6.5-63,36.1-76.4c10.7-4.8,23.3-6.8,35.2-7.1c67.2-1.9,128.4-21.5,183.5-60.1c19.3-13.6,27.3-33,23.3-55.9
	c-6.2-36.1-40.8-52.8-76.3-36.9c-21.3,9.5-41.2,22.8-63,30.8c-117.5,43-250.6-24.2-286.3-143.6C252.4,528.4,252.2,525.2,251.4,520.2
	z"/>
<path class="st0" d="M0,479.4C0.2,267.8,123.7,92.7,310.7,26.1C359.6,8.7,410.2-0.2,462.3,0c40.1,0.2,68.9,26.5,70.4,64.7
	c1.5,37.4-26.2,67.4-66.2,69.1c-35.4,1.5-70.4,4.7-103.8,16.7c-117,41.8-192.9,122.7-220,244.1c-25.9,116,6.1,217.8,87.7,304
	c21.4,22.6,26.2,51.5,13.5,78.9c-11.3,24.2-36.7,38.3-66.3,36.5c-17.6-1.1-31.9-9.3-43.9-21.8C45.9,701.2,1.8,592.2,0,479.4z"/>
<path class="st0" d="M681.2,410.7c-144.4,0-286.2,0-430.4,0c7.3-33.2,22.1-61.1,42.8-86c39.3-47.4,89.6-74.8,151-80.4
	c65.6-6,123.4,13.2,172.1,57.6C648.6,330.9,670.2,366.4,681.2,410.7z"/>
</svg>
