<svg xmlns="http://www.w3.org/2000/svg" x="0px" y="0px"
	 viewBox="0 0 228 183.2" style="enable-background:new 0 0 228 183.2;" xml:space="preserve">
<style type="text/css">
	.st0{fill:#FFD200;}
	.st1{fill:#CED2DB;}
	.st2{fill-rule:evenodd;clip-rule:evenodd;fill:#0A0B0D;}
	.st3{fill:#00D17F;}
	.st4{fill-rule:evenodd;clip-rule:evenodd;fill:#0052FF;}
	.st5{fill:#FFD000;}
	.st6{fill:none;stroke:#0A0B0D;stroke-miterlimit:10;}
	.st7{fill:#5EE2F8;}
	.st8{fill:#05D17F;}
	.st9{fill:#FFFFFF;}
	.st10{fill:#FFD510;}
</style>
<circle class="st0" cx="113.9" cy="107.5" r="53.4"/>
<path class="st1" d="M60.5,107.3h107v57.1h-107V107.3z"/>
<path class="st2" d="M167.5,108.9L114,152.5l-53.5-43.6v-1.6h1.9l51.6,42l51.6-42h1.9V108.9z"/>
<path class="st3" d="M145.7,90.6c0,17.1-14.2,30.9-31.6,30.9s-31.6-13.9-31.6-30.9S96.6,59.7,114,59.7S145.7,73.5,145.7,90.6z"/>
<path class="st2" d="M112,93.7l12.1-11.1l1.6,1.7L112,97l-7.3-6.7l1.6-1.7L112,93.7L112,93.7z"/>
<path class="st4" d="M140.7,107.3c-5.6,8.6-15.4,14.2-26.6,14.2s-21.1-5.7-26.6-14.2C87.3,107.3,140.7,107.3,140.7,107.3z"/>
<path class="st1" d="M19,103.5c3.1-43.3,36.2-78.3,78.7-84.4V0C44.7,6.2,3.2,49.7,0,103.5H19z"/>
<path class="st5" d="M213.4,44.9c9-9,9-23.9,0-32.9c-9-9-23.9-9-32.9,0c-9,9-9,23.9,0,32.9C189.7,54,204.4,54,213.4,44.9z"/>
<path class="st2" d="M197.7,19.1l-0.1,22.3h-1.2l0.3-22.3H197.7z"/>
<polygon class="st2" points="188.7,27.1 197.1,18.7 205.4,26.8 204.8,27.9 197.1,20.2 189.3,28.2 "/>
<circle class="st6" cx="197" cy="28.4" r="17"/>
<path class="st7" d="M187.2,79.5c-9.6,0-17.4,7.8-17.4,17.4c0-9.6-7.8-17.4-17.4-17.4c9.6,0,17.4-7.8,17.4-17.4
	C169.8,71.7,177.7,79.5,187.2,79.5z"/>
<circle class="st8" cx="183.9" cy="155.7" r="11.2"/>
<polygon class="st9" points="192.4,155 184.5,155 184.5,147.1 183.2,147.1 183.2,155 175.3,155 175.3,156.3 183.2,156.3 
	183.2,164.2 184.5,164.2 184.5,156.3 192.4,156.3 "/>
<polygon class="st10" points="211.9,122.2 208.4,105.8 205.1,122.2 188.7,125.5 205.1,129 208.4,145.4 211.9,129 228.3,125.5 "/>
<polygon class="st3" points="34,110.6 30,92.2 26.3,110.6 7.9,114.3 26.3,118.2 30,136.6 34,118.2 52.5,114.3 "/>
<circle class="st0" cx="54.2" cy="169.5" r="13.8"/>
<rect x="50.7" y="165.9" transform="matrix(0.7071 -0.7071 0.7071 0.7071 -103.9192 87.9262)" class="st9" width="7" height="7"/>
</svg>
