<svg xmlns="http://www.w3.org/2000/svg" x="0px" y="0px"
	 viewBox="0 0 768 438.22" style="enable-background:new 0 0 768 438.22;" xml:space="preserve">
<style type="text/css">
	.st0{fill:#0063FF;}
	.st1{fill:#000104;}
	.st2{fill:#B9C9C8;}
	.st3{fill:#F46B3D;}
	.st4{fill:#FFD201;}
	.st5{fill:#FFFFFF;}
	.st6{fill:#FFD200;}
	.st7{fill:none;stroke:#231815;stroke-miterlimit:10;}
</style>
<rect y="-0.78" class="st0" width="768" height="439"/>
<g>
	<path class="st1" d="M132.33,92.8c0,0,45.9,5.42,80.32,47.49l15.3-18.49C227.95,121.81,184.45,88.02,132.33,92.8z"/>
	<path class="st2" d="M212.65,140.3l7.72-9.33c-29.51-30.89-68.89-37.12-85.75-38.34c-0.76,0.05-1.52,0.11-2.29,0.18
		C132.33,92.8,178.23,98.22,212.65,140.3z"/>
	
		<rect x="217.33" y="123.37" transform="matrix(0.7705 0.6374 -0.6374 0.7705 141.409 -115.6681)" class="st1" width="28.05" height="30.39"/>
	
		<rect x="218.81" y="119.25" transform="matrix(0.7705 0.6374 -0.6374 0.7705 137.6418 -113.44)" class="st2" width="15.13" height="30.39"/>
	
		<rect x="151.44" y="128.42" transform="matrix(0.7705 0.6374 -0.6374 0.7705 179.2361 -51.7139)" class="st3" width="20" height="189.32"/>
	
		<rect x="152.5" y="125.48" transform="matrix(0.7705 0.6374 -0.6374 0.7705 176.5494 -50.1248)" class="st4" width="10.79" height="189.32"/>
	
		<rect x="234.43" y="117.25" transform="matrix(0.7705 0.6374 -0.6374 0.7705 134.3329 -127.6318)" class="st3" width="20" height="11.01"/>
	
		<rect x="235.49" y="114.31" transform="matrix(0.7705 0.6374 -0.6374 0.7705 131.6463 -126.0428)" class="st4" width="10.79" height="11.01"/>
	
		<rect x="233.01" y="121.19" transform="matrix(0.7705 0.6374 -0.6374 0.7705 132.9858 -123.778)" class="st3" width="10.79" height="3.24"/>
	<path d="M234.22,157.1c0,0,48.02,30.67,60.99,69.7c0,0-3.89-48.31-46.11-87.69L234.22,157.1z"/>
	<path class="st2" d="M248.77,153.87l-7.18,8.39c13.31,9.82,41.01,32.71,52.08,60.37C283.91,182.59,248.77,153.87,248.77,153.87z"/>
</g>
<g>
	<path class="st1" d="M665.24,64.06c0,0-38.75,4.57-67.82,40.1l-12.92-15.61C584.51,88.55,621.24,60.02,665.24,64.06z"/>
	<path class="st2" d="M597.43,104.16l-6.52-7.88c24.92-26.08,58.17-31.34,72.41-32.37c0.64,0.05,1.29,0.1,1.93,0.16
		C665.24,64.06,626.49,68.64,597.43,104.16z"/>
	
		<rect x="569.8" y="89.87" transform="matrix(-0.7705 0.6374 -0.6374 -0.7705 1095.2687 -188.9077)" class="st1" width="23.68" height="25.66"/>
	
		<rect x="579.46" y="86.39" transform="matrix(-0.7705 0.6374 -0.6374 -0.7705 1100.4944 -197.7431)" class="st2" width="12.77" height="25.66"/>
	
		<rect x="632.22" y="94.13" transform="matrix(-0.7705 0.6374 -0.6374 -0.7705 1245.2633 -100.1932)" class="st3" width="16.89" height="159.85"/>
	
		<rect x="639.11" y="91.65" transform="matrix(-0.7705 0.6374 -0.6374 -0.7705 1248.9901 -106.4944)" class="st4" width="9.11" height="159.85"/>
	
		<rect x="562.15" y="84.7" transform="matrix(-0.7705 0.6374 -0.6374 -0.7705 1067.2095 -205.5032)" class="st3" width="16.89" height="9.3"/>
	
		<rect x="569.04" y="82.22" transform="matrix(-0.7705 0.6374 -0.6374 -0.7705 1070.9364 -211.8044)" class="st4" width="9.11" height="9.3"/>
	
		<rect x="571.13" y="88.03" transform="matrix(-0.7705 0.6374 -0.6374 -0.7705 1076.2482 -208.6627)" class="st3" width="9.11" height="2.74"/>
	<path d="M579.22,118.35c0,0-40.55,25.89-51.49,58.85c0,0,3.29-40.79,38.93-74.04L579.22,118.35z"/>
	<path class="st2" d="M566.94,115.62l6.06,7.08c-11.24,8.29-34.62,27.62-43.97,50.97C537.26,139.87,566.94,115.62,566.94,115.62z"/>
</g>
<circle class="st3" cx="108.67" cy="201.71" r="8.3"/>
<circle class="st5" cx="137.62" cy="145.57" r="8.3"/>
<circle class="st3" cx="303.5" cy="63.33" r="8.3"/>
<circle class="st3" cx="527.72" cy="357.1" r="8.3"/>
<circle class="st5" cx="455.6" cy="111.52" r="8.3"/>
<circle class="st6" cx="533.31" cy="46.74" r="8.3"/>
<circle class="st5" cx="458.16" cy="387.06" r="8.3"/>
<circle class="st6" cx="649.24" cy="365.4" r="8.3"/>
<polygon points="221.71,271.17 261.66,244.33 273.21,395.35 238.4,395.35 "/>
<polygon class="st2" points="169.58,271.17 221.71,271.17 261.66,244.33 207.97,244.33 "/>
<polygon class="st5" points="171.15,316.11 169.58,271.17 221.71,271.17 238.4,395.35 174.58,395.35 171.77,325.16 206.1,329.22 "/>
<polygon class="st2" points="181.08,319.84 171.77,325.16 206.1,329.22 "/>
<polygon class="st5" points="291,279.6 342.81,271.17 362.16,395.35 307.23,395.35 "/>
<polygon class="st2" points="264.71,284.26 313.78,257.75 378.7,233.4 342.81,271.17 291,279.6 307.23,395.35 273.21,395.35 "/>
<polygon points="342.81,271.17 378.7,233.4 400.24,274.6 360.29,311.43 389.31,293.33 420.84,395.35 362.16,395.35 "/>
<polygon class="st2" points="400.24,274.6 389.31,293.33 360.29,311.43 "/>
<polygon class="st5" points="458.16,286.15 452.67,326.41 496.68,326.41 490.44,303.94 "/>
<polygon class="st2" points="503.86,278.66 458.16,286.15 490.44,303.94 544.12,309.87 "/>
<polygon points="490.44,303.94 496.68,326.41 549.74,326.41 544.12,309.87 "/>
<polygon class="st5" points="549.74,326.41 566.9,326.41 568.15,185.96 515.72,196.57 509.79,237.15 538.97,244.64 509.79,246.2 
	503.86,278.66 544.12,309.87 "/>
<polygon class="st2" points="538.97,244.64 523.19,245.48 509.79,237.15 "/>
<polygon points="568.15,185.96 594.06,190.02 598.74,298.01 637.13,295.51 649.24,326.41 566.9,326.41 "/>
<polygon class="st2" points="637.13,295.51 597.99,280.8 598.74,298.01 "/>
<line class="st7" x1="132.33" y1="151.97" x2="112.97" y2="194.62"/>
<line class="st7" x1="311.8" y1="67.94" x2="447.88" y2="108.5"/>
<line class="st7" x1="527.72" y1="52.86" x2="461.5" y2="105.69"/>
<line class="st7" x1="466.46" y1="382.5" x2="520.09" y2="360.35"/>
<line class="st7" x1="536.02" y1="357.1" x2="640.94" y2="365.4"/>
<circle cx="349.18" cy="163.52" r="35.6"/>
<circle class="st6" cx="349.18" cy="155.42" r="35.6"/>
<circle cx="349.18" cy="155.42" r="27.49"/>
<circle class="st6" cx="349.18" cy="159.58" r="27.49"/>
<path class="st5" d="M363.97,161.33c-0.66-1.1-1.53-1.97-2.52-2.52c-0.77-0.44-1.86-0.77-3.18-1.2c1.31-0.44,2.3-0.99,3.18-1.64
	c0.77-0.66,1.42-1.42,1.86-2.3c0.44-0.88,0.66-1.86,0.66-2.74c0-1.31-0.44-2.63-1.2-3.72s-1.97-1.97-3.4-2.63
	c-0.55-0.22-1.2-0.44-1.97-0.55v-5.26h-5.04v4.93h-3.18v-4.93h-5.26v4.93h-7.67v4.05h1.2c0.77,0,1.31,0.11,1.53,0.22
	c0.33,0.11,0.44,0.33,0.66,0.55c0.11,0.22,0.11,0.77,0.11,1.64v16.65c0,0.88,0,1.42-0.11,1.64c-0.11,0.22-0.33,0.44-0.66,0.55
	c-0.33,0.11-0.77,0.22-1.53,0.22h-1.2v4.05h7.67v4.93h5.04v-4.82h2.85c0.11,0,0.22,0,0.33,0v4.93h5.04v-5.26
	c0.88-0.11,1.53-0.33,2.19-0.66c1.75-0.66,3.07-1.75,4.05-3.07c0.88-1.31,1.42-2.74,1.42-4.38
	C364.95,163.63,364.62,162.43,363.97,161.33z M347.1,148.41h3.29c1.86,0,3.18,0.11,3.94,0.33s1.31,0.66,1.64,1.2
	c0.44,0.55,0.55,1.2,0.55,1.97s-0.22,1.42-0.66,1.97c-0.44,0.55-0.99,0.99-1.86,1.31c-0.77,0.33-2.08,0.44-3.83,0.44h-3.29v-7.23
	C346.88,148.41,347.1,148.41,347.1,148.41z M356.3,166.81c-0.55,0.77-1.31,1.2-2.08,1.42c-0.88,0.22-1.86,0.33-3.18,0.33h-2.19
	c-0.77,0-1.2,0-1.31-0.11s-0.33-0.22-0.33-0.44c0-0.11-0.11-0.66-0.11-1.64v-6.46h3.83c1.64,0,2.96,0.11,3.83,0.44
	c0.88,0.33,1.42,0.77,1.86,1.42c0.44,0.66,0.66,1.31,0.66,2.19C357.18,165.17,356.96,166.04,356.3,166.81z"/>
<circle cx="450.67" cy="205.4" r="28.87"/>
<circle class="st6" cx="450.67" cy="198.83" r="28.87"/>
<circle cx="450.67" cy="198.83" r="22.3"/>
<circle class="st6" cx="450.67" cy="202.2" r="22.3"/>
<path class="st5" d="M462.66,203.62c-0.53-0.89-1.24-1.6-2.04-2.04c-0.62-0.36-1.51-0.62-2.58-0.98c1.07-0.36,1.87-0.8,2.58-1.33
	c0.62-0.53,1.15-1.15,1.51-1.87c0.36-0.71,0.53-1.51,0.53-2.22c0-1.07-0.36-2.13-0.98-3.02c-0.62-0.89-1.6-1.6-2.75-2.13
	c-0.44-0.18-0.98-0.36-1.6-0.44v-4.26h-4.09v4h-2.58v-4h-4.26v4h-6.22v3.29h0.98c0.62,0,1.07,0.09,1.24,0.18
	c0.27,0.09,0.36,0.27,0.53,0.44c0.09,0.18,0.09,0.62,0.09,1.33v13.5c0,0.71,0,1.15-0.09,1.33c-0.09,0.18-0.27,0.36-0.53,0.44
	c-0.27,0.09-0.62,0.18-1.24,0.18h-0.98v3.29h6.22v4h4.09v-3.91h2.31c0.09,0,0.18,0,0.27,0v4h4.09v-4.26
	c0.71-0.09,1.24-0.27,1.78-0.53c1.42-0.53,2.49-1.42,3.29-2.49c0.71-1.07,1.15-2.22,1.15-3.55
	C463.46,205.49,463.2,204.51,462.66,203.62z M448.98,193.14h2.67c1.51,0,2.58,0.09,3.2,0.27c0.62,0.18,1.07,0.53,1.33,0.98
	c0.36,0.44,0.44,0.98,0.44,1.6c0,0.62-0.18,1.15-0.53,1.6c-0.36,0.44-0.8,0.8-1.51,1.07c-0.62,0.27-1.69,0.36-3.11,0.36h-2.67v-5.86
	C448.8,193.14,448.98,193.14,448.98,193.14z M456.44,208.06c-0.44,0.62-1.07,0.98-1.69,1.15c-0.71,0.18-1.51,0.27-2.58,0.27h-1.78
	c-0.62,0-0.98,0-1.07-0.09c-0.09-0.09-0.27-0.18-0.27-0.36c0-0.09-0.09-0.53-0.09-1.33v-5.24h3.11c1.33,0,2.4,0.09,3.11,0.36
	s1.15,0.62,1.51,1.15c0.36,0.53,0.53,1.07,0.53,1.78C457.15,206.73,456.98,207.44,456.44,208.06z"/>
</svg>
