<svg xmlns="http://www.w3.org/2000/svg" x="0px" y="0px"
	 viewBox="0 0 768 440" style="enable-background:new 0 0 768 440;" xml:space="preserve">
<style type="text/css">
	.st0{fill:none;stroke:#FFFFFF;stroke-miterlimit:10;stroke-dasharray:5,5;}
	.st1{fill:none;stroke:#FFFFFF;stroke-miterlimit:10;}
	.st2{fill:#0062FF;}
	.st3{stroke:#FFFFFF;stroke-miterlimit:10;}
	.st4{fill:#FFD200;}
	.st5{fill:#F46C3D;}
	.st6{fill:#FFFFFF;}
</style>
<rect width="768" height="440"/>
<circle class="st0" cx="384" cy="220" r="206.6"/>
<circle class="st0" cx="384" cy="220" r="58.3"/>
<circle class="st1" cx="384" cy="220" r="134.3"/>
<path class="st2" d="M446.1,264c0,0-44.1-24.9-43.3-44c-0.8-19.1,43.3-44,43.3-44c82.8-58.4,77.5-176,77.5-176H384H244.4
	c0,0-5.3,117.6,77.5,176c0,0,44.1,24.9,43.3,44c0.8,19.1-43.3,44-43.3,44c-82.8,58.4-77.5,176-77.5,176H384h139.6
	C523.6,440,528.9,322.4,446.1,264z"/>
<path d="M384,414.3H279.3c0,0,23.8-45.8,67.8-74.1c0,0,30.7-92.5,28-120.1c2.7-27.6-28-43-28-43c-43.9-28.3-67.8-74.1-67.8-74.1H384
	h104.7c0,0-23.8,45.8-67.8,74.1c0,0-30.7,15.4-28,43c-2.7,27.6,28,120.1,28,120.1c43.9,28.3,67.8,74.1,67.8,74.1H384z"/>
<circle class="st0" cx="384" cy="220" r="353.4"/>
<g>
	<g>
		<path class="st3" d="M39.6,220c0-19.7,1.7-39.1,4.9-58.1L26.8,159c-3.4,20-5.1,40.4-5.1,61c0,18.9,1.4,37.5,4.3,55.9
			c5.8-0.9,11.7-1.9,17.8-2.8C41,255.6,39.6,237.9,39.6,220z"/>
		<path class="st3" d="M728.4,220c0,18.4-1.5,36.6-4.3,54.5l17.8,2.9c3-18.9,4.5-38,4.5-57.5c0-19.7-1.6-39.2-4.7-58.3
			c-4.9,0.8-10.9,1.7-17.8,2.8C726.8,182.7,728.4,201.2,728.4,220z"/>
		<path class="st3" d="M186.4,220c0-11.6,1-23,3-34.1l-17.8-2.9c-2.1,12.1-3.2,24.5-3.2,37.1c0,11.1,0.8,22,2.5,32.7
			c5.9-0.9,11.8-1.9,17.8-2.8C187.1,240.1,186.4,230.1,186.4,220z"/>
		<path class="st3" d="M581.6,220c0,10.4-0.8,20.6-2.4,30.5l17.8,2.9c1.7-11,2.6-22.2,2.6-33.5c0-11.9-1-23.7-2.9-35.3
			c-5.8,0.9-11.8,1.9-17.8,2.8C580.7,198.1,581.6,209,581.6,220z"/>
	</g>
</g>
<circle class="st1" cx="384" cy="220" r="279.2"/>
<polygon class="st4" points="93.2,20.3 72.1,31 91.9,43.9 "/>
<polygon class="st4" points="81.1,400.2 82.9,423.8 102.4,410.4 "/>
<polygon class="st4" points="93.2,20.3 72.1,31 91.9,43.9 "/>
<polygon class="st4" points="81.1,400.2 82.9,423.8 102.4,410.4 "/>
<polygon class="st4" points="676,20.3 697.1,31 677.3,43.9 "/>
<polygon class="st4" points="688.1,400.2 686.3,423.8 666.7,410.4 "/>
<circle class="st2" cx="51" cy="101.6" r="10.9"/>
<circle class="st2" cx="200.2" cy="310.7" r="10.9"/>
<circle class="st2" cx="568.1" cy="310.7" r="10.9"/>
<circle class="st2" cx="717" cy="101.6" r="10.9"/>
<circle class="st5" cx="568.1" cy="130.6" r="10.9"/>
<circle class="st5" cx="200.2" cy="130.6" r="10.9"/>
<circle class="st5" cx="51" cy="339.5" r="10.9"/>
<circle class="st5" cx="717" cy="339.5" r="10.9"/>
<circle cx="386.5" cy="315.3" r="51.5"/>
<circle class="st4" cx="386.5" cy="306.7" r="51.5"/>
<circle cx="386.5" cy="306.7" r="39.8"/>
<circle class="st4" cx="386.5" cy="312.6" r="39.8"/>
<polygon class="st6" points="395.5,311.6 411.5,306.8 394.6,301.7 403.7,288.9 391.2,297.4 386.5,281.8 381.7,297.8 369.1,288.8 
	378,301.8 361.6,306.8 377.5,311.6 369,323.4 381.4,314.9 386.5,331.7 391.6,314.9 403.7,323.5 "/>
<circle cx="386.5" cy="105.2" r="38.2"/>
<circle class="st4" cx="386.5" cy="98.8" r="38.2"/>
<circle cx="386.5" cy="98.8" r="29.5"/>
<circle class="st4" cx="386.5" cy="103.2" r="29.5"/>
<polygon class="st6" points="393.2,102.4 405,98.9 392.5,95.1 399.3,85.6 390,91.9 386.5,80.4 383,92.2 373.6,85.6 380.2,95.2 
	368,98.9 379.8,102.4 373.5,111.3 382.7,104.9 386.5,117.4 390.3,104.9 399.2,111.3 "/>
<circle class="st4" cx="135.5" cy="96.6" r="36.9"/>
<circle cx="135.5" cy="96.6" r="28.5"/>
<circle class="st4" cx="135.5" cy="100.9" r="28.5"/>
<circle class="st4" cx="104.8" cy="219.6" r="36.9"/>
<circle cx="104.8" cy="219.6" r="28.5"/>
<circle class="st4" cx="104.8" cy="223.8" r="28.5"/>
<circle class="st4" cx="135.5" cy="343.9" r="36.9"/>
<circle cx="135.5" cy="343.9" r="28.5"/>
<circle class="st4" cx="135.5" cy="348.2" r="28.5"/>
<circle class="st4" cx="633.1" cy="96.6" r="36.9"/>
<circle cx="633.1" cy="96.6" r="28.5"/>
<circle class="st4" cx="633.1" cy="100.9" r="28.5"/>
<circle class="st4" cx="663.7" cy="219.6" r="36.9"/>
<circle cx="663.7" cy="219.6" r="28.5"/>
<circle class="st4" cx="663.7" cy="223.8" r="28.5"/>
<circle class="st4" cx="633.1" cy="343.9" r="36.9"/>
<circle cx="633.1" cy="343.9" r="28.5"/>
<circle class="st4" cx="633.1" cy="348.2" r="28.5"/>
</svg>
