<svg xmlns="http://www.w3.org/2000/svg" x="0px" y="0px"
	 viewBox="0 0 199 200" style="enable-background:new 0 0 199 200;" xml:space="preserve">
<style type="text/css">
	.st0{fill:#CED2DB;}
	.st1{fill:#0052FF;}
	.st2{fill:#FFD200;}
	.st3{fill:#0A0B0D;}
</style>
<path class="st0" d="M76.7,86H7.3C2.7,86-1,82.3-1,77.7V8.3C-1,3.7,2.7,0,7.3,0h69.5C81.3,0,85,3.7,85,8.3v69.5
	C85,82.3,81.3,86,76.7,86z"/>
<path class="st0" d="M76.7,200H7.3c-4.6,0-8.3-3.7-8.3-8.3v-69.5c0-4.6,3.7-8.3,8.3-8.3h69.5c4.6,0,8.3,3.7,8.3,8.3v69.5
	C85,196.3,81.3,200,76.7,200z"/>
<path class="st1" d="M190.7,200h-69.5c-4.6,0-8.3-3.7-8.3-8.3v-69.5c0-4.6,3.7-8.3,8.3-8.3h69.5c4.6,0,8.3,3.7,8.3,8.3v69.5
	C199,196.3,195.3,200,190.7,200z"/>
<circle class="st2" cx="99" cy="100.1" r="66.9"/>
<path class="st0" d="M190.7,86h-69.5c-4.6,0-8.3-3.7-8.3-8.3V8.3c0-4.6,3.7-8.3,8.3-8.3h69.5c4.6,0,8.3,3.7,8.3,8.3v69.5
	C199,82.3,195.3,86,190.7,86z"/>
<path class="st1" d="M113,77.7c0,4.6,3.7,8.3,8.3,8.3h43.2C159,60.3,138.7,40.1,113,34.6V77.7z"/>
<path class="st1" d="M33.5,86h43.2c4.6,0,8.3-3.7,8.3-8.3V34.6C59.3,40.1,39,60.3,33.5,86z"/>
<path class="st3" d="M164.5,114h-43.2c-4.6,0-8.3,3.7-8.3,8.3v43.3C138.8,160,159,139.8,164.5,114z"/>
<path class="st1" d="M85,122.3c0-4.6-3.7-8.3-8.3-8.3H33.5c5.5,25.8,25.7,46,51.5,51.5V122.3z"/>
</svg>
