<svg xmlns="http://www.w3.org/2000/svg" xmlns:xlink="http://www.w3.org/1999/xlink" x="0px" y="0px"
	 viewBox="0 0 746.6 635.8" style="enable-background:new 0 0 746.6 635.8;" xml:space="preserve">
<style type="text/css">
	.st0{fill:#0052FF;}
	.st1{fill:#56B4FC;}
</style>
<path class="st0" d="M679.9,0H146.6c-36.8,0-66.7,29.8-66.7,66.7v239.2c23.9-11,50.6-17.2,78.6-17.2c104,0,188.5,84.6,188.5,188.5
	c0,19.5-3,38.4-8.5,56.1h341.4c36.8,0,66.7-29.8,66.7-66.7v-400C746.6,29.8,716.7,0,679.9,0z"/>
<path class="st1" d="M631.2,433.3h-66.7c-18.4,0-33.3-14.9-33.3-33.3c0-18.4,14.9-33.3,33.3-33.3h66.7c18.4,0,33.3,14.9,33.3,33.3
	C664.6,418.4,649.7,433.3,631.2,433.3z"/>
<rect x="79.9" y="133.3" class="st1" width="666.7" height="66.7"/>
<path class="st1" d="M158.5,318.7C71,318.7,0,389.7,0,477.2s71,158.5,158.5,158.5s158.5-71,158.5-158.5S246.1,318.7,158.5,318.7z
	 M225.2,510.6H91.9c-18.4,0-33.3-14.9-33.3-33.3c0-18.4,14.9-33.3,33.3-33.3h133.3c18.4,0,33.3,14.9,33.3,33.3
	C258.5,495.6,243.6,510.6,225.2,510.6z"/>
</svg>
