<svg xmlns="http://www.w3.org/2000/svg" x="0px" y="0px"
	 viewBox="0 0 768 441" style="enable-background:new 0 0 768 441;" xml:space="preserve">
<style type="text/css">
	.st0{fill:#1552F0;}
	.st1{fill:#B6C7C6;}
	.st2{fill:#FFFFFF;}
	.st3{fill:none;stroke:#FFFFFF;stroke-miterlimit:10;}
	.st4{fill:#FFD200;}
	.st5{fill:#F26C3D;}
	.st6{fill:#2BBD7F;}
	.st7{fill:none;stroke:#FFFFFF;stroke-miterlimit:10;stroke-dasharray:1.9058,3.8116;}
	.st8{fill:none;stroke:#FFFFFF;stroke-miterlimit:10;stroke-dasharray:2,4;}
</style>
<rect width="768" height="441"/>
<path class="st0" d="M223.17,292.56h-8.35v-4.94c0-2.73-2.21-4.94-4.94-4.94H104.81c-2.73,0-4.94,2.21-4.94,4.94v4.94h-8.35
	c-2.92,0-5.28,2.37-5.28,5.28v10.3c0,2.92,2.37,5.28,5.28,5.28h131.66c2.92,0,5.28-2.37,5.28-5.28v-10.3
	C228.46,294.93,226.09,292.56,223.17,292.56z"/>
<path class="st0" d="M200.22,339.06h-86.4c-2.33,0-4.21-1.88-4.21-4.21l0,0c0-2.33,1.88-4.21,4.21-4.21h86.4
	c2.33,0,4.21,1.88,4.21,4.21l0,0C204.43,337.17,202.55,339.06,200.22,339.06z"/>
<path class="st1" d="M187.65,309.57c0,0-0.23-11.88-0.02-14.47s-1.94-2.16-1.94-2.16h-2.59c0,0,0-5.83,0-7.77
	c0-0.99-1.29-1.87-2.55-2.49h-75.74c-2.73,0-4.94,2.21-4.94,4.94v4.94h-8.35c-2.92,0-5.28,2.37-5.28,5.28v10.3
	c0,2.92,2.37,5.28,5.28,5.28h95.02C187.64,311.77,187.65,309.57,187.65,309.57z"/>
<polygon class="st0" points="116.3,330.64 111.17,321.75 177.86,321.75 175.41,330.64 "/>
<path class="st1" d="M178.78,334.85c0-2.33-1.88-4.21-4.21-4.21h-60.75c-2.33,0-4.21,1.89-4.21,4.21s1.88,4.21,4.21,4.21h60.75
	C176.9,339.06,178.78,337.17,178.78,334.85z"/>
<rect x="117.86" y="338.87" class="st0" width="78.99" height="102.13"/>
<rect x="117.86" y="345.07" class="st1" width="57.07" height="95.93"/>
<path class="st2" d="M131.13,348.29c-2.28,0-4.13,1.85-4.13,4.13V441h8.25v-88.58C135.26,350.14,133.41,348.29,131.13,348.29z"/>
<path d="M129.7,348.57C129.7,348.57,129.7,348.57,129.7,348.57c-0.17,0.06-0.33,0.14-0.48,0.22c-0.05,0.03-0.1,0.05-0.14,0.08
	c-0.14,0.08-0.28,0.17-0.41,0.27c-0.05,0.04-0.1,0.08-0.15,0.13c-0.18,0.15-0.35,0.32-0.5,0.5c-0.08,0.1-0.17,0.19-0.24,0.29
	c-0.06,0.08-0.11,0.18-0.16,0.27c-0.07,0.12-0.14,0.25-0.2,0.38c-0.04,0.09-0.08,0.18-0.11,0.27c-0.06,0.15-0.11,0.31-0.14,0.47
	c-0.02,0.08-0.04,0.16-0.06,0.24c-0.05,0.24-0.08,0.49-0.08,0.75V441h2.69V348.57z"/>
<path class="st2" d="M148.64,348.29c-2.28,0-4.13,1.85-4.13,4.13V441h8.25v-88.58C152.77,350.14,150.92,348.29,148.64,348.29z"/>
<path d="M147.2,348.57C147.2,348.57,147.2,348.57,147.2,348.57c-0.17,0.06-0.33,0.14-0.48,0.22c-0.05,0.03-0.1,0.05-0.14,0.08
	c-0.14,0.08-0.28,0.17-0.41,0.27c-0.05,0.04-0.1,0.08-0.15,0.13c-0.18,0.15-0.35,0.32-0.5,0.5c-0.08,0.1-0.17,0.19-0.24,0.29
	c-0.06,0.08-0.11,0.18-0.16,0.27c-0.07,0.12-0.14,0.25-0.2,0.38c-0.04,0.09-0.08,0.18-0.11,0.27c-0.06,0.15-0.11,0.31-0.14,0.47
	c-0.02,0.08-0.04,0.16-0.06,0.24c-0.05,0.24-0.08,0.49-0.08,0.75V441h2.69V348.57z"/>
<path class="st2" d="M165.81,348.29c-2.28,0-4.13,1.85-4.13,4.13V441h8.25v-88.58C169.93,350.14,168.08,348.29,165.81,348.29z"/>
<path d="M164.37,348.57C164.37,348.57,164.37,348.57,164.37,348.57c-0.17,0.06-0.33,0.14-0.48,0.22c-0.05,0.03-0.1,0.05-0.14,0.08
	c-0.14,0.08-0.28,0.17-0.41,0.27c-0.05,0.04-0.1,0.08-0.15,0.13c-0.18,0.15-0.35,0.32-0.5,0.5c-0.08,0.1-0.17,0.19-0.24,0.29
	c-0.06,0.08-0.11,0.18-0.16,0.27c-0.07,0.12-0.14,0.25-0.2,0.38c-0.04,0.09-0.08,0.18-0.11,0.27c-0.06,0.15-0.11,0.31-0.14,0.47
	c-0.02,0.08-0.04,0.16-0.06,0.24c-0.05,0.24-0.08,0.49-0.08,0.75V441h2.69V348.57z"/>
<path d="M183.53,348.29c-2.28,0-4.13,1.85-4.13,4.13V441h8.25v-88.58C187.65,350.14,185.8,348.29,183.53,348.29z"/>
<path class="st0" d="M677.34,292.56h-8.35v-4.94c0-2.73-2.21-4.94-4.94-4.94H558.98c-2.73,0-4.94,2.21-4.94,4.94v4.94h-8.35
	c-2.92,0-5.28,2.37-5.28,5.28v10.3c0,2.92,2.37,5.28,5.28,5.28h131.66c2.92,0,5.28-2.37,5.28-5.28v-10.3
	C682.62,294.93,680.26,292.56,677.34,292.56z"/>
<path class="st0" d="M654.39,339.06h-86.4c-2.33,0-4.21-1.88-4.21-4.21l0,0c0-2.33,1.88-4.21,4.21-4.21h86.4
	c2.33,0,4.21,1.88,4.21,4.21l0,0C658.6,337.17,656.71,339.06,654.39,339.06z"/>
<path class="st1" d="M641.82,309.57c0,0-0.23-11.88-0.02-14.47s-1.94-2.16-1.94-2.16h-2.59c0,0,0-5.83,0-7.77
	c0-0.99-1.29-1.87-2.55-2.49h-75.74c-2.73,0-4.94,2.21-4.94,4.94v4.94h-8.35c-2.92,0-5.28,2.37-5.28,5.28v10.3
	c0,2.92,2.37,5.28,5.28,5.28h95.02C641.81,311.77,641.82,309.57,641.82,309.57z"/>
<polygon class="st0" points="570.47,330.64 565.34,321.75 632.03,321.75 629.58,330.64 "/>
<path class="st1" d="M632.95,334.85c0-2.33-1.88-4.21-4.21-4.21h-60.75c-2.33,0-4.21,1.89-4.21,4.21s1.88,4.21,4.21,4.21h60.75
	C631.06,339.06,632.95,337.17,632.95,334.85z"/>
<rect x="572.03" y="338.87" class="st0" width="78.99" height="102.13"/>
<rect x="572.03" y="345.07" class="st1" width="57.07" height="95.93"/>
<path class="st2" d="M585.3,348.29c-2.28,0-4.13,1.85-4.13,4.13V441h8.25v-88.58C589.43,350.14,587.58,348.29,585.3,348.29z"/>
<path d="M583.86,348.57C583.86,348.57,583.86,348.57,583.86,348.57c-0.17,0.06-0.33,0.14-0.48,0.22c-0.05,0.03-0.1,0.05-0.14,0.08
	c-0.14,0.08-0.28,0.17-0.41,0.27c-0.05,0.04-0.1,0.08-0.15,0.13c-0.18,0.15-0.35,0.32-0.5,0.5c-0.08,0.1-0.17,0.19-0.24,0.29
	c-0.06,0.08-0.11,0.18-0.16,0.27c-0.07,0.12-0.14,0.25-0.2,0.38c-0.04,0.09-0.08,0.18-0.11,0.27c-0.06,0.15-0.11,0.31-0.14,0.47
	c-0.02,0.08-0.04,0.16-0.06,0.24c-0.05,0.24-0.08,0.49-0.08,0.75V441h2.69V348.57z"/>
<path class="st2" d="M602.81,348.29c-2.28,0-4.13,1.85-4.13,4.13V441h8.25v-88.58C606.94,350.14,605.09,348.29,602.81,348.29z"/>
<path d="M601.37,348.57C601.37,348.57,601.37,348.57,601.37,348.57c-0.17,0.06-0.33,0.14-0.48,0.22c-0.05,0.03-0.1,0.05-0.14,0.08
	c-0.14,0.08-0.28,0.17-0.41,0.27c-0.05,0.04-0.1,0.08-0.15,0.13c-0.18,0.15-0.35,0.32-0.5,0.5c-0.08,0.1-0.17,0.19-0.24,0.29
	c-0.06,0.08-0.11,0.18-0.16,0.27c-0.07,0.12-0.14,0.25-0.2,0.38c-0.04,0.09-0.08,0.18-0.11,0.27c-0.06,0.15-0.11,0.31-0.14,0.47
	c-0.02,0.08-0.04,0.16-0.06,0.24c-0.05,0.24-0.08,0.49-0.08,0.75V441h2.69V348.57z"/>
<path class="st2" d="M619.97,348.29c-2.28,0-4.13,1.85-4.13,4.13V441h8.25v-88.58C624.1,350.14,622.25,348.29,619.97,348.29z"/>
<path d="M618.54,348.57C618.54,348.57,618.54,348.57,618.54,348.57c-0.17,0.06-0.33,0.14-0.48,0.22c-0.05,0.03-0.1,0.05-0.14,0.08
	c-0.14,0.08-0.28,0.17-0.41,0.27c-0.05,0.04-0.1,0.08-0.15,0.13c-0.18,0.15-0.35,0.32-0.5,0.5c-0.08,0.1-0.17,0.19-0.24,0.29
	c-0.06,0.08-0.11,0.18-0.16,0.27c-0.07,0.12-0.14,0.25-0.2,0.38c-0.04,0.09-0.08,0.18-0.11,0.27c-0.06,0.15-0.11,0.31-0.14,0.47
	c-0.02,0.08-0.04,0.16-0.06,0.24c-0.05,0.24-0.08,0.49-0.08,0.75V441h2.69V348.57z"/>
<path d="M637.69,348.29c-2.28,0-4.13,1.85-4.13,4.13V441h8.25v-88.58C641.82,350.14,639.97,348.29,637.69,348.29z"/>
<path class="st0" d="M430.09,278.1l-8.25,1.29l-0.76-4.88c-0.42-2.7-2.95-4.54-5.65-4.12l-103.81,16.21
	c-2.7,0.42-4.54,2.95-4.12,5.65l0.76,4.88l-8.25,1.29c-2.88,0.45-4.85,3.15-4.4,6.03l1.59,10.18c0.45,2.88,3.15,4.85,6.03,4.4
	l130.09-20.31c2.88-0.45,4.85-3.15,4.4-6.03l-1.59-10.18C435.67,279.62,432.97,277.65,430.09,278.1z"/>
<path class="st0" d="M414.58,327.58l-85.37,13.33c-2.3,0.36-4.45-1.21-4.81-3.51l0,0c-0.36-2.3,1.21-4.45,3.51-4.81l85.37-13.33
	c2.3-0.36,4.45,1.21,4.81,3.51v0C418.45,325.06,416.88,327.22,414.58,327.58z"/>
<path class="st1" d="M397.61,300.38c0,0-2.06-11.7-2.25-14.29s-2.25-1.83-2.25-1.83l-2.56,0.4c0,0-0.9-5.76-1.2-7.68
	c-0.15-0.98-1.56-1.64-2.9-2.07l-74.84,11.68c-2.7,0.42-4.54,2.95-4.12,5.65l0.76,4.88l-8.25,1.29c-2.88,0.45-4.85,3.15-4.4,6.03
	l1.59,10.18c0.45,2.88,3.15,4.85,6.03,4.4l93.89-14.66C397.94,302.56,397.61,300.38,397.61,300.38z"/>
<polygon class="st0" points="330.37,332.2 323.93,324.21 389.82,313.92 388.77,323.08 "/>
<path class="st1" d="M392.75,326.72c-0.36-2.3-2.51-3.87-4.81-3.51l-60.02,9.37c-2.3,0.36-3.87,2.51-3.51,4.81
	c0.36,2.3,2.51,3.87,4.81,3.51l60.02-9.37C391.53,331.17,393.11,329.02,392.75,326.72z"/>
<polygon class="st0" points="384.24,389.93 372.31,375.13 415.15,353.04 411.22,327.9 333.18,340.09 345.58,419.5 "/>
<polygon class="st1" points="384.24,389.93 372.31,375.13 394.62,363.63 390.52,337.41 334.14,346.22 345.58,419.5 "/>
<polygon class="st2" points="392.49,382.41 391.53,376.28 390.49,376.65 "/>
<path class="st2" d="M382.2,370.03l7.73-3.99l-3.22-20.59c-0.35-2.25-2.46-3.79-4.71-3.44c-2.25,0.35-3.79,2.46-3.44,4.71
	L382.2,370.03z"/>
<path class="st2" d="M369.68,401.07l7.46-5.71l-2.76-17.66l-2.07-2.57l1.55-0.8l-4.1-26.24c-0.35-2.25-2.46-3.79-4.71-3.44
	c-2.25,0.35-3.79,2.46-3.44,4.71L369.68,401.07z"/>
<path class="st2" d="M361.31,407.47l-8.85-56.67c-0.35-2.25-2.46-3.79-4.71-3.44c-2.25,0.35-3.79,2.46-3.44,4.71l9.54,61.11
	L361.31,407.47z"/>
<path d="M382.2,370.03l2.52-1.3l-4.1-26.23c0,0,0,0,0,0c-0.16,0.09-0.3,0.19-0.44,0.29c-0.04,0.03-0.09,0.06-0.13,0.1
	c-0.13,0.1-0.25,0.21-0.36,0.33c-0.05,0.05-0.09,0.1-0.13,0.15c-0.16,0.18-0.3,0.37-0.42,0.57c-0.07,0.11-0.14,0.21-0.19,0.33
	c-0.05,0.09-0.08,0.19-0.12,0.29c-0.05,0.13-0.1,0.27-0.14,0.4c-0.03,0.09-0.05,0.19-0.07,0.28c-0.03,0.16-0.06,0.32-0.07,0.48
	c-0.01,0.08-0.02,0.16-0.02,0.24c-0.01,0.25,0,0.5,0.04,0.75L382.2,370.03z"/>
<path d="M369.68,401.07l2.43-1.86l-8.44-54.07c0,0,0,0,0,0c-0.16,0.09-0.3,0.19-0.44,0.29c-0.04,0.03-0.09,0.06-0.13,0.1
	c-0.13,0.1-0.25,0.21-0.36,0.33c-0.05,0.05-0.09,0.1-0.13,0.15c-0.16,0.18-0.3,0.37-0.42,0.57c-0.07,0.11-0.14,0.21-0.19,0.33
	c-0.05,0.09-0.08,0.19-0.12,0.29c-0.05,0.13-0.1,0.27-0.14,0.4c-0.03,0.09-0.05,0.19-0.07,0.28c-0.03,0.16-0.06,0.32-0.07,0.48
	c-0.01,0.08-0.02,0.16-0.02,0.24c-0.01,0.25,0,0.5,0.04,0.75L369.68,401.07z"/>
<path class="st2" d="M361.31,407.47l-8.85-56.67c-0.35-2.25-2.46-3.79-4.71-3.44c-2.25,0.35-3.79,2.46-3.44,4.71l9.54,61.11
	L361.31,407.47z"/>
<path d="M356.28,411.32l-9.91-63.47c0,0,0,0,0,0c-0.16,0.09-0.3,0.19-0.44,0.29c-0.04,0.03-0.09,0.06-0.13,0.1
	c-0.13,0.1-0.25,0.21-0.36,0.33c-0.05,0.05-0.09,0.1-0.13,0.15c-0.16,0.18-0.3,0.37-0.42,0.57c-0.07,0.11-0.14,0.21-0.19,0.33
	c-0.05,0.09-0.08,0.19-0.12,0.29c-0.05,0.13-0.1,0.27-0.14,0.4c-0.03,0.09-0.05,0.19-0.07,0.28c-0.03,0.16-0.06,0.32-0.07,0.48
	c-0.01,0.08-0.02,0.16-0.02,0.24c-0.01,0.25,0,0.5,0.04,0.75l9.54,61.11L356.28,411.32z"/>
<path d="M398.8,361.47l7.73-3.99l-2.31-14.77c-0.35-2.25-2.46-3.79-4.71-3.44c-2.25,0.35-3.79,2.46-3.44,4.71L398.8,361.47z"/>
<polygon class="st0" points="390.49,376.65 396.17,393.04 344.74,420.16 344.74,441 423.73,441 423.73,364.93 "/>
<polygon points="406.28,371.08 406.28,441 414.53,441 414.53,368.18 "/>
<polygon class="st1" points="390.49,376.65 396.17,393.04 344.74,420.16 344.74,441 401.81,441 401.81,372.66 "/>
<polygon class="st2" points="353.89,415.33 353.89,441 362.14,441 362.14,410.98 "/>
<polygon class="st2" points="371.4,406.1 371.4,441 379.65,441 379.65,401.75 "/>
<polygon class="st2" points="390.49,376.65 396.17,393.04 388.56,397.05 388.56,441 396.81,441 396.81,374.42 "/>
<polygon points="391.25,376.38 390.49,376.65 391.25,378.84 "/>
<polygon points="388.56,397.05 388.56,441 391.25,441 391.25,395.63 "/>
<polygon points="371.4,406.1 371.4,441 374.08,441 374.08,404.68 "/>
<path class="st3" d="M383.44,240.39c-51.43,0-93.13-41.7-93.13-93.13"/>
<polygon points="353.89,415.33 353.89,441 356.58,441 356.58,413.92 "/>
<circle class="st4" cx="383.9" cy="143.18" r="63.58"/>
<circle cx="383.9" cy="143.18" r="49.1"/>
<circle class="st4" cx="383.9" cy="150.61" r="49.1"/>
<path class="st2" d="M410.31,153.74c-1.17-1.96-2.74-3.52-4.5-4.5c-1.37-0.78-3.33-1.37-5.67-2.15c2.35-0.78,4.11-1.76,5.67-2.93
	c1.37-1.17,2.54-2.54,3.33-4.11c0.78-1.57,1.17-3.33,1.17-4.89c0-2.35-0.78-4.7-2.15-6.65c-1.37-1.96-3.52-3.52-6.06-4.7
	c-0.98-0.39-2.15-0.78-3.52-0.98v-9.39h-9v8.8h-5.67v-8.8h-9.39v8.8h-13.69v7.24h2.15c1.37,0,2.35,0.2,2.74,0.39
	c0.59,0.2,0.78,0.59,1.17,0.98c0.2,0.39,0.2,1.37,0.2,2.93v29.74c0,1.57,0,2.54-0.2,2.93c-0.2,0.39-0.59,0.78-1.17,0.98
	s-1.37,0.39-2.74,0.39h-2.15v7.24h13.69v8.8h9v-8.61h5.09c0.2,0,0.39,0,0.59,0v8.8h9v-9.39c1.57-0.2,2.74-0.59,3.91-1.17
	c3.13-1.17,5.48-3.13,7.24-5.48c1.57-2.35,2.54-4.89,2.54-7.83C412.07,157.85,411.49,155.7,410.31,153.74z M380.18,130.65h5.87
	c3.33,0,5.67,0.2,7.04,0.59s2.35,1.17,2.93,2.15c0.78,0.98,0.98,2.15,0.98,3.52s-0.39,2.54-1.17,3.52
	c-0.78,0.98-1.76,1.76-3.33,2.35c-1.37,0.59-3.72,0.78-6.85,0.78h-5.87v-12.91C379.79,130.65,380.18,130.65,380.18,130.65z
	 M396.62,163.52c-0.98,1.37-2.35,2.15-3.72,2.54c-1.57,0.39-3.33,0.59-5.67,0.59h-3.91c-1.37,0-2.15,0-2.35-0.2
	c-0.2-0.2-0.59-0.39-0.59-0.78c0-0.2-0.2-1.17-0.2-2.93V151.2h6.85c2.93,0,5.28,0.2,6.85,0.78s2.54,1.37,3.33,2.54
	s1.17,2.35,1.17,3.91C398.18,160.59,397.79,162.15,396.62,163.52z"/>
<circle class="st4" cx="305.95" cy="197.66" r="7.15"/>
<circle class="st4" cx="662.6" cy="151.78" r="7.15"/>
<circle class="st4" cx="582.52" cy="104.58" r="7.15"/>
<circle class="st5" cx="337.6" cy="227.65" r="7.15"/>
<path class="st3" d="M383.44,54.13c51.43,0,93.13,41.7,93.13,93.13"/>
<line class="st3" x1="561.98" y1="168.24" x2="622.7" y2="198.2"/>
<circle class="st4" cx="469.98" cy="111.73" r="7.15"/>
<circle class="st5" cx="629.1" cy="199.71" r="7.15"/>
<circle class="st5" cx="596.82" cy="157.76" r="7.15"/>
<rect x="125.01" y="118.87" class="st3" width="64.69" height="64.48"/>
<circle class="st6" cx="558.19" cy="166.65" r="7.15"/>
<circle class="st6" cx="423.73" cy="62.69" r="7.15"/>
<circle class="st6" cx="189.71" cy="183.36" r="7.15"/>
<circle class="st0" cx="125.01" cy="118.87" r="7.15"/>
<circle class="st0" cx="634.67" cy="106.29" r="7.15"/>
<line class="st3" x1="584.68" y1="111.39" x2="594.72" y2="150.92"/>
<line class="st3" x1="565.12" y1="164.91" x2="589.67" y2="159.5"/>
<line class="st3" x1="601.82" y1="162.86" x2="624.47" y2="192.57"/>
<line class="st3" x1="632.41" y1="192.57" x2="658.69" y2="157.76"/>
<line class="st3" x1="639.31" y1="111.73" x2="658.62" y2="145.83"/>
<line class="st3" x1="589.67" y1="104.58" x2="627.52" y2="106.29"/>
<g>
	<g>
		<line class="st3" x1="603.97" y1="155.99" x2="604.96" y2="155.94"/>
		<line class="st7" x1="608.77" y1="155.75" x2="652.55" y2="153.55"/>
		<line class="st3" x1="654.45" y1="153.46" x2="655.45" y2="153.41"/>
	</g>
</g>
<line class="st8" x1="579.53" y1="111.06" x2="561.32" y2="159.5"/>
<rect x="109.07" y="168.01" class="st5" width="31.71" height="31.71"/>
<rect x="173.85" y="103.02" class="st4" width="31.71" height="31.71"/>
<rect x="173.85" y="167.5" class="st8" width="31.71" height="31.71"/>
<rect x="109.16" y="103.02" class="st8" width="31.71" height="31.71"/>
<path class="st8" d="M290.31,147.26c0-51.43,41.7-93.13,93.13-93.13"/>
<path class="st8" d="M476.57,147.26c0,51.43-41.7,93.13-93.13,93.13"/>
</svg>
