<svg xmlns="http://www.w3.org/2000/svg" x="0px" y="0px"
	 viewBox="0 0 768 440" style="enable-background:new 0 0 768 440;" xml:space="preserve">
<style type="text/css">
	.st0{fill:#B8C9C8;}
	.st1{fill:#0062FF;}
	.st2{fill:none;stroke:#000000;stroke-miterlimit:10;}
	.st3{fill:#FFD200;}
	.st4{fill:#F46C3D;}
	.st5{fill:#FFFFFF;}
</style>
<rect class="st0" width="768" height="440"/>
<polygon points="404.3,117.2 374.8,147 514.9,272.2 550.2,236.2 "/>
<path class="st1" d="M218.8,239.1l138.5,138.5c14.8,14.8,38.7,14.8,53.4,0l123.2-124.8c0,0-8.6,4.1-22.9,3
	c-13-1.4-26.7-15.9-26.7-15.9L356.2,110.7L218.8,239.1z"/>
<path class="st2" d="M481.2,305.7c0,0-8.6,4.1-22.9,3c-13-1.4-26.7-15.9-26.7-15.9L303.3,163.6"/>
<path class="st2" d="M507.5,279.3c0,0-8.6,4.1-22.9,3c-13-1.4-26.7-15.9-26.7-15.9L329.7,137.3"/>
<path class="st2" d="M454.4,332.4c0,0-8.6,4.1-22.9,3c-13-1.4-26.7-15.9-26.7-15.9L276.5,190.4"/>
<path class="st2" d="M428.5,358.4c0,0-8.6,4.1-22.9,3c-13-1.4-26.7-15.9-26.7-15.9L250.6,216.3"/>
<circle cx="492.5" cy="160.7" r="95"/>
<circle class="st3" cx="492.5" cy="144.8" r="95"/>
<circle cx="492.5" cy="144.8" r="73.4"/>
<circle class="st3" cx="492.5" cy="155.8" r="73.4"/>
<path class="st4" d="M507.5,216.8L403.3,111.9c-3.8,10.2-5.8,21.3-5.8,32.8c0,52.5,42.6,95,95,95c13.4,0,26.2-2.8,37.8-7.8
	C518.6,228.7,507.5,216.8,507.5,216.8z"/>
<circle cx="272.7" cy="160.7" r="95"/>
<circle class="st3" cx="272.7" cy="144.8" r="95"/>
<circle cx="272.7" cy="144.8" r="73.4"/>
<circle class="st3" cx="272.7" cy="155.8" r="73.4"/>
<polygon class="st5" points="289.3,153.9 318.7,145 287.6,135.7 304.4,112 281.3,127.8 272.7,99 263.8,128.4 240.5,111.9 
	256.9,135.9 226.6,145 256,153.9 240.4,175.8 263.3,160.1 272.7,191.1 282,160 304.3,175.9 "/>
<circle class="st0" cx="392.2" cy="202" r="7.3"/>
<circle class="st5" cx="415.4" cy="274.5" r="7.3"/>
<circle class="st3" cx="363.3" cy="277.3" r="7.3"/>
<circle class="st4" cx="365.5" cy="331.3" r="7.3"/>
<polygon class="st5" points="509.1,153.9 538.5,145 507.4,135.7 524.3,112 501.2,127.8 492.5,99 483.6,128.4 460.3,111.9 
	476.7,135.9 446.5,145 475.8,153.9 460.2,175.8 483.2,160.1 492.5,191.1 501.8,160 524.2,175.9 "/>
</svg>
