<svg xmlns="http://www.w3.org/2000/svg" x="0px" y="0px"
	 viewBox="0 0 843 467" style="enable-background:new 0 0 843 467;" xml:space="preserve">
<style type="text/css">
	.st0{fill-rule:evenodd;clip-rule:evenodd;}
	.st1{fill:#FFFFFF;}
	.st2{fill:#5F45BA;}
	.st3{fill:url(#SVGID_1_);}
	.st4{fill:none;}
	.st5{fill:#00D395;}
	.st6{fill-rule:evenodd;clip-rule:evenodd;fill:#F9FAFB;}
	.st7{fill-rule:evenodd;clip-rule:evenodd;fill:#FFFFFF;}
	.st8{fill:#31CB9E;}
	.st9{fill:#ECB244;}
	.st10{fill:#FBCC5C;}
</style>
<path class="st0" d="M65.5,434.9c23.7,0,43-19.2,43-43c0-23.7-19.2-43-43-43c-23.7,0-43,19.2-43,43
	C22.5,415.7,41.8,434.9,65.5,434.9z"/>
<path class="st1" d="M86.6,373.5l-7,3.6l-33.4,17.5c-0.2-0.8-0.2-1.8-0.2-2.6c0-11.4,8.9-20.3,20-20.3c3.3,0,6.6,1,9.7,2.6l3.9-2
	l0.6-0.4c-10.9-8-26-5.6-34,5.6c-2.9,4.2-4.5,9.2-4.7,14.4c0,0.6,0,1.2,0,1.8c0.2,1.8-0.8,3.6-2.3,4.4l-1.9,1.2v5l6.2-3.2l1.9-1
	l1.9-1l35.2-18.3l3.9-2l8.2-4.4v-5L86.6,373.5z"/>
<path class="st1" d="M94.6,379.4l-45.3,23.7l-3.9,2l-8.2,4.2v5l8.2-4.2l7-3.6L85.8,389c0,1,0,2,0,2.8c0,11.2-8.9,20.3-19.8,20.3
	c-3.5,0-6.8-1-9.7-2.6l-0.2,0.2l-4.3,2.2c10.9,8.2,26,5.6,34-5.6c2.9-4.2,4.7-9.4,4.7-14.6c0-0.6,0-1.4,0-2
	c-0.2-1.8,0.8-3.6,2.3-4.4l2.1-1.2L94.6,379.4z"/>
<circle class="st2" cx="601.7" cy="282.8" r="55"/>
<linearGradient id="SVGID_1_" gradientUnits="userSpaceOnUse" x1="97.2464" y1="439.6776" x2="97.2464" y2="374.1704" gradientTransform="matrix(1 0 0 -1 0 466.11)">
	<stop  offset="0" style="stop-color:#4FA89B"/>
	<stop  offset="1" style="stop-color:#6ACEBB"/>
</linearGradient>
<path class="st3" d="M97.2,91.9c18.1,0,32.8-14.7,32.8-32.8c0-18.1-14.7-32.8-32.8-32.8c-18.1,0-32.8,14.7-32.8,32.8
	C64.5,77.3,79.2,91.9,97.2,91.9z"/>
<path class="st1" d="M81.1,69V53.6l11.7,8.8V69h3v-7.2c0-0.3-0.1-0.5-0.2-0.8c-0.1-0.2-0.3-0.5-0.5-0.6L80.9,49.7
	c-0.3-0.2-0.6-0.3-0.9-0.3c-0.3,0-0.6,0-0.9,0.2c-0.3,0.1-0.5,0.4-0.7,0.6c-0.2,0.3-0.3,0.6-0.3,0.9V69H81.1z M113.5,69V53.6
	l-11.7,8.8V69h-3v-7.2c0-0.3,0.1-0.5,0.2-0.8c0.1-0.2,0.3-0.5,0.5-0.6l14.2-10.7c0.3-0.2,0.6-0.3,0.9-0.3c0.3,0,0.6,0,0.9,0.2
	c0.3,0.1,0.5,0.4,0.7,0.6c0.2,0.3,0.3,0.6,0.3,0.9V69H113.5z"/>
<rect x="342.2" y="279.9" class="st4" width="90.9" height="90.9"/>
<g>
	<path class="st5" d="M387.7,370.1c24.7,0,44.7-20,44.7-44.7c0-24.7-20-44.7-44.7-44.7c-24.7,0-44.7,20-44.7,44.7
		C343,350.1,363,370.1,387.7,370.1z"/>
</g>
<path class="st6" d="M368.9,340.4c-1.3-0.8-2.2-2.3-2.2-3.8v-8.7c0-0.3,0.1-0.7,0.3-0.9c0.5-0.9,1.7-1.2,2.6-0.7l19.7,11.5
	c1.2,0.7,1.9,1.9,1.9,3.2v9c0,0.4-0.1,0.8-0.3,1.2c-0.7,1.1-2,1.4-3.1,0.7L368.9,340.4z M398.2,323.8c1.2,0.7,1.9,1.9,1.9,3.2v18.4
	c0,0.5-0.3,1-0.8,1.3l-4.3,2.4c-0.1,0-0.1,0.1-0.2,0.1V339c0-1.3-0.7-2.5-1.8-3.2l-17.3-10.4V314c0-0.3,0.1-0.7,0.3-0.9
	c0.5-0.9,1.7-1.2,2.6-0.7L398.2,323.8z M406.9,310.3c1.2,0.7,1.9,1.9,1.9,3.2v26.8c0,0.5-0.3,1.1-0.8,1.3l-4.1,2.2v-18.7
	c0-1.3-0.7-2.5-1.8-3.2l-17.7-10.6v-10.9c0-0.3,0.1-0.7,0.3-0.9c0.5-0.9,1.7-1.2,2.6-0.7L406.9,310.3z"/>
<path class="st7" d="M368.5,340.7c-1.4-0.8-2.2-2.3-2.2-3.9v-8.9c0-0.3,0.1-0.7,0.3-1c0.5-0.9,1.7-1.2,2.6-0.7l20,11.7
	c1.2,0.7,1.9,1.9,1.9,3.3v9.2c0,0.4-0.1,0.8-0.3,1.2c-0.7,1.1-2.1,1.4-3.1,0.8L368.5,340.7z M398.4,323.8c1.2,0.7,1.9,1.9,1.9,3.3
	v18.7c0,0.6-0.3,1.1-0.8,1.3l-4.4,2.5c-0.1,0-0.1,0.1-0.2,0.1v-10.4c0-1.3-0.7-2.6-1.9-3.3l-17.6-10.5v-11.7c0-0.3,0.1-0.7,0.3-1
	c0.5-0.9,1.7-1.2,2.6-0.7L398.4,323.8z M407.1,310c1.2,0.7,1.9,1.9,1.9,3.3v27.2c0,0.6-0.3,1.1-0.8,1.3l-4.2,2.2v-19
	c0-1.3-0.7-2.6-1.8-3.3l-18-10.8v-11.1c0-0.3,0.1-0.7,0.3-1c0.5-0.9,1.7-1.2,2.6-0.7L407.1,310z"/>
<circle cx="443.3" cy="127.4" r="46.7"/>
<g>
	<g>
		<path class="st1" d="M582.7,259.6c-1,1.7-3.3,2.3-5,1.3c-1.7-1-2.3-3.3-1.3-5c1-1.7,3.3-2.3,5-1.3l0,0
			C583.2,255.6,583.7,257.9,582.7,259.6"/>
		<path class="st1" d="M570.1,258c-0.7,1.2-2.3,1.6-3.6,0.9c-1.2-0.7-1.6-2.3-0.9-3.6c0.7-1.2,2.3-1.6,3.6-0.9l0,0
			C570.5,255.1,570.9,256.7,570.1,258"/>
		<path class="st1" d="M605.1,311.3c13.5-1.6,24.3-12.6,25.2-26.7c1-15.8-11-29.4-26.8-30.4c-1.9-0.1-3.7-0.1-5.6,0.2
			c-3.8,0.3-7,1.8-7,1.8c-2.6,1.3-4.3,3.4-4.3,6.2c0,3.7,3,6.7,6.7,6.7c0.6,0,2.8-0.7,3.3-0.9c1.9-0.7,4-1,6-0.8
			c5.5,0.3,10.1,3.5,12.5,7.9c1.4,2.6,2.1,5.5,1.9,8.5c-0.5,8.5-7.9,15-16.4,14.4c-5-0.3-9.3-3-11.9-6.9v0v0
			c-3.1-4-2.4-10.5-2.4-10.6c-0.1-3.6-3.1-6.5-6.7-6.5c-3.1,0-5.7,2.1-6.5,4.9c-0.1,0.6-0.2,2.2-0.2,2.4
			c-0.6,15.5,11.2,28.8,26.8,29.8C601.7,311.5,603.4,311.5,605.1,311.3"/>
		<path class="st1" d="M578.9,269.8c-1.3,2.3-4.3,3-6.5,1.7s-3-4.3-1.7-6.5s4.3-3,6.5-1.7l0,0C579.5,264.6,580.2,267.6,578.9,269.8"
			/>
	</g>
</g>
<path class="st1" d="M463.5,146.1H457l-4.3-15.9l-9.2,15.9h-7.4l14.2-24.6L448,113l-19.2,33.1h-7.4l24.3-42h6.5l2.8,10.5h6.6
	l-4.5,7.9L463.5,146.1z"/>
<path class="st8" d="M671.1,89.9c20.1,0,36.5-16.3,36.5-36.4S691.2,17,671.1,17c-20.1,0-36.5,16.3-36.5,36.5S651,89.9,671.1,89.9z"
	/>
<circle class="st9" cx="202.3" cy="219.4" r="70.5"/>
<path class="st1" d="M667.2,56.9l21.4,11.5c0.7,0.4,0.8,1.3,0.1,1.7l-14.5,10.4c-0.7,0.5-1.6,0.1-1.8-0.7L667.2,56.9z M666.5,27.5
	c0.9-0.6,2,0.1,1.8,1.1l-5.8,24.9l5.7,24.9c0.2,0.9-0.9,1.7-1.8,1.1L651.8,69c-0.7-0.5-1.2-1.4-1.2-2.3V40.2c0-0.9,0.4-1.7,1.2-2.3
	L666.5,27.5z M690,41.7c0.7-0.4,1.7,0.1,1.7,0.9v21.6c0,0.8-0.9,1.3-1.7,0.9l-21.8-11.7L690,41.7z M672.4,27
	c0.1-0.8,1.2-1.1,1.8-0.7l14.5,10.4c0.7,0.4,0.6,1.4-0.1,1.7L667.2,50L672.4,27z"/>
<path class="st1" d="M198.2,236.7H227v14.4h-17v12.2h-14.8v-11.8h-17.7c0-4.8-0.7-9.6,0.4-14c0.4-2.2,2.9-4.4,4.8-6.6
	c5.5-6.6,11.1-13.3,17-19.9c2.2-2.6,4.4-4.8,7-7.8H179v-14.4h16.2v-12.2h14.4v11.8h17.7c0,4.8,0.7,9.6-0.4,14
	c-0.4,2.2-2.9,4.4-4.8,6.6c-5.5,6.6-11.1,13.3-17,19.9C202.9,231.5,200.7,234.1,198.2,236.7z"/>
<circle class="st10" cx="772.3" cy="379.4" r="49.8"/>
<path id="Bottom_Ring" class="st1" d="M765.8,405.9c9.9,0,18-8.1,18-18s-8.1-18-18-18s-18,8.1-18,18S755.8,405.9,765.8,405.9z
	 M765.8,412.4c-13.5,0-24.5-11-24.5-24.5s11-24.5,24.5-24.5c13.5,0,24.5,11,24.5,24.5S779.3,412.4,765.8,412.4z"/>
<path id="Top_Ring" class="st1" d="M778.9,392.8c9.9,0,18-8.1,18-18s-8.1-18-18-18s-18,8.1-18,18S768.9,392.8,778.9,392.8z
	 M778.9,399.4c-13.5,0-24.5-11-24.5-24.5s11-24.5,24.5-24.5c13.5,0,24.5,11,24.5,24.5S792.4,399.4,778.9,399.4z"/>
<path id="Rings_Overlap" class="st1" d="M779.7,399.4c1.7-2.1,2.9-4.5,3.6-7.1c2.6-0.6,5-1.9,7.1-3.6c-0.1,3-0.7,6-1.9,8.7
	C785.6,398.6,782.7,399.3,779.7,399.4z M761.4,370.4c-2.6,0.6-5,1.9-7.1,3.6c0.1-3,0.7-6,1.9-8.7c2.8-1.2,5.7-1.8,8.7-1.9
	C763.3,365.4,762,367.9,761.4,370.4z"/>
</svg>
