<svg xmlns="http://www.w3.org/2000/svg" x="0px" y="0px"
	 viewBox="0 0 768 440" style="enable-background:new 0 0 768 440;" xml:space="preserve">
<style type="text/css">
	.st0{fill:#2BBF7F;}
	.st1{fill:#FFD200;}
	.st2{fill:#FFFFFF;}
	.st3{fill:none;stroke:#000000;stroke-miterlimit:10;}
	.st4{fill:#F46C3D;}
	.st5{fill:#0062FF;}
	.st6{fill:#B8C9C8;}
	.st7{fill:none;stroke:#FFFFFF;stroke-miterlimit:10;}
	.st8{fill:#2ABC7D;}
	.st9{fill:#E26439;}
</style>
<rect width="768" height="440"/>
<rect x="276.7" class="st0" width="214.9" height="276.6"/>
<circle cx="384" cy="150.1" r="68.8"/>
<circle class="st1" cx="384" cy="138.6" r="68.8"/>
<circle cx="384" cy="138.6" r="53.1"/>
<circle class="st1" cx="384" cy="146.5" r="53.1"/>
<polygon class="st2" points="396,145.1 417.3,138.7 394.8,132 406.9,114.8 390.2,126.3 384,105.4 377.6,126.7 360.7,114.7 
	372.6,132.1 350.6,138.7 371.9,145.1 360.6,161 377.2,149.6 384,172.1 390.7,149.6 406.9,161.1 "/>
<polyline class="st3" points="339.9,233.7 439.1,237.1 384,135.4 "/>
<polyline class="st3" points="434,92.7 435.9,59.1 477.1,138.3 439.1,237.1 "/>
<line class="st3" x1="451.8" y1="144.3" x2="477.1" y2="138.3"/>
<polyline class="st3" points="330.1,95.2 308.6,75.9 435.9,59.1 384,135.4 295.6,181.4 336.1,233.7 352,206.4 "/>
<path class="st3" d="M295.6,181.4c0.6-1.9,13-105.5,13-105.5"/>
<circle class="st1" cx="308.5" cy="75.8" r="4.5"/>
<circle class="st4" cx="435.9" cy="59.1" r="4.5"/>
<circle class="st4" cx="440.5" cy="237.1" r="4.5"/>
<circle class="st5" cx="477.1" cy="138.3" r="4.5"/>
<circle class="st5" cx="335.4" cy="233.7" r="4.5"/>
<circle class="st5" cx="384" cy="135.4" r="4.5"/>
<circle class="st2" cx="308.5" cy="23.6" r="1.5"/>
<rect x="308.3" y="309.3" class="st6" width="151.8" height="90.7"/>
<circle class="st2" cx="343.8" cy="41.1" r="1.5"/>
<circle class="st2" cx="299.7" cy="229.1" r="1.5"/>
<circle class="st2" cx="361.6" cy="262.5" r="1.5"/>
<circle class="st2" cx="475.6" cy="56.1" r="1.5"/>
<circle class="st2" cx="417.3" cy="23.6" r="1.5"/>
<circle class="st2" cx="474.1" cy="217.3" r="1.5"/>
<polygon class="st2" points="276.7,276.6 265.3,287.3 245.3,287.3 245.3,301.5 255.3,301.5 255,385.8 245.3,385.8 245.3,400 
	317.9,400 317.9,385.5 308.6,385.2 308.6,309.3 317.9,301.5 317.9,287.6 337.3,287.6 342.1,276.5 "/>
<polygon class="st6" points="317.9,301.5 449.4,301.5 449.4,287.3 430.2,287.3 426.3,276.5 342.1,276.5 337.3,287.6 317.9,287.6 "/>
<polygon class="st5" points="426.3,276.5 491.6,276.5 501.4,287.6 521.7,287.6 521.7,301.5 512.5,301.5 512.5,385.5 521.7,385.5 
	521.7,400 449.4,400 449.4,386.6 459.7,386.6 459.7,309.3 308.6,309.3 308.6,301.5 449.4,301.5 449.4,287.3 430.2,287.3 "/>
<path class="st2" d="M308.6,301.5"/>
<polygon class="st6" points="308.6,301.5 255.3,301.5 255.3,309.2 308.6,309.3 "/>
<rect x="335.4" y="314.9" width="165.5" height="56.6"/>
<circle class="st7" cx="367.2" cy="343.9" r="8.6"/>
<circle class="st7" cx="367.2" cy="343.9" r="8.6"/>
<circle class="st7" cx="367.2" cy="343.9" r="19.3"/>
<circle class="st7" cx="469.5" cy="343.9" r="12.2"/>
<circle class="st1" cx="375.7" cy="326.8" r="2.9"/>
<circle class="st8" cx="382.6" cy="356.1" r="2.9"/>
<circle class="st9" cx="349.1" cy="350.4" r="2.9"/>
<circle class="st5" cx="361.6" cy="338.2" r="2.9"/>
<line class="st7" x1="399.5" y1="331.8" x2="437.3" y2="331.8"/>
<line class="st7" x1="399.5" y1="339.9" x2="437.3" y2="339.9"/>
<line class="st7" x1="399.5" y1="347.5" x2="437.3" y2="347.5"/>
<line class="st7" x1="399.5" y1="355.2" x2="437.3" y2="355.2"/>
<line class="st7" x1="406.7" y1="362.4" x2="406.7" y2="324.6"/>
<line class="st7" x1="414.8" y1="362.4" x2="414.8" y2="324.6"/>
<line class="st7" x1="422.5" y1="362.4" x2="422.5" y2="324.6"/>
<line class="st7" x1="430.1" y1="362.4" x2="430.1" y2="324.6"/>
<rect x="418.4" y="336.3" class="st1" width="7.2" height="7.2"/>
<rect x="411.2" y="351.5" class="st9" width="7.2" height="7.2"/>
<line class="st7" x1="465.1" y1="343.5" x2="474.1" y2="343.5"/>
<line class="st7" x1="469.6" y1="338.9" x2="469.6" y2="348"/>
<line class="st7" x1="459.7" y1="323.9" x2="449.4" y2="323.9"/>
<line class="st7" x1="449.4" y1="333" x2="449.4" y2="323.9"/>
<line class="st7" x1="450" y1="353.5" x2="450" y2="363.8"/>
<line class="st7" x1="459.1" y1="363.8" x2="450" y2="363.8"/>
<line class="st7" x1="479.4" y1="323.7" x2="489.7" y2="323.7"/>
<line class="st7" x1="489.7" y1="332.7" x2="489.7" y2="323.7"/>
<line class="st7" x1="489.1" y1="353.2" x2="489.1" y2="363.5"/>
<rect x="266.9" y="314.9" width="56.6" height="56.6"/>
<polygon class="st5" points="284.3,366.3 284.3,350.4 306.6,350.4 306.6,366.3 295.6,361.3 "/>
<line class="st7" x1="480.1" y1="363.5" x2="489.1" y2="363.5"/>
<circle class="st1" cx="295.6" cy="337.5" r="17.1"/>
<polygon class="st2" points="295.6,324.5 298.5,333.5 308,333.5 300.3,339.1 303.3,348.1 295.6,342.5 287.9,348.1 290.9,339.1 
	283.2,333.5 292.7,333.5 "/>
</svg>
