<svg xmlns="http://www.w3.org/2000/svg" x="0px" y="0px"
	 viewBox="0 0 48 48"  xml:space="preserve">
<style type="text/css">
	.st0{fill:#0052FF;}
	.st1{fill:#56B4FC;}
	.st2{fill:#CED2DB;}
	.st3{fill:#FFFFFF;}
</style>
<path class="st0" d="M48,24.3H26.7v21.3H48V24.3z"/>
<path class="st1" d="M13.4,24.3c5.9,0,10.6-4.8,10.6-10.6S19.2,3,13.4,3C7.4,3,2.7,7.8,2.7,13.6C2.7,19.6,7.4,24.3,13.4,24.3z"/>
<path class="st2" d="M13.4,24.3l13.4,21.4H0L13.4,24.3z"/>
<path class="st3" d="M37.3,39c2.2,0,4-1.8,4-4c0-2.2-1.8-4-4-4s-4,1.8-4,4C33.4,37.2,35.2,39,37.3,39z"/>
</svg>
