<svg width="40" height="40" viewBox="0 0 40 40" fill="none" xmlns="http://www.w3.org/2000/svg">
<style type="text/css">
	.st0{fill-rule:evenodd;clip-rule:evenodd;fill:#56B4FC;}
	.st1{fill:#1652F0;}
	.st2{fill:#FFFFFF;}
</style>
<path class="st0" d="M22.7,3.2H3.3c0,0,2,0,2,2.7v22c0,1.1,0.9,2,2,2h17.3c1.1,0,2-0.9,2-2V7.2C26.7,5,24.9,3.2,22.7,3.2z M18.4,9.2
	c0-0.6-0.4-1-1-1H10c-0.6,0-1,0.4-1,1c0,0.6,0.4,1,1,1h7.3C17.9,10.2,18.4,9.7,18.4,9.2z M21,13.2c0-0.6-0.4-1-1-1H10
	c-0.6,0-1,0.4-1,1c0,0.6,0.4,1,1,1h10C20.6,14.2,21,13.7,21,13.2z"/>
<path class="st1" d="M1.3,7.5c0,0.6,0.4,1,1,1h3V5.2c0-1.2-0.8-2-2-2c-1.2,0-2,0.8-2,2V7.5z"/>
<path class="st1" d="M15.3,19.3c0-0.8,0.6-1.5,1.4-1.7c0.8-0.2,1.7-0.5,2.5-0.9c1.6-0.8,3.1-1.9,3.9-1.9s2.3,1.2,3.9,1.9
	c0.8,0.4,1.7,0.7,2.5,0.9c0.8,0.2,1.4,0.9,1.4,1.7V20c0,5.3-2.4,12.5-7.7,12.5c-5.3,0-7.8-7.2-7.8-12.5V19.3z"/>
<path class="st2" d="M27.4,22c0.4-0.4,0.4-1,0-1.4c-0.4-0.4-1-0.4-1.4,0L27.4,22z M20.2,23.2c-0.4-0.4-1-0.4-1.4,0
	c-0.4,0.4-0.4,1,0,1.4L20.2,23.2z M22.1,26.1l0.7,0.7L22.1,26.1z M25.9,20.6l-4.6,4.8l1.5,1.4l4.6-4.8L25.9,20.6z M22.4,25.4
	l-2.2-2.2l-1.4,1.4l2.2,2.2L22.4,25.4z M21.4,25.4c0.3-0.3,0.8-0.3,1.1,0L21,26.8c0.5,0.5,1.3,0.5,1.8,0L21.4,25.4z"/>
</svg>
