<svg xmlns="http://www.w3.org/2000/svg" x="0px" y="0px"
	 viewBox="0 0 926 602.9" style="enable-background:new 0 0 926 602.9;" xml:space="preserve">
<style type="text/css">
	.st0{fill-rule:evenodd;clip-rule:evenodd;fill:#FFFFFF;}
	.st1{opacity:0.3;enable-background:new    ;}
	.st2{fill:none;stroke:#FFFFFF;stroke-width:8;stroke-linejoin:round;}
	.st3{fill:none;stroke:#FFFFFF;stroke-width:8;stroke-linejoin:round;stroke-dasharray:23.4176,10.7331;}
	.st4{fill:none;stroke:#FFFFFF;stroke-width:8;stroke-linejoin:round;stroke-dasharray:23.9653,10.9841;}
	.st5{fill:none;stroke:#FFFFFF;stroke-width:8;stroke-linejoin:round;stroke-dasharray:23.4921,10.7672;}
</style>
<g>
	<path class="st0" d="M35.7,2.5c0-1.6-1.4-2.9-3-2.9H19.3C8.6-0.4-0.1,7.9-0.1,18.1v12.8c0,1.6,1.4,2.9,3,2.9c1.7,0,3-1.3,3-2.9
		V18.1c0-7,6-12.7,13.3-12.7h13.4C34.4,5.4,35.7,4.1,35.7,2.5z"/>
	<path class="st0" d="M32.7,597.1H19.3c-7.4,0-13.3-5.7-13.3-12.7v-12.8c0-1.6-1.4-2.9-3-2.9c-1.7,0-3,1.3-3,2.9v12.8
		c0,10.2,8.7,18.5,19.4,18.5h13.4c1.7,0,3-1.3,3-2.9S34.4,597.1,32.7,597.1z"/>
	<path class="st0" d="M919.9,571.7v12.7c0,7-6,12.7-13.3,12.7h-13.4c-1.7,0-3,1.3-3,2.9c0,1.6,1.4,2.9,3,2.9h13.4
		c10.7,0,19.4-8.3,19.4-18.5v-12.8c0-1.6-1.4-2.9-3-2.9S919.9,570.1,919.9,571.7z"/>
	<path class="st0" d="M893.2,5.4h13.4c7.3,0,13.3,5.7,13.3,12.7v12.8c0,1.6,1.4,2.9,3,2.9c1.7,0,3-1.3,3-2.9V18.1
		c0-10.2-8.7-18.5-19.4-18.5h-13.4c-1.7,0-3,1.3-3,2.9S891.5,5.4,893.2,5.4z"/>
</g>
<g class="st1">
	<g>
		<path class="st2" d="M826.6,596.6c-2.5-3.1-5.1-6.2-7.7-9.2"/>
		<path class="st3" d="M811.9,579.3c-44.4-49.1-100.3-87.6-163.4-111.2"/>
		<path class="st2" d="M643.4,466.2c-3.8-1.4-7.5-2.7-11.3-3.9c3-2.6,6-5.3,8.9-8"/>
		<path class="st4" d="M648.9,446.6c45.6-46.7,73.6-110.9,73.6-182.5c0-140.4-114.6-257.4-257.4-257.4
			C323.3,6.3,208.1,120.9,207.7,262.6c0,0.5,0,0.9,0,1.4c0,72.8,29.9,139,78.1,186.3"/>
		<path class="st2" d="M289.8,454.1c2.9,2.7,5.9,5.4,8.9,8c-3.8,1.2-7.6,2.5-11.4,3.9"/>
		<path class="st5" d="M277.3,469.7c-63,24.4-118.6,63.7-162.5,113.6"/>
		<path class="st2" d="M111.2,587.4c-2.6,3-5.2,6.1-7.7,9.2"/>
	</g>
</g>
</svg>
