<svg xmlns="http://www.w3.org/2000/svg" x="0px" y="0px"
	 viewBox="0 0 11 11" style="enable-background:new 0 0 11 11;" xml:space="preserve">
<style type="text/css">
	.st0{fill:#0050F9;}
</style>
<path class="st0" d="M9.4,1.6C8.4,0.6,7,0,5.5,0S2.7,0.6,1.6,1.6C0.6,2.6,0,4,0,5.5s0.6,2.8,1.6,3.9C2.6,10.5,4,11,5.5,11
	s2.8-0.6,3.9-1.6c1-1,1.6-2.4,1.6-3.9S10.4,2.6,9.4,1.6z M3.8,3.5c0-0.9,0.8-1.7,1.7-1.7c0.9,0,1.7,0.8,1.7,1.7c0,1-0.8,1.7-1.7,1.7
	C4.6,5.2,3.8,4.4,3.8,3.5C3.8,3.5,3.8,3.5,3.8,3.5z M8.7,8.6c0,0.3-0.3,0.6-0.6,0.6H2.8c0,0,0,0,0,0c-0.3,0-0.6-0.3-0.6-0.6
	c0-1.6,1.3-3,3-3h0.5C7.4,5.6,8.7,7,8.7,8.6C8.7,8.6,8.7,8.6,8.7,8.6z"/>
</svg>
