<svg fill="none" height="48" viewBox="0 0 48 48" width="48" xmlns="http://www.w3.org/2000/svg" data-element="Orders"><path d="M45 0H12v48h33z" fill="#bfe9ff"></path><path d="M48 21H9v6h39z" fill="#56b4fc"></path><path d="M45 21H12v6h33z" fill="#1652f0"></path><path d="M42 16.5H15V18h27z" fill="#fff"></path><path d="M42 23.25H15v1.5h27z" fill="#56b4fc"></path><g fill="#fff"><path d="M42 12H15v1.5h27zM42 3H15v1.5h27zM42 7.5H15V9h27zM42 30H15v1.5h27zM42 34.5H15V36h27zM42 43.5H15V45h27zM42 39H15v1.5h27z"></path></g><path d="M0 30V18l6 6z" fill="#1652f0"></path></svg>