<svg width="60" height="56" xmlns="http://www.w3.org/2000/svg"  x="0px" y="0px" viewBox="0 0 71.1 56.7"  xml:space="preserve">
<style type="text/css">
    .st0 {
        fill: #56B4FC
    }

    .st1 {
        fill: #FFFFFF;
    }

    .st2 {
        fill: #1652F0;
    }

    .st3 {
        fill: #BFE9FF;
    }
</style>
                        <path class="st0" d="M68.5,24.2H58.1c-4.1,0-7.5,3.4-7.5,7.5s3.4,7.5,7.5,7.5h10.4l0,0c1.4,0,2.5-1.1,2.5-2.5v-9.9
	C71.1,25.3,69.9,24.2,68.5,24.2L68.5,24.2z"></path>
                        <circle class="st1" cx="58.3" cy="31.7" r="2.8"></circle>
                        <path class="st0" d="M10.8,35.1C4.8,35.1,0,39.9,0,45.9s4.8,10.8,10.8,10.8s10.8-4.8,10.8-10.8C21.6,39.9,16.7,35.1,10.8,35.1z"></path>
                        <path class="st1" d="M17.8,46.1c0,0.9-0.7,1.6-1.6,1.6h-3.7v3.7c0,0.9-0.7,1.6-1.6,1.6h-0.4c-0.9,0-1.6-0.7-1.6-1.6v-3.7H5.3
	c-0.9,0-1.6-0.7-1.6-1.6v-0.4c0-0.9,0.7-1.6,1.6-1.6h3.7v-3.7c0-0.9,0.7-1.6,1.6-1.6H11c0.9,0,1.6,0.7,1.6,1.6v3.7h3.7
	c0.9,0,1.6,0.7,1.6,1.6L17.8,46.1L17.8,46.1z"></path>
                        <path class="st2" d="M58.1,41.3c-5.3,0-9.7-4.3-9.7-9.7l0,0c0-5.3,4.3-9.7,9.7-9.7h9.9v-2.4c0-4.2-3.3-7.6-7.4-7.9
	c-0.2,0-0.4,0-0.6,0H10.5c-1.6-0.2-2.8-1.6-2.8-3.2c0-1.8,1.4-3.2,3.2-3.2H58c-1.1-3-4-5.2-7.5-5.2H10.4c-4.4,0-8,3.6-8,7.9V36
	c2.2-1.9,5.1-3,8.3-3c7.1,0,12.9,5.8,12.9,12.9c0,3.2-1.1,6.1-3,8.3h39.5c4.4,0,7.9-3.6,7.9-7.9v-4.9H58.1z"></path>
                        <path class="st3" d="M59.3,9.1H11.4c-0.3,0-0.6-0.3-0.6-0.6v0c0-0.3,0.3-0.6,0.6-0.6h46.9C58.8,8,59.3,8.4,59.3,9.1L59.3,9.1z"></path>
</svg>