<svg xmlns="http://www.w3.org/2000/svg" x="0px" y="0px"
	 viewBox="0 0 768 439" style="enable-background:new 0 0 768 439;" xml:space="preserve">
<style type="text/css">
	.st0{fill:#0062FF;}
	.st1{fill:none;stroke:#000000;stroke-width:1.5;stroke-miterlimit:10;}
	.st2{fill:#FFD200;}
	.st3{fill:#FFFFFF;}
	.st4{fill:#F46C3D;}
	.st5{fill:#B8C9C8;}
	.st6{font-family:'Arial-BoldMT';}
	.st7{font-size:29.8695px;}
	.st8{fill:#F36C3D;}
	.st9{fill:#2BBF7F;}
</style>
<rect class="st0" width="768" height="439"/>
<g>
	<rect x="36.2" y="120.5" class="st1" width="694.2" height="199.7"/>
	<rect x="49.1" y="133.4" class="st1" width="668.7" height="173.8"/>
	<rect x="62" y="146.4" class="st1" width="643.2" height="147.9"/>
	<rect x="74.9" y="159.3" class="st1" width="617.7" height="122"/>
	<rect x="87.8" y="172.2" class="st1" width="592.1" height="96.1"/>
</g>
<polygon points="400.8,105.2 142.2,105.2 142.2,363.5 400.8,363.5 659.4,363.5 659.4,105.2 "/>
<rect x="125.4" y="90.9" width="258.6" height="258.3"/>
<circle cx="254.9" cy="232.6" r="83.8"/>
<circle class="st2" cx="254.9" cy="218.6" r="83.8"/>
<path class="st0" d="M254.9,134.8c-7.6,0-14.9,1-21.9,2.9c9.1,15.8,42.1,68.1,99.3,99.2c1.3,0.7,2.6,1.4,3.8,2
	c1.6-6.5,2.5-13.3,2.5-20.3C338.7,172.3,301.2,134.8,254.9,134.8z"/>
<circle cx="254.9" cy="218.6" r="64.7"/>
<circle class="st2" cx="254.9" cy="228.3" r="64.7"/>
<path class="st0" d="M254.9,163.6c-1.6,0-3.1,0.1-4.7,0.2c14.8,19.9,37.9,45.6,69.4,65.6c0-0.4,0-0.7,0-1.1
	C319.7,192.6,290.7,163.6,254.9,163.6z"/>
<polygon class="st3" points="269.6,226.6 295.5,218.8 268.1,210.6 282.9,189.7 262.5,203.6 254.9,178.2 247.1,204.1 226.6,189.6 
	241,210.8 214.3,218.8 240.2,226.6 226.5,245.9 246.7,232.1 254.9,259.4 263.1,232 282.8,246 "/>
<path class="st4" d="M221.6,90.9c0,0,12.8,61.1,113.5,128.6l-16.4,129.7H384V90.9H221.6z"/>
<path d="M272.5,90.3c0,0,5.6,91.4,77.8,129.2l-14,129.7h7.6l10-130.2c0,0-65.4-43.2-63.4-128.8H272.5z"/>
<path d="M323.9,90.3c0,0-7.2,91.1,41.7,129.5l-8,129.5h8l4.8-129.5c0,0-46.9-61.5-28.5-129.5H323.9z"/>
<path class="st3" d="M383.6,233.3h-50.3c-3.9,0-7.1-3.2-7.1-7.1v0c0-3.7,3-6.7,6.7-6.7h50.6c0.2,0,0.4,0.2,0.4,0.4v13
	C384,233.2,383.8,233.3,383.6,233.3z"/>
<path class="st5" d="M326.2,226.4c0.1,3.8,3.2,6.9,7.1,6.9h50.3c0.2,0,0.4-0.2,0.4-0.4v-6.5H326.2z"/>
<polygon points="383.6,233.1 333.3,233.3 332.4,240.8 383.6,240.8 "/>
<rect x="384" y="90.9" class="st3" width="258.6" height="258.3"/>
<g>
	<text transform="matrix(1 0 0 1 411.1162 139.0895)" class="st0 st6 st7">Expert Tips:</text>
</g>
<g>
	<text transform="matrix(1 0 0 1 411.1158 174.9793)"><tspan x="0" y="0" class="st6 st7">A former</tspan><tspan x="0" y="35.8" class="st6 st7">private eauity</tspan><tspan x="0" y="71.7" class="st6 st7">manager who</tspan><tspan x="0" y="107.5" class="st6 st7">now funds</tspan><tspan x="0" y="143.4" class="st6 st7">DeFi tech</tspan></text>
</g>
<circle class="st3" cx="69.4" cy="120.5" r="3.2"/>
<circle class="st3" cx="87.8" cy="194.3" r="3.2"/>
<circle class="st3" cx="61.7" cy="251.8" r="3.2"/>
<circle class="st3" cx="698.4" cy="120.5" r="3.2"/>
<circle class="st3" cx="680" cy="194" r="3.2"/>
<circle class="st3" cx="705.8" cy="252.6" r="3.2"/>
<circle class="st8" cx="695.2" cy="307.5" r="3.2"/>
<circle class="st9" cx="730.4" cy="286.5" r="3.2"/>
<circle class="st9" cx="676.8" cy="147.1" r="3.2"/>
<circle class="st8" cx="692" cy="218.8" r="3.2"/>
<circle class="st2" cx="676.8" cy="281.6" r="3.2"/>
<circle class="st2" cx="718.3" cy="188.1" r="3.2"/>
<circle class="st9" cx="36.2" cy="286.5" r="3.2"/>
<circle class="st9" cx="91.1" cy="146.5" r="3.2"/>
<circle class="st2" cx="49.4" cy="187.8" r="3.2"/>
<circle class="st2" cx="90.8" cy="281.3" r="3.2"/>
<circle class="st8" cx="72.7" cy="307" r="3.2"/>
<circle class="st8" cx="74.9" cy="218.6" r="3.2"/>
</svg>
