<svg xmlns="http://www.w3.org/2000/svg" xmlns:xlink="http://www.w3.org/1999/xlink" x="0px" y="0px"
	 viewBox="0 0 666.7 666.7" style="enable-background:new 0 0 666.7 666.7;" xml:space="preserve">
<style type="text/css">
	.st0{fill:#0052FF;}
</style>
<path class="st0" d="M666.7,333.3c0,184.1-149.2,333.3-333.3,333.3C149.2,666.7,0,517.4,0,333.3C0,149.2,149.2,0,333.3,0
	S666.7,149.2,666.7,333.3L666.7,333.3z M161,516.4h156.5V375.1l-29.3,46.3c-4.9,7.8-15.2,10.1-23,5.2c-7.8-4.9-10.1-15.2-5.2-23
	l41.7-66l-54.8,22.7c-9.9,5.7-22.5,2.2-28.2-7.7c-2.2-3.9-3.1-8.4-2.6-12.8v-64.1c-1.5-11.3,6.5-21.7,17.9-23.2
	c4.5-0.6,9,0.3,12.9,2.6l70.6,29.3V143.5H161c-7.4,0-13.3,6-13.3,13.3v346.2C147.6,510.4,153.6,516.4,161,516.4z M520.5,156.8
	c0-7.4-6-13.3-13.3-13.3l0,0H350.7v141.1l70.6-29.3c9.9-5.7,22.5-2.2,28.2,7.7c2.2,3.9,3.1,8.4,2.5,12.9v64.1
	c1.4,11.3-6.6,21.7-17.9,23.1c-4.4,0.6-8.9-0.3-12.8-2.5l-54.8-22.8l41.7,66c4.9,7.8,2.6,18.1-5.2,23c-7.8,4.9-18.1,2.6-23-5.2
	l-29.3-46.3v141.3h156.5c7.4,0,13.3-6,13.3-13.3v0V156.8z"/>
</svg>
