<svg width="94" height="111" viewBox="0 0 94 111" fill="none" xmlns="http://www.w3.org/2000/svg">
<path d="M48.6956 111C54.862 111 59.8609 110.789 59.8609 110.529C59.8609 110.269 54.862 110.058 48.6956 110.058C42.5291 110.058 37.5302 110.269 37.5302 110.529C37.5302 110.789 42.5291 111 48.6956 111Z" fill="#E7EFF7"/>
<path d="M82.8347 111C89.0012 111 94 110.789 94 110.529C94 110.269 89.0012 110.058 82.8347 110.058C76.6683 110.058 71.6694 110.269 71.6694 110.529C71.6694 110.789 76.6683 111 82.8347 111Z" fill="#E7EFF7"/>
<path opacity="0.2" d="M81.1517 29.1822C81.024 29.1822 80.9008 29.2051 80.7822 29.2371C81.3295 31.2989 82.4196 33.2966 82.4744 35.4087C82.52 37.0682 81.7628 38.6134 81.0878 40.1449C81.1106 40.1449 81.1334 40.1495 81.1517 40.1495C82.6613 40.1495 83.8882 37.6945 83.8882 34.6635C83.8882 31.6372 82.6659 29.1822 81.1517 29.1822Z" fill="#278BD6"/>
<path opacity="0.2" d="M47.7696 42.6455C47.2223 41.114 47.3819 39.5048 47.5507 38.9653C47.911 37.8361 47.8563 36.5607 47.8517 35.3995C47.8471 33.8726 47.7149 32.9217 48.6955 32.0897C48.4538 31.9754 48.2074 31.9205 47.9566 31.9342C46.4469 32.0348 45.3842 34.5629 45.5804 37.5847C45.74 39.9939 46.6476 41.978 47.7696 42.6455Z" fill="#278BD6"/>
<path d="M51.9065 53.3111C52.057 53.1831 52.2577 52.9956 52.4356 52.8219C52.6226 52.6528 52.7959 52.4562 52.9783 52.2733C53.3295 51.8893 53.6762 51.5007 54.0091 51.0938C54.6887 50.2938 55.2999 49.4298 55.8882 48.552C57.0832 46.8011 58.0638 44.8993 58.9852 42.9701L59.642 41.5027C59.8518 41.0089 60.0296 40.5015 60.2303 40.0032C60.6362 39.0066 60.9464 37.978 61.3021 36.9585C61.6442 35.9345 61.8951 34.883 62.2098 33.8498L62.976 30.6908L62.9806 30.6726C63.0399 30.4257 63.2862 30.2748 63.5325 30.3388C63.7605 30.3937 63.9065 30.6177 63.8745 30.8463C63.7195 31.9343 63.5553 33.0269 63.3774 34.115L63.0353 35.7379C62.9122 36.2773 62.8209 36.8213 62.6659 37.3562C62.374 38.4214 62.1186 39.5049 61.74 40.5472C61.5621 41.0729 61.3934 41.6032 61.2018 42.1244L60.5906 43.6787C59.7468 45.7405 58.7115 47.7337 57.5028 49.6264C56.8734 50.559 56.2212 51.4779 55.4823 52.3419C55.1265 52.7808 54.7298 53.1922 54.333 53.6037C54.1231 53.8048 53.9316 54.0105 53.7081 54.2025C53.4892 54.4037 53.2839 54.5774 53.0057 54.7877C52.6043 55.094 52.0342 55.0117 51.7286 54.6094C51.4367 54.2208 51.5006 53.6722 51.8654 53.3614L51.9065 53.3111Z" fill="#2E3547"/>
<path d="M76.9464 50.0196C75.2132 48.9498 73.7081 47.7201 72.2485 46.3806C70.821 45.0182 69.4755 43.5645 68.2942 41.9736C67.0992 40.3964 66.0866 38.6729 65.2611 36.8717C64.4219 35.0705 63.9065 33.1321 63.5827 31.1892C63.5416 30.9423 63.7104 30.7046 63.9567 30.6634C64.1847 30.6269 64.4036 30.764 64.4675 30.9789L64.4766 31.0155L64.8871 32.3686C64.9555 32.5926 65.0148 32.8212 65.0923 33.0407L65.3615 33.6944C65.5485 34.1241 65.6944 34.5676 65.8997 34.9927L66.5336 36.2454C67.4504 37.8774 68.4493 39.4638 69.667 40.8947C70.8757 42.3256 72.1528 43.7062 73.553 44.9588C74.2463 45.5943 74.9532 46.2114 75.6875 46.792C76.4082 47.3818 77.179 47.9578 77.9087 48.4652L77.9452 48.4927C78.3557 48.7807 78.4606 49.3521 78.1687 49.7636C77.8951 50.1659 77.3523 50.271 76.9464 50.0196Z" fill="#2E3547"/>
<path d="M47.8107 55.6837C47.4322 57.8323 46.9395 59.917 46.3922 62.0062C45.8449 64.0908 45.1973 66.1481 44.5268 68.1961C43.8244 70.2351 43.0445 72.2511 42.1916 74.2352C41.3204 76.2101 40.3489 78.1485 39.2451 80.0046C39.1174 80.224 38.8347 80.2926 38.6203 80.1646C38.4242 80.0457 38.3466 79.8034 38.4287 79.5977L38.4378 79.5794C38.8392 78.5919 39.2953 77.641 39.6602 76.6444C40.0707 75.6707 40.431 74.6695 40.7959 73.6775C41.5029 71.6797 42.187 69.6728 42.7845 67.6384C43.4139 65.6132 43.9658 63.5651 44.5085 61.5125C44.7822 60.4884 45.0376 59.4598 45.2885 58.4266C45.553 57.4026 45.7856 56.3603 46.0228 55.3454L46.0274 55.3271C46.1414 54.8334 46.634 54.5316 47.122 54.6459C47.5918 54.7465 47.8928 55.2082 47.8107 55.6837Z" fill="#2E3547"/>
<path d="M84.8004 34.6681C84.8004 35.8659 84.6545 37.0728 84.2303 38.2568C84.0068 38.842 83.7149 39.4271 83.2634 39.9712C83.0445 40.2409 82.7526 40.5015 82.4105 40.7118C82.0547 40.9221 81.6123 41.0592 81.1516 41.0683C80.691 41.0546 80.2531 40.9083 79.9065 40.6935C79.569 40.474 79.2862 40.2135 79.0718 39.9437C78.634 39.3951 78.3603 38.81 78.1505 38.2248C77.7446 37.0499 77.6214 35.8522 77.6397 34.6681C77.6716 33.4841 77.8495 32.3 78.2873 31.1617C78.5063 30.5903 78.7845 30.0279 79.2132 29.5159C79.423 29.2599 79.6921 29.0176 80.0068 28.821C80.3307 28.629 80.732 28.5056 81.1471 28.4965C81.5621 28.5056 81.9589 28.6245 82.2873 28.821C82.602 29.0176 82.8803 29.2508 83.0946 29.5068C83.5371 30.0142 83.8426 30.5674 84.0798 31.1388C84.317 31.7057 84.4903 32.2909 84.6089 32.8806C84.7229 33.4704 84.7822 34.0692 84.8004 34.6681ZM82.976 34.6681C82.9989 33.6532 82.8985 32.6246 82.6157 31.6829C82.4698 31.2166 82.2691 30.7685 82.0091 30.4211C81.8768 30.2428 81.7309 30.1102 81.5849 30.0097C81.4344 29.9182 81.293 29.8817 81.1516 29.8679C81.0103 29.8817 80.8689 29.9182 80.7183 30.0097C80.5724 30.1102 80.4173 30.2382 80.2805 30.412C80.0023 30.7503 79.7833 31.1937 79.6146 31.6554C79.2816 32.5972 79.1722 33.6395 79.1859 34.6681C79.2178 35.6967 79.3911 36.7253 79.7514 37.6305C79.9247 38.0785 80.1574 38.4991 80.4219 38.8054C80.5542 38.9654 80.6956 39.0706 80.8233 39.1483C80.951 39.2168 81.0559 39.2306 81.1471 39.2397C81.2429 39.226 81.3386 39.2031 81.4618 39.13C81.5804 39.0431 81.7172 38.938 81.8404 38.778C82.0912 38.4671 82.3056 38.0465 82.4652 37.5985C82.8119 36.7025 82.9624 35.683 82.976 34.6681Z" fill="#2E3547"/>
<path d="M51.9566 37.1734C52.0342 38.3665 51.9703 39.5826 51.6191 40.7895C51.4321 41.3884 51.1813 41.9918 50.7662 42.5633C50.5655 42.8513 50.2919 43.1256 49.9635 43.3587C49.6214 43.5919 49.1881 43.7564 48.732 43.793C48.2713 43.8067 47.8243 43.6924 47.464 43.5004C47.1128 43.3039 46.8164 43.0661 46.5837 42.8056C46.1094 42.289 45.7992 41.7221 45.5529 41.1506C45.0695 40.0032 44.8688 38.8146 44.8095 37.6351C44.7639 36.4511 44.8688 35.2579 45.2291 34.0921C45.407 33.5115 45.6533 32.9309 46.0455 32.3869C46.2371 32.1172 46.4925 31.8612 46.7935 31.6417C47.1082 31.4269 47.4959 31.2806 47.911 31.244C48.3261 31.2257 48.732 31.3217 49.0695 31.4909C49.3979 31.6646 49.6898 31.8795 49.9179 32.1218C50.3922 32.5972 50.7343 33.1321 51.0034 33.6852C51.2771 34.2384 51.4914 34.8098 51.6465 35.3904C51.797 35.9847 51.8928 36.5791 51.9566 37.1734ZM50.1368 37.2922C50.0912 36.2773 49.9315 35.2579 49.5849 34.3344C49.407 33.8772 49.179 33.4429 48.8962 33.1138C48.7548 32.9446 48.5951 32.8258 48.4446 32.7298C48.2896 32.6475 48.1436 32.6246 48.0068 32.6155C47.87 32.6383 47.7285 32.6841 47.5872 32.7846C47.4458 32.8944 47.2998 33.0315 47.1767 33.2144C46.9213 33.5709 46.7297 34.0235 46.5929 34.499C46.3237 35.459 46.2781 36.5105 46.3602 37.5345C46.4606 38.5586 46.6978 39.5734 47.1174 40.4512C47.3226 40.8901 47.5781 41.2924 47.8654 41.5804C48.0068 41.7312 48.1573 41.8272 48.285 41.9004C48.4173 41.9598 48.5222 41.969 48.6134 41.969C48.7046 41.9461 48.805 41.9232 48.919 41.841C49.033 41.7495 49.1607 41.6352 49.2747 41.4615C49.5074 41.1369 49.6898 40.7026 49.8221 40.2455C50.1003 39.3357 50.187 38.3025 50.1368 37.2922Z" fill="#2E3547"/>
<path d="M67.4184 35.6511H61.033C60.5313 35.6511 60.1208 35.2396 60.1208 34.7368V20.1077C60.1208 19.6048 60.5313 19.1933 61.033 19.1933H67.4184C67.9201 19.1933 68.3306 19.6048 68.3306 20.1077V34.7368C68.3306 35.2396 67.9247 35.6511 67.4184 35.6511Z" fill="#4E5C75"/>
<path d="M60.1208 20.1083V34.7374C60.1208 35.2403 60.5313 35.6517 61.033 35.6517H66.716C66.0729 34.3214 65.4298 33.0916 65.3796 31.4367C65.3477 30.3807 65.8494 29.3064 65.2884 28.3326C64.6499 27.2217 63.464 27.3406 63.7103 25.7131C63.9338 24.2502 64.6134 23.8113 63.7559 22.3301C63.2496 21.4569 62.4423 20.8261 61.9041 19.9849C61.7217 19.7014 61.5986 19.4409 61.5119 19.1986H61.0284C60.5313 19.194 60.1208 19.6009 60.1208 20.1083Z" fill="#2E3547"/>
<path d="M67.0125 20.9533H61.5393V33.7538H67.0125V20.9533Z" fill="#A0C2EC"/>
<path opacity="0.3" d="M61.5393 33.7538H65.8585C65.594 33.0452 65.4024 32.3 65.3796 31.4314C65.3477 30.3754 65.8494 29.3011 65.2884 28.3273C64.6499 27.2164 63.464 27.3353 63.7103 25.7078C63.9338 24.2449 64.6134 23.806 63.7559 22.3248C63.4594 21.8174 63.0626 21.3876 62.6749 20.9533H61.5347V33.7538H61.5393Z" fill="#278BD6"/>
<path d="M63.6373 13.2227C65.6525 13.2227 67.2861 11.5853 67.2861 9.56545C67.2861 7.54559 65.6525 5.90817 63.6373 5.90817C61.6222 5.90817 59.9885 7.54559 59.9885 9.56545C59.9885 11.5853 61.6222 13.2227 63.6373 13.2227Z" fill="#FCD381"/>
<path opacity="0.35" d="M69.6533 4.68758L68.13 5.5699C67.9019 5.70247 67.6146 5.62476 67.4868 5.39618C67.4002 5.24532 67.4048 5.06245 67.4868 4.92073L68.3671 3.39382C68.6271 2.94123 69.2064 2.7858 69.6579 3.04638C70.1094 3.30696 70.2645 3.88755 70.0045 4.34014C69.9133 4.48643 69.7902 4.60529 69.6533 4.68758Z" fill="#FCD381"/>
<path opacity="0.35" d="M64.4492 1.70236L63.9931 3.40756C63.9247 3.659 63.6647 3.80986 63.4139 3.74129C63.2451 3.69557 63.122 3.56299 63.0809 3.40756L62.6248 1.70236C62.488 1.19948 62.789 0.678318 63.2907 0.54117C63.7925 0.404023 64.3124 0.705749 64.4492 1.20862C64.4948 1.37777 64.4903 1.55149 64.4492 1.70236Z" fill="#FCD381"/>
<path opacity="0.35" d="M58.7708 3.53551L59.6511 5.06242C59.7833 5.291 59.7058 5.57901 59.4777 5.70702C59.3272 5.79388 59.1448 5.7893 59.0034 5.70702L57.48 4.8247C57.0284 4.56412 56.8734 3.98352 57.1334 3.53094C57.3934 3.07835 57.9726 2.92292 58.4241 3.1835C58.5747 3.27493 58.6932 3.39836 58.7708 3.53551Z" fill="#FCD381"/>
<path opacity="0.3" d="M61.4891 12.5141C62.0912 12.9575 62.8346 13.2227 63.6374 13.2227C65.6533 13.2227 67.2862 11.5861 67.2862 9.56543C67.2862 8.34939 66.6932 7.27963 65.7856 6.61218C65.6305 6.7859 65.4572 6.95505 65.2611 7.11963C64.4766 7.75965 63.6921 8.23967 63.6374 9.38714C63.5872 10.4843 63.8426 10.7038 62.9487 11.5815C62.5336 11.9838 61.9817 12.2215 61.4891 12.5141Z" fill="#FCD381"/>
<path d="M84.2988 51.3636C84.5633 51.5648 84.7275 51.7202 84.9191 51.8985C85.1015 52.0768 85.2657 52.2596 85.439 52.4379C85.7629 52.8082 86.0776 53.1831 86.3604 53.5763C86.6568 53.9648 86.8986 54.3763 87.1722 54.7786C87.4094 55.1946 87.6603 55.606 87.8883 56.0266C88.7731 57.7227 89.4573 59.501 89.9727 61.3114C90.5063 63.1217 90.8712 64.9595 91.1494 66.811C91.2589 67.739 91.3683 68.6625 91.4596 69.5905C91.5052 70.5186 91.5645 71.4466 91.5964 72.3746C91.6055 72.6261 91.4094 72.8409 91.1585 72.8501C90.9259 72.8592 90.7298 72.6946 90.6933 72.4706L90.6887 72.4478C90.5337 71.5426 90.4014 70.642 90.26 69.7414L89.7401 67.0624L89.4162 65.7412C89.3113 65.3024 89.2201 64.8589 89.0879 64.4246C88.8416 63.556 88.6044 62.6874 88.2942 61.8463C88.016 60.9914 87.6739 60.1685 87.3455 59.3365L86.7937 58.1204C86.5975 57.7227 86.3832 57.3341 86.187 56.9409C85.9818 56.5524 85.7537 56.1775 85.5348 55.7935C85.2885 55.4323 85.0696 55.0529 84.8096 54.7054L84.4265 54.1797L84.0251 53.6768C83.8837 53.5214 83.7469 53.3568 83.6055 53.2105C83.4732 53.0688 83.3045 52.8997 83.2087 52.8174L83.1494 52.7671C82.7709 52.4334 82.7389 51.8573 83.0719 51.4779C83.382 51.1259 83.9202 51.0802 84.2988 51.3636Z" fill="#2E3547"/>
<path d="M47.8244 88.6587C47.8107 89.5548 47.7696 90.4508 47.7468 91.3468L47.6191 94.0304C47.5233 95.8179 47.4048 97.6054 47.2862 99.3929C47.1402 101.18 47.0216 102.968 46.8574 104.751C46.6978 106.538 46.5291 108.321 46.3147 110.104C46.2828 110.356 46.0547 110.534 45.8084 110.506C45.5804 110.479 45.4116 110.287 45.4071 110.063C45.3706 108.266 45.3751 106.474 45.3934 104.682C45.4025 102.89 45.4618 101.098 45.4892 99.306C45.5485 97.5139 45.6077 95.7264 45.6853 93.9344L45.8221 91.2508C45.886 90.3594 45.9316 89.4633 46.0091 88.5719C46.0502 88.069 46.4926 87.6941 46.9988 87.7399C47.4686 87.7764 47.8289 88.1833 47.8244 88.6587Z" fill="#2E3547"/>
<path d="M54.26 88.3293C54.5747 89.2254 54.8164 90.0985 55.0673 90.99C55.2953 91.8815 55.5142 92.7729 55.7104 93.6689C56.1026 95.4656 56.4036 97.2759 56.6545 99.0954C56.878 100.919 57.0604 102.744 57.1288 104.581C57.2201 106.415 57.1881 108.252 57.0786 110.081C57.065 110.332 56.846 110.524 56.5952 110.511C56.3671 110.497 56.1893 110.319 56.1664 110.099V110.081C56.0752 109.18 56.0433 108.28 55.9339 107.384L55.8061 106.04L55.6465 104.7C55.5416 103.809 55.4139 102.917 55.2953 102.026C55.1494 101.139 55.0262 100.252 54.8529 99.3697C54.5656 97.596 54.1961 95.8405 53.8039 94.0895C53.6123 93.2118 53.4025 92.3432 53.1881 91.4746C52.9829 90.606 52.7457 89.7328 52.5177 88.8962L52.5131 88.8733C52.3809 88.3842 52.6682 87.8813 53.1517 87.7487C53.6214 87.6253 54.1003 87.8813 54.26 88.3293Z" fill="#2E3547"/>
<path d="M77.1107 86.0529C76.9693 86.9946 76.837 88.0004 76.7366 88.9878C76.6226 89.9799 76.5314 90.9765 76.4538 91.9731C76.3033 93.9663 76.1665 95.9686 76.1026 97.9756C76.0205 99.9825 75.9749 101.989 75.9658 104.006C75.9384 106.017 75.9658 108.033 75.9521 110.054V110.058C75.9521 110.31 75.7469 110.515 75.4914 110.515C75.2588 110.515 75.0718 110.342 75.0399 110.118C74.9076 109.112 74.7936 108.097 74.6841 107.087C74.6066 106.072 74.5062 105.062 74.4469 104.042C74.3831 103.027 74.3375 102.008 74.3146 100.988C74.2782 99.9688 74.2599 98.9493 74.2645 97.9299C74.2964 95.8909 74.3374 93.8474 74.5062 91.8085C74.675 89.7604 74.8894 87.7535 75.3181 85.6826C75.423 85.1888 75.9065 84.8734 76.3991 84.974C76.8735 85.0745 77.1836 85.5271 77.1152 86.0026L77.1107 86.0529Z" fill="#2E3547"/>
<path d="M85.5576 86.0481C85.4344 86.9533 85.3523 87.9819 85.325 88.9694C85.2748 89.966 85.2794 90.9672 85.2976 91.9683C85.3432 93.9753 85.48 95.9822 85.7126 97.9891C85.9224 99.996 86.2463 101.994 86.6111 103.987C86.7799 104.988 87.0125 105.976 87.2087 106.972L87.8746 109.953L87.8791 109.967C87.9339 110.214 87.7788 110.456 87.5325 110.515C87.3044 110.566 87.0809 110.438 87.0034 110.223C86.6568 109.254 86.3238 108.275 86 107.297C85.7218 106.305 85.4071 105.317 85.1562 104.316C84.8962 103.315 84.659 102.309 84.4629 101.29C84.244 100.279 84.0752 99.2554 83.9065 98.2314C83.6282 96.1742 83.4002 94.1033 83.3546 92.0186C83.3364 90.9763 83.3363 89.9294 83.3956 88.8825C83.4686 87.8265 83.5462 86.8116 83.7696 85.7007C83.87 85.2069 84.3489 84.8869 84.8415 84.9875C85.3158 85.0835 85.626 85.5315 85.5667 86.0024L85.5576 86.0481Z" fill="#2E3547"/>
<path d="M55.61 88.6128H44.5632C44.5632 88.6128 45.6898 47.0753 49.7354 47.0753C53.781 47.0753 55.61 88.6128 55.61 88.6128Z" fill="#4E5C75"/>
<path d="M55.61 89.5271H44.5632C44.3169 89.5271 44.0797 89.4266 43.911 89.2483C43.7376 89.07 43.6465 88.8323 43.651 88.5854C43.6556 88.4803 43.9429 78.0616 44.7228 67.7709C46.2371 47.8251 48.1026 46.1564 49.74 46.1564C51.3683 46.1564 53.2565 47.8251 55.1037 67.7572C56.057 78.0433 56.5222 88.4665 56.5268 88.5717C56.5359 88.8185 56.4447 89.0654 56.2759 89.2437C56.0981 89.4266 55.8609 89.5271 55.61 89.5271ZM45.5028 87.6985H54.6567C53.6031 64.6485 51.3728 49.7177 49.74 48.0628C48.1391 49.7406 46.1687 64.6805 45.5028 87.6985Z" fill="#4E5C75"/>
<path d="M88.3079 85.8699H72.9828C72.9828 85.8699 75.4047 44.3324 80.1619 44.3324C84.919 44.3324 88.3079 85.8699 88.3079 85.8699Z" fill="#A0C2EC"/>
<path d="M88.3079 86.7842H72.9829C72.732 86.7842 72.4903 86.679 72.3169 86.4962C72.1436 86.3133 72.057 86.0664 72.0706 85.815C72.0752 85.7099 72.6909 75.2866 73.8814 64.996C74.5838 58.9341 75.3409 54.0973 76.1436 50.6183C77.3022 45.5713 78.5063 43.4181 80.1619 43.4181C81.8039 43.4181 83.0491 45.5667 84.3261 50.6C85.2064 54.079 86.0821 58.9158 86.9214 64.9777C88.349 75.2684 89.2064 85.6962 89.2156 85.7967C89.2384 86.0527 89.1517 86.3042 88.9784 86.4916C88.8096 86.679 88.5633 86.7842 88.3079 86.7842ZM73.9543 84.9556H87.3136C87.0719 82.1715 86.3102 73.9426 85.1791 65.7C82.5337 46.4216 80.3808 45.3061 80.1437 45.2421C79.943 45.3107 77.8221 46.4719 75.6328 65.7274C74.6978 73.9792 74.1322 82.1989 73.9543 84.9556Z" fill="#A0C2EC"/>
<path opacity="0.3" d="M84.3261 50.5955C83.049 45.5621 81.8039 43.4135 80.1619 43.4135C80.0342 43.4135 79.9111 43.4318 79.7925 43.4546C79.7241 43.7244 79.6192 44.1449 79.5963 44.2912C79.5006 44.8581 79.3501 45.5073 79.4504 46.0879C79.5371 46.6136 79.7742 47.0982 80.0798 47.5325C80.2805 47.8159 80.6454 48.0216 80.8141 48.3142C81.2337 49.0411 81.0604 49.6308 81.0057 50.3852C80.8643 52.4515 80.8825 53.8961 81.5302 55.8802C82.301 58.2529 81.0832 60.3238 80.4493 62.6142C79.87 64.7034 79.911 66.6372 79.9521 68.7813C79.9977 71.2133 79.4367 73.266 78.9076 75.6066C78.1277 79.0536 80.431 82.0434 80.2075 85.495C80.1801 85.9019 80.1528 86.3362 80.1345 86.7796H88.3215C88.577 86.7796 88.8187 86.6745 88.992 86.487C89.1653 86.2996 89.252 86.0482 89.2292 85.7922C89.2201 85.687 88.3626 75.2638 86.935 64.9731C86.0821 58.9112 85.2064 54.0744 84.3261 50.5955Z" fill="#278BD6"/>
<path opacity="0.3" d="M50.7161 85.5864C50.0319 80.4342 51.4367 75.2775 51.1904 70.1116C51.0901 67.9584 50.1824 65.9012 50.3375 63.7434C50.4561 62.0793 50.8392 60.6027 49.8996 59.1123C49.48 58.4495 48.805 57.9466 48.618 57.1466C48.3991 56.2185 48.8552 54.9248 49.0376 53.9922C49.48 51.7521 49.5804 49.4983 50.0639 47.2674C50.1551 46.8376 50.0091 46.4536 49.74 46.161C48.1072 46.161 46.2371 47.8342 44.7274 67.7755C43.9475 78.0616 43.6602 88.4848 43.6556 88.59C43.651 88.8368 43.7423 89.0746 43.9156 89.2528C44.0889 89.4311 44.3215 89.5317 44.5678 89.5317H50.6613C50.7662 89.0791 50.8711 88.6311 50.8939 88.1648C50.9304 87.2962 50.8301 86.4413 50.7161 85.5864Z" fill="#2E3547"/>
<path opacity="0.2" d="M18.8611 37.3974C19.0481 37.3379 19.2397 37.3151 19.4313 37.3288C20.9364 37.4614 21.9444 40.0169 21.6799 43.0341C21.4153 46.0514 19.9832 48.392 18.478 48.2595C18.1816 48.232 17.9079 48.1132 17.657 47.912C18.2773 46.504 19.1257 45.2788 19.3674 43.7062C19.6776 41.6901 19.6274 39.6969 18.9387 37.7768C18.8931 37.6488 18.8703 37.5208 18.8611 37.3974Z" fill="#278BD6"/>
<path d="M10.8246 62.2029C10.1678 61.54 9.64783 60.8817 9.11875 60.1822C8.61248 59.4782 8.13813 58.7559 7.69116 58.0153C6.82001 56.5204 6.08112 54.9523 5.52012 53.3157C4.96368 51.6836 4.51215 50.0058 4.31147 48.2915C4.04693 46.5909 4.06061 44.8582 4.16551 43.1576C4.1792 42.9062 4.39812 42.7141 4.64898 42.7279C4.87703 42.7416 5.05947 42.9244 5.07315 43.1485V43.1759C5.20542 44.8217 5.34681 46.4491 5.7345 48.0355C5.88957 48.8355 6.14042 49.6127 6.35022 50.3944C6.46881 50.783 6.61476 51.1625 6.74703 51.5465C6.87017 51.9305 7.02526 52.3099 7.18489 52.6802C7.48592 53.43 7.82799 54.166 8.17919 54.8975L8.74931 55.9718L9.3605 57.0187C9.77555 57.7136 10.2134 58.3901 10.6832 59.0485C11.1393 59.7022 11.6501 60.3605 12.1336 60.9274L12.1655 60.9685C12.4939 61.3525 12.4483 61.9286 12.0652 62.2577C11.6957 62.564 11.1575 62.5366 10.8246 62.2029Z" fill="#2E3547"/>
<path d="M17.137 42.6364C17.064 43.6467 17.1233 44.6753 17.3879 45.5988C17.5065 46.0605 17.6843 46.4948 17.9078 46.8285C18.0173 47.0022 18.1405 47.1211 18.2545 47.2125C18.3685 47.2948 18.4643 47.3268 18.5601 47.3497C18.6558 47.3497 18.7562 47.3451 18.893 47.2902C19.0253 47.2217 19.1758 47.1302 19.3217 46.9794C19.6136 46.6959 19.8782 46.2982 20.0926 45.8685C20.5304 44.9999 20.7904 43.9896 20.9135 42.9701C21.0184 41.9506 20.9956 40.8992 20.7493 39.93C20.6216 39.45 20.4392 38.9928 20.1975 38.6317C20.0789 38.4442 19.9375 38.3071 19.7961 38.1928C19.6547 38.0876 19.5179 38.0419 19.3765 38.0145C19.2351 38.0191 19.0937 38.0374 18.9341 38.1151C18.779 38.2019 18.6194 38.3208 18.4734 38.4854C18.1815 38.81 17.9443 39.2351 17.7573 39.6877C17.3924 40.6112 17.2054 41.626 17.137 42.6364ZM15.3217 42.4764C15.3947 41.8821 15.5087 41.2923 15.6638 40.7117C15.8326 40.1311 16.0561 39.5688 16.3434 39.0202C16.6308 38.4762 16.9819 37.9459 17.4654 37.4796C17.698 37.2419 17.9945 37.0362 18.3274 36.867C18.6695 36.7025 19.08 36.6156 19.4905 36.643C19.901 36.6887 20.2887 36.8442 20.5988 37.0636C20.8953 37.2876 21.1462 37.5482 21.3332 37.8225C21.7163 38.3711 21.9489 38.9562 22.1131 39.546C22.4506 40.7209 22.5281 41.9141 22.4552 43.0981C22.3685 44.2776 22.145 45.4616 21.6342 46.5954C21.3742 47.1622 21.0504 47.72 20.5669 48.2274C20.3297 48.4834 20.0287 48.7166 19.673 48.904C19.3081 49.0869 18.8565 49.192 18.4004 49.1692C17.9443 49.1235 17.5156 48.9452 17.1781 48.7074C16.8542 48.4651 16.5897 48.1817 16.3936 47.8937C15.9876 47.3131 15.7505 46.7051 15.5772 46.1016C15.2533 44.8856 15.2168 43.6696 15.3217 42.4764Z" fill="#2E3547"/>
<path d="M0.753934 44.0125L7.04355 45.1234C7.5407 45.2103 8.01505 44.8811 8.10171 44.3828L10.6376 29.9777C10.7243 29.4794 10.3959 29.004 9.89874 28.9171L3.6091 27.8062C3.11195 27.7194 2.63763 28.0485 2.55097 28.5468L0.0150533 42.9519C-0.0761668 43.4502 0.256784 43.9257 0.753934 44.0125Z" fill="#4E5C75"/>
<path d="M10.6331 29.9731L8.09716 44.3828C8.0105 44.8811 7.53615 45.2102 7.039 45.1233L1.44263 44.1359C2.30466 42.9381 3.15303 41.8364 3.48598 40.2135C3.70035 39.1803 3.39476 38.0328 4.11084 37.1733C4.93182 36.1905 6.07662 36.515 6.11767 34.8693C6.15416 33.3881 5.55666 32.8395 6.66043 31.5274C7.30809 30.7548 8.21574 30.2748 8.88621 29.5388C9.11426 29.2873 9.27847 29.0588 9.41074 28.8302L9.88964 28.9125C10.3913 29.0039 10.7197 29.4794 10.6331 29.9731Z" fill="#2E3547"/>
<path d="M1.48245 42.2324L6.87244 43.1847L9.08945 30.5788L3.69946 29.6265L1.48245 42.2324Z" fill="#A0C2EC"/>
<path opacity="0.3" d="M6.87026 43.1668L2.61487 42.4125C2.99799 41.7633 3.31728 41.0593 3.49059 40.209C3.70496 39.1758 3.39937 38.0283 4.11544 37.1689C4.93642 36.186 6.08121 36.5106 6.12225 34.8648C6.15874 33.3836 5.56126 32.835 6.66501 31.523C7.04357 31.0704 7.50881 30.7183 7.9649 30.3572L9.08688 30.5538L6.87026 43.1668Z" fill="#278BD6"/>
<path d="M8.27509 23.6232C10.2903 23.6232 11.9239 21.9858 11.9239 19.966C11.9239 17.9461 10.2903 16.3087 8.27509 16.3087C6.25991 16.3087 4.62628 17.9461 4.62628 19.966C4.62628 21.9858 6.25991 23.6232 8.27509 23.6232Z" fill="#FCD381"/>
<path opacity="0.35" d="M5.30583 12.7793L5.76192 14.4845C5.83034 14.736 5.67984 14.9965 5.42899 15.0651C5.26023 15.1108 5.08692 15.056 4.9729 14.9417L3.72776 13.6936C3.35833 13.3233 3.35833 12.7245 3.72776 12.3542C4.09719 11.9839 4.69466 11.9839 5.06409 12.3542C5.18268 12.473 5.26479 12.6239 5.30583 12.7793Z" fill="#FCD381"/>
<path opacity="0.35" d="M11.2808 12.6331L10.4005 14.16C10.2682 14.3886 9.98091 14.4617 9.75742 14.3337C9.6069 14.2468 9.52023 14.0868 9.52023 13.9223V12.1576C9.52023 11.6365 9.94441 11.2113 10.4644 11.2113C10.9843 11.2113 11.4085 11.6365 11.4085 12.1576C11.4085 12.3313 11.3629 12.4959 11.2808 12.6331Z" fill="#FCD381"/>
<path opacity="0.35" d="M15.445 16.9852L13.7438 17.4424C13.4929 17.511 13.2329 17.3601 13.1645 17.1087C13.1189 16.9395 13.1736 16.7658 13.2877 16.6515L14.5328 15.4034C14.9022 15.0331 15.4997 15.0331 15.8691 15.4034C16.2386 15.7737 16.2386 16.3726 15.8691 16.7429C15.746 16.8618 15.5955 16.9441 15.445 16.9852Z" fill="#FCD381"/>
<path opacity="0.3" d="M9.58859 23.3718C8.89075 23.6415 8.10625 23.7055 7.33088 23.4952C5.38332 22.9741 4.22936 20.9671 4.74932 19.0151C5.06403 17.8447 5.9124 16.9578 6.96143 16.551C7.06634 16.7613 7.18949 16.967 7.33544 17.1773C7.92838 18.0002 8.56235 18.6676 8.32061 19.7877C8.088 20.862 7.78242 21.0083 8.42097 22.0826C8.71744 22.5855 9.18722 22.9603 9.58859 23.3718Z" fill="#FCD381"/>
<path d="M19.4312 90.981C19.3583 91.2782 19.2762 91.685 19.2123 92.0462C19.1576 92.4256 19.0937 92.8005 19.0481 93.1845C18.9432 93.948 18.8976 94.7252 18.8383 95.5023C18.7516 97.0612 18.7608 98.6339 18.8292 100.211L18.8976 101.395L19.0071 102.575C19.0664 103.365 19.1804 104.152 19.2716 104.938C19.3719 105.724 19.5225 106.506 19.6319 107.297L20.0652 109.651L20.0698 109.67C20.1154 109.917 19.9512 110.154 19.7049 110.2C19.4723 110.241 19.2488 110.099 19.1849 109.88L18.5054 107.544C18.3092 106.758 18.1086 105.967 17.9398 105.171C17.6068 103.58 17.3195 101.971 17.1644 100.339C16.9911 98.7116 16.8953 97.0658 16.9546 95.4155C16.982 94.588 17.0458 93.7606 17.1599 92.9331C17.21 92.5171 17.283 92.1056 17.3651 91.6896C17.4609 91.2645 17.5384 90.885 17.698 90.4096C17.8577 89.9296 18.3777 89.6735 18.852 89.8381C19.3035 89.9936 19.559 90.4644 19.4449 90.9216L19.4312 90.981Z" fill="#2E3547"/>
<path d="M10.7379 90.7343C10.7744 90.7114 10.7425 90.7389 10.7243 90.7572C10.706 90.7709 10.6832 90.7937 10.6604 90.8257C10.6102 90.8852 10.5646 90.9309 10.5145 91.004L10.3639 91.2006L10.2225 91.4246C10.1222 91.5663 10.0401 91.7355 9.95346 91.8955C9.8668 92.0555 9.78469 92.2246 9.71171 92.3984C9.38788 93.075 9.15983 93.8293 8.9409 94.5836C8.50304 96.1014 8.27955 97.706 8.05606 99.3106C7.98765 100.12 7.88276 100.929 7.84171 101.747L7.77328 102.972C7.74135 103.379 7.72311 103.791 7.71855 104.202C7.70487 105.025 7.66839 105.843 7.67295 106.671L7.66839 109.149V109.158C7.66839 109.409 7.46314 109.615 7.21229 109.615C6.97967 109.615 6.78812 109.441 6.76075 109.213C6.66041 108.385 6.57375 107.553 6.48253 106.721C6.39131 105.889 6.37307 105.053 6.31378 104.216C6.218 102.538 6.24991 100.856 6.32745 99.1643C6.44147 97.4728 6.66498 95.7768 7.08459 94.0853C7.32176 93.2441 7.58172 92.4075 7.97397 91.5892C8.06063 91.3835 8.16553 91.1777 8.28411 90.9812C8.39814 90.78 8.5076 90.5789 8.65356 90.3869L8.85881 90.0943L9.09599 89.8063C9.16896 89.7103 9.27388 89.6143 9.3651 89.5228C9.41071 89.4771 9.46087 89.4268 9.52473 89.3765C9.58402 89.3263 9.62963 89.2851 9.75278 89.2028C10.177 88.9285 10.7425 89.052 11.0162 89.4725C11.2898 89.8931 11.1621 90.46 10.7379 90.7343Z" fill="#2E3547"/>
<path d="M21.1963 64.4246C21.3286 64.3011 21.5065 64.1274 21.657 63.9628C21.8166 63.8028 21.9717 63.6245 22.1268 63.4554C22.4369 63.108 22.7334 62.7468 23.0207 62.3719C23.3126 62.0016 23.5954 61.6268 23.86 61.2336C24.1382 60.8542 24.389 60.4519 24.6399 60.045C25.6524 58.4404 26.4962 56.726 27.2306 54.9614C27.5635 54.0654 27.9329 53.1785 28.1975 52.255C28.3343 51.7933 28.4985 51.3407 28.6125 50.8744L28.9729 49.4755C29.1051 49.0092 29.2009 48.5383 29.2876 48.0629L29.5704 46.6365C29.7391 45.6811 29.8486 44.7165 30.0082 43.7518L30.0128 43.7198C30.0538 43.473 30.291 43.3038 30.5373 43.345C30.7653 43.3815 30.925 43.5827 30.9159 43.8113C30.8839 44.8033 30.852 45.7999 30.7836 46.7965L30.6148 48.2869C30.5601 48.7852 30.5008 49.2835 30.4005 49.7726L30.1313 51.2538C30.0356 51.7476 29.8896 52.2276 29.771 52.7167C29.5475 53.6996 29.2055 54.6459 28.9044 55.6105C28.2066 57.5032 27.3491 59.3455 26.2864 61.0827C26.0173 61.5125 25.7482 61.9422 25.4426 62.3582C25.1553 62.7788 24.8451 63.1857 24.5259 63.588C24.2066 63.9857 23.8645 64.3697 23.5087 64.7492C23.1484 65.1332 22.8018 65.476 22.3457 65.8509C21.958 66.1709 21.3833 66.1161 21.064 65.7229C20.7585 65.348 20.7995 64.804 21.1461 64.4794L21.1963 64.4246Z" fill="#2E3547"/>
<path d="M6.05835 89.6004L21.324 90.9399C21.324 90.9399 24.4027 52.726 17.5065 52.1225C10.6148 51.5145 6.05835 89.6004 6.05835 89.6004Z" fill="#278BD6"/>
<path d="M21.324 91.8542C21.2966 91.8542 21.2693 91.8542 21.2465 91.8496L5.98083 90.5101C5.73453 90.4873 5.50648 90.3684 5.35141 90.1764C5.19633 89.9844 5.12336 89.7375 5.15529 89.4907C5.16441 89.3947 6.32292 79.8218 8.30695 70.4409C12.0424 52.7991 15.3947 51.0162 17.5886 51.2082C19.7915 51.4002 22.7425 53.7408 22.9158 71.7483C23.007 81.3075 22.2453 90.917 22.2362 91.013C22.218 91.2553 22.0994 91.4793 21.9169 91.6393C21.7482 91.7765 21.5384 91.8542 21.324 91.8542ZM7.08004 88.7729L20.4802 89.9478C20.6672 87.3329 21.1598 79.5246 21.0868 71.7575C20.9226 54.6689 18.2408 53.1054 17.4244 53.0322C16.6216 52.9682 13.6433 54.0243 10.0903 70.8157C8.48025 78.4091 7.42212 86.1443 7.08004 88.7729Z" fill="#278BD6"/>
<path opacity="0.3" d="M14.5738 88.8964C15.1576 86.4094 13.771 84.2882 13.9215 81.8333C13.9808 80.8687 14.332 80.0823 14.6695 79.2046C15.3446 77.4445 14.9113 76.6079 14.5053 74.8753C14.0538 72.9415 14.5145 71.9861 15.4221 70.3403C16.7539 67.9219 15.0253 65.1104 16.0789 62.5091C16.4711 61.5354 17.0914 60.6897 17.0367 59.597C16.9774 58.3947 16.0926 57.3844 15.8235 56.2415C15.4723 54.7146 16.1564 53.5123 17.7984 53.5397C17.9216 53.5397 18.3913 53.686 18.7197 53.7683C18.519 53.5077 18.4004 52.8722 18.3457 52.7351C18.1268 52.2094 17.844 51.7065 17.5567 51.2128C17.5658 51.2128 17.5749 51.2128 17.584 51.2128C19.787 51.4048 22.738 53.7454 22.9113 71.7529C23.0025 81.3121 22.2408 90.9216 22.2317 91.0176C22.2135 91.2599 22.0949 91.4839 21.9124 91.6439C21.7482 91.7856 21.5384 91.8588 21.3241 91.8588C21.2967 91.8588 21.2693 91.8588 21.2465 91.8542L14.0127 91.2187C14.1769 90.469 14.3822 89.7193 14.5738 88.8964Z" fill="#064E72"/>
<path d="M14.1653 111C20.3318 111 25.3307 110.789 25.3307 110.529C25.3307 110.269 20.3318 110.058 14.1653 110.058C7.9989 110.058 3 110.269 3 110.529C3 110.789 7.9989 111 14.1653 111Z" fill="#E7EFF7"/>
</svg>
