<svg xmlns="http://www.w3.org/2000/svg" x="0px" y="0px"
	 viewBox="0 0 768 438.2" style="enable-background:new 0 0 768 438.2;" xml:space="preserve">
<style type="text/css">
	.st0{fill:#B8C9C8;}
	.st1{opacity:0.3;fill:#FFFFFF;enable-background:new    ;}
	.st2{fill:#FFD200;}
	.st3{fill:#FFFFFF;}
	.st4{fill:url(#SVGID_1_);}
	.st5{fill:#0062FF;}
	.st6{fill:#909EB0;}
	.st7{fill:#596D7D;}
	.st8{fill:#191D20;}
	.st9{fill:#8E9DB1;}
	.st10{fill:#171B21;}
	.st11{fill:#A9B2BF;}
	.st12{fill:#526777;}
	.st13{fill:#C98600;stroke:#707070;stroke-miterlimit:10;}
	.st14{fill:#181C1F;}
	.st15{fill:#CFD6DF;}
	.st16{fill:#0071F9;stroke:#707070;stroke-miterlimit:10;}
	.st17{fill:#171D23;}
	.st18{fill:#8192A7;}
	.st19{fill:#324258;}
	.st20{fill:none;stroke:#000000;stroke-miterlimit:10;stroke-dasharray:8,8;}
	.st21{fill:none;stroke:#000000;stroke-miterlimit:10;}
	.st22{fill:#334258;}
	.st23{fill:#334457;}
</style>
<rect x="0" y="-0.5" class="st0" width="768" height="438.3"/>
<path class="st1" d="M768,319.1c-50.8-7.1-132.9-13.7-190.5-7.8c-88.8,9-19.3-48.9,11.6-100.8C620,158.6,460.3,100.2,425.6,104
	c-34.8,3.9-118.4,12.9-158.3-6.4S275,66.7,278.8,18c0.6-7.4-2.3-13.5-7.7-18.5H0v75.9c1.8,0.2,3.7,0.3,5.6,0.4
	c112.9,5.1,100.7-32.2,179.3-19.3c78.5,12.9,28.3,32.2,28.3,63.2c0,31.1-41.2,35.9,0,83.4c41.2,47.5,88.8-16.6,162.2-23.9
	s74.7,0.9,99.2,35s-38.7,120.4-38.7,159c0,29.9,74.8,50.2,160.5,64.7H768V319.1z"/>
<path class="st2" d="M715.9,112c-9.6,0-17.4,7.8-17.4,17.4c0-9.6-7.8-17.4-17.4-17.4c9.6,0,17.4-7.8,17.4-17.4
	C698.5,104.2,706.4,112,715.9,112z"/>
<polygon class="st3" points="455.4,55.3 453.2,45.1 451.2,55.3 440.9,57.4 451.2,59.6 453.2,69.8 455.4,59.6 465.6,57.4 "/>
<path class="st2" d="M405.3,318.4c-7.7,0-14,6.3-14,14c0-7.7-6.3-14-14-14c7.7,0,14-6.3,14-14C391.2,312.2,397.6,318.4,405.3,318.4z
	"/>
<path class="st3" d="M309.8,273.8c-3.9,0-7,3.1-7,7c0-3.9-3.1-7-7-7c3.9,0,7-3.1,7-7C302.8,270.6,306,273.8,309.8,273.8z"/>
<linearGradient id="SVGID_1_" gradientUnits="userSpaceOnUse" x1="570.7601" y1="-312.0028" x2="595.46" y2="-312.0028" gradientTransform="matrix(1 0 0 -1 0 -200)">
	<stop  offset="3.026530e-02" style="stop-color:#1B1C23"/>
	<stop  offset="1" style="stop-color:#313B4B"/>
</linearGradient>
<polygon class="st4" points="585.2,110 583,99.7 581,110 570.7,112 581,114.2 583,124.4 585.2,114.2 595.4,112 "/>
<path class="st5" d="M768,185.1c-25.7-2-89.7,4-100.1,110.5c-13.2,133.8-92.5,47.7-135.1,46.8c-71.7-1.5-112.1,32.5-111.8,66.9
	c0.1,10,1.2,19.4,4.5,28.5H768V185.1z"/>
<path class="st6" d="M246.4,339.5c-57.8,42.6-80.8,51.5-136.9,40.4c-56.2-11.1-60.7-116.4-64.2-132.3S39.6,229.6,28,217
	c-7.3-7.9-19.7-5.9-28-3.3v224h264.2c-3.6-12-0.7-26.3,16.2-42.2c50.6-47.6,43.4-55.2,43-61.9C323,327,304.2,296.9,246.4,339.5z"/>
<path class="st5" d="M0,187.1c12.4,0.8,27.5-5.3,40.3-31.1c27.3-54.8-5.1-75.1,19.2-86.7s61.6-4.9,61.6-4.9s71.2,9.2,75.1-58.4
	c0.1-2.3,0-4.4-0.4-6.5H0V187.1z"/>
<path class="st1" d="M768-0.5H594.2c0.8,10.7,5.6,22,11,28c14.1,15.5,40.1,14.4,57.2,9.8c17.2-4.6,25.8-10.8,45.8-11.4
	c20-0.5,28.1,4.6,30.6,15.2S723.5,68.3,748,94c7,7.4,13.9,8.6,20,7.1V-0.5z"/>
<path class="st7" d="M525.1,308.7l50.4,26.5c7.9,5.2,19.4,0.6,23.6-5.3l86.4-121.2c4.2-5.9,4.6-16.8-1.3-21l-54.4-28.2
	c-5.9-4.2-17.9,2.6-22.1,8.5l-85.7,122.2C517.7,296.2,519.2,304.5,525.1,308.7z"/>
<path class="st8" d="M522.1,303.6l50.4,26.5c7.9,5.2,19.4,0.6,23.6-5.3l86.4-121.2c4.2-5.9,4.6-16.8-1.3-21l-54.4-28.2
	c-5.9-4.2-17.9,2.6-22.1,8.5l-85.7,122.2C514.7,291.2,516.1,299.4,522.1,303.6z"/>
<path class="st9" d="M527.4,300.4l45.9,24.2c7.2,4.7,17.7,0.6,21.5-4.8L678.9,201c3.8-5.4,2.5-12.9-2.9-16.7l-49.9-24.9
	c-5.4-3.8-16.3,2.3-20.1,7.7l-81.4,116.5C520.7,289.1,522,296.6,527.4,300.4z"/>
<path class="st10" d="M631.9,175.8l26.6,13.7c2.1,1.1,4.6,0.2,5.6-1.8v0c1.1-2.1,0.2-4.6-1.8-5.6l-26.6-13.7
	c-2.1-1.1-4.6-0.2-5.6,1.8v0C629.1,172.2,629.9,174.7,631.9,175.8z"/>
<path class="st11" d="M538,300.2l33.8,18.1c0.8,0.4,1.8,0.1,2.3-0.7l0.3-0.6c0.4-0.8,0.1-1.8-0.7-2.3l-33.8-18.1
	c-0.8-0.4-1.8-0.1-2.3,0.7l-0.3,0.6C536.9,298.8,537.2,299.8,538,300.2z"/>
<path class="st7" d="M238.9,309.6l-50.4,26.5c-7.9,5.2-19.4,0.6-23.6-5.3L78.5,209.6c-4.2-5.9-4.6-16.8,1.3-21l54.4-28.2
	c5.9-4.2,17.9,2.6,22.1,8.5L242,291.2C246.2,297.1,244.8,305.4,238.9,309.6z"/>
<path class="st8" d="M241.9,304.5L191.4,331c-7.9,5.2-19.4,0.6-23.6-5.3L81.5,204.6c-4.2-5.9-4.6-16.8,1.3-21l54.4-28.2
	c5.9-4.2,17.9,2.6,22.1,8.5l85.7,122.2C249.2,292.1,247.8,300.3,241.9,304.5z"/>
<path class="st12" d="M236.5,301.3l-45.9,24.2c-7.2,4.7-17.7,0.6-21.5-4.8L85,201.9c-3.8-5.4-2.5-12.9,2.9-16.7l49.9-24.9
	c5.4-3.8,16.3,2.3,20.1,7.7l81.4,116.5C243.2,290,241.9,297.5,236.5,301.3z"/>
<path class="st10" d="M132,176.7l-26.6,13.7c-2.1,1.1-4.6,0.2-5.6-1.8l0,0c-1.1-2.1-0.2-4.6,1.8-5.6l26.6-13.7
	c2.1-1.1,4.6-0.2,5.6,1.8h0C134.9,173.1,134,175.6,132,176.7z"/>
<path class="st11" d="M225.9,301.1l-33.8,18.1c-0.8,0.4-1.8,0.1-2.3-0.7l-0.3-0.6c-0.4-0.8-0.1-1.8,0.7-2.3l33.8-18.1
	c0.8-0.4,1.8-0.1,2.3,0.7l0.3,0.6C227,299.7,226.7,300.7,225.9,301.1z"/>
<ellipse class="st13" cx="159.9" cy="239.8" rx="26.6" ry="27"/>
<path class="st14" d="M171.8,242.4c1,6.2-0.7,8.1-3.6,10c-2.9,1.8-7.3-3-7.3-3c-8.5,4.4-12.5,14.4-12.5,14.4s0.1,0.2,0.3,0.6
	c3.4,1.6,7.2,2.5,11.2,2.5c14.7,0,26.6-12.1,26.6-27c0-0.3,0-0.5,0-0.8c-0.2-0.1-0.4-0.1-0.5-0.1
	C179.8,237.5,171.8,242.4,171.8,242.4z"/>
<path class="st15" d="M156.8,243.9c3.3,0,6.3-3.3,6.3-3.3s-2.4,7.3-2.3,8c0,0.2,0.8,1.1,1.8,2.2c1.6,1.2,3.9,2.6,5.7,1.5
	c2.9-1.8,4.6-3.7,3.6-10c0,0,0.1-0.1,0.3-0.2l-6.2-9.3c0,0,0.8-1.1,0.2-1.9c-0.6-0.9-1.5-1.6-2.9-0.5c0,0-0.3,0.5,0,1.4
	c0,0-7.2,0.1-9-3.6c0,0-1.6,6.5-2.9,5.9C151.3,234.2,153.5,243.8,156.8,243.9z"/>
<path class="st14" d="M151.3,234.2c1.3,0.6,2.9-5.9,2.9-5.9c1.8,3.7,9,3.6,9,3.6c-0.3-0.9,0-1.4,0-1.4c1.4-1.1,2.3-0.4,2.9,0.5
	c0.6,0.9-0.2,1.9-0.2,1.9l3.2,4.8l0.7,0.2c0,0,1.2-0.2,2-1.7c0.8-1.5,1-3.6-1-5.2s-3.4-0.3-3.4-0.3s-1.9-5.6-5.6-6.5
	s-9.2,3.3-9.2,3.3s-2.6,3.2-2.1,7s1.4,3.3,1.4,3.3l0.4-0.1C151.6,235.7,151.3,234.2,151.3,234.2z"/>
<ellipse class="st16" cx="606.6" cy="233.6" rx="28.7" ry="29.2"/>
<path class="st17" d="M614.6,234.8l-2.1,3.5c0,0,0.2,1,1.1,0.5c0.9-0.5,4.2-3.4,4.5-4c0.3-0.6,3.9-6.7,2.2-9.6s-7-6.4-8.7-6.6
	s-3.6-0.3-4.4,0s-1.9,2.2-1.2,3.3s6.6,5.3,8.4,5.3c1.9,0-0.1,3.5-0.8,4.7c-0.7,1.2-2.6,4-5.2,1.7c-2.5-2.3-1.6-4.8-6.6-4.9
	c0,0-3.8,4.9,0.5,7.3C606.6,238.4,609.8,237.6,614.6,234.8z"/>
<g>
	<path class="st18" d="M613.5,238.8c-0.9,0.5-1.1-0.5-1.1-0.5l2.1-3.5c-4.6,2.7-7.7,3.4-11.7,1.5l-4.8,3.4c0,0,0.1,0.1,0.1,0.1
		c0,0-1.7,7.3,1.1,8.4c2.7,1.1,7.4,1.9,11-2.3c0,0,0.1,0.1,0.3,0.1l3.1-7.3C613.6,238.8,613.5,238.8,613.5,238.8z"/>
	<path class="st18" d="M608.4,233.7c2.5,2.3,4.5-0.5,5.2-1.7c0.7-1.2,2.7-4.7,0.8-4.7c-1.6,0-5.9-3-7.7-4.6l-4.9,6
		C606.9,228.9,605.9,231.3,608.4,233.7z"/>
</g>
<path class="st19" d="M578.1,237.2c1.8,14.4,13.8,25.6,28.5,25.6c5.7,0,11.1-1.7,15.6-4.7c-0.7-6.3-11.9-12.3-11.9-12.3
	c-3.6,4.2-8.3,3.4-11,2.3c-2.7-1.1-1.1-8.4-1.1-8.4C592,236,583.5,236.4,578.1,237.2z"/>
<g>
	<g>
		<path class="st20" d="M175,169.4c23.6-17.3,191.6-129.9,401.9-5.2"/>
		<g>
			<path d="M177.4,172.4c-1.7,1.2-4,0.9-5.3-0.8c-1.2-1.7-0.9-4,0.8-5.3c1.7-1.2,4-0.9,5.3,0.8C179.5,168.8,179.1,171.1,177.4,172.4
				z"/>
		</g>
		<g>
			<polygon points="573.1,167.8 583,168 578.2,159.3 			"/>
		</g>
	</g>
</g>
<g>
	<g>
		<path class="st20" d="M560.6,199.1c-22.4-12.8-180.9-96.4-355.8-1.9"/>
		<g>
			<rect x="557.1" y="195.7" transform="matrix(0.4918 -0.8707 0.8707 0.4918 111.4865 589.0721)" width="6.6" height="6.6"/>
		</g>
		<g>
			<polygon points="203.8,192.2 198.5,200.7 208.5,201 			"/>
		</g>
	</g>
</g>
<g>
	<g>
		<path class="st20" d="M537.4,235.9c-19.2-10.7-138.8-70.7-308.6-1.9"/>
		<g>
			<rect x="533.9" y="232.5" transform="matrix(0.489 -0.8723 0.8723 0.489 68.8162 589.1197)" width="6.6" height="6.6"/>
		</g>
		<g>
			<polygon points="228.3,228.8 222.1,236.7 232,238.1 			"/>
		</g>
	</g>
</g>
<polyline class="st21" points="201,166.7 267.6,245.3 386.8,124.8 499.7,197.6 615.2,135.4 "/>
<path class="st22" d="M203.1,169.6h-3c-1.5,0-2.7-1.2-2.7-2.7v-3c0-1.5,1.2-2.7,2.7-2.7h3c1.5,0,2.7,1.2,2.7,2.7v3
	C205.8,168.4,204.6,169.6,203.1,169.6z"/>
<path class="st22" d="M268.9,247.9h-3c-1.5,0-2.7-1.2-2.7-2.7v-3c0-1.5,1.2-2.7,2.7-2.7h3c1.5,0,2.7,1.2,2.7,2.7v3
	C271.6,246.7,270.4,247.9,268.9,247.9z"/>
<path class="st22" d="M388.6,129.1h-3c-1.5,0-2.7-1.2-2.7-2.7v-3c0-1.5,1.2-2.7,2.7-2.7h3c1.5,0,2.7,1.2,2.7,2.7v3
	C391.3,127.8,390.1,129.1,388.6,129.1z"/>
<path class="st22" d="M501.2,201.4h-3c-1.5,0-2.7-1.2-2.7-2.7v-3c0-1.5,1.2-2.7,2.7-2.7h3c1.5,0,2.7,1.2,2.7,2.7v3
	C503.9,200.2,502.7,201.4,501.2,201.4z"/>
<path class="st22" d="M617.9,140h-3c-1.5,0-2.7-1.2-2.7-2.7v-3c0-1.5,1.2-2.7,2.7-2.7h3c1.5,0,2.7,1.2,2.7,2.7v3
	C620.6,138.7,619.4,140,617.9,140z"/>
<ellipse transform="matrix(0.2943 -0.9557 0.9557 0.2943 120.4007 389.5549)" class="st10" cx="324" cy="113.2" rx="23.2" ry="32.1"/>
<ellipse transform="matrix(0.2943 -0.9557 0.9557 0.2943 127.7233 387.5455)" class="st2" cx="326.3" cy="107.3" rx="21.7" ry="31.6"/>
<ellipse transform="matrix(0.2943 -0.9557 0.9557 0.2943 126.8147 387.8641)" class="st23" cx="326" cy="108.1" rx="15.6" ry="21.9"/>
<ellipse transform="matrix(0.2943 -0.9557 0.9557 0.2943 125.3181 388.3889)" class="st2" cx="325.7" cy="109.3" rx="14.3" ry="21.9"/>
<ellipse transform="matrix(0.9194 -0.3933 0.3933 0.9194 -8.9837 217.0992)" class="st10" cx="525.3" cy="130.5" rx="21" ry="28.8"/>
<ellipse transform="matrix(0.9194 -0.3933 0.3933 0.9194 -7.797 219.0912)" class="st2" cx="530.8" cy="128.6" rx="19.6" ry="28.4"/>
<ellipse transform="matrix(0.9194 -0.3933 0.3933 0.9194 -7.9645 218.8496)" class="st23" cx="530.1" cy="128.9" rx="14.1" ry="19.7"/>
<ellipse transform="matrix(0.9194 -0.3933 0.3933 0.9194 -8.2405 218.4516)" class="st2" cx="529" cy="129.3" rx="12.9" ry="19.7"/>
<ellipse transform="matrix(0.9761 -0.2172 0.2172 0.9761 -35.6146 85.0985)" class="st10" cx="369.3" cy="204.6" rx="26" ry="19.2"/>
<ellipse transform="matrix(0.9761 -0.2172 0.2172 0.9761 -34.4993 84.8016)" class="st2" cx="368.5" cy="199.3" rx="25.7" ry="17.9"/>
<ellipse transform="matrix(0.9761 -0.2172 0.2172 0.9761 -34.6379 84.8488)" class="st23" cx="368.7" cy="200" rx="17.8" ry="12.9"/>
<ellipse transform="matrix(0.9761 -0.2172 0.2172 0.9761 -34.8661 84.9265)" class="st2" cx="368.9" cy="201.1" rx="17.8" ry="11.8"/>
<ellipse transform="matrix(0.9761 -0.2172 0.2172 0.9761 -36.4442 116.4846)" class="st10" cx="511.7" cy="224" rx="21.8" ry="15.6"/>
<ellipse transform="matrix(0.9761 -0.2172 0.2172 0.9761 -35.5363 116.2449)" class="st2" cx="511.1" cy="219.8" rx="21.5" ry="14.6"/>
<ellipse transform="matrix(0.9761 -0.2172 0.2172 0.9761 -35.649 116.2833)" class="st23" cx="511.2" cy="220.3" rx="14.9" ry="10.5"/>
<ellipse transform="matrix(0.9761 -0.2172 0.2172 0.9761 -35.8346 116.3465)" class="st2" cx="511.4" cy="221.2" rx="14.9" ry="9.6"/>
<ellipse transform="matrix(0.6318 -0.7752 0.7752 0.6318 -50.9837 253.5306)" class="st10" cx="241.4" cy="180.4" rx="16.7" ry="12.2"/>
<ellipse transform="matrix(0.6318 -0.7752 0.7752 0.6318 -50.1104 250.7984)" class="st2" cx="238.9" cy="178.1" rx="16.5" ry="11.3"/>
<ellipse transform="matrix(0.6318 -0.7752 0.7752 0.6318 -50.1969 251.1517)" class="st23" cx="239.2" cy="178.4" rx="11.4" ry="8.2"/>
<ellipse transform="matrix(0.6318 -0.7752 0.7752 0.6318 -50.3395 251.7336)" class="st2" cx="239.8" cy="178.8" rx="11.4" ry="7.5"/>
<path class="st3" d="M513,222.2l1.9-0.6l1.2,3.5l2.9-1l-3.1-9.5l-2.9,1l1.2,3.5l-1.9,0.6c-1.1-2.8-2.5-4.7-3.4-4.4
	c-0.9,0.3-0.9,2.7-0.1,5.5l-6.2,2l0.8,2.5l6.2-2c1.1,2.8,2.5,4.7,3.4,4.4C513.7,227.5,513.8,225.1,513,222.2L513,222.2z M510,223.2
	L510,223.2c0-0.1-0.2-0.4-0.4-1.2c-0.2-0.7-0.3-1.1-0.4-1.3l0,0c-0.7-2.6-0.8-4.6-0.1-4.8c0.7-0.2,1.8,1.5,2.8,3.9l-2.2,0.7
	c0,0.2,0.2,0.7,0.4,1.3c0.3,0.8,0.4,1.2,0.5,1.2l2.2-0.7c0.7,2.6,0.8,4.6,0.1,4.8C512.2,227.3,511,225.7,510,223.2"/>
<path class="st3" d="M240.5,178.4l0.5-1.2l2,0.9l0.8-1.8l-5.5-2.4l-0.8,1.8l2,0.9l-0.5,1.2c-1.7-0.6-3.1-0.7-3.4-0.2
	c-0.2,0.5,0.8,1.5,2.4,2.4l-1.7,3.9l1.5,0.6l1.7-3.9c1.7,0.6,3.1,0.7,3.4,0.2C243.2,180.3,242.1,179.3,240.5,178.4L240.5,178.4z
	 M239.7,180.3L239.7,180.3c0,0-0.3-0.1-0.7-0.3c-0.4-0.2-0.6-0.3-0.7-0.3l0,0c-1.4-0.7-2.3-1.6-2.2-2c0.2-0.4,1.4-0.3,2.9,0.3
	l-0.6,1.3c0.1,0.1,0.4,0.2,0.7,0.4c0.5,0.2,0.7,0.3,0.7,0.3l0.6-1.3c1.4,0.7,2.3,1.6,2.2,2S241.2,180.8,239.7,180.3"/>
<path class="st3" d="M369.4,207.6c0.4-0.4,0.7-1,0.9-1.5c0.1-0.4,0.1-0.9,0.1-1.6c0.4,0.5,0.8,0.9,1.3,1.1c0.4,0.2,0.9,0.4,1.4,0.4
	c0.5,0,1,0,1.5-0.2c0.7-0.2,1.2-0.6,1.7-1.1c0.4-0.5,0.7-1.2,0.8-1.9c0-0.3,0-0.6,0-1l2.6-0.9l-0.7-2.2l-2.4,0.8l-0.5-1.4l2.4-0.8
	l-0.7-2.2l-2.4,0.8l-1.1-3.4l-2.1,0.7l0.2,0.5c0.1,0.3,0.2,0.6,0.1,0.7c0,0.1-0.1,0.3-0.2,0.4c-0.1,0.1-0.4,0.2-0.8,0.3l-8.3,2.7
	c-0.4,0.1-0.7,0.2-0.9,0.2s-0.3-0.1-0.4-0.2c-0.1-0.1-0.2-0.3-0.3-0.7l-0.2-0.5l-2.1,0.7l1.1,3.4l-2.4,0.8l0.7,2.2l2.4-0.8l0.4,1.3
	c0,0.1,0,0.1,0.1,0.2l-2.4,0.8l0.7,2.2l2.7-0.9c0.2,0.3,0.4,0.6,0.6,0.9c0.6,0.7,1.3,1.1,2.1,1.3c0.8,0.2,1.6,0.2,2.4-0.1
	C368.5,208.4,369,208,369.4,207.6z M373.5,198.1l0.5,1.4c0.3,0.8,0.4,1.4,0.4,1.8c0,0.4-0.1,0.7-0.3,0.9c-0.2,0.3-0.5,0.5-0.9,0.6
	c-0.4,0.1-0.7,0.1-1.1,0.1c-0.4-0.1-0.7-0.3-0.9-0.6c-0.3-0.3-0.5-0.8-0.8-1.6l-0.5-1.4L373.5,198.1z M365.6,205.1
	c-0.5-0.1-0.8-0.4-1-0.7c-0.2-0.3-0.4-0.8-0.6-1.3l-0.3-0.9c-0.1-0.3-0.2-0.5-0.1-0.6c0-0.1,0.1-0.2,0.2-0.2c0.1,0,0.3-0.2,0.8-0.3
	l3.2-1.1l0.6,1.7c0.2,0.7,0.3,1.3,0.3,1.7c0,0.4-0.2,0.8-0.4,1c-0.2,0.3-0.6,0.5-1,0.6C366.6,205.2,366.1,205.3,365.6,205.1z"/>
<path class="st3" d="M536.9,128.7c-0.5-0.4-1-0.7-1.6-0.8c-0.4-0.1-0.9-0.1-1.6,0c0.5-0.4,0.8-0.9,1-1.4c0.2-0.5,0.3-1,0.3-1.5
	c0-0.5-0.1-1-0.3-1.5c-0.3-0.7-0.7-1.2-1.3-1.6c-0.6-0.4-1.2-0.6-2-0.6c-0.3,0-0.6,0-1,0.1l-1.1-2.5l-2.1,0.9l1,2.4l-1.4,0.6l-1-2.4
	l-2.1,0.9l1,2.4l-3.3,1.4l0.8,2l0.5-0.2c0.3-0.1,0.6-0.2,0.7-0.2c0.1,0,0.3,0.1,0.4,0.2c0.1,0.1,0.2,0.4,0.4,0.8l3.4,8
	c0.2,0.4,0.3,0.7,0.3,0.8c0,0.1,0,0.3-0.1,0.4c-0.1,0.1-0.3,0.2-0.6,0.4l-0.5,0.2l0.8,2l3.3-1.4l1,2.4l2.1-0.9l-1-2.4l1.2-0.5
	c0.1,0,0.1,0,0.2-0.1l1,2.4l2.1-0.9l-1.1-2.6c0.3-0.2,0.6-0.5,0.8-0.7c0.6-0.7,1-1.4,1.1-2.2c0.1-0.8,0-1.6-0.3-2.4
	C537.7,129.6,537.4,129.1,536.9,128.7z M527,125.5l1.4-0.6c0.8-0.3,1.4-0.5,1.8-0.6s0.7,0.1,1,0.3s0.5,0.5,0.7,0.9
	c0.2,0.4,0.2,0.7,0.1,1.1c-0.1,0.4-0.2,0.7-0.5,1c-0.3,0.3-0.8,0.6-1.5,0.9l-1.4,0.6L527,125.5z M534.7,132.7
	c-0.1,0.5-0.3,0.8-0.6,1.1s-0.7,0.5-1.3,0.7l-0.9,0.4c-0.3,0.1-0.5,0.2-0.6,0.2c-0.1,0-0.2-0.1-0.2-0.1c0-0.1-0.2-0.3-0.4-0.8
	l-1.3-3.1l1.6-0.7c0.7-0.3,1.3-0.5,1.7-0.5c0.4,0,0.8,0.1,1.1,0.3c0.3,0.2,0.5,0.6,0.7,1C534.8,131.8,534.8,132.2,534.7,132.7z"/>
<g>
	<path class="st3" d="M335.5,116.4c0.1,0.1,0.2,0.1,0.2,0.2c0.2,0.2,0.2,0.4,0,0.5c-2.5,1.9-6.2,2.4-10.1,1.3
		c-6.5-1.9-11.2-7.7-10.5-13.1c0-0.1,0-0.2,0-0.2c0.2-0.1,0.4-0.1,0.6,0l0.8,0.5c0.3,0.2,0.4,0.4,0.4,0.6c-0.2,2.4,0.9,5,3,7.1
		c3.9,4,10.1,5.1,13.8,2.5c0.2-0.1,0.5-0.1,0.7,0L335.5,116.4z"/>
	<path class="st3" d="M334,111.8c0.3,0.2,0.4,0.5,0.3,0.6l-0.4,0.7c-0.2,0.2-0.4,0.2-0.7,0.1l-1.4-0.8c-1.2,1.3-2.7,1.4-4.3,0.8
		l-0.1,0c-0.2-0.1-0.3-0.4-0.2-0.6l0.4-0.8c0.1-0.1,0.3-0.2,0.5-0.1c1,0.4,1.9,0.3,2.6-0.8c0.5-0.9,0.2-1.9-0.8-2.4
		c-1-0.6-1.6-0.3-2.6,0.8c-1.4,1.7-2.7,2.2-4.7,1.1c-1.5-0.9-2.2-2.4-1.7-3.9l-1.4-0.8c-0.3-0.2-0.4-0.5-0.3-0.6l0.4-0.7
		c0.2-0.2,0.4-0.2,0.7-0.1l1.4,0.8c0.7-1,2.2-1.2,3.6-0.6l0.1,0c0.2,0.1,0.3,0.4,0.2,0.6l-0.4,0.7c-0.1,0.1-0.3,0.2-0.5,0.1
		c-1-0.3-1.7,0-2.1,0.8c-0.5,0.9-0.2,1.7,0.6,2.2c0.8,0.5,1.5,0.5,2.5-0.7c1.4-1.7,2.7-2.3,4.8-1.1l0,0c1.6,0.9,2.4,2.6,1.9,4.1
		L334,111.8L334,111.8z"/>
	<path class="st3" d="M338.6,112.1c0,0.1,0,0.2,0,0.2c-0.2,0.1-0.4,0.1-0.6,0l-0.8-0.5c-0.3-0.2-0.4-0.4-0.4-0.6
		c0.2-2.4-0.9-5-3-7.1c-3.9-4-10.1-5.1-13.8-2.5c-0.2,0.1-0.5,0.1-0.8-0.1l-0.8-0.5c-0.1-0.1-0.2-0.1-0.2-0.2
		c-0.2-0.2-0.2-0.4,0-0.5l0,0c2.5-1.9,6.2-2.4,10.1-1.3C334.6,100.9,339.3,106.8,338.6,112.1z"/>
</g>
</svg>
