<svg xmlns="http://www.w3.org/2000/svg" x="0px" y="0px"
	 viewBox="0 0 768 438.2" style="enable-background:new 0 0 768 438.2;" xml:space="preserve">
<style type="text/css">
	.st0{fill:#B8C9C8;}
	.st1{fill:#E6E6E8;}
	.st2{fill:#5D6B7D;}
	.st3{fill:#0052FF;}
	.st4{fill:#191C23;}
	.st5{fill:#D2D4DE;}
	.st6{fill:#424B5D;}
	.st7{fill:#B8BAC0;}
	.st8{fill:#FFFFFF;}
	.st9{fill:#D7DBE0;}
	.st10{fill:#1652F0;}
	.st11{fill:none;stroke:#000000;stroke-width:2;stroke-linecap:round;stroke-miterlimit:10;}
	.st12{fill:#5E6C7E;}
	.st13{fill:#5E6570;}
	.st14{fill:#48494D;}
	.st15{fill:#858A91;}
	.st16{fill:#48494F;}
	.st17{opacity:0.1;fill:#D2D4DE;}
	.st18{fill:#FFD200;}
</style>
<rect y="-0.4" class="st0" width="768" height="439"/>
<path class="st1" d="M436.3,396c-9.8-12.9-44.2-51.1-79.4-69.2s-122.1-81.8-189.1-104.9c-30.8-10.7-101.5-12.8-149.7-7.1
	c-6.2,0.7-12.3,1.8-18.2,3v220.9h461.4C457.4,425.3,443.2,405.1,436.3,396z"/>
<path class="st2" d="M768,240.5c-31.3-5.1-124.7-16.1-190.7,18.3c-80.4,41.9-127.8,84-200.8,111c-37.6,13.9-101.8,37.6-136.1,33.1
	c-17.5-2.3-11.3,16.4,0.3,35.7H768V240.5z"/>
<path class="st3" d="M768,370.6c-9.6-24.4-27.1-45.7-58.6-49.3c-78.9-9.2-62.9,17.1-217.8,62c-154.9,44.8-238-1.3-346.8-31
	c-73.5-20-121.4-5.8-144.8,5.5v80.9h768V370.6z"/>
<path class="st2" d="M0,19.3c16.6,8.5,43.9,18.1,77.8,13.8c57.4-7.3,93-12.8,154.3-12s78.5-6.3,94.9,13.1
	c16.5,19.4,7.5,40.2,23.7,51.3c13.4,9.1,29.6,19.2,97.9-16.9s103.8-63.3,162.5-50c58.7,13.3,55.4,40.5,60,60.5
	c4.6,20,14.5,91.3,81.1,90c5.4-0.1,10.6-1.4,15.7-3.7V-0.4H0V19.3z"/>
<path class="st4" d="M382.8,204.3c-8.4-33.1,4.1-66.6,29.1-86.6l-171.3,43.2c-11.4,2.9-18.4,14.5-15.5,25.9l28.2,111.5
	c2.9,11.4,14.5,18.4,25.9,15.5L460.8,268C424.6,266.3,392.2,241.3,382.8,204.3z"/>
<path class="st5" d="M387.7,202.9c-8.4-33.1,4.1-66.6,29.1-86.6l-171.3,43.2c-11.4,2.9-18.4,14.5-15.5,25.9L258.2,297
	c2.9,11.4,14.5,18.4,25.9,15.5l181.6-45.9C429.5,264.9,397.1,239.9,387.7,202.9z"/>
<g>
	<circle class="st6" cx="303.4" cy="222.9" r="41"/>
</g>
<g>
	<circle class="st7" cx="303.4" cy="222.9" r="39.4"/>
</g>
<g>
	<g>
		<path class="st8" d="M308.6,242c-4.4,1.2-9,0.4-12.8-1.9c0.5,1.8,1.1,4.5,1.2,6.6c0.4,0.1,0.7,0.4,0.9,0.8c2,5,7.9,7.6,13.8,6
			c5.8-1.6,9.7-6.8,8.9-12.1c-0.1-0.4,0.1-0.8,0.4-1.1c-1-1.8-1.8-4.4-2.3-6.3C316.5,237.8,313,240.8,308.6,242z"/>
	</g>
</g>
<g>
	<g>
		<path class="st9" d="M318.4,234.2c-2.1,3.7-5.6,6.6-9.9,7.7c-4.4,1.2-9,0.4-12.8-1.9c0.5,1.8,1.1,4.5,1.2,6.6
			c0.4,0.1,0.7,0.4,0.9,0.8c0.9,2.2,2.5,3.9,4.6,5C309.8,249.3,316.4,239.5,318.4,234.2z"/>
	</g>
</g>
<g>
	<g>
		<path class="st8" d="M311.5,207.2l-21.6,5.8c-3.5,0.9-5.6,4.5-4.6,8l2,7.6c2.6,9.8,12.2,15.8,21.3,13.3
			c9.1-2.4,14.3-12.4,11.7-22.2l-2.4-8.9C317.1,208.1,314.2,206.5,311.5,207.2z"/>
	</g>
</g>
<g>
	<g>
		<path class="st10" d="M305.2,193.9l-16.5,4.4c-2.4,0.6-3.9,2.8-3.9,5.2c-4.2,1.7-6.6,6.4-5.4,10.9l1.7,6.3c0.9,3.3,3.1,6,6.1,7.5
			l-1.9-7.2c-0.9-3.5,1.1-7.1,4.6-8l21.6-5.8c2.8-0.7,5.7,0.9,6.4,3.7l2.3,8.5c1.8-2.8,2.4-6.2,1.5-9.5l-2-7.6
			C318,196,311.5,192.2,305.2,193.9z"/>
	</g>
</g>
<g>
	<path class="st10" d="M282,256c9.1,5.9,20.4,8,31.7,5c11.2-3,20-10.6,24.9-20.2c-1.7-1.3-3.7-2.2-6.1-2.2c-0.1,0-0.1,0-0.2,0
		l-10.5,1.2c-0.1,0-0.2,0-0.3,0.1c-0.6,0.2-1,0.8-1,1.4c0.7,5.3-3.1,10.5-8.9,12.1s-11.8-1-13.8-6c-0.3-0.6-1-1-1.6-0.8
		c-0.1,0-0.1,0-0.2,0.1l-9.7,4.3c0,0-0.1,0-0.2,0.1C284.1,252.2,282.8,254,282,256z"/>
</g>
<g>
	<path class="st11" d="M638.9,102.3c0,0,17.8,3.1,17,19.6"/>
	<path class="st11" d="M626.1,106.8c0,0,26.4-1.6,27.1,30.6"/>
	<path class="st11" d="M618.3,114.4c0,0,13.2-3.8,21.3,4.8c7.4,7.9,9.3,14.4,0.8,29.5"/>
	<path class="st11" d="M614,125.4c0,0,11.4-8.9,17.7-4.5c6.4,4.4,7.9,11.4,7.8,14s-5,12.3-9.6,15"/>
	<path class="st11" d="M613.4,135.5c0,0,7.5-5.7,8.4-7.2c0.9-1.5,3.6-2.5,5.7-1.4c2.1,1.1,5.6,5.4,4.7,9.1s-7.6,10.6-10.6,11.9"/>
	<path class="st11" d="M625.7,135.4c0,0-3.1,5.5-9.4,7.6"/>
	<polyline class="st11" points="619.1,90.5 623.5,83.2 631.3,87.9 	"/>
	<polyline class="st11" points="668.2,109 676.8,114.2 672.4,121.7 	"/>
	<polyline class="st11" points="637.1,161.9 644.7,166.4 649.2,158.9 	"/>
	<polyline class="st11" points="597.4,126.9 592.8,134.5 600.3,138.9 	"/>
</g>
<path class="st4" d="M390.2,170.5l-26.4,6.7c-1.7,0.4-3.3-0.6-3.8-2.2l-0.9-3.5c-0.4-1.7,0.6-3.3,2.2-3.8l26.4-6.7
	c1.7-0.4,3.3,0.6,3.8,2.2l0.9,3.5C392.8,168.4,391.8,170.1,390.2,170.5z"/>
<path class="st12" d="M382,247.1L382,247.1c-1.3,0.3-2.6-0.5-2.9-1.8l-0.7-2.9c-0.3-1.3,0.5-2.6,1.8-2.9h0c1.3-0.3,2.6,0.5,2.9,1.8
	l0.7,2.9C384.1,245.4,383.3,246.8,382,247.1z"/>
<path class="st12" d="M390.1,245L390.1,245c-1.3,0.3-2.6-0.5-2.9-1.8l-0.7-2.9c-0.3-1.3,0.5-2.6,1.8-2.9l0,0
	c1.3-0.3,2.6,0.5,2.9,1.8l0.7,2.9C392.2,243.4,391.4,244.7,390.1,245z"/>
<path class="st12" d="M398.5,242.9L398.5,242.9c-1.3,0.3-2.6-0.5-2.9-1.8l-0.7-2.9c-0.3-1.3,0.5-2.6,1.8-2.9h0
	c1.3-0.3,2.6,0.5,2.9,1.8l0.7,2.9C400.6,241.3,399.8,242.6,398.5,242.9z"/>
<path class="st12" d="M406.8,240.8L406.8,240.8c-1.3,0.3-2.6-0.5-2.9-1.8l-0.7-2.9c-0.3-1.3,0.5-2.6,1.8-2.9l0,0
	c1.3-0.3,2.6,0.5,2.9,1.8l0.7,2.9C408.9,239.2,408.1,240.5,406.8,240.8z"/>
<path class="st4" d="M389.9,199.9l-22.1,5.6c-0.8,0.2-1.6-0.3-1.8-1.1l0,0c-0.2-0.8,0.3-1.6,1.1-1.8l22.1-5.6
	c0.8-0.2,1.6,0.3,1.8,1.1l0,0C391.2,198.8,390.8,199.6,389.9,199.9z"/>
<path class="st4" d="M391.7,206.7l-22.1,5.6c-0.8,0.2-1.6-0.3-1.8-1.1l0,0c-0.2-0.8,0.3-1.6,1.1-1.8l22.1-5.6
	c0.8-0.2,1.6,0.3,1.8,1.1h0C393,205.7,392.5,206.5,391.7,206.7z"/>
<path class="st4" d="M393.5,213.8l-22.1,5.6c-0.8,0.2-1.6-0.3-1.8-1.1l0,0c-0.2-0.8,0.3-1.6,1.1-1.8l22.1-5.6
	c0.8-0.2,1.6,0.3,1.8,1.1l0,0C394.8,212.8,394.3,213.6,393.5,213.8z"/>
<path class="st4" d="M395.3,221.2l-22.1,5.6c-0.8,0.2-1.6-0.3-1.8-1.1l0,0c-0.2-0.8,0.3-1.6,1.1-1.8l22.1-5.6
	c0.8-0.2,1.6,0.3,1.8,1.1v0C396.6,220.2,396.1,221,395.3,221.2z"/>
<path class="st13" d="M367.8,194.7l-2.8,0.7c-0.2,0.1-0.5-0.1-0.6-0.3l0,0c-0.1-0.2,0.1-0.5,0.3-0.6l2.8-0.7
	c0.2-0.1,0.5,0.1,0.6,0.3l0,0C368.2,194.4,368.1,194.7,367.8,194.7z"/>
<circle class="st5" cx="469.6" cy="182.2" r="75.4"/>
<path class="st13" d="M379.5,191.8l-6.1,1.5c-0.2,0.1-0.5-0.1-0.6-0.3l0,0c-0.1-0.2,0.1-0.5,0.3-0.6l6.1-1.5
	c0.2-0.1,0.5,0.1,0.6,0.3l0,0C379.9,191.5,379.8,191.7,379.5,191.8z"/>
<path class="st13" d="M388,189.6l-2.8,0.7c-0.2,0.1-0.5-0.1-0.6-0.3l0,0c-0.1-0.2,0.1-0.5,0.3-0.6l2.8-0.7c0.2-0.1,0.5,0.1,0.6,0.3
	l0,0C388.4,189.3,388.3,189.6,388,189.6z"/>
<path class="st14" d="M507.9,145.9l-111,28c-3.7,0.9-7.5-1.3-8.4-5l-0.8-3.2c-0.9-3.7,1.3-7.5,5-8.4l111-28c3.7-0.9,7.5,1.3,8.4,5
	l0.8,3.2C513.9,141.2,511.6,145,507.9,145.9z"/>
<path class="st15" d="M411.2,199.5l-9.5,2.4c-0.2,0.1-0.5-0.1-0.6-0.3l-0.1-0.4c-0.1-0.2,0.1-0.5,0.3-0.6l9.5-2.4
	c0.2-0.1,0.5,0.1,0.6,0.3l0.1,0.4C411.6,199.2,411.5,199.4,411.2,199.5z"/>
<path class="st15" d="M429.6,194.8l-9.5,2.4c-0.2,0.1-0.5-0.1-0.6-0.3l-0.1-0.4c-0.1-0.2,0.1-0.5,0.3-0.6l9.5-2.4
	c0.2-0.1,0.5,0.1,0.6,0.3l0.1,0.4C430,194.5,429.9,194.8,429.6,194.8z"/>
<path class="st15" d="M448.6,190l-9.5,2.4c-0.2,0.1-0.5-0.1-0.6-0.3l-0.1-0.4c-0.1-0.2,0.1-0.5,0.3-0.6l9.5-2.4
	c0.2-0.1,0.5,0.1,0.6,0.3l0.1,0.4C449,189.7,448.8,190,448.6,190z"/>
<path class="st15" d="M467,185.4l-9.5,2.4c-0.2,0.1-0.5-0.1-0.6-0.3l-0.1-0.4c-0.1-0.2,0.1-0.5,0.3-0.6l9.5-2.4
	c0.2-0.1,0.5,0.1,0.6,0.3l0.1,0.4C467.4,185.1,467.2,185.3,467,185.4z"/>
<path class="st15" d="M485.5,180.7l-9.5,2.4c-0.2,0.1-0.5-0.1-0.6-0.3l-0.1-0.4c-0.1-0.2,0.1-0.5,0.3-0.6l9.5-2.4
	c0.2-0.1,0.5,0.1,0.6,0.3l0.1,0.4C485.9,180.4,485.7,180.7,485.5,180.7z"/>
<path class="st15" d="M504.2,176l-9.5,2.4c-0.2,0.1-0.5-0.1-0.6-0.3l-0.1-0.4c-0.1-0.2,0.1-0.5,0.3-0.6l9.5-2.4
	c0.2-0.1,0.5,0.1,0.6,0.3l0.1,0.4C504.6,175.7,504.4,175.9,504.2,176z"/>
<path class="st15" d="M517.8,172.6l-4.7,1.2c-0.4,0.1-0.7-0.1-0.8-0.5l0,0c-0.1-0.4,0.1-0.7,0.5-0.8l4.7-1.2
	c0.4-0.1,0.7,0.1,0.8,0.5l0,0C518.4,172.1,518.2,172.5,517.8,172.6z"/>
<path class="st16" d="M521.6,189.3l-117.9,29.8c-1.3,0.3-2.6-0.5-3-1.8l0,0c-0.3-1.3,0.5-2.6,1.8-3l117.9-29.8
	c1.3-0.3,2.6,0.5,3,1.8l0,0C523.7,187.6,522.9,189,521.6,189.3z"/>
<path class="st16" d="M524.1,201.1l-117.9,29.8c-1.3,0.3-2.6-0.5-3-1.8l0,0c-0.3-1.3,0.5-2.6,1.8-3l117.9-29.8
	c1.3-0.3,2.6,0.5,3,1.8v0C526.2,199.4,525.4,200.7,524.1,201.1z"/>
<path class="st16" d="M495.6,220.1l-81.9,20.7c-1.3,0.3-2.6-0.5-3-1.8l0,0c-0.3-1.3,0.5-2.6,1.8-3l81.9-20.7c1.3-0.3,2.6,0.5,3,1.8
	l0,0C497.7,218.5,496.9,219.8,495.6,220.1z"/>
<path class="st16" d="M466.6,239.3l-43.3,10.9c-1.3,0.3-2.6-0.5-3-1.8l0,0c-0.3-1.3,0.5-2.6,1.8-3l43.3-10.9c1.3-0.3,2.6,0.5,3,1.8
	l0,0C468.7,237.6,467.9,238.9,466.6,239.3z"/>
<path class="st4" d="M449,100.3c-45.2,11.4-72.6,57.3-61.2,102.6c11.4,45.2,57.3,72.6,102.6,61.2c45.2-11.4,72.6-57.3,61.2-102.6
	C540.1,116.3,494.2,88.9,449,100.3z M488.1,255.3c-40.4,10.2-81.4-14.3-91.6-54.7s14.3-81.4,54.7-91.6s81.4,14.3,91.6,54.7
	S528.5,245.1,488.1,255.3z"/>
<circle class="st17" cx="469.6" cy="182.2" r="75.4"/>
<path class="st4" d="M582,348.2l-72.4-87.1c-4-4.8-3.4-12,1.5-16.1l0,0c4.8-4,12-3.4,16.1,1.5l72.4,87.1c4,4.8,3.4,12-1.5,16.1l0,0
	C593.2,353.7,586,353.1,582,348.2z"/>
<g>
	<path class="st11" d="M97.9,206.1c0,0,8.8-9.5,18.4-2.6"/>
	<path class="st11" d="M95.6,215.5c0,0,9.3-16.5,28.9-4.4"/>
	<path class="st11" d="M97.1,223.2c0,0,2.8-9.4,11.2-10.9c7.6-1.4,12.3,0,18,11"/>
	<path class="st11" d="M102,230c0,0-0.9-10.3,4.2-12.4c5.1-2.1,9.9-0.3,11.5,0.8s5.4,7.8,5.3,11.6"/>
	<path class="st11" d="M107.9,234.3c0,0-0.5-6.7-1-7.9c-0.5-1.1-0.1-3.1,1.4-4c1.5-0.9,5.4-1.2,7.3,0.7c1.8,2,3.4,8.7,3,11"/>
	<path class="st11" d="M112.6,226.9c0,0,2.1,4,0.9,8.6"/>
	<polyline class="st11" points="83.1,213.4 80.4,208 86.2,205.1 	"/>
	<polyline class="st11" points="113.3,191.2 119.7,188 122.5,193.6 	"/>
	<polyline class="st11" points="133,230.3 138.6,227.5 135.8,221.9 	"/>
	<polyline class="st11" points="96.5,240.6 99.3,246.3 104.8,243.6 	"/>
</g>
<circle cx="148.8" cy="91.1" r="32.6"/>
<circle class="st18" cx="148.8" cy="85.7" r="32.6"/>
<circle cx="148.8" cy="85.7" r="25.2"/>
<circle class="st18" cx="148.8" cy="89.4" r="25.2"/>
<polygon class="st8" points="154.5,88.8 164.6,85.7 153.9,82.5 159.7,74.4 151.8,79.8 148.8,70 145.8,80 137.8,74.4 143.4,82.6 
	133,85.7 143.1,88.8 137.8,96.3 145.6,90.9 148.8,101.6 152,90.9 159.7,96.3 "/>
<circle cx="161.2" cy="310.9" r="45"/>
<circle class="st18" cx="161.2" cy="303.4" r="45"/>
<circle cx="161.2" cy="303.4" r="34.7"/>
<circle class="st18" cx="161.2" cy="308.6" r="34.7"/>
<polygon class="st8" points="169.1,307.6 183,303.4 168.2,299 176.2,287.8 165.3,295.3 161.2,281.7 157,295.6 146,287.8 
	153.7,299.1 139.4,303.4 153.3,307.6 145.9,318 156.8,310.6 161.2,325.3 165.6,310.6 176.1,318.1 "/>
<circle cx="416" cy="321.3" r="22.7"/>
<circle class="st18" cx="416" cy="317.5" r="22.7"/>
<circle cx="416" cy="317.5" r="17.5"/>
<circle class="st18" cx="416" cy="320.1" r="17.5"/>
<polygon class="st8" points="419.9,319.7 427,317.6 419.5,315.3 423.5,309.7 418,313.4 416,306.6 413.8,313.6 408.3,309.6 
	412.2,315.4 404.9,317.6 412,319.7 408.3,324.9 413.7,321.2 416,328.6 418.2,321.1 423.5,324.9 "/>
</svg>
