<svg xmlns="http://www.w3.org/2000/svg" x="0px" y="0px"
	 viewBox="0 0 768 438.2" style="enable-background:new 0 0 768 438.2;" xml:space="preserve">
<style type="text/css">
	.st0{fill:#B8C9C8;}
	.st1{fill:#FFD200;}
	.st2{fill:#586C7C;}
	.st3{fill:#B2BCC9;}
	.st4{fill:#FFFFFF;}
	.st5{fill:#DE8557;}
	.st6{fill:#443004;}
	.st7{fill:#191D22;}
	.st8{fill:#0062FF;}
	.st9{fill:#7C3929;}
	.st10{fill:#FEE0D0;}
	.st11{fill:#7D481E;}
	.st12{fill:#D5986B;}
</style>
<rect x="0.3" y="-0.2" class="st0" width="768" height="438.3"/>
<path class="st1" d="M131.8,111.4c-0.7-1.2-0.3-2.2,0.5-3.2c2.5-3,5.8-4.7,9.2-6.4c8-3.9,16.4-6.6,25.2-7.8c2.4-0.3,4.8-0.4,7.2,0.1
	c0.9,0.2,1.6,0.6,2.1,1.3c0.6,1.9-0.1,3.2-1.6,4.4c-3.7,2.9-7.6,5.2-12,7c-4.4,1.7-8.8,3.4-13.3,4.5c-4.3,1.1-8.7,1.9-13.2,1.7
	C134.4,113,132.8,112.8,131.8,111.4z"/>
<path d="M131.8,111.4c2.7,1.6,5.6,1.4,8.4,1c7.8-0.9,15.3-3.2,22.5-6.3c4-1.7,7.9-3.8,11.3-6.6c1.3-1.1,2.3-2.3,1.9-4.1
	c0.6,1.7,0.9,3.5,1.6,5.2c0.3,0.7-0.3,1.2-0.6,1.8c-1.7,2.8-4.6,4.2-7.3,5.8c-5,3-10.6,4.9-16.1,6.6c-4.8,1.5-9.7,2.4-14.7,2.5
	c-2.8,0.1-5.6-0.6-6-2.8C132.6,113.5,132,112.5,131.8,111.4z"/>
<path class="st1" d="M165.7,261.2c0.8-0.8,1.7-0.7,2.6-0.3c4.1,1.4,7.3,4.1,10.5,7c3.5,3.1,6.7,6.5,8.9,10.6
	c0.6,1.2,1.4,2.6-0.1,3.8c-0.8,0.5-1.6,0.3-2.4,0c-2.6-0.9-4.8-2.6-7-4.3c-4.1-3.1-7.8-6.7-10.8-10.9c-0.8-1.1-1.4-2.4-2-3.7
	C165.2,262.6,165.4,261.9,165.7,261.2z"/>
<path d="M165.7,261.2c-0.2,3.1,1.8,5.3,3.5,7.5c4,5,8.8,9.2,14.4,12.4c1.2,0.7,2.5,1.2,4,1.1c-0.6,0.7-1.4,1.1-1.9,1.9
	c-0.3,0.5-0.8,0.6-1.3,0.4c-2.2-0.7-4.3-1.8-6.2-3.1c-3-2.1-5.7-4.4-8.2-7.1c-2.4-2.5-4.5-5.2-6.1-8.2c-0.7-1.3-0.8-2.5,0.5-3.6
	C164.9,262.2,165.3,261.7,165.7,261.2z"/>
<path class="st1" d="M514.2,100.6c0-1.3,1-2,1.8-2.6c3.9-3,8.4-4.9,13.2-6c1.2-0.3,2.6-0.6,3.7,0.4c0.3,1.2-0.3,2.1-1.2,2.8
	c-2.9,2.4-6.2,4.1-9.8,5.3c-1.7,0.5-3.3,1.1-5.1,1.2C515.7,101.8,514.7,101.6,514.2,100.6z"/>
<path d="M514.2,100.6c1.3,1.2,2.9,0.8,4.3,0.5c4.5-1.1,8.7-2.9,12.4-5.6c1-0.7,2-1.5,2-3c1.5,3.4,1,3.3-1.4,5.1
	c-3.7,2.8-7.9,4.5-12.4,5.6C516.1,103.9,515.3,103.4,514.2,100.6z"/>
<path class="st2" d="M490.5,59.5c0.3,0.3,0.3,0.6,0.3,0.9C490.4,60.2,490.4,59.9,490.5,59.5z"/>
<circle cx="391.2" cy="210.5" r="112.5"/>
<circle class="st1" cx="391.2" cy="191.7" r="112.5"/>
<circle cx="391.2" cy="191.7" r="86.9"/>
<circle class="st1" cx="391.2" cy="204.7" r="86.9"/>
<path class="st3" d="M397.6,293.2c-0.1,0.1-0.3,0.2-0.4,0.2C397.4,293.3,397.5,293.3,397.6,293.2z"/>
<polygon class="st4" points="410.9,202.4 445.7,191.9 408.8,180.9 428.7,152.8 401.4,171.5 391.2,137.5 380.7,172.3 353.1,152.7 
	372.5,181.1 336.6,191.9 371.4,202.4 353,228.4 380.1,209.8 391.2,246.5 402.2,209.7 428.6,228.5 "/>
<path class="st3" d="M297.7,204.6c-0.1-0.1-0.2-0.3-0.2-0.4C297.5,204.3,297.6,204.5,297.7,204.6z"/>
<path class="st3" d="M371.6,100.1c0.2,0.1,0.5,0.1,0.7,0.2C372,100.4,371.8,100.3,371.6,100.1z"/>
<path class="st3" d="M381.1,91.1c0.1-0.1,0.2-0.2,0.4-0.3C381.4,91,381.3,91,381.1,91.1z"/>
<path class="st5" d="M477.6,176.3c-0.1,0.2-0.2,0.4-0.3,0.6C477.2,176.6,477.3,176.4,477.6,176.3z"/>
<path class="st6" d="M574-0.2c0,0-11.2,145.1-81.1,218.9c0,0-56,11.5-66.5,51c0,0-1.2,10.3,9,4.9c0,0,5.3-6.5,11.6-13.8
	c0,0,11.5-10.9,16.3,4.8c0,0,3.7,9.9-8.6,19.7c-8.4,6.7-9.5,9.5-12.9,11c-6.1,2.8-6.1,3-21.1,2.8c0,0-13.8-1.4-14.2,5.8
	c0,0-1.5,2.7,25.3,8c0,0,11.8,3.9,30.1-4.3c18.3-8.2,19.6-7.4,27.9-16.6s1.6-4.2,14.6-18c12.9-13.8,106.5-101.6,156.4-274.3L574-0.2
	L574-0.2z"/>
<path class="st7" d="M406.5,302.5l-9.7-5c0,0-2.9-1.8,0.5-4.1c3.3-2.3,12.3,0.4,12.3,0.4l19.7,4.6c0,0-7.4,0.5-10.8,0.2
	C414.9,298.3,407.9,299.2,406.5,302.5z"/>
<path class="st7" d="M396.8,287.4c0,0,2-5.1,10.4-2.4s18,12.6,35.7,10c0,0-4.2,4.1-13.2,3c0,0-25.3-6.7-28.5-6.7
	C401.2,291.3,395.7,289.7,396.8,287.4z"/>
<path class="st8" d="M517-0.2c0,0-6.8,49.2,49.8,44.8s62.2-22.8,117.5,2.1s1.5,81.3,83.6,119.8l0.3-166.6L517-0.2L517-0.2z"/>
<path class="st9" d="M237.8,400.8c0,0-3-145.5,59.3-225.8c0,0,54.6-16.9,61.2-57.2c0,0,0.2-10.4-9.4-4c0,0-4.7,7-10.2,14.8
	c0,0-10.4,12-16.7-3.2c0,0-4.7-9.5,6.6-20.5c7.8-7.5,8.5-10.4,11.8-12.2c5.8-3.4,5.8-3.6,20.7-4.8c0,0,13.9,0.1,13.5-7.2
	c0,0,1.2-2.8-25.9-5.5c0,0-12.1-2.7-29.5,7.2s-18.8,9.2-26.1,19.2s-1.2,4.3-12.7,19.4c-11.5,15-96.1,111.5-128.8,288.2L237.8,400.8z
	"/>
<path class="st7" d="M375,83.2l10.1,4.1c0,0,3,1.5-0.1,4.1s-12.3,0.8-12.3,0.8l-20.1-2.7c0,0,7.3-1.3,10.8-1.2
	C367,88.2,373.9,86.7,375,83.2z"/>
<path class="st7" d="M386.1,97.3c0,0-1.4,5.3-10.1,3.4s-19.1-10.8-36.5-6.5c0,0,3.8-4.5,12.8-4.3c0,0,25.8,4.2,29,3.9
	C381.4,93.8,387,94.9,386.1,97.3z"/>
<path class="st8" d="M-0.3,264c0,0,31.3-31.3,84.3-15s17.8,106.3,45.5,120.5s73.6-10.4,113.2,27.7c0,0,38.3,33.2,40.5,41.1H0
	L-0.3,264z"/>
<path class="st10" d="M752.9,363.5c0,0-296.9-6.2-376.8-69.1c0,0-16.5-54.7-56.8-61.6c0,0-10.4-0.2-4.1,9.4c0,0,6.9,4.7,14.8,10.3
	c0,0,11.9,10.5-3.3,16.7c0,0-9.5,4.6-20.4-6.8c-7.5-7.8-10.3-8.6-12.1-11.9c-3.3-5.8-3.5-5.8-4.7-20.8c0,0,0.2-13.9-7.1-13.6
	c0,0-2.8-1.3-5.7,25.9c0,0-2.8,12.1,7,29.6s9.1,18.8,19.1,26.3s4.3,1.2,19.3,12.9S442.9,404,623.6,433.9L752.9,363.5z"/>
<path class="st5" d="M284.8,215.8l4.1-10.1c0,0,1.5-3,4.1,0.1s0.7,12.3,0.7,12.3l-2.8,20.1c0,0-1.2-7.3-1.2-10.8
	S288.2,216.9,284.8,215.8z"/>
<path class="st5" d="M298.9,204.8c0,0,5.3,1.5,3.4,10.1s-10.9,19-6.8,36.4c0,0-4.5-3.8-4.2-12.8c0,0,4.4-25.8,4.1-29
	C295.4,209.5,296.5,204,298.9,204.8z"/>
<path class="st8" d="M320.8,437.8c0,0,32.6-70.8,90.7-68.4c58.2,2.4,103.4,20.3,137.6,35.2s99.5,30.4,108.9-2.3
	c0,0,9.7-17.9-11.4-29.8c-21.1-11.8-9.2-38.4,8.1-40s28.4,13.1,52.6-3.2c24.1-16.3,20.4-38.8,10-70.3
	c-10.4-31.6,13.2-49.7,32.1-49.6c18.9,0.1,18.9,0.1,18.9,0.1V438L320.8,437.8z"/>
<path class="st1" d="M630.2,244.9c1-0.9,2.1-0.8,3.2-0.3c3.4,1.7,5.9,4.6,8.3,7.5c5.6,6.9,10.2,14.4,13.4,22.8
	c0.9,2.2,1.5,4.6,1.5,7c0,0.9-0.2,1.7-0.7,2.4c-1.7,1-3.2,0.7-4.7-0.5c-3.6-2.9-6.8-6.2-9.5-10.1c-2.7-3.8-5.3-7.8-7.5-11.9
	c-2.1-4-3.8-8-4.7-12.4C629.3,247.8,629.1,246.3,630.2,244.9z"/>
<path d="M630.2,244.9c-1,3-0.1,5.7,0.9,8.5c2.6,7.4,6.6,14.1,11.3,20.5c2.6,3.5,5.5,6.8,9,9.5c1.3,1,2.7,1.7,4.4,0.9
	c-1.5,0.9-3.2,1.7-4.7,2.8c-0.6,0.4-1.3,0-1.9-0.2c-3.2-1-5.1-3.5-7.3-5.7c-4.1-4.2-7.2-9.2-10.2-14.2c-2.5-4.3-4.6-8.9-5.9-13.8
	c-0.7-2.7-0.7-5.6,1.3-6.5C628.4,246.2,629.2,245.4,630.2,244.9z"/>
<path class="st11" d="M496.4,181.3l-5.7,9.3c0,0-2,2.7-4-0.7c-2.1-3.5,1.3-12.2,1.3-12.2l6-19.3c0,0,0,7.4-0.6,10.8
	C492.7,172.6,493.2,179.7,496.4,181.3z"/>
<path class="st11" d="M480.7,189.9c0,0-5-2.3-1.7-10.5s13.8-17,12.5-34.9c0,0,3.8,4.5,2.1,13.4c0,0-8.5,24.7-8.7,27.9
	C484.9,185.8,482.9,191.2,480.7,189.9z"/>
<path class="st12" d="M418.9,89.2c0,0,7.5,56.6,46.2,69.9c0,0,10.2,1.9,5.5-8.6c0,0-6.1-5.8-12.9-12.5c0,0-10.1-12.3,5.9-15.9
	c0,0,10.1-3,19.1,10c6.1,8.9,8.8,10.2,10.1,13.6c2.3,6.3,2.6,6.3,1.3,21.3c0,0-2.4,13.7,4.8,14.6c0,0,2.6,1.7,9.7-24.6
	c0,0,4.7-11.5-2.1-30.3c-6.9-18.8-6-20-14.6-29s-4.1-1.9-17-15.8c-7.2-7.8-35.7-42.2-88.8-81.9H240
	C286.9,10.9,371.1,37.1,418.9,89.2z"/>
<path class="st8" d="M-0.3,226.5c0,0,26-26.2,28.2-64.7S39,78.3,80.1,54.1s129.1,2,148.5,1.9s85.9,11.9,138.9-56.2L0.3-0.2
	L-0.3,226.5z"/>
</svg>
