<svg xmlns="http://www.w3.org/2000/svg" x="0px" y="0px" viewBox="0 -10 446.1 498.1" xml:space="preserve">
         <style type="text/css">
                    .st1 {fill: #FFFFFF;}
                    .st24 {fill: #fbf9f9;}
                    .st7 {fill: #EFEFEF;}
                    .st21 {fill: #d6d6d6;}
                    .st13 {opacity:0.1;fill:#FFFFFF;}
                    .st6618{fill:#ECF0F1;}
                    .st35 {fill: #E0E0E0;}
                    .st45 {fill: #E3E3E3;}
                    .st51 {fill: #E1E1E1;}
                    .st52 {fill: #FDFDFB;}
                    .st625{fill:#D1D1D1;}
                    .st5 {fill: #606373;}
                    .st4 {opacity:0.1;fill:#3E3A39;}
                    .st6 {fill: #11113B;}
                    .st8 {fill: #B1B1C9;}
                    .st9 {fill:#DCDBEA;stroke:#8D8DAA;stroke-miterlimit: 10;}
                    .st18 {fill: #8D8DAA;}
                    .st12 {fill: none;stroke:#8D8DAA;stroke-miterlimit: 10;}
                    .st11 {fill: #0052ff;stroke:#FFFFFF;stroke-miterlimit: 10;}
                    .st14 {fill: #060423;}
                    .st22 {fill: #ffffff24;}
                    .st26 {fill: url(#SVGID_1_);}
                    .st27 {fill: #2CFBFB;}
                    .st47 {fill: #ffffff24;}
                    .st1019 {fill: #882043;}
                    .st1021 {opacity: 0.3;fill: #16DAE8;}
                    .st1022 {opacity: 0.3;fill: #1FDBE7;}
                    .st1023 {opacity: 0.5;fill: #BA8887;}
                    .st1024 {fill: #212154;}
                    .st1026 {fill: none;}
                    .st1029 {fill: #5497D3;}
                    .st1030 {fill: #2775CA;}
                    .st1031 {fill: #FFDE55;}
                    .st1032 {fill: #FFCE00;}
                    .st1034 {fill: #E33F00;}
                    .st10{fill:none;stroke:#2CFBFB;stroke-width:8;stroke-linecap:round;stroke-miterlimit:10;}
                    .st33{fill:none;stroke:#2CFBFB;stroke-width:2;stroke-linecap:round;stroke-miterlimit:10;}
                    .st716{fill:#56256B;}
                    .st717{fill:#00A8E1;}
                    .st718{fill:#E26D83;}
                    .st719{fill:#D85C72;}
                    .st720{fill:#803743;}
                    .st721{fill:#0071CE;}
                    .st6619{fill:#F87F6E;}
                    .st6620{fill:#231F20;}
                    .st6621{fill:#212154;}
                    .st32 {fill: #77788B;}
                    .st38 {fill: #9A9AB7;}
                    .st39 {fill:#060423;stroke:#FFFFFF;stroke-miterlimit: 10;}
                    .st43 {fill: #212154;}
                    .st54 {opacity:0.3;fill:#B1B1C9;}
                    .st55 {opacity:0.3;fill:#FFFFFF;}
                    .st615{fill:#9B9BA2;}
                    .st620{fill:#FFD469;}
                    .st621{fill:#00B1FF;}
                    .st622{fill:#0096D1;}
                    .st623{fill:#727272;}
                    .st624{fill:#B2B2B2;}
                    .st816{fill:#9B9BA2;}
                    .st820{fill:#75B7B1;}
                    .st823{opacity:0.8;}
                    .st824{opacity:0.6;}
                    .st826{fill:none;stroke:#01DEEB;stroke-width:2;stroke-miterlimit:10;}
                    .sta18{fill:#9B9BA2;}
                    .sta21{opacity:0.1;fill:#3AECFE;}
                    .sta22{opacity:0.2;fill:#FFFFFF;}
                    .sta23{fill:#956EC4;}
                    .sta24{fill:#B77FD8;}
                    .sta25{fill:#6D2C92;}
                    .sta26{fill:#1C2042;}
                    .stb1{fill:#F87F6E;}
                    .stb2{fill:#D65649;}
                    .stb6{fill:#882043;}
                    .sta27{fill:none;stroke:#FFA81E;stroke-width:15;stroke-linecap:round;stroke-linejoin:round;stroke-miterlimit:10;}
                    .sta28{fill:none;stroke:#FFD92D;stroke-width:15;stroke-linecap:round;stroke-linejoin:round;stroke-miterlimit:10;}
                </style>
                <ellipse class="st4" cx="211.7" cy="472.1" rx="135.6" ry="16"><animate accumulate="none" additive="replace" attributeName="rx" calcMode="linear" dur="2s" fill="remove" keyTimes="0;0.5;1" repeatCount="indefinite" rest10art="always" values="115.6;135.6;115.6">
	</animate></ellipse>
    <g>
<path class="st5" d="M130.3,303.7c-17.6,1.3-22.8,11.7-22.8,11.7c38.9,9.1,150.1,9.1,189.1,0c0,0-6.7-11.4-24.2-12.7
	C250.7,301.1,151.5,302.1,130.3,303.7z"></path>
        <path class="st6" d="M259,309.5c0,0,3.2-4.2-0.6-7.4c-3.8-3.2-108.2-1.5-112-0.3s-0.9,7.7-0.9,7.7c-3.2,5.3,1.2,7.8,1.2,7.8
	c-1.4,1.4,1.2,3.2,1.2,3.2l3.3,2.9l48.5-0.6l53.5,0.6l3.3-2.9c0,0,2.7-1.8,1.2-3.2C257.7,317.4,262.2,314.9,259,309.5z"></path>
        <path class="st7" d="M296.6,315.4c-38.9,9.1-150.1,9.1-189.1,0c0,0-6.4,101.1,50.2,116c0,0,21.6,5.3,44.3,5.1
	c22.8,0.2,44.3-5.1,44.3-5.1C303,416.5,296.6,315.4,296.6,315.4z"></path>
        <path class="st8" d="M267.6,342.3c-0.9-13.9-1.8-18.9-1.9-19.8v-0.2l0,0l0,0c0,0-0.6,0.1-1.8,0.2c-5.9,0.7-26.1,2.6-61.2,2.6
	s-55.3-1.9-61.2-2.6c-1.2-0.1-1.8-0.2-1.8-0.2l0,0l0,0v0.2c-0.2,0.9-1.1,6-1.9,19.8c-0.5,8.6,0,19.4,0,19.4s-0.1,19.3,12.2,34.8
	c0.9,1.2,2,2.4,3.1,3.5c2.7,2.8,5.1,5.2,7.9,7.3l0.1,0.1c0.1,0.1,0.2,0.1,0.3,0.2c0.9,0.6,1.8,1.2,2.8,1.8l0,0
	c0.3,0.2,0.7,0.4,1,0.6c0.2,0.1,0.5,0.3,0.7,0.4c0.1,0.1,0.2,0.1,0.3,0.2c7.1,3.4,17.3,5.2,36.1,5.2c0.1,0,0.1,0,0.2,0
	c0.1,0,0.1,0,0.2,0c0.1,0,0.1,0,0.2,0c0.1,0,0.1,0,0.2,0c18.8,0,29-1.8,36.1-5.2c0.1-0.1,0.2-0.1,0.3-0.2c0.3-0.1,0.5-0.2,0.7-0.4
	c0.4-0.2,0.7-0.4,1-0.6l0,0c1-0.6,1.9-1.2,2.8-1.8c0.1-0.1,0.2-0.1,0.3-0.2l0.1-0.1c2.8-2.1,5.2-4.5,7.9-7.3
	c1.1-1.1,2.1-2.3,3.1-3.5c12.3-15.5,12.2-34.8,12.2-34.8S268.1,350.9,267.6,342.3z"></path>
        <circle class="st9" cx="146.4" cy="328.4" r="3.8"></circle>
        <circle class="st9" cx="163.1" cy="396.9" r="3.8"></circle>
        <path class="st18" d="M263.9,322.5C263.9,322.5,263.8,322.5,263.9,322.5c-2.1,0.2-5.8,0.6-11.2,1c1.7,12.6,3.2,44.2-7.7,59.6
	c-14.7,20.9-60.4,39.3-87.2,21.7c1,0.9,2,1.8,3.1,2.6l0.1,0.1c0.1,0.1,0.2,0.1,0.3,0.2c0.9,0.6,1.8,1.2,2.8,1.8l0,0
	c0.3,0.2,0.7,0.4,1,0.6c0.2,0.1,0.5,0.3,0.7,0.4c0.1,0.1,0.2,0.1,0.3,0.2c7.1,3.4,17.3,5.2,36.1,5.2c0.1,0,0.1,0,0.2,0
	c0.1,0,0.1,0,0.2,0c0.1,0,0.1,0,0.2,0c0.1,0,0.1,0,0.2,0c18.8,0,29-1.8,36.1-5.2c0.1-0.1,0.2-0.1,0.3-0.2c0.3-0.1,0.5-0.2,0.7-0.4
	c0.4-0.2,0.7-0.4,1-0.6l0,0c1-0.6,1.9-1.2,2.8-1.8c0.1-0.1,0.2-0.1,0.3-0.2l0.1-0.1c2.8-2.1,5.2-4.5,7.9-7.3
	c1.1-1.1,2.1-2.3,3.1-3.5c12.3-15.5,12.2-34.8,12.2-34.8s0.5-10.8,0-19.4c-0.9-13.9-1.8-18.9-1.9-19.8v-0.2
	C265.6,322.3,265,322.4,263.9,322.5z"></path>
        <circle class="st11" cx="236.8" cy="350.1" r="21.6">
<animate accumulate="none" additive="replace" attributeName="fill" calcMode="linear" dur="2s" fill="remove" keyTimes="0;0.5;1" repeatCount="indefinite" restart="always" values="#272362;#0052ff;#272362">
	</animate>
</circle>
        <circle class="st9" cx="258.4" cy="328.4" r="3.8"></circle>
        <path class="st12" d="M296.6,315.4c-38.9,9.1-150.1,9.1-189.1,0c0,0-6.4,101.1,50.2,116c0,0,21.6,5.3,44.3,5.1
	c22.8,0.2,44.3-5.1,44.3-5.1C303,416.5,296.6,315.4,296.6,315.4z"></path>
        <path class="st13" d="M222.8,366.6c3.8,3.2,8.6,5.1,13.9,5.1c11.9,0,21.6-9.7,21.6-21.6c0-6.1-2.6-11.7-6.7-15.6
	c1.5,3.7,7.5,20.5-7.9,31.4C243.9,365.9,235.2,370.5,222.8,366.6z"></path>
        <path class="st1" d="M236.8,356.4c-3.5,0-6.3-2.8-6.3-6.3s2.8-6.3,6.3-6.3c3.1,0,5.7,2.3,6.2,5.3h6.4c-0.5-6.5-6-11.6-12.6-11.6
	c-7,0-12.7,5.7-12.7,12.7s5.7,12.7,12.7,12.7c6.6,0,12.1-5.1,12.6-11.6H243C242.5,354.1,239.9,356.4,236.8,356.4z"></path>
        <circle class="st9" cx="242.5" cy="396.9" r="3.8"></circle>
        <path class="st14" d="M285.9,389.7c-10.7-6.7-21.1,11-21.1,11c-16.3,29.9-51.8,35.5-51.8,35.5l0,0c18.3-1.1,33.4-4.8,33.4-4.8
	c20.5-5.4,32.8-22.1,40-41.3C286.3,389.9,286.1,389.8,285.9,389.7z"></path>
        <path class="st14" d="M138.6,400.6c0,0-10.4-17.7-21.1-11c7.2,19.3,19.5,36.2,40.2,41.7c0,0,14.8,3.6,32.7,4.8
	C190.3,436.1,154.9,430.5,138.6,400.6z"></path>
        <path class="st18" d="M153.2,320c-0.4-0.9-1.5-2-3.3-3.4c-16.3-12.2-32.1-2.1-33.9-0.8C125.7,317.7,138.6,319.1,153.2,320z"></path>
        <path class="st18" d="M261.3,320c0.4-0.9,1.5-2,3.3-3.4c16.3-12.2,32.1-2.1,33.9-0.8C288.8,317.7,275.9,319.1,261.3,320z"></path>
        <path class="st12" d="M296.6,315.4c-38.9,9.1-150.1,9.1-189.1,0c0,0-6.4,101.1,50.2,116c0,0,21.6,5.3,44.3,5.1
	c22.8,0.2,44.3-5.1,44.3-5.1C303,416.5,296.6,315.4,296.6,315.4z"></path>
        <path class="st7" d="M303.2,82c-19-9-210.9,4.6-228.5,16.3c0,0-41,24.8-40.6,72.1l4,56.2c0,0,4.5,44.7,20.9,59.6
	C75.4,301,91,308,113.4,310.4c19.7,2,67,0.6,87.8-0.5l0,0.1c1,0,2.1-0.1,3.4-0.3c1.3-0.1,2.5-0.2,3.4-0.2l0-0.1
	c20.8-1.9,67.8-7.1,87-12c21.8-5.5,36.1-14.7,50.3-31.6c14.2-17,12.3-62,12.3-62l-4-56.2C347.3,100.7,303.2,82,303.2,82z"></path>
        <path class="st1" d="M34.7,170.2l2.3,31.9c3.6-75.5,46.2-100.4,46.2-100.4l-2.5-6.6c-2.1,1-3.9,2-5.3,2.9
	C75.2,98.1,34.2,122.8,34.7,170.2z"></path>
        <path class="st14" d="M310.2,263.5c-0.6,0.4-1.3,0.9-2,1.5c-4.9,3.7-13,9.7-40.4,14.9l-59.1,5.4l-8.1,0.6l-59.3,3
	c-27.8-1.2-36.7-6.1-42.1-9c-0.8-0.4-1.5-0.8-2.2-1.2c-18.9-10.7-23.2-44.5-23.4-45.9l-2.7-38c-1.7-19.5,1.6-24.8,2.1-25.5l0.3-0.1
	l0.3-0.7c3.5-6.7,12.7-12.4,20.1-16.9c1.1-0.7,2.2-1.3,3.2-2c26.4-13.4,75.7-19,92.4-20.6l8.1-0.6c16.7-0.8,66.3-2.2,94.4,7.3
	c1.1,0.4,2.3,1,3.6,1.5c8,3.5,18,7.7,22.3,14l0.4,0.6l0.3,0.1c0.6,0.6,4.6,5.5,5.6,24.9l2.7,38C327,216.2,327.4,250.3,310.2,263.5z"></path>
        <path class="st21" d="M303.2,82c-0.2-0.1-0.4-0.1-0.5-0.2l6.9,6.7c0,0,37.8,26,36,77.9c-1.8,51.8-5.9,91.6-45.7,117.7
	c-34.5,22.6-107.3,25.9-194.9,25.2c2.7,0.5,5.5,0.8,8.4,1.2c19.7,2,67,0.6,87.8-0.5l0,0.1c1,0,2.1-0.1,3.4-0.3
	c1.3-0.1,2.5-0.2,3.4-0.2l0-0.1c20.8-1.9,67.8-7.1,87-12c21.8-5.5,36.1-14.7,50.3-31.6s12.3-62,12.3-62l-4-56.2
	C347.3,100.7,303.2,82,303.2,82z"></path>
        <path class="st22" d="M119.5,282.5c0,0-26.9-1.7-33.6-31.6c-6.7-29.9-6.3-66.5-6.3-66.5s-1.3-13.3,21.2-24.4
	c13.8-6.8,49.5-21.9,100.1-24.2c31.9-1.5,84.6-4.2,111.6,16c0,0-137.6-30.4-198.5,34C114,185.8,69.9,231.1,119.5,282.5z"></path>
        <path class="st22" d="M272.5,159.6c0,0-150.8-22.6-165,81.2c0,0-14.6-63.5,79.5-82.7C186.9,158.1,240.1,150.5,272.5,159.6z"></path>
        <path class="st12" d="M303.2,82c-19-9-210.9,4.6-228.5,16.3c0,0-41,24.8-40.6,72.1l4,56.2c0,0,4.5,44.7,20.9,59.6
	C75.4,301,91,308,113.4,310.4c19.7,2,67,0.6,87.8-0.5l0,0.1c1,0,2.1-0.1,3.4-0.3c1.3-0.1,2.5-0.2,3.4-0.2l0-0.1
	c20.8-1.9,67.8-7.1,87-12c21.8-5.5,36.1-14.7,50.3-31.6c14.2-17,12.3-62,12.3-62l-4-56.2C347.3,100.7,303.2,82,303.2,82z"></path>
        <path class="st24" d="M187.9,63.4C113.5,66.7,74.9,95.3,74.9,95.3s4.5,2.6,7.7,6.6c3.1,4,7,8.5,19.5,12.7
	c15.9,5.3,89.4,1.2,89.4,1.2s73.5-6.2,88.3-13.8c11.8-5.9,15-10.9,17.5-15.3c2.6-4.4,6.6-7.7,6.6-7.7S262,56.1,187.9,63.4z"></path>
        <polygon class="st18" points="304.8,82.8 305,78.9 301.4,81.4 "></polygon>
        <path class="st7" d="M284.2,71.4c-11.5,8.4-49.7,33.9-90.3,37c-48.7,3.7-110.4-6.9-110.4-6.9c-0.3,0.1-0.5,0.3-0.7,0.4
	c3.1,4,7.1,8.4,19.5,12.6c15.9,5.3,89.4,1.2,89.4,1.2s73.5-6.2,88.3-13.8c11.8-5.9,15-10.9,17.5-15.3c2.6-4.4,6.6-7.7,6.6-7.7
	S297.3,75.3,284.2,71.4z"></path>
        <path class="st12" d="M187.9,63.4C113.5,66.7,74.9,95.3,74.9,95.3s4.5,2.6,7.7,6.6c3.1,4,7,8.5,19.5,12.7c15.9,5.3,89.4,1.2,89.4,1.2
	s73.5-6.2,88.3-13.8c11.8-5.9,15-10.9,17.5-15.3c2.6-4.4,6.6-7.7,6.6-7.7S262,56.1,187.9,63.4z"></path>
        <linearGradient id="SVGID_1_" gradientUnits="userSpaceOnUse" x1="-99.0106" y1="217.7523" x2="167.5681" y2="217.7523" gradientTransform="matrix(0.9892 -0.1465 0.1465 0.9892 133.8771 -2.0447)">
	<stop offset="0" stayle="stop-color:#FFFFFF"></stop>
            <stop offset="0.9994" stayle="stop-color:#99AAD1"></stop>
</linearGradient>
        <path class="st26" d="M329.2,176.5c-1.2-21.1-5.7-27-7.5-28.5c-5.2-7.1-15.7-11.7-24.2-15.3c-1.3-0.5-2.5-1-3.6-1.6l-0.2-0.1
	c-14.7-5-36.3-7.8-64.4-8.2c-13.6-0.2-25.4,0.2-32.1,0.5l0-0.1l-2.5,0.2c0,0-0.6,0.1-1.6,0.1c-1,0-1.5,0.1-1.6,0.1l-2.5,0.2l0,0.1
	c-6.6,0.6-18.4,1.8-31.9,4c-27.7,4.4-48.7,10.2-62.6,17.2l-0.2,0.1c-1,0.7-2.1,1.3-3.3,2c-7.9,4.8-17.6,10.8-21.8,18.6
	c-1.6,1.7-5.1,8.2-3.3,29.3l2.7,38l0,0.1c0.1,1.5,4.5,37.7,26,49.7l0.1,0.1c0.7,0.3,1.3,0.7,2.1,1.1c5.7,3.1,15.3,8.4,44.3,9.6
	l59.7-3l0,0.2l4.1-0.4l4.1-0.2l0-0.2l59.6-5.4c28.5-5.3,37.3-11.9,42.5-15.8c0.6-0.5,1.3-1,1.9-1.4l0.1-0.1
	c19.5-15.1,18.7-51.4,18.7-52.9l0-0.1L329.2,176.5z M310.2,263.5c-0.6,0.4-1.3,0.9-2,1.5c-4.9,3.7-13,9.7-40.4,14.9l-59.1,5.4
	l-8.1,0.6l-59.3,3c-27.8-1.2-36.7-6.1-42.1-9c-0.8-0.4-1.5-0.8-2.2-1.2c-18.9-10.7-23.2-44.5-23.4-45.9l-2.7-38
	c-1.7-19.5,1.6-24.8,2.1-25.5l0.3-0.1l0.3-0.7c3.5-6.7,12.7-12.4,20.1-16.9c1.1-0.7,2.2-1.3,3.2-2c26.4-13.4,75.7-19,92.4-20.6
	l8.1-0.6c16.7-0.8,66.3-2.2,94.4,7.3c1.1,0.4,2.3,1,3.6,1.5c8,3.5,18,7.7,22.3,14l0.4,0.6l0.3,0.1c0.6,0.6,4.6,5.5,5.6,24.9l2.7,38
	C327,216.2,327.3,250.2,310.2,263.5z"></path>
        <polygon class="st18" points="74.2,98.1 74,95.2 77.1,96.5 "></polygon>
        <path class="st5" d="M202.3,306.4"></path>
        <g>
	<path class="st1" d="M197.5,317.2h-20.2"></path>
</g>
        <path class="st27" d="M202.3,269.2c4.7-0.5,8-4.7,7.5-9.4l-16.9,1.9C193.4,266.4,197.7,269.7,202.3,269.2z"></path>
        <path class="st5" d="M201.8,305.5"></path>
        <path class="st10" d="M282.7,232.2c-2.4-9.8-11.8-16.5-22.1-15.4c-10.3,1.1-17.9,9.8-18.2,19.8"></path>
        <polyline class="st10" points="157.2,246.1 135.1,230.7 116.9,250.5 "><animateTransform attributeName="transform" type="translate" repeatCount="indefinite" dur="0.4s" keyTimes="0;0.5;1" values="0 -3;0 2;0 -3"></animateTransform></polyline>
        <path class="sta18" d="M107.7,315.8c0.7-0.2,1.4-0.4,2.1-0.5c3,0.6,6.2,1.2,9.9,1.7l2.3,1.6c0,0,1.7,45-1.5,51.3
	c-1.8,3.5-4.5,5.6-6.6,6.8C106.6,349.4,107.4,321.3,107.7,315.8z"></path>
        <path class="st7" d="M108.2,309c0,0-10,11-16.1,45.3c0,0-1.2,9.1,3.4,12.9c4.3,3.5,8.7-1.8,10.4-4.5c3.5-5.3,4.1-10,6.5-21.3
	c2.4-11.3,10.6-27,10.6-27l-11.1-2.2L108.2,309z"></path>
        <path class="st21" d="M123.1,314.3c0,0-8.2,15.8-10.6,27c-2.4,11.3-3,16-6.5,21.3c-0.8,1.2-2.2,3-3.8,4.2c-0.2-1.3-0.4-2.7-0.5-4.1
	c-1.8-19.9,11.1-39.4,18.7-49L123.1,314.3z"></path>
        <path class="st12" d="M108.2,309c0,0-10,11-16.1,45.3c0,0-1.2,9.1,3.4,12.9c4.3,3.5,8.7-1.8,10.4-4.5c3.5-5.3,4.1-10,6.5-21.3
	c2.4-11.3,10.6-27,10.6-27l-11.1-2.2L108.2,309z"></path>
        <path class="st33" d="M221.4,312.6c0,0-76.6,7.5-121.8-2.5c-43.2-9.6-68.2-24.9-82.5-56.2S-29.5,126.7,64.7,42.3
	C92.7,17.2,140.8,0.9,204.6,2.1C282.1,3.6,334.9,43,356.7,73.6c26,36.6,64,189.5-53.3,227.7C285.5,306.7,264.9,310.5,221.4,312.6z"></path>
        <path class="sta21" d="M221.4,312.6c0,0-76.6,7.5-121.8-2.5c-43.2-9.6-68.2-24.9-82.5-56.2S-29.5,126.7,64.7,42.3
	C92.7,17.2,140.8,0.9,204.6,2.1C282.1,3.6,334.9,43,356.7,73.6c26,36.6,64,189.5-53.3,227.7C285.5,306.7,264.9,310.5,221.4,312.6z"></path>
        <path class="sta22" d="M328.3,59.7c0,0-124.9-40.6-174.7-9.7s-62,69.1-66.2,111.8c-4.2,42.7-49.8,96.6-67.3,57.2
	c0,0-29.6-115.5,76.5-176.1C215.6-25.1,328.3,59.7,328.3,59.7z"></path>
        <g>
	<path class="st21" d="M308.4,309.4c0,0-3.6,1-4.7,5.2s-0.5,7.9,0.3,9.5c2,4,3.4,4.9,7.6,5.3c5.6,0.5,28.7,6.2,46.8-13.4
		c0,0,6.3-12.5-2-15.3c0,0-7.1-1.6-13.6,1C336.3,304.3,317.4,309.8,308.4,309.4z"></path>
            <path class="st7" d="M337.1,323.9c4.7-1.7,11.9-8.9,13.7-12.3c1.8-3.5-3.7-8.8-3.7-8.8s-1-0.7-2.4-1.6c-0.6,0.2-1.2,0.4-1.9,0.6
		c-6.5,2.6-25.3,8.1-34.4,7.7c0,0-3.6,1-4.7,5.2c-0.3,1.1-0.4,2.2-0.5,3.2c1.5,2.7,3.2,4.9,4,5.5c1.9,1.2,3.4,1.4,6.5,2.4
		C316.9,326.6,333.2,325.3,337.1,323.9z"></path>
            <path class="st12" d="M308.4,309.4c0,0-3.6,1-4.7,5.2s-0.5,7.9,0.3,9.5c2,4,3.4,4.9,7.6,5.3c5.6,0.5,28.7,6.2,46.8-13.4
		c0,0,6.3-12.5-2-15.3c0,0-7.1-1.6-13.6,1C336.3,304.3,317.4,309.8,308.4,309.4z"></path>
</g>
        <g>
	<circle class="sta23" cx="307" cy="224.8" r="80.8"></circle>
            <path class="sta24" d="M262.5,278c-31.6-31.6-31.6-82.7,0-114.3c7.8-7.8,16.8-13.7,26.4-17.6c-14.3,3.3-27.9,10.5-39.1,21.6
		c-31.6,31.6-31.6,82.7,0,114.3c23.8,23.8,58.6,29.6,87.9,17.6C311.5,305.6,282.9,298.4,262.5,278z"></path>
            <path class="sta25" d="M374.9,181l7.8-7.8c3.4-3.4,3.4-8.8,0-12.2l-10.9-10.9c-3.4-3.4-8.8-3.4-12.2,0l-7.6,7.6
		c-23-15.5-52.3-17.8-77.2-7c26.2-6,54.8,1.2,75.2,21.6c31.6,31.6,31.6,82.7,0,114.3c-7.4,7.4-15.9,13.1-24.9,17
		c14.3-3.3,27.9-10.5,39.1-21.6C391.5,254.5,395.1,212.3,374.9,181z"></path>
            <circle class="sta24" cx="277.6" cy="242.3" r="24.5"></circle>
            <g>
		<path class="sta26" d="M383.7,199.6c-1.8,0.5-2.9,2.4-2.4,4.3c0.4,1.4,0.7,2.8,1,4.2c0.4,1.6,1.8,2.7,3.4,2.7c0.2,0,0.5,0,0.7-0.1
			c1.9-0.4,3.1-2.3,2.7-4.1c-0.3-1.5-0.7-3-1.1-4.5C387.5,200.2,385.5,199.1,383.7,199.6z"></path>
                <path class="sta26" d="M422.4,174.3c3.2-5.2,6.1-10.2,5-17.2c-1.6-9.6-10.9-20.4-23.8-21.7c-11-1.1-21.4,4.7-26.9,14.4l-2.6-2.6
			c-4.7-4.7-12.4-4.7-17.1,0l-5.7,5.7c-13.2-8.2-28.5-12.7-44.5-12.7c-22.5,0-43.7,8.8-59.6,24.7c-32.9,32.9-32.9,86.3,0,119.2
			c16.4,16.4,38,24.6,59.6,24.6c21.6,0,43.2-8.2,59.6-24.6c12-12,20-27.2,23.2-43.8c0.4-1.9-0.9-3.7-2.8-4.1
			c-1.9-0.4-3.7,0.9-4.1,2.8c-2.9,15.3-10.3,29.2-21.3,40.2c-30.2,30.2-79.2,30.2-109.4,0c-30.2-30.2-30.2-79.2,0-109.4
			c26.4-26.4,67.4-29.7,97.4-9.8c0.1,0.1,0.1,0.1,0.2,0.2c3.7,2.5,7.2,5.3,10.4,8.3c0.1,0.1,0.1,0.1,0.2,0.2
			c0.4,0.4,0.8,0.8,1.2,1.1c0.5,0.5,0.9,0.9,1.4,1.4c0,0,0,0,0.1,0.1c3.2,3.4,6.2,7.2,8.8,11.2c0.1,0.1,0.2,0.2,0.3,0.3
			c2,3.1,3.8,6.4,5.3,9.8c0.8,1.7,2.8,2.5,4.6,1.7c1.7-0.8,2.5-2.8,1.7-4.6c-1.4-3-2.9-5.9-4.6-8.7l5.9-5.9c4.7-4.7,4.7-12.4,0-17.1
			l-3.2-3.2c3.8-8.3,12.4-13.5,21-12.6c9.5,1,16.6,9,17.7,15.9c0.7,4.5-1.2,7.7-4.1,12.5c-2.3,3.8-5.1,8.4-7,14.8
			c-3.3,10.9-3,22.9,0.9,35.6c0.5,1.5,1.8,2.5,3.3,2.5c0.3,0,0.7,0,1-0.2c1.8-0.6,2.9-2.5,2.3-4.3c-3.5-11.4-3.8-22-0.9-31.6
			C417.8,182,420.2,177.9,422.4,174.3z M380.1,170.4l-4.9,4.9c-2-2.7-4.1-5.4-6.4-7.9c0,0,0,0,0,0c-0.4-0.4-0.7-0.8-1.1-1.2
			c-0.4-0.4-0.8-0.8-1.2-1.2l0,0l0,0c-0.7-0.7-1.4-1.3-2.1-2c-0.1-0.1-0.2-0.2-0.2-0.2c-2.2-2.1-4.6-4-7-5.8l4.8-4.8
			c2-2,5.3-2,7.3,0l10.9,10.9C382.1,165.1,382.1,168.4,380.1,170.4z"></path>
	</g>
            <g>
		<g>
			<line class="sta27" x1="408.1" y1="224.7" x2="395.4" y2="237.4"><animateTransform attributeName="transform" type="scale" repeatCount="indefinite" dur="0.4s" keyTimes="0;0.3;1" values="1;1.01;1"></animateTransform></line>
            <line class="sta27" x1="421.3" y1="222.9" x2="434" y2="235.7"><animateTransform attributeName="transform" type="scale" repeatCount="indefinite" dur="0.2s" keyTimes="0;0.2;1" values="1;1.01;1"></animateTransform></line>
		</g>
                <line class="sta28" x1="415" y1="226.6" x2="415" y2="244.6"><animateTransform attributeName="transform" type="scale" repeatCount="indefinite" dur="0.3s" keyTimes="0;0.45;1" values="1;1.01;1"></animateTransform></line>
	</g>
            <g>
		<path class="st1" d="M266.1,280.9c-0.7,0-1.4-0.2-2.1-0.7c-9.8-7.3-14.8-14.5-19.3-23.2c-0.9-1.7-0.2-3.8,1.5-4.7
			c1.7-0.9,3.8-0.2,4.7,1.5c4.2,8,8.5,14.3,17.3,20.8c1.5,1.1,1.9,3.3,0.7,4.9C268.3,280.4,267.2,280.9,266.1,280.9z"></path>
                <path class="st1" d="M243.9,248.2c-1.5,0-2.9-1-3.3-2.5l-0.1-0.4c-0.1-0.3-0.1-0.3-0.2-0.6l-0.1-0.4c-0.5-1.9,0.7-3.7,2.6-4.2
			c1.9-0.5,3.7,0.7,4.2,2.6l0.1,0.4c0,0.2,0,0.2,0.1,0.3l0.1,0.4c0.5,1.8-0.5,3.8-2.4,4.3C244.5,248.1,244.2,248.2,243.9,248.2z"></path>
	</g>
            <animateTransform attributeName="transform" type="translate" repeatCount="indefinite" dur="0.6s" keyTimes="0;0.2;1" values="0 -3;0 2;0 -3"></animateTransform>
</g>
        <animateTransform attributeName="transform" type="translate" repeatCount="indefinite" dur="2s" keyTimes="0;0.5;1" values="0 -3;0 5;0 -3"></animateTransform>
        </g>
</svg>