<svg xmlns="http://www.w3.org/2000/svg" x="0px" y="0px" viewBox="0 -10 428.8 441"  xml:space="preserve">
    <style type="text/css">
                    .st1 {fill: #FFFFFF;}
                    .st24 {fill: #fbf9f9;}
                    .st7 {fill: #EFEFEF;}
                    .st21 {fill: #d6d6d6;}
                    .st13 {opacity:0.1;fill:#FFFFFF;}
                    .st6618{fill:#ECF0F1;}
                    .st35 {fill: #E0E0E0;}
                    .st45 {fill: #E3E3E3;}
                    .st51 {fill: #E1E1E1;}
                    .st52 {fill: #FDFDFB;}
                    .st625{fill:#D1D1D1;}
                    .st5 {fill: #606373;}
                    .st4 {opacity:0.1;fill:#3E3A39;}
                    .st6 {fill: #11113B;}
                    .st8 {fill: #B1B1C9;}
                    .st9 {fill:#DCDBEA;stroke:#8D8DAA;stroke-miterlimit: 10;}
                    .st18 {fill: #8D8DAA;}
                    .st12 {fill: none;stroke:#8D8DAA;stroke-miterlimit: 10;}
                    .st11 {fill: #0052ff;stroke:#FFFFFF;stroke-miterlimit: 10;}
                    .st14 {fill: #060423;}
                    .st22 {fill: #ffffff24;}
                    .st26 {fill: url(#SVGID_1_);}
                    .st27 {fill: #2CFBFB;}
                    .st47 {fill: #ffffff24;}
                    .st1019 {fill: #882043;}
                    .st1021 {opacity: 0.3;fill: #16DAE8;}
                    .st1022 {opacity: 0.3;fill: #1FDBE7;}
                    .st1023 {opacity: 0.5;fill: #BA8887;}
                    .st1024 {fill: #212154;}
                    .st1026 {fill: none;}
                    .st1029 {fill: #5497D3;}
                    .st1030 {fill: #2775CA;}
                    .st1031 {fill: #FFDE55;}
                    .st1032 {fill: #FFCE00;}
                    .st1034 {fill: #E33F00;}
                    .st10{fill:none;stroke:#2CFBFB;stroke-width:8;stroke-linecap:round;stroke-miterlimit:10;}
                    .st33{fill:none;stroke:#2CFBFB;stroke-width:2;stroke-linecap:round;stroke-miterlimit:10;}
                    .st716{fill:#56256B;}
                    .st717{fill:#00A8E1;}
                    .st718{fill:#E26D83;}
                    .st719{fill:#D85C72;}
                    .st720{fill:#803743;}
                    .st721{fill:#0071CE;}
                    .st6619{fill:#F87F6E;}
                    .st6620{fill:#231F20;}
                    .st6621{fill:#212154;}
                    .st32 {fill: #77788B;}
                    .st38 {fill: #9A9AB7;}
                    .st39 {fill:#060423;stroke:#FFFFFF;stroke-miterlimit: 10;}
                    .st43 {fill: #212154;}
                    .st54 {opacity:0.3;fill:#B1B1C9;}
                    .st55 {opacity:0.3;fill:#FFFFFF;}
                    .st615{fill:#9B9BA2;}
                    .st620{fill:#FFD469;}
                    .st621{fill:#00B1FF;}
                    .st622{fill:#0096D1;}
                    .st623{fill:#727272;}
                    .st624{fill:#B2B2B2;}
                    .st816{fill:#9B9BA2;}
                    .st820{fill:#75B7B1;}
                    .st823{opacity:0.8;}
                    .st824{opacity:0.6;}
                    .st826{fill:none;stroke:#01DEEB;stroke-width:2;stroke-miterlimit:10;}
                    .sta18{fill:#9B9BA2;}
                    .sta21{opacity:0.1;fill:#3AECFE;}
                    .sta22{opacity:0.2;fill:#FFFFFF;}
                    .sta23{fill:#956EC4;}
                    .sta24{fill:#B77FD8;}
                    .sta25{fill:#6D2C92;}
                    .sta26{fill:#1C2042;}
                    .stb1{fill:#F87F6E;}
                    .stb2{fill:#D65649;}
                    .stb6{fill:#882043;}
                    .sta27{fill:none;stroke:#FFA81E;stroke-width:15;stroke-linecap:round;stroke-linejoin:round;stroke-miterlimit:10;}
                    .sta28{fill:none;stroke:#FFD92D;stroke-width:15;stroke-linecap:round;stroke-linejoin:round;stroke-miterlimit:10;}
                </style>
                <ellipse ry="16" rx="135.6" cy="414" cx="170.2" class="st4"><animate attributeName="rx" repeatCount="indefinite" dur="2s" keyTimes="0;0.5;1" values="115.6;135.6;115.6"></animate></ellipse>
  <g>
<path class="st5" d="M98.2,241.8c-17.6,1.3-22.8,11.7-22.8,11.7c38.9,9.1,150.1,9.1,189.1,0c0,0-6.7-11.4-24.2-12.7
	C218.6,239.2,119.4,240.2,98.2,241.8z"></path>
    <path class="st6" d="M226.9,247.6c0,0,3.2-4.2-0.6-7.4s-108.2-1.5-112-0.3s-0.9,7.7-0.9,7.7c-3.2,5.3,1.2,7.8,1.2,7.8
	c-1.4,1.4,1.2,3.2,1.2,3.2l3.3,2.9l48.5-0.6l53.5,0.6l3.3-2.9c0,0,2.7-1.8,1.2-3.2C225.6,255.5,230.1,253,226.9,247.6z"></path>
    <path class="st7" d="M264.5,253.5c-38.9,9.1-150.1,9.1-189.1,0c0,0-6.4,101.1,50.2,116c0,0,21.6,5.3,44.3,5.1
	c22.8,0.2,44.3-5.1,44.3-5.1C270.9,354.6,264.5,253.5,264.5,253.5z"></path>
    <path class="st8" d="M235.5,280.4c-0.9-13.9-1.8-18.9-1.9-19.8v-0.2l0,0l0,0c0,0-0.6,0.1-1.8,0.2c-5.9,0.7-26.1,2.6-61.2,2.6
	s-55.3-1.9-61.2-2.6c-1.2-0.1-1.8-0.2-1.8-0.2l0,0l0,0v0.2c-0.2,0.9-1.1,6-1.9,19.8c-0.5,8.6,0,19.4,0,19.4s-0.1,19.3,12.2,34.8
	c0.9,1.2,2,2.4,3.1,3.5c2.7,2.8,5.1,5.2,7.9,7.3l0.1,0.1c0.1,0.1,0.2,0.1,0.3,0.2c0.9,0.6,1.8,1.2,2.8,1.8l0,0
	c0.3,0.2,0.7,0.4,1,0.6c0.2,0.1,0.5,0.3,0.7,0.4c0.1,0.1,0.2,0.1,0.3,0.2c7.1,3.4,17.3,5.2,36.1,5.2c0.1,0,0.1,0,0.2,0
	c0.1,0,0.1,0,0.2,0c0.1,0,0.1,0,0.2,0c0.1,0,0.1,0,0.2,0c18.8,0,29-1.8,36.1-5.2c0.1-0.1,0.2-0.1,0.3-0.2c0.3-0.1,0.5-0.2,0.7-0.4
	c0.4-0.2,0.7-0.4,1-0.6l0,0c1-0.6,1.9-1.2,2.8-1.8c0.1-0.1,0.2-0.1,0.3-0.2l0.1-0.1c2.8-2.1,5.2-4.5,7.9-7.3
	c1.1-1.1,2.1-2.3,3.1-3.5c12.3-15.5,12.2-34.8,12.2-34.8S236,289,235.5,280.4z"></path>
    <circle class="st9" cx="114.3" cy="266.5" r="3.8"></circle>
    <circle class="st9" cx="131" cy="335" r="3.8"></circle>
    <path class="st18" d="M231.8,260.6C231.8,260.6,231.7,260.6,231.8,260.6c-2.1,0.2-5.8,0.6-11.2,1c1.7,12.6,3.2,44.2-7.7,59.6
	c-14.7,20.9-60.4,39.3-87.2,21.7c1,0.9,2,1.8,3.1,2.6l0.1,0.1c0.1,0.1,0.2,0.1,0.3,0.2c0.9,0.6,1.8,1.2,2.8,1.8l0,0
	c0.3,0.2,0.7,0.4,1,0.6c0.2,0.1,0.5,0.3,0.7,0.4c0.1,0.1,0.2,0.1,0.3,0.2c7.1,3.4,17.3,5.2,36.1,5.2c0.1,0,0.1,0,0.2,0
	c0.1,0,0.1,0,0.2,0c0.1,0,0.1,0,0.2,0c0.1,0,0.1,0,0.2,0c18.8,0,29-1.8,36.1-5.2c0.1-0.1,0.2-0.1,0.3-0.2c0.3-0.1,0.5-0.2,0.7-0.4
	c0.4-0.2,0.7-0.4,1-0.6l0,0c1-0.6,1.9-1.2,2.8-1.8c0.1-0.1,0.2-0.1,0.3-0.2l0.1-0.1c2.8-2.1,5.2-4.5,7.9-7.3
	c1.1-1.1,2.1-2.3,3.1-3.5c12.3-15.5,12.2-34.8,12.2-34.8s0.5-10.8,0-19.4c-0.9-13.9-1.8-18.9-1.9-19.8v-0.2
	C233.5,260.4,232.9,260.5,231.8,260.6z"></path>
    <circle class="st11" cx="204.7" cy="288.2" r="21.6">
<animate accumulate="none" additive="replace" attributeName="fill" calcMode="linear" dur="2s" fill="remove" keyTimes="0;0.5;1" repeatCount="indefinite" rest6art="always" values="#272362;#0052ff;#272362">
	</animate>
</circle>
    <circle class="st9" cx="226.3" cy="266.5" r="3.8"></circle>
    <path class="st12" d="M264.5,253.5c-38.9,9.1-150.1,9.1-189.1,0c0,0-6.4,101.1,50.2,116c0,0,21.6,5.3,44.3,5.1
	c22.8,0.2,44.3-5.1,44.3-5.1C270.9,354.6,264.5,253.5,264.5,253.5z"></path>
    <path class="st13" d="M190.7,304.7c3.8,3.2,8.6,5.1,13.9,5.1c11.9,0,21.6-9.7,21.6-21.6c0-6.1-2.6-11.7-6.7-15.6
	c1.5,3.7,7.5,20.5-7.9,31.4C211.8,304,203.1,308.6,190.7,304.7z"></path>
    <path class="st1" d="M204.7,294.5c-3.5,0-6.3-2.8-6.3-6.3s2.8-6.3,6.3-6.3c3.1,0,5.7,2.3,6.2,5.3h6.4c-0.5-6.5-6-11.6-12.6-11.6
	c-7,0-12.7,5.7-12.7,12.7s5.7,12.7,12.7,12.7c6.6,0,12.1-5.1,12.6-11.6h-6.4C210.4,292.2,207.8,294.5,204.7,294.5z"></path>
    <circle class="st9" cx="210.4" cy="335" r="3.8"></circle>
    <path class="st14" d="M253.8,327.8c-10.7-6.7-21.1,11-21.1,11c-16.3,29.9-51.8,35.5-51.8,35.5l0,0c18.3-1.1,33.4-4.8,33.4-4.8
	c20.5-5.4,32.8-22.1,40-41.3C254.2,328,254,327.9,253.8,327.8z"></path>
    <path class="st14" d="M106.5,338.7c0,0-10.4-17.7-21.1-11c7.2,19.3,19.5,36.2,40.2,41.7c0,0,14.8,3.6,32.7,4.8
	C158.2,374.2,122.8,368.6,106.5,338.7z"></path>
    <path class="st18" d="M121.1,258c-0.4-0.9-1.5-2-3.3-3.4c-16.3-12.2-32.1-2.1-33.9-0.8C93.6,255.7,106.5,257.1,121.1,258z"></path>
    <path class="st18" d="M229.2,258c0.4-0.9,1.5-2,3.3-3.4c16.3-12.2,32.1-2.1,33.9-0.8C256.7,255.7,243.8,257.1,229.2,258z"></path>
    <path class="st12" d="M264.5,253.5c-38.9,9.1-150.1,9.1-189.1,0c0,0-6.4,101.1,50.2,116c0,0,21.6,5.3,44.3,5.1
	c22.8,0.2,44.3-5.1,44.3-5.1C270.9,354.6,264.5,253.5,264.5,253.5z"></path>
    <path class="st7" d="M271.1,20c-19-9-210.9,4.6-228.5,16.3c0,0-41,24.8-40.6,72.1l4,56.2c0,0,4.5,44.7,20.9,59.6
	s31.9,21.9,54.3,24.2c19.7,2,67,0.6,87.8-0.5l0,0.1c1,0,2.1-0.1,3.4-0.3c1.3-0.1,2.5-0.2,3.4-0.2l0-0.1c20.8-1.9,67.8-7.1,87-12
	c21.8-5.5,36.1-14.7,50.3-31.6c14.2-17,12.3-62,12.3-62l-4-56.2C315.2,38.8,271.1,20,271.1,20z"></path>
    <path class="st1" d="M2.6,108.2l2.3,31.9C8.4,64.6,51.1,39.8,51.1,39.8l-2.5-6.6c-2.1,1-3.9,2-5.3,2.9C43.1,36.1,2.1,60.9,2.6,108.2
	z"></path>
    <path class="st14" d="M278.1,201.6c-0.6,0.4-1.3,0.9-2,1.5c-4.9,3.7-13,9.7-40.4,14.9l-59.1,5.4l-8.1,0.6l-59.3,3
	c-27.8-1.2-36.7-6.1-42.1-9c-0.8-0.4-1.5-0.8-2.2-1.2c-18.9-10.7-23.2-44.5-23.4-45.9l-2.7-38c-1.7-19.5,1.6-24.8,2.1-25.5l0.3-0.1
	l0.3-0.7c3.5-6.7,12.7-12.4,20.1-16.9c1.1-0.7,2.2-1.3,3.2-2c26.4-13.4,75.7-19,92.4-20.6l8.1-0.6c16.7-0.8,66.3-2.2,94.4,7.3
	c1.1,0.4,2.3,1,3.6,1.5c8,3.5,18,7.7,22.3,14L286,90l0.3,0.1c0.6,0.6,4.6,5.5,5.6,24.9l2.7,38C294.9,154.3,295.3,188.3,278.1,201.6z
	"></path>
    <path class="st21" d="M271.1,20c-0.2-0.1-0.4-0.1-0.5-0.2l6.9,6.7c0,0,37.8,26,36,77.9c-1.8,51.8-5.9,91.6-45.7,117.7
	c-34.5,22.6-107.3,25.9-194.9,25.2c2.7,0.5,5.5,0.8,8.4,1.2c19.7,2,67,0.6,87.8-0.5l0,0.1c1,0,2.1-0.1,3.4-0.3
	c1.3-0.1,2.5-0.2,3.4-0.2l0-0.1c20.8-1.9,67.8-7.1,87-12c21.8-5.5,36.1-14.7,50.3-31.6c14.2-17,12.3-62,12.3-62l-4-56.2
	C315.2,38.8,271.1,20,271.1,20z"></path>
    <path class="st22" d="M87.4,220.5c0,0-26.9-1.7-33.6-31.6s-6.3-66.5-6.3-66.5S46.3,109.1,68.7,98c13.8-6.8,49.5-21.9,100.1-24.2
	c31.9-1.5,84.6-4.2,111.6,16c0,0-137.6-30.4-198.5,34C81.9,123.9,37.8,169.1,87.4,220.5z"></path>
    <path class="st22" d="M240.4,97.7c0,0-150.8-22.6-165,81.2c0,0-14.6-63.5,79.5-82.7C154.8,96.2,208,88.5,240.4,97.7z"></path>
    <path class="st12" d="M271.1,20c-19-9-210.9,4.6-228.5,16.3c0,0-41,24.8-40.6,72.1l4,56.2c0,0,4.5,44.7,20.9,59.6
	s31.9,21.9,54.3,24.2c19.7,2,67,0.6,87.8-0.5l0,0.1c1,0,2.1-0.1,3.4-0.3c1.3-0.1,2.5-0.2,3.4-0.2l0-0.1c20.8-1.9,67.8-7.1,87-12
	c21.8-5.5,36.1-14.7,50.3-31.6c14.2-17,12.3-62,12.3-62l-4-56.2C315.2,38.8,271.1,20,271.1,20z"></path>
    <path class="st24" d="M155.8,1.4C81.4,4.8,42.8,33.3,42.8,33.3s4.5,2.6,7.7,6.6c3.1,4,7,8.5,19.5,12.7c15.9,5.3,89.4,1.2,89.4,1.2
	s73.5-6.2,88.3-13.8c11.8-5.9,15-10.9,17.5-15.3s6.6-7.7,6.6-7.7S229.9-5.8,155.8,1.4z"></path>
    <polygon class="st18" points="272.7,20.8 272.9,16.9 269.3,19.5 "></polygon>
    <path class="st7" d="M252.1,9.4c-11.5,8.4-49.7,33.9-90.3,37C113,50.1,51.3,39.5,51.3,39.5c-0.3,0.1-0.5,0.3-0.7,0.4
	c3.1,4,7.1,8.4,19.5,12.6c15.9,5.3,89.4,1.2,89.4,1.2s73.5-6.2,88.3-13.8c11.8-5.9,15-10.9,17.5-15.3c2.6-4.4,6.6-7.7,6.6-7.7
	S265.2,13.3,252.1,9.4z"></path>
    <path class="st12" d="M155.8,1.4C81.4,4.8,42.8,33.3,42.8,33.3s4.5,2.6,7.7,6.6c3.1,4,7,8.5,19.5,12.7c15.9,5.3,89.4,1.2,89.4,1.2
	s73.5-6.2,88.3-13.8c11.8-5.9,15-10.9,17.5-15.3s6.6-7.7,6.6-7.7S229.9-5.8,155.8,1.4z"></path>
    <linearGradient id="SVGID_1_" gradientUnits="userSpaceOnUse" x1="-141.811" y1="159.6015" x2="124.7677" y2="159.6015" gradientTransform="matrix(0.9892 -0.1465 0.1465 0.9892 152.6277 -12.752)">
	<stop offset="0" style="stop-color:#FFFFFF"></stop>
      <stop offset="0.9994" style="stop-color:#99AAD1"></stop>
</linearGradient>
    <path class="st26" d="M297.1,114.5c-1.2-21.1-5.7-27-7.5-28.5c-5.2-7.1-15.7-11.7-24.2-15.3c-1.3-0.5-2.5-1-3.6-1.6l-0.2-0.1
	c-14.7-5-36.3-7.8-64.4-8.2c-13.6-0.2-25.4,0.2-32.1,0.5l0-0.1l-2.5,0.2c0,0-0.6,0.1-1.6,0.1c-1,0-1.5,0.1-1.6,0.1l-2.5,0.2l0,0.1
	c-6.6,0.6-18.4,1.8-31.9,4c-27.7,4.4-48.7,10.2-62.6,17.2l-0.2,0.1c-1,0.7-2.1,1.3-3.3,2c-7.9,4.8-17.6,10.8-21.8,18.6
	c-1.6,1.7-5.1,8.2-3.3,29.3l2.7,38l0,0.1c0.1,1.5,4.5,37.7,26,49.7l0.1,0.1c0.7,0.3,1.3,0.7,2.1,1.1c5.7,3.1,15.3,8.4,44.3,9.6
	l59.7-3l0,0.2l4.1-0.4l4.1-0.2l0-0.2l59.6-5.4c28.5-5.3,37.3-11.9,42.5-15.8c0.6-0.5,1.3-1,1.9-1.4l0.1-0.1
	c19.5-15.1,18.7-51.4,18.7-52.9l0-0.1L297.1,114.5z M278.1,201.6c-0.6,0.4-1.3,0.9-2,1.5c-4.9,3.7-13,9.7-40.4,14.9l-59.1,5.4
	l-8.1,0.6l-59.3,3c-27.8-1.2-36.7-6.1-42.1-9c-0.8-0.4-1.5-0.8-2.2-1.2c-18.9-10.7-23.2-44.5-23.4-45.9l-2.7-38
	c-1.7-19.5,1.6-24.8,2.1-25.5l0.3-0.1l0.3-0.7c3.5-6.7,12.7-12.4,20.1-16.9c1.1-0.7,2.2-1.3,3.2-2c26.4-13.4,75.7-19,92.4-20.6
	l8.1-0.6c16.7-0.8,66.3-2.2,94.4,7.3c1.1,0.4,2.3,1,3.6,1.5c8,3.5,18,7.7,22.3,14L286,90l0.3,0.1c0.6,0.6,4.6,5.5,5.6,24.9l2.7,38
	C294.9,154.3,295.2,188.2,278.1,201.6z"></path>
    <polygon class="st18" points="42.1,36.1 41.9,33.2 45,34.5 "></polygon>
    <path class="st5" d="M170.2,244.4"></path>
    <g>
	<path class="st1" d="M165.4,255.3h-20.2"></path>
</g>
    <path class="st615" d="M76.2,255.2c0.7-0.2,1.4-0.4,2.1-0.5c3,0.6,6.2,1.2,9.9,1.7l2.3,1.6c0,0,1.7,45-1.5,51.3
	c-1.8,3.5-4.5,5.6-6.6,6.8C75,288.9,75.9,260.7,76.2,255.2z"></path>
    <path class="st7" d="M75.7,254.1c0,0-7.8,12.6-7.5,47.5c0,0,0.6,9.2,5.8,12c4.9,2.6,8.2-3.4,9.4-6.3c2.5-5.9,2.1-10.6,2.5-22.2
	s5.4-28.5,5.4-28.5L80,256.4L75.7,254.1z"></path>
    <path class="st21" d="M91.3,256.5c0,0-5.1,17-5.4,28.5s0,16.3-2.5,22.2c-0.6,1.4-1.6,3.3-3,4.9c-0.4-1.2-0.9-2.6-1.3-4
	c-5.5-19.2,3.7-40.8,9.4-51.6L91.3,256.5z"></path>
    <path class="st12" d="M75.7,254.1c0,0-7.8,12.6-7.5,47.5c0,0,0.6,9.2,5.8,12c4.9,2.6,8.2-3.4,9.4-6.3c2.5-5.9,2.1-10.6,2.5-22.2
	s5.4-28.5,5.4-28.5L80,256.4L75.7,254.1z"></path>

    <path class="st27" d="M170.2,207.3c4.7-0.5,8-4.7,7.5-9.4l-16.9,1.9C161.3,204.4,165.5,207.8,170.2,207.3z"></path>
    <path class="st5" d="M169.7,243.5"></path>
    <path class="st10" d="M250.6,170.2c-2.4-9.8-11.8-16.5-22.1-15.4c-10.3,1.1-17.9,9.8-18.2,19.8"><animateTransform attributeName="transform" type="translate" repeatCount="indefinite" dur="0.4s" keyTimes="0;0.5;1" values="0 -3;0 2;0 -3"></animateTransform></path>
    <path class="st10" d="M125.1,184.1c-2.4-9.8-11.8-16.5-22.1-15.4c-10.3,1.1-17.9,9.8-18.2,19.8"><animateTransform attributeName="transform" type="translate" repeatCount="indefinite" dur="0.4s" keyTimes="0;0.5;1" values="0 -3;0 2;0 -3"></animateTransform></path>
    <g>
	<path class="st620" d="M353.4,161.6L392,136c1.6-1.1,3.9-0.4,4.7,1.5l5.5,12.8c0.8,1.8-0.2,3.8-1.9,4.3l-44,12.7
	C352.7,168.3,350.5,163.6,353.4,161.6L353.4,161.6z"><animateTransform attributeName="transform" type="scale" repeatCount="indefinite" dur="1s" keyTimes="0;0.45;1" values="1;1.05;1"></animateTransform></path>
      <path class="st620" d="M353.7,190.7c0,1.3,1,2.4,2.3,2.5l36.6,4.3c1.5,0.2,2.8-1.1,2.7-2.5c0,0-0.2-11-0.2-11c0-1.6-1.5-2.8-3-2.5
	l-36.4,6.7C354.6,188.4,353.7,189.5,353.7,190.7L353.7,190.7z"><animateTransform attributeName="transform" type="scale" repeatCount="indefinite" dur="1s" keyTimes="0;0.5;1" values="1;1.03;1"></animateTransform></path>
      <path class="st620" d="M333.9,146.5c0.9,0.9,2.4,1,3.4,0.2l28.1-23.1c1.2-0.9,1.2-2.7,0.1-3.8c0,0-7.9-7.8-7.9-7.8
	c-1.1-1.1-3-1-3.9,0.3l-20.3,30.9C332.8,144.3,333,145.7,333.9,146.5L333.9,146.5z"><animateTransform attributeName="transform" type="scale" repeatCount="indefinite" dur="1s" keyTimes="0;0.4;1" values="1;1.03;1"></animateTransform></path>
      <path class="st621" d="M249.2,304.7l-7.7,2.6c-6.3,2.1-13.2-1.3-15.4-7.7l-12.7-35.6c-2.3-6.4,1-13.3,7.2-15.4l7.7-2.6
		c6.3-2.1,13.2,1.3,15.4,7.7l12.7,35.6C258.7,295.6,255.4,302.5,249.2,304.7z"></path>
      <path class="st622" d="M212.2,264.4l74-22.5l-32.9-82.4l-69.1,32.5C158.2,208.5,182.8,268.9,212.2,264.4z"></path>
      <path class="st623" d="M337.8,174.7c35.5,93.5,4.6,105.4-34.1,13.1C268.3,94.3,299.2,82.4,337.8,174.7L337.8,174.7z"></path>
      <path class="st624" d="M295.9,155.5c7.8-3,19.6,8.3,26.3,25.2c15.4,40.9-11.2,51.2-28.2,10.8C287.3,174.7,288.1,158.5,295.9,155.5z"></path>
      <path class="st625" d="M348.4,251.5c-8.2,3.2-28.5-28.3-42.8-64.4c-13.9-36.3-23-74.3-11.6-76.1c-3.5-0.8-7.2,0.3-9.9,3.7
		c-12,15.2-41.5,48.2-41.5,48.2c-18.3,18.4,7.6,82.6,34,83.7c0,0,44.1,4.8,63.3,8c4.5,0.7,8.1-1.1,10.1-4.2
		C349.4,250.9,348.9,251.3,348.4,251.5L348.4,251.5z"></path>
      <path class="st621" d="M190.9,214.2c-5.8-1.2-7.2-9.7-1.2-12.1c0,0,28.1-10.8,28.1-10.8c7.7-2.7,12.2,8.6,4.7,11.8
		c0,0-28.1,10.8-28.1,10.8C193.2,214.3,192,214.4,190.9,214.2z"></path>
</g>
    <g>
	<path class="st21" d="M265.5,257.8c0,0-9.3,14.2-20.6,20.7c-14.3,8.2-20.5,12.8-22.4,18c-1.9,5.1,6.1,9.4,17.6,8.2
		s19.8-8.3,25.2-14c5.4-5.7,17.3-10.7,12.8-24.8C273.6,251.8,265.5,257.8,265.5,257.8z"></path>
      <path class="st12" d="M265.5,257.8c0,0-9.3,14.2-20.6,20.7c-14.3,8.2-20.5,12.8-22.4,18c-1.9,5.1,6.1,9.4,17.6,8.2s19.8-8.3,25.2-14
		c5.4-5.7,17.3-10.7,12.8-24.8C273.6,251.8,265.5,257.8,265.5,257.8z"></path>
      <path class="st7" d="M265.5,257.8c0,0-9.3,14.2-20.6,20.7c-9.2,5.3-15.1,9.1-18.6,12.5c3.2,11.7,17,8.9,20,7.6
		c3.4-1.6,8-6.4,13.6-10.8c5.6-4.3,9.6-13.2,10.2-18.2c0.3-2.9-1.2-8.4-3.1-12.6C266,257.4,265.5,257.8,265.5,257.8z"></path>
</g>
    <animateTransform attributeName="transform" type="translate" repeatCount="indefinite" dur="2s" keyTimes="0;0.5;1" values="0 -3;0 5;0 -3"></animateTransform></g>
</svg>