<svg xmlns="http://www.w3.org/2000/svg"  x="0px" y="0px" viewBox="0 -10 353.3 443.1" xml:space="preserve">
     <style type="text/css">
                    .st1 {fill: #FFFFFF;}
                    .st24 {fill: #fbf9f9;}
                    .st7 {fill: #EFEFEF;}
                    .st21 {fill: #d6d6d6;}
                    .st13 {opacity:0.1;fill:#FFFFFF;}
                    .st6618{fill:#ECF0F1;}
                    .st35 {fill: #E0E0E0;}
                    .st45 {fill: #E3E3E3;}
                    .st51 {fill: #E1E1E1;}
                    .st52 {fill: #FDFDFB;}
                    .st625{fill:#D1D1D1;}
                    .st5 {fill: #606373;}
                    .st4 {opacity:0.1;fill:#3E3A39;}
                    .st6 {fill: #11113B;}
                    .st8 {fill: #B1B1C9;}
                    .st9 {fill:#DCDBEA;stroke:#8D8DAA;stroke-miterlimit: 10;}
                    .st18 {fill: #8D8DAA;}
                    .st12 {fill: none;stroke:#8D8DAA;stroke-miterlimit: 10;}
                    .st11 {fill: #0052ff;stroke:#FFFFFF;stroke-miterlimit: 10;}
                    .st14 {fill: #060423;}
                    .st22 {fill: #ffffff24;}
                    .st26 {fill: url(#SVGID_1_);}
                    .st27 {fill: #2CFBFB;}
                    .st47 {fill: #ffffff24;}
                    .st1019 {fill: #882043;}
                    .st1021 {opacity: 0.3;fill: #16DAE8;}
                    .st1022 {opacity: 0.3;fill: #1FDBE7;}
                    .st1023 {opacity: 0.5;fill: #BA8887;}
                    .st1024 {fill: #212154;}
                    .st1026 {fill: none;}
                    .st1029 {fill: #5497D3;}
                    .st1030 {fill: #2775CA;}
                    .st1031 {fill: #FFDE55;}
                    .st1032 {fill: #FFCE00;}
                    .st1034 {fill: #E33F00;}
                    .st10{fill:none;stroke:#2CFBFB;stroke-width:8;stroke-linecap:round;stroke-miterlimit:10;}
                    .st33{fill:none;stroke:#2CFBFB;stroke-width:2;stroke-linecap:round;stroke-miterlimit:10;}
                    .st716{fill:#56256B;}
                    .st717{fill:#00A8E1;}
                    .st718{fill:#E26D83;}
                    .st719{fill:#D85C72;}
                    .st720{fill:#803743;}
                    .st721{fill:#0071CE;}
                    .st6619{fill:#F87F6E;}
                    .st6620{fill:#231F20;}
                    .st6621{fill:#212154;}
                    .st32 {fill: #77788B;}
                    .st38 {fill: #9A9AB7;}
                    .st39 {fill:#060423;stroke:#FFFFFF;stroke-miterlimit: 10;}
                    .st43 {fill: #212154;}
                    .st54 {opacity:0.3;fill:#B1B1C9;}
                    .st55 {opacity:0.3;fill:#FFFFFF;}
                    .st615{fill:#9B9BA2;}
                    .st620{fill:#FFD469;}
                    .st621{fill:#00B1FF;}
                    .st622{fill:#0096D1;}
                    .st623{fill:#727272;}
                    .st624{fill:#B2B2B2;}
                    .st816{fill:#9B9BA2;}
                    .st820{fill:#75B7B1;}
                    .st823{opacity:0.8;}
                    .st824{opacity:0.6;}
                    .st826{fill:none;stroke:#01DEEB;stroke-width:2;stroke-miterlimit:10;}
                    .sta18{fill:#9B9BA2;}
                    .sta21{opacity:0.1;fill:#3AECFE;}
                    .sta22{opacity:0.2;fill:#FFFFFF;}
                    .sta23{fill:#956EC4;}
                    .sta24{fill:#B77FD8;}
                    .sta25{fill:#6D2C92;}
                    .sta26{fill:#1C2042;}
                    .stb1{fill:#F87F6E;}
                    .stb2{fill:#D65649;}
                    .stb6{fill:#882043;}
                    .sta27{fill:none;stroke:#FFA81E;stroke-width:15;stroke-linecap:round;stroke-linejoin:round;stroke-miterlimit:10;}
                    .sta28{fill:none;stroke:#FFD92D;stroke-width:15;stroke-linecap:round;stroke-linejoin:round;stroke-miterlimit:10;}
                </style>
                <ellipse class="st4" cx="167.6" cy="417.1" rx="135.6" ry="16">
<animate accumulate="none" additive="replace" attributeName="rx" calcMode="linear" dur="2s" fill="remove" keyTimes="0;0.5;1" repeatCount="indefinite" restart="always" values="115.6;135.6;115.6">
	</animate>
</ellipse>
    <g>
                <path class="st5" d="M96.1,243.1c-17.6,1.3-22.8,11.7-22.8,11.7c38.9,9.1,150.1,9.1,189.1,0c0,0-6.7-11.4-24.2-12.7
	C216.5,240.5,117.3,241.5,96.1,243.1z"></path>
        <path class="st6" d="M224.8,248.9c0,0,3.2-4.2-0.6-7.4s-108.2-1.5-112-0.3s-0.9,7.7-0.9,7.7c-3.2,5.3,1.2,7.8,1.2,7.8
	c-1.4,1.4,1.2,3.2,1.2,3.2l3.3,2.9l48.5-0.6l53.5,0.6l3.3-2.9c0,0,2.7-1.8,1.2-3.2C223.5,256.8,228,254.3,224.8,248.9z"></path>
        <path class="st7" d="M262.4,254.8c-38.9,9.1-150.1,9.1-189.1,0c0,0-6.4,101.1,50.2,116c0,0,21.6,5.3,44.3,5.1
	c22.8,0.2,44.3-5.1,44.3-5.1C268.8,355.9,262.4,254.8,262.4,254.8z"></path>
        <path class="st8" d="M233.4,281.7c-0.9-13.9-1.8-18.9-1.9-19.8v-0.2l0,0l0,0c0,0-0.6,0.1-1.8,0.2c-5.9,0.7-26.1,2.6-61.2,2.6
	s-55.3-1.9-61.2-2.6c-1.2-0.1-1.8-0.2-1.8-0.2l0,0l0,0v0.2c-0.2,0.9-1.1,6-1.9,19.8c-0.5,8.6,0,19.4,0,19.4s-0.1,19.3,12.2,34.8
	c0.9,1.2,2,2.4,3.1,3.5c2.7,2.8,5.1,5.2,7.9,7.3l0.1,0.1c0.1,0.1,0.2,0.1,0.3,0.2c0.9,0.6,1.8,1.2,2.8,1.8l0,0
	c0.3,0.2,0.7,0.4,1,0.6c0.2,0.1,0.5,0.3,0.7,0.4c0.1,0.1,0.2,0.1,0.3,0.2c7.1,3.4,17.3,5.2,36.1,5.2c0.1,0,0.1,0,0.2,0
	c0.1,0,0.1,0,0.2,0c0.1,0,0.1,0,0.2,0c0.1,0,0.1,0,0.2,0c18.8,0,29-1.8,36.1-5.2c0.1-0.1,0.2-0.1,0.3-0.2c0.3-0.1,0.5-0.2,0.7-0.4
	c0.4-0.2,0.7-0.4,1-0.6l0,0c1-0.6,1.9-1.2,2.8-1.8c0.1-0.1,0.2-0.1,0.3-0.2l0.1-0.1c2.8-2.1,5.2-4.5,7.9-7.3
	c1.1-1.1,2.1-2.3,3.1-3.5c12.3-15.5,12.2-34.8,12.2-34.8S233.9,290.3,233.4,281.7z"></path>
        <circle class="st9" cx="112.2" cy="267.8" r="3.8"></circle>
        <circle class="st9" cx="128.9" cy="336.3" r="3.8"></circle>
        <path class="st18" d="M229.7,261.9C229.7,261.9,229.6,261.9,229.7,261.9c-2.1,0.2-5.8,0.6-11.2,1c1.7,12.6,3.2,44.2-7.7,59.6
	c-14.7,20.9-60.4,39.3-87.2,21.7c1,0.9,2,1.8,3.1,2.6l0.1,0.1c0.1,0.1,0.2,0.1,0.3,0.2c0.9,0.6,1.8,1.2,2.8,1.8l0,0
	c0.3,0.2,0.7,0.4,1,0.6c0.2,0.1,0.5,0.3,0.7,0.4c0.1,0.1,0.2,0.1,0.3,0.2c7.1,3.4,17.3,5.2,36.1,5.2c0.1,0,0.1,0,0.2,0
	c0.1,0,0.1,0,0.2,0c0.1,0,0.1,0,0.2,0c0.1,0,0.1,0,0.2,0c18.8,0,29-1.8,36.1-5.2c0.1-0.1,0.2-0.1,0.3-0.2c0.3-0.1,0.5-0.2,0.7-0.4
	c0.4-0.2,0.7-0.4,1-0.6l0,0c1-0.6,1.9-1.2,2.8-1.8c0.1-0.1,0.2-0.1,0.3-0.2l0.1-0.1c2.8-2.1,5.2-4.5,7.9-7.3
	c1.1-1.1,2.1-2.3,3.1-3.5c12.3-15.5,12.2-34.8,12.2-34.8s0.5-10.8,0-19.4c-0.9-13.9-1.8-18.9-1.9-19.8v-0.2
	C231.4,261.7,230.8,261.8,229.7,261.9z"></path>
        <circle class="st11" cx="202.6" cy="289.5" r="21.6">
<animate accumulate="none" additive="replace" attributeName="fill" calcMode="linear" dur="2s" fill="remove" keyTimes="0;0.5;1" repeatCount="indefinite" restart="always" values="#272362;#0052ff;#272362">
	</animate>
</circle>
        <circle class="st9" cx="224.2" cy="267.8" r="3.8"></circle>
        <path class="st12" d="M262.4,254.8c-38.9,9.1-150.1,9.1-189.1,0c0,0-6.4,101.1,50.2,116c0,0,21.6,5.3,44.3,5.1
	c22.8,0.2,44.3-5.1,44.3-5.1C268.8,355.9,262.4,254.8,262.4,254.8z"></path>
        <path class="st13" d="M188.6,306c3.8,3.2,8.6,5.1,13.9,5.1c11.9,0,21.6-9.7,21.6-21.6c0-6.1-2.6-11.7-6.7-15.6
	c1.5,3.7,7.5,20.5-7.9,31.4C209.7,305.3,201,309.9,188.6,306z"></path>
        <path class="st1" d="M202.6,295.8c-3.5,0-6.3-2.8-6.3-6.3s2.8-6.3,6.3-6.3c3.1,0,5.7,2.3,6.2,5.3h6.4c-0.5-6.5-6-11.6-12.6-11.6
	c-7,0-12.7,5.7-12.7,12.7s5.7,12.7,12.7,12.7c6.6,0,12.1-5.1,12.6-11.6h-6.4C208.3,293.5,205.7,295.8,202.6,295.8z"></path>
        <circle class="st9" cx="208.3" cy="336.3" r="3.8"></circle>
        <path class="st14" d="M251.7,329.1c-10.7-6.7-21.1,11-21.1,11c-16.3,29.9-51.8,35.5-51.8,35.5l0,0c18.3-1.1,33.4-4.8,33.4-4.8
	c20.5-5.4,32.8-22.1,40-41.3C252.1,329.3,251.9,329.2,251.7,329.1z"></path>
        <path class="st14" d="M104.4,340c0,0-10.4-17.7-21.1-11c7.2,19.3,19.5,36.2,40.2,41.7c0,0,14.8,3.6,32.7,4.8
	C156.1,375.5,120.7,369.9,104.4,340z"></path>
        <path class="st18" d="M119,259.3c-0.4-0.9-1.5-2-3.3-3.4c-16.3-12.2-32.1-2.1-33.9-0.8C91.5,257,104.4,258.4,119,259.3z"></path>
        <path class="st18" d="M227.1,259.3c0.4-0.9,1.5-2,3.3-3.4c16.3-12.2,32.1-2.1,33.9-0.8C254.6,257,241.7,258.4,227.1,259.3z"></path>
        <path class="st12" d="M262.4,254.8c-38.9,9.1-150.1,9.1-189.1,0c0,0-6.4,101.1,50.2,116c0,0,21.6,5.3,44.3,5.1
	c22.8,0.2,44.3-5.1,44.3-5.1C268.8,355.9,262.4,254.8,262.4,254.8z"></path>
        <path class="st7" d="M269.1,21.3c-19-9-210.9,4.6-228.5,16.3c0,0-41,24.8-40.6,72.1l4,56.2c0,0,4.5,44.7,20.9,59.6
	s31.9,21.9,54.3,24.2c19.7,2,67,0.6,87.8-0.5l0,0.1c1,0,2.1-0.1,3.4-0.3c1.3-0.1,2.5-0.2,3.4-0.2l0-0.1c20.8-1.9,67.8-7.1,87-12
	c21.8-5.5,36.1-14.7,50.3-31.6c14.2-17,12.3-62,12.3-62l-4-56.2C313.1,40,269.1,21.3,269.1,21.3z"></path>
        <path class="st1" d="M0.5,109.5l2.3,31.9C6.4,65.9,49,41.1,49,41.1l-2.5-6.6c-2.1,1-3.9,2-5.3,2.9C41.1,37.4,0,62.1,0.5,109.5z"></path>
        <path class="st14" d="M276,202.8c-0.6,0.4-1.3,0.9-2,1.5c-4.9,3.7-13,9.7-40.4,14.9l-59.1,5.4l-8.1,0.6l-59.3,3
	c-27.8-1.2-36.7-6.1-42.1-9c-0.8-0.4-1.5-0.8-2.2-1.2c-18.9-10.7-23.2-44.5-23.4-45.9l-2.7-38c-1.7-19.5,1.6-24.8,2.1-25.5l0.3-0.1
	l0.3-0.7c3.5-6.7,12.7-12.4,20.1-16.9c1.1-0.7,2.2-1.3,3.2-2c26.4-13.4,75.7-19,92.4-20.6l8.1-0.6c16.7-0.8,66.3-2.2,94.4,7.3
	c1.1,0.4,2.3,1,3.6,1.5c8,3.5,18,7.7,22.3,14l0.4,0.6l0.3,0.1c0.6,0.6,4.6,5.5,5.6,24.9l2.7,38C292.8,155.6,293.2,189.6,276,202.8z"></path>
        <path class="st21" d="M269.1,21.3c-0.2-0.1-0.4-0.1-0.5-0.2l6.9,6.7c0,0,37.8,26,36,77.9s-5.9,91.6-45.7,117.7
	c-34.5,22.6-107.3,25.9-194.9,25.2c2.7,0.5,5.5,0.8,8.4,1.2c19.7,2,67,0.6,87.8-0.5l0,0.1c1,0,2.1-0.1,3.4-0.3
	c1.3-0.1,2.5-0.2,3.4-0.2l0-0.1c20.8-1.9,67.8-7.1,87-12c21.8-5.5,36.1-14.7,50.3-31.6c14.2-17,12.3-62,12.3-62l-4-56.2
	C313.1,40,269.1,21.3,269.1,21.3z"></path>
        <path class="st22" d="M85.3,221.8c0,0-26.9-1.7-33.6-31.6s-6.3-66.5-6.3-66.5s-1.3-13.3,21.2-24.4c13.8-6.8,49.5-21.9,100.1-24.2
	c31.9-1.5,84.6-4.2,111.6,16c0,0-137.6-30.4-198.5,34C79.8,125.1,35.7,170.4,85.3,221.8z"></path>
        <path class="st22" d="M238.3,98.9c0,0-150.8-22.6-165,81.2c0,0-14.6-63.5,79.5-82.7C152.8,97.5,205.9,89.8,238.3,98.9z"></path>
        <path class="st12" d="M269.1,21.3c-19-9-210.9,4.6-228.5,16.3c0,0-41,24.8-40.6,72.1l4,56.2c0,0,4.5,44.7,20.9,59.6
	s31.9,21.9,54.3,24.2c19.7,2,67,0.6,87.8-0.5l0,0.1c1,0,2.1-0.1,3.4-0.3c1.3-0.1,2.5-0.2,3.4-0.2l0-0.1c20.8-1.9,67.8-7.1,87-12
	c21.8-5.5,36.1-14.7,50.3-31.6c14.2-17,12.3-62,12.3-62l-4-56.2C313.1,40,269.1,21.3,269.1,21.3z"></path>
        <path class="st24" d="M153.7,2.7C79.3,6,40.7,34.6,40.7,34.6s4.5,2.6,7.7,6.6c3.1,4,7,8.5,19.5,12.7c15.9,5.3,89.4,1.2,89.4,1.2
	s73.5-6.2,88.3-13.8c11.8-5.9,15-10.9,17.5-15.3c2.6-4.4,6.6-7.7,6.6-7.7S227.8-4.5,153.7,2.7z"></path>
        <polygon class="st18" points="270.6,22.1 270.8,18.2 267.3,20.8 "></polygon>
        <path class="st7" d="M250,10.7c-11.5,8.4-49.7,33.9-90.3,37C111,51.4,49.2,40.8,49.2,40.8c-0.3,0.1-0.5,0.3-0.7,0.4
	c3.1,4,7.1,8.4,19.5,12.6c15.9,5.3,89.4,1.2,89.4,1.2s73.5-6.2,88.3-13.8c11.8-5.9,15-10.9,17.5-15.3c2.6-4.4,6.6-7.7,6.6-7.7
	S263.1,14.6,250,10.7z"></path>
        <path class="st12" d="M153.7,2.7C79.3,6,40.7,34.6,40.7,34.6s4.5,2.6,7.7,6.6c3.1,4,7,8.5,19.5,12.7c15.9,5.3,89.4,1.2,89.4,1.2
	s73.5-6.2,88.3-13.8c11.8-5.9,15-10.9,17.5-15.3c2.6-4.4,6.6-7.7,6.6-7.7S227.8-4.5,153.7,2.7z"></path>
        <linearGradient id="SVGID_1_" gradientUnits="userSpaceOnUse" x1="-145.5195" y1="164.8151" x2="121.0592" y2="164.8151" gradientTransform="matrix(0.9892 -0.1465 0.1465 0.9892 153.4571 -17.1719)">
	<stop offset="0" style="st8op-color:#FFFFFF"></stop>
            <stop offset="0.9994" style="st8op-color:#99AAD1"></stop>
</linearGradient>
        <path class="st26" d="M295,115.8c-1.2-21.1-5.7-27-7.5-28.5c-5.2-7.1-15.7-11.7-24.2-15.3c-1.3-0.5-2.5-1-3.6-1.6l-0.2-0.1
	c-14.7-5-36.3-7.8-64.4-8.2c-13.6-0.2-25.4,0.2-32.1,0.5l0-0.1l-2.5,0.2c0,0-0.6,0.1-1.6,0.1s-1.5,0.1-1.6,0.1l-2.5,0.2l0,0.1
	c-6.6,0.6-18.4,1.8-31.9,4c-27.7,4.4-48.7,10.2-62.6,17.2l-0.2,0.1c-1,0.7-2.1,1.3-3.3,2c-7.9,4.8-17.6,10.8-21.8,18.6
	c-1.6,1.7-5.1,8.2-3.3,29.3l2.7,38l0,0.1c0.1,1.5,4.5,37.7,26,49.7l0.1,0.1c0.7,0.3,1.3,0.7,2.1,1.1c5.7,3.1,15.3,8.4,44.3,9.6
	l59.7-3l0,0.2l4.1-0.4l4.1-0.2l0-0.2l59.6-5.4c28.5-5.3,37.3-11.9,42.5-15.8c0.6-0.5,1.3-1,1.9-1.4l0.1-0.1
	c19.5-15.1,18.7-51.4,18.7-52.9l0-0.1L295,115.8z M276,202.8c-0.6,0.4-1.3,0.9-2,1.5c-4.9,3.7-13,9.7-40.4,14.9l-59.1,5.4l-8.1,0.6
	l-59.3,3c-27.8-1.2-36.7-6.1-42.1-9c-0.8-0.4-1.5-0.8-2.2-1.2c-18.9-10.7-23.2-44.5-23.4-45.9l-2.7-38c-1.7-19.5,1.6-24.8,2.1-25.5
	l0.3-0.1l0.3-0.7c3.5-6.7,12.7-12.4,20.1-16.9c1.1-0.7,2.2-1.3,3.2-2c26.4-13.4,75.7-19,92.4-20.6l8.1-0.6
	c16.7-0.8,66.3-2.2,94.4,7.3c1.1,0.4,2.3,1,3.6,1.5c8,3.5,18,7.7,22.3,14l0.4,0.6l0.3,0.1c0.6,0.6,4.6,5.5,5.6,24.9l2.7,38
	C292.8,155.6,293.2,189.5,276,202.8z"></path>
        <polygon class="st18" points="40.1,37.4 39.8,34.5 42.9,35.8 "></polygon>
        <path class="st5" d="M168.1,245.7"></path>
        <g>
	<path class="st1" d="M163.4,256.6h-20.2"></path>
</g>
        <path class="st816" d="M74.1,256.5c0.7-0.2,1.4-0.4,2.1-0.5c3,0.6,6.2,1.2,9.9,1.7l2.3,1.6c0,0,1.7,45-1.5,51.3
	c-1.8,3.5-4.5,5.6-6.6,6.8C73,290.2,73.8,262,74.1,256.5z"></path>
        <path class="st7" d="M73.6,255.4c0,0-7.8,12.6-7.5,47.5c0,0,0.6,9.2,5.8,12c4.9,2.6,8.2-3.4,9.4-6.3c2.5-5.9,2.1-10.6,2.5-22.2
	s5.4-28.5,5.4-28.5l-11.3-0.1L73.6,255.4z"></path>
        <path class="st21" d="M89.2,257.8c0,0-5.1,17-5.4,28.5s0,16.3-2.5,22.2c-0.6,1.4-1.6,3.3-3,4.9c-0.4-1.2-0.9-2.6-1.3-4
	c-5.5-19.2,3.7-40.8,9.4-51.6L89.2,257.8z"></path>
        <path class="st12" d="M73.6,255.4c0,0-7.8,12.6-7.5,47.5c0,0,0.6,9.2,5.8,12c4.9,2.6,8.2-3.4,9.4-6.3c2.5-5.9,2.1-10.6,2.5-22.2
	s5.4-28.5,5.4-28.5l-11.3-0.1L73.6,255.4z"></path>
        <path class="st27" d="M168.1,208.5c4.7-0.5,8-4.7,7.5-9.4l-16.9,1.9C159.3,205.7,163.5,209.1,168.1,208.5z"></path>
        <path class="st5" d="M167.7,244.8"></path>
        <path class="st10" d="M248.5,171.5c-2.4-9.8-11.8-16.5-22.1-15.4c-10.3,1.1-17.9,9.8-18.2,19.8"><animateTransform attributeName="transform" type="translate" repeatCount="indefinite" dur="0.4s" keyTimes="0;0.5;1" values="0 -3;0 2;0 -3"></animateTransform></path>
        <path class="st10" d="M123,185.4c-2.4-9.8-11.8-16.5-22.1-15.4c-10.3,1.1-17.9,9.8-18.2,19.8"><animateTransform attributeName="transform" type="translate" repeatCount="indefinite" dur="0.4s" keyTimes="0;0.5;1" values="0 -3;0 2;0 -3"></animateTransform></path>
        <path class="st7" d="M265.8,252.6l1.4,3.8c0,0-0.5,12.2-2.5,12.7c0,0,16,17,35.6,22c0,0,14.7,1.5,15.3-5.9
	c0.6-7.4-8.3-10.7-8.3-10.7s-28.2-11.6-38.4-19.8L265.8,252.6z"></path>
        <path class="st21" d="M315.1,286.9c-3.5,0.3-8.4,0.6-13.5-0.2c-7.3-1.2-31.9-22-34.8-24.4c-0.4,3.2-1,6.6-2,6.8c0,0,16,17,35.6,22
	C300.3,291,312.5,292.3,315.1,286.9z"></path>
        <path class="st12" d="M265.8,252.6l1.4,3.8c0,0-0.5,12.2-2.5,12.7c0,0,16,17,35.6,22c0,0,14.7,1.5,15.3-5.9
	c0.6-7.4-8.3-10.7-8.3-10.7s-28.2-11.6-38.4-19.8L265.8,252.6z"></path>
        <ellipse transform="matrix(0.2822 -0.9593 0.9593 0.2822 -51.5863 486.1648)" class="st820" cx="299.1" cy="277.6" rx="2.9" ry="4"></ellipse>
        <linearGradient id="SVGID_00000057130849087113633870000001475189910127931805_" gradientUnits="userSpaceOnUse" x1="303.7435" y1="200.805" x2="302.4758" y2="277.2575">
	<stop offset="0" style="stop-color:#FFFFFF;stop-opacity:0"></stop>
            <stop offset="0.1093" style="stop-color:#F2FDFE;stop-opacity:0.1093"></stop>
            <stop offset="0.313" style="stop-color:#CFF9FA;stop-opacity:0.313"></stop>
            <stop offset="0.5886" style="stop-color:#96F1F5;stop-opacity:0.5886"></stop>
            <stop offset="0.9225" style="stop-color:#49E7ED;stop-opacity:0.9225"></stop>
            <stop offset="1" style="stop-color:#36E5EB"></stop>
</linearGradient>
        <polygon style="fill:url(#SVGID_00000057130849087113633870000001475189910127931805_);" points="297.1,278.8 261.3,205.1
	346,205.1 "><animate attributeName="opacity" repeatCount="indefinite" dur="0.1s" keyTimes="0;0.5;1" values="1;0;0.5" begin="-0.7s"></animate></polygon>

        <g>







                        <g class="st823">
		<path class="st1" d="M277.8,189.8h-6.3v-1c0-1.2,0-1.8-0.2-2.2s-0.4-0.6-1-0.6c-0.4,0-0.6,0.2-0.8,0.4s-0.4,0.8-0.4,1.4
			c0,1,0.2,1.6,0.6,2s1.6,1.2,3.4,2.4c1.6,1,2.8,1.8,3.4,2.2c0.6,0.6,1.2,1.2,1.6,2.2s0.6,2.2,0.6,3.6c0,2.2-0.6,3.9-1.6,5.1
			c-1.2,1.2-2.8,2-4.9,2.4v2.4h-3v-2.4c-1.8-0.2-3.2-0.8-4.5-2c-1.2-1.2-2-3-2-5.7v-1.2h6.3v1.6c0,1.6,0,2.8,0.2,3.2
			c0.2,0.4,0.4,0.6,1,0.6c0.4,0,0.8-0.2,1-0.4s0.4-0.8,0.4-1.2c0-1.4-0.2-2.4-0.4-3s-0.8-1.2-2-2c-2-1.2-3.4-2-3.9-2.6
			c-0.8-0.6-1.4-1.4-1.8-2.4c-0.6-1-0.8-2.2-0.8-3.4c0-1.8,0.6-3.4,1.6-4.3c1-1,2.8-1.8,4.9-2v-2h3v2c2,0.2,3.4,1,4.3,2
			c1,1,1.4,2.6,1.4,4.3C277.8,188.8,277.8,189.2,277.8,189.8z"></path>
	</g>
            <g class="st824">
		<path class="st27" d="M332.9,153.2c2.2,0,4.8,1.8,7.4,4.5l4.5-0.9c1.6-0.4,3-2.4,2.6-4.1l-0.2-1c-0.4-2-2.4-3.2-4.1-2.8l-29.6,5.9
		v8.3l9.2-1.8C326,156.6,329.9,153.2,332.9,153.2z"></path>
                <path class="st27" d="M316.1,241.1h-28.8c-2.2,0-3.9-1.8-3.9-3.9v-1c0-2.2,1.8-3.9,3.9-3.9h28.8c2.2,0,3.9,1.8,3.9,3.9v1
		C320,239.3,318.3,241.1,316.1,241.1z"></path><path class="st27" d="M313.3,229.9H290v-0.6c0-3.2,2.6-5.7,5.7-5.7h11.6c3.2,0,5.7,2.6,5.7,5.7v0.6H313.3z"></path>
                <rect x="297.1" y="183.1" class="st27" width="9.1" height="37.7"></rect>
                <path class="st27" d="M288.5,199.5c0,9.7-8.1,17.6-18,17.6c-9.9,0-18.2-8.1-18.2-17.6s12.4-29.4,18-29.4S288.5,189.8,288.5,199.5z"></path>
                <path class="st27" d="M332.9,157.6c-5.5,0-18,19.5-18,29.2s8.1,17.6,18,17.6c9.9,0,18-7.9,18-17.6S338.4,157.6,332.9,157.6z
		 M320.8,179.7c2.6-7.3,8.9-16.2,12-16.2s9.5,8.9,12.2,16.2H320.8z"></path>
                <path class="st27" d="M302.5,179.3h-1.6c-3.6,0-6.5-3-6.5-6.5v-23.9c0-3.6,3-6.5,6.5-6.5h1.6c3.6,0,6.5,3,6.5,6.5V173
		C309,176.6,306,179.3,302.5,179.3z"></path>
                <path class="st27" d="M256.3,171.1c0.4,1.8,2,2.9,3.6,2.8c3.5-4.8,7.4-8.2,10.4-8.2c2.2,0,4.9,1.8,7.6,4.7l12.2-2.4v-8.2l-31,6.3
			c-2,0.4-3.2,2.4-2.8,4.1V171.1z"></path>
                <polygon class="st27" points="290,159.6 290,159.6 290.2,159.6 		"></polygon>
	</g>

            <g>
		<g>
				<path class="st826" d="M302.5,179.3h-1.6c-3.6,0-6.5-3-6.5-6.5v-23.9c0-3.6,3-6.5,6.5-6.5h1.6c3.6,0,6.5,3,6.5,6.5V173
					C309,176.6,306,179.3,302.5,179.3z"></path>
            <rect x="297.1" y="183.1" class="st826" width="9.1" height="37.7"></rect>
            <path class="st826" d="M313.3,229.9H290v-0.6c0-3.2,2.6-5.7,5.7-5.7h11.6c3.2,0,5.7,2.6,5.7,5.7v0.6H313.3z"></path>
            <path class="st826" d="M316.1,241.1h-28.8c-2.2,0-3.9-1.8-3.9-3.9v-1c0-2.2,1.8-3.9,3.9-3.9h28.8c2.2,0,3.9,1.8,3.9,3.9v1
					C320,239.3,318.3,241.1,316.1,241.1z"></path>
            <path class="st826" d="M288.5,199.5c0,9.7-8.1,17.6-18,17.6c-9.9,0-18.2-8.1-18.2-17.6s12.4-29.4,18-29.4
					S288.5,189.8,288.5,199.5z"></path>
            <path class="st826" d="M332.9,157.6c-5.5,0-18,19.5-18,29.2s8.1,17.6,18,17.6c9.9,0,18-7.9,18-17.6S338.4,157.6,332.9,157.6z
						 M320.8,179.7c2.6-7.3,8.9-16.2,12-16.2s9.5,8.9,12.2,16.2H320.8z"></path>
            <path class="st826" d="M256.3,171.1c0.4,1.8,2,2.9,3.6,2.8c3.5-4.8,7.4-8.2,10.4-8.2c2.2,0,4.9,1.8,7.6,4.7l12.2-2.4v-8.2
						l-31,6.3c-2,0.4-3.2,2.4-2.8,4.1V171.1z"></path>
            <polygon class="st826" points="290,159.6 290,159.6 290.2,159.6 					"></polygon>
            <path class="st826" d="M332.9,153.2c2.2,0,4.8,1.8,7.4,4.5l4.5-0.9c1.6-0.4,3-2.4,2.6-4.1l-0.2-1c-0.4-2-2.4-3.2-4.1-2.8
					l-29.6,5.9v8.3l9.2-1.8C326,156.6,329.9,153.2,332.9,153.2z"></path>
            <animate attributeName="opacity" repeatCount="indefinite" dur="0.5s" keyTimes="0;0.5;1" values="1;0;0.5" begin="-0.7s"></animate>
		</g>
	</g>
            <animateTransform attributeName="transform" type="translate" repeatCount="indefinite" dur="2s" keyTimes="0;0.5;1" values="-5 -3;3 5;-5 -3"></animateTransform>
</g>
        <animateTransform attributeName="transform" type="translate" repeatCount="indefinite" dur="2s" keyTimes="0;0.5;1" values="0 -3;0 5;0 -3"></animateTransform>
        </g>
</svg>