<svg xmlns="http://www.w3.org/2000/svg" x="0px" y="0px"
	 viewBox="0 0 377.4 449.8" style="enable-background:new 0 0 377.4 449.8;" xml:space="preserve">
<style type="text/css">
	.st0{opacity:0.1;fill:#A3A3A3;enable-background:new    ;}
	.st1{fill:#8D8DAA;}
	.st2{fill:#606373;}
	.st3{fill:#11113B;}
	.st4{fill:#EFEFEF;}
	.st5{fill:#B1B1C9;}
	.st6{fill:#DCDBEA;stroke:#8D8DAA;stroke-miterlimit:10;}
	.st7{fill:#060423;stroke:#FFFFFF;stroke-miterlimit:10;}
	.st8{fill:none;stroke:#8D8DAA;stroke-miterlimit:10;}
	.st9{opacity:0.1;fill:#FFFFFF;enable-background:new    ;}
	.st10{fill:#FFFFFF;}
	.st11{fill:#060423;}
	.st12{fill:#77788B;}
	.st13{fill:#D6D6D6;}
	.st14{fill:#ffffff24;}
	.st15{fill:#ffffff24;}
	.st16{fill:#FBF9F9;}
	.st17{fill:url(#SVGID_1_);}
	.st18{fill: #57b4fc;}	.st20{fill: #2CFBFB;}
	.st19{fill:none;stroke:#2CFBFB;stroke-width:8;stroke-linecap:round;stroke-miterlimit:10;}
</style>
<ellipse class="st0" cx="193.2" cy="433.8" rx="135.6" ry="16">
<animate  accumulate="none" additive="replace" attributeName="rx" calcMode="linear" dur="2s" fill="remove" keyTimes="0;0.5;1" repeatCount="indefinite" restart="always" values="115.6;135.6;115.6">
	</animate>
</ellipse>
<g>
	<polygon class="st1" points="293,30.9 293.3,27.1 289.7,29.6 	"/>
	<path class="st2" d="M119.8,253.4c-17.6,1.3-22.8,11.7-22.8,11.7c38.9,9.1,150.1,9.1,189.1,0c0,0-6.7-11.4-24.2-12.7
		C240.2,250.8,141,251.8,119.8,253.4z"/>
	<path class="st3" d="M248.5,259.3c0,0,3.2-4.2-0.6-7.4s-108.2-1.5-112-0.3s-0.9,7.7-0.9,7.7c-3.2,5.3,1.2,7.8,1.2,7.8
		c-1.4,1.4,1.2,3.2,1.2,3.2l3.3,2.9l48.5-0.6l53.5,0.6l3.3-2.9c0,0,2.7-1.8,1.2-3.2C247.2,267.1,251.7,264.6,248.5,259.3z"/>
	<path class="st4" d="M96.8,265.1c38.9,9.1,150.1,9.1,189.1,0c0,0,6.4,101.1-50.2,116c0,0-21.6,5.3-44.3,5.1
		c-22.8,0.2-44.3-5.1-44.3-5.1C90.3,366.2,96.8,265.1,96.8,265.1z"/>
	<path class="st5" d="M257.1,292c-0.9-13.9-1.8-18.9-1.9-19.8V272l0,0l0,0c0,0-0.6,0.1-1.8,0.2c-5.9,0.7-26.1,2.6-61.2,2.6
		s-55.3-1.9-61.2-2.6c-1.2-0.1-1.8-0.2-1.8-0.2l0,0l0,0v0.2c-0.2,0.9-1.1,6-1.9,19.8c-0.5,8.6,0,19.4,0,19.4s-0.1,19.3,12.2,34.8
		c0.9,1.2,2,2.4,3.1,3.5c2.7,2.8,5.1,5.2,7.9,7.3l0.1,0.1c0.1,0.1,0.2,0.1,0.3,0.2c0.9,0.6,1.8,1.2,2.8,1.8l0,0
		c0.3,0.2,0.7,0.4,1,0.6c0.2,0.1,0.5,0.3,0.7,0.4c0.1,0.1,0.2,0.1,0.3,0.2c7.1,3.4,17.3,5.2,36.1,5.2c0.1,0,0.1,0,0.2,0
		c0.1,0,0.1,0,0.2,0c0.1,0,0.1,0,0.2,0c0.1,0,0.1,0,0.2,0c18.8,0,29-1.8,36.1-5.2c0.1-0.1,0.2-0.1,0.3-0.2c0.3-0.1,0.5-0.2,0.7-0.4
		c0.4-0.2,0.7-0.4,1-0.6l0,0c1-0.6,1.9-1.2,2.8-1.8c0.1-0.1,0.2-0.1,0.3-0.2l0.1-0.1c2.8-2.1,5.2-4.5,7.9-7.3
		c1.1-1.1,2.1-2.3,3.1-3.5c12.3-15.5,12.2-34.8,12.2-34.8S257.6,300.6,257.1,292z"/>
	
		<ellipse transform="matrix(0.9951 -9.853751e-02 9.853751e-02 0.9951 -26.7419 14.7447)" class="st6" cx="135.9" cy="278.1" rx="3.8" ry="3.8"/>
	<circle class="st6" cx="152.6" cy="346.6" r="3.8"/>
	<path class="st1" d="M253.4,272.2C253.3,272.2,253.3,272.2,253.4,272.2c-2.1,0.2-5.8,0.6-11.2,1c1.7,12.6,3.2,44.2-7.7,59.6
		c-14.7,20.9-60.4,39.3-87.2,21.7c1,0.9,2,1.8,3.1,2.6l0.1,0.1c0.1,0.1,0.2,0.1,0.3,0.2c0.9,0.6,1.8,1.2,2.8,1.8l0,0
		c0.3,0.2,0.7,0.4,1,0.6c0.2,0.1,0.5,0.3,0.7,0.4c0.1,0.1,0.2,0.1,0.3,0.2c7.1,3.4,17.3,5.2,36.1,5.2c0.1,0,0.1,0,0.2,0
		c0.1,0,0.1,0,0.2,0c0.1,0,0.1,0,0.2,0c0.1,0,0.1,0,0.2,0c18.8,0,29-1.8,36.1-5.2c0.1-0.1,0.2-0.1,0.3-0.2c0.3-0.1,0.5-0.2,0.7-0.4
		c0.4-0.2,0.7-0.4,1-0.6l0,0c1-0.6,1.9-1.2,2.8-1.8c0.1-0.1,0.2-0.1,0.3-0.2l0.1-0.1c2.8-2.1,5.2-4.5,7.9-7.3
		c1.1-1.1,2.1-2.3,3.1-3.5c12.3-15.5,12.2-34.8,12.2-34.8s0.5-10.8,0-19.4c-0.9-13.9-1.8-18.9-1.9-19.8V272
		C255.1,272,254.5,272.1,253.4,272.2z"/>
	<circle class="st7" cx="226.2" cy="299.8" r="21.6">
	
		<animate  accumulate="none" additive="replace" attributeName="fill" calcMode="linear" dur="2s" fill="remove" keyTimes="0;0.5;1" repeatCount="indefinite" restart="always" values="#272362;#0052ff;#272362">
		</animate>
	</circle>
	<circle class="st6" cx="247.9" cy="278.1" r="3.8"/>
	<path class="st8" d="M96.8,265.1c38.9,9.1,150.1,9.1,189.1,0c0,0,6.4,101.1-50.2,116c0,0-21.6,5.3-44.3,5.1
		c-22.8,0.2-44.3-5.1-44.3-5.1C90.3,366.2,96.8,265.1,96.8,265.1z"/>
	<path class="st9" d="M212.3,316.3c3.8,3.2,8.6,5.1,13.9,5.1c11.9,0,21.6-9.7,21.6-21.6c0-6.1-2.6-11.7-6.7-15.6
		c1.5,3.7,7.5,20.5-7.9,31.4C233.3,315.6,224.7,320.3,212.3,316.3z"/>
	<path class="st10" d="M226.3,306.1c-3.5,0-6.3-2.8-6.3-6.3s2.8-6.3,6.3-6.3c3.1,0,5.7,2.3,6.2,5.3h6.4c-0.5-6.5-6-11.6-12.6-11.6
		c-7,0-12.7,5.7-12.7,12.7s5.7,12.7,12.7,12.7c6.6,0,12.1-5.1,12.6-11.6h-6.4C232,303.8,229.4,306.1,226.3,306.1z"/>
	<circle class="st6" cx="231.9" cy="346.6" r="3.8"/>
	<path class="st11" d="M275.4,339.4c-10.7-6.7-21.1,11-21.1,11c-16.3,29.9-51.8,35.5-51.8,35.5l0,0c18.3-1.1,33.4-4.8,33.4-4.8
		c20.5-5.4,32.8-22.1,40-41.3C275.7,339.7,275.6,339.5,275.4,339.4z"/>
	<path class="st11" d="M128.1,350.4c0,0-10.4-17.7-21.1-11c7.2,19.3,19.5,36.2,40.2,41.7c0,0,14.8,3.6,32.7,4.8
		C179.8,385.8,144.4,380.2,128.1,350.4z"/>
	<path class="st12" d="M137.6,270.3c-0.4-0.9-1.5-2-3.3-3.4c-16.3-12.2-32.1-2.1-33.9-0.8C110.1,268,123,269.4,137.6,270.3z"/>
	<path class="st12" d="M245.7,270.3c0.4-0.9,1.5-2,3.3-3.4c16.3-12.2,32.1-2.1,33.9-0.8C273.2,268,260.3,269.4,245.7,270.3z"/>
	<path class="st8" d="M96.8,265.1c38.9,9.1,150.1,9.1,189.1,0c0,0,6.4,101.1-50.2,116c0,0-21.6,5.3-44.3,5.1
		c-22.8,0.2-44.3-5.1-44.3-5.1C90.3,366.2,96.8,265.1,96.8,265.1z"/>
	<path class="st4" d="M291.4,30.1C272.5,21,80.5,34.4,63,46c0,0-41.1,24.7-40.7,72.1l3.9,56.2c0,0,4.4,44.8,20.8,59.6
		s31.9,21.9,54.3,24.3c19.7,2.1,67,0.7,87.8-0.3v0.1c1-0.1,2.1-0.2,3.4-0.3c1.3-0.1,2.5-0.1,3.4-0.2v-0.1c20.7-1.9,67.8-7.1,87-11.8
		c21.8-5.4,36.2-14.6,50.4-31.6c14.2-17,12.3-61.9,12.3-61.9l-3.9-56.2C335.5,48.9,291.4,30.1,291.4,30.1z"/>
	<path class="st10" d="M22.8,117.9l2.2,32C28.7,74.3,71.3,49.5,71.3,49.5l-2.4-6.6c-2.1,1-3.9,2-5.4,2.9
		C63.5,45.8,22.4,70.6,22.8,117.9z"/>
	<path class="st11" d="M298.2,211.7c-0.6,0.4-1.3,0.9-2,1.5c-4.9,3.6-13,9.7-40.4,14.8l-59.1,5.3l-8.1,0.6l-59.3,2.9
		c-27.8-1.2-36.7-6.1-42-9.1c-0.8-0.4-1.5-0.8-2.2-1.2C66.2,215.7,62,182,61.8,180.6l-2.6-38c-1.6-19.5,1.6-24.8,2.1-25.5l0.3-0.1
		l0.3-0.7c3.4-6.7,12.7-12.4,20.1-16.9c1.1-0.7,2.2-1.4,3.3-2c26.5-13.4,75.8-18.9,92.4-20.5l8.1-0.6c16.7-0.8,66.3-2.1,94.4,7.5
		c1.1,0.5,2.3,1,3.5,1.5c8,3.5,18,7.8,22.3,14l0.4,0.6l0.3,0.1c0.6,0.7,4.5,5.5,5.6,25l2.7,38C315,164.4,315.4,198.4,298.2,211.7z"
		/>
	<path class="st13" d="M291.4,30.1c-0.2-0.1-0.4-0.2-0.6-0.3l6.9,6.7c0,0,37.8,26.1,35.9,77.9c-1.9,51.9-6.1,91.6-45.9,117.6
		c-34.5,22.6-107.3,25.8-194.9,25c2.7,0.5,5.5,0.9,8.4,1.2c19.7,2.1,67,0.7,87.8-0.3v0.1c1-0.1,2.1-0.2,3.4-0.3
		c1.3-0.1,2.5-0.1,3.4-0.2v-0.1c20.7-1.9,67.8-7.1,87-11.8c21.8-5.4,36.2-14.6,50.4-31.6c14.2-17,12.3-61.9,12.3-61.9l-3.9-56.2
		C335.5,48.9,291.4,30.1,291.4,30.1z"/>
	<path class="st14" d="M107.5,230.3c0,0-26.9-1.7-33.5-31.6s-6.3-66.5-6.3-66.5s-1.3-13.3,21.2-24.3c13.8-6.8,49.6-21.8,100.2-24.1
		c31.9-1.4,84.6-4.1,111.5,16.2c0,0-137.6-30.6-198.5,33.7C102.1,133.7,57.9,178.9,107.5,230.3z"/>
	<path class="st15" d="M260.6,107.7c0,0-150.8-22.8-165.1,81c0,0-14.5-63.4,79.6-82.6C175.1,106.1,228.3,98.5,260.6,107.7z"/>
	<path class="st8" d="M291.4,30.1C272.5,21,80.5,34.4,63,46c0,0-41.1,24.7-40.7,72.1l3.9,56.2c0,0,4.4,44.8,20.8,59.6
		s31.9,21.9,54.3,24.3c19.7,2.1,67,0.7,87.8-0.3v0.1c1-0.1,2.1-0.2,3.4-0.3c1.3-0.1,2.5-0.1,3.4-0.2v-0.1c20.7-1.9,67.8-7.1,87-11.8
		c21.8-5.4,36.2-14.6,50.4-31.6c14.2-17,12.3-61.9,12.3-61.9l-3.9-56.2C335.5,48.9,291.4,30.1,291.4,30.1z"/>
	<path class="st16" d="M176.1,11.4c-74.4,3.2-113,31.7-113,31.7s4.5,2.6,7.7,6.6c3.2,4,7,8.5,19.5,12.7c15.8,5.4,89.4,1.3,89.4,1.3
		s73.5-6.2,88.4-13.7c11.7-5.9,15-10.9,17.6-15.3s6.7-7.6,6.7-7.6S250.3,4.3,176.1,11.4z"/>
	<path class="st4" d="M272.4,19.4c-11.5,8.4-49.8,33.9-90.4,36.9c-48.7,3.6-110.4-7-110.4-7c-0.3,0.1-0.5,0.3-0.7,0.4
		c3.1,4,7.1,8.4,19.4,12.6c15.8,5.4,89.4,1.3,89.4,1.3s73.5-6.2,88.4-13.7c11.7-5.9,15-10.9,17.6-15.3s6.7-7.6,6.7-7.6
		S285.5,23.4,272.4,19.4z"/>
	<path class="st8" d="M176.1,11.4c-74.4,3.2-113,31.7-113,31.7s4.5,2.6,7.7,6.6c3.2,4,7,8.5,19.5,12.7c15.8,5.4,89.4,1.3,89.4,1.3
		s73.5-6.2,88.4-13.7c11.7-5.9,15-10.9,17.6-15.3s6.7-7.6,6.7-7.6S250.3,4.3,176.1,11.4z"/>
	
		<linearGradient id="SVGID_1_" gradientUnits="userSpaceOnUse" x1="221.8898" y1="272.8366" x2="485.723" y2="272.8366" gradientTransform="matrix(0.9976 -6.936228e-02 -6.936228e-02 -0.9976 -146.8012 451.7669)">
		<stop  offset="0" style="stop-color:#000000"/>
		<stop  offset="0.9994" style="stop-color:#000000"/>
	</linearGradient>
	<path class="st17" d="M317.3,124.6c-1.2-21-5.6-27-7.4-28.5c-5.2-7.2-15.7-11.7-24.2-15.4c-1.2-0.5-2.4-1.1-3.6-1.6l-0.2-0.1
		c-14.7-5-36.3-7.8-64.4-8.3c-13.6-0.2-25.4,0.2-32.1,0.5v-0.1l-2.5,0.2c0,0-0.6,0-1.6,0.1s-1.5,0.1-1.6,0.1l-2.5,0.2v0.1
		c-6.6,0.6-18.4,1.8-31.8,3.9C117.7,80,96.6,85.8,82.8,92.8L82.7,93c-1,0.7-2.1,1.3-3.3,2c-7.9,4.8-17.7,10.8-21.8,18.6
		c-1.6,1.8-5.2,8.3-3.4,29.3l2.6,38v0.1c0.2,1.5,4.4,37.6,25.9,49.8l0.1,0.1c0.7,0.3,1.3,0.7,2.1,1.1c5.7,3.1,15.3,8.4,44.3,9.7
		l59.7-2.9v0.2l4.1-0.4l4.1-0.2v-0.2l59.6-5.3c28.6-5.3,37.3-11.8,42.6-15.7c0.7-0.5,1.3-1,1.9-1.4l0.1-0.1
		c19.6-15.1,18.8-51.4,18.7-52.9v-0.1L317.3,124.6z M298.2,211.7c-0.6,0.4-1.3,0.9-2,1.5c-4.9,3.6-13,9.7-40.4,14.8l-59.1,5.3
		l-8.1,0.6l-59.3,2.9c-27.8-1.2-36.7-6.1-42-9.1c-0.8-0.4-1.5-0.8-2.2-1.2c-18.9-10.8-23.1-44.5-23.3-46l-2.6-38
		c-1.6-19.5,1.6-24.8,2.1-25.5l0.3-0.1l0.3-0.7c3.4-6.7,12.7-12.4,20.1-16.9c1.1-0.7,2.2-1.4,3.3-2c26.5-13.4,75.8-18.9,92.4-20.5
		l8.1-0.6c16.7-0.8,66.3-2.1,94.4,7.5c1.1,0.5,2.3,1,3.5,1.5c8,3.5,18,7.8,22.3,14l0.4,0.6l0.3,0.1c0.6,0.7,4.5,5.5,5.6,25l2.7,38
		C315,164.4,315.4,198.4,298.2,211.7z"/>
	<polygon class="st1" points="62.4,45.9 62.2,43 65.4,44.3 	"/>
	<path class="st20" d="M190.8,218.1c4.7-0.5,8-4.7,7.5-9.4l-16.9,1.9C181.9,215.2,186.1,218.6,190.8,218.1z"/>
	<path class="st2" d="M190.3,254.4"/>
	<path class="st19" d="M271.1,181c-2.4-9.8-11.8-16.5-22.1-15.4c-10.3,1.1-17.9,9.8-18.2,19.8	">
<animateTransform  accumulate="none" additive="replace" attributeName="transform" calcMode="linear" dur="0.4s" fill="remove" keyTimes="0;0.5;1" repeatCount="indefinite" restart="always" type="translate" values="0 -3;0 2;0 -3">
			</animateTransform>
	</path>
	<path class="st19" d="M145.7,194.9c-2.4-9.8-11.8-16.5-22.1-15.4s-17.9,9.8-18.2,19.8	">
<animateTransform  accumulate="none" additive="replace" attributeName="transform" calcMode="linear" dur="0.4s" fill="remove" keyTimes="0;0.5;1" repeatCount="indefinite" restart="always" type="translate" values="0 -3;0 2;0 -3">
			</animateTransform>
	</path>
	<g>
		<polygon class="st18" points="326,245 344.3,245 342.3,252.5 327.7,252.5 		"/>
		<circle class="st18" cx="341.8" cy="314.7" r="31.6">
		
			<animateTransform  accumulate="none" additive="replace" attributeName="transform" calcMode="linear" dur="0.5s" fill="remove" repeatCount="indefinite" restart="always" times="0;0.5;1" type="rotate" values="-1 50 50;2 50 50;-1 50 50;">
			</animateTransform>
		</circle>
		<path class="st13" d="M294,264.6c0,0-3.6,1-4.7,5.2s-0.5,7.9,0.3,9.5c2,4,3.4,4.9,7.6,5.3c5.6,0.5,28.7,6.2,46.8-13.4
			c0,0,6.3-12.5-2-15.3c0,0-7.1-1.6-13.6,1C321.9,259.5,303,265,294,264.6z"/>
		<path class="st4" d="M322.7,279.1c4.7-1.7,11.9-8.9,13.7-12.3c1.8-3.5-3.7-8.8-3.7-8.8s-1-0.7-2.4-1.6c-0.6,0.2-1.2,0.4-1.9,0.6
			c-6.5,2.6-25.3,8.1-34.4,7.7c0,0-3.6,1-4.7,5.2c-0.3,1.1-0.4,2.2-0.5,3.2c1.5,2.7,3.2,4.9,4,5.5c1.9,1.2,3.4,1.4,6.5,2.4
			C302.5,281.8,318.8,280.5,322.7,279.1z"/>
		<path class="st8" d="M294,264.6c0,0-3.6,1-4.7,5.2s-0.5,7.9,0.3,9.5c2,4,3.4,4.9,7.6,5.3c5.6,0.5,28.7,6.2,46.8-13.4
			c0,0,6.3-12.5-2-15.3c0,0-7.1-1.6-13.6,1C321.9,259.5,303,265,294,264.6z"/>
		<path class="st10" d="M353.5,302.5l-11.5,1.7l-0.2-1.6c-0.3-2.1-0.5-3.3-1-4.1c-0.5-0.8-1-1.1-1.8-1s-1.2,0.6-1.5,1.1
			c-0.4,0.5-0.6,1.8-0.5,2.6c0.2,1.6,0.8,2.8,1.8,3.5c0.9,0.7,3.2,1.6,6.8,3.6c3.1,1.2,5.4,2.6,6.8,3.2c1.4,1.1,2.4,1.8,3.5,3.7
			c1.1,1.5,1.8,3.9,2.2,6.4c0.6,4.1-0.1,7.6-1.5,9.9c-2.2,2-4.9,4.1-8.9,5.1l0.7,4.5l-5.3,0.8l-0.7-4.5c-3.4,0.1-6-0.8-8.8-2.5
			c-2.4-1.8-4.5-4.8-5.3-10.1l-0.3-2.1l11.5-1.7l0.4,2.9c0.4,2.9,0.7,4.9,1.3,5.7c0.5,0.8,1,1.1,1.8,1s1.6-0.7,1.5-1.1
			c0.4-0.5,0.6-1.8,0.5-2.2c-0.4-2.5-1.1-4.5-1.6-5.2c-0.6-1.2-2-1.8-4.3-3.2c-4-1.5-6.7-2.8-8.1-3.8c-1.8-1-2.8-2.1-4-4
			c-1.5-1.5-2.3-3.9-2.6-5.9c-0.5-3.3,0.3-6.4,1.7-8.7c1.4-1.9,4.4-4,8.5-5l-0.5-3.7l6.2-0.9l0.5,3.7c3.8-0.1,6.4,0.7,8.8,2.5
			c1.9,1.4,3.2,4.6,3.7,7.9C353.2,300.4,353.3,301.2,353.5,302.5z		">
<animateTransform  accumulate="none" additive="replace" attributeName="transform" calcMode="linear" dur="0.5s" fill="remove" repeatCount="indefinite" restart="always" times="0;0.5;1" type="rotate" values="-2 50 50;3 50 50;-2 50 50;">
				</animateTransform>
		</path>
		
			<animateTransform  accumulate="none" additive="replace" attributeName="transform" calcMode="linear" dur="0.5s" fill="remove" repeatCount="indefinite" restart="always" times="0;0.5;1" type="translate" values="0 -5;0 5;0 -5;">
			</animateTransform>
	</g>
	<g>
		<polygon class="st18" points="55.8,252.6 41.2,252.6 39.1,245.1 57.4,245.1 		"/>
		<circle class="st18" cx="41.6" cy="314.8" r="31.6">
		
			<animateTransform  accumulate="none" additive="replace" attributeName="transform" calcMode="linear" dur="0.5s" fill="remove" repeatCount="indefinite" restart="always" times="0;0.5;1" type="rotate" values="2 50 50;-1 50 50;2 50 50;">
			</animateTransform>
		</circle>
		<path class="st10" d="M58.2,308.5L47,305.4l0.4-1.6c0.5-2,0.9-3.2,0.7-4.1s-0.5-1.4-1.3-1.6s-1.3,0.1-1.8,0.4s-1.2,1.4-1.5,2.2
			c-0.4,1.6-0.4,2.9,0.2,3.9s2.3,2.8,4.8,6.1c2.4,2.4,3.9,4.5,4.9,5.7c0.9,1.5,1.5,2.6,1.7,4.8c0.4,1.8,0.1,4.3-0.6,6.7
			c-1.1,4-3.2,6.9-5.3,8.5c-2.8,0.9-6.1,1.8-10.2,1.1l-1.2,4.4l-5.2-1.4l1.2-4.4c-3.1-1.3-5.2-3.1-7-5.8c-1.5-2.6-2.2-6.2-0.8-11.4
			l0.5-2l11.2,3.1l-0.8,2.8c-0.8,2.8-1.3,4.8-1.1,5.7c0.2,0.9,0.5,1.4,1.3,1.6c0.8,0.2,1.7,0,1.8-0.4c0.5-0.3,1.2-1.4,1.4-1.8
			c0.7-2.4,0.8-4.5,0.6-5.4c-0.1-1.3-1.1-2.4-2.6-4.6c-3.1-3-5-5.3-5.9-6.8c-1.3-1.6-1.7-3.1-2-5.3c-0.8-1.9-0.5-4.5,0-6.5
			c0.9-3.2,2.9-5.7,5-7.3c2-1.2,5.7-1.9,9.8-1.2l1-3.6l6,1.6l-1,3.6c3.5,1.4,5.6,3.3,7,5.8c1.2,2,1.1,5.5,0.2,8.7
			C58.8,306.5,58.5,307.3,58.2,308.5z		">
<animateTransform  accumulate="none" additive="replace" attributeName="transform" calcMode="linear" dur="0.5s" fill="remove" repeatCount="indefinite" restart="always" times="0;0.5;1" type="rotate" values="3 50 50;-2 50 50;3 50 50;">
				</animateTransform>
		</path>
		<path class="st13" d="M89.5,264.7c0,0,3.6,1,4.7,5.2s0.5,7.9-0.3,9.5c-2,4-3.4,4.9-7.6,5.3c-5.6,0.5-28.7,6.2-46.8-13.4
			c0,0-6.3-12.5,2-15.3c0,0,7.1-1.6,13.6,1S80.4,265.2,89.5,264.7z"/>
		<path class="st4" d="M60.8,279.2c-4.7-1.7-11.9-8.9-13.7-12.3c-1.8-3.5,3.7-8.8,3.7-8.8s1-0.7,2.4-1.6c0.6,0.2,1.2,0.4,1.9,0.6
			c6.5,2.6,25.3,8.1,34.4,7.7c0,0,3.6,1,4.7,5.2c0.3,1.1,0.4,2.2,0.5,3.2c-1.5,2.7-3.2,4.9-4,5.5c-1.9,1.2-3.4,1.4-6.5,2.4
			C81,281.9,64.7,280.6,60.8,279.2z"/>
		<path class="st8" d="M89.5,264.7c0,0,3.6,1,4.7,5.2s0.5,7.9-0.3,9.5c-2,4-3.4,4.9-7.6,5.3c-5.6,0.5-28.7,6.2-46.8-13.4
			c0,0-6.3-12.5,2-15.3c0,0,7.1-1.6,13.6,1S80.4,265.2,89.5,264.7z"/>
		
			<animateTransform  accumulate="none" additive="replace" attributeName="transform" calcMode="linear" dur="0.5s" fill="remove" repeatCount="indefinite" restart="always" times="0;0.5;1" type="translate" values="0 -5;0 5;0 -5;">
			</animateTransform>
	</g>
	
		<animateTransform  accumulate="none" additive="replace" attributeName="transform" calcMode="linear" dur="2s" fill="remove" keyTimes="0;0.5;1" repeatCount="indefinite" restart="always" type="translate" values="0 -3;0 5;0 -3">
		</animateTransform>
</g>
</svg>
