<svg xmlns="http://www.w3.org/2000/svg" x="0px" y="0px" viewBox="0 0 385.5 466.3" style="enable-background:new 0 0 385.5 466.3;" xml:space="preserve">
<style type="text/css">
	.st0{fill:#0052FF;stroke:#FFFFFF;stroke-miterlimit:10;}
	.st1{fill:#FFFFFF;}
	.st2{opacity:0.1;fill:#A3A3A3;enable-background:new    ;}
	.st3{fill:#606373;}
	.st4{fill:#11113B;}
	.st5{fill:#EFEFEF;}
	.st6{fill:#B1B1C9;}
	.st7{fill:#DCDBEA;stroke:#8D8DAA;stroke-miterlimit:10;}
	.st8{fill:#8D8DAA;}
	.st9{fill:none;stroke:#8D8DAA;stroke-miterlimit:10;}
	.st10{opacity:0.1;fill:#FFFFFF;enable-background:new    ;}
	.st11{fill:#060423;}
	.st12{fill:#D6D6D6;}
	.st13{fill:#FBF9F9;}
	.st14{fill:url(#SVGID_1_);}
	.st15{fill:#2CFBFB;}
	.st16{fill:none;stroke:#8D8DAA;stroke-width:1.1014;stroke-miterlimit:11.0143;}
</style>
	<path class="st0" d="M319.1,67.9l1.3-17.3c0,0-16.7-17.9-5.2-37s40.2-10.9,40.2-10.9s30.3,4.5,30,25.6s-8.6,26.9-22.1,29.5  c-13.5,2.5-33.4-0.4-33.4-0.4L319.1,67.9z"/>
	<g>
	<path class="st1" d="M348.8,32.1c1,0.1,1.6,0.3,1.8,0.7c0.2,0.4,0.3,0.9,0.3,1.4s-0.2,0.9-0.6,1.3c-0.3,0.4-1,0.5-1.9,0.5l-0.8,8.3   c-0.1,0.9-0.4,1.5-1,1.7c-0.5,0.3-1.1,0.4-1.7,0.3c-0.5,0-0.9-0.3-1.3-0.7s-0.5-1-0.5-1.8l0.8-8.3l-13.6-1l-0.8,8.2   c-0.1,0.9-0.4,1.5-1,1.7c-0.5,0.3-1.1,0.4-1.7,0.4c-0.5,0-0.9-0.3-1.3-0.7s-0.5-1-0.4-1.8l2.2-22.1c0-0.5,0.2-0.9,0.4-1.2   c0.2-0.3,0.4-0.5,0.7-0.7c0.3-0.2,0.6-0.2,1-0.3c0.3,0,0.7,0,1,0c0.4,0,0.8,0.2,1.1,0.5c0.3,0.3,0.4,0.8,0.3,1.5l-1,10.4l13.6,1   l1-9.9c0-0.5,0.2-0.9,0.4-1.2c0.2-0.3,0.5-0.5,0.7-0.7c0.3-0.2,0.6-0.2,1-0.3c0.4,0,0.7,0,1,0c0.5,0,0.8,0.2,1.1,0.6   c0.3,0.3,0.4,0.8,0.3,1.5L348.8,32.1z ">
<animate accumulate="none" additive="replace" attributeName="opacity" begin="-0.7142857142857143s" calcMode="linear" dur="1s" fill="remove" keyTimes="0;0.5;1" repeatCount="indefinite" restart="always" values="1;0.5;1">
			</animate>
	</path>
		<path class="st1" d="M358.5,45.4c-0.1,0.7-0.4,1.1-0.8,1.4c-0.5,0.3-0.9,0.4-1.4,0.4s-0.9-0.2-1.3-0.5s-0.6-0.8-0.6-1.4   c0.2-2.7,0.5-5.4,0.7-8.2c0.3-2.8,0.5-5.5,0.7-8.2c0.2-0.6,0.5-1,0.9-1.2c0.4-0.3,0.8-0.4,1.3-0.3c0.4,0,0.8,0.2,1.2,0.5   s0.6,0.7,0.7,1.3c-0.2,2.7-0.5,5.4-0.7,8.2C358.9,40,358.7,42.7,358.5,45.4z M356.2,21.9c0.1-0.6,0.3-1.1,0.9-1.6   c0.5-0.4,1.1-0.6,1.8-0.5c0.7,0,1.2,0.3,1.7,0.8s0.6,1,0.6,1.7c-0.1,0.6-0.4,1.1-0.9,1.5s-1.1,0.6-1.8,0.5c-0.7,0-1.2-0.3-1.6-0.8   C356.3,23,356.1,22.5,356.2,21.9z ">
<animate accumulate="none" additive="replace" attributeName="opacity" begin="-0.8571428571428571s" calcMode="linear" dur="1s" fill="remove" keyTimes="0;0.5;1" repeatCount="indefinite" restart="always" values="1;0.5;1">
			</animate>
	</path>
		<path class="st1" d="M365.6,45.1c0.1-0.7,0.4-1.2,1-1.6c0.6-0.4,1.2-0.6,2-0.5s1.4,0.3,1.9,0.8s0.7,1.1,0.6,1.7   c-0.1,0.6-0.4,1.1-1,1.6c-0.6,0.4-1.3,0.6-2,0.5s-1.3-0.3-1.8-0.8C365.7,46.3,365.5,45.7,365.6,45.1z M369.1,21.9   c0.4-0.3,0.8-0.4,1.2-0.4c0.4,0,0.8,0.2,1.2,0.5c0.4,0.3,0.6,0.7,0.8,1.3L370.9,38c-0.1,0.6-0.4,1.1-0.8,1.4   c-0.4,0.3-0.9,0.4-1.4,0.4s-0.9-0.2-1.3-0.5s-0.6-0.8-0.6-1.4l1.5-14.7C368.4,22.6,368.7,22.2,369.1,21.9z ">
<animate accumulate="none" additive="replace" attributeName="opacity" begin="-0.2857142857142857s" calcMode="linear" dur="1s" fill="remove" keyTimes="0;0.5;1" repeatCount="indefinite" restart="always" values="1;0.5;1">
			</animate>
	</path>
</g>
	<ellipse class="st2" cx="189.1" cy="450.3" rx="135.6" ry="16">
<animate accumulate="none" additive="replace" attributeName="rx" calcMode="linear" dur="2s" fill="remove" keyTimes="0;0.5;1" repeatCount="indefinite" restart="always" values="115.6;135.6;115.6">
	</animate>
</ellipse>
	<g>
	<path class="st3" d="M118.1,281.8c-17.6,1.3-22.8,11.7-22.8,11.7c38.9,9.1,150.1,9.1,189.1,0c0,0-6.7-11.4-24.2-12.7   C238.5,279.2,139.3,280.2,118.1,281.8z"/>
		<path class="st4" d="M246.8,287.6c0,0,3.2-4.2-0.6-7.4s-108.2-1.5-112-0.3s-0.9,7.7-0.9,7.7c-3.2,5.3,1.2,7.8,1.2,7.8   c-1.4,1.4,1.2,3.2,1.2,3.2l3.3,2.9l48.5-0.6l53.5,0.6l3.3-2.9c0,0,2.7-1.8,1.2-3.2C245.5,295.5,250,293,246.8,287.6z"/>
		<path class="st5" d="M284.4,293.5c-38.9,9.1-150.1,9.1-189.1,0c0,0-6.4,101.1,50.2,116c0,0,21.6,5.3,44.3,5.1   c22.8,0.2,44.3-5.1,44.3-5.1C290.8,394.6,284.4,293.5,284.4,293.5z"/>
		<path class="st6" d="M255.4,320.4c-0.9-13.9-1.8-18.9-1.9-19.8v-0.2l0,0l0,0c0,0-0.6,0.1-1.8,0.2c-5.9,0.7-26.1,2.6-61.2,2.6   s-55.3-1.9-61.2-2.6c-1.2-0.1-1.8-0.2-1.8-0.2l0,0l0,0v0.2c-0.2,0.9-1.1,6-1.9,19.8c-0.5,8.6,0,19.4,0,19.4s-0.1,19.3,12.2,34.8   c0.9,1.2,2,2.4,3.1,3.5c2.7,2.8,5.1,5.2,7.9,7.3l0.1,0.1c0.1,0.1,0.2,0.1,0.3,0.2c0.9,0.6,1.8,1.2,2.8,1.8l0,0   c0.3,0.2,0.7,0.4,1,0.6c0.2,0.1,0.5,0.3,0.7,0.4c0.1,0.1,0.2,0.1,0.3,0.2c7.1,3.4,17.3,5.2,36.1,5.2c0.1,0,0.1,0,0.2,0   c0.1,0,0.1,0,0.2,0c0.1,0,0.1,0,0.2,0c0.1,0,0.1,0,0.2,0c18.8,0,29-1.8,36.1-5.2c0.1-0.1,0.2-0.1,0.3-0.2c0.3-0.1,0.5-0.2,0.7-0.4   c0.4-0.2,0.7-0.4,1-0.6l0,0c1-0.6,1.9-1.2,2.8-1.8c0.1-0.1,0.2-0.1,0.3-0.2l0.1-0.1c2.8-2.1,5.2-4.5,7.9-7.3   c1.1-1.1,2.1-2.3,3.1-3.5c12.3-15.5,12.2-34.8,12.2-34.8S255.9,329,255.4,320.4z"/>
		<circle class="st7" cx="134.2" cy="306.5" r="3.8"/>
		<circle class="st7" cx="150.9" cy="375" r="3.8"/>
		<path class="st8" d="M251.7,300.6C251.7,300.6,251.6,300.6,251.7,300.6c-2.1,0.2-5.8,0.6-11.2,1c1.7,12.6,3.2,44.2-7.7,59.6   c-14.7,20.9-60.4,39.3-87.2,21.7c1,0.9,2,1.8,3.1,2.6l0.1,0.1c0.1,0.1,0.2,0.1,0.3,0.2c0.9,0.6,1.8,1.2,2.8,1.8l0,0   c0.3,0.2,0.7,0.4,1,0.6c0.2,0.1,0.5,0.3,0.7,0.4c0.1,0.1,0.2,0.1,0.3,0.2c7.1,3.4,17.3,5.2,36.1,5.2c0.1,0,0.1,0,0.2,0   c0.1,0,0.1,0,0.2,0c0.1,0,0.1,0,0.2,0c0.1,0,0.1,0,0.2,0c18.8,0,29-1.8,36.1-5.2c0.1-0.1,0.2-0.1,0.3-0.2c0.3-0.1,0.5-0.2,0.7-0.4   c0.4-0.2,0.7-0.4,1-0.6l0,0c1-0.6,1.9-1.2,2.8-1.8c0.1-0.1,0.2-0.1,0.3-0.2l0.1-0.1c2.8-2.1,5.2-4.5,7.9-7.3   c1.1-1.1,2.1-2.3,3.1-3.5c12.3-15.5,12.2-34.8,12.2-34.8s0.5-10.8,0-19.4c-0.9-13.9-1.8-18.9-1.9-19.8v-0.2   C253.4,300.4,252.8,300.5,251.7,300.6z"/>
		<circle class="st0" cx="224.6" cy="328.2" r="21.6">

		<animate accumulate="none" additive="replace" attributeName="fill" calcMode="linear" dur="2s" fill="remove" keyTimes="0;0.5;1" repeatCount="indefinite" restart="always" values="#272362;#0052ff;#272362">
		</animate>
	</circle>
		<circle class="st7" cx="246.2" cy="306.5" r="3.8"/>
		<path class="st9" d="M284.4,293.5c-38.9,9.1-150.1,9.1-189.1,0c0,0-6.4,101.1,50.2,116c0,0,21.6,5.3,44.3,5.1   c22.8,0.2,44.3-5.1,44.3-5.1C290.8,394.6,284.4,293.5,284.4,293.5z"/>
		<path class="st10" d="M210.6,344.7c3.8,3.2,8.6,5.1,13.9,5.1c11.9,0,21.6-9.7,21.6-21.6c0-6.1-2.6-11.7-6.7-15.6   c1.5,3.7,7.5,20.5-7.9,31.4C231.7,344,223,348.6,210.6,344.7z"/>
		<circle class="st7" cx="230.3" cy="375" r="3.8"/>
		<path class="st11" d="M273.7,367.8c-10.7-6.7-21.1,11-21.1,11c-16.3,29.9-51.8,35.5-51.8,35.5l0,0c18.3-1.1,33.4-4.8,33.4-4.8   c20.5-5.4,32.8-22.1,40-41.3C274.1,368,273.9,367.9,273.7,367.8z"/>
		<path class="st11" d="M126.4,378.7c0,0-10.4-17.7-21.1-11c7.2,19.3,19.5,36.2,40.2,41.7c0,0,14.8,3.6,32.7,4.8   C178.1,414.2,142.7,408.6,126.4,378.7z"/>
		<path class="st8" d="M284.4,294.5c-0.7-0.2-1.4-0.4-2.1-0.5c-3,0.6-6.2,1.2-9.9,1.7l-2.3,1.6c0,0-1.7,45,1.5,51.3   c1.8,3.5,4.5,5.6,6.6,6.8C285.6,328.1,284.7,299.9,284.4,294.5z"/>
		<path class="st8" d="M135.9,298.7c-0.4-0.9-1.5-2-3.3-3.4c-16.3-12.2-32.1-2.1-33.9-0.8C108.4,296.4,121.3,297.8,135.9,298.7z"/>
		<path class="st8" d="M244,298.7c0.4-0.9,1.5-2,3.3-3.4c16.3-12.2,32.1-2.1,33.9-0.8C271.5,296.4,258.6,297.8,244,298.7z"/>
		<path class="st9" d="M284.4,293.5c-38.9,9.1-150.1,9.1-189.1,0c0,0-6.4,101.1,50.2,116c0,0,21.6,5.3,44.3,5.1   c22.8,0.2,44.3-5.1,44.3-5.1C290.8,394.6,284.4,293.5,284.4,293.5z"/>
		<path class="st12" d="M284.7,287.2c0,0,7.8,12.6,7.5,47.5c0,0-0.6,9.2-5.8,12c-4.9,2.6-8.2-3.4-9.4-6.3c-2.5-5.9-2.1-10.6-2.5-22.2   c-0.3-11.5-5.4-28.5-5.4-28.5l11.3-0.1L284.7,287.2z"/>
		<path class="st5" d="M269.1,289.7c0,0,5.1,17,5.4,28.5s0,16.3,2.5,22.2c0.6,1.4,1.6,3.3,3,4.9c0.4-1.2,0.9-2.6,1.3-4   c5.5-19.2-3.7-40.8-9.4-51.6H269.1z"/>
		<path class="st9" d="M284.7,287.2c0,0,7.8,12.6,7.5,47.5c0,0-0.6,9.2-5.8,12c-4.9,2.6-8.2-3.4-9.4-6.3c-2.5-5.9-2.1-10.6-2.5-22.2   c-0.3-11.5-5.4-28.5-5.4-28.5l11.3-0.1L284.7,287.2z"/>
		<path class="st5" d="M318.5,80.5C301,68.8,109.2,54.1,90.1,63.1c0,0-44.2,18.5-50.7,65.4l-4.3,56.2c0,0-2.1,44.9,11.9,62   s28.4,26.3,50.2,31.9c19.2,4.9,66.2,10.4,86.9,12.4v0.1c1,0.1,2.1,0.2,3.4,0.2c1.3,0.1,2.5,0.2,3.4,0.3v-0.1   c20.8,1.2,68.1,2.9,87.8,0.9c22.4-2.2,37.9-9.2,54.4-23.9c16.5-14.7,21.2-59.5,21.2-59.5l4.3-56.2   C359.3,105.5,318.5,80.5,318.5,80.5z"/>
		<path class="st1" d="M39.9,128.4l-2.4,31.9c14.6-74.2,60.4-92.5,60.4-92.5l-1.5-6.9c-2.2,0.7-4.2,1.4-5.7,2.1   C90.6,63,46.4,81.5,39.9,128.4z"/>
		<path class="st11" d="M298.8,261.1c-0.7,0.3-1.4,0.7-2.2,1.2c-5.4,2.9-14.3,7.7-42.1,8.8l-59.3-3.3l-8.1-0.6l-59.1-5.7   c-27.3-5.3-35.4-11.4-40.3-15.1c-0.7-0.5-1.4-1-2-1.5c-17.1-13.4-16.4-47.4-16.4-48.8l2.9-38c1.2-19.5,5.2-24.3,5.8-24.9l0.3-0.1   l0.4-0.6c4.4-6.1,14.4-10.4,22.4-13.8c1.2-0.5,2.4-1,3.5-1.5c28.1-9.4,77.7-7.7,94.4-6.8l8.1,0.6c16.6,1.7,65.9,7.5,92.3,21.1   c1,0.6,2.1,1.3,3.3,2c7.4,4.6,16.7,10.3,20,17.1l0.3,0.7l0.3,0.1c0.5,0.7,3.7,6.1,1.9,25.5l-2.9,38   C322.3,216.8,317.7,250.5,298.8,261.1z"/>
		<path class="st12" d="M318.5,80.5c-0.2-0.1-0.4-0.2-0.5-0.3l5.9,7.6c0,0,33.6,31.3,24.2,82.3s-19.3,89.7-62.4,109.7   c-37.4,17.3-109.9,9.9-196.5-3.6c2.6,0.9,5.3,1.6,8.1,2.4c19.2,4.9,66.2,10.4,86.9,12.4v0.1c1,0.1,2.1,0.2,3.4,0.2   c1.3,0.1,2.5,0.2,3.4,0.3v-0.1c20.8,1.2,68.1,2.9,87.8,0.9c22.4-2.2,37.9-9.2,54.4-23.9c16.5-14.7,21.2-59.5,21.2-59.5l4.3-56.2   C359.3,105.5,318.5,80.5,318.5,80.5z"/>
		<path d="M107.4,251.9c0,0-26.4-5.6-28.6-36.2s3.5-66.7,3.5-66.7s0.7-13.3,24.5-21c14.6-4.7,52.2-14.4,102.6-9.3   c31.8,3.2,84.3,8.2,108,32.2c0,0-131.7-50.2-201.3,4.6C116.1,155.5,65.8,193.8,107.4,251.9z"/>
		<path d="M276.7,152.8c0,0-145.9-44.5-175.1,56.2c0,0-5.1-64.9,90.8-70.2C192.3,138.8,246,139,276.7,152.8z"/>
		<path class="st9" d="M318.5,80.5C301,68.8,109.2,54.1,90.1,63.1c0,0-44.2,18.5-50.7,65.4l-4.3,56.2c0,0-2.1,44.9,11.9,62   s28.4,26.3,50.2,31.9c19.2,4.9,66.2,10.4,86.9,12.4v0.1c1,0.1,2.1,0.2,3.4,0.2c1.3,0.1,2.5,0.2,3.4,0.3v-0.1   c20.8,1.2,68.1,2.9,87.8,0.9c22.4-2.2,37.9-9.2,54.4-23.9c16.5-14.7,21.2-59.5,21.2-59.5l4.3-56.2   C359.3,105.5,318.5,80.5,318.5,80.5z"/>
		<path class="st13" d="M207.1,45.2c-74.1-7.6-116.4,15-116.4,15s4.1,3.2,6.6,7.7c2.5,4.4,5.7,9.4,17.4,15.4   c14.9,7.6,88.3,14.3,88.3,14.3s73.6,4.6,89.4-0.7c12.5-4.1,16.4-8.6,19.6-12.6s7.7-6.6,7.7-6.6S281.5,48.9,207.1,45.2z"/>
		<polygon class="st8" points="319.9,81.5 320.7,77.7 316.8,79.7  "/>
		<path class="st5" d="M301.2,67.2c-12.6,6.6-54.1,26.3-94.8,23.4c-48.7-3.5-108.2-23-108.2-23c-0.3,0.1-0.5,0.2-0.8,0.3   c2.5,4.4,5.8,9.4,17.4,15.3c14.9,7.6,88.3,14.3,88.3,14.3s73.6,4.6,89.4-0.7c12.5-4.1,16.4-8.6,19.6-12.6s7.7-6.6,7.7-6.6   S313.6,73,301.2,67.2z"/>
		<path class="st9" d="M207.1,45.2c-74.1-7.6-116.4,15-116.4,15s4.1,3.2,6.6,7.7c2.5,4.4,5.7,9.4,17.4,15.4   c14.9,7.6,88.3,14.3,88.3,14.3s73.6,4.6,89.4-0.7c12.5-4.1,16.4-8.6,19.6-12.6s7.7-6.6,7.7-6.6S281.5,48.9,207.1,45.2z"/>

		<linearGradient id="SVGID_1_" gradientUnits="userSpaceOnUse" x1="207.4301" y1="308.9391" x2="471.3274" y2="308.9391" gradientTransform="matrix(0.9971 7.617819e-02 7.617819e-02 -0.9971 -164.807 471.2371)">
		<stop offset="0" style="stop-color:#FFFFFF"/>
			<stop offset="0.9994" style="stop-color:#99AAD1"/>
	</linearGradient>
		<path class="st14" d="M330.3,177.8c1.9-21-1.7-27.5-3.2-29.3c-4.1-7.8-13.8-13.9-21.7-18.7c-1.2-0.7-2.3-1.4-3.3-2.1l-0.2-0.1   c-13.8-7.1-34.8-13-62.5-17.5c-13.4-2.2-25.2-3.5-31.8-4.2v-0.1l-2.5-0.2c0,0-0.6,0-1.6-0.1s-1.5-0.1-1.6-0.1l-2.5-0.2v0.1   c-6.6-0.4-18.5-0.9-32.1-0.7c-28,0.3-49.7,2.9-64.4,7.8l-0.2,0.1c-1.1,0.5-2.3,1-3.6,1.5c-8.5,3.6-19,8.1-24.3,15.2   c-1.8,1.5-6.3,7.4-7.6,28.5l-2.9,38v0.1c-0.1,1.5-1.1,37.9,18.4,53l0.1,0.1c0.6,0.4,1.2,0.9,1.9,1.4c5.2,3.9,13.9,10.5,42.4,16   l59.5,5.8v0.2l4.1,0.2l4.1,0.4v-0.2l59.7,3.4c29-1.1,38.6-6.3,44.4-9.4c0.7-0.4,1.4-0.8,2.1-1.1l0.1-0.1   c21.5-12.1,26-48.1,26.2-49.6v-0.1L330.3,177.8z M298.8,261.1c-0.7,0.3-1.4,0.7-2.2,1.2c-5.4,2.9-14.3,7.7-42.1,8.8l-59.3-3.3   l-8.1-0.6l-59.1-5.7c-27.3-5.3-35.4-11.4-40.3-15.1c-0.7-0.5-1.4-1-2-1.5c-17.1-13.4-16.4-47.4-16.4-48.8l2.9-38   c1.2-19.5,5.2-24.3,5.8-24.9l0.3-0.1l0.4-0.6c4.4-6.1,14.4-10.4,22.4-13.8c1.2-0.5,2.4-1,3.5-1.5c28.1-9.4,77.7-7.7,94.4-6.8   l8.1,0.6c16.6,1.7,65.9,7.5,92.3,21.1c1,0.6,2.1,1.3,3.3,2c7.4,4.6,16.7,10.3,20,17.1l0.3,0.7l0.3,0.1c0.5,0.7,3.7,6.1,1.9,25.5   l-2.9,38C322.3,216.8,317.7,250.4,298.8,261.1z"/>
		<polygon class="st8" points="89.6,62.9 89.8,60 92.7,61.7  "/>
		<path class="st15" d="M195,250.6c4.7,0.4,8.8-3.2,9.1-7.9l-17-1.3C186.8,246.1,190.3,250.2,195,250.6z"/>
		<path class="st3" d="M185.8,287.7"/>
		<g transform="translate(-200, 0)">
    <g transform="translate(-10, 0)">
      <path class="st5" d="M100.8,286.8c0,0-25.8-15.3-32.4-22.9c0,0-12.2-8.9-18.4-7.3c-6.2,1.7-7.2,7.9-5,12.7s18.2,33.5,48.9,32.6    C94,301.9,93.5,291.1,100.8,286.8z"/>
		<path class="st12" d="M94,301.9c0,0-0.3-6.1,2.6-10.9c-20.4,0.9-41.2-10.2-46.5-13.3C57.3,287.7,71.8,302.5,94,301.9z"/>
		<path class="st16" d="M100.8,286.8c0,0-25.8-15.3-32.4-22.9c0,0-12.2-8.9-18.4-7.3c-6.2,1.7-7.2,7.9-5,12.7s18.2,33.5,48.9,32.6    C94,301.9,93.5,291.1,100.8,286.8z"/>
    </g>
			<animateTransform attributeName="transform" attributeType="XML" type="rotate" dur="0.5s" values="-10 100 300;-20 100 300;-10 100 300;" repeatCount="indefinite" fill="remove"/>
  </g>
		<circle class="st15" cx="132.1" cy="209.4" r="27.8">

		<animate accumulate="none" additive="replace" attributeName="r" calcMode="linear" dur="2s" fill="remove" keyTimes="0;0.01;0.02;0.98;0.99;1" repeatCount="indefinite" restart="always" values="0;0;27.8;27.8;0;0">
		</animate>
	</circle>
		<circle class="st15" cx="259.9" cy="215.3" r="27.8">

		<animate accumulate="none" additive="replace" attributeName="r" calcMode="linear" dur="2s" fill="remove" keyTimes="0;0.01;0.02;0.98;0.99;1" repeatCount="indefinite" restart="always" values="0;0;27.8;27.8;0;0">
		</animate>
	</circle>

		<animateTransform accumulate="none" additive="replace" attributeName="transform" calcMode="linear" dur="2s" fill="remove" keyTimes="0;0.5;1" repeatCount="indefinite" restart="always" type="translate" values="0 -3;0 5;0 -3">
		</animateTransform>
		<path class="st1" d="M216.9,330.2c0.2,0,0.4,0,0.6,0c5.4,0,10.8,0,16.2,0c1.3,0,2.5-0.8,2.7-2c0.1-0.7,0.1-1.4-0.1-2.1   c-0.4-2.4-1.5-4.5-3.2-6.2c-0.8-0.9-1-1.9-0.5-2.9c0.8-1.4,2.7-1.7,3.9-0.5c1.9,1.9,3.3,4.2,4.1,6.8c2.5,8.1-1.2,16.6-8.9,20.2   c-2.3,1.1-4.7,1.6-7.2,1.6c-1.1,0-2.1-0.8-2.3-1.8c-0.3-1.2,0.2-2.3,1.3-2.8c0.4-0.2,0.8-0.2,1.3-0.3c2.4-0.1,4.6-0.8,6.6-2.2   c0.7-0.5,1-1.2,0.8-2c-0.2-1.3-1.5-1.9-2.7-1.3c-0.8,0.3-1.5,0.8-2.3,1.1c-4.2,1.5-9-0.9-10.3-5.2   C216.9,330.5,216.9,330.3,216.9,330.2z"/>
		<path class="st1" d="M207.8,328.7c0-7.6,4.5-13.9,11.2-16.3c1.8-0.6,3.6-0.9,5.5-0.9c1.4,0,2.5,1,2.5,2.3c0.1,1.3-0.9,2.4-2.4,2.5   c-1.3,0.1-2.5,0.2-3.7,0.6c-4.2,1.5-6.9,4.4-7.9,8.8c-0.9,4.2,0.2,7.8,3.2,11c0.8,0.8,0.9,1.9,0.5,2.8c-0.4,0.9-1.3,1.4-2.4,1.3   c-0.6,0-1.1-0.3-1.6-0.8C209.5,336.7,207.9,332.8,207.8,328.7z"/>
		<path class="st1" d="M232.4,326.2c-5.2,0-10.3,0-15.5,0c0.3-1.2,0.8-2.2,1.5-3.1c1.4-1.7,3.2-2.7,5.4-2.9c2.4-0.2,4.4,0.5,6.2,2.1   C231.2,323.3,232,324.6,232.4,326.2z"/>
</g>
</svg>