<svg xmlns="http://www.w3.org/2000/svg" x="0px" y="0px"
	 viewBox="0 0 768 440" style="enable-background:new 0 0 768 440;" xml:space="preserve">
<style type="text/css">
	.st0{fill:none;stroke:#FFFFFF;stroke-miterlimit:10;}
	.st1{fill:#F46C3D;}
	.st2{fill:#FFD200;}
	.st3{fill:#0062FF;}
	.st4{fill:#FFFFFF;}
	.st5{fill-rule:evenodd;clip-rule:evenodd;fill:#0062FF;}
	.st6{fill:#2BBF7F;}
</style>
<rect width="768" height="440"/>
<circle class="st0" cx="384" cy="220" r="249.1"/>
<circle class="st0" cx="384" cy="220" r="203.7"/>
<circle class="st0" cx="384" cy="220" r="158.1"/>
<path class="st1" d="M231.2,220.1l-12-0.1c0.3-46.1,21.2-91,57.3-123.1l8,9C250.9,135.8,231.4,177.5,231.2,220.1z"/>
<polyline points="509.9,114.2 509.9,114.2 500.7,121.9 "/>
<path class="st1" d="M324.7,360.4c-22.1-9.3-42-23.8-57.7-42.6l-9.2,7.7c17.1,20.3,38.6,36,62.5,46L324.7,360.4z"/>
<path d="M476.2,331.2"/>
<path class="st2" d="M492.1,343.4c23.9-20.9,41.4-48.4,50.1-79.5l-11.6-3.2c-8.1,29.1-24.6,54.8-47,74.2L492.1,343.4z"/>
<path class="st3" d="M199.9,148l-11.2-4.2c-9.3,23.6-14.4,49.4-14.4,76.3c0,22,3.4,43.2,9.7,63.2l11.3-3.9
	c-5.9-18.7-9.1-38.6-9.1-59.3C186.3,194.6,191.2,170.3,199.9,148z"/>
<path class="st1" d="M524.3,80.9c35.5,35.7,57.4,84.9,57.4,139.1c0,0.5,0,1,0,1.5l12,0.4c0-0.6,0-1.3,0-1.9
	c0-57.5-23.3-109.7-61-147.7L524.3,80.9z"/>
<path class="st2" d="M454.5,404.7c-21.9,8.4-45.7,13-70.5,13c-24.3,0-47.5-4.4-69-12.4l-4,11.3c22.7,8.5,47.3,13.1,73,13.1
	c26.2,0,51.4-4.9,74.5-13.7L454.5,404.7z"/>
<path class="st2" d="M237.2,87.8C257.6,65.2,283,47.3,311.8,36l-3.9-11.3c-30.7,12-57.9,31.1-79.6,55.2L237.2,87.8z"/>
<path class="st3" d="M608,314.8c-11.9,28.1-29.1,53.9-51.2,76.2l8.6,8.4c23.2-23.5,41.3-50.6,53.8-80.2L608,314.8z"/>
<path class="st2" d="M478.3-4.2c28.6,12,55,29.7,77.6,52.3c10.7,10.7,20.2,22.1,28.6,34.3l9.9-6.8c-8.8-12.7-18.8-24.8-30-36
	C540.6,15.9,513-2.6,483-15.2L478.3-4.2z"/>
<path class="st1" d="M231.1,409c-6.6-5.3-12.9-11-19-17.1c-20.3-20.3-36.6-43.6-48.4-68.9l-11,4.8c12.4,26.6,29.5,51.1,50.9,72.5
	c6.4,6.4,13,12.3,19.9,17.9L231.1,409z"/>
<circle class="st2" cx="633.1" cy="220" r="6.8"/>
<circle class="st4" cx="324.7" cy="72.3" r="6.8"/>
<circle class="st2" cx="448.8" cy="75.6" r="6.8"/>
<circle class="st1" cx="165" cy="100.4" r="6.8"/>
<circle class="st4" cx="134.9" cy="220" r="6.8"/>
<circle class="st3" cx="235" cy="359.4" r="6.8"/>
<circle class="st2" cx="422.9" cy="372.9" r="6.8"/>
<circle class="st3" cx="420.7" cy="20.1" r="6.8"/>
<circle class="st2" cx="384.4" cy="220" r="112.9"/>
<circle cx="384.4" cy="221.1" r="96.7"/>
<circle class="st2" cx="384.4" cy="231.2" r="96.7"/>
<path class="st1" d="M424.3,183.3c-8.6,0-18,4.7-27.9,13.9c-4.7,4.3-8.8,9-11.8,12.8c0,0,4.8,5.5,10.1,11.5
	c2.9-3.6,6.9-8.5,11.7-12.9c8.8-8.2,14.5-9.9,17.8-9.9c12.3,0,22.4,10.4,22.4,23.2c0,12.7-10,23.1-22.4,23.2c-0.6,0-1.3-0.1-2.1-0.3
	c3.6,1.7,7.5,2.9,11.1,2.9c22.6,0,27.1-15.6,27.3-16.8c0.6-2.9,1-5.9,1-9C461.6,200.7,444.9,183.3,424.3,183.3z"/>
<path d="M345.2,260.4c8.6,0,18-4.7,27.9-13.9c4.7-4.3,8.8-9,11.8-12.8c0,0-4.8-5.5-10.1-11.5c-2.9,3.6-6.9,8.5-11.7,12.9
	c-8.8,8.1-14.6,9.9-17.8,9.9c-12.3,0-22.4-10.4-22.4-23.2c0-12.7,10-23.1,22.4-23.2c0.6,0,1.3,0.1,2.1,0.3
	c-3.6-1.7-7.5-2.9-11.1-2.9c-22.6,0-27.1,15.6-27.3,16.8c-0.6,2.9-1,5.9-1,9C307.9,243.1,324.6,260.4,345.2,260.4z"/>
<path class="st5" d="M362.5,208.9c-2.5-2.4-14.6-12.2-26.1-12.6c-20.7-0.5-26.7,14.5-27.3,16.4c4-16.8,18.7-29.4,36.2-29.4
	c14.3,0,28.7,14,39.4,26.7l0,0c0,0,4.8,5.5,10.1,11.5c0,0,6,7.1,12.3,13.3c2.5,2.4,14.5,12.1,26.1,12.4
	c21.2,0.6,27.1-15.3,27.4-16.5c-3.9,16.9-18.7,29.5-36.3,29.6c-14.3,0-28.7-14-39.4-26.7c0,0,0,0,0,0.1c0,0-4.8-5.5-10.1-11.5
	C374.8,222.3,368.8,215.2,362.5,208.9z M309,213c0,0,0-0.1,0-0.1C309,212.9,309,212.9,309,213z"/>
<path class="st6" d="M374.6,222.6c-2.9,3.6-6.8,8.3-11.5,12.6c-8.8,8.1-14.6,9.9-17.8,9.9c-4.8,0-9.3-1.6-12.9-4.3l-10.8,10.8
	c6.4,5.5,14.7,8.8,23.7,8.8c8.6,0,18-4.7,27.9-13.9c4.7-4.3,8.8-9,11.8-12.8c0,0-4.7-5.4-9.9-11.3L374.6,222.6z"/>
<path class="st4" d="M460.6,230.9c0.6-2.9,1-5.9,1-9c0-12.4-5.7-23.5-14.5-30.5c-3.2,3.8-6.7,8-9.7,11.7c5.6,4.2,9.2,11,9.2,18.7
	c0,12.7-10,23.1-22.4,23.2c-0.6,0-1.3-0.1-2.1-0.3c3.6,1.7,7.5,2.9,11.1,2.9C455.9,247.7,460.4,232,460.6,230.9z"/>
</svg>
