<svg xmlns="http://www.w3.org/2000/svg" x="0px" y="0px"
	 viewBox="0 0 926 602.5" style="enable-background:new 0 0 926 602.5;" xml:space="preserve">
<style type="text/css">
	.st0{opacity:0.3;fill:none;stroke:#FFFFFF;stroke-width:8;}
	.st1{opacity:0.3;fill:#FFFFFF;}
	.st2{fill-rule:evenodd;clip-rule:evenodd;fill:#FFFFFF;}
</style>
<g>
	<path class="st0" d="M58.2,512.1V81.6c0-14.1,11.5-25.6,25.6-25.6H842c14.1,0,25.6,11.5,25.6,25.6v430.5
		c0,14.1-11.5,25.6-25.6,25.6H83.8C69.7,537.7,58.2,526.2,58.2,512.1z"/>
	<path class="st1" d="M148.4,489.9L148.4,489.9c0-3.1,2.5-5.7,5.7-5.7h618.7c3.1,0,5.7,2.5,5.7,5.7v0c0,3.1-2.5,5.7-5.7,5.7H154
		C150.9,495.6,148.4,493.1,148.4,489.9z"/>
	<path class="st1" d="M606.6,103.9L606.6,103.9c0-3.1,2.5-5.7,5.7-5.7h160.5c3.1,0,5.7,2.5,5.7,5.7l0,0c0,3.1-2.5,5.7-5.7,5.7H612.2
		C609.1,109.6,606.6,107.1,606.6,103.9z"/>
	<path class="st1" d="M663.8,149.3L663.8,149.3c0-3.1,2.5-5.7,5.7-5.7h103.2c3.1,0,5.7,2.5,5.7,5.7l0,0c0,3.1-2.5,5.7-5.7,5.7H669.5
		C666.4,155,663.8,152.5,663.8,149.3z"/>
	<path class="st1" d="M721.1,194.7L721.1,194.7c0-3.1,2.5-5.7,5.7-5.7h45.9c3.1,0,5.7,2.5,5.7,5.7v0c0,3.1-2.5,5.7-5.7,5.7h-45.9
		C723.7,200.4,721.1,197.9,721.1,194.7z"/>
</g>
<g>
	<path class="st2" d="M35.7,2.1c0-1.6-1.4-2.9-3-2.9l-13.4,0C8.6-0.8-0.1,7.5-0.1,17.7v12.8c0,1.6,1.4,2.9,3,2.9c1.7,0,3-1.3,3-2.9
		V17.7c0-7,6-12.7,13.3-12.7h13.4C34.4,5,35.7,3.7,35.7,2.1z"/>
	<path class="st2" d="M32.7,596.7H19.3C11.9,596.7,6,591,6,584v-12.8c0-1.6-1.4-2.9-3-2.9c-1.7,0-3,1.3-3,2.9V584
		c0,10.2,8.7,18.5,19.4,18.5h13.4c1.7,0,3-1.3,3-2.9S34.4,596.7,32.7,596.7z"/>
	<path class="st2" d="M919.9,571.3V584c0,7-6,12.7-13.3,12.7h-13.4c-1.7,0-3,1.3-3,2.9c0,1.6,1.4,2.9,3,2.9h13.4
		c10.7,0,19.4-8.3,19.4-18.5v-12.8c0-1.6-1.4-2.9-3-2.9S919.9,569.7,919.9,571.3z"/>
	<path class="st2" d="M893.2,5h13.4c7.3,0,13.3,5.7,13.3,12.7v12.8c0,1.6,1.4,2.9,3,2.9c1.7,0,3-1.3,3-2.9V17.7
		c0-10.2-8.7-18.5-19.4-18.5l-13.4,0c-1.7,0-3,1.3-3,2.9C890.1,3.7,891.5,5,893.2,5z"/>
</g>
<rect x="0" y="10%" width="4" height="79%">
	<animate attributeName="x" values="6%;88%;" keyTimes="0;1" dur="5s" repeatCount="indefinite" />
	<animate attributeName="fill" values="blue;" dur="5s" repeatCount="indefinite" />
</rect>
</svg>
