<svg xmlns="http://www.w3.org/2000/svg" x="0px" y="0px"
	 viewBox="0 0 768 440" style="enable-background:new 0 0 768 440;" xml:space="preserve">
<style type="text/css">
	.st0{fill:#0065FD;}
	.st1{fill:#BBC8C8;}
	.st2{fill:none;stroke:#FFFFFF;stroke-miterlimit:10;}
	.st3{fill:#FFD200;}
	.st4{fill:#000104;}
	.st5{fill:#B9C9C8;}
	.st6{fill:#F46B3D;}
	.st7{fill:#FFD201;}
	.st8{fill:#FFFFFF;}
	.st9{fill:none;stroke:#0065FD;stroke-miterlimit:10;}
	.st10{fill:none;stroke:#FFFFFF;stroke-width:2;stroke-miterlimit:10;}
</style>
<rect class="st0" width="768" height="440"/>
<polygon points="612.09,378.08 627.07,378.08 653.65,344.76 653.65,281.86 612.09,281.86 "/>
<polygon points="155.65,378.08 140.67,378.08 114.09,344.76 114.09,281.86 155.65,281.86 "/>
<path class="st1" d="M657.14,287.5v-76.05l-40.46-41.65V45.34H149.54v124.99l-39.94,41.12v76.05l39.94,41.18v7.92
	c-8.03-7.99-25.93-25.95-39.94-40.02v10.91l39.94,41.18v7.92c-8.03-7.99-25.93-25.95-39.94-40.02v9.4l39.94,41.18v7.92
	c-8.03-7.99-25.93-25.95-39.94-40.02v18.62l39.94,39.44v0.99h1l0,0v0h466.14v-0.47l40.46-39.96v-18.62
	c-14.32,14.38-32.71,32.83-40.46,40.53v-7.9l40.46-41.72v-9.4c-14.32,14.38-32.71,32.83-40.46,40.53v-7.9l40.46-41.72v-10.91
	c-14.32,14.38-32.71,32.83-40.46,40.53v-7.9L657.14,287.5z"/>
<rect x="163.07" y="57.71" width="442.14" height="323.06"/>
<line class="st2" x1="324.74" y1="106.17" x2="558.12" y2="106.17"/>
<line class="st2" x1="324.74" y1="122.03" x2="558.12" y2="122.03"/>
<line class="st2" x1="324.74" y1="136.39" x2="558.12" y2="136.39"/>
<line class="st2" x1="324.74" y1="152.85" x2="558.12" y2="152.85"/>
<line class="st2" x1="324.74" y1="106.17" x2="558.12" y2="106.17"/>
<line class="st2" x1="324.74" y1="169.3" x2="558.12" y2="169.3"/>
<line class="st2" x1="340" y1="90.91" x2="340" y2="184.56"/>
<line class="st2" x1="356.16" y1="90.91" x2="356.16" y2="184.56"/>
<line class="st2" x1="371.42" y1="90.91" x2="371.42" y2="184.56"/>
<line class="st2" x1="387.27" y1="90.91" x2="387.27" y2="184.56"/>
<line class="st2" x1="402.23" y1="90.91" x2="402.23" y2="184.56"/>
<line class="st2" x1="418.69" y1="90.91" x2="418.69" y2="184.56"/>
<line class="st2" x1="434.55" y1="90.91" x2="434.55" y2="184.56"/>
<line class="st2" x1="449.51" y1="90.91" x2="449.51" y2="184.56"/>
<line class="st2" x1="465.36" y1="90.91" x2="465.36" y2="184.56"/>
<line class="st2" x1="481.22" y1="90.91" x2="481.22" y2="184.56"/>
<line class="st2" x1="496.18" y1="90.91" x2="496.18" y2="184.56"/>
<line class="st2" x1="511.74" y1="90.91" x2="511.74" y2="184.56"/>
<rect x="204.15" y="86.66" class="st0" width="101.36" height="101.36"/>
<line class="st2" x1="527.6" y1="90.91" x2="527.6" y2="184.56"/>
<line class="st2" x1="542.86" y1="90.91" x2="542.86" y2="184.56"/>
<rect x="410.91" y="98.69" class="st3" width="15.26" height="15.26"/>
<rect x="504.26" y="145.22" class="st3" width="15.26" height="15.26"/>
<g>
	<path class="st4" d="M236.06,103.69c0,0,16.11,2.91,27.37,18.54l5.81-6.21C269.25,116.03,254.59,103.13,236.06,103.69z"/>
	<path class="st5" d="M263.44,122.23l2.93-3.13c-9.77-11.56-23.56-14.62-29.49-15.42c-0.27,0-0.54,0.01-0.81,0.02
		C236.06,103.69,252.18,106.61,263.44,122.23z"/>
	
		<rect x="265.12" y="116.64" transform="matrix(0.73 0.6834 -0.6834 0.73 156.3092 -151.6372)" class="st4" width="9.94" height="10.77"/>
	
		<rect x="265.73" y="115.08" transform="matrix(0.73 0.6834 -0.6834 0.73 154.789 -150.9175)" class="st5" width="5.36" height="10.77"/>
	
		<rect x="239.98" y="116.86" transform="matrix(0.73 0.6834 -0.6834 0.73 168.5284 -125.8282)" class="st6" width="7.09" height="67.08"/>
	
		<rect x="240.42" y="115.74" transform="matrix(0.73 0.6834 -0.6834 0.73 167.4442 -125.3149)" class="st7" width="3.82" height="67.08"/>
	
		<rect x="271.51" y="114.77" transform="matrix(0.73 0.6834 -0.6834 0.73 154.0236 -156.4652)" class="st6" width="7.09" height="3.9"/>
	
		<rect x="271.95" y="113.65" transform="matrix(0.73 0.6834 -0.6834 0.73 152.9394 -155.9519)" class="st7" width="3.82" height="3.9"/>
	
		<rect x="271.01" y="116.03" transform="matrix(0.73 0.6834 -0.6834 0.73 153.3721 -155.038)" class="st6" width="3.82" height="1.15"/>
	<path d="M270.7,128.64c0,0,16.32,11.89,20.05,25.97c0,0-0.33-17.17-14.4-32.01L270.7,128.64z"/>
	<path class="st5" d="M275.91,127.81l-2.72,2.81c4.49,3.76,13.79,12.46,17.11,22.48C287.72,138.74,275.91,127.81,275.91,127.81z"/>
</g>
<rect x="204.15" y="248.71" class="st0" width="101.36" height="101.36"/>
<circle cx="253.89" cy="306.49" r="34.26"/>
<circle class="st3" cx="253.89" cy="300.73" r="34.26"/>
<circle cx="253.89" cy="300.73" r="26.49"/>
<circle class="st3" cx="253.89" cy="304.77" r="26.49"/>
<polygon class="st8" points="259.94,304.05 270.45,300.88 259.36,297.42 265.41,288.93 257.06,294.69 253.89,284.32 250.72,294.83 
	242.37,288.93 248.27,297.57 237.33,300.88 247.84,304.05 242.23,311.96 250.58,306.35 253.89,317.43 257.2,306.21 265.26,311.96 
	"/>
<line class="st2" x1="324.99" y1="269.17" x2="558.36" y2="269.17"/>
<line class="st2" x1="324.99" y1="285.03" x2="558.36" y2="285.03"/>
<line class="st2" x1="324.99" y1="299.39" x2="558.36" y2="299.39"/>
<line class="st2" x1="324.99" y1="315.84" x2="558.36" y2="315.84"/>
<line class="st2" x1="324.99" y1="269.17" x2="558.36" y2="269.17"/>
<line class="st2" x1="324.99" y1="332.3" x2="558.36" y2="332.3"/>
<line class="st2" x1="340.24" y1="253.91" x2="340.24" y2="347.56"/>
<line class="st2" x1="356.4" y1="253.91" x2="356.4" y2="347.56"/>
<line class="st2" x1="371.66" y1="253.91" x2="371.66" y2="347.56"/>
<line class="st2" x1="387.52" y1="253.91" x2="387.52" y2="347.56"/>
<line class="st2" x1="402.48" y1="253.91" x2="402.48" y2="347.56"/>
<line class="st2" x1="418.93" y1="253.91" x2="418.93" y2="347.56"/>
<line class="st2" x1="434.79" y1="253.91" x2="434.79" y2="347.56"/>
<line class="st2" x1="449.75" y1="253.91" x2="449.75" y2="347.56"/>
<line class="st2" x1="465.61" y1="253.91" x2="465.61" y2="347.56"/>
<line class="st2" x1="481.47" y1="253.91" x2="481.47" y2="347.56"/>
<line class="st2" x1="496.43" y1="253.91" x2="496.43" y2="347.56"/>
<line class="st2" x1="511.98" y1="253.91" x2="511.98" y2="347.56"/>
<line class="st2" x1="527.84" y1="253.91" x2="527.84" y2="347.56"/>
<line class="st2" x1="543.1" y1="253.91" x2="543.1" y2="347.56"/>
<rect x="535.23" y="276.69" class="st3" width="15.26" height="15.26"/>
<rect x="426.17" y="307.79" class="st3" width="31.01" height="31.01"/>
<rect x="426.92" y="113.65" class="st0" width="15.26" height="15.26"/>
<rect x="457.74" y="98.69" class="st0" width="15.26" height="15.26"/>
<rect x="519.97" y="261.43" class="st0" width="15.26" height="15.26"/>
<rect x="348.53" y="261.43" class="st0" width="30.52" height="30.52"/>
<rect x="535.47" y="114.6" class="st1" width="15.26" height="15.26"/>
<rect x="348.08" y="145.22" class="st1" width="32.34" height="32.34"/>
<rect x="504.5" y="277.4" class="st1" width="15.26" height="15.26"/>
<rect x="380.42" y="145.22" class="st6" width="15.26" height="15.26"/>
<rect x="441.88" y="261.43" class="st6" width="15.26" height="15.26"/>
<rect x="379.44" y="292.81" class="st6" width="15.26" height="15.26"/>
<rect x="457.74" y="323.63" class="st6" width="15.26" height="15.26"/>
<rect x="473.14" y="113.65" class="st6" width="31.12" height="31.12"/>
<g>
	<g>
		<polyline class="st9" points="332.4,129.21 410.91,129.21 410.91,161.39 483.26,161.39 		"/>
		<g>
			<polygon class="st0" points="481.8,166.38 490.43,161.39 481.8,156.4 			"/>
		</g>
	</g>
</g>
<g>
	<g>
		<polyline class="st9" points="332.4,129.21 410.91,129.21 410.91,161.39 483.26,161.39 		"/>
		<g>
			<polygon class="st0" points="481.8,166.38 490.43,161.39 481.8,156.4 			"/>
		</g>
	</g>
</g>
<g>
	<g>
		<polyline class="st9" points="483.26,291.7 411.92,291.7 411.92,323.88 332.4,323.88 		"/>
		<g>
			<polygon class="st0" points="481.8,286.71 490.43,291.7 481.8,296.69 			"/>
		</g>
	</g>
</g>
<line class="st10" x1="185.2" y1="220" x2="581.89" y2="220"/>
<circle cx="137.87" cy="233.38" r="10.34"/>
<circle cx="137.87" cy="266.07" r="10.34"/>
<circle class="st3" cx="134.87" cy="231.38" r="10.34"/>
<circle class="st6" cx="134.87" cy="264.07" r="10.34"/>
<rect x="624.66" y="212.09" width="13.01" height="13.01"/>
<rect x="624.66" y="232.38" class="st8" width="13.01" height="13.01"/>
<rect x="624.66" y="252.66" width="13.01" height="13.01"/>
<rect x="624.66" y="272.94" class="st8" width="13.01" height="13.01"/>
</svg>
