<svg xmlns="http://www.w3.org/2000/svg" x="0px" y="0px"
	 viewBox="0 0 24 24" style="enable-background:new 0 0 24 24;" xml:space="preserve">
<style type="text/css">
	.st0{fill:none;}
	.st1{fill:#74B594;}
	.st2{fill:#098551;}
</style>
<path class="st0" d="M-1-1h26v26H-1V-1z"/>
<path class="st1" d="M12,2.3L4.5,4v9.9c0,1.4,0.7,2.8,1.9,3.6l5.6,3.8l5.7-3.8c1.2-0.8,1.9-2.2,1.9-3.6V4L12,2.3z M10.4,16.1
	l-4.5-4.5l1.4-1.4l3.1,3.1l7.1-7.1l1.4,1.4L10.4,16.1z"/>
<path class="st2" d="M20.9,2.1l-8.9-2l-8.9,2c-0.5,0.1-0.8,0.5-0.8,1v10.8c0,2.2,1.1,4.2,2.9,5.4l6.8,4.6l6.8-4.6
	c1.8-1.2,2.9-3.2,2.9-5.4V3.1C21.7,2.6,21.4,2.2,20.9,2.1z M19.6,13.9c0,1.4-0.7,2.8-1.9,3.6L12,21.3l-5.6-3.8
	c-1.2-0.8-1.9-2.2-1.9-3.6V4L12,2.3L19.6,4V13.9z"/>
</svg>
