<svg height="100" viewBox="0 0 512 350" fill="none" xmlns="http://www.w3.org/2000/svg" data-element="StyledIllustration" class="InviteFriendsContent__StyledIllustration-sc-1l1gyou-2 jjYCuu">
                <path d="M252.305 15.34l-7.64.668a6.575 6.575 0 011.143 13.097l7.639-.667a6.574 6.574 0 005.977-7.12c-.315-3.616-3.502-6.3-7.119-5.977z" fill="#1652F0"></path>
                <path d="M259.655 36.694l-52.383 4.583 3.437 39.289 52.383-4.582-3.437-39.29z" fill="#fff"></path>
                <path d="M259.656 36.693l-52.383 4.582.272 3.1 52.383-4.583-.272-3.1z" fill="#D4EEFF"></path>
                <path d="M232.151 75.889c9.535 1.681 18.627-4.685 20.309-14.22 1.681-9.535-4.686-18.628-14.221-20.31-9.535-1.68-18.627 4.686-20.309 14.221-1.681 9.535 4.686 18.628 14.221 20.309z" fill="#FFD066"></path>
                <path d="M232.722 72.647c7.745 1.365 15.13-3.806 16.495-11.55 1.366-7.745-3.805-15.13-11.549-16.495-7.745-1.366-15.13 3.805-16.496 11.55-1.365 7.744 3.806 15.129 11.55 16.495z" stroke="#fff" stroke-miterlimit="10"></path>
                <path d="M265.007 27.43l-64.624 5.653.764 8.731 64.624-5.653-.764-8.732z" fill="#fff"></path>
                <path d="M237.064 29.871l-8.731.764 4.2 48.013 8.731-.764-4.2-48.013zM237.082 29.865s7.584-13.857 15.224-14.532l-8.735.767c-7.639.667-15.224 14.532-15.224 14.532l8.735-.767z" fill="#56B4FC"></path>
                <path d="M210.83 18.968l7.64-.667a6.575 6.575 0 001.142 13.097l-7.639.667a6.575 6.575 0 01-1.143-13.097z" fill="#1652F0"></path>
                <path d="M228.347 30.631s-9.877-12.33-17.516-11.663l8.734-.767c7.64-.667 17.517 11.664 17.517 11.664l-8.735.766z" fill="#56B4FC"></path>
                <path d="M124.72 225.037s-6.89 27.096-10.138 34.196c-3.248 7.09-37.37 50.945-37.37 50.945s-2.099-1.381-3.919-2.908c13.917-22.891 16.225-43.246 28.569-50.888-1.499-14.926 4.099-34.019 4.099-34.019l18.759 2.674z" fill="#1652F0"></path>
                <path d="M73.295 307.26c1.82 1.518 3.919 2.908 3.919 2.908s1.518-1.95 3.93-5.083l-4.923-2.905a141.057 141.057 0 01-2.926 5.08zM76.868 300.989l5.112 3.018c.243-.319.507-.656.77-.994l-5.293-3.121c-.206.361-.392.724-.589 1.097z" fill="#fff"></path>
                <path opacity="0.3" d="M101.863 256.372c-12.344 7.642-14.652 27.997-28.569 50.888.392.327.805.646 1.198.954 7.608-9.589 15.011-29.33 15.011-29.33 3.82-9.399 12.602-19.158 14.976-21.529 2.374-2.381 1.923-20.514 3.229-23.333 1.079-2.321 8.292-1.347 15.166-1.928a596.975 596.975 0 001.846-7.057l-18.759-2.674c.001-.01-5.598 19.094-4.098 34.009z" fill="#135"></path>
                <path d="M77.214 310.168l4.47 9.79a3.483 3.483 0 01-.277 3.384L69.39 313.059l3.904-5.79 3.92 2.899z" fill="#0B283F"></path>
                <path d="M72.644 310.983l1.89-2.805-1.24-.918-3.904 5.79 12.017 10.283c.213-.312.338-.66.444-1.009l-8.67-7.418c-1.148-.971-1.376-2.666-.537-3.923z" fill="#06151E"></path>
                <path d="M150.465 228.467s8.625 23.237 7.554 30.39c-1.071 7.153-22.195 65.896-22.195 65.896s-1.654-.354-4.523-1.09c6.971-36.032 1.922-47.383 14.057-62.903-15.434-22.032-16.629-38.872-16.629-38.872l21.736 6.579z" fill="#1652F0"></path>
                <path d="M131.302 323.653a133.7 133.7 0 004.523 1.091s.65-1.798 1.712-4.791l-5.336-1.263a305.939 305.939 0 01-.899 4.963zM132.63 316.185l-.2 1.214 5.556 1.31c.133-.373.267-.765.411-1.166l-5.767-1.358z" fill="#fff"></path>
                <path opacity="0.3" d="M131.301 323.653c1.061.268 1.951.488 2.649.66.659-6.665 3.079-30.017 5.46-41.54 2.802-13.531 8.233-14.984 9.543-22.969 1.31-7.985-15.195-27.406-13.531-28.86 1.32-1.157 11.59 1.454 17.031 3.232v-.009l-.115-.344a16.343 16.343 0 01-.162-.488c-.038-.115-.086-.239-.124-.354-.077-.22-.144-.43-.22-.641-.039-.124-.087-.239-.125-.353-.038-.125-.086-.24-.124-.364-.067-.182-.124-.354-.182-.526-.028-.095-.067-.191-.095-.277-.039-.115-.077-.22-.115-.325-.029-.086-.067-.182-.096-.258-.057-.163-.115-.306-.162-.45l-.058-.153c-.028-.086-.057-.162-.086-.239-.038-.105-.076-.201-.105-.287-.029-.076-.048-.143-.076-.201-.01-.019-.01-.038-.02-.047-.028-.077-.057-.144-.076-.201-.019-.038-.029-.086-.038-.115 0-.01 0-.01-.01-.019l-.019-.057-21.745-6.589s1.195 16.84 16.629 38.872c-12.106 15.52-7.067 26.871-14.028 62.902z" fill="#135"></path>
                <path d="M139.229 179.297c6.952 23.83 18.417 44.82 19.708 55.252-49.333-18.293-56.677 1.808-75.735-8.759 18.809-26.144 18.216-43.079 27.626-51.829 0 0 27.32 2.677 28.401 5.336z" fill="#fff"></path>
                <path d="M141.227 199.464c-1.654-5.211-3.098-9.773-4.016-13.626 1.167-.134 1.855-.268 1.893-.268l-.181-.937c-.172.028-17.194 3.27-29.711-6.264l-.583.765c.554.421 1.118.813 1.692 1.195-1.415 3.242-2.496 7.039-3.71 11.389-2.496 8.913-5.585 19.938-13.474 33.441.354.028.717.048 1.071.067 7.775-13.417 10.844-24.375 13.321-33.249 1.186-4.256 2.238-7.976 3.605-11.131a31.385 31.385 0 003.089 1.664c-.813 2.964-1.416 6.321-2.066 10.117-1.492 8.635-3.328 19.221-8.931 31.853.373-.058.746-.115 1.119-.182 5.45-12.489 7.267-22.95 8.749-31.509.641-3.7 1.224-6.99 2.008-9.878 1.138.498 2.286.918 3.433 1.282-.401 2.811-.631 5.948-.87 9.448-.554 8.137-1.243 17.987-4.609 29.433.335-.038.679-.067 1.023-.095 3.299-11.38 3.978-21.172 4.542-29.271.24-3.424.459-6.493.842-9.228 1.214.353 2.419.631 3.605.86-.086 2.821 0 5.967.115 9.467.248 7.822.545 17.213-1.129 27.904l.966.028c1.674-10.719 1.368-20.119 1.119-27.96-.105-3.424-.201-6.503-.115-9.257 1.234.21 2.439.354 3.596.449.201 3.013.631 6.398 1.128 10.175.995 7.698 2.19 16.907 1.865 27.196.315.038.631.086.956.124.335-10.404-.87-19.689-1.874-27.454-.478-3.701-.909-7.028-1.109-9.974 1.138.077 2.228.115 3.241.115h.23c.526 3.385 1.377 7.239 2.362 11.59 1.731 7.707 3.806 16.945 4.695 27.072.325.066.65.143.985.219-.88-10.308-2.984-19.679-4.743-27.492-.966-4.284-1.807-8.08-2.324-11.398a53.19 53.19 0 003.242-.182c.928 3.93 2.381 8.539 4.064 13.818 2.477 7.803 5.441 17.184 7.497 27.272.344.105.698.211 1.052.316-2.094-10.357-5.135-19.948-7.66-27.904z" fill="#D4EEFF"></path>
                <path opacity="0.5" d="M140.128 182.252c-.306-.985-.603-1.97-.89-2.955-1.08-2.659-28.41-5.336-28.41-5.336-9.4 8.759-8.817 25.685-27.626 51.829 5.26 2.917 9.62 3.49 14.229 3.194.966-13.33 7.114-17.825 10.566-28.401 3.452-10.576 2.907-23.438 5.078-22.548 3.997 1.644 17.289 4.781 27.053 4.217z" fill="#99D6FF"></path>
                <path opacity="0.1" d="M141.313 333.684c-15.874.928-49.82-1.3-63.361-.822-13.55.478-42.554 3.854-63.754.497-21.2-3.366-17.05-12.355 6.694-11.609 23.744.756 31.719 6.541 59.45 6.522 27.732-.029 57.863 1.884 57.863 1.884l3.108 3.528z" fill="#1652F0"></path>
                <path d="M151.832 142.969l8.272 3.853 18.848-10.901 4.905-9.381s1.243.383.88 1.97l4.59-12.01a.745.745 0 01.947-.44l.153.057c.459.163.765.612.736 1.1l-1.138 12.412-5.192 5.919s-17.825 17.93-22.434 18.934c-4.609 1.004-13.665-4.399-13.665-4.399l3.098-7.114z" fill="#135"></path>
                <path d="M126.893 132.603c8.529-1.922 13.225 5.03 26.517 9.486.105 3.318-7.985 9.84-7.985 9.84l-18.532-19.326z" fill="#1652F0"></path>
                <path d="M149.729 146.918l8.185 5.049 23.113-13.197 5.814-10.012s1.358.488.88 2.238l5.671-13.292a.348.348 0 01.43-.191 1.553 1.553 0 011.014 1.52l-1.961 12.173a4.501 4.501 0 01-1.042 2.219l-4.686 5.307s-21.879 20.99-27.052 21.87c-5.183.879-15.109-5.767-15.109-5.767l4.743-7.917z" fill="#1652F0"></path>
                <path opacity="0.3" d="M193.812 117.513c-.153-.057-.296.019-.382.143-.259 4.38-1.014 12.021-3.271 15.645-3.261 5.24-25.226 22.854-30.304 24.681-4.666 1.673-9.897-3.098-13.483-5.451l-1.396 2.324s9.926 6.646 15.109 5.766c5.183-.88 27.052-21.869 27.052-21.869l4.686-5.308a4.298 4.298 0 001.042-2.218l1.961-12.173a1.554 1.554 0 00-1.014-1.54z" fill="#135"></path>
                <path d="M124.435 133.674c-8.491 5.957 1.023 19.01-13.607 40.287 12.842 9.773 30.093 6.349 30.093 6.349l-4.772-16.753s3.003-5.298 2.869-10.117c0 0 4.695 2.419 6.436 3.184.937-4.456 5.288-5.871 5.775-10.184-10.107-4.59-19.172-18.026-26.794-12.766z" fill="#56B4FC"></path>
                <path opacity="0.3" d="M127.849 132.727c.124-.096.258-.172.383-.258-1.301-.01-2.573.344-3.797 1.195-8.491 5.957 1.023 19.01-13.607 40.287a31.736 31.736 0 004.274 2.716c14.726-23.543 3.892-37.132 12.747-43.94zM140.921 180.311l-4.771-16.754s3.002-5.298 2.868-10.117l-1.912-1.023s-.335 7.305-2.764 9.925c-1.903 3.156.335 14.268 1.291 18.514 3.232-.134 5.288-.545 5.288-.545z" fill="#1652F0"></path>
                <path d="M125.294 128.35c3.089-.268 5.203-4.976 4.722-10.517-.48-5.541-3.373-9.815-6.462-9.547-3.089.268-5.203 4.976-4.723 10.517.481 5.54 3.374 9.815 6.463 9.547z" fill="#1652F0"></path>
                <path d="M125.294 128.35c3.089-.268 5.203-4.976 4.722-10.517-.48-5.541-3.373-9.815-6.462-9.547-3.089.268-5.203 4.976-4.723 10.517.481 5.54 3.374 9.815 6.463 9.547z" fill="#1652F0"></path>
                <path opacity="0.3" d="M122.839 108.419c-.115.038-.23.076-.345.124a2.018 2.018 0 00-.2.105 3.953 3.953 0 00-.287.163l-.201.143-.258.201a3.306 3.306 0 00-.201.182l-.239.239c-.067.067-.125.134-.191.21-.077.086-.144.182-.22.287a5.498 5.498 0 00-.173.239c-.076.105-.143.23-.21.344-.048.077-.096.153-.143.239-1.071 1.951-1.626 4.791-1.349 7.89.478 5.546 3.376 9.82 6.465 9.553 1.434-.125 2.658-1.215 3.509-2.907-.765.956-1.692 1.558-2.744 1.654-1.004.086-1.98-.306-2.869-1.052 1.855-4.389 3.481-13.302 2.677-17.117a3.86 3.86 0 00-1.109-.516c-.009 0-.019-.01-.029-.01a3.45 3.45 0 00-.506-.096c-.029 0-.048-.009-.077-.009a3.091 3.091 0 00-.593 0 3.382 3.382 0 00-.535.095c-.058 0-.115.029-.172.039z" fill="#135"></path>
                <path d="M121.069 127.334c2.544-1.492 6.34-19.775 3.175-20.244-4.695-.698-11.14 10.031-3.175 20.244z" fill="#0B283F"></path>
                <path d="M121.069 127.334c2.544-1.492 6.34-19.775 3.175-20.244-4.695-.698-11.14 10.031-3.175 20.244z" fill="#0B283F"></path>
                <path d="M117.301 110.341c-5.116 1.195-8.702-.755-15.634-9.563-6.933-8.807-14.191-17.662-24.251-17.337-10.06.335-17.777 10.194-14.306 21.765 3.185 10.634 17.978 18.714 29.224 14.334 10.059-3.92 17.231-4.523 23.275-1.874-.268-3.825 1.692-7.325 1.692-7.325zM135.824 324.743l5.738 5.652 2.266 1.549c.775.526.402 1.75-.535 1.75h-1.98l-11.628-3.93 1.616-6.101 4.523 1.08z" fill="#0B283F"></path>
                <path d="M144.067 332.728l-11.628-3.93 1.215-4.58-2.343-.565-1.616 6.101 11.628 3.93h1.979a.946.946 0 00.957-.956h-.192zM84.31 116.012c-8.338-.565-21.487-10.194-17.9-27.435-3.625 4.035-5.27 10.06-3.3 16.629 3.185 10.634 17.978 18.714 29.224 14.334 10.059-3.92 17.231-4.523 23.275-1.874a10.74 10.74 0 01.019-1.76c-16.16-4.762-21.841.746-31.317.106zM125.238 108.448c-.191-.784-.506-1.282-.994-1.358-4.695-.698-11.14 10.031-3.175 20.244.258-.153.517-.469.794-.918-3.261-6.665-3.357-14.851 3.375-17.968z" fill="#06151E"></path>
                <path d="M136.178 151.929s7.545 3.92 9.276 4.685c.918-4.35 5.078-5.804 5.728-9.878" stroke="#1652F0" stroke-miterlimit="10" stroke-linecap="round" stroke-linejoin="round"></path>
                <path opacity="0.1" d="M353.38 348.915c24.624 1.798 87.431-3.356 108.296-3.605 20.866-.249 50.988-3.978 49.391-9.218-1.578-5.174-42.63 2.419-54.468 2.916-11.839.507-35.2-1.166-54.306.689-19.106 1.855-30.811 4.198-42.41 4.905-5.48-.009-6.503 4.313-6.503 4.313z" fill="#1652F0"></path>
                <path d="M346.131 206.71s-6.034 52.556-6.034 62.501 17.433 65.618 17.433 65.618 3.93-2.19 7.43-4.092c-4.59-27.483-1.903-48.196-10.089-61.105 4.734-6.675 15.788-45.556 15.788-45.556s27.473 36.299 32.417 39.952c4.954 3.663 51.868 18.724 51.868 18.724l3.442-8.033s-37.017-21.238-44.982-22.74c-20.665-22.596-21.363-48.3-30.409-58.657l-17.93-3.337-18.934 16.725z" fill="#135"></path>
                <path d="M359.978 336.474l-6.913 10.079a1.774 1.774 0 00.325 2.362l14.229-9.438-2.812-5.68-4.829 2.677z" fill="#0B283F"></path>
                <path d="M364.797 333.806l-.985.545 2.066 4.169a.8.8 0 01-.277 1.023l-12.786 8.482c.096.335.278.651.565.899l14.229-9.438-2.812-5.68z" fill="#06151E"></path>
                <path d="M457.765 281.997l1.004 12.182a1.773 1.773 0 001.74 1.626l5.068-16.304-5.766-2.63-2.046 5.126z" fill="#0B283F"></path>
                <path d="M457.765 281.997l1.004 12.182a1.773 1.773 0 001.74 1.626l5.068-16.304-5.766-2.63-2.046 5.126zM383.004 193.322c3.749 18.523-12.345 30.753-12.345 30.753s10.156 13.417 19.23 24.758c-9.925-23.696 2.305-42.094-6.885-55.511z" fill="#0B283F"></path>
                <path d="M345.816 209.502c-.009.124-.029.249-.038.364 14.812-10.558 23.648 1.95 37.791-11.686l.488-1.444-1.042-3.414-19.652 1.492-17.222 11.896s-.153 1.3-.287 2.505a2.766 2.766 0 00-.038.287zM352.959 274.662c2.917 3.968 3.605 36.491 11.179 56.524.277-.153.545-.296.822-.449-4.59-27.483-1.903-48.196-10.088-61.105 4.733-6.675 15.787-45.556 15.787-45.556s-12.546 27.961-16.524 34.473c-3.978 6.522-4.16 12.039-1.176 16.113zM452.974 277.492a.386.386 0 01-.172-.038l-45.814-18.246a.413.413 0 01-.22-.181l-25.991-39.924a.48.48 0 01.143-.66.471.471 0 01.66.143l25.905 39.8 45.671 18.188a.475.475 0 01.268.621.49.49 0 01-.45.297z" fill="#0B283F"></path>
                <path d="M360.427 328.556a.48.48 0 01-.468-.373l-13.33-59.575a.344.344 0 010-.201l13.789-65.274a.49.49 0 01.564-.373.485.485 0 01.373.564l-13.77 65.179 13.301 59.47a.48.48 0 01-.363.573c-.029.01-.067.01-.096.01z" fill="#0B283F"></path>
                <path d="M305.605 124.855l-5.441-11.064s-1.98.067-2.209 2.161c-2.668-2.525-6.991-10.251-8.262-12.575a.591.591 0 00-.928-.153l-.497.44a1.93 1.93 0 00-.555 1.998l3.49 11.313a4.127 4.127 0 001.024 1.693l9.285 9.208 4.093-3.021z" fill="#3987F2"></path>
                <path opacity="0.3" d="M305.605 124.854l-1.377-2.801c-1.138 1.549-2.668 3.471-3.241 3.538-.976.105-7.717-7.794-7.717-7.794l-4.485-14.583s-.01 0-.01.01l-.497.44c-.555.497-.775 1.281-.555 1.998l3.491 11.313a4.115 4.115 0 001.023 1.692l9.285 9.209 4.083-3.022z" fill="#1652F0"></path>
                <path d="M360.581 140.9l-31.882-.354-23.428-17.518-5.193 5.508s18.81 20.588 24.136 23.036c5.327 2.448 36.357 2.362 36.357 2.362V140.9h.01z" fill="#1652F0"></path>
                <path opacity="0.4" d="M325.668 149.076c-4.973-1.377-19.269-16.916-24.021-22.204l-1.559 1.654s18.809 20.588 24.136 23.036c4.408 2.028 26.46 2.315 33.899 2.353.383-3.978-.124-8.941-3.624-13.091l-1.272-.01c-10.987.22-21.783 9.859-27.559 8.262z" fill="#135"></path>
                <path opacity="0.4" d="M325.658 152.031l3.624-11.484-.583-.01-3.089-2.314-5.508 10.376c1.693 1.443 3.137 2.505 4.112 2.954.373.182.861.335 1.444.478zM315.215 144.142l6.484-8.835-3.864-2.888-6.416 7.984a197.804 197.804 0 003.796 3.739zM304.286 133.04a544.57 544.57 0 003.107 3.261l5.537-7.545-3.251-2.429-5.393 6.713zM349.899 140.786l-4.857-.057-.918 12.928c1.989.067 3.939.124 5.775.163v-13.034zM339.37 140.661l-5.976-.067-.928 12.403c1.951.172 4.103.316 6.312.43l.592-12.766z" fill="#135"></path>
                <path d="M371.068 126.727c1.094-5.452-.483-10.367-3.522-10.977-3.039-.61-6.39 3.315-7.485 8.767-1.094 5.453.482 10.367 3.522 10.977 3.039.61 6.39-3.315 7.485-8.767z" fill="#56B4FC"></path>
                <path opacity="0.3" d="M367.609 115.713c-1.932-.392-3.988 1.061-5.518 3.566 2.123 1.559 4.093 2.477 4.17 3.567.095 1.463-.048 7.43 1.415 8.798-.727 1.09-2.362 2.668-4.428 3.701.125.047.259.086.392.114 3.041.612 6.398-3.318 7.488-8.769 1.1-5.45-.478-10.365-3.519-10.977z" fill="#1652F0"></path>
                <path d="M369.301 131.644c-2.811-3.586-2.305-8.434-1.195-10.05-3.137-2.123-11.724-10.003-11.724-18.8 0-7.689 5.431-9.525 7.86-8.004 2.429 1.52 4.552 11.245 7.086 12.871 0 0 5.001-1.473 6.398.727 1.396 2.199-1.196 3.586-.431 4.8.765 1.215 3.175-.067 4.007 1.693.832 1.759-2.907 6.493-6.283 6.827-.248 3.883-5.718 9.936-5.718 9.936z" fill="#0B283F"></path>
                <path d="M346.131 206.71c17.222-10.433 30.581-5.116 36.873-13.387-1.577-11.868-7.306-50.682-22.424-52.776-14.478-2.008-38.384 18.742-38.384 18.742l-34.32-12.421-4.743 5.871s33.813 20.655 41.568 20.187c7.756-.469 26.479-10.844 26.479-10.844s-5.049 36.739-5.049 44.628z" fill="#fff"></path>
                <path d="M378.089 167.523l-29.405 13.674c-.201 1.655-.411 3.328-.612 5.001l31.604-12.182a156.201 156.201 0 00-1.587-6.493zM354.719 160.083s2.275-1.081 4.494-3.022c2.926-1.492 8.903-4.599 12.537-6.483-.909-1.674-1.884-3.194-2.927-4.523l-5.45 2.065a8.853 8.853 0 00-.689-2.362c-2.046-4.657-7.2-4.838-11.111-4.198a46.646 46.646 0 00-4.705 1.722l7.851 16.801zM350.473 167.245c-.277 2.075-.612 4.638-.975 7.478l27.243-11.857a84.34 84.34 0 00-2.333-6.589l-23.935 10.968zM332.82 170.764a100.63 100.63 0 005.499-2.285l-6.264-16.725a122.123 122.123 0 00-5.393 3.94l6.158 15.07zM341.799 145.749a88.64 88.64 0 00-5.766 3.375l7.096 17.108a198.816 198.816 0 006.808-3.481l-8.138-17.002zM313.198 156.038l-4.648-1.683-4.178 10.452c1.845.975 3.7 1.922 5.508 2.802l3.318-11.571zM291.261 157.549a384.716 384.716 0 007.048 3.978l4.867-9.123-7.468-2.706-4.447 7.851zM315.799 170.344c3.873 1.654 7.095 2.696 8.893 2.582.277-.019.564-.048.87-.086l-3.366-13.551-3.997-1.444-2.4 12.499zM380.776 179.38l-33.488 13.627c-.239 2.161-.45 4.217-.631 6.082l35.18-13.704a233.87 233.87 0 00-1.061-6.005zM350.874 164.721l-.048-.096c-.009.048-.009.096-.019.144l.067-.048z" fill="#D4DAE0"></path>
                <path d="M287.867 146.867l-8.492-9.82s-1.998.592-1.673 2.792c-3.51-1.932-10.318-9.056-11.953-10.796a.422.422 0 00-.651.057l-.43.669a2.352 2.352 0 00-.029 2.496l5.996 9.668a7.797 7.797 0 002.716 2.639l11.15 6.465 3.366-4.17z" fill="#56B4FC"></path>
                <path opacity="0.3" d="M287.867 146.867l-.956-1.109c-.641.66-1.492 1.53-2.123 2.19a1.746 1.746 0 01-2.075.335c-2.047-1.071-6.264-3.271-8.349-4.399-2.601-1.406-7.076-9.687-9.514-14.392l-.182.277a2.352 2.352 0 00-.029 2.496l5.996 9.668a7.797 7.797 0 002.716 2.639l11.15 6.465 3.366-4.17z" fill="#1652F0"></path>
                <path opacity="0.2" d="M362.846 152.27c-10.595 10.165-38.891 16.61-38.891 16.61-8.405-.43-34.071-14.803-39.436-17.853l-1.386 1.721s33.813 20.655 41.568 20.187c7.756-.469 26.479-10.844 26.479-10.844 8.912-4.581 8.998-5.939 11.666-9.821z" fill="#0B283F"></path>
                <path opacity="0.2" d="M354.719 160.083l-3.548 2.008s-2.257 16.438-3.749 29.682c6.503-24.126 11.351-21.984 15.75-40.478-2.869 5.192-8.453 8.788-8.453 8.788z" fill="#0B283F"></path>
                <path d="M363.354 150.511c-1.005 5.948-8.635 9.562-8.635 9.562l-12.47 6.579" stroke="#738799" stroke-miterlimit="10" stroke-linecap="round"></path>
                <path d="M450.66 281.365c.325.105.622.201.909.297l3.624-8.76a49.688 49.688 0 00-.842-.468l-3.691 8.931zM356.392 331.157l8.013-3.997c-.048-.334-.095-.669-.143-.994l-8.157 4.073c.096.316.191.632.287.918z" fill="#0B283F"></path>
                <path d="M364.243 94.78a3.253 3.253 0 00-1.243-.43c1.31 3.586.555 15.128 8.319 13.301-2.524-1.625-4.647-11.36-7.076-12.87zM377.296 113.178c-.393-.621.095-1.291.478-2.094-1.09 1.368-3.29 3.768-2.754 4.361.535.593 2.888-1.769 4.523-1.607-.889-.086-1.827.01-2.247-.66zM369.301 131.644s5.47-6.054 5.719-9.955c-1.215 2.811-5.346.727-5.719 9.955zM381.303 114.861c-.297-.621-.794-.86-1.349-.965 1.473 3.413-4.475 3.891-4.934 7.793 3.376-.335 7.124-5.068 6.283-6.828zM459.812 276.88l-.479 1.196 4.371 1.989a.651.651 0 01.353.784l-4.542 14.621c.287.201.631.335 1.004.335l5.068-16.304-5.775-2.621z" fill="#06151E"></path>
                <path opacity="0.2" d="M360.58 140.546c-1.75-.239-3.643-.143-5.622.201.459.038.908.086 1.338.153 15.568 2.582 20.866 41.282 22.482 55.807 1.635-.784 3.05-1.855 4.217-3.385-1.568-11.867-7.287-50.681-22.415-52.776z" fill="#0B283F"></path>
                <path d="M290.309 49.009l-.76 7.233 6.295 3.664-7.244-.742-3.653 6.277.742-7.244-6.277-3.653 7.233.76 3.664-6.295z" fill="#FFD066"></path>
                <path d="M285.878 45.656l-.257 2.417 2.102 1.215-2.417-.257-1.215 2.102.227-2.41-2.072-1.222 2.399.245 1.233-2.09zM276.883 55.764l-.258 2.417 2.103 1.216-2.417-.258-1.216 2.103.24-2.429-2.085-1.204 2.399.246 1.234-2.09z" fill="#56B4FC"></path>
            </svg>