<svg xmlns="http://www.w3.org/2000/svg" x="0px" y="0px"
	 viewBox="0 0 267.8 527" style="enable-background:new 0 0 267.8 527;" xml:space="preserve">
<path d="M264,121.4h0.2c1.2,0,2.1,0.3,2.7,0.9s0.9,1.5,0.9,2.7v53.1c0,1-0.3,1.8-0.9,2.4c-0.6,0.6-1.5,0.9-2.7,0.9H264v305.2
	c0,11.3-0.9,23.8-8.8,31.6c-7.8,7.8-20.3,8.8-31.6,8.8H43.5c-11.1,0-23.5-0.9-31.4-8.8c-7.8-7.8-8.8-20.3-8.8-31.6V194.7
	c-0.8,0-1.5-0.2-2.2-0.8c-0.6-0.5-0.9-1.3-0.9-2.3v-31c0-0.8,0.3-1.6,0.9-2.3s1.3-1,2.2-1v-11.5H3.1c-0.8,0-1.5-0.3-2.2-1
	c-0.6-0.7-0.9-1.4-0.9-2v-30.2c0-1,0.3-1.8,0.9-2.5s1.3-1,2.2-1h0.2V91.3H2.9c-0.5,0-0.9-0.1-1.2-0.3c-0.2-0.2-0.3-0.7-0.3-1.4V73.4
	c0-0.7,0.1-1.2,0.3-1.5s0.6-0.5,1.2-0.5h0.5v-31c0-11.3,0.9-23.8,8.8-31.6C19.9,0.9,32.4,0,43.5,0h180.3c11.3,0,23.8,0.9,31.6,8.8
	c7.8,7.8,8.8,20.3,8.8,31.6v81.1L264,121.4L264,121.4z M43.8,11.8c-6.9,0-16.8,2.4-21.6,7.3c-4.8,4.8-7.3,14.7-7.3,21.6v446.2
	c0,6.9,2.4,16.8,7.3,21.8c4.8,5,14.7,6.4,21.6,6.4h179.5c6.9,0,16.8-1.4,21.6-6.4c4.8-5,7.3-14.8,7.3-21.8V40.7
	c0-6.9-2.4-16.8-7.3-21.6c-4.8-4.8-14.7-7.3-21.6-7.3H43.8z"/>
<path d="M156.6,27.4h-45.4c-3.9,0-7.1-3.2-7.1-7.1l0,0c0-3.9,3.2-7.1,7.1-7.1h45.4c3.9,0,7.1,3.2,7.1,7.1l0,0
	C163.7,24.2,160.6,27.4,156.6,27.4z"/>
<path d="M177,508.8H90.8c-1.3,0-2.3-1-2.3-2.3l0,0c0-1.3,1-2.3,2.3-2.3H177c1.3,0,2.3,1,2.3,2.3l0,0
	C179.3,507.8,178.2,508.8,177,508.8z"/>
</svg>
