<?xml version="1.0" encoding="utf-8"?>
<!-- Generator: Adobe Illustrator 27.0.0, SVG Export Plug-In . SVG Version: 6.00 Build 0)  -->
<svg version="1.1" id="图层_1" xmlns="http://www.w3.org/2000/svg" xmlns:xlink="http://www.w3.org/1999/xlink" x="0px" y="0px"
	 viewBox="0 0 236.2 470" style="enable-background:new 0 0 236.2 470;" xml:space="preserve">
<style type="text/css">
	.st0{fill:#4C4C4C;}
	.st1{display:none;fill:none;stroke:#000000;stroke-width:0.25;stroke-miterlimit:10;}
	.st2{fill:#B8BAC0;}
	.st3{fill:#FFFFFF;}
	.st4{fill:#D7DBE0;}
	.st5{fill:#1652F0;}
	.st6{fill:#EEF0F3;}
	.st7{fill:#0A0B0D;}
	.st8{fill:#CF2030;}
	.st9{opacity:0.3;fill:none;stroke:#6E6E6E;stroke-width:0.5;stroke-miterlimit:10;enable-background:new    ;}
	.st10{font-family:'Arial-BoldMT';}
	.st11{font-size:22.4972px;}
	.st12{fill:#57B4FC;}
	.st13{fill:#898989;}
	.st14{font-family:'ArialMT';}
	.st15{font-size:12px;}
	.st16{fill:#9A9A9A;}
	.st17{font-size:8px;}
	.st18{opacity:0.1;fill:#3E3A39;enable-background:new    ;}
	.st19{fill:#8D8DAA;}
	.st20{fill:#606373;}
	.st21{fill:#11113B;}
	.st22{fill:#EFEFEF;}
	.st23{fill:#B1B1C9;}
	.st24{fill:#DCDBEA;stroke:#8D8DAA;stroke-width:0.25;stroke-miterlimit:10;}
	.st25{fill:#272362;stroke:#FFFFFF;stroke-width:0.25;stroke-miterlimit:10;}
	.st26{fill:none;stroke:#8D8DAA;stroke-width:0.25;stroke-miterlimit:10;}
	.st27{opacity:0.1;fill:#FFFFFF;enable-background:new    ;}
	.st28{fill:#272362;}
	.st29{fill:#77788B;}
	.st30{fill:#020202;}
	.st31{fill:#D6D6D6;}
	.st32{fill:#353535;}
	.st33{fill:#FBF9F9;}
	.st34{fill:url(#SVGID_1_);}
	.st35{fill:none;stroke:#2CFBFB;stroke-width:2;stroke-linecap:round;stroke-miterlimit:10;}
	.st36{fill:#0052FF;}
	.st37{fill:#1A202C;}
	.st38{fill:#2775CA;}
	.st39{fill:none;stroke:#898989;stroke-width:0.5;stroke-miterlimit:10;}
	.st40{fill:#0050F9;}
	.st41{fill:#F8F9FD;}
	.st42{fill:none;stroke:#FFFFFF;stroke-linecap:round;stroke-linejoin:round;}
	.st43{fill:none;stroke:#FFFFFF;stroke-linecap:round;stroke-linejoin:round;stroke-dasharray:0,1.5621,0,1.5621;}
	.st44{fill:none;stroke:#FFFFFF;stroke-linecap:round;stroke-linejoin:round;stroke-dasharray:0,1.5621,0,1.5621,0,1.5621;}
</style>
<rect x="8.1" y="0" class="st0" width="219.5" height="15.2"/>
<rect x="8.3" y="0" class="st1" width="219.5" height="445.1"/>
<g>
	<circle class="st2" cx="205" cy="33.7" r="10.9"/>
</g>
<g>
	<g>
		<path class="st3" d="M205,39.2c-1.3,0-2.4-0.5-3.3-1.4c0,0.5,0,1.3-0.2,1.8c0.1,0.1,0.2,0.1,0.2,0.3c0.2,1.5,1.6,2.6,3.2,2.6
			c1.7,0,3.1-1.1,3.2-2.6c0-0.1,0.1-0.2,0.2-0.3c-0.1-0.6-0.2-1.3-0.2-1.8C207.4,38.6,206.2,39.2,205,39.2z"/>
	</g>
</g>
<g>
	<g>
		<path class="st4" d="M208.1,37.8c-0.8,0.8-2,1.4-3.2,1.4c-1.3,0-2.4-0.5-3.3-1.4c0,0.5,0,1.3-0.2,1.8c0.1,0.1,0.2,0.1,0.2,0.3
			c0.1,0.7,0.4,1.2,0.9,1.7C204.8,41.2,207.2,39.1,208.1,37.8z"/>
	</g>
</g>
<g>
	<g>
		<path class="st3" d="M208.2,30.1H202c-1,0-1.8,0.8-1.8,1.8v2.2c0,2.8,2.1,5.1,4.7,5.1c2.6,0,4.7-2.3,4.7-5.1v-2.5
			C209.7,30.8,209,30.1,208.2,30.1z"/>
	</g>
</g>
<g>
	<g>
		<path class="st5" d="M207.5,26.1h-4.7c-0.7,0-1.3,0.5-1.4,1.1c-1.2,0.2-2.2,1.2-2.2,2.5v1.8c0,0.9,0.4,1.8,1.1,2.4v-2.1
			c0-1,0.8-1.8,1.8-1.8h6.2c0.8,0,1.4,0.7,1.4,1.4V34c0.7-0.6,1.1-1.5,1.1-2.4v-2.2C210.8,27.6,209.3,26.1,207.5,26.1z"/>
	</g>
</g>
<g>
	<path class="st5" d="M196.9,41c2,2.2,4.9,3.6,8.1,3.6s6.1-1.4,8.1-3.6c-0.3-0.5-0.8-0.9-1.5-1l0,0l-2.9-0.4h-0.1
		c-0.2,0-0.3,0.1-0.4,0.3c-0.2,1.5-1.6,2.6-3.2,2.6c-1.7,0-3.1-1.1-3.2-2.6c0-0.2-0.2-0.3-0.4-0.3c0,0,0,0-0.1,0l-2.9,0.4l0,0
		C197.7,40.2,197.2,40.5,196.9,41z"/>
</g>
<rect x="186.4" y="25.6" class="st6" width="0.8" height="16.3"/>
<circle class="st6" cx="169.2" cy="33.8" r="10.4"/>
<circle class="st7" cx="166.8" cy="31.3" r="0.9"/>
<circle class="st7" cx="169.2" cy="31.3" r="0.9"/>
<circle class="st7" cx="171.7" cy="31.3" r="0.9"/>
<circle class="st7" cx="166.7" cy="33.8" r="0.9"/>
<circle class="st7" cx="169.2" cy="33.8" r="0.9"/>
<circle class="st7" cx="171.7" cy="33.8" r="0.9"/>
<circle class="st7" cx="166.7" cy="36.3" r="0.9"/>
<circle class="st7" cx="169.1" cy="36.3" r="0.9"/>
<circle class="st7" cx="171.6" cy="36.3" r="0.9"/>
<circle class="st6" cx="142.6" cy="33.8" r="10.4"/>
<circle class="st8" cx="148" cy="28.4" r="2.4"/>
<path class="st7" d="M144.4,33.9v-1.4c0-0.2,0-0.4-0.1-0.6l0,0c-0.1-0.2-0.2-0.4-0.4-0.5c-0.2-0.2-0.3-0.3-0.5-0.4l0,0
	c-0.2-0.1-0.4-0.1-0.6-0.1c-0.2,0-0.4,0-0.6,0.1l0,0c-0.2,0.1-0.4,0.2-0.5,0.4c-0.2,0.2-0.3,0.3-0.4,0.5l0,0
	c-0.1,0.2-0.1,0.4-0.1,0.6l0,0v1.4l-0.7,1.5h4.8L144.4,33.9z M139.4,36.2v-0.8l0.8-1.7v-1.2c0-0.3,0.1-0.7,0.2-1l0,0
	c0.1-0.3,0.3-0.6,0.5-0.8c0.2-0.2,0.5-0.4,0.8-0.5l0,0c0.3-0.1,0.6-0.2,1-0.2s0.7,0.1,1,0.2l0,0c0.3,0.1,0.6,0.3,0.8,0.5
	s0.4,0.5,0.5,0.8l0,0c0.1,0.3,0.2,0.6,0.2,1l0,0v1.2l0.8,1.7v0.8H139.4z M141.5,37.4h2.5v-0.8h-2.5V37.4z"/>
<line class="st9" x1="8.1" y1="51.8" x2="227.6" y2="51.8"/>
<text transform="matrix(1 0 0 1 89.3716 91.7557)" class="st10 st11">Hi , I’m </text>
<text transform="matrix(1 0 0 1 169.3975 91.7557)" class="st12 st10 st11">co </text>
<text transform="matrix(1 0 0 1 201.8574 91.7557)" class="st10 st11">! </text>
<text transform="matrix(1 0 0 1 89.3717 108.4706)" class="st13 st14 st15">Your AI Earn robot</text>
<text transform="matrix(1 0 0 1 89.3718 123.2525)" class="st16 st14 st17">Staking date:</text>
<text transform="matrix(1 0 0 1 89.3718 132.8525)" class="st16 st14 st17">01/12/2022 0:00 - 07/12/2022 0:00</text>
<path class="st9" d="M220.7,449.3H15.5c-2.6,0-4.7-2.1-4.7-4.7V154.7c0-2.6,2.1-4.7,4.7-4.7h205.2c2.6,0,4.7,2.1,4.7,4.7v289.8
	C225.4,447.1,223.3,449.3,220.7,449.3z"/>
<ellipse class="st18" cx="47.3" cy="129.1" rx="17.5" ry="2.1">
<animate  accumulate="none" additive="replace" attributeName="rx" calcMode="linear" dur="2s" fill="remove" keyTimes="0;0.5;1" repeatCount="indefinite" restart="always" values="20;32;20">
	</animate>
</ellipse>
<g>
	<polygon class="st19" points="60.3,73.5 60.3,73 59.8,73.3 	"/>
	<path class="st20" d="M37.9,102.3c-2.3,0.2-3,1.5-3,1.5c5.1,1.1,19.4,1.1,24.5,0c0,0-0.9-1.5-3.2-1.7
		C53.5,102,40.6,102.1,37.9,102.3z"/>
	<path class="st21" d="M54.5,103c0,0,0.4-0.5-0.1-1c-0.5-0.4-14-0.2-14.5,0s-0.1,1-0.1,1c-0.4,0.7,0.2,1.1,0.2,1.1
		c-0.2,0.2,0.2,0.4,0.2,0.4l0.4,0.4l6.3-0.1l6.9,0.1l0.4-0.4c0,0,0.4-0.3,0.2-0.4C54.3,104.1,54.9,103.7,54.5,103z"/>
	<path class="st22" d="M34.9,103.8c5.1,1.1,19.4,1.1,24.5,0c0,0,0.8,13-6.5,15c0,0-2.8,0.7-5.7,0.7c-3,0-5.7-0.7-5.7-0.7
		C34,116.8,34.9,103.8,34.9,103.8z"/>
	<path class="st23" d="M55.6,107.3c-0.1-1.8-0.3-2.5-0.3-2.5l0,0l0,0l0,0c0,0-0.1,0-0.3,0c-0.8,0.1-3.4,0.4-7.9,0.4
		s-7.2-0.3-7.9-0.4c-0.2,0-0.3,0-0.3,0l0,0l0,0l0,0c0,0.1-0.2,0.8-0.3,2.5c-0.1,1.1,0,2.5,0,2.5s0,2.5,1.6,4.5
		c0.1,0.2,0.3,0.4,0.4,0.4c0.4,0.4,0.7,0.7,1.1,1l0,0l0,0c0.1,0.1,0.3,0.2,0.4,0.3l0,0l0.1,0.1c0,0,0.1,0,0.1,0.1l0,0
		c0.9,0.4,2.3,0.7,4.6,0.7l0,0l0,0l0,0l0,0c2.5,0,3.8-0.3,4.6-0.7l0,0c0,0,0.1,0,0.1-0.1c0.1,0,0.1-0.1,0.1-0.1l0,0
		c0.1-0.1,0.3-0.2,0.4-0.3l0,0l0,0c0.4-0.3,0.7-0.6,1.1-1c0.2-0.2,0.3-0.3,0.4-0.4c1.6-2,1.6-4.5,1.6-4.5S55.6,108.4,55.6,107.3z"/>
	<circle class="st24" cx="39.9" cy="105.5" r="0.5"/>
	<circle class="st24" cx="42.1" cy="114.3" r="0.5"/>
	<path class="st19" d="M55.1,104.7L55.1,104.7c-0.3,0-0.8,0.1-1.5,0.1c0.3,1.7,0.4,5.7-1,7.7c-1.9,2.7-7.8,5.1-11.3,2.8
		c0.1,0.1,0.3,0.3,0.4,0.4l0,0l0,0c0.1,0.1,0.3,0.2,0.4,0.3l0,0l0.1,0.1c0,0,0.1,0,0.1,0.1l0,0c0.9,0.4,2.3,0.7,4.6,0.7l0,0l0,0l0,0
		l0,0c2.5,0,3.8-0.3,4.6-0.7l0,0c0,0,0.1,0,0.1-0.1c0.1,0,0.1-0.1,0.1-0.1l0,0c0.1-0.1,0.3-0.2,0.4-0.3l0,0l0,0
		c0.4-0.3,0.7-0.6,1.1-1c0.2-0.2,0.3-0.3,0.4-0.4c1.6-2,1.6-4.5,1.6-4.5s0.1-1.4,0-2.5c-0.1-1.8-0.3-2.5-0.3-2.5l0,0
		C55.4,104.7,55.3,104.7,55.1,104.7z"/>
	<circle class="st25" cx="51.6" cy="108.3" r="2.8">
	
		<animate  accumulate="none" additive="replace" attributeName="fill" calcMode="linear" dur="2s" fill="remove" keyTimes="0;0.5;1" repeatCount="indefinite" restart="always" values="#272362;#0052ff;#272362">
		</animate>
	</circle>
	<circle class="st24" cx="54.4" cy="105.5" r="0.5"/>
	<path class="st26" d="M34.9,103.8c5.1,1.1,19.4,1.1,24.5,0c0,0,0.8,13-6.5,15c0,0-2.8,0.7-5.7,0.7c-3,0-5.7-0.7-5.7-0.7
		C34,116.8,34.9,103.8,34.9,103.8z"/>
	<path class="st27" d="M49.8,110.5c0.5,0.4,1.1,0.7,1.8,0.7c1.6,0,2.8-1.2,2.8-2.8c0-0.8-0.4-1.5-0.9-2c0.2,0.4,1,2.6-1.1,4
		C52.5,110.4,51.4,111,49.8,110.5z"/>
	<path class="st3" d="M51.6,109.1c-0.4,0-0.8-0.4-0.8-0.8s0.4-0.8,0.8-0.8c0.4,0,0.7,0.3,0.8,0.7h0.8c-0.1-0.9-0.8-1.5-1.7-1.5
		s-1.7,0.7-1.7,1.7s0.7,1.7,1.7,1.7c0.9,0,1.6-0.7,1.7-1.5h-0.8C52.4,108.8,52.1,109.1,51.6,109.1z"/>
	<circle class="st24" cx="52.3" cy="114.3" r="0.5"/>
	<path class="st28" d="M58,113.4c-1.4-0.9-2.7,1.4-2.7,1.4c-2.1,3.9-6.7,4.6-6.7,4.6l0,0c2.4-0.2,4.3-0.6,4.3-0.6
		C55.6,118.1,57.1,116,58,113.4L58,113.4z"/>
	<path class="st28" d="M38.9,114.8c0,0-1.3-2.3-2.7-1.4c1,2.5,2.5,4.7,5.2,5.4c0,0,1.9,0.4,4.2,0.6C45.6,119.4,41,118.7,38.9,114.8z
		"/>
	<path class="st29" d="M40.1,104.5c-0.1-0.1-0.2-0.3-0.4-0.4c-2.1-1.6-4.1-0.3-4.4-0.1C36.6,104.2,38.2,104.3,40.1,104.5z"/>
	<path class="st29" d="M54.2,104.5c0.1-0.1,0.2-0.3,0.4-0.4c2.1-1.6,4.1-0.3,4.4-0.1C57.7,104.2,56,104.3,54.2,104.5z"/>
	<path class="st22" d="M60,73.4c-2.5-1.1-27.3,0.5-29.6,2.1c0,0-5.3,3.2-5.3,9.4l0.5,7.3c0,0,0.6,5.8,2.7,7.7c2.1,1.9,4.1,2.8,7,3.2
		c2.5,0.3,8.7,0.1,11.4,0l0,0c0.1,0,0.3,0,0.4,0c0.2,0,0.4,0,0.4,0l0,0c2.7-0.3,8.8-0.9,11.3-1.5c2.8-0.7,4.7-1.9,6.6-4.1
		c1.8-2.2,1.6-8.1,1.6-8.1l-0.5-7.3C65.8,75.8,60,73.4,60,73.4z"/>
	<path class="st3" d="M25.3,84.7l0.3,4.1c0.4-9.8,6-13,6-13L31.1,75c-0.3,0.1-0.5,0.3-0.7,0.4C30.5,75.4,25.3,78.6,25.3,84.7z"/>
	<path class="st30" d="M60.9,96.9c-0.1,0.1-0.2,0.1-0.3,0.2C60,97.5,59,98.3,55.4,99l-7.6,0.7l-1.1,0.1l-7.7,0.4
		c-3.6-0.2-4.7-0.8-5.4-1.1c-0.1-0.1-0.2-0.1-0.3-0.2c-2.5-1.4-3-5.8-3-6L30,88c-0.2-2.5,0.2-3.2,0.3-3.3l0,0v-0.1
		c0.4-0.9,1.7-1.6,2.6-2.2c0.2-0.1,0.3-0.2,0.4-0.3c3.4-1.8,9.8-2.5,12-2.6l1.1-0.1c2.2-0.1,8.6-0.3,12.3,1c0.2,0.1,0.3,0.1,0.4,0.2
		c1.1,0.4,2.4,1.1,2.9,1.8l0.1,0.1l0,0c0.1,0.1,0.6,0.7,0.7,3.2l0.4,4.9C63.1,90.8,63.2,95.1,60.9,96.9z"/>
	<path class="st31" d="M60,73.4C60,73.3,60,73.3,60,73.4l0.8,0.8c0,0,4.9,3.4,4.6,10.1c-0.3,6.7-0.8,11.8-6,15.2
		c-4.5,2.9-13.9,3.3-25.2,3.2c0.4,0.1,0.7,0.1,1.1,0.2c2.5,0.3,8.7,0.1,11.4,0l0,0c0.1,0,0.3,0,0.4,0s0.4,0,0.4,0l0,0
		c2.7-0.3,8.8-0.9,11.3-1.5c2.8-0.7,4.7-1.9,6.6-4.1c1.8-2.2,1.6-8.1,1.6-8.1L66.5,82C65.8,75.8,60,73.4,60,73.4z"/>
	<path class="st32" d="M36.2,99.3c0,0-3.5-0.3-4.4-4.1C31,91.3,31,86.6,31,86.6s-0.2-1.8,2.7-3.2c1.8-0.9,6.4-2.8,13-3.2
		c4.1-0.2,10.9-0.5,14.4,2.1c0,0-17.8-3.9-25.7,4.4C35.5,86.8,29.8,92.6,36.2,99.3z"/>
	<path class="st32" d="M56.1,83.4c0,0-19.5-3-21.4,10.5c0,0-1.8-8.2,10.3-10.7C45,83.2,51.9,82.3,56.1,83.4z"/>
	<path class="st26" d="M60,73.4c-2.5-1.1-27.3,0.5-29.6,2.1c0,0-5.3,3.2-5.3,9.4l0.5,7.3c0,0,0.6,5.8,2.7,7.7c2.1,1.9,4.1,2.8,7,3.2
		c2.5,0.3,8.7,0.1,11.4,0l0,0c0.1,0,0.3,0,0.4,0c0.2,0,0.4,0,0.4,0l0,0c2.7-0.3,8.8-0.9,11.3-1.5c2.8-0.7,4.7-1.9,6.6-4.1
		c1.8-2.2,1.6-8.1,1.6-8.1l-0.5-7.3C65.8,75.8,60,73.4,60,73.4z"/>
	<path class="st33" d="M45.1,71c-9.6,0.4-14.6,4.1-14.6,4.1s0.6,0.4,1,0.9s0.9,1.1,2.5,1.7c2,0.7,11.6,0.2,11.6,0.2S55.1,77,57,76.1
		c1.5-0.8,1.9-1.4,2.3-2c0.4-0.6,0.9-1,0.9-1S54.8,70,45.1,71z"/>
	<path class="st22" d="M57.6,72c-1.5,1.1-6.5,4.4-11.7,4.8C39.5,77.3,31.6,76,31.6,76s-0.1,0-0.1,0.1c0.4,0.5,0.9,1.1,2.5,1.7
		c2,0.7,11.6,0.2,11.6,0.2s9.5-0.8,11.5-1.8c1.5-0.8,1.9-1.4,2.3-2c0.4-0.6,0.9-1,0.9-1S59.3,72.5,57.6,72z"/>
	<path class="st26" d="M45.1,71c-9.6,0.4-14.6,4.1-14.6,4.1s0.6,0.4,1,0.9s0.9,1.1,2.5,1.7c2,0.7,11.6,0.2,11.6,0.2S55.1,77,57,76.1
		c1.5-0.8,1.9-1.4,2.3-2c0.4-0.6,0.9-1,0.9-1S54.8,70,45.1,71z"/>
	
		<linearGradient id="SVGID_1_" gradientUnits="userSpaceOnUse" x1="135.5947" y1="1247.6764" x2="169.746" y2="1247.6764" gradientTransform="matrix(0.9976 -6.936228e-02 6.936228e-02 0.9976 -192.282 -1144.6316)">
		<stop  offset="0" style="stop-color:#000000"/>
		<stop  offset="0.9994" style="stop-color:#000000"/>
	</linearGradient>
	<path class="st34" d="M63.4,85.6c-0.2-2.7-0.7-3.5-1-3.7c-0.7-1-2-1.5-3.2-2c-0.2-0.1-0.4-0.2-0.4-0.2l0,0
		c-1.9-0.6-4.7-1.1-8.3-1.1c-1.8,0-3.3,0-4.1,0.1l0,0H46c0,0-0.1,0-0.2,0s-0.2,0-0.2,0h-0.4l0,0c-0.9,0.1-2.4,0.3-4.1,0.5
		c-3.6,0.5-6.3,1.3-8.1,2.2l0,0c-0.1,0.1-0.3,0.2-0.4,0.3c-1.1,0.6-2.3,1.4-2.8,2.4c-0.2,0.3-0.7,1.1-0.4,3.8l0.4,4.9l0,0
		c0,0.2,0.6,4.9,3.3,6.5l0,0c0.1,0,0.2,0.1,0.3,0.2c0.7,0.4,2,1.1,5.7,1.2l7.7-0.4l0,0l0.5-0.1h0.5l0,0l7.7-0.7
		c3.7-0.7,4.8-1.5,5.5-2c0.1-0.1,0.2-0.1,0.3-0.2l0,0c2.5-1.9,2.5-6.7,2.5-6.8l0,0L63.4,85.6z M60.9,96.9c-0.1,0.1-0.2,0.1-0.3,0.2
		C60,97.5,59,98.3,55.4,99l-7.6,0.7l-1.1,0.1l-7.7,0.4c-3.6-0.2-4.7-0.8-5.4-1.1c-0.1-0.1-0.2-0.1-0.3-0.2c-2.5-1.4-3-5.8-3-6L30,88
		c-0.2-2.5,0.2-3.2,0.3-3.3l0,0v-0.1c0.4-0.9,1.7-1.6,2.6-2.2c0.2-0.1,0.3-0.2,0.4-0.3c3.4-1.8,9.8-2.5,12-2.6l1.1-0.1
		c2.2-0.1,8.6-0.3,12.3,1c0.2,0.1,0.3,0.1,0.4,0.2c1.1,0.4,2.4,1.1,2.9,1.8l0.1,0.1l0,0c0.1,0.1,0.6,0.7,0.7,3.2l0.4,4.9
		C63.1,90.8,63.2,95.1,60.9,96.9z"/>
	<polygon class="st19" points="30.4,75.4 30.4,75.1 30.8,75.3 	"/>
	<path class="st12" d="M47.1,97.7c0.6-0.1,1.1-0.6,1-1.2l-2.2,0.3C45.8,97.3,46.4,97.8,47.1,97.7z"/>
	<path class="st20" d="M47,102.4"/>
	<path class="st35" d="M57.4,92.9c-0.4-1.2-1.5-2.1-2.9-2c-1.3,0.2-2.3,1.2-2.4,2.5	">
<animateTransform  accumulate="none" additive="replace" attributeName="transform" calcMode="linear" dur="0.4s" fill="remove" keyTimes="0;0.5;1" repeatCount="indefinite" restart="always" type="translate" values="0 -1;0 1;0 -1">
			</animateTransform>
	</path>
	<path class="st35" d="M41.2,94.7c-0.4-1.2-1.5-2.1-2.9-2c-1.3,0.2-2.3,1.2-2.4,2.5	">
<animateTransform  accumulate="none" additive="replace" attributeName="transform" calcMode="linear" dur="0.4s" fill="remove" keyTimes="0;0.5;1" repeatCount="indefinite" restart="always" type="translate" values="0 -1;0 1;0 -1">
			</animateTransform>
	</path>
	<g>
		<polygon class="st12" points="64.5,101.2 66.9,101.2 66.7,102.1 64.7,102.1 		"/>
		<circle class="st12" cx="66.6" cy="110.2" r="4.1">
		
			<animateTransform  accumulate="none" additive="replace" attributeName="transform" calcMode="linear" dur="0.5s" fill="remove" repeatCount="indefinite" restart="always" times="0;0.5;1" type="rotate" values="-1 50 50;2 50 50;-1 50 50;">
			</animateTransform>
		</circle>
		<path class="st31" d="M60.4,103.7c0,0-0.4,0.1-0.6,0.7c-0.2,0.5-0.1,1.1,0,1.2c0.3,0.5,0.4,0.6,1,0.7c0.7,0.1,3.7,0.8,6-1.8
			c0,0,0.8-1.6-0.3-2c0,0-0.9-0.2-1.8,0.1C64,103.1,61.5,103.8,60.4,103.7z"/>
		<path class="st22" d="M64.1,105.6c0.6-0.3,1.6-1.1,1.8-1.6c0.3-0.4-0.4-1.1-0.4-1.1s-0.1-0.1-0.4-0.2c-0.1,0-0.2,0.1-0.3,0.1
			c-0.9,0.4-3.2,1.1-4.5,1c0,0-0.4,0.1-0.6,0.7c0,0.2-0.1,0.3-0.1,0.4c0.2,0.4,0.4,0.6,0.5,0.7c0.3,0.2,0.4,0.2,0.9,0.4
			C61.5,106,63.6,105.8,64.1,105.6z"/>
		<path class="st26" d="M60.4,103.7c0,0-0.4,0.1-0.6,0.7c-0.2,0.5-0.1,1.1,0,1.2c0.3,0.5,0.4,0.6,1,0.7c0.7,0.1,3.7,0.8,6-1.8
			c0,0,0.8-1.6-0.3-2c0,0-0.9-0.2-1.8,0.1C64,103.1,61.5,103.8,60.4,103.7z"/>
		<path class="st3" d="M68.1,108.6l-1.5,0.3v-0.2c0-0.3-0.1-0.4-0.1-0.5c-0.1-0.1-0.1-0.2-0.3-0.1c-0.2,0.1-0.2,0.1-0.2,0.2
			c-0.1,0.1-0.1,0.3-0.1,0.4c0,0.2,0.1,0.4,0.3,0.4c0.1,0.1,0.4,0.2,0.9,0.4c0.4,0.2,0.7,0.4,0.9,0.4c0.2,0.2,0.4,0.3,0.4,0.4
			c0.2,0.2,0.3,0.5,0.3,0.8c0.1,0.5,0,1-0.2,1.3c-0.3,0.3-0.6,0.5-1.1,0.7l0.1,0.6l-0.7,0.1l-0.1-0.6c-0.4,0-0.8-0.1-1.1-0.4
			s-0.6-0.6-0.7-1.3v-0.3l1.5-0.3l0.1,0.4c0.1,0.4,0.1,0.6,0.2,0.7s0.1,0.2,0.3,0.1c0.2-0.1,0.2-0.1,0.2-0.2
			c0.1-0.1,0.1-0.3,0.1-0.3c-0.1-0.4-0.2-0.6-0.2-0.7c-0.1-0.2-0.3-0.3-0.5-0.4c-0.5-0.2-0.9-0.4-1.1-0.5c-0.3-0.1-0.4-0.3-0.5-0.5
			c-0.2-0.2-0.3-0.5-0.4-0.8c-0.1-0.4,0-0.8,0.3-1.1c0.2-0.3,0.6-0.5,1.1-0.6l-0.1-0.4l0.8-0.1l0.1,0.4c0.5,0,0.8,0.1,1.1,0.4
			c0.3,0.2,0.4,0.6,0.4,1.1C68.1,108.4,68.1,108.4,68.1,108.6z		">
<animateTransform  accumulate="none" additive="replace" attributeName="transform" calcMode="linear" dur="0.5s" fill="remove" repeatCount="indefinite" restart="always" times="0;0.5;1" type="rotate" values="-2 50 50;3 50 50;-2 50 50;">
				</animateTransform>
		</path>
		
			<animateTransform  accumulate="none" additive="replace" attributeName="transform" calcMode="linear" dur="0.5s" fill="remove" repeatCount="indefinite" restart="always" times="0;0.5;1" type="translate" values="0 -1;0 1;0 -1;">
			</animateTransform>
	</g>
	<g>
		<polygon class="st12" points="29.6,102.1 27.6,102.1 27.4,101.2 29.7,101.2 		"/>
		<circle class="st12" cx="27.7" cy="110.2" r="4.1">
		
			<animateTransform  accumulate="none" additive="replace" attributeName="transform" calcMode="linear" dur="0.5s" fill="remove" repeatCount="indefinite" restart="always" times="0;0.5;1" type="rotate" values="2 50 50;-1 50 50;2 50 50;">
			</animateTransform>
		</circle>
		<path class="st3" d="M29.9,109.4l-1.5-0.4l0.1-0.2c0.1-0.3,0.1-0.4,0.1-0.5s-0.1-0.2-0.2-0.2s-0.2,0-0.3,0.1
			c-0.1,0-0.2,0.2-0.2,0.3c-0.1,0.2-0.1,0.4,0,0.5s0.3,0.4,0.6,0.8c0.4,0.4,0.5,0.6,0.6,0.7c0.1,0.2,0.2,0.4,0.3,0.6
			c0.1,0.3,0,0.5-0.1,0.9c-0.2,0.5-0.4,0.9-0.7,1.1c-0.4,0.1-0.8,0.3-1.3,0.2l-0.2,0.6l-0.7-0.2l0.2-0.6c-0.4-0.2-0.7-0.4-0.9-0.8
			s-0.3-0.8-0.1-1.5l0.1-0.3l1.5,0.4l-0.1,0.4c-0.1,0.4-0.2,0.6-0.2,0.7s0.1,0.2,0.2,0.2s0.3,0,0.3-0.1c0.1,0,0.2-0.2,0.2-0.3
			c0.1-0.4,0.1-0.6,0.1-0.7c0-0.2-0.2-0.4-0.4-0.6c-0.4-0.4-0.6-0.7-0.8-0.9c-0.2-0.2-0.3-0.4-0.3-0.7c-0.1-0.3-0.1-0.6,0-0.9
			c0.1-0.4,0.4-0.7,0.6-1c0.3-0.2,0.7-0.3,1.2-0.2l0.1-0.4l0.8,0.2l-0.1,0.4c0.4,0.2,0.7,0.4,0.9,0.8c0.2,0.3,0.2,0.7,0,1.1
			C29.9,109.1,29.9,109.2,29.9,109.4z		">
<animateTransform  accumulate="none" additive="replace" attributeName="transform" calcMode="linear" dur="0.5s" fill="remove" repeatCount="indefinite" restart="always" times="0;0.5;1" type="rotate" values="3 50 50;-2 50 50;3 50 50;">
				</animateTransform>
		</path>
		<path class="st31" d="M33.9,103.7c0,0,0.4,0.1,0.6,0.7c0.2,0.5,0.1,1.1,0,1.2c-0.3,0.5-0.4,0.6-1,0.7c-0.7,0.1-3.7,0.8-6-1.8
			c0,0-0.8-1.6,0.3-2c0,0,0.9-0.2,1.8,0.1C30.3,103.1,32.7,103.8,33.9,103.7z"/>
		<path class="st22" d="M30.2,105.6c-0.6-0.3-1.6-1.1-1.8-1.6c-0.3-0.4,0.4-1.1,0.4-1.1s0.1-0.1,0.4-0.2c0.1,0,0.2,0.1,0.3,0.1
			c0.9,0.4,3.2,1.1,4.5,1c0,0,0.4,0.1,0.6,0.7c0,0.2,0.1,0.3,0.1,0.4c-0.2,0.4-0.4,0.6-0.5,0.7c-0.3,0.2-0.4,0.2-0.9,0.4
			C32.8,106,30.7,105.8,30.2,105.6z"/>
		<path class="st26" d="M33.9,103.7c0,0,0.4,0.1,0.6,0.7c0.2,0.5,0.1,1.1,0,1.2c-0.3,0.5-0.4,0.6-1,0.7c-0.7,0.1-3.7,0.8-6-1.8
			c0,0-0.8-1.6,0.3-2c0,0,0.9-0.2,1.8,0.1C30.3,103.1,32.7,103.8,33.9,103.7z"/>
		
			<animateTransform  accumulate="none" additive="replace" attributeName="transform" calcMode="linear" dur="0.5s" fill="remove" repeatCount="indefinite" restart="always" times="0;0.5;1" type="translate" values="0 -1;0 1;0 -1;">
			</animateTransform>
	</g>
	
		<animateTransform  accumulate="none" additive="replace" attributeName="transform" calcMode="linear" dur="2s" fill="remove" keyTimes="0;0.5;1" repeatCount="indefinite" restart="always" type="translate" values="0 -3;0 5;0 -3">
		</animateTransform>
</g>
<path class="st36" d="M113.1,42.4H65.9c-5.2,0-9.3-4.2-9.3-9.3l0,0c0-5.2,4.2-9.3,9.3-9.3h47.2c5.2,0,9.3,4.2,9.3,9.3l0,0
	C122.4,38.2,118.3,42.4,113.1,42.4z"/>
<text transform="matrix(1 0 0 1 69.0847 37.3189)" class="st3 st14 st15">AI Earn</text>
<path class="st3" d="M29.9,7.7c-0.2,0.2-0.4,0.4-0.6,0.5s-0.5,0.2-0.8,0.2c-0.4,0-0.7-0.1-0.9-0.3c-0.3-0.2-0.5-0.4-0.6-0.7
	c-0.1-0.3-0.2-0.7-0.2-1.1s0.1-0.8,0.2-1.1c0.2-0.3,0.4-0.6,0.7-0.8c0.3-0.2,0.6-0.3,1-0.3c0.6,0,1.1,0.2,1.5,0.7s0.5,1.1,0.5,1.9V7
	c0,1.2-0.2,2.1-0.7,2.7s-1.2,0.8-2.2,0.9h-0.2V9.9h0.2c0.7,0,1.2-0.2,1.5-0.5C29.7,9,29.9,8.4,29.9,7.7z M28.7,7.7
	c0.3,0,0.5-0.1,0.7-0.2c0.2-0.2,0.4-0.4,0.5-0.6V6.6c0-0.5-0.1-0.9-0.3-1.3c-0.2-0.3-0.5-0.5-0.9-0.5c-0.3,0-0.6,0.1-0.8,0.4
	c-0.2,0.3-0.3,0.6-0.3,1.1c0,0.4,0.1,0.8,0.3,1.1C28.1,7.6,28.4,7.7,28.7,7.7z M42.6,7.7c-0.2,0.2-0.4,0.4-0.6,0.5
	c-0.2,0.1-0.5,0.2-0.8,0.2c-0.4,0-0.7-0.1-0.9-0.3c-0.3-0.2-0.5-0.4-0.6-0.7c-0.1-0.3-0.2-0.7-0.2-1.1s0.1-0.8,0.2-1.1
	c0.2-0.3,0.4-0.6,0.7-0.8s0.6-0.3,1-0.3c0.6,0,1.1,0.2,1.5,0.7s0.5,1.1,0.5,1.9V7c0,1.2-0.2,2.1-0.7,2.7s-1.2,0.8-2.2,0.9h-0.2V9.9
	h0.2c0.7,0,1.2-0.2,1.5-0.5C42.4,9,42.5,8.4,42.6,7.7z M41.4,7.7c0.3,0,0.5-0.1,0.7-0.2c0.2-0.2,0.4-0.4,0.5-0.6V6.6
	c0-0.5-0.1-0.9-0.3-1.3c-0.2-0.3-0.5-0.5-0.9-0.5c-0.3,0-0.6,0.1-0.8,0.4s-0.3,0.6-0.3,1.1c0,0.4,0.1,0.8,0.3,1.1
	C40.7,7.6,41,7.7,41.4,7.7z M31.9,10.1c0-0.1,0-0.3,0.1-0.3c0.1-0.1,0.2-0.1,0.4-0.1s0.3,0,0.4,0.1c0.1,0.1,0.1,0.2,0.1,0.3
	s0,0.2-0.1,0.3s-0.2,0.1-0.4,0.1s-0.3,0-0.4-0.1C31.9,10.3,31.9,10.2,31.9,10.1z M31.9,6.3c0-0.1,0-0.3,0.1-0.3
	c0.1-0.1,0.2-0.1,0.4-0.1s0.3,0,0.4,0.1c0.1,0.1,0.1,0.2,0.1,0.3s0,0.2-0.1,0.3c-0.1,0.1-0.2,0.1-0.4,0.1s-0.3,0-0.4-0.1
	C31.9,6.5,31.9,6.4,31.9,6.3z M37.2,10.5h-0.8V5.2l-1.6,0.6V5.1l2.3-0.9h0.1V10.5z"/>
<path class="st3" d="M207.9,4.4h-0.6V3.7h-2.2v0.7h-0.6c-0.1,0-0.3,0.1-0.3,0.1s-0.1,0.2-0.1,0.3v5.6c0,0.3,0.2,0.5,0.5,0.5h3.4
	c0.1,0,0.3-0.1,0.3-0.1c0.1-0.1,0.1-0.2,0.1-0.3V4.9C208.4,4.6,208.2,4.4,207.9,4.4z"/>
<path class="st3" d="M193.4,10.6h7.3V3.3"/>
<path class="st3" d="M188.6,4c-1.5,0-3,0.5-4.3,1.5c1.5,1.9,2.7,3.4,4.3,5.3c1.5-1.9,3-3.8,4.3-5.3C191.7,4.5,190.2,4,188.6,4z"/>
<g>
	<text transform="matrix(1 0 0 1 24.1471 171.8784)" class="st13 st14 st17">Staking</text>
</g>
<text transform="matrix(1 0 0 1 37.5975 187.6171)" class="st37 st14 st15">10,000.00</text>
<g>
	<path class="st38" d="M29.6,188c2.9,0,5.3-2.4,5.3-5.3c0-2.9-2.4-5.3-5.3-5.3s-5.3,2.4-5.3,5.3C24.3,185.7,26.7,188,29.6,188z"/>
	<path class="st3" d="M31.1,183.6c0-0.8-0.5-1-1.4-1.2c-0.7-0.1-0.8-0.3-0.8-0.6s0.2-0.5,0.7-0.5c0.4,0,0.6,0.1,0.7,0.5
		c0,0.1,0.1,0.1,0.2,0.1h0.4c0.1,0,0.2-0.1,0.2-0.2l0,0c-0.1-0.5-0.5-0.9-1-0.9v-0.5c0-0.1-0.1-0.2-0.2-0.2h-0.3
		c-0.1,0-0.2,0.1-0.2,0.2v0.5c-0.7,0.1-1.1,0.5-1.1,1.1c0,0.7,0.4,1,1.4,1.1c0.6,0.1,0.8,0.2,0.8,0.6c0,0.4-0.3,0.6-0.7,0.6
		c-0.6,0-0.8-0.2-0.8-0.6c0-0.1-0.1-0.1-0.2-0.1h-0.4c-0.1,0-0.2,0.1-0.2,0.2l0,0c0.1,0.6,0.4,1,1.2,1.1v0.5c0,0.1,0.1,0.2,0.2,0.2
		h0.3c0.1,0,0.2-0.1,0.2-0.2v-0.5C30.7,184.6,31.1,184.2,31.1,183.6L31.1,183.6z"/>
	<path class="st3" d="M28.5,185.9c-1.7-0.6-2.6-2.5-2-4.2c0.3-0.9,1.1-1.6,2-2c0.1,0,0.1-0.1,0.1-0.2v-0.3c0-0.1,0-0.2-0.1-0.2h-0.1
		c-2.1,0.7-3.3,2.9-2.6,5c0.4,1.2,1.3,2.2,2.6,2.6c0.1,0,0.2,0,0.2-0.1c0,0,0,0,0-0.1v-0.3C28.7,186,28.6,185.9,28.5,185.9z
		 M30.9,179c-0.1,0-0.2,0-0.2,0.1c0,0,0,0,0,0.1v0.3c0,0.1,0.1,0.2,0.1,0.2c1.7,0.6,2.6,2.5,2,4.2c-0.3,0.9-1.1,1.6-2,2
		c-0.1,0-0.1,0.1-0.1,0.2v0.3c0,0.1,0,0.2,0.1,0.2h0.1c2.1-0.7,3.3-2.9,2.6-5C33.1,180.3,32.1,179.4,30.9,179L30.9,179z"/>
</g>
<g>
	<text transform="matrix(1 0 0 1 127.2871 171.8785)" class="st13 st14 st17">Leverage</text>
</g>
<path class="st39" d="M182.6,189.5h-51.8c-1.3,0-2.3-1-2.3-2.3v-8.4c0-1.3,1-2.3,2.3-2.3h51.8c1.3,0,2.3,1,2.3,2.3v8.4
	C185,188.5,183.9,189.5,182.6,189.5z"/>
<path class="st13" d="M182.6,189.5h-8.4c-1.3,0-2.3-1-2.3-2.3v-8.4c0-1.3,1-2.3,2.3-2.3h8.4c1.3,0,2.3,1,2.3,2.3v8.4
	C185,188.5,183.9,189.5,182.6,189.5z"/>
<text transform="matrix(1 0 0 1 131.4308 187.6172)" class="st37 st14 st15">20X</text>
<g>
	<path class="st3" d="M182.1,183l-3,2.5c-0.2,0.2-0.4,0.3-0.7,0.3c-0.2,0-0.5-0.1-0.7-0.3l-3-2.5c-0.5-0.4-0.5-1.1-0.1-1.5
		c0.4-0.5,1.1-0.5,1.5-0.1l2.3,1.9l2.3-1.9c0.5-0.4,1.1-0.3,1.5,0.1C182.6,181.9,182.5,182.6,182.1,183z"/>
</g>
<g>
	<text transform="matrix(1 0 0 1 23.8835 221.4984)" class="st13 st14 st17">Estimate APY</text>
</g>
<text transform="matrix(1 0 0 1 24.1471 238.6012)" class="st37 st14 st15">10%*20</text>
<g>
	<text transform="matrix(1 0 0 1 127.8833 221.4981)" class="st13 st14 st17">Actual APY</text>
</g>
<text transform="matrix(1 0 0 1 128.4482 238.6009)" class="st37 st14 st15">340%</text>
<g>
	<text transform="matrix(1 0 0 1 23.9309 269.8237)" class="st13 st14 st17">Loyalty today</text>
</g>
<g>
	<text transform="matrix(1 0 0 1 127.6871 269.824)" class="st13 st14 st17">Total Loyalty</text>
</g>
<text transform="matrix(1 0 0 1 37.5976 285.9732)" class="st37 st14 st15">38.89</text>
<path class="st12" d="M32.8,285.1c-1,1-2.2,1.5-3.6,1.5s-2.6-0.5-3.6-1.5s-1.5-2.2-1.5-3.6s0.5-2.6,1.5-3.6s2.2-1.5,3.6-1.5
	s2.6,0.5,3.6,1.5s1.5,2.2,1.5,3.6C34.3,282.8,33.8,284.1,32.8,285.1z"/>
<path class="st40" d="M33.1,277.6c-1-1-2.4-1.6-3.9-1.6s-2.8,0.6-3.9,1.6c-1,1-1.6,2.4-1.6,3.9s0.6,2.8,1.6,3.9s2.4,1.6,3.9,1.6
	s2.8-0.6,3.9-1.6c1-1,1.6-2.4,1.6-3.9C34.7,280,34.1,278.6,33.1,277.6z M32.8,285.1c-1,1-2.2,1.5-3.6,1.5s-2.6-0.5-3.6-1.5
	s-1.5-2.2-1.5-3.6s0.5-2.6,1.5-3.6s2.2-1.5,3.6-1.5s2.6,0.5,3.6,1.5s1.5,2.2,1.5,3.6C34.3,282.8,33.8,284.1,32.8,285.1z"/>
<path class="st40" d="M30.8,283.6c0-0.2-0.1-0.5-0.2-0.8c0.3,0.1,0.6,0.2,0.8,0.2c0.6,0,1-0.4,1-1c0-0.2-0.1-0.4-0.2-0.6
	c0.1-0.2,0.2-0.4,0.2-0.6c0-0.5-0.5-1-1-1c-0.2,0-0.5,0.1-0.8,0.2c0.1-0.3,0.2-0.6,0.2-0.8c0-0.6-0.4-1-1-1c-0.2,0-0.4,0.1-0.6,0.2
	c-0.2-0.1-0.4-0.2-0.6-0.2c-0.5,0-1,0.5-1,1c0,0.2,0.1,0.5,0.2,0.8c-0.3-0.1-0.6-0.2-0.8-0.2c-0.6,0-1,0.4-1,1
	c0,0.2,0.1,0.4,0.2,0.6c-0.1,0.2-0.2,0.4-0.2,0.6c0,0.5,0.5,1,1,1c0.2,0,0.5-0.1,0.8-0.2c-0.1,0.3-0.2,0.6-0.2,0.8c0,0.6,0.4,1,1,1
	c0.2,0,0.4-0.1,0.6-0.2c0.2,0.1,0.4,0.2,0.6,0.2C30.4,284.6,30.8,284.2,30.8,283.6z"/>
<path class="st41" d="M31.3,281.4c0-0.1-0.1-0.2-0.2-0.2h-1.7v-1.7c0-0.1-0.1-0.2-0.2-0.2s-0.2,0.1-0.2,0.2v1.7h-1.7
	c-0.1,0-0.2,0.1-0.2,0.2s0.1,0.2,0.2,0.2H29v1.7c0,0.1,0.1,0.2,0.2,0.2s0.2-0.1,0.2-0.2v-1.7h1.7C31.2,281.6,31.3,281.5,31.3,281.4z
	"/>
<path class="st40" d="M29.6,285.8c-0.2,0-0.5,0-0.7,0c-0.1,0-0.2,0.1-0.2,0.2s0.1,0.2,0.2,0.2s0.3,0,0.4,0s0.3,0,0.4,0
	s0.2-0.1,0.2-0.2C29.8,285.9,29.7,285.8,29.6,285.8z"/>
<path class="st40" d="M33.9,281.1c0-0.1-0.1-0.2-0.2-0.2c-0.1,0-0.2,0.1-0.2,0.2s0,0.2,0,0.4c0,0.1,0,0.2,0,0.4
	c0,0.1,0.1,0.2,0.2,0.2l0,0c0.1,0,0.2-0.1,0.2-0.2s0-0.3,0-0.4C33.9,281.3,33.9,281.2,33.9,281.1L33.9,281.1z"/>
<path class="st40" d="M28.9,277.1c0.2,0,0.5,0,0.7,0l0,0c0.1,0,0.2-0.1,0.2-0.2s-0.1-0.2-0.2-0.2c-0.3,0-0.5,0-0.8,0
	c-0.1,0-0.2,0.1-0.2,0.2C28.7,277,28.8,277.1,28.9,277.1L28.9,277.1z"/>
<path class="st40" d="M24.9,281.8c0-0.1,0-0.2,0-0.4c0-0.1,0-0.2,0-0.4c0-0.1-0.1-0.2-0.2-0.2s-0.2,0.1-0.2,0.2s0,0.3,0,0.4
	s0,0.3,0,0.4s0.1,0.2,0.2,0.2l0,0C24.8,282,24.9,281.9,24.9,281.8z"/>
<path class="st40" d="M26.4,284.8c-0.1-0.1-0.2-0.2-0.3-0.2c-0.1-0.1-0.2-0.2-0.2-0.3c-0.1-0.1-0.2-0.1-0.2,0
	c-0.1,0.1-0.1,0.2,0,0.2c0.1,0.1,0.2,0.2,0.3,0.3c0.1,0.1,0.2,0.2,0.3,0.3h0.1c0.1,0,0.1,0,0.1-0.1
	C26.5,284.9,26.5,284.8,26.4,284.8z"/>
<path class="st40" d="M32.8,284.2c-0.1-0.1-0.2-0.1-0.2,0c-0.1,0.1-0.2,0.2-0.2,0.3c-0.1,0.1-0.2,0.2-0.3,0.2
	c-0.1,0.1-0.1,0.2,0,0.2l0.1,0.1h0.1c0.1-0.1,0.2-0.2,0.3-0.3c0.1-0.1,0.2-0.2,0.3-0.3C32.9,284.4,32.9,284.3,32.8,284.2L32.8,284.2
	z"/>
<path class="st40" d="M32,278.1c0.1,0.1,0.2,0.2,0.3,0.2c0.1,0.1,0.2,0.2,0.2,0.3l0.1,0.1h0.1c0.1-0.1,0.1-0.2,0-0.2
	c-0.1-0.1-0.2-0.2-0.3-0.3c-0.1-0.1-0.2-0.2-0.3-0.3c-0.1-0.1-0.2-0.1-0.2,0C32,277.9,32,278.1,32,278.1L32,278.1z"/>
<path class="st40" d="M25.7,278.7h0.1c0.1,0,0.1,0,0.1-0.1c0.1-0.1,0.2-0.2,0.2-0.3c0.1-0.1,0.2-0.2,0.3-0.2c0.1-0.1,0.1-0.2,0-0.2
	c-0.1-0.1-0.2-0.1-0.2,0c-0.1,0.1-0.2,0.2-0.3,0.3c-0.1,0.1-0.2,0.2-0.3,0.3C25.6,278.5,25.6,278.6,25.7,278.7z"/>
<path class="st40" d="M31.2,285.3c-0.1,0.1-0.2,0.1-0.3,0.2c-0.1,0-0.2,0.1-0.3,0.1c-0.1,0-0.1,0.1-0.1,0.2s0.1,0.1,0.2,0.1
	c0,0,0,0,0.1,0s0.2-0.1,0.4-0.1c0.1,0,0.2-0.1,0.4-0.2c0.1,0,0.1-0.2,0.1-0.2C31.4,285.3,31.3,285.3,31.2,285.3L31.2,285.3z"/>
<path class="st40" d="M33.3,279.8c0,0.1,0.1,0.2,0.1,0.3c0,0.1,0.1,0.1,0.2,0.1c0,0,0,0,0.1,0s0.1-0.1,0.1-0.2s-0.1-0.2-0.1-0.4
	c0-0.1-0.1-0.2-0.2-0.4c0-0.1-0.2-0.1-0.2-0.1c-0.1,0-0.1,0.2-0.1,0.2C33.2,279.6,33.2,279.7,33.3,279.8L33.3,279.8z"/>
<path class="st40" d="M27.2,277.6L27.2,277.6c0.2-0.1,0.3-0.1,0.4-0.2c0.1,0,0.2-0.1,0.3-0.1c0.1,0,0.1-0.1,0.1-0.2
	s-0.1-0.1-0.2-0.1s-0.2,0.1-0.4,0.1c-0.1,0-0.2,0.1-0.4,0.2c-0.1,0-0.1,0.2-0.1,0.2C27,277.6,27.1,277.6,27.2,277.6L27.2,277.6z"/>
<path class="st40" d="M25.2,283.1c0-0.1-0.1-0.2-0.1-0.3c0-0.1-0.1-0.1-0.2-0.1s-0.1,0.1-0.1,0.2s0.1,0.2,0.1,0.4
	c0,0.1,0.1,0.2,0.2,0.4c0,0.1,0.1,0.1,0.2,0.1h0.1c0.1,0,0.1-0.2,0.1-0.2C25.3,283.3,25.3,283.2,25.2,283.1z"/>
<path class="st40" d="M27.9,285.6c-0.1,0-0.2-0.1-0.3-0.1c-0.1,0-0.2-0.1-0.3-0.2c-0.1,0-0.2,0-0.2,0.1s0,0.2,0.1,0.2
	c0.1,0.1,0.2,0.1,0.4,0.2c0.1,0,0.2,0.1,0.4,0.1c0,0,0,0,0.1,0s0.1,0,0.2-0.1C28,285.7,28,285.6,27.9,285.6z"/>
<path class="st40" d="M33.6,282.7c-0.1,0-0.2,0-0.2,0.1s-0.1,0.2-0.1,0.3c0,0.1-0.1,0.2-0.2,0.3c0,0.1,0,0.2,0.1,0.2h0.1
	c0.1,0,0.1,0,0.2-0.1c0.1-0.1,0.1-0.2,0.2-0.4c0-0.1,0.1-0.2,0.1-0.4C33.7,282.8,33.7,282.7,33.6,282.7L33.6,282.7z"/>
<path class="st40" d="M30.6,277.3c0.1,0,0.2,0.1,0.3,0.1c0.1,0,0.2,0.1,0.3,0.2h0.1c0.1,0,0.1,0,0.2-0.1c0-0.1,0-0.2-0.1-0.2
	c-0.1-0.1-0.2-0.1-0.4-0.2c-0.1-0.1-0.2-0.1-0.4-0.1c-0.1,0-0.2,0-0.2,0.1C30.4,277.2,30.5,277.3,30.6,277.3L30.6,277.3z"/>
<path class="st40" d="M25.3,279.2c-0.1,0-0.2,0-0.2,0.1c-0.1,0.1-0.1,0.2-0.2,0.4c-0.1,0.1-0.1,0.2-0.1,0.4c0,0.1,0,0.2,0.1,0.2
	c0,0,0,0,0.1,0s0.1,0,0.2-0.1c0-0.1,0.1-0.2,0.1-0.3c0-0.1,0.1-0.2,0.2-0.3C25.4,279.4,25.4,279.3,25.3,279.2L25.3,279.2z"/>
<text transform="matrix(1 0 0 1 142.2797 285.9732)" class="st37 st14 st15">6,880.89</text>
<path class="st12" d="M137.5,285.1c-1,1-2.2,1.5-3.6,1.5c-1.4,0-2.6-0.5-3.6-1.5s-1.5-2.2-1.5-3.6s0.5-2.6,1.5-3.6s2.2-1.5,3.6-1.5
	c1.4,0,2.6,0.5,3.6,1.5s1.5,2.2,1.5,3.6C139,282.8,138.5,284.1,137.5,285.1z"/>
<path class="st40" d="M137.8,277.6c-1-1-2.4-1.6-3.9-1.6s-2.8,0.6-3.9,1.6c-1,1-1.6,2.4-1.6,3.9s0.6,2.8,1.6,3.9s2.4,1.6,3.9,1.6
	s2.8-0.6,3.9-1.6c1-1,1.6-2.4,1.6-3.9C139.4,280,138.8,278.6,137.8,277.6z M137.5,285.1c-1,1-2.2,1.5-3.6,1.5
	c-1.4,0-2.6-0.5-3.6-1.5s-1.5-2.2-1.5-3.6s0.5-2.6,1.5-3.6s2.2-1.5,3.6-1.5c1.4,0,2.6,0.5,3.6,1.5s1.5,2.2,1.5,3.6
	C139,282.8,138.5,284.1,137.5,285.1z"/>
<path class="st40" d="M135.5,283.6c0-0.2-0.1-0.5-0.2-0.8c0.3,0.1,0.6,0.2,0.8,0.2c0.6,0,1-0.4,1-1c0-0.2-0.1-0.4-0.2-0.6
	c0.1-0.2,0.2-0.4,0.2-0.6c0-0.5-0.5-1-1-1c-0.2,0-0.5,0.1-0.8,0.2c0.1-0.3,0.2-0.6,0.2-0.8c0-0.6-0.4-1-1-1c-0.2,0-0.4,0.1-0.6,0.2
	c-0.2-0.1-0.4-0.2-0.6-0.2c-0.5,0-1,0.5-1,1c0,0.2,0.1,0.5,0.2,0.8c-0.3-0.1-0.6-0.2-0.8-0.2c-0.6,0-1,0.4-1,1
	c0,0.2,0.1,0.4,0.2,0.6c-0.1,0.2-0.2,0.4-0.2,0.6c0,0.5,0.5,1,1,1c0.2,0,0.5-0.1,0.8-0.2c-0.1,0.3-0.2,0.6-0.2,0.8c0,0.6,0.4,1,1,1
	c0.2,0,0.4-0.1,0.6-0.2c0.2,0.1,0.4,0.2,0.6,0.2C135.1,284.6,135.5,284.2,135.5,283.6z"/>
<path class="st41" d="M136,281.4c0-0.1-0.1-0.2-0.2-0.2h-1.7v-1.7c0-0.1-0.1-0.2-0.2-0.2c-0.1,0-0.2,0.1-0.2,0.2v1.7H132
	c-0.1,0-0.2,0.1-0.2,0.2s0.1,0.2,0.2,0.2h1.7v1.7c0,0.1,0.1,0.2,0.2,0.2c0.1,0,0.2-0.1,0.2-0.2v-1.7h1.7
	C135.9,281.6,136,281.5,136,281.4z"/>
<path class="st40" d="M134.3,285.8c-0.2,0-0.5,0-0.7,0c-0.1,0-0.2,0.1-0.2,0.2s0.1,0.2,0.2,0.2c0.1,0,0.3,0,0.4,0c0.1,0,0.3,0,0.4,0
	c0.1,0,0.2-0.1,0.2-0.2C134.5,285.9,134.4,285.8,134.3,285.8z"/>
<path class="st40" d="M138.6,281.1c0-0.1-0.1-0.2-0.2-0.2c-0.1,0-0.2,0.1-0.2,0.2s0,0.2,0,0.4c0,0.1,0,0.2,0,0.4
	c0,0.1,0.1,0.2,0.2,0.2l0,0c0.1,0,0.2-0.1,0.2-0.2s0-0.3,0-0.4C138.6,281.3,138.6,281.2,138.6,281.1L138.6,281.1z"/>
<path class="st40" d="M133.5,277.1c0.2,0,0.5,0,0.7,0l0,0c0.1,0,0.2-0.1,0.2-0.2s-0.1-0.2-0.2-0.2c-0.3,0-0.5,0-0.8,0
	c-0.1,0-0.2,0.1-0.2,0.2C133.4,277,133.5,277.1,133.5,277.1L133.5,277.1z"/>
<path class="st40" d="M129.6,281.8c0-0.1,0-0.2,0-0.4c0-0.1,0-0.2,0-0.4c0-0.1-0.1-0.2-0.2-0.2c-0.1,0-0.2,0.1-0.2,0.2s0,0.3,0,0.4
	s0,0.3,0,0.4s0.1,0.2,0.2,0.2l0,0C129.5,282,129.6,281.9,129.6,281.8z"/>
<path class="st40" d="M131.1,284.8c-0.1-0.1-0.2-0.2-0.3-0.2c-0.1-0.1-0.2-0.2-0.2-0.3c-0.1-0.1-0.2-0.1-0.2,0
	c-0.1,0.1-0.1,0.2,0,0.2c0.1,0.1,0.2,0.2,0.3,0.3c0.1,0.1,0.2,0.2,0.3,0.3h0.1c0.1,0,0.1,0,0.1-0.1
	C131.2,284.9,131.2,284.8,131.1,284.8z"/>
<path class="st40" d="M137.5,284.2c-0.1-0.1-0.2-0.1-0.2,0c-0.1,0.1-0.2,0.2-0.2,0.3c-0.1,0.1-0.2,0.2-0.3,0.2
	c-0.1,0.1-0.1,0.2,0,0.2l0.1,0.1h0.1c0.1-0.1,0.2-0.2,0.3-0.3c0.1-0.1,0.2-0.2,0.3-0.3C137.6,284.4,137.6,284.3,137.5,284.2
	L137.5,284.2z"/>
<path class="st40" d="M136.7,278.1c0.1,0.1,0.2,0.2,0.3,0.2c0.1,0.1,0.2,0.2,0.2,0.3l0.1,0.1h0.1c0.1-0.1,0.1-0.2,0-0.2
	c-0.1-0.1-0.2-0.2-0.3-0.3c-0.1-0.1-0.2-0.2-0.3-0.3c-0.1-0.1-0.2-0.1-0.2,0C136.6,277.9,136.6,278.1,136.7,278.1L136.7,278.1z"/>
<path class="st40" d="M130.3,278.7h0.1c0.1,0,0.1,0,0.1-0.1c0.1-0.1,0.2-0.2,0.2-0.3c0.1-0.1,0.2-0.2,0.3-0.2c0.1-0.1,0.1-0.2,0-0.2
	c-0.1-0.1-0.2-0.1-0.2,0c-0.1,0.1-0.2,0.2-0.3,0.3c-0.1,0.1-0.2,0.2-0.3,0.3C130.3,278.5,130.3,278.6,130.3,278.7z"/>
<path class="st40" d="M135.9,285.3c-0.1,0.1-0.2,0.1-0.3,0.2c-0.1,0-0.2,0.1-0.3,0.1s-0.1,0.1-0.1,0.2s0.1,0.1,0.2,0.1
	c0,0,0,0,0.1,0s0.2-0.1,0.4-0.1c0.1,0,0.2-0.1,0.4-0.2c0.1,0,0.1-0.2,0.1-0.2C136.1,285.3,136,285.3,135.9,285.3L135.9,285.3z"/>
<path class="st40" d="M137.9,279.8c0,0.1,0.1,0.2,0.1,0.3c0,0.1,0.1,0.1,0.2,0.1c0,0,0,0,0.1,0s0.1-0.1,0.1-0.2s-0.1-0.2-0.1-0.4
	c0-0.1-0.1-0.2-0.2-0.4c0-0.1-0.2-0.1-0.2-0.1c-0.1,0-0.1,0.2-0.1,0.2C137.8,279.6,137.9,279.7,137.9,279.8L137.9,279.8z"/>
<path class="st40" d="M131.8,277.6C131.9,277.6,131.9,277.6,131.8,277.6c0.2-0.1,0.3-0.1,0.4-0.2c0.1,0,0.2-0.1,0.3-0.1
	s0.1-0.1,0.1-0.2s-0.1-0.1-0.2-0.1c-0.1,0-0.2,0.1-0.4,0.1c-0.1,0-0.2,0.1-0.4,0.2c-0.1,0-0.1,0.2-0.1,0.2
	C131.7,277.6,131.8,277.6,131.8,277.6L131.8,277.6z"/>
<path class="st40" d="M129.9,283.1c0-0.1-0.1-0.2-0.1-0.3c0-0.1-0.1-0.1-0.2-0.1c-0.1,0-0.1,0.1-0.1,0.2s0.1,0.2,0.1,0.4
	c0,0.1,0.1,0.2,0.2,0.4c0,0.1,0.1,0.1,0.2,0.1h0.1c0.1,0,0.1-0.2,0.1-0.2C130,283.3,129.9,283.2,129.9,283.1z"/>
<path class="st40" d="M132.6,285.6c-0.1,0-0.2-0.1-0.3-0.1s-0.2-0.1-0.3-0.2c-0.1,0-0.2,0-0.2,0.1s0,0.2,0.1,0.2
	c0.1,0.1,0.2,0.1,0.4,0.2c0.1,0,0.2,0.1,0.4,0.1c0,0,0,0,0.1,0s0.1,0,0.2-0.1C132.7,285.7,132.7,285.6,132.6,285.6z"/>
<path class="st40" d="M138.3,282.7c-0.1,0-0.2,0-0.2,0.1s-0.1,0.2-0.1,0.3c0,0.1-0.1,0.2-0.2,0.3c0,0.1,0,0.2,0.1,0.2h0.1
	c0.1,0,0.1,0,0.2-0.1c0.1-0.1,0.1-0.2,0.2-0.4c0-0.1,0.1-0.2,0.1-0.4C138.4,282.8,138.4,282.7,138.3,282.7L138.3,282.7z"/>
<path class="st40" d="M135.2,277.3c0.1,0,0.2,0.1,0.3,0.1s0.2,0.1,0.3,0.2h0.1c0.1,0,0.1,0,0.2-0.1c0-0.1,0-0.2-0.1-0.2
	c-0.1-0.1-0.2-0.1-0.4-0.2c-0.1-0.1-0.2-0.1-0.4-0.1c-0.1,0-0.2,0-0.2,0.1C135.1,277.2,135.1,277.3,135.2,277.3L135.2,277.3z"/>
<path class="st40" d="M130,279.2c-0.1,0-0.2,0-0.2,0.1c-0.1,0.1-0.1,0.2-0.2,0.4c-0.1,0.1-0.1,0.2-0.1,0.4c0,0.1,0,0.2,0.1,0.2
	c0,0,0,0,0.1,0s0.1,0,0.2-0.1c0-0.1,0.1-0.2,0.1-0.3c0-0.1,0.1-0.2,0.2-0.3C130.1,279.4,130.1,279.3,130,279.2L130,279.2z"/>
<g>
	<text transform="matrix(1 0 0 1 24.3312 317.1628)" class="st13 st14 st17">This node earnings</text>
</g>
<text transform="matrix(1 0 0 1 36.2547 334.5193)" class="st37 st14 st15">13.89</text>
<g>
	<path class="st38" d="M28.3,334.9c2.9,0,5.3-2.4,5.3-5.3s-2.4-5.3-5.3-5.3s-5.3,2.4-5.3,5.3C23,332.6,25.4,334.9,28.3,334.9z"/>
	<path class="st3" d="M29.8,330.5c0-0.8-0.5-1-1.4-1.2c-0.7-0.1-0.8-0.3-0.8-0.6c0-0.3,0.2-0.5,0.7-0.5c0.4,0,0.6,0.1,0.7,0.5
		c0,0.1,0.1,0.1,0.2,0.1h0.4c0.1,0,0.2-0.1,0.2-0.2l0,0c-0.1-0.5-0.5-0.9-1-0.9v-0.5c0-0.1-0.1-0.2-0.2-0.2h-0.3
		c-0.1,0-0.2,0.1-0.2,0.2v0.5c-0.7,0.1-1.1,0.5-1.1,1.1c0,0.7,0.4,1,1.4,1.1c0.6,0.1,0.8,0.2,0.8,0.6s-0.3,0.6-0.7,0.6
		c-0.6,0-0.8-0.2-0.8-0.6c0-0.1-0.1-0.1-0.2-0.1H27c-0.1,0-0.2,0.1-0.2,0.2l0,0c0.1,0.6,0.4,1,1.2,1.1v0.5c0,0.1,0.1,0.2,0.2,0.2
		h0.3c0.1,0,0.2-0.1,0.2-0.2v-0.5C29.3,331.5,29.8,331.1,29.8,330.5L29.8,330.5z"/>
	<path class="st3" d="M27.2,332.8c-1.7-0.6-2.6-2.5-2-4.2c0.3-0.9,1.1-1.6,2-2c0.1,0,0.1-0.1,0.1-0.2V326c0-0.1,0-0.2-0.1-0.2h-0.1
		c-2.1,0.7-3.3,2.9-2.6,5c0.4,1.2,1.3,2.2,2.6,2.6c0.1,0,0.2,0,0.2-0.1c0,0,0,0,0-0.1V333C27.3,332.9,27.2,332.8,27.2,332.8z
		 M29.5,325.9c-0.1,0-0.2,0-0.2,0.1c0,0,0,0,0,0.1v0.3c0,0.1,0.1,0.2,0.1,0.2c1.7,0.6,2.6,2.5,2,4.2c-0.3,0.9-1.1,1.6-2,2
		c-0.1,0-0.1,0.1-0.1,0.2v0.3c0,0.1,0,0.2,0.1,0.2h0.1c2.1-0.7,3.3-2.9,2.6-5C31.7,327.2,30.7,326.3,29.5,325.9L29.5,325.9z"/>
</g>
<text transform="matrix(1 0 0 1 141.0952 334.5193)" class="st37 st14 st15">55.56</text>
<g>
	<path class="st38" d="M133.1,334.9c2.9,0,5.3-2.4,5.3-5.3s-2.4-5.3-5.3-5.3c-2.9,0-5.3,2.4-5.3,5.3
		C127.8,332.6,130.2,334.9,133.1,334.9z"/>
	<path class="st3" d="M134.6,330.5c0-0.8-0.5-1-1.4-1.2c-0.7-0.1-0.8-0.3-0.8-0.6c0-0.3,0.2-0.5,0.7-0.5c0.4,0,0.6,0.1,0.7,0.5
		c0,0.1,0.1,0.1,0.2,0.1h0.4c0.1,0,0.2-0.1,0.2-0.2l0,0c-0.1-0.5-0.5-0.9-1-0.9v-0.5c0-0.1-0.1-0.2-0.2-0.2H133
		c-0.1,0-0.2,0.1-0.2,0.2v0.5c-0.7,0.1-1.1,0.5-1.1,1.1c0,0.7,0.4,1,1.4,1.1c0.6,0.1,0.8,0.2,0.8,0.6s-0.3,0.6-0.7,0.6
		c-0.6,0-0.8-0.2-0.8-0.6c0-0.1-0.1-0.1-0.2-0.1h-0.4c-0.1,0-0.2,0.1-0.2,0.2l0,0c0.1,0.6,0.4,1,1.2,1.1v0.5c0,0.1,0.1,0.2,0.2,0.2
		h0.3c0.1,0,0.2-0.1,0.2-0.2v-0.5C134.2,331.5,134.6,331.1,134.6,330.5L134.6,330.5z"/>
	<path class="st3" d="M132,332.8c-1.7-0.6-2.6-2.5-2-4.2c0.3-0.9,1.1-1.6,2-2c0.1,0,0.1-0.1,0.1-0.2V326c0-0.1,0-0.2-0.1-0.2h-0.1
		c-2.1,0.7-3.3,2.9-2.6,5c0.4,1.2,1.3,2.2,2.6,2.6c0.1,0,0.2,0,0.2-0.1c0,0,0,0,0-0.1V333C132.2,332.9,132.1,332.8,132,332.8z
		 M134.4,325.9c-0.1,0-0.2,0-0.2,0.1c0,0,0,0,0,0.1v0.3c0,0.1,0.1,0.2,0.1,0.2c1.7,0.6,2.6,2.5,2,4.2c-0.3,0.9-1.1,1.6-2,2
		c-0.1,0-0.1,0.1-0.1,0.2v0.3c0,0.1,0,0.2,0.1,0.2h0.1c2.1-0.7,3.3-2.9,2.6-5C136.6,327.2,135.6,326.3,134.4,325.9L134.4,325.9z"/>
</g>
<g>
	<text transform="matrix(1 0 0 1 24.5274 367.2616)" class="st13 st14 st17">Auto joined funds</text>
</g>
<text transform="matrix(1 0 0 1 25.0579 383.2786)" class="st37 st14 st15">4</text>
<g>
	<text transform="matrix(1 0 0 1 127.2708 367.2619)" class="st13 st14 st17">Max stake days</text>
</g>
<path class="st39" d="M182.5,385.1h-51.8c-1.3,0-2.3-1-2.3-2.3v-8.4c0-1.3,1-2.3,2.3-2.3h51.8c1.3,0,2.3,1,2.3,2.3v8.4
	C184.8,384,183.8,385.1,182.5,385.1z"/>
<path class="st13" d="M182.5,385.1h-8.4c-1.3,0-2.3-1-2.3-2.3v-8.4c0-1.3,1-2.3,2.3-2.3h8.4c1.3,0,2.3,1,2.3,2.3v8.4
	C184.8,384,183.8,385.1,182.5,385.1z"/>
<text transform="matrix(1 0 0 1 131.3227 383.1358)" class="st37 st14 st15">7</text>
<g>
	<path class="st3" d="M182,378.5l-3,2.5c-0.2,0.2-0.4,0.3-0.7,0.3c-0.2,0-0.5-0.1-0.7-0.3l-3-2.5c-0.5-0.4-0.5-1.1-0.1-1.5
		c0.4-0.5,1.1-0.5,1.5-0.1l2.3,1.9l2.3-1.9c0.5-0.4,1.1-0.3,1.5,0.1S182.4,378.1,182,378.5z"/>
</g>
<g>
	<text transform="matrix(1 0 0 1 23.8833 417.4675)" class="st13 st14 st17">Earnings Ranking</text>
</g>
<text transform="matrix(1 0 0 1 24.5212 432.5925)" class="st37 st14 st15">48</text>
<g>
	<text transform="matrix(1 0 0 1 127.2394 417.4676)" class="st13 st14 st17">Estimate Airdrop</text>
</g>
<text transform="matrix(1 0 0 1 141.0956 432.5925)" class="st37 st14 st15">3,276.82</text>
<path class="st40" d="M138.6,431.9l0.8,1.6h-11.7v-9.4h1.6h10.1l-0.8,1.6l0.8,1.6l-0.8,1.6l0.8,1.6L138.6,431.9z"/>
<path class="st3" d="M131.5,428.8L131.5,428.8l3,3l3-3c0-0.3-0.1-0.6-0.2-0.9l0,0c-0.1-0.3-0.2-0.6-0.4-0.8l0,0
	c-0.2-0.2-0.4-0.5-0.6-0.6l0,0c-0.3-0.2-0.5-0.3-0.8-0.4l0,0c-0.3-0.1-0.6-0.2-0.9-0.2s-0.6,0.1-0.9,0.2l0,0
	c-0.3,0.1-0.6,0.2-0.8,0.4l0,0c-0.2,0.2-0.5,0.4-0.6,0.6l0,0c-0.2,0.3-0.3,0.5-0.4,0.8l0,0C131.6,428.1,131.5,428.5,131.5,428.8z
	 M134.9,428.8h1.5l-1.5,1.5V428.8z M132.6,428.8L132.6,428.8h1.5v1.5L132.6,428.8z"/>
<g>
	<g>
		<line class="st42" x1="129.9" y1="424.1" x2="129.9" y2="424.1"/>
		<line class="st43" x1="129.9" y1="425.7" x2="129.9" y2="428"/>
		<line class="st44" x1="129.9" y1="428.8" x2="129.9" y2="432.7"/>
		<line class="st42" x1="129.9" y1="433.5" x2="129.9" y2="433.5"/>
	</g>
</g>
<g>
	<text transform="matrix(1 0 0 1 127.6871 317.1626)" class="st13 st14 st17">Today earnings</text>
</g>
<line class="st9" x1="19.6" y1="202.7" x2="215.6" y2="202.7"/>
<line class="st9" x1="19.6" y1="251.7" x2="215.6" y2="251.7"/>
<line class="st9" x1="19.6" y1="300.7" x2="215.6" y2="300.7"/>
<line class="st9" x1="19.6" y1="349.7" x2="215.6" y2="349.7"/>
<line class="st9" x1="19.6" y1="398.8" x2="215.6" y2="398.8"/>
<path class="st36" d="M24.9,34.6c0.1,0,0.2,0,0.4,0c3,0,6.1,0,9.1,0c0.8,0,1.4-0.5,1.5-1.1c0.1-0.4,0-0.8,0-1.2
	c-0.2-1.3-0.9-2.5-1.8-3.5c-0.5-0.5-0.6-1.1-0.3-1.6c0.4-0.8,1.5-1,2.2-0.3c1.1,1.1,1.9,2.4,2.3,3.8c1.4,4.5-0.7,9.3-5,11.4
	c-1.3,0.6-2.6,0.9-4,0.9c-0.6,0-1.2-0.5-1.3-1c-0.1-0.7,0.1-1.3,0.7-1.5c0.2-0.1,0.5-0.1,0.7-0.1c1.4,0,2.6-0.4,3.7-1.2
	c0.4-0.3,0.6-0.7,0.5-1.1c-0.1-0.7-0.8-1.1-1.5-0.7c-0.4,0.2-0.8,0.5-1.3,0.6c-2.4,0.9-5.1-0.5-5.8-2.9
	C24.9,34.8,24.9,34.7,24.9,34.6z"/>
<path class="st36" d="M19.8,33.8c0-4.3,2.5-7.8,6.3-9.2c1-0.4,2-0.5,3.1-0.5c0.8,0,1.4,0.5,1.4,1.3c0,0.8-0.5,1.4-1.3,1.4
	c-0.7,0-1.4,0.1-2.1,0.3c-2.4,0.8-3.9,2.5-4.5,5c-0.5,2.4,0.1,4.4,1.8,6.2c0.4,0.5,0.5,1,0.3,1.6c-0.2,0.5-0.7,0.8-1.3,0.7
	c-0.4,0-0.6-0.2-0.9-0.4C20.7,38.3,19.8,36.1,19.8,33.8z"/>
<path class="st36" d="M33.6,32.4c-2.9,0-5.8,0-8.7,0c0.1-0.7,0.4-1.2,0.9-1.7c0.8-1,1.8-1.5,3.1-1.6c1.3-0.1,2.5,0.3,3.5,1.2
	C32.9,30.8,33.3,31.5,33.6,32.4z"/>
</svg>
