<?xml version="1.0" encoding="utf-8"?>
<!-- Generator: Adobe Illustrator 27.0.0, SVG Export Plug-In . SVG Version: 6.00 Build 0)  -->
<svg version="1.1" id="图层_1" xmlns="http://www.w3.org/2000/svg" xmlns:xlink="http://www.w3.org/1999/xlink" x="0px" y="0px"
	 viewBox="0 0 236.2 470" style="enable-background:new 0 0 236.2 470;" xml:space="preserve">
<style type="text/css">
	.st0{display:none;fill:none;stroke:#000000;stroke-width:0.25;stroke-miterlimit:10;}
	.st1{fill:#B8BAC0;}
	.st2{fill:#FFFFFF;}
	.st3{fill:#D7DBE0;}
	.st4{fill:#1652F0;}
	.st5{fill:#EEF0F3;}
	.st6{fill:#0A0B0D;}
	.st7{fill:#CF2030;}
	.st8{opacity:0.3;fill:none;stroke:#6E6E6E;stroke-width:0.25;stroke-miterlimit:10;enable-background:new    ;}
	.st9{fill:#0052FF;}
	.st10{font-family:'ArialMT';}
	.st11{font-size:12px;}
	.st12{font-family:'Arial-BoldMT';}
	.st13{font-size:10px;}
	.st14{font-size:8.4886px;}
	.st15{opacity:0.2;fill:#FFFFFF;enable-background:new    ;}
	.st16{fill:#606373;}
	.st17{fill:#77788B;}
	.st18{fill:#11113B;}
	.st19{fill:#EFEFEF;}
	.st20{fill:#E0E0E0;}
	.st21{fill:#B1B1C9;}
	.st22{fill:#DCDBEA;stroke:#8D8DAA;stroke-width:0.25;stroke-miterlimit:10;}
	.st23{fill:#9A9AB7;}
	.st24{fill:#272362;stroke:#FFFFFF;stroke-width:0.25;stroke-miterlimit:10;}
	.st25{fill:none;stroke:#8D8DAA;stroke-width:0.25;stroke-miterlimit:10;}
	.st26{opacity:0.1;fill:#FFFFFF;enable-background:new    ;}
	.st27{fill:#212154;}
	.st28{fill:#020202;}
	.st29{fill:#E3E3E3;}
	.st30{fill:#353535;}
	.st31{fill:#FBF9F9;}
	.st32{fill:#D6D6D6;}
	.st33{fill:url(#SVGID_1_);}
	.st34{fill:#57B4FC;}
	.st35{fill:#E1E1E1;}
	.st36{fill:#FDFDFB;}
	.st37{opacity:0.3;fill:#B1B1C9;enable-background:new    ;}
	.st38{opacity:0.3;fill:#FFFFFF;enable-background:new    ;}
	.st39{fill:none;}
	.st40{font-size:8px;}
	.st41{fill:#6B707C;}
	.st42{font-family:'AdobeSongStd-Light-GBpc-EUC-H';}
	.st43{fill:#4C4C4C;}
	.st44{fill:#088552;}
	.st45{font-size:6.7109px;}
	.st46{font-family:'Arial-Black';}
	.st47{fill:none;stroke:#F41100;stroke-width:0.25;stroke-linecap:round;stroke-miterlimit:10;}
	.st48{fill:#7E56E0;}
	.st49{fill-rule:evenodd;clip-rule:evenodd;fill:#171717;}
	.st50{fill-rule:evenodd;clip-rule:evenodd;}
	.st51{opacity:0.67;fill-rule:evenodd;clip-rule:evenodd;fill:#FFFFFF;enable-background:new    ;}
	.st52{fill-rule:evenodd;clip-rule:evenodd;fill:#FFFFFF;}
	.st53{clip-path:url(#SVGID_00000122709862585870193070000018188726142220407456_);}
	.st54{fill:#020212;}
	.st55{fill:#F0B90B;}
	.st56{fill-rule:evenodd;clip-rule:evenodd;fill:#F0B90B;}
	.st57{fill:none;stroke:#088552;stroke-width:0.25;stroke-miterlimit:10;}
	.st58{fill:url(#SVGID_00000073000953625567508390000013701114155345177217_);}
	.st59{font-size:9px;}
	.st60{fill-rule:evenodd;clip-rule:evenodd;fill:#0033AD;}
	.st61{clip-path:url(#SVGID_00000145766234308414011150000005909772378454955921_);}
	.st62{clip-path:url(#SVGID_00000108282269690249761850000017597336494231426749_);}
	.st63{fill:url(#SVGID_00000172428686169271734270000014184020655271990407_);}
	.st64{fill-rule:evenodd;clip-rule:evenodd;fill:#E6E9EC;}
	.st65{fill:#CECECE;}
	.st66{fill:#F7931A;}
	.st67{fill-rule:evenodd;clip-rule:evenodd;fill:#2E69FB;}
	.st68{fill:#282E5B;}
	.st69{clip-path:url(#SVGID_00000074410726975045812780000007763148533218972801_);}
</style>
<rect x="8.3" y="0" class="st0" width="219.5" height="445.1"/>
<g>
	<circle class="st1" cx="205" cy="33.7" r="10.9"/>
</g>
<g>
	<g>
		<path class="st2" d="M205,39.2c-1.3,0-2.4-0.5-3.3-1.4c0,0.5,0,1.3-0.2,1.8c0.1,0.1,0.2,0.1,0.2,0.3c0.2,1.5,1.6,2.6,3.2,2.6
			c1.7,0,3.1-1.1,3.2-2.6c0-0.1,0.1-0.2,0.2-0.3c-0.1-0.6-0.2-1.3-0.2-1.8C207.4,38.6,206.2,39.2,205,39.2z"/>
	</g>
</g>
<g>
	<g>
		<path class="st3" d="M208.1,37.8c-0.8,0.8-2,1.4-3.2,1.4c-1.3,0-2.4-0.5-3.3-1.4c0,0.5,0,1.3-0.2,1.8c0.1,0.1,0.2,0.1,0.2,0.3
			c0.1,0.7,0.4,1.2,0.9,1.7C204.8,41.2,207.2,39.1,208.1,37.8z"/>
	</g>
</g>
<g>
	<g>
		<path class="st2" d="M208.2,30.1H202c-1,0-1.8,0.8-1.8,1.8v2.2c0,2.8,2.1,5.1,4.7,5.1c2.6,0,4.7-2.3,4.7-5.1v-2.5
			C209.7,30.8,209,30.1,208.2,30.1z"/>
	</g>
</g>
<g>
	<g>
		<path class="st4" d="M207.5,26.1h-4.7c-0.7,0-1.3,0.5-1.4,1.1c-1.2,0.2-2.2,1.2-2.2,2.5v1.8c0,0.9,0.4,1.8,1.1,2.4v-2.1
			c0-1,0.8-1.8,1.8-1.8h6.2c0.8,0,1.4,0.7,1.4,1.4V34c0.7-0.6,1.1-1.5,1.1-2.4v-2.2C210.8,27.6,209.3,26.1,207.5,26.1z"/>
	</g>
</g>
<g>
	<path class="st4" d="M196.9,41c2,2.2,4.9,3.6,8.1,3.6s6.1-1.4,8.1-3.6c-0.3-0.5-0.8-0.9-1.5-1l0,0l-2.9-0.4h-0.1
		c-0.2,0-0.3,0.1-0.4,0.3c-0.2,1.5-1.6,2.6-3.2,2.6c-1.7,0-3.1-1.1-3.2-2.6c0-0.2-0.2-0.3-0.4-0.3c0,0,0,0-0.1,0l-2.9,0.4l0,0
		C197.7,40.2,197.2,40.5,196.9,41z"/>
</g>
<rect x="186.4" y="25.6" class="st5" width="0.8" height="16.3"/>
<circle class="st5" cx="169.2" cy="33.8" r="10.4"/>
<circle class="st6" cx="166.8" cy="31.3" r="0.9"/>
<circle class="st6" cx="169.2" cy="31.3" r="0.9"/>
<circle class="st6" cx="171.7" cy="31.3" r="0.9"/>
<circle class="st6" cx="166.7" cy="33.8" r="0.9"/>
<circle class="st6" cx="169.2" cy="33.8" r="0.9"/>
<circle class="st6" cx="171.7" cy="33.8" r="0.9"/>
<circle class="st6" cx="166.7" cy="36.3" r="0.9"/>
<circle class="st6" cx="169.1" cy="36.3" r="0.9"/>
<circle class="st6" cx="171.6" cy="36.3" r="0.9"/>
<circle class="st5" cx="142.6" cy="33.8" r="10.4"/>
<circle class="st7" cx="148" cy="28.4" r="2.4"/>
<path class="st6" d="M144.4,33.9v-1.4c0-0.2,0-0.4-0.1-0.6l0,0c-0.1-0.2-0.2-0.4-0.4-0.5c-0.2-0.2-0.3-0.3-0.5-0.4l0,0
	c-0.2-0.1-0.4-0.1-0.6-0.1c-0.2,0-0.4,0-0.6,0.1l0,0c-0.2,0.1-0.4,0.2-0.5,0.4c-0.2,0.2-0.3,0.3-0.4,0.5l0,0
	c-0.1,0.2-0.1,0.4-0.1,0.6l0,0v1.4l-0.7,1.5h4.8L144.4,33.9z M139.4,36.2v-0.8l0.8-1.7v-1.2c0-0.3,0.1-0.7,0.2-1l0,0
	c0.1-0.3,0.3-0.6,0.5-0.8c0.2-0.2,0.5-0.4,0.8-0.5l0,0c0.3-0.1,0.6-0.2,1-0.2s0.7,0.1,1,0.2l0,0c0.3,0.1,0.6,0.3,0.8,0.5
	s0.4,0.5,0.5,0.8l0,0c0.1,0.3,0.2,0.6,0.2,1l0,0v1.2l0.8,1.7v0.8H139.4z M141.5,37.4h2.5v-0.8h-2.5V37.4z"/>
<line class="st8" x1="8.1" y1="51.8" x2="227.6" y2="51.8"/>
<path class="st9" d="M113.1,42.4H65.9c-5.2,0-9.3-4.2-9.3-9.3l0,0c0-5.2,4.2-9.3,9.3-9.3h47.2c5.2,0,9.3,4.2,9.3,9.3l0,0
	C122.4,38.2,118.3,42.4,113.1,42.4z"/>
<text transform="matrix(1 0 0 1 69.0847 37.3189)" class="st2 st10 st11">AI Earn</text>
<path class="st8" d="M10.8,437.8V58.7c0-2.6,2.1-4.7,4.7-4.7h205.2c2.6,0,4.7,2.1,4.7,4.7v379"/>
<text transform="matrix(1 0 0 1 23.715 74.2525)" class="st2 st12 st13">Watchlist</text>
<text transform="matrix(1 0 0 1 67.2715 105.0882)" class="st2 st12 st14">AI Earn funds pool</text>
<ellipse class="st15" cx="39.2" cy="137.6" rx="13.5" ry="1.6">
<animate  accumulate="none" additive="replace" attributeName="rx" calcMode="linear" dur="2s" fill="remove" keyTimes="0;0.5;1" repeatCount="indefinite" restart="always" values="10;15;10">
	</animate>
</ellipse>
<g>
	<path class="st16" d="M47.6,120.6c-1.8,0.3-6.2,0.5-8.1,0.5h-0.6c-1.9,0-6.3-0.2-8.1-0.5c-0.1,0-0.2,0-0.3,0v1.1
		c3.6,0.8,13.9,0.8,17.5,0v-1.2C47.9,120.6,47.8,120.6,47.6,120.6z"/>
	<path class="st17" d="M34.3,122.2c0-0.1-0.1-0.2-0.3-0.3c-1.5-1.1-3-0.2-3.1-0.1C31.8,122,32.9,122.1,34.3,122.2z"/>
	<path class="st17" d="M44.3,122.2c0-0.1,0.1-0.2,0.3-0.3c1.5-1.1,3-0.2,3.1-0.1C46.8,122,45.6,122.1,44.3,122.2z"/>
	<path class="st18" d="M44.6,121.2h-0.4h-9.7h-0.4c-0.3,0.5,0.1,0.7,0.1,0.7c-0.1,0.1,0.1,0.3,0.1,0.3l0.3,0.3l4.5-0.1l5,0.1
		l0.3-0.3c0,0,0.2-0.2,0.1-0.3C44.4,121.9,44.8,121.7,44.6,121.2z"/>
	<path class="st19" d="M48,121.7c-3.6,0.8-13.9,0.8-17.5,0c0,0-0.6,9.3,4.6,10.7c0,0,2,0.5,4.1,0.5s4.1-0.5,4.1-0.5
		C48.6,131.1,48,121.7,48,121.7z"/>
	<path class="st20" d="M48,121.7c-0.6,0.1-1.5,0.3-2.5,0.4l0,0c0,0,1.1,5-0.4,7c-1.4,1.8-2.3,3.2-10.3,3.2c-0.1,0-0.1,0-0.2,0
		c0.2,0.1,0.3,0.1,0.5,0.2c0,0,2,0.5,4.1,0.5s4.1-0.5,4.1-0.5C48.6,131.1,48,121.7,48,121.7z"/>
	<path class="st21" d="M45.3,124.2c-0.1-1.3-0.2-1.7-0.2-1.8l0,0l0,0l0,0c0,0-0.1,0-0.2,0c-0.5,0.1-2.4,0.2-5.7,0.2
		s-5.1-0.2-5.7-0.2c-0.1,0-0.2,0-0.2,0l0,0l0,0l0,0c0,0.1-0.1,0.6-0.2,1.8c0,0.8,0,1.8,0,1.8s0,1.8,1.1,3.2c0.1,0.1,0.2,0.2,0.3,0.3
		c0.2,0.3,0.5,0.5,0.7,0.7l0,0l0,0c0.1,0.1,0.2,0.1,0.3,0.2l0,0h0.1c0,0,0,0,0.1,0l0,0c0.7,0.3,1.6,0.5,3.3,0.5l0,0l0,0l0,0l0,0
		c1.7,0,2.7-0.2,3.3-0.5l0,0c0,0,0,0,0.1,0h0.1l0,0c0.1,0,0.2-0.1,0.3-0.2l0,0l0,0c0.3-0.2,0.5-0.4,0.7-0.7c0.1-0.1,0.2-0.2,0.3-0.3
		c1.1-1.4,1.1-3.2,1.1-3.2S45.4,125,45.3,124.2z"/>
	<circle class="st22" cx="34.1" cy="122.9" r="0.3"/>
	<circle class="st22" cx="35.7" cy="129.3" r="0.3"/>
	<path class="st23" d="M45,122.4L45,122.4c-0.2,0-0.5,0.1-1,0.1c0.2,1.2,0.3,4.1-0.7,5.5c-1.4,1.9-5.6,3.6-8.1,2
		c0.1,0.1,0.2,0.2,0.3,0.2l0,0l0,0c0.1,0.1,0.2,0.1,0.3,0.2l0,0h0.1c0,0,0,0,0.1,0l0,0c0.7,0.3,1.6,0.5,3.3,0.5l0,0l0,0l0,0l0,0
		c1.7,0,2.7-0.2,3.3-0.5l0,0c0,0,0,0,0.1,0h0.1l0,0c0.1,0,0.2-0.1,0.3-0.2l0,0l0,0c0.3-0.2,0.5-0.4,0.7-0.7c0.1-0.1,0.2-0.2,0.3-0.3
		c1.1-1.4,1.1-3.2,1.1-3.2s0-1,0-1.8C45.1,122.9,45,122.5,45,122.4L45,122.4C45.2,122.3,45.1,122.4,45,122.4z"/>
	<circle class="st24" cx="42.5" cy="124.9" r="2">
	
		<animate  accumulate="none" additive="replace" attributeName="fill" calcMode="linear" dur="2s" fill="remove" keyTimes="0;0.5;1" repeatCount="indefinite" restart="always" values="#272362;#0052ff;#272362">
		</animate>
	</circle>
	<circle class="st22" cx="44.5" cy="122.9" r="0.3"/>
	<path class="st25" d="M48,121.7c-3.6,0.8-13.9,0.8-17.5,0c0,0-0.6,9.3,4.6,10.7c0,0,2,0.5,4.1,0.5s4.1-0.5,4.1-0.5
		C48.6,131.1,48,121.7,48,121.7z"/>
	<path class="st26" d="M41.2,126.4c0.3,0.3,0.8,0.5,1.3,0.5c1.1,0,2-0.9,2-2c0-0.6-0.2-1.1-0.6-1.4c0.1,0.3,0.7,1.9-0.7,2.9
		C43.2,126.4,42.3,126.8,41.2,126.4z"/>
	<path class="st2" d="M42.5,125.5c-0.3,0-0.6-0.3-0.6-0.6c0-0.3,0.3-0.6,0.6-0.6s0.5,0.2,0.6,0.5h0.6c0-0.6-0.6-1.1-1.2-1.1
		c-0.6,0-1.2,0.5-1.2,1.2c0,0.6,0.5,1.2,1.2,1.2c0.6,0,1.1-0.5,1.2-1.1h-0.6C43,125.3,42.8,125.5,42.5,125.5z"/>
	<circle class="st22" cx="43" cy="129.3" r="0.3"/>
	<path class="st27" d="M47,128.6c-1-0.6-2,1-2,1c-1.5,2.8-4.8,3.3-4.8,3.3l0,0c1.7-0.1,3.1-0.4,3.1-0.4
		C45.3,131.9,46.4,130.4,47,128.6C47.1,128.6,47.1,128.6,47,128.6z"/>
	<path class="st19" d="M49.8,101.2c-1.7-1-19.5-1-21.2,0c0,0-3.9,2-4.2,6.4v5.2c0,0,0.1,4.2,1.5,5.6c1.4,1.5,2.8,2.2,4.9,2.6
		c1.8,0.3,6.2,0.5,8.1,0.5l0,0c0.1,0,0.2,0,0.3,0s0.2,0,0.3,0l0,0c1.9,0,6.3-0.2,8.1-0.5c2-0.4,3.4-1.1,4.9-2.6
		c1.4-1.5,1.5-5.6,1.5-5.6v-5.2C53.8,103.2,49.8,101.2,49.8,101.2z"/>
	<path class="st27" d="M33.4,129.6c0,0-1-1.6-2-1c0.7,1.8,1.8,3.4,3.7,3.8c0,0,1.4,0.3,3,0.4C38.2,132.9,34.9,132.4,33.4,129.6z"/>
	<path class="st28" d="M49.3,118c-0.1,0-0.1,0.1-0.2,0.1c-0.5,0.3-1.3,0.8-3.8,1.1l-5.5,0.1H39l-5.5-0.1c-2.5-0.3-3.3-0.8-3.8-1.1
		c-0.1,0-0.1-0.1-0.2-0.1c-1.7-1.1-1.8-4.3-1.9-4.4v-3.5c0-1.8,0.3-2.3,0.4-2.3l0,0v-0.1c0.4-0.6,1.2-1.1,2-1.4
		c0.1-0.1,0.2-0.1,0.3-0.2c2.5-1.1,7.1-1.3,8.7-1.3h0.8c1.5,0,6.1,0.2,8.7,1.3c0.1,0,0.2,0.1,0.3,0.2c0.7,0.4,1.6,0.8,2,1.4v0.1l0,0
		c0,0.1,0.4,0.5,0.4,2.3v3.5C51.1,113.7,50.9,116.9,49.3,118z"/>
	<path class="st29" d="M49.8,101.2L49.8,101.2l0.5,0.6c0,0,3.3,2.6,2.8,7.4s-1.2,8.4-5,10.5c-3.3,1.9-10.1,1.7-18.1,1.1
		c0.2,0.1,0.5,0.1,0.8,0.2c1.8,0.3,6.2,0.5,8.1,0.5l0,0c0.1,0,0.2,0,0.3,0s0.2,0,0.3,0l0,0c1.9,0,6.3-0.2,8.1-0.5
		c2-0.4,3.4-1.1,4.9-2.6c1.4-1.5,1.5-5.6,1.5-5.6v-5.2C53.8,103.2,49.8,101.2,49.8,101.2z"/>
	<path class="st30" d="M31.6,118.5c0,0-2.5-0.3-2.9-3.1c-0.4-2.8-0.1-6.2-0.1-6.2s0-1.2,2.1-2.1c1.3-0.5,4.7-1.7,9.4-1.6
		c2.9,0.1,7.8,0.2,10.2,2.2c0,0-12.5-3.7-18.5,1.8C31.7,109.5,27.3,113.4,31.6,118.5z"/>
	<path class="st30" d="M46.5,108.2c0,0-13.8-3.1-15.8,6.4c0,0-0.9-5.9,7.9-7.1C38.6,107.5,43.6,107.1,46.5,108.2z"/>
	<path class="st25" d="M49.8,101.2c-1.7-1-19.5-1-21.2,0c0,0-3.9,2-4.2,6.4v5.2c0,0,0.1,4.2,1.5,5.6c1.4,1.5,2.8,2.2,4.9,2.6
		c1.8,0.3,6.2,0.5,8.1,0.5l0,0c0.1,0,0.2,0,0.3,0s0.2,0,0.3,0l0,0c1.9,0,6.3-0.2,8.1-0.5c2-0.4,3.4-1.1,4.9-2.6
		c1.4-1.5,1.5-5.6,1.5-5.6v-5.2C53.8,103.2,49.8,101.2,49.8,101.2z"/>
	<path class="st31" d="M39.3,98.7c-6.9-0.2-10.6,2.2-10.6,2.2s0.4,0.3,0.7,0.7c0.3,0.4,0.6,0.8,1.7,1.3c1.4,0.6,8.2,0.7,8.2,0.7
		s6.8-0.1,8.2-0.7c1.1-0.5,1.4-0.9,1.7-1.3s0.7-0.7,0.7-0.7S46.2,98.6,39.3,98.7z"/>
	<polygon class="st32" points="50,101.3 50,100.9 49.7,101.1 	"/>
	<path class="st19" d="M48.1,100.1c-1.1,0.7-4.8,2.8-8.6,2.8c-4.5,0-10.1-1.4-10.1-1.4s0,0-0.1,0c0.3,0.4,0.6,0.8,1.7,1.3
		c1.4,0.6,8.2,0.7,8.2,0.7s6.8-0.1,8.2-0.7c1.1-0.5,1.4-0.9,1.7-1.3s0.7-0.7,0.7-0.7S49.3,100.5,48.1,100.1z"/>
	<path class="st25" d="M39.3,98.7c-6.9-0.2-10.6,2.2-10.6,2.2s0.4,0.3,0.7,0.7c0.3,0.4,0.6,0.8,1.7,1.3c1.4,0.6,8.2,0.7,8.2,0.7
		s6.8-0.1,8.2-0.7c1.1-0.5,1.4-0.9,1.7-1.3s0.7-0.7,0.7-0.7S46.2,98.6,39.3,98.7z"/>
	
		<linearGradient id="SVGID_1_" gradientUnits="userSpaceOnUse" x1="35.562" y1="1193.0548" x2="59.962" y2="1193.0548" gradientTransform="matrix(1 0 0 1 -8.362 -1081.0548)">
		<stop  offset="0" style="stop-color:#FFFFFF"/>
		<stop  offset="0.9994" style="stop-color:#99AAD1"/>
	</linearGradient>
	<path class="st33" d="M51.6,110.1c0-1.9-0.3-2.5-0.5-2.7c-0.4-0.7-1.4-1.2-2.1-1.6c-0.1-0.1-0.2-0.1-0.3-0.2l0,0
		c-1.3-0.6-3.3-1-5.9-1.2c-1.2-0.1-2.4-0.1-3-0.2l0,0h-0.2c0,0,0,0-0.1,0s-0.1,0-0.1,0H39l0,0c-0.6,0-1.7,0-3,0.2
		c-2.6,0.2-4.6,0.6-5.9,1.2l0,0c-0.1,0-0.2,0.1-0.3,0.2c-0.8,0.4-1.7,0.9-2.1,1.6c-0.2,0.2-0.5,0.7-0.5,2.7v3.5l0,0
		c0,0.1,0.2,3.5,2.1,4.8l0,0c0.1,0,0.1,0.1,0.2,0.1c0.5,0.3,1.4,0.9,4,1.2l5.5,0.1l0,0h0.4h0.4l0,0l5.5-0.1c2.7-0.3,3.5-0.9,4-1.2
		c0.1,0,0.1-0.1,0.2-0.1l0,0c1.9-1.3,2.1-4.6,2.1-4.8l0,0L51.6,110.1z M49.3,118c-0.1,0-0.1,0.1-0.2,0.1c-0.5,0.3-1.3,0.8-3.8,1.1
		l-5.5,0.1H39l-5.5-0.1c-2.5-0.3-3.3-0.8-3.8-1.1c-0.1,0-0.1-0.1-0.2-0.1c-1.7-1.1-1.8-4.3-1.9-4.4v-3.5c0-1.8,0.3-2.3,0.4-2.3l0,0
		v-0.1c0.4-0.6,1.2-1.1,2-1.4c0.1-0.1,0.2-0.1,0.3-0.2c2.5-1.1,7.1-1.3,8.7-1.3h0.8c1.5,0,6.1,0.2,8.7,1.3c0.1,0,0.2,0.1,0.3,0.2
		c0.7,0.4,1.6,0.8,2,1.4v0.1l0,0c0,0.1,0.4,0.5,0.4,2.3v3.5C51.1,113.7,50.9,116.9,49.3,118z"/>
	<circle class="st34" cx="33.4" cy="113.7" r="2.7">
	
		<animate  accumulate="none" additive="replace" attributeName="r" calcMode="linear" dur="2s" fill="remove" keyTimes="0;0.01;0.02;0.98;0.99;1" repeatCount="indefinite" restart="always" values="0;0;2.78;2.78;0;0">
		</animate>
	</circle>
	<circle class="st34" cx="45.2" cy="113.7" r="2.7">
	
		<animate  accumulate="none" additive="replace" attributeName="r" calcMode="linear" dur="2s" fill="remove" keyTimes="0;0.01;0.02;0.98;0.99;1" repeatCount="indefinite" restart="always" values="0;0;2.78;2.78;0;0">
		</animate>
	</circle>
	<circle class="st34" cx="39.3" cy="117.3" r="0.5"/>
	<g>
		<g>
			<path class="st19" d="M27.3,122.7c0,0,1.6,1.2,1.8,1.2c0.2,0,0.6,0.1,0.7,0.1v-0.3l0.4-0.8c0,0,0.1-0.2,0-0.3
				c-0.1-0.1-1.8-1.1-1.8-1.1S28.2,121,28,121c0,0-0.4,0.2-0.6,0.6C27.2,122,27.3,122.7,27.3,122.7z"/>
			<path class="st35" d="M29.9,123.6l-2.6-1.4c0,0.3,0,0.5,0,0.5s1.6,1.2,1.8,1.2c0.2,0,0.6,0.1,0.7,0.1L29.9,123.6L29.9,123.6z"/>
			<path class="st36" d="M28.4,121.2c-0.1-0.1-0.3-0.3-0.5-0.3c0,0-0.4,0.2-0.6,0.6s-0.1,1.1-0.1,1.1l0.2,0.1l0.3-0.3
				C27.8,122.5,28.1,121.7,28.4,121.2z"/>
			<path class="st25" d="M27.3,122.7c0,0,1.6,1.2,1.8,1.2c0.2,0,0.6,0.1,0.7,0.1v-0.3l0.4-0.8c0,0,0.1-0.2,0-0.3
				c-0.1-0.1-1.8-1.1-1.8-1.1S28.2,121,28,121c0,0-0.4,0.2-0.6,0.6C27.2,122,27.3,122.7,27.3,122.7z"/>
		</g>
		<g>
			<path class="st19" d="M51.2,122.7c0,0-1.6,1.2-1.8,1.2s-0.6,0.1-0.7,0.1v-0.3l-0.4-0.8c0,0-0.1-0.2,0-0.3
				c0.1-0.1,1.8-1.1,1.8-1.1s0.4-0.4,0.6-0.4c0,0,0.4,0.2,0.6,0.6C51.3,122,51.2,122.7,51.2,122.7z"/>
			<path class="st35" d="M48.6,123.6l2.6-1.4c0,0.3,0,0.5,0,0.5s-1.6,1.2-1.8,1.2s-0.6,0.1-0.7,0.1L48.6,123.6L48.6,123.6z"/>
			<path class="st36" d="M50.1,121.2c0.1-0.1,0.3-0.3,0.5-0.3c0,0,0.4,0.2,0.6,0.6s0.1,1.1,0.1,1.1l-0.2,0.1l-0.3-0.3
				C50.7,122.5,50.4,121.7,50.1,121.2z"/>
			<path class="st25" d="M51.2,122.7c0,0-1.6,1.2-1.8,1.2s-0.6,0.1-0.7,0.1v-0.3l-0.4-0.8c0,0-0.1-0.2,0-0.3
				c0.1-0.1,1.8-1.1,1.8-1.1s0.4-0.4,0.6-0.4c0,0,0.4,0.2,0.6,0.6C51.3,122,51.2,122.7,51.2,122.7z"/>
		</g>
		<path class="st34" d="M21.4,112.3l3,0.3l0.1,1.7l-3.2-0.4C21.3,113.9,21.3,112.8,21.4,112.3z"/>
		<path class="st34" d="M57,112.3l-3,0.3l-0.1,1.7l3.2-0.4C57.1,113.9,57.2,112.8,57,112.3z"/>
		<path class="st37" d="M21.4,112.8c0,0,0.2-1.9,0.7-2.4c0.5-0.4,1.2-1.4,4-2s8.4,0.1,9.4,0.8c1.1,0.9,1.5,1.6,1.2,4.3
			c-0.3,2.7-1.6,5.1-2.9,5.8c-1.3,0.7-6.9,2.3-9.8,1S21.4,113.3,21.4,112.8z"/>
		<path class="st38" d="M30,110c0,0-0.3,3-5.8,6.8c0,0-1.9,0.9-2-0.3c-0.1-1.2-0.4-4.7,0.8-5.8s2.9-2,5.8-1.9
			C28.8,108.8,30.6,108.6,30,110z"/>
		<path class="st37" d="M57,112.8c0,0-0.2-1.9-0.7-2.4c-0.5-0.4-1.2-1.4-4-2c-2.9-0.6-8.4,0.1-9.4,0.8c-1.1,0.9-1.5,1.6-1.2,4.3
			c0.3,2.7,1.6,5.1,2.9,5.8c1.2,0.7,6.9,2.3,9.8,1C57.2,118.9,57,113.3,57,112.8z"/>
		<path class="st34" d="M56.9,109.8c-0.7-1-3.5-2.3-5.8-2.4s-6.9,0.2-8,0.2c-1,0.1-3.7,0.1-3.7,0.1s-3,0-3.9-0.1
			c-1.1-0.1-5.7-0.2-8-0.2s-5.2,1.3-5.8,2.4c-0.7,1-0.7,4-0.7,4s0.5,5.9,3.4,7.1s9.3-0.5,10.5-1.5s2.5-3.6,3-5.6
			c0.5-1.8,1.3-1.9,1.6-1.9s0.9,0.1,1.3,1.9c0.5,1.9,1.7,4.6,3,5.6c1.2,1,7.7,2.7,10.5,1.5c2.9-1.2,3.4-7.1,3.4-7.1
			S57.5,110.8,56.9,109.8z M36.8,113.5c-0.3,2.7-1.6,5.1-2.9,5.8c-1.2,0.7-6.9,2.3-9.8,1s-2.8-7-2.7-7.5c0,0,0.2-1.9,0.7-2.4
			c0.5-0.4,1.2-1.4,4-2c2.9-0.6,8.4,0.1,9.4,0.8C36.7,110.1,37.2,110.9,36.8,113.5z M40.5,111.5c-0.2-0.1-0.7-0.3-1.2-0.3
			c-0.6,0-1.1,0.1-1.4,0.3c0,0-0.4-2.2-0.7-2.2c0,0,0.4-0.3,2.2-0.3s1.9,0.3,1.9,0.3C40.9,109.3,40.5,111.5,40.5,111.5z M54.2,120.3
			c-2.9,1.4-8.5-0.2-9.8-1c-1.2-0.7-2.6-3.1-2.9-5.8c-0.3-2.7,0.2-3.4,1.2-4.3c1-0.8,6.5-1.4,9.4-0.8c2.9,0.6,3.5,1.6,4,2
			s0.7,2.4,0.7,2.4C57,113.3,57.2,118.9,54.2,120.3z"/>
		<path class="st34" d="M57.5,113.5c0-0.7-0.1-2.9-0.7-3.8c-0.7-1-3.5-2.3-5.8-2.4s-6.9,0.2-8,0.2c-1,0.1-3.7,0.1-3.7,0.1
			s-3,0-3.9-0.1c-1.1-0.1-5.7-0.2-8-0.2s-5.2,1.3-5.8,2.4c-0.5,0.8-0.6,2.7-0.7,3.6c0.1-1.3,0.5-2.9,1.2-3.6c1.4-1.4,4.1-2,7.3-1.9
			c2.2,0,6.2,0.2,8.3,0.3v0.1h1.4c0,0,0,0,0.1,0s0.1,0,0.1,0h1.4v-0.1c2.2-0.1,6.1-0.2,8.3-0.3c3.2-0.1,5.8,0.5,7.3,1.9
			C57.1,110.5,57.4,112.2,57.5,113.5z"/>
		<path class="st38" d="M42.5,115.6c0,0-1.2-3.2-0.2-4.9s2.6-1.9,4.9-2.1c0,0,0.5,0,0,1S46.4,111.9,42.5,115.6z"/>
		
			<animateTransform  accumulate="none" additive="replace" attributeName="transform" calcMode="linear" dur="2s" fill="remove" keyTimes="0;0.05;0.1;0.98;0.99;1" repeatCount="indefinite" restart="always" type="translate" values="0 -1;0 -1;0 1;0 1;0 -1;0 -1">
			</animateTransform>
	</g>
	
		<animateTransform  accumulate="none" additive="replace" attributeName="transform" calcMode="linear" dur="2s" fill="remove" keyTimes="0;0.5;1" repeatCount="indefinite" restart="always" type="translate" values="0 -1;0 1;0 -1">
		</animateTransform>
</g>
<g>
	<rect x="66.4" y="110.7" class="st39" width="153.5" height="33.2"/>
	<text transform="matrix(1 0 0 1 66.3716 117.5803)" class="st34 st10 st40">CO</text>
	<text transform="matrix(1 0 0 1 78.3716 117.5803)" class="st37 st10 st40"> </text>
	<text transform="matrix(1 0 0 1 80.5716 117.5803)" class="st41 st10 st40">will analyze the investment project and </text>
	<text transform="matrix(1 0 0 1 66.3716 127.1803)" class="st41 st10 st40">automatically choose the best solution for </text>
	<text transform="matrix(1 0 0 1 66.3716 136.7803)" class="st41 st10 st40">you</text>
	<text transform="matrix(1 0 0 1 79.2716 137.3476)" class="st41 st42 st40">！</text>
</g>
<line class="st8" x1="10.3" y1="151.1" x2="225.4" y2="151.1"/>
<text transform="matrix(1 0 0 1 23.715 171.8786)" class="st2 st12 st13">Newest stakings</text>
<text transform="matrix(1 0 0 1 23.715 295.9547)" class="st2 st12 st13">DeFi Yield list</text>
<line class="st8" x1="10.3" y1="275.2" x2="225.4" y2="275.2"/>
<rect x="8.1" y="0" class="st43" width="219.5" height="15.2"/>
<path class="st2" d="M29.9,7.7c-0.2,0.2-0.4,0.4-0.6,0.5s-0.5,0.2-0.8,0.2c-0.4,0-0.7-0.1-0.9-0.3c-0.3-0.2-0.5-0.4-0.6-0.7
	c-0.1-0.3-0.2-0.7-0.2-1.1s0.1-0.8,0.2-1.1c0.2-0.3,0.4-0.6,0.7-0.8c0.3-0.2,0.6-0.3,1-0.3c0.6,0,1.1,0.2,1.5,0.7s0.5,1.1,0.5,1.9V7
	c0,1.2-0.2,2.1-0.7,2.7s-1.2,0.8-2.2,0.9h-0.2V9.9h0.2c0.7,0,1.2-0.2,1.5-0.5C29.7,9,29.9,8.4,29.9,7.7z M28.7,7.7
	c0.3,0,0.5-0.1,0.7-0.2c0.2-0.2,0.4-0.4,0.5-0.6V6.6c0-0.5-0.1-0.9-0.3-1.3c-0.2-0.3-0.5-0.5-0.9-0.5c-0.3,0-0.6,0.1-0.8,0.4
	c-0.2,0.3-0.3,0.6-0.3,1.1c0,0.4,0.1,0.8,0.3,1.1C28.1,7.6,28.4,7.7,28.7,7.7z M42.6,7.7c-0.2,0.2-0.4,0.4-0.6,0.5
	c-0.2,0.1-0.5,0.2-0.8,0.2c-0.4,0-0.7-0.1-0.9-0.3c-0.3-0.2-0.5-0.4-0.6-0.7c-0.1-0.3-0.2-0.7-0.2-1.1s0.1-0.8,0.2-1.1
	c0.2-0.3,0.4-0.6,0.7-0.8s0.6-0.3,1-0.3c0.6,0,1.1,0.2,1.5,0.7s0.5,1.1,0.5,1.9V7c0,1.2-0.2,2.1-0.7,2.7s-1.2,0.8-2.2,0.9h-0.2V9.9
	h0.2c0.7,0,1.2-0.2,1.5-0.5C42.4,9,42.5,8.4,42.6,7.7z M41.4,7.7c0.3,0,0.5-0.1,0.7-0.2c0.2-0.2,0.4-0.4,0.5-0.6V6.6
	c0-0.5-0.1-0.9-0.3-1.3c-0.2-0.3-0.5-0.5-0.9-0.5c-0.3,0-0.6,0.1-0.8,0.4s-0.3,0.6-0.3,1.1c0,0.4,0.1,0.8,0.3,1.1
	C40.7,7.6,41,7.7,41.4,7.7z M31.9,10.1c0-0.1,0-0.3,0.1-0.3c0.1-0.1,0.2-0.1,0.4-0.1s0.3,0,0.4,0.1c0.1,0.1,0.1,0.2,0.1,0.3
	s0,0.2-0.1,0.3s-0.2,0.1-0.4,0.1s-0.3,0-0.4-0.1C31.9,10.3,31.9,10.2,31.9,10.1z M31.9,6.3c0-0.1,0-0.3,0.1-0.3
	c0.1-0.1,0.2-0.1,0.4-0.1s0.3,0,0.4,0.1c0.1,0.1,0.1,0.2,0.1,0.3s0,0.2-0.1,0.3c-0.1,0.1-0.2,0.1-0.4,0.1s-0.3,0-0.4-0.1
	C31.9,6.5,31.9,6.4,31.9,6.3z M37.2,10.5h-0.8V5.2l-1.6,0.6V5.1l2.3-0.9h0.1V10.5z"/>
<path class="st2" d="M207.9,4.4h-0.6V3.7h-2.2v0.7h-0.6c-0.1,0-0.3,0.1-0.3,0.1s-0.1,0.2-0.1,0.3v5.6c0,0.3,0.2,0.5,0.5,0.5h3.4
	c0.1,0,0.3-0.1,0.3-0.1c0.1-0.1,0.1-0.2,0.1-0.3V4.9C208.4,4.6,208.2,4.4,207.9,4.4z"/>
<path class="st2" d="M193.4,10.6h7.3V3.3"/>
<path class="st2" d="M188.6,4c-1.5,0-3,0.5-4.3,1.5c1.5,1.9,2.7,3.4,4.3,5.3c1.5-1.9,3-3.8,4.3-5.3C191.7,4.5,190.2,4,188.6,4z"/>
<g>
	<path class="st8" d="M153.3,261.2H19.1c-2.4,0-4.4-2-4.4-4.4v-67.9c0-2.4,2-4.4,4.4-4.4h134.2c2.4,0,4.4,2,4.4,4.4v67.9
		C157.7,259.2,155.7,261.2,153.3,261.2z"/>
	<text transform="matrix(1 0 0 1 23.2018 237.935)" class="st44 st12 st40">5%~15%</text>
	<g>
		<text transform="matrix(1 0 0 1 24.1075 250.0062)" class="st41 st10 st45">APY</text>
	</g>
	<g>
		<text transform="matrix(1 0 0 1 47.8297 214.1427)" class="st41 st10 st45">Polygon</text>
	</g>
	<g>
		<text transform="matrix(1 0 0 1 101.1816 250.0067)" class="st41 st10 st45">Duration</text>
	</g>
	<g>
		<text transform="matrix(0.9238 0 0 1 101.1812 237.9352)" class="st2 st46 st40">30 days</text>
	</g>
	<g>
		<line class="st47" x1="101.3" y1="207.5" x2="103.5" y2="207.7"/>
		<line class="st47" x1="103.5" y1="207.7" x2="105.5" y2="207.8"/>
		<line class="st47" x1="105.5" y1="207.8" x2="107.7" y2="207.8"/>
		<line class="st47" x1="107.7" y1="207.8" x2="109.8" y2="208.1"/>
		<line class="st47" x1="109.8" y1="208.1" x2="112" y2="208.7"/>
		<line class="st47" x1="112" y1="208.7" x2="114.1" y2="209.2"/>
		<line class="st47" x1="114.1" y1="209.2" x2="116.3" y2="211.7"/>
		<line class="st47" x1="116.3" y1="211.7" x2="118.3" y2="207.9"/>
		<line class="st47" x1="118.3" y1="207.9" x2="120.5" y2="199.8"/>
		<line class="st47" x1="120.5" y1="199.8" x2="122.6" y2="204.2"/>
		<line class="st47" x1="122.6" y1="204.2" x2="124.8" y2="206.3"/>
		<line class="st47" x1="124.8" y1="206.3" x2="126.9" y2="207.1"/>
		<line class="st47" x1="126.9" y1="207.1" x2="129.1" y2="205.5"/>
		<line class="st47" x1="129.1" y1="205.5" x2="131.2" y2="207.6"/>
		<line class="st47" x1="131.2" y1="207.6" x2="133.3" y2="207.6"/>
		<line class="st47" x1="133.3" y1="207.6" x2="135.5" y2="207.6"/>
		<line class="st47" x1="135.5" y1="207.6" x2="137.6" y2="215.6"/>
		<line class="st47" x1="137.6" y1="215.6" x2="139.8" y2="208.5"/>
		<line class="st47" x1="139.8" y1="208.5" x2="141.9" y2="209.6"/>
		<line class="st47" x1="141.9" y1="209.6" x2="144" y2="208.9"/>
		<line class="st47" x1="144" y1="208.9" x2="146.1" y2="202.4"/>
		<line class="st47" x1="146.1" y1="202.4" x2="148.3" y2="205.6"/>
	</g>
	<text transform="matrix(1 0 0 1 47.9287 203.6981)" class="st2 st12 st40">MATIC</text>
	<path class="st48" d="M31.8,214.1c4.7,0,8.6-3.8,8.6-8.6c0-4.7-3.8-8.6-8.6-8.6c-4.7,0-8.6,3.8-8.6,8.6S27,214.1,31.8,214.1z"/>
	<path class="st2" d="M34.2,203.9c-0.2-0.1-0.4-0.1-0.6,0l-1.4,0.8l-0.9,0.5l-1.4,0.8c-0.2,0.1-0.4,0.1-0.6,0l-1.1-0.7
		c-0.2-0.1-0.3-0.3-0.3-0.5v-1.3c0-0.2,0.1-0.4,0.3-0.5l1.1-0.6c0.2-0.1,0.4-0.1,0.6,0L31,203c0.2,0.1,0.3,0.3,0.3,0.5v0.8l0.9-0.6
		v-0.8c0-0.2-0.1-0.4-0.3-0.5l-2-1.2c-0.2-0.1-0.4-0.1-0.6,0l-2,1.2c-0.2,0.1-0.3,0.3-0.3,0.5v2.4c0,0.2,0.1,0.4,0.3,0.5l2,1.2
		c0.2,0.1,0.4,0.1,0.6,0l1.4-0.8l0.9-0.6l1.4-0.8c0.2-0.1,0.4-0.1,0.6,0l1.1,0.6c0.2,0.1,0.3,0.3,0.3,0.5v1.3c0,0.2-0.1,0.4-0.3,0.5
		l-1.1,0.7c-0.2,0.1-0.4,0.1-0.6,0l-1.1-0.6c-0.2-0.1-0.3-0.3-0.3-0.5v-0.8l-0.9,0.6v0.8c0,0.2,0.1,0.4,0.3,0.5l2,1.2
		c0.2,0.1,0.4,0.1,0.6,0l2-1.2c0.2-0.1,0.3-0.3,0.3-0.5v-2.4c0-0.2-0.1-0.4-0.3-0.5L34.2,203.9z"/>
	<path class="st8" d="M304.4,261.2H170.2c-2.4,0-4.4-2-4.4-4.4v-67.9c0-2.4,2-4.4,4.4-4.4h134.2c2.4,0,4.4,2,4.4,4.4v67.9
		C308.8,259.2,306.8,261.2,304.4,261.2z"/>
	<text transform="matrix(1 0 0 1 174.3018 237.935)" class="st44 st12 st40">2%~13%</text>
	<g>
		<text transform="matrix(1 0 0 1 175.2076 250.0062)" class="st41 st10 st45">APY</text>
	</g>
	<g>
		<g>
			<text transform="matrix(1 0 0 1 198.9297 214.1427)" class="st41 st10 st45">Cosmos</text>
		</g>
	</g>
	<g>
		<text transform="matrix(1 0 0 1 252.2816 250.0067)" class="st41 st10 st45">Duration</text>
	</g>
	<g>
		<text transform="matrix(0.9238 0 0 1 252.2812 237.9352)" class="st2 st46 st40">15 days</text>
	</g>
	<text transform="matrix(1 0 0 1 199.0287 203.6981)" class="st2 st12 st40">ATOM</text>
	<path class="st49" d="M182.6,196.9c4.8,0,8.7,3.9,8.7,8.7s-3.9,8.7-8.7,8.7s-8.7-3.9-8.7-8.7C173.9,200.8,177.8,196.9,182.6,196.9z
		"/>
	<path class="st50" d="M182.5,200.6c2.8,0,5,2.2,5,5s-2.2,5-5,5s-5-2.2-5-5S179.8,200.6,182.5,200.6z"/>
	<path class="st51" d="M182.7,198.4c-0.1-0.1-0.1-0.1-0.1-0.1s0,0-0.1,0.1s-0.2,0.2-0.2,0.4c-0.2,0.3-0.4,0.9-0.5,1.5
		c-0.2,0.8-0.3,1.7-0.4,2.7c0.4,0.2,0.8,0.4,1.2,0.6c0.4-0.2,0.8-0.4,1.2-0.6c-0.1-1-0.2-2-0.4-2.7c-0.1-0.7-0.3-1.2-0.5-1.5
		C182.8,198.6,182.8,198.4,182.7,198.4z M182.2,203.8c-0.3-0.2-0.6-0.3-0.9-0.5c0,0.3,0,0.7-0.1,1c0.2-0.1,0.3-0.2,0.5-0.3
		C181.9,204,182.1,203.9,182.2,203.8z M181,202.8c0.2-2.8,0.9-4.9,1.6-4.9c0.7,0,1.3,2,1.6,4.9c2.6-1.2,4.6-1.7,5-1.1
		c0.4,0.6-1.1,2.2-3.4,3.8c2.3,1.6,3.8,3.2,3.4,3.8c-0.4,0.6-2.4,0.1-5-1.1c-0.2,2.8-0.9,4.9-1.6,4.9c-0.7,0-1.3-2-1.6-4.9
		c-2.6,1.2-4.6,1.7-5,1.1c-0.4-0.6,1.1-2.2,3.4-3.8c-2.3-1.6-3.8-3.2-3.4-3.8S178.4,201.6,181,202.8z M179.7,205.4
		c-0.9-0.6-1.6-1.2-2.2-1.7c-0.5-0.5-0.9-0.9-1.1-1.2c-0.1-0.2-0.2-0.3-0.2-0.4c0-0.1,0-0.1,0-0.1s0,0,0.1-0.1c0.1,0,0.2,0,0.4,0
		c0.4,0,0.9,0.1,1.6,0.3c0.7,0.2,1.6,0.6,2.5,1c0,0.4-0.1,0.9-0.1,1.4C180.5,204.8,180.1,205.1,179.7,205.4z M179.7,205.8
		c-0.9,0.6-1.6,1.2-2.2,1.7c-0.5,0.5-0.9,0.9-1.1,1.2c-0.1,0.2-0.2,0.3-0.2,0.4c0,0.1,0,0.1,0,0.1s0,0,0.1,0.1c0.1,0,0.2,0,0.4,0
		c0.4,0,0.9-0.1,1.6-0.3c0.7-0.2,1.6-0.6,2.5-1c0-0.4-0.1-0.9-0.1-1.4C180.5,206.3,180.1,206,179.7,205.8z M180.9,206.1
		c-0.3-0.2-0.6-0.4-0.9-0.6c0.3-0.2,0.6-0.4,0.9-0.6c0,0.2,0,0.4,0,0.6C180.9,205.7,180.9,205.9,180.9,206.1z M181.2,206.3
		c0-0.3,0-0.5,0-0.8s0-0.5,0-0.8c0.2-0.1,0.4-0.3,0.7-0.4c0.2-0.1,0.5-0.3,0.7-0.4c0.2,0.1,0.4,0.2,0.7,0.4c0.2,0.1,0.4,0.3,0.7,0.4
		c0,0.3,0,0.5,0,0.8s0,0.5,0,0.8c-0.2,0.1-0.4,0.3-0.7,0.4c-0.2,0.1-0.5,0.3-0.7,0.4c-0.2-0.1-0.4-0.2-0.7-0.4
		C181.7,206.6,181.5,206.5,181.2,206.3z M181.3,206.7c0,0.4,0,0.7,0.1,1c0.3-0.1,0.6-0.3,0.9-0.5c-0.2-0.1-0.3-0.2-0.5-0.3
		C181.6,206.9,181.4,206.8,181.3,206.7z M182.6,207.5c-0.4,0.2-0.8,0.4-1.2,0.6c0.1,1,0.2,2,0.4,2.7c0.1,0.7,0.3,1.2,0.5,1.5
		c0.1,0.2,0.2,0.3,0.2,0.4c0.1,0.1,0.1,0.1,0.1,0.1s0,0,0.1-0.1s0.2-0.2,0.2-0.4c0.2-0.3,0.4-0.9,0.5-1.5c0.2-0.8,0.3-1.7,0.4-2.7
		C183.4,207.9,183,207.7,182.6,207.5z M184.2,207.9c0.9,0.4,1.8,0.8,2.5,1s1.2,0.3,1.6,0.3c0.2,0,0.3,0,0.4,0c0.1,0,0.1-0.1,0.1-0.1
		s0,0,0-0.1s-0.1-0.2-0.2-0.4c-0.2-0.3-0.6-0.7-1.1-1.2c-0.6-0.5-1.3-1.1-2.2-1.7c-0.4,0.3-0.8,0.5-1.2,0.8
		C184.2,207,184.2,207.5,184.2,207.9z M185.4,205.4c0.9-0.6,1.6-1.2,2.2-1.7c0.5-0.5,0.9-0.9,1.1-1.2c0.1-0.2,0.2-0.3,0.2-0.4
		c0-0.1,0-0.1,0-0.1s0,0-0.1-0.1c-0.1,0-0.2,0-0.4,0c-0.4,0-0.9,0.1-1.6,0.3c-0.7,0.2-1.6,0.6-2.5,1c0,0.4,0.1,0.9,0.1,1.4
		C184.7,204.8,185.1,205.1,185.4,205.4z M184.3,205c0.3,0.2,0.6,0.4,0.9,0.6c-0.3,0.2-0.6,0.4-0.9,0.6c0-0.2,0-0.4,0-0.6
		S184.3,205.2,184.3,205z M183.9,204.4c0-0.4,0-0.7-0.1-1c-0.3,0.1-0.6,0.3-0.9,0.5c0.2,0.1,0.3,0.2,0.5,0.3
		C183.6,204.2,183.8,204.3,183.9,204.4z M183.9,207.8c-0.3-0.1-0.6-0.3-0.9-0.5c0.2-0.1,0.3-0.2,0.5-0.3s0.3-0.2,0.5-0.3
		C183.9,207.1,183.9,207.4,183.9,207.8z"/>
	<path class="st52" d="M177.7,203.4c0.3,0,0.5,0.2,0.5,0.5s-0.2,0.5-0.5,0.5s-0.5-0.2-0.5-0.5C177.2,203.7,177.4,203.4,177.7,203.4z
		"/>
	<path class="st52" d="M186.2,201.6c0.3,0,0.5,0.2,0.5,0.5s-0.2,0.5-0.5,0.5s-0.5-0.2-0.5-0.5S185.9,201.6,186.2,201.6z"/>
	<path class="st52" d="M181.5,210c0.3,0,0.5,0.2,0.5,0.5s-0.2,0.5-0.5,0.5s-0.5-0.2-0.5-0.5S181.2,210,181.5,210z"/>
	<path class="st52" d="M182.6,204.7c0.5,0,0.9,0.4,0.9,0.9s-0.4,0.9-0.9,0.9s-0.9-0.4-0.9-0.9S182.1,204.7,182.6,204.7z"/>
	<g>
		<line class="st47" x1="253.1" y1="203.3" x2="255.2" y2="199.9"/>
		<line class="st47" x1="255.2" y1="199.9" x2="257.3" y2="202.7"/>
		<line class="st47" x1="257.3" y1="202.7" x2="259.5" y2="204.6"/>
		<line class="st47" x1="259.5" y1="204.6" x2="261.6" y2="205.2"/>
		<line class="st47" x1="261.6" y1="205.2" x2="263.7" y2="205.6"/>
		<line class="st47" x1="263.7" y1="205.6" x2="265.8" y2="204.6"/>
		<line class="st47" x1="265.8" y1="204.6" x2="267.9" y2="206.2"/>
		<line class="st47" x1="267.9" y1="206.2" x2="270" y2="201.9"/>
		<line class="st47" x1="270" y1="201.9" x2="272.1" y2="199.3"/>
		<line class="st47" x1="272.1" y1="199.3" x2="274.2" y2="202.2"/>
		<line class="st47" x1="274.2" y1="202.2" x2="276.3" y2="203.1"/>
		<line class="st47" x1="276.3" y1="203.1" x2="278.4" y2="204.1"/>
		<line class="st47" x1="278.4" y1="204.1" x2="280.5" y2="202.7"/>
		<line class="st47" x1="280.5" y1="202.7" x2="282.6" y2="206.6"/>
		<line class="st47" x1="282.6" y1="206.6" x2="284.7" y2="207.4"/>
		<line class="st47" x1="284.7" y1="207.4" x2="286.8" y2="207"/>
		<line class="st47" x1="286.8" y1="207" x2="288.9" y2="215.9"/>
		<line class="st47" x1="288.9" y1="215.9" x2="291" y2="209"/>
		<line class="st47" x1="291" y1="209" x2="293.1" y2="211"/>
		<line class="st47" x1="293.1" y1="211" x2="295.2" y2="209.2"/>
		<line class="st47" x1="295.2" y1="209.2" x2="297.3" y2="209.3"/>
		<line class="st47" x1="297.3" y1="209.3" x2="299.4" y2="211.1"/>
	</g>
	<path class="st8" d="M456.1,261.2H321.9c-2.4,0-4.4-2-4.4-4.4v-67.9c0-2.4,2-4.4,4.4-4.4h134.2c2.4,0,4.4,2,4.4,4.4v67.9
		C460.5,259.2,458.5,261.2,456.1,261.2z"/>
	<text transform="matrix(1 0 0 1 325.9907 237.935)" class="st44 st12 st40">1%~7%</text>
	<g>
		<text transform="matrix(1 0 0 1 326.8964 250.0062)" class="st41 st10 st45">APY</text>
	</g>
	<g>
		<g>
			<text transform="matrix(1 0 0 1 350.6185 214.1427)" class="st41 st10 st45">Binance USD</text>
		</g>
	</g>
	<g>
		<text transform="matrix(1 0 0 1 403.9704 250.0067)" class="st41 st10 st45">Duration</text>
	</g>
	<g>
		<text transform="matrix(0.9238 0 0 1 403.9697 237.9352)" class="st2 st46 st40">7 days</text>
	</g>
	<text transform="matrix(1 0 0 1 350.7175 203.6981)" class="st2 st12 st40">BUSD</text>
	<g>
		<g>
			<g>
				<g>
					<g>
						<defs>
							<rect id="SVGID_00000054948735382747211480000017145132958303472527_" x="325.6" y="197" width="17.2" height="17.2"/>
						</defs>
						<clipPath id="SVGID_00000093178344880737352860000008992250755791146919_">
							<use xlink:href="#SVGID_00000054948735382747211480000017145132958303472527_"  style="overflow:visible;"/>
						</clipPath>
						<g style="clip-path:url(#SVGID_00000093178344880737352860000008992250755791146919_);">
							<path class="st54" d="M334.2,214.2c4.7,0,8.6-3.8,8.6-8.6c0-4.7-3.8-8.6-8.6-8.6c-4.7,0-8.6,3.8-8.6,8.6
								C325.6,210.3,329.4,214.2,334.2,214.2z"/>
							<path class="st55" d="M334.2,200.2l1.3,1.4l-3.3,3.3l-1.3-1.3L334.2,200.2z"/>
							<path class="st56" d="M334.2,200.2l1.3,1.4l-3.4,3.4l-1.3-1.3L334.2,200.2z M330.9,203.6l1.3,1.3l3.3-3.3l-1.3-1.3
								L330.9,203.6z"/>
							<path class="st55" d="M336.2,202.2l1.3,1.4l-5.4,5.3l-1.3-1.3L336.2,202.2z"/>
							<path class="st56" d="M336.2,202.2l1.3,1.4l-5.4,5.4l-1.3-1.3L336.2,202.2z M330.9,207.6l1.3,1.3l5.3-5.3l-1.3-1.3
								L330.9,207.6z"/>
							<path class="st55" d="M330.2,204.2l1.3,1.4l-1.3,1.3l-1.3-1.3L330.2,204.2z"/>
							<path class="st56" d="M330.2,204.2l1.3,1.4l-1.3,1.3l-1.3-1.3L330.2,204.2z M328.9,205.6l1.3,1.3l1.3-1.3l-1.3-1.3
								L328.9,205.6z"/>
							<path class="st55" d="M338.2,204.2l1.3,1.4l-5.3,5.3l-1.3-1.3L338.2,204.2z"/>
							<path class="st56" d="M338.2,204.2l1.3,1.4l-5.4,5.4l-1.3-1.3L338.2,204.2z M332.9,209.6l1.3,1.3l5.3-5.3l-1.3-1.3
								L332.9,209.6z"/>
						</g>
					</g>
				</g>
			</g>
		</g>
	</g>
	<g>
		<line class="st47" x1="406.2" y1="205.6" x2="408.3" y2="206.9"/>
		<line class="st47" x1="408.3" y1="206.9" x2="410.4" y2="206.3"/>
		<line class="st47" x1="410.4" y1="206.3" x2="412.5" y2="202.7"/>
		<line class="st47" x1="412.5" y1="202.7" x2="414.5" y2="206"/>
		<line class="st47" x1="414.5" y1="206" x2="416.6" y2="200.9"/>
		<line class="st47" x1="416.6" y1="200.9" x2="418.7" y2="204.5"/>
		<line class="st47" x1="418.7" y1="204.5" x2="420.7" y2="204.6"/>
		<line class="st47" x1="420.7" y1="204.6" x2="422.8" y2="206.4"/>
		<line class="st47" x1="422.8" y1="206.4" x2="424.9" y2="213"/>
		<line class="st47" x1="424.9" y1="213" x2="427" y2="206.3"/>
		<line class="st47" x1="427" y1="206.3" x2="429" y2="199.7"/>
		<line class="st47" x1="429" y1="199.7" x2="431.1" y2="206.5"/>
		<line class="st47" x1="431.1" y1="206.5" x2="433.2" y2="206.1"/>
		<line class="st47" x1="433.2" y1="206.1" x2="435.2" y2="206.2"/>
		<line class="st47" x1="435.2" y1="206.2" x2="437.3" y2="208.4"/>
		<line class="st47" x1="437.3" y1="208.4" x2="439.4" y2="203.1"/>
		<line class="st47" x1="439.4" y1="203.1" x2="441.5" y2="212.2"/>
		<line class="st47" x1="441.5" y1="212.2" x2="443.5" y2="209"/>
		<line class="st47" x1="443.5" y1="209" x2="445.6" y2="204.8"/>
		<line class="st47" x1="445.6" y1="204.8" x2="447.7" y2="205.7"/>
		<line class="st47" x1="447.7" y1="205.7" x2="449.8" y2="199"/>
		<line class="st47" x1="449.8" y1="199" x2="451.8" y2="208.4"/>
	</g>
	<path class="st8" d="M608.7,261.2H474.5c-2.4,0-4.4-2-4.4-4.4v-67.9c0-2.4,2-4.4,4.4-4.4h134.2c2.4,0,4.4,2,4.4,4.4v67.9
		C613.1,259.2,611.1,261.2,608.7,261.2z"/>
	<text transform="matrix(1 0 0 1 478.5521 237.935)" class="st44 st12 st40">11%~82%</text>
	<g>
		<text transform="matrix(1 0 0 1 479.4578 250.0062)" class="st41 st10 st45">APY</text>
	</g>
	<g>
		<g>
			<text transform="matrix(1 0 0 1 503.1799 214.1427)" class="st41 st10 st45">Aave</text>
		</g>
	</g>
	<g>
		<text transform="matrix(1 0 0 1 556.5319 250.0067)" class="st41 st10 st45">Duration</text>
	</g>
	<g>
		<text transform="matrix(0.9238 0 0 1 556.5312 237.9352)" class="st2 st46 st40">180 days</text>
	</g>
	<text transform="matrix(1 0 0 1 503.2789 203.6981)" class="st2 st12 st40">AAVE</text>
	<g>
		<g>
			<line class="st57" x1="558.7" y1="204.2" x2="560.9" y2="203.7"/>
			<line class="st57" x1="560.9" y1="203.7" x2="563" y2="203.6"/>
			<line class="st57" x1="563" y1="203.6" x2="565.2" y2="204"/>
			<line class="st57" x1="565.2" y1="204" x2="567.4" y2="202.9"/>
			<line class="st57" x1="567.4" y1="202.9" x2="569.5" y2="204"/>
			<line class="st57" x1="569.5" y1="204" x2="571.7" y2="204.1"/>
			<line class="st57" x1="571.7" y1="204.1" x2="573.9" y2="204.3"/>
			<line class="st57" x1="573.9" y1="204.3" x2="576" y2="205.1"/>
			<line class="st57" x1="576" y1="205.1" x2="578.2" y2="204.5"/>
			<line class="st57" x1="578.2" y1="204.5" x2="580.4" y2="197.7"/>
			<line class="st57" x1="580.4" y1="197.7" x2="582.5" y2="199.4"/>
			<line class="st57" x1="582.5" y1="199.4" x2="584.7" y2="201.6"/>
			<line class="st57" x1="584.7" y1="201.6" x2="586.9" y2="203.6"/>
			<line class="st57" x1="586.9" y1="203.6" x2="589" y2="202.1"/>
			<line class="st57" x1="589" y1="202.1" x2="591.2" y2="204.8"/>
			<line class="st57" x1="591.2" y1="204.8" x2="593.4" y2="205.4"/>
			<line class="st57" x1="593.4" y1="205.4" x2="595.5" y2="205.3"/>
			<line class="st57" x1="595.5" y1="205.3" x2="597.7" y2="213"/>
			<line class="st57" x1="597.7" y1="213" x2="599.9" y2="209.4"/>
			<line class="st57" x1="599.9" y1="209.4" x2="602" y2="209.1"/>
			<line class="st57" x1="602" y1="209.1" x2="604.2" y2="206"/>
			<line class="st57" x1="604.2" y1="206" x2="606.4" y2="206"/>
		</g>
	</g>
	
		<linearGradient id="SVGID_00000056412596560756295840000002007079050414230690_" gradientUnits="userSpaceOnUse" x1="493.1469" y1="-474.2685" x2="480.3581" y2="-485.029" gradientTransform="matrix(1 0 0 -1 0 -274.1102)">
		<stop  offset="0" style="stop-color:#B6509E"/>
		<stop  offset="1" style="stop-color:#2EBAC6"/>
	</linearGradient>
	<path style="fill:url(#SVGID_00000056412596560756295840000002007079050414230690_);" d="M486.7,214.2c4.7,0,8.6-3.8,8.6-8.6
		c0-4.7-3.8-8.6-8.6-8.6s-8.6,3.8-8.6,8.6C478.2,210.3,482,214.2,486.7,214.2z"/>
	<path class="st2" d="M490.5,209l-2.9-7c-0.2-0.4-0.4-0.5-0.7-0.5h-0.3c-0.3,0-0.6,0.2-0.7,0.5l-1.3,3.1h-1c-0.3,0-0.5,0.2-0.5,0.5
		l0,0c0,0.3,0.2,0.5,0.5,0.5h0.5L483,209c0,0.1,0,0.1,0,0.2c0,0.2,0.1,0.3,0.1,0.4s0.2,0.1,0.4,0.1c0.1,0,0.2,0,0.3-0.1
		c0.1-0.1,0.2-0.2,0.2-0.3l1.3-3.3h0.9c0.3,0,0.5-0.2,0.5-0.5l0,0c0-0.3-0.2-0.5-0.5-0.5h-0.5l1-2.5l2.8,6.9
		c0.1,0.1,0.1,0.2,0.2,0.3s0.2,0.1,0.3,0.1c0.2,0,0.3,0,0.4-0.1s0.1-0.2,0.1-0.4C490.5,209.1,490.5,209,490.5,209z"/>
	
		<animateTransform  accumulate="none" additive="replace" attributeName="transform" calcMode="linear" dur="60s" fill="remove" keyTimes="0;0.5;1" repeatCount="indefinite" restart="always" type="translate" values="1 0;-390 0;1 0;" xmlns="http://www.w3.org/2000/svg">
		</animateTransform>
</g>
<line class="st8" x1="10.3" y1="306.5" x2="225.4" y2="306.5"/>
<line class="st8" x1="10.3" y1="331.5" x2="225.4" y2="331.5"/>
<line class="st8" x1="10.3" y1="428.9" x2="225.4" y2="428.9"/>
<line class="st8" x1="10.3" y1="331.5" x2="225.4" y2="331.5"/>
<line class="st8" x1="10.3" y1="331.5" x2="225.4" y2="331.5"/>
<line class="st8" x1="10.3" y1="396.4" x2="225.4" y2="396.4"/>
<line class="st8" x1="10.3" y1="363.9" x2="225.4" y2="363.9"/>
<g>
	<text transform="matrix(1 0 0 1 53.339 323.0415)" class="st2 st10 st59">Token</text>
	<text transform="matrix(1 0 0 1 108.377 323.0415)" class="st2 st10 st59">Fund Type</text>
	<text transform="matrix(1 0 0 1 160.9904 323.0415)" class="st2 st10 st59">Risk profiles</text>
	<text transform="matrix(1 0 0 1 229.2468 323.0417)" class="st2 st10 st59">APY</text>
	<text transform="matrix(1 0 0 1 272.3477 323.0417)" class="st2 st10 st59">Staking Term</text>
	<g>
		<path class="st60" d="M39.3,356.5c4.7,0,8.6-3.8,8.6-8.6c0-4.7-3.8-8.6-8.6-8.6c-4.7,0-8.6,3.8-8.6,8.6
			C30.7,352.6,34.5,356.5,39.3,356.5z"/>
		<g>
			<g>
				<g>
					<g>
						<g>
							<defs>
								<rect id="SVGID_00000031202697632141403740000004127795819831506833_" x="32.9" y="341.9" width="12.6" height="12.1"/>
							</defs>
							<clipPath id="SVGID_00000057867184753406574330000001423033975102416026_">
								<use xlink:href="#SVGID_00000031202697632141403740000004127795819831506833_"  style="overflow:visible;"/>
							</clipPath>
							<g style="clip-path:url(#SVGID_00000057867184753406574330000001423033975102416026_);">
								<path class="st2" d="M39.1,341.9c0.3-0.1,0.6,0.2,0.5,0.5c-0.1,0.2-0.4,0.3-0.6,0.1C38.8,342.3,38.9,342,39.1,341.9z
									 M36.1,342.2c0.2-0.1,0.4,0.1,0.4,0.3c0,0.2-0.2,0.4-0.4,0.3C35.9,342.7,35.9,342.3,36.1,342.2L36.1,342.2z M42.2,342.8
									c-0.3,0-0.3-0.5-0.1-0.5c0.2-0.1,0.4,0.1,0.4,0.3C42.5,342.7,42.4,342.8,42.2,342.8z M36.8,343.5c0.3-0.2,0.7,0.1,0.6,0.4
									c0,0.3-0.5,0.5-0.7,0.3C36.5,344.1,36.6,343.7,36.8,343.5z M41.1,343.7c0.1-0.3,0.6-0.3,0.8,0c0.1,0.3,0,0.6-0.3,0.7
									C41.3,344.4,40.9,344.1,41.1,343.7z M38.8,344.3c0-0.3,0.2-0.5,0.5-0.5c0.2,0,0.4,0.1,0.4,0.3c0.1,0.3,0,0.6-0.2,0.7
									c-0.1,0.1-0.3,0-0.4,0C38.9,344.8,38.7,344.6,38.8,344.3L38.8,344.3z M34.3,344.8c0.3-0.2,0.6,0.1,0.5,0.4
									c-0.1,0.2-0.4,0.3-0.6,0.2C34.1,345.2,34.1,344.9,34.3,344.8L34.3,344.8z M43.8,344.8c0.2-0.2,0.6,0,0.5,0.3
									c0,0.3-0.3,0.5-0.5,0.3C43.6,345.3,43.6,344.9,43.8,344.8L43.8,344.8z M40,345.3c0.4-0.1,0.8,0,1,0.4c0.3,0.4,0.1,1-0.3,1.3
									c-0.4,0.3-1.1,0-1.2-0.5C39.3,346,39.6,345.4,40,345.3L40,345.3z M37.9,345.3c0.4-0.2,0.9,0,1.1,0.4c0.2,0.4,0.1,1-0.4,1.2
									c-0.4,0.2-1,0.1-1.2-0.4C37.3,346.1,37.5,345.5,37.9,345.3L37.9,345.3z M35.8,346.1c0-0.3,0.3-0.4,0.5-0.5
									c0.3,0,0.5,0.2,0.5,0.5s-0.2,0.5-0.5,0.5C36,346.7,35.7,346.4,35.8,346.1L35.8,346.1z M42,345.7c0.3-0.2,0.8,0.1,0.7,0.5
									c0,0.4-0.5,0.7-0.8,0.4C41.6,346.4,41.7,345.8,42,345.7L42,345.7z M37,347.1c0.4-0.1,0.8,0.1,1,0.4c0.2,0.4,0.1,0.8-0.2,1.1
									c-0.4,0.4-1.1,0.2-1.3-0.3C36.3,347.8,36.5,347.2,37,347.1L37,347.1z M41,347.1c0.4-0.1,0.8,0,1,0.4c0.3,0.4,0.1,1-0.2,1.2
									c-0.4,0.3-1,0.1-1.2-0.3C40.3,347.9,40.5,347.2,41,347.1L41,347.1z M34.7,347.5c0.3-0.1,0.7,0.2,0.5,0.6
									c-0.1,0.3-0.5,0.4-0.7,0.2C34.3,348,34.4,347.6,34.7,347.5L34.7,347.5z M43.3,348c0-0.3,0.2-0.5,0.5-0.5
									c0.2,0,0.4,0.2,0.4,0.5s-0.4,0.5-0.6,0.4C43.4,348.2,43.3,348.1,43.3,348L43.3,348z M33.1,347.7c0.2-0.1,0.4,0.1,0.4,0.3
									c0,0.2-0.4,0.3-0.5,0.1C32.9,348,33,347.7,33.1,347.7z M45.2,347.7c0.1-0.1,0.4,0,0.4,0.1c0.1,0.2-0.1,0.4-0.3,0.4
									C45,348.2,44.9,347.8,45.2,347.7z M38.1,348.8c0.5-0.1,1,0.3,1,0.8s-0.5,1-1,0.9c-0.4-0.1-0.7-0.5-0.7-0.9
									C37.4,349.3,37.7,348.9,38.1,348.8z M40.1,348.8c0.5-0.1,1.1,0.3,1.1,0.8s-0.5,1-1,0.9s-0.8-0.6-0.7-1.1
									C39.5,349.2,39.8,348.9,40.1,348.8L40.1,348.8z M36.2,349.2c0.4-0.1,0.7,0.3,0.5,0.7c-0.1,0.4-0.6,0.5-0.9,0.2
									C35.6,349.7,35.8,349.2,36.2,349.2z M42.1,349.2c0.3-0.1,0.7,0.1,0.7,0.5s-0.5,0.7-0.8,0.4
									C41.6,349.9,41.7,349.3,42.1,349.2L42.1,349.2z M43.7,350.9c-0.1-0.2,0.1-0.6,0.4-0.5c0.1,0,0.2,0.1,0.3,0.2
									c0,0.1,0,0.3-0.1,0.4C44.1,351.2,43.8,351.1,43.7,350.9z M34.3,350.4c0.2-0.2,0.6,0.1,0.5,0.4c0,0.3-0.3,0.4-0.5,0.3
									C34.1,350.9,34.1,350.6,34.3,350.4L34.3,350.4z M39.1,351c0.3-0.1,0.7,0.1,0.7,0.5s-0.5,0.7-0.8,0.4
									C38.6,351.7,38.7,351.1,39.1,351L39.1,351z M36.9,351.5c0.3-0.1,0.6,0.1,0.6,0.4s-0.2,0.5-0.5,0.4c-0.2,0-0.3-0.2-0.4-0.4
									C36.6,351.8,36.7,351.6,36.9,351.5L36.9,351.5z M41.3,351.5c0.3-0.2,0.7,0.1,0.6,0.4c0,0.3-0.4,0.6-0.7,0.3
									C41,352.1,41,351.7,41.3,351.5z M42.1,353.5c-0.1-0.2,0-0.4,0.2-0.5c0.2,0,0.3,0.2,0.3,0.3
									C42.6,353.6,42.2,353.7,42.1,353.5L42.1,353.5z M36,353.3c0-0.2,0.2-0.3,0.3-0.3c0.3,0,0.3,0.4,0.1,0.5
									C36.2,353.7,36,353.5,36,353.3L36,353.3z M38.9,353.5c0-0.2,0.3-0.3,0.5-0.2c0.1,0.1,0.2,0.2,0.2,0.3c0,0.1,0,0.1,0,0.2
									c-0.1,0.1-0.2,0.2-0.3,0.2C39,354,38.8,353.7,38.9,353.5z"/>
							</g>
						</g>
					</g>
				</g>
			</g>
		</g>
	</g>
	<g>
		<g>
			<g>
				<g>
					<g>
						<defs>
							<rect id="SVGID_00000055703005077479037030000011328827315416510338_" x="21" y="339.3" width="17.1" height="17.1"/>
						</defs>
						<clipPath id="SVGID_00000080195263677775842760000010136963407273573807_">
							<use xlink:href="#SVGID_00000055703005077479037030000011328827315416510338_"  style="overflow:visible;"/>
						</clipPath>
						<g style="clip-path:url(#SVGID_00000080195263677775842760000010136963407273573807_);">
							<path class="st52" d="M29.6,356.5c4.7,0,8.6-3.8,8.6-8.6c0-4.7-3.8-8.6-8.6-8.6c-4.7,0-8.6,3.8-8.6,8.6
								C21,352.6,24.9,356.5,29.6,356.5z"/>
							
								<linearGradient id="SVGID_00000110472514439838101350000009471643103775105705_" gradientUnits="userSpaceOnUse" x1="32.2067" y1="-618.2599" x2="28.9038" y2="-626.6863" gradientTransform="matrix(1 0 0 -1 0 -274.1102)">
								<stop  offset="0" style="stop-color:#03D1CF;stop-opacity:0.988"/>
								<stop  offset="1" style="stop-color:#4E09F8"/>
							</linearGradient>
							<path style="fill:url(#SVGID_00000110472514439838101350000009471643103775105705_);" d="M34.9,350.8l-5.3-7.7l-5.3,7.7h7.4
								l-2.1-3l-1,1.5h-1.1l2.1-3.1l3.1,4.5L34.9,350.8z"/>
							<path class="st64" d="M29.6,356.2c4.6,0,8.3-3.7,8.3-8.3c0-4.6-3.7-8.3-8.3-8.3s-8.3,3.7-8.3,8.3
								C21.3,352.5,25,356.2,29.6,356.2z M38.1,347.9c0,4.7-3.8,8.6-8.6,8.6c-4.7,0-8.6-3.8-8.6-8.6c0-4.7,3.8-8.6,8.6-8.6
								S38.1,343.2,38.1,347.9z"/>
						</g>
					</g>
				</g>
			</g>
		</g>
	</g>
	<text transform="matrix(1 0 0 1 51.7388 351.1319)" class="st65 st10 st59">GMS/ADA</text>
	<text transform="matrix(1 0 0 1 112.9402 350.188)" class="st65 st10 st59">Liquidity</text>
	<text transform="matrix(1 0 0 1 165.3821 350.1872)" class="st65 st10 st59">High Yield</text>
	<g>
		<text transform="matrix(1 0 0 1 219.9581 350.7099)" class="st44 st12 st40">11%~17%</text>
	</g>
	<text transform="matrix(1 0 0 1 282.3733 350.2006)" class="st65 st10 st59">15 days</text>
	<g>
		<path class="st66" d="M47.6,382.2c-1.1,4.6-5.8,7.4-10.4,6.2c-4.6-1.1-7.4-5.8-6.2-10.4c1.1-4.6,5.8-7.4,10.4-6.2
			C45.9,373,48.7,377.6,47.6,382.2z"/>
		<path class="st52" d="M43.3,379.1c0.2-1.1-0.7-1.8-1.9-2.2l0.4-1.5l-0.9-0.2l-0.4,1.5c-0.2-0.1-0.5-0.1-0.8-0.2l0.4-1.5l-0.9-0.2
			l-0.4,1.5c-0.2,0-0.4-0.1-0.6-0.1l0,0l-1.3-0.3l-0.2,1l0.7,0.2c0.4,0.1,0.4,0.3,0.4,0.5c-0.4,1.4-0.7,2.8-1.1,4.2
			c0,0.1-0.2,0.3-0.4,0.2l-0.7-0.2l-0.5,1.1l1.2,0.3c0.1,0,0.3,0.1,0.4,0.1l0,0c0.1,0,0.2,0,0.3,0.1l-0.4,1.6l0.9,0.2l0.4-1.5
			c0.3,0.1,0.5,0.1,0.7,0.2l-0.4,1.5l0.9,0.2l0.4-1.6c1.6,0.3,2.8,0.2,3.3-1.3c0.4-1.2,0-1.8-0.9-2.3
			C42.8,380.3,43.2,379.9,43.3,379.1z M41.2,382.1c-0.3,1.1-1.9,0.6-2.7,0.4l0,0c-0.1,0-0.1,0-0.2,0l0.5-2.1c0.1,0,0.1,0,0.2,0.1
			C39.8,380.6,41.5,381,41.2,382.1z M39.2,379.5c0.6,0.2,2,0.5,2.3-0.4c0.2-1-1.1-1.3-1.8-1.4c-0.1,0-0.1,0-0.2,0l-0.5,1.9
			C39.1,379.5,39.2,379.5,39.2,379.5z"/>
	</g>
	<text transform="matrix(1 0 0 1 51.7388 383.3663)" class="st65 st10 st59">HT/BTC</text>
	<text transform="matrix(1 0 0 1 118.4548 382.4224)" class="st65 st10 st59">Swap</text>
	<g>
		<path class="st2" d="M33.7,407.3h10.9v10.9H33.7V407.3z"/>
		<path class="st67" d="M37.8,404.2c-3.2,0.6-5.7,2.8-6.7,5.8c-1.7,5.4,2.1,10.9,7.7,11.2c0.6,0,1.2,0,1.6,0
			c4.3-0.6,7.4-4.2,7.4-8.5c0-4-2.7-7.5-6.6-8.4C40.3,404.1,38.6,404,37.8,404.2z M37.8,408.8c-0.1,0.8-0.6,1.6-1.3,2.1
			c-0.4,0.3-0.6,0.4-1.4,0.5h-0.2v-1.5v-1.5h1.5h1.5L37.8,408.8z M43.7,409.9v1.5h-1.5h-1.5v3v3h-1.5h-1.5V414c0-3.3,0-3.3,0.2-3.7
			c0.3-0.8,1.2-1.6,2.1-1.8c0.2,0,1-0.1,1.9-0.1h1.7L43.7,409.9L43.7,409.9z"/>
	</g>
	<text transform="matrix(1 0 0 1 165.3821 382.4216)" class="st65 st10 st59">High Yield</text>
	<g>
		<text transform="matrix(1 0 0 1 219.9581 382.9443)" class="st44 st12 st40">4%~7%</text>
	</g>
	<text transform="matrix(1 0 0 1 282.3733 382.435)" class="st65 st10 st59">7 days</text>
	<g>
		<path class="st50" d="M29.6,421.2c4.7,0,8.6-3.8,8.6-8.6c0-4.7-3.8-8.6-8.6-8.6c-4.7,0-8.6,3.8-8.6,8.6
			C21,417.4,24.9,421.2,29.6,421.2z"/>
		<path class="st2" d="M32.3,410.3l-2.8-3.8l-2.7,3.8l-1.4,5.9l4.1,2.4l4.2-2.4L32.3,410.3z M33.3,415.5l-1.1-1.9l-0.6-1l0.6-1.9
			L33.3,415.5z M33.4,416.1h-2.9l1-3.2l0.5,0.8L33.4,416.1z M29.7,407l2.4,3.3l-0.6,2l-1.8-3C29.7,409.3,29.7,407,29.7,407z
			 M29.7,409.7l1.7,3l-1.1,3.4H29l-1.1-3.4L29.7,409.7z M29.5,407v2.3l-1.7,3l-0.7-2L29.5,407z M27,410.8l0.6,1.8l-1.7,2.9L27,410.8
			z M27.7,413l1,3.2h-2.9L27.7,413z M26,416.2h2.8l0.6,2L26,416.2z M29,416.2h1.2l-0.6,1.9L29,416.2z M29.8,418.2l0.6-2h2.8
			L29.8,418.2z"/>
	</g>
	<text transform="matrix(1 0 0 1 51.7388 415.8593)" class="st65 st10 st59">EOS/TUSD</text>
	<text transform="matrix(1 0 0 1 112.9402 414.9153)" class="st65 st10 st59">Liquidity</text>
	<text transform="matrix(1 0 0 1 165.3821 414.9146)" class="st65 st10 st59">High Yield</text>
	<g>
		<text transform="matrix(1 0 0 1 219.9581 415.4373)" class="st44 st12 st40">23%~37%</text>
	</g>
	<text transform="matrix(1 0 0 1 282.3733 414.9279)" class="st65 st10 st59">30 days</text>
	<g>
		<path class="st68" d="M29.6,388.7c4.7,0,8.6-3.8,8.6-8.6c0-4.7-3.8-8.6-8.6-8.6c-4.7,0-8.6,3.8-8.6,8.6
			C21,384.9,24.9,388.7,29.6,388.7z"/>
		<g>
			<g>
				<g>
					<g>
						<g>
							<defs>
								<rect id="SVGID_00000183971386635064427370000004163423916979270797_" x="25.8" y="374" width="7.5" height="12.3"/>
							</defs>
							<clipPath id="SVGID_00000079464324657052035550000010245774342694741120_">
								<use xlink:href="#SVGID_00000183971386635064427370000004163423916979270797_"  style="overflow:visible;"/>
							</clipPath>
							<g style="clip-path:url(#SVGID_00000079464324657052035550000010245774342694741120_);">
								<path class="st2" d="M30.8,377.8c0-1.8-0.8-3.3-1.4-3.8l0,0c-0.1,3.4-1.7,4.3-2.6,5.6c-2.1,2.9-0.1,6,1.8,6.6
									c1.1,0.3-0.3-0.6-0.4-2.5C27.9,381.4,30.8,379.7,30.8,377.8z"/>
								<path class="st2" d="M31.8,378.9L31.8,378.9L31.8,378.9c-0.1,0.4-0.5,1.4-1.1,2.2c-1.9,2.9-0.8,4.2-0.2,5
									c0.3,0.4,0,0,0.9-0.4c0.1,0,1.7-1,1.9-3.1C33.5,380.6,32.3,379.3,31.8,378.9z"/>
							</g>
						</g>
					</g>
				</g>
			</g>
		</g>
	</g>
	
		<animateTransform  accumulate="none" additive="replace" attributeName="transform" calcMode="linear" dur="30s" fill="remove" keyTimes="0;0.5;1" repeatCount="indefinite" restart="always" type="translate" values="1 0;-100 0;1 0;" xmlns="http://www.w3.org/2000/svg">
		</animateTransform>
</g>
<rect y="154.3" width="10.3" height="296.5"/>
<rect x="225.6" y="154.3" width="10.3" height="296.5"/>
<path class="st9" d="M24.7,34.9c0.1,0,0.2,0,0.4,0c3,0,6.1,0,9.1,0c0.8,0,1.4-0.5,1.5-1.1c0.1-0.4,0-0.8,0-1.2
	c-0.2-1.3-0.9-2.5-1.8-3.5c-0.5-0.5-0.6-1.1-0.3-1.6c0.4-0.8,1.5-1,2.2-0.3c1.1,1.1,1.9,2.4,2.3,3.8c1.4,4.5-0.7,9.3-5,11.4
	c-1.3,0.6-2.6,0.9-4,0.9c-0.6,0-1.2-0.5-1.3-1c-0.1-0.7,0.1-1.3,0.7-1.5c0.2-0.1,0.5-0.1,0.7-0.1c1.4,0,2.6-0.4,3.7-1.2
	c0.4-0.3,0.6-0.7,0.5-1.1c-0.1-0.7-0.8-1.1-1.5-0.7c-0.4,0.2-0.8,0.5-1.3,0.6c-2.4,0.9-5.1-0.5-5.8-2.9C24.8,35.1,24.8,35,24.7,34.9
	z"/>
<path class="st9" d="M19.6,34.1c0-4.3,2.5-7.8,6.3-9.2c1-0.4,2-0.5,3.1-0.5c0.8,0,1.4,0.5,1.4,1.3c0,0.8-0.5,1.4-1.3,1.4
	c-0.7,0-1.4,0.1-2.1,0.3c-2.4,0.8-3.9,2.5-4.5,5c-0.5,2.4,0.1,4.4,1.8,6.2c0.4,0.5,0.5,1,0.3,1.6c-0.2,0.5-0.7,0.8-1.3,0.7
	c-0.4,0-0.6-0.2-0.9-0.4C20.6,38.6,19.7,36.4,19.6,34.1z"/>
<path class="st9" d="M33.5,32.7c-2.9,0-5.8,0-8.7,0c0.1-0.7,0.4-1.2,0.9-1.7c0.8-1,1.8-1.5,3.1-1.6c1.3-0.1,2.5,0.3,3.5,1.2
	C32.8,31.1,33.2,31.8,33.5,32.7z"/>
</svg>
