<?xml version="1.0" encoding="utf-8"?>
<!-- Generator: Adobe Illustrator 27.0.0, SVG Export Plug-In . SVG Version: 6.00 Build 0)  -->
<svg version="1.1" id="图层_1" xmlns="http://www.w3.org/2000/svg" xmlns:xlink="http://www.w3.org/1999/xlink" x="0px" y="0px"
	 viewBox="0 0 235.3 470" style="enable-background:new 0 0 235.3 470;" xml:space="preserve">
<style type="text/css">
	.st0{display:none;fill:none;stroke:#000000;stroke-width:0.25;stroke-miterlimit:10;}
	.st1{fill:#B8BAC0;}
	.st2{fill:#FFFFFF;}
	.st3{fill:#D7DBE0;}
	.st4{fill:#1652F0;}
	.st5{fill:#EEF0F3;}
	.st6{fill:#0A0B0D;}
	.st7{fill:#CF2030;}
	.st8{opacity:0.3;fill:none;stroke:#6E6E6E;stroke-width:0.25;stroke-miterlimit:10;enable-background:new    ;}
	.st9{fill:#0052FF;}
	.st10{font-family:'ArialMT';}
	.st11{font-size:12px;}
	.st12{font-family:'Arial-BoldMT';}
	.st13{font-size:10px;}
	.st14{font-size:8.4886px;}
	.st15{opacity:0.1;fill:#3E3A39;enable-background:new    ;}
	.st16{fill:#606373;}
	.st17{fill:#77788B;}
	.st18{fill:#11113B;}
	.st19{fill:#EFEFEF;}
	.st20{fill:#E0E0E0;}
	.st21{fill:#B1B1C9;}
	.st22{fill:#DCDBEA;stroke:#8D8DAA;stroke-width:0.25;stroke-miterlimit:10;}
	.st23{fill:#9A9AB7;}
	.st24{fill:#272362;stroke:#FFFFFF;stroke-width:0.25;stroke-miterlimit:10;}
	.st25{fill:none;stroke:#8D8DAA;stroke-width:0.25;stroke-miterlimit:10;}
	.st26{opacity:0.1;fill:#FFFFFF;enable-background:new    ;}
	.st27{fill:#212154;}
	.st28{fill:#020202;}
	.st29{fill:#E3E3E3;}
	.st30{fill:#353535;}
	.st31{fill:#FBF9F9;}
	.st32{fill:#D6D6D6;}
	.st33{fill:url(#SVGID_1_);}
	.st34{fill:#57B4FC;}
	.st35{fill:#E1E1E1;}
	.st36{fill:#FDFDFB;}
	.st37{opacity:0.3;fill:#B1B1C9;enable-background:new    ;}
	.st38{opacity:0.3;fill:#FFFFFF;enable-background:new    ;}
	.st39{fill:none;}
	.st40{font-size:8px;}
	.st41{fill:#6B707C;}
	.st42{font-family:'AdobeSongStd-Light-GBpc-EUC-H';}
	.st43{fill:#4C4C4C;}
	.st44{fill:#088552;}
	.st45{font-size:6.7109px;}
	.st46{font-family:'Arial-Black';}
	.st47{fill:none;stroke:#F41100;stroke-width:0.25;stroke-linecap:round;stroke-miterlimit:10;}
	.st48{fill:#7E56E0;}
	.st49{fill-rule:evenodd;clip-rule:evenodd;fill:#171717;}
	.st50{fill-rule:evenodd;clip-rule:evenodd;}
	.st51{opacity:0.67;fill-rule:evenodd;clip-rule:evenodd;fill:#FFFFFF;enable-background:new    ;}
	.st52{fill-rule:evenodd;clip-rule:evenodd;fill:#FFFFFF;}
	.st53{clip-path:url(#SVGID_00000134968268228590104540000018142999066228597891_);}
	.st54{fill:#020212;}
	.st55{fill:#F0B90B;}
	.st56{fill-rule:evenodd;clip-rule:evenodd;fill:#F0B90B;}
	.st57{fill:none;stroke:#088552;stroke-width:0.25;stroke-miterlimit:10;}
	.st58{fill:url(#SVGID_00000177447755926162424940000011476918909357486524_);}
	.st59{fill:#1A202C;}
	.st60{font-size:9px;}
	.st61{fill-rule:evenodd;clip-rule:evenodd;fill:#0033AD;}
	.st62{clip-path:url(#SVGID_00000077312222273322944800000013228443459213988237_);}
	.st63{clip-path:url(#SVGID_00000038411065469686869560000014753250078265018010_);}
	.st64{fill:url(#SVGID_00000032619280864079771200000005822451708461491359_);}
	.st65{fill-rule:evenodd;clip-rule:evenodd;fill:#E6E9EC;}
	.st66{fill:#F7931A;}
	.st67{fill-rule:evenodd;clip-rule:evenodd;fill:#2E69FB;}
	.st68{fill:#282E5B;}
	.st69{clip-path:url(#SVGID_00000136370853169725109800000003737614291016414611_);}
</style>
<rect x="7.8" y="0" class="st0" width="219.5" height="445.1"/>
<g>
	<circle class="st1" cx="204.5" cy="33.7" r="10.9"/>
</g>
<g>
	<g>
		<path class="st2" d="M204.5,39.2c-1.3,0-2.4-0.5-3.3-1.4c0,0.5,0,1.3-0.2,1.8c0.1,0.1,0.2,0.1,0.2,0.3c0.2,1.5,1.6,2.6,3.2,2.6
			c1.7,0,3.1-1.1,3.2-2.6c0-0.1,0.1-0.2,0.2-0.3c-0.1-0.6-0.2-1.3-0.2-1.8C206.9,38.6,205.7,39.2,204.5,39.2z"/>
	</g>
</g>
<g>
	<g>
		<path class="st3" d="M207.6,37.8c-0.8,0.8-2,1.4-3.2,1.4c-1.3,0-2.4-0.5-3.3-1.4c0,0.5,0,1.3-0.2,1.8c0.1,0.1,0.2,0.1,0.2,0.3
			c0.1,0.7,0.4,1.2,0.9,1.7C204.3,41.2,206.7,39.1,207.6,37.8z"/>
	</g>
</g>
<g>
	<g>
		<path class="st2" d="M207.7,30.1h-6.2c-1,0-1.8,0.8-1.8,1.8v2.2c0,2.8,2.1,5.1,4.7,5.1c2.6,0,4.7-2.3,4.7-5.1v-2.5
			C209.2,30.8,208.5,30.1,207.7,30.1z"/>
	</g>
</g>
<g>
	<g>
		<path class="st4" d="M207,26.1h-4.7c-0.7,0-1.3,0.5-1.4,1.1c-1.2,0.2-2.2,1.2-2.2,2.5v1.8c0,0.9,0.4,1.8,1.1,2.4v-2.1
			c0-1,0.8-1.8,1.8-1.8h6.2c0.8,0,1.4,0.7,1.4,1.4V34c0.7-0.6,1.1-1.5,1.1-2.4v-2.2C210.3,27.6,208.8,26.1,207,26.1z"/>
	</g>
</g>
<g>
	<path class="st4" d="M196.4,41c2,2.2,4.9,3.6,8.1,3.6s6.1-1.4,8.1-3.6c-0.3-0.5-0.8-0.9-1.5-1l0,0l-2.9-0.4h-0.1
		c-0.2,0-0.3,0.1-0.4,0.3c-0.2,1.5-1.6,2.6-3.2,2.6c-1.7,0-3.1-1.1-3.2-2.6c0-0.2-0.2-0.3-0.4-0.3c0,0,0,0-0.1,0l-2.9,0.4l0,0
		C197.2,40.2,196.7,40.5,196.4,41z"/>
</g>
<rect x="185.9" y="25.6" class="st5" width="0.8" height="16.3"/>
<circle class="st5" cx="168.7" cy="33.8" r="10.4"/>
<circle class="st6" cx="166.3" cy="31.3" r="0.9"/>
<circle class="st6" cx="168.7" cy="31.3" r="0.9"/>
<circle class="st6" cx="171.2" cy="31.3" r="0.9"/>
<circle class="st6" cx="166.2" cy="33.8" r="0.9"/>
<circle class="st6" cx="168.7" cy="33.8" r="0.9"/>
<circle class="st6" cx="171.2" cy="33.8" r="0.9"/>
<circle class="st6" cx="166.2" cy="36.3" r="0.9"/>
<circle class="st6" cx="168.6" cy="36.3" r="0.9"/>
<circle class="st6" cx="171.1" cy="36.3" r="0.9"/>
<circle class="st5" cx="142.1" cy="33.8" r="10.4"/>
<circle class="st7" cx="147.5" cy="28.4" r="2.4"/>
<path class="st6" d="M143.9,33.9v-1.4c0-0.2,0-0.4-0.1-0.6l0,0c-0.1-0.2-0.2-0.4-0.4-0.5c-0.2-0.2-0.3-0.3-0.5-0.4l0,0
	c-0.2-0.1-0.4-0.1-0.6-0.1c-0.2,0-0.4,0-0.6,0.1l0,0c-0.2,0.1-0.4,0.2-0.5,0.4c-0.2,0.2-0.3,0.3-0.4,0.5l0,0
	c-0.1,0.2-0.1,0.4-0.1,0.6l0,0v1.4l-0.7,1.5h4.8L143.9,33.9z M138.9,36.2v-0.8l0.8-1.7v-1.2c0-0.3,0.1-0.7,0.2-1l0,0
	c0.1-0.3,0.3-0.6,0.5-0.8c0.2-0.2,0.5-0.4,0.8-0.5l0,0c0.3-0.1,0.6-0.2,1-0.2s0.7,0.1,1,0.2l0,0c0.3,0.1,0.6,0.3,0.8,0.5
	s0.4,0.5,0.5,0.8l0,0c0.1,0.3,0.2,0.6,0.2,1l0,0v1.2l0.8,1.7v0.8H138.9z M141,37.4h2.5v-0.8H141V37.4z"/>
<line class="st8" x1="7.6" y1="51.8" x2="227.1" y2="51.8"/>
<path class="st9" d="M112.6,42.4H65.4c-5.2,0-9.3-4.2-9.3-9.3l0,0c0-5.2,4.2-9.3,9.3-9.3h47.2c5.2,0,9.3,4.2,9.3,9.3l0,0
	C121.9,38.2,117.8,42.4,112.6,42.4z"/>
<text transform="matrix(1 0 0 1 68.6225 37.3189)" class="st2 st10 st11">AI Earn</text>
<path class="st8" d="M10.3,437.8V58.7c0-2.6,2.1-4.7,4.7-4.7h205.2c2.6,0,4.7,2.1,4.7,4.7v379"/>
<text transform="matrix(1 0 0 1 23.2528 74.2525)" class="st12 st13">Watchlist</text>
<text transform="matrix(1 0 0 1 66.8093 105.0882)" class="st12 st14">AI Earn funds pool</text>
<ellipse class="st15" cx="38.7" cy="137.6" rx="13.5" ry="1.6">
<animate  accumulate="none" additive="replace" attributeName="rx" calcMode="linear" dur="2s" fill="remove" keyTimes="0;0.5;1" repeatCount="indefinite" restart="always" values="10;15;10">
	</animate>
</ellipse>
<g>
	<path class="st16" d="M47.1,120.6c-1.8,0.3-6.2,0.5-8.1,0.5h-0.6c-1.9,0-6.3-0.2-8.1-0.5c-0.1,0-0.2,0-0.3,0v1.1
		c3.6,0.8,13.9,0.8,17.5,0v-1.2C47.4,120.6,47.3,120.6,47.1,120.6z"/>
	<path class="st17" d="M33.8,122.2c0-0.1-0.1-0.2-0.3-0.3c-1.5-1.1-3-0.2-3.1-0.1C31.3,122,32.4,122.1,33.8,122.2z"/>
	<path class="st17" d="M43.8,122.2c0-0.1,0.1-0.2,0.3-0.3c1.5-1.1,3-0.2,3.1-0.1C46.3,122,45.1,122.1,43.8,122.2z"/>
	<path class="st18" d="M44.1,121.2h-0.4H34h-0.4c-0.3,0.5,0.1,0.7,0.1,0.7c-0.1,0.1,0.1,0.3,0.1,0.3l0.3,0.3l4.5-0.1l5,0.1l0.3-0.3
		c0,0,0.2-0.2,0.1-0.3C43.9,121.9,44.3,121.7,44.1,121.2z"/>
	<path class="st19" d="M47.5,121.7c-3.6,0.8-13.9,0.8-17.5,0c0,0-0.6,9.3,4.6,10.7c0,0,2,0.5,4.1,0.5s4.1-0.5,4.1-0.5
		C48.1,131.1,47.5,121.7,47.5,121.7z"/>
	<path class="st20" d="M47.5,121.7c-0.6,0.1-1.5,0.3-2.5,0.4l0,0c0,0,1.1,5-0.4,7c-1.4,1.8-2.3,3.2-10.3,3.2c-0.1,0-0.1,0-0.2,0
		c0.2,0.1,0.3,0.1,0.5,0.2c0,0,2,0.5,4.1,0.5s4.1-0.5,4.1-0.5C48.1,131.1,47.5,121.7,47.5,121.7z"/>
	<path class="st21" d="M44.8,124.2c-0.1-1.3-0.2-1.7-0.2-1.8l0,0l0,0l0,0c0,0-0.1,0-0.2,0c-0.5,0.1-2.4,0.2-5.7,0.2
		s-5.1-0.2-5.7-0.2c-0.1,0-0.2,0-0.2,0l0,0l0,0l0,0c0,0.1-0.1,0.6-0.2,1.8c0,0.8,0,1.8,0,1.8s0,1.8,1.1,3.2c0.1,0.1,0.2,0.2,0.3,0.3
		c0.2,0.3,0.5,0.5,0.7,0.7l0,0l0,0c0.1,0.1,0.2,0.1,0.3,0.2l0,0h0.1c0,0,0,0,0.1,0l0,0c0.7,0.3,1.6,0.5,3.3,0.5l0,0l0,0l0,0l0,0
		c1.7,0,2.7-0.2,3.3-0.5l0,0c0,0,0,0,0.1,0H42l0,0c0.1,0,0.2-0.1,0.3-0.2l0,0l0,0c0.3-0.2,0.5-0.4,0.7-0.7c0.1-0.1,0.2-0.2,0.3-0.3
		c1.1-1.4,1.1-3.2,1.1-3.2S44.9,125,44.8,124.2z"/>
	<circle class="st22" cx="33.6" cy="122.9" r="0.3"/>
	<circle class="st22" cx="35.2" cy="129.3" r="0.3"/>
	<path class="st23" d="M44.5,122.4L44.5,122.4c-0.2,0-0.5,0.1-1,0.1c0.2,1.2,0.3,4.1-0.7,5.5c-1.4,1.9-5.6,3.6-8.1,2
		c0.1,0.1,0.2,0.2,0.3,0.2l0,0l0,0c0.1,0.1,0.2,0.1,0.3,0.2l0,0h0.1c0,0,0,0,0.1,0l0,0c0.7,0.3,1.6,0.5,3.3,0.5l0,0l0,0l0,0l0,0
		c1.7,0,2.7-0.2,3.3-0.5l0,0c0,0,0,0,0.1,0h0.1l0,0c0.1,0,0.2-0.1,0.3-0.2l0,0l0,0c0.3-0.2,0.5-0.4,0.7-0.7c0.1-0.1,0.2-0.2,0.3-0.3
		c1.1-1.4,1.1-3.2,1.1-3.2s0-1,0-1.8C44.6,122.9,44.5,122.5,44.5,122.4L44.5,122.4C44.7,122.3,44.6,122.4,44.5,122.4z"/>
	<circle class="st24" cx="42" cy="124.9" r="2">
	
		<animate  accumulate="none" additive="replace" attributeName="fill" calcMode="linear" dur="2s" fill="remove" keyTimes="0;0.5;1" repeatCount="indefinite" restart="always" values="#272362;#0052ff;#272362">
		</animate>
	</circle>
	<circle class="st22" cx="44" cy="122.9" r="0.3"/>
	<path class="st25" d="M47.5,121.7c-3.6,0.8-13.9,0.8-17.5,0c0,0-0.6,9.3,4.6,10.7c0,0,2,0.5,4.1,0.5s4.1-0.5,4.1-0.5
		C48.1,131.1,47.5,121.7,47.5,121.7z"/>
	<path class="st26" d="M40.7,126.4c0.3,0.3,0.8,0.5,1.3,0.5c1.1,0,2-0.9,2-2c0-0.6-0.2-1.1-0.6-1.4c0.1,0.3,0.7,1.9-0.7,2.9
		C42.7,126.4,41.8,126.8,40.7,126.4z"/>
	<path class="st2" d="M42,125.5c-0.3,0-0.6-0.3-0.6-0.6c0-0.3,0.3-0.6,0.6-0.6s0.5,0.2,0.6,0.5h0.6c0-0.6-0.6-1.1-1.2-1.1
		c-0.6,0-1.2,0.5-1.2,1.2c0,0.6,0.5,1.2,1.2,1.2c0.6,0,1.1-0.5,1.2-1.1h-0.6C42.5,125.3,42.3,125.5,42,125.5z"/>
	<circle class="st22" cx="42.5" cy="129.3" r="0.3"/>
	<path class="st27" d="M46.5,128.6c-1-0.6-2,1-2,1c-1.5,2.8-4.8,3.3-4.8,3.3l0,0c1.7-0.1,3.1-0.4,3.1-0.4
		C44.8,131.9,45.9,130.4,46.5,128.6C46.6,128.6,46.6,128.6,46.5,128.6z"/>
	<path class="st19" d="M49.3,101.2c-1.7-1-19.5-1-21.2,0c0,0-3.9,2-4.2,6.4v5.2c0,0,0.1,4.2,1.5,5.6c1.4,1.5,2.8,2.2,4.9,2.6
		c1.8,0.3,6.2,0.5,8.1,0.5l0,0c0.1,0,0.2,0,0.3,0s0.2,0,0.3,0l0,0c1.9,0,6.3-0.2,8.1-0.5c2-0.4,3.4-1.1,4.9-2.6
		c1.4-1.5,1.5-5.6,1.5-5.6v-5.2C53.3,103.2,49.3,101.2,49.3,101.2z"/>
	<path class="st27" d="M32.9,129.6c0,0-1-1.6-2-1c0.7,1.8,1.8,3.4,3.7,3.8c0,0,1.4,0.3,3,0.4C37.7,132.9,34.4,132.4,32.9,129.6z"/>
	<path class="st28" d="M48.8,118c-0.1,0-0.1,0.1-0.2,0.1c-0.5,0.3-1.3,0.8-3.8,1.1l-5.5,0.1h-0.8l-5.5-0.1c-2.5-0.3-3.3-0.8-3.8-1.1
		c-0.1,0-0.1-0.1-0.2-0.1c-1.7-1.1-1.8-4.3-1.9-4.4v-3.5c0-1.8,0.3-2.3,0.4-2.3l0,0v-0.1c0.4-0.6,1.2-1.1,2-1.4
		c0.1-0.1,0.2-0.1,0.3-0.2c2.5-1.1,7.1-1.3,8.7-1.3h0.8c1.5,0,6.1,0.2,8.7,1.3c0.1,0,0.2,0.1,0.3,0.2c0.7,0.4,1.6,0.8,2,1.4v0.1l0,0
		c0,0.1,0.4,0.5,0.4,2.3v3.5C50.6,113.7,50.4,116.9,48.8,118z"/>
	<path class="st29" d="M49.3,101.2L49.3,101.2l0.5,0.6c0,0,3.3,2.6,2.8,7.4s-1.2,8.4-5,10.5c-3.3,1.9-10.1,1.7-18.1,1.1
		c0.2,0.1,0.5,0.1,0.8,0.2c1.8,0.3,6.2,0.5,8.1,0.5l0,0c0.1,0,0.2,0,0.3,0s0.2,0,0.3,0l0,0c1.9,0,6.3-0.2,8.1-0.5
		c2-0.4,3.4-1.1,4.9-2.6c1.4-1.5,1.5-5.6,1.5-5.6v-5.2C53.3,103.2,49.3,101.2,49.3,101.2z"/>
	<path class="st30" d="M31.1,118.5c0,0-2.5-0.3-2.9-3.1c-0.4-2.8-0.1-6.2-0.1-6.2s0-1.2,2.1-2.1c1.3-0.5,4.7-1.7,9.4-1.6
		c2.9,0.1,7.8,0.2,10.2,2.2c0,0-12.5-3.7-18.5,1.8C31.2,109.5,26.8,113.4,31.1,118.5z"/>
	<path class="st30" d="M46,108.2c0,0-13.8-3.1-15.8,6.4c0,0-0.9-5.9,7.9-7.1C38.1,107.5,43.1,107.1,46,108.2z"/>
	<path class="st25" d="M49.3,101.2c-1.7-1-19.5-1-21.2,0c0,0-3.9,2-4.2,6.4v5.2c0,0,0.1,4.2,1.5,5.6c1.4,1.5,2.8,2.2,4.9,2.6
		c1.8,0.3,6.2,0.5,8.1,0.5l0,0c0.1,0,0.2,0,0.3,0s0.2,0,0.3,0l0,0c1.9,0,6.3-0.2,8.1-0.5c2-0.4,3.4-1.1,4.9-2.6
		c1.4-1.5,1.5-5.6,1.5-5.6v-5.2C53.3,103.2,49.3,101.2,49.3,101.2z"/>
	<path class="st31" d="M38.8,98.7c-6.9-0.2-10.6,2.2-10.6,2.2s0.4,0.3,0.7,0.7c0.3,0.4,0.6,0.8,1.7,1.3c1.4,0.6,8.2,0.7,8.2,0.7
		s6.8-0.1,8.2-0.7c1.1-0.5,1.4-0.9,1.7-1.3s0.7-0.7,0.7-0.7S45.7,98.6,38.8,98.7z"/>
	<polygon class="st32" points="49.5,101.3 49.5,100.9 49.2,101.1 	"/>
	<path class="st19" d="M47.6,100.1c-1.1,0.7-4.8,2.8-8.6,2.8c-4.5,0-10.1-1.4-10.1-1.4s0,0-0.1,0c0.3,0.4,0.6,0.8,1.7,1.3
		c1.4,0.6,8.2,0.7,8.2,0.7s6.8-0.1,8.2-0.7c1.1-0.5,1.4-0.9,1.7-1.3s0.7-0.7,0.7-0.7S48.8,100.5,47.6,100.1z"/>
	<path class="st25" d="M38.8,98.7c-6.9-0.2-10.6,2.2-10.6,2.2s0.4,0.3,0.7,0.7c0.3,0.4,0.6,0.8,1.7,1.3c1.4,0.6,8.2,0.7,8.2,0.7
		s6.8-0.1,8.2-0.7c1.1-0.5,1.4-0.9,1.7-1.3s0.7-0.7,0.7-0.7S45.7,98.6,38.8,98.7z"/>
	
		<linearGradient id="SVGID_1_" gradientUnits="userSpaceOnUse" x1="35.0998" y1="-723.1652" x2="59.4998" y2="-723.1652" gradientTransform="matrix(1 0 0 -1 -8.362 -611.1652)">
		<stop  offset="0" style="stop-color:#FFFFFF"/>
		<stop  offset="0.9994" style="stop-color:#99AAD1"/>
	</linearGradient>
	<path class="st33" d="M51.1,110.1c0-1.9-0.3-2.5-0.5-2.7c-0.4-0.7-1.4-1.2-2.1-1.6c-0.1-0.1-0.2-0.1-0.3-0.2l0,0
		c-1.3-0.6-3.3-1-5.9-1.2c-1.2-0.1-2.4-0.1-3-0.2l0,0h-0.2c0,0,0,0-0.1,0s-0.1,0-0.1,0h-0.4l0,0c-0.6,0-1.7,0-3,0.2
		c-2.6,0.2-4.6,0.6-5.9,1.2l0,0c-0.1,0-0.2,0.1-0.3,0.2c-0.8,0.4-1.7,0.9-2.1,1.6c-0.2,0.2-0.5,0.7-0.5,2.7v3.5l0,0
		c0,0.1,0.2,3.5,2.1,4.8l0,0c0.1,0,0.1,0.1,0.2,0.1c0.5,0.3,1.4,0.9,4,1.2l5.5,0.1l0,0h0.4h0.4l0,0l5.5-0.1c2.7-0.3,3.5-0.9,4-1.2
		c0.1,0,0.1-0.1,0.2-0.1l0,0c1.9-1.3,2.1-4.6,2.1-4.8l0,0L51.1,110.1z M48.8,118c-0.1,0-0.1,0.1-0.2,0.1c-0.5,0.3-1.3,0.8-3.8,1.1
		l-5.5,0.1h-0.8l-5.5-0.1c-2.5-0.3-3.3-0.8-3.8-1.1c-0.1,0-0.1-0.1-0.2-0.1c-1.7-1.1-1.8-4.3-1.9-4.4v-3.5c0-1.8,0.3-2.3,0.4-2.3
		l0,0v-0.1c0.4-0.6,1.2-1.1,2-1.4c0.1-0.1,0.2-0.1,0.3-0.2c2.5-1.1,7.1-1.3,8.7-1.3h0.8c1.5,0,6.1,0.2,8.7,1.3
		c0.1,0,0.2,0.1,0.3,0.2c0.7,0.4,1.6,0.8,2,1.4v0.1l0,0c0,0.1,0.4,0.5,0.4,2.3v3.5C50.6,113.7,50.4,116.9,48.8,118z"/>
	<circle class="st34" cx="32.9" cy="113.7" r="2.7">
	
		<animate  accumulate="none" additive="replace" attributeName="r" calcMode="linear" dur="2s" fill="remove" keyTimes="0;0.01;0.02;0.98;0.99;1" repeatCount="indefinite" restart="always" values="0;0;2.78;2.78;0;0">
		</animate>
	</circle>
	<circle class="st34" cx="44.7" cy="113.7" r="2.7">
	
		<animate  accumulate="none" additive="replace" attributeName="r" calcMode="linear" dur="2s" fill="remove" keyTimes="0;0.01;0.02;0.98;0.99;1" repeatCount="indefinite" restart="always" values="0;0;2.78;2.78;0;0">
		</animate>
	</circle>
	<circle class="st34" cx="38.8" cy="117.3" r="0.5"/>
	<g>
		<g>
			<path class="st19" d="M26.8,122.7c0,0,1.6,1.2,1.8,1.2c0.2,0,0.6,0.1,0.7,0.1v-0.3l0.4-0.8c0,0,0.1-0.2,0-0.3
				c-0.1-0.1-1.8-1.1-1.8-1.1s-0.2-0.5-0.4-0.5c0,0-0.4,0.2-0.6,0.6C26.7,122,26.8,122.7,26.8,122.7z"/>
			<path class="st35" d="M29.4,123.6l-2.6-1.4c0,0.3,0,0.5,0,0.5s1.6,1.2,1.8,1.2c0.2,0,0.6,0.1,0.7,0.1L29.4,123.6L29.4,123.6z"/>
			<path class="st36" d="M27.9,121.2c-0.1-0.1-0.3-0.3-0.5-0.3c0,0-0.4,0.2-0.6,0.6s-0.1,1.1-0.1,1.1l0.2,0.1l0.3-0.3
				C27.3,122.5,27.6,121.7,27.9,121.2z"/>
			<path class="st25" d="M26.8,122.7c0,0,1.6,1.2,1.8,1.2c0.2,0,0.6,0.1,0.7,0.1v-0.3l0.4-0.8c0,0,0.1-0.2,0-0.3
				c-0.1-0.1-1.8-1.1-1.8-1.1s-0.2-0.5-0.4-0.5c0,0-0.4,0.2-0.6,0.6C26.7,122,26.8,122.7,26.8,122.7z"/>
		</g>
		<g>
			<path class="st19" d="M50.7,122.7c0,0-1.6,1.2-1.8,1.2s-0.6,0.1-0.7,0.1v-0.3l-0.4-0.8c0,0-0.1-0.2,0-0.3
				c0.1-0.1,1.8-1.1,1.8-1.1s0.4-0.4,0.6-0.4c0,0,0.4,0.2,0.6,0.6C50.8,122,50.7,122.7,50.7,122.7z"/>
			<path class="st35" d="M48.1,123.6l2.6-1.4c0,0.3,0,0.5,0,0.5s-1.6,1.2-1.8,1.2s-0.6,0.1-0.7,0.1L48.1,123.6L48.1,123.6z"/>
			<path class="st36" d="M49.6,121.2c0.1-0.1,0.3-0.3,0.5-0.3c0,0,0.4,0.2,0.6,0.6s0.1,1.1,0.1,1.1l-0.2,0.1l-0.3-0.3
				C50.2,122.5,49.9,121.7,49.6,121.2z"/>
			<path class="st25" d="M50.7,122.7c0,0-1.6,1.2-1.8,1.2s-0.6,0.1-0.7,0.1v-0.3l-0.4-0.8c0,0-0.1-0.2,0-0.3
				c0.1-0.1,1.8-1.1,1.8-1.1s0.4-0.4,0.6-0.4c0,0,0.4,0.2,0.6,0.6C50.8,122,50.7,122.7,50.7,122.7z"/>
		</g>
		<path class="st34" d="M20.9,112.3l3,0.3l0.1,1.7l-3.2-0.4C20.8,113.9,20.8,112.8,20.9,112.3z"/>
		<path class="st34" d="M56.5,112.3l-3,0.3l-0.1,1.7l3.2-0.4C56.6,113.9,56.7,112.8,56.5,112.3z"/>
		<path class="st37" d="M20.9,112.8c0,0,0.2-1.9,0.7-2.4c0.5-0.4,1.2-1.4,4-2s8.4,0.1,9.4,0.8c1.1,0.9,1.5,1.6,1.2,4.3
			c-0.3,2.7-1.6,5.1-2.9,5.8c-1.3,0.7-6.9,2.3-9.8,1S20.9,113.3,20.9,112.8z"/>
		<path class="st38" d="M29.5,110c0,0-0.3,3-5.8,6.8c0,0-1.9,0.9-2-0.3c-0.1-1.2-0.4-4.7,0.8-5.8s2.9-2,5.8-1.9
			C28.3,108.8,30.1,108.6,29.5,110z"/>
		<path class="st37" d="M56.5,112.8c0,0-0.2-1.9-0.7-2.4c-0.5-0.4-1.2-1.4-4-2c-2.9-0.6-8.4,0.1-9.4,0.8c-1.1,0.9-1.5,1.6-1.2,4.3
			c0.3,2.7,1.6,5.1,2.9,5.8c1.2,0.7,6.9,2.3,9.8,1C56.7,118.9,56.5,113.3,56.5,112.8z"/>
		<path class="st34" d="M56.4,109.8c-0.7-1-3.5-2.3-5.8-2.4s-6.9,0.2-8,0.2c-1,0.1-3.7,0.1-3.7,0.1s-3,0-3.9-0.1
			c-1.1-0.1-5.7-0.2-8-0.2s-5.2,1.3-5.8,2.4c-0.7,1-0.7,4-0.7,4s0.5,5.9,3.4,7.1s9.3-0.5,10.5-1.5s2.5-3.6,3-5.6
			c0.5-1.8,1.3-1.9,1.6-1.9s0.9,0.1,1.3,1.9c0.5,1.9,1.7,4.6,3,5.6c1.2,1,7.7,2.7,10.5,1.5c2.9-1.2,3.4-7.1,3.4-7.1
			S57,110.8,56.4,109.8z M36.3,113.5c-0.3,2.7-1.6,5.1-2.9,5.8c-1.2,0.7-6.9,2.3-9.8,1s-2.8-7-2.7-7.5c0,0,0.2-1.9,0.7-2.4
			c0.5-0.4,1.2-1.4,4-2c2.9-0.6,8.4,0.1,9.4,0.8C36.2,110.1,36.7,110.9,36.3,113.5z M40,111.5c-0.2-0.1-0.7-0.3-1.2-0.3
			c-0.6,0-1.1,0.1-1.4,0.3c0,0-0.4-2.2-0.7-2.2c0,0,0.4-0.3,2.2-0.3s1.9,0.3,1.9,0.3C40.4,109.3,40,111.5,40,111.5z M53.7,120.3
			c-2.9,1.4-8.5-0.2-9.8-1c-1.2-0.7-2.6-3.1-2.9-5.8c-0.3-2.7,0.2-3.4,1.2-4.3c1-0.8,6.5-1.4,9.4-0.8c2.9,0.6,3.5,1.6,4,2
			s0.7,2.4,0.7,2.4C56.5,113.3,56.7,118.9,53.7,120.3z"/>
		<path class="st34" d="M57,113.5c0-0.7-0.1-2.9-0.7-3.8c-0.7-1-3.5-2.3-5.8-2.4s-6.9,0.2-8,0.2c-1,0.1-3.7,0.1-3.7,0.1
			s-3,0-3.9-0.1c-1.1-0.1-5.7-0.2-8-0.2s-5.2,1.3-5.8,2.4c-0.5,0.8-0.6,2.7-0.7,3.6c0.1-1.3,0.5-2.9,1.2-3.6c1.4-1.4,4.1-2,7.3-1.9
			c2.2,0,6.2,0.2,8.3,0.3v0.1h1.4c0,0,0,0,0.1,0s0.1,0,0.1,0h1.4v-0.1c2.2-0.1,6.1-0.2,8.3-0.3c3.2-0.1,5.8,0.5,7.3,1.9
			C56.6,110.5,56.9,112.2,57,113.5z"/>
		<path class="st38" d="M42,115.6c0,0-1.2-3.2-0.2-4.9s2.6-1.9,4.9-2.1c0,0,0.5,0,0,1S45.9,111.9,42,115.6z"/>
		
			<animateTransform  accumulate="none" additive="replace" attributeName="transform" calcMode="linear" dur="2s" fill="remove" keyTimes="0;0.05;0.1;0.98;0.99;1" repeatCount="indefinite" restart="always" type="translate" values="0 -1;0 -1;0 1;0 1;0 -1;0 -1">
			</animateTransform>
	</g>
	
		<animateTransform  accumulate="none" additive="replace" attributeName="transform" calcMode="linear" dur="2s" fill="remove" keyTimes="0;0.5;1" repeatCount="indefinite" restart="always" type="translate" values="0 -1;0 1;0 -1">
		</animateTransform>
</g>
<g>
	<rect x="65.9" y="110.7" class="st39" width="153.5" height="33.2"/>
	<text transform="matrix(1 0 0 1 65.9094 117.5803)" class="st34 st10 st40">CO</text>
	<text transform="matrix(1 0 0 1 77.9094 117.5803)" class="st37 st10 st40"> </text>
	<text transform="matrix(1 0 0 1 80.1094 117.5803)" class="st41 st10 st40">will analyze the investment project and </text>
	<text transform="matrix(1 0 0 1 65.9094 127.1803)" class="st41 st10 st40">automatically choose the best solution for </text>
	<text transform="matrix(1 0 0 1 65.9094 136.7803)" class="st41 st10 st40">you</text>
	<text transform="matrix(1 0 0 1 78.8094 137.3476)" class="st41 st42 st40">！</text>
</g>
<line class="st8" x1="9.8" y1="151.1" x2="224.9" y2="151.1"/>
<text transform="matrix(1 0 0 1 23.2528 171.8786)" class="st12 st13">Newest stakings</text>
<text transform="matrix(1 0 0 1 23.2528 295.9547)" class="st12 st13">DeFi Yield list</text>
<line class="st8" x1="9.8" y1="275.2" x2="224.9" y2="275.2"/>
<rect x="7.6" y="0" class="st43" width="219.5" height="15.2"/>
<path class="st2" d="M29.4,7.7c-0.2,0.2-0.4,0.4-0.6,0.5S28.3,8.4,28,8.4c-0.4,0-0.7-0.1-0.9-0.3c-0.3-0.2-0.5-0.4-0.6-0.7
	c-0.1-0.3-0.2-0.7-0.2-1.1s0.1-0.8,0.2-1.1c0.2-0.3,0.4-0.6,0.7-0.8c0.3-0.2,0.6-0.3,1-0.3c0.6,0,1.1,0.2,1.5,0.7s0.5,1.1,0.5,1.9V7
	c0,1.2-0.2,2.1-0.7,2.7s-1.2,0.8-2.2,0.9h-0.2V9.9h0.2c0.7,0,1.2-0.2,1.5-0.5C29.2,9,29.4,8.4,29.4,7.7z M28.2,7.7
	c0.3,0,0.5-0.1,0.7-0.2c0.2-0.2,0.4-0.4,0.5-0.6V6.6c0-0.5-0.1-0.9-0.3-1.3c-0.2-0.3-0.5-0.5-0.9-0.5c-0.3,0-0.6,0.1-0.8,0.4
	c-0.2,0.3-0.3,0.6-0.3,1.1c0,0.4,0.1,0.8,0.3,1.1C27.6,7.6,27.9,7.7,28.2,7.7z M42.1,7.7c-0.2,0.2-0.4,0.4-0.6,0.5
	c-0.2,0.1-0.5,0.2-0.8,0.2c-0.4,0-0.7-0.1-0.9-0.3c-0.3-0.2-0.5-0.4-0.6-0.7C39.1,7.1,39,6.7,39,6.3s0.1-0.8,0.2-1.1
	c0.2-0.3,0.4-0.6,0.7-0.8s0.6-0.3,1-0.3c0.6,0,1.1,0.2,1.5,0.7s0.5,1.1,0.5,1.9V7c0,1.2-0.2,2.1-0.7,2.7S41,10.5,40,10.6h-0.2V9.9
	H40c0.7,0,1.2-0.2,1.5-0.5C41.9,9,42,8.4,42.1,7.7z M40.9,7.7c0.3,0,0.5-0.1,0.7-0.2c0.2-0.2,0.4-0.4,0.5-0.6V6.6
	c0-0.5-0.1-0.9-0.3-1.3c-0.2-0.3-0.5-0.5-0.9-0.5c-0.3,0-0.6,0.1-0.8,0.4s-0.3,0.6-0.3,1.1c0,0.4,0.1,0.8,0.3,1.1
	C40.2,7.6,40.5,7.7,40.9,7.7z M31.4,10.1c0-0.1,0-0.3,0.1-0.3c0.1-0.1,0.2-0.1,0.4-0.1s0.3,0,0.4,0.1s0.1,0.2,0.1,0.3s0,0.2-0.1,0.3
	s-0.2,0.1-0.4,0.1s-0.3,0-0.4-0.1S31.4,10.2,31.4,10.1z M31.4,6.3c0-0.1,0-0.3,0.1-0.3c0.1-0.1,0.2-0.1,0.4-0.1s0.3,0,0.4,0.1
	s0.1,0.2,0.1,0.3s0,0.2-0.1,0.3c-0.1,0.1-0.2,0.1-0.4,0.1s-0.3,0-0.4-0.1C31.4,6.5,31.4,6.4,31.4,6.3z M36.7,10.5h-0.8V5.2l-1.6,0.6
	V5.1l2.3-0.9h0.1V10.5z"/>
<path class="st2" d="M207.4,4.4h-0.6V3.7h-2.2v0.7H204c-0.1,0-0.3,0.1-0.3,0.1s-0.1,0.2-0.1,0.3v5.6c0,0.3,0.2,0.5,0.5,0.5h3.4
	c0.1,0,0.3-0.1,0.3-0.1c0.1-0.1,0.1-0.2,0.1-0.3V4.9C207.9,4.6,207.7,4.4,207.4,4.4z"/>
<path class="st2" d="M192.9,10.6h7.3V3.3"/>
<path class="st2" d="M188.1,4c-1.5,0-3,0.5-4.3,1.5c1.5,1.9,2.7,3.4,4.3,5.3c1.5-1.9,3-3.8,4.3-5.3C191.2,4.5,189.7,4,188.1,4z"/>
<g>
	<path class="st8" d="M152.8,261.2H18.6c-2.4,0-4.4-2-4.4-4.4v-67.9c0-2.4,2-4.4,4.4-4.4h134.2c2.4,0,4.4,2,4.4,4.4v67.9
		C157.2,259.2,155.2,261.2,152.8,261.2z"/>
	<text transform="matrix(1 0 0 1 22.7396 237.935)" class="st44 st12 st40">5%~15%</text>
	<g>
		<text transform="matrix(1 0 0 1 23.6453 250.0062)" class="st41 st10 st45">APY</text>
	</g>
	<g>
		<text transform="matrix(1 0 0 1 47.3675 214.1427)" class="st41 st10 st45">Polygon</text>
	</g>
	<g>
		<text transform="matrix(1 0 0 1 100.7194 250.0067)" class="st41 st10 st45">Duration</text>
	</g>
	<g>
		<text transform="matrix(0.9238 0 0 1 100.7188 237.9352)" class="st46 st40">30 days</text>
	</g>
	<g>
		<line class="st47" x1="100.8" y1="207.5" x2="103" y2="207.7"/>
		<line class="st47" x1="103" y1="207.7" x2="105" y2="207.8"/>
		<line class="st47" x1="105" y1="207.8" x2="107.2" y2="207.8"/>
		<line class="st47" x1="107.2" y1="207.8" x2="109.3" y2="208.1"/>
		<line class="st47" x1="109.3" y1="208.1" x2="111.5" y2="208.7"/>
		<line class="st47" x1="111.5" y1="208.7" x2="113.6" y2="209.2"/>
		<line class="st47" x1="113.6" y1="209.2" x2="115.8" y2="211.7"/>
		<line class="st47" x1="115.8" y1="211.7" x2="117.8" y2="207.9"/>
		<line class="st47" x1="117.8" y1="207.9" x2="120" y2="199.8"/>
		<line class="st47" x1="120" y1="199.8" x2="122.1" y2="204.2"/>
		<line class="st47" x1="122.1" y1="204.2" x2="124.3" y2="206.3"/>
		<line class="st47" x1="124.3" y1="206.3" x2="126.4" y2="207.1"/>
		<line class="st47" x1="126.4" y1="207.1" x2="128.6" y2="205.5"/>
		<line class="st47" x1="128.6" y1="205.5" x2="130.7" y2="207.6"/>
		<line class="st47" x1="130.7" y1="207.6" x2="132.8" y2="207.6"/>
		<line class="st47" x1="132.8" y1="207.6" x2="135" y2="207.6"/>
		<line class="st47" x1="135" y1="207.6" x2="137.1" y2="215.6"/>
		<line class="st47" x1="137.1" y1="215.6" x2="139.3" y2="208.5"/>
		<line class="st47" x1="139.3" y1="208.5" x2="141.4" y2="209.6"/>
		<line class="st47" x1="141.4" y1="209.6" x2="143.5" y2="208.9"/>
		<line class="st47" x1="143.5" y1="208.9" x2="145.6" y2="202.4"/>
		<line class="st47" x1="145.6" y1="202.4" x2="147.8" y2="205.6"/>
	</g>
	<text transform="matrix(1 0 0 1 47.4665 203.6981)" class="st12 st40">MATIC</text>
	<path class="st48" d="M31.3,214.1c4.7,0,8.6-3.8,8.6-8.6c0-4.7-3.8-8.6-8.6-8.6c-4.7,0-8.6,3.8-8.6,8.6S26.5,214.1,31.3,214.1z"/>
	<path class="st2" d="M33.7,203.9c-0.2-0.1-0.4-0.1-0.6,0l-1.4,0.8l-0.9,0.5l-1.4,0.8c-0.2,0.1-0.4,0.1-0.6,0l-1.1-0.7
		c-0.2-0.1-0.3-0.3-0.3-0.5v-1.3c0-0.2,0.1-0.4,0.3-0.5l1.1-0.6c0.2-0.1,0.4-0.1,0.6,0l1.1,0.6c0.2,0.1,0.3,0.3,0.3,0.5v0.8l0.9-0.6
		v-0.8c0-0.2-0.1-0.4-0.3-0.5l-2-1.2c-0.2-0.1-0.4-0.1-0.6,0l-2,1.2c-0.2,0.1-0.3,0.3-0.3,0.5v2.4c0,0.2,0.1,0.4,0.3,0.5l2,1.2
		c0.2,0.1,0.4,0.1,0.6,0l1.4-0.8l0.9-0.6l1.4-0.8c0.2-0.1,0.4-0.1,0.6,0l1.1,0.6c0.2,0.1,0.3,0.3,0.3,0.5v1.3c0,0.2-0.1,0.4-0.3,0.5
		l-1.1,0.7c-0.2,0.1-0.4,0.1-0.6,0l-1.1-0.6c-0.2-0.1-0.3-0.3-0.3-0.5v-0.8l-0.9,0.6v0.8c0,0.2,0.1,0.4,0.3,0.5l2,1.2
		c0.2,0.1,0.4,0.1,0.6,0l2-1.2c0.2-0.1,0.3-0.3,0.3-0.5v-2.4c0-0.2-0.1-0.4-0.3-0.5L33.7,203.9z"/>
	<path class="st8" d="M303.9,261.2H169.7c-2.4,0-4.4-2-4.4-4.4v-67.9c0-2.4,2-4.4,4.4-4.4h134.2c2.4,0,4.4,2,4.4,4.4v67.9
		C308.3,259.2,306.3,261.2,303.9,261.2z"/>
	<text transform="matrix(1 0 0 1 173.8396 237.935)" class="st44 st12 st40">2%~13%</text>
	<g>
		<text transform="matrix(1 0 0 1 174.7454 250.0062)" class="st41 st10 st45">APY</text>
	</g>
	<g>
		<g>
			<text transform="matrix(1 0 0 1 198.4675 214.1427)" class="st41 st10 st45">Cosmos</text>
		</g>
	</g>
	<g>
		<text transform="matrix(1 0 0 1 251.8194 250.0067)" class="st41 st10 st45">Duration</text>
	</g>
	<g>
		<text transform="matrix(0.9238 0 0 1 251.8188 237.9352)" class="st46 st40">15 days</text>
	</g>
	<text transform="matrix(1 0 0 1 198.5665 203.6981)" class="st12 st40">ATOM</text>
	<path class="st49" d="M182.1,196.9c4.8,0,8.7,3.9,8.7,8.7s-3.9,8.7-8.7,8.7s-8.7-3.9-8.7-8.7C173.4,200.8,177.3,196.9,182.1,196.9z
		"/>
	<path class="st50" d="M182,200.6c2.8,0,5,2.2,5,5s-2.2,5-5,5s-5-2.2-5-5S179.3,200.6,182,200.6z"/>
	<path class="st51" d="M182.2,198.4c-0.1-0.1-0.1-0.1-0.1-0.1s0,0-0.1,0.1s-0.2,0.2-0.2,0.4c-0.2,0.3-0.4,0.9-0.5,1.5
		c-0.2,0.8-0.3,1.7-0.4,2.7c0.4,0.2,0.8,0.4,1.2,0.6c0.4-0.2,0.8-0.4,1.2-0.6c-0.1-1-0.2-2-0.4-2.7c-0.1-0.7-0.3-1.2-0.5-1.5
		C182.3,198.6,182.3,198.4,182.2,198.4z M181.7,203.8c-0.3-0.2-0.6-0.3-0.9-0.5c0,0.3,0,0.7-0.1,1c0.2-0.1,0.3-0.2,0.5-0.3
		C181.4,204,181.6,203.9,181.7,203.8z M180.5,202.8c0.2-2.8,0.9-4.9,1.6-4.9c0.7,0,1.3,2,1.6,4.9c2.6-1.2,4.6-1.7,5-1.1
		c0.4,0.6-1.1,2.2-3.4,3.8c2.3,1.6,3.8,3.2,3.4,3.8c-0.4,0.6-2.4,0.1-5-1.1c-0.2,2.8-0.9,4.9-1.6,4.9c-0.7,0-1.3-2-1.6-4.9
		c-2.6,1.2-4.6,1.7-5,1.1c-0.4-0.6,1.1-2.2,3.4-3.8c-2.3-1.6-3.8-3.2-3.4-3.8S177.9,201.6,180.5,202.8z M179.2,205.4
		c-0.9-0.6-1.6-1.2-2.2-1.7c-0.5-0.5-0.9-0.9-1.1-1.2c-0.1-0.2-0.2-0.3-0.2-0.4c0-0.1,0-0.1,0-0.1s0,0,0.1-0.1c0.1,0,0.2,0,0.4,0
		c0.4,0,0.9,0.1,1.6,0.3c0.7,0.2,1.6,0.6,2.5,1c0,0.4-0.1,0.9-0.1,1.4C180,204.8,179.6,205.1,179.2,205.4z M179.2,205.8
		c-0.9,0.6-1.6,1.2-2.2,1.7c-0.5,0.5-0.9,0.9-1.1,1.2c-0.1,0.2-0.2,0.3-0.2,0.4c0,0.1,0,0.1,0,0.1s0,0,0.1,0.1c0.1,0,0.2,0,0.4,0
		c0.4,0,0.9-0.1,1.6-0.3c0.7-0.2,1.6-0.6,2.5-1c0-0.4-0.1-0.9-0.1-1.4C180,206.3,179.6,206,179.2,205.8z M180.4,206.1
		c-0.3-0.2-0.6-0.4-0.9-0.6c0.3-0.2,0.6-0.4,0.9-0.6c0,0.2,0,0.4,0,0.6C180.4,205.7,180.4,205.9,180.4,206.1z M180.7,206.3
		c0-0.3,0-0.5,0-0.8s0-0.5,0-0.8c0.2-0.1,0.4-0.3,0.7-0.4c0.2-0.1,0.5-0.3,0.7-0.4c0.2,0.1,0.4,0.2,0.7,0.4c0.2,0.1,0.4,0.3,0.7,0.4
		c0,0.3,0,0.5,0,0.8s0,0.5,0,0.8c-0.2,0.1-0.4,0.3-0.7,0.4c-0.2,0.1-0.5,0.3-0.7,0.4c-0.2-0.1-0.4-0.2-0.7-0.4
		C181.2,206.6,181,206.5,180.7,206.3z M180.8,206.7c0,0.4,0,0.7,0.1,1c0.3-0.1,0.6-0.3,0.9-0.5c-0.2-0.1-0.3-0.2-0.5-0.3
		C181.1,206.9,180.9,206.8,180.8,206.7z M182.1,207.5c-0.4,0.2-0.8,0.4-1.2,0.6c0.1,1,0.2,2,0.4,2.7c0.1,0.7,0.3,1.2,0.5,1.5
		c0.1,0.2,0.2,0.3,0.2,0.4c0.1,0.1,0.1,0.1,0.1,0.1s0,0,0.1-0.1s0.2-0.2,0.2-0.4c0.2-0.3,0.4-0.9,0.5-1.5c0.2-0.8,0.3-1.7,0.4-2.7
		C182.9,207.9,182.5,207.7,182.1,207.5z M183.7,207.9c0.9,0.4,1.8,0.8,2.5,1s1.2,0.3,1.6,0.3c0.2,0,0.3,0,0.4,0
		c0.1,0,0.1-0.1,0.1-0.1s0,0,0-0.1s-0.1-0.2-0.2-0.4c-0.2-0.3-0.6-0.7-1.1-1.2c-0.6-0.5-1.3-1.1-2.2-1.7c-0.4,0.3-0.8,0.5-1.2,0.8
		C183.7,207,183.7,207.5,183.7,207.9z M184.9,205.4c0.9-0.6,1.6-1.2,2.2-1.7c0.5-0.5,0.9-0.9,1.1-1.2c0.1-0.2,0.2-0.3,0.2-0.4
		c0-0.1,0-0.1,0-0.1s0,0-0.1-0.1c-0.1,0-0.2,0-0.4,0c-0.4,0-0.9,0.1-1.6,0.3c-0.7,0.2-1.6,0.6-2.5,1c0,0.4,0.1,0.9,0.1,1.4
		C184.2,204.8,184.6,205.1,184.9,205.4z M183.8,205c0.3,0.2,0.6,0.4,0.9,0.6c-0.3,0.2-0.6,0.4-0.9,0.6c0-0.2,0-0.4,0-0.6
		S183.8,205.2,183.8,205z M183.4,204.4c0-0.4,0-0.7-0.1-1c-0.3,0.1-0.6,0.3-0.9,0.5c0.2,0.1,0.3,0.2,0.5,0.3
		C183.1,204.2,183.3,204.3,183.4,204.4z M183.4,207.8c-0.3-0.1-0.6-0.3-0.9-0.5c0.2-0.1,0.3-0.2,0.5-0.3s0.3-0.2,0.5-0.3
		C183.4,207.1,183.4,207.4,183.4,207.8z"/>
	<path class="st52" d="M177.2,203.4c0.3,0,0.5,0.2,0.5,0.5s-0.2,0.5-0.5,0.5s-0.5-0.2-0.5-0.5C176.7,203.7,176.9,203.4,177.2,203.4z
		"/>
	<path class="st52" d="M185.7,201.6c0.3,0,0.5,0.2,0.5,0.5s-0.2,0.5-0.5,0.5s-0.5-0.2-0.5-0.5S185.4,201.6,185.7,201.6z"/>
	<path class="st52" d="M181,210c0.3,0,0.5,0.2,0.5,0.5s-0.2,0.5-0.5,0.5s-0.5-0.2-0.5-0.5S180.7,210,181,210z"/>
	<path class="st52" d="M182.1,204.7c0.5,0,0.9,0.4,0.9,0.9s-0.4,0.9-0.9,0.9s-0.9-0.4-0.9-0.9S181.6,204.7,182.1,204.7z"/>
	<g>
		<line class="st47" x1="252.6" y1="203.3" x2="254.7" y2="199.9"/>
		<line class="st47" x1="254.7" y1="199.9" x2="256.8" y2="202.7"/>
		<line class="st47" x1="256.8" y1="202.7" x2="259" y2="204.6"/>
		<line class="st47" x1="259" y1="204.6" x2="261.1" y2="205.2"/>
		<line class="st47" x1="261.1" y1="205.2" x2="263.2" y2="205.6"/>
		<line class="st47" x1="263.2" y1="205.6" x2="265.3" y2="204.6"/>
		<line class="st47" x1="265.3" y1="204.6" x2="267.4" y2="206.2"/>
		<line class="st47" x1="267.4" y1="206.2" x2="269.5" y2="201.9"/>
		<line class="st47" x1="269.5" y1="201.9" x2="271.6" y2="199.3"/>
		<line class="st47" x1="271.6" y1="199.3" x2="273.7" y2="202.2"/>
		<line class="st47" x1="273.7" y1="202.2" x2="275.8" y2="203.1"/>
		<line class="st47" x1="275.8" y1="203.1" x2="277.9" y2="204.1"/>
		<line class="st47" x1="277.9" y1="204.1" x2="280" y2="202.7"/>
		<line class="st47" x1="280" y1="202.7" x2="282.1" y2="206.6"/>
		<line class="st47" x1="282.1" y1="206.6" x2="284.2" y2="207.4"/>
		<line class="st47" x1="284.2" y1="207.4" x2="286.3" y2="207"/>
		<line class="st47" x1="286.3" y1="207" x2="288.4" y2="215.9"/>
		<line class="st47" x1="288.4" y1="215.9" x2="290.5" y2="209"/>
		<line class="st47" x1="290.5" y1="209" x2="292.6" y2="211"/>
		<line class="st47" x1="292.6" y1="211" x2="294.7" y2="209.2"/>
		<line class="st47" x1="294.7" y1="209.2" x2="296.8" y2="209.3"/>
		<line class="st47" x1="296.8" y1="209.3" x2="298.9" y2="211.1"/>
	</g>
	<path class="st8" d="M455.6,261.2H321.4c-2.4,0-4.4-2-4.4-4.4v-67.9c0-2.4,2-4.4,4.4-4.4h134.2c2.4,0,4.4,2,4.4,4.4v67.9
		C460,259.2,458,261.2,455.6,261.2z"/>
	<text transform="matrix(1 0 0 1 325.5285 237.935)" class="st44 st12 st40">1%~7%</text>
	<g>
		<text transform="matrix(1 0 0 1 326.4342 250.0062)" class="st41 st10 st45">APY</text>
	</g>
	<g>
		<g>
			<text transform="matrix(1 0 0 1 350.1563 214.1427)" class="st41 st10 st45">Binance USD</text>
		</g>
	</g>
	<g>
		<text transform="matrix(1 0 0 1 403.5082 250.0067)" class="st41 st10 st45">Duration</text>
	</g>
	<g>
		<text transform="matrix(0.9238 0 0 1 403.5078 237.9352)" class="st46 st40">7 days</text>
	</g>
	<text transform="matrix(1 0 0 1 350.2553 203.6981)" class="st12 st40">BUSD</text>
	<g>
		<g>
			<g>
				<g>
					<g>
						<g>
							<defs>
								<rect id="SVGID_00000167378988189084953500000008017950435554046631_" x="325.1" y="197" width="17.2" height="17.2"/>
							</defs>
							<clipPath id="SVGID_00000098197185159300791890000014699476198413952651_">
								<use xlink:href="#SVGID_00000167378988189084953500000008017950435554046631_"  style="overflow:visible;"/>
							</clipPath>
							<g style="clip-path:url(#SVGID_00000098197185159300791890000014699476198413952651_);">
								<path class="st54" d="M333.7,214.2c4.7,0,8.6-3.8,8.6-8.6c0-4.7-3.8-8.6-8.6-8.6c-4.7,0-8.6,3.8-8.6,8.6
									C325.1,210.3,328.9,214.2,333.7,214.2z"/>
								<path class="st55" d="M333.7,200.2l1.3,1.4l-3.3,3.3l-1.3-1.3L333.7,200.2z"/>
								<path class="st56" d="M333.7,200.2l1.3,1.4l-3.4,3.4l-1.3-1.3L333.7,200.2z M330.4,203.6l1.3,1.3l3.3-3.3l-1.3-1.3
									L330.4,203.6z"/>
								<path class="st55" d="M335.7,202.2l1.3,1.4l-5.4,5.3l-1.3-1.3L335.7,202.2z"/>
								<path class="st56" d="M335.7,202.2l1.3,1.4l-5.4,5.4l-1.3-1.3L335.7,202.2z M330.4,207.6l1.3,1.3l5.3-5.3l-1.3-1.3
									L330.4,207.6z"/>
								<path class="st55" d="M329.7,204.2l1.3,1.4l-1.3,1.3l-1.3-1.3L329.7,204.2z"/>
								<path class="st56" d="M329.7,204.2l1.3,1.4l-1.3,1.3l-1.3-1.3L329.7,204.2z M328.4,205.6l1.3,1.3l1.3-1.3l-1.3-1.3
									L328.4,205.6z"/>
								<path class="st55" d="M337.7,204.2l1.3,1.4l-5.3,5.3l-1.3-1.3L337.7,204.2z"/>
								<path class="st56" d="M337.7,204.2l1.3,1.4l-5.4,5.4l-1.3-1.3L337.7,204.2z M332.4,209.6l1.3,1.3l5.3-5.3l-1.3-1.3
									L332.4,209.6z"/>
							</g>
						</g>
					</g>
				</g>
			</g>
		</g>
	</g>
	<g>
		<line class="st47" x1="405.7" y1="205.6" x2="407.8" y2="206.9"/>
		<line class="st47" x1="407.8" y1="206.9" x2="409.9" y2="206.3"/>
		<line class="st47" x1="409.9" y1="206.3" x2="412" y2="202.7"/>
		<line class="st47" x1="412" y1="202.7" x2="414" y2="206"/>
		<line class="st47" x1="414" y1="206" x2="416.1" y2="200.9"/>
		<line class="st47" x1="416.1" y1="200.9" x2="418.2" y2="204.5"/>
		<line class="st47" x1="418.2" y1="204.5" x2="420.2" y2="204.6"/>
		<line class="st47" x1="420.2" y1="204.6" x2="422.3" y2="206.4"/>
		<line class="st47" x1="422.3" y1="206.4" x2="424.4" y2="213"/>
		<line class="st47" x1="424.4" y1="213" x2="426.5" y2="206.3"/>
		<line class="st47" x1="426.5" y1="206.3" x2="428.5" y2="199.7"/>
		<line class="st47" x1="428.5" y1="199.7" x2="430.6" y2="206.5"/>
		<line class="st47" x1="430.6" y1="206.5" x2="432.7" y2="206.1"/>
		<line class="st47" x1="432.7" y1="206.1" x2="434.7" y2="206.2"/>
		<line class="st47" x1="434.7" y1="206.2" x2="436.8" y2="208.4"/>
		<line class="st47" x1="436.8" y1="208.4" x2="438.9" y2="203.1"/>
		<line class="st47" x1="438.9" y1="203.1" x2="441" y2="212.2"/>
		<line class="st47" x1="441" y1="212.2" x2="443" y2="209"/>
		<line class="st47" x1="443" y1="209" x2="445.1" y2="204.8"/>
		<line class="st47" x1="445.1" y1="204.8" x2="447.2" y2="205.7"/>
		<line class="st47" x1="447.2" y1="205.7" x2="449.3" y2="199"/>
		<line class="st47" x1="449.3" y1="199" x2="451.3" y2="208.4"/>
	</g>
	<path class="st8" d="M608.2,261.2H474c-2.4,0-4.4-2-4.4-4.4v-67.9c0-2.4,2-4.4,4.4-4.4h134.2c2.4,0,4.4,2,4.4,4.4v67.9
		C612.6,259.2,610.6,261.2,608.2,261.2z"/>
	<text transform="matrix(1 0 0 1 478.0899 237.935)" class="st44 st12 st40">11%~82%</text>
	<g>
		<text transform="matrix(1 0 0 1 478.9956 250.0062)" class="st41 st10 st45">APY</text>
	</g>
	<g>
		<g>
			<text transform="matrix(1 0 0 1 502.7177 214.1427)" class="st41 st10 st45">Aave</text>
		</g>
	</g>
	<g>
		<text transform="matrix(1 0 0 1 556.0697 250.0067)" class="st41 st10 st45">Duration</text>
	</g>
	<g>
		<text transform="matrix(0.9238 0 0 1 556.0684 237.9352)" class="st46 st40">180 days</text>
	</g>
	<text transform="matrix(1 0 0 1 502.8167 203.6981)" class="st12 st40">AAVE</text>
	<g>
		<g>
			<line class="st57" x1="558.2" y1="204.2" x2="560.4" y2="203.7"/>
			<line class="st57" x1="560.4" y1="203.7" x2="562.5" y2="203.6"/>
			<line class="st57" x1="562.5" y1="203.6" x2="564.7" y2="204"/>
			<line class="st57" x1="564.7" y1="204" x2="566.9" y2="202.9"/>
			<line class="st57" x1="566.9" y1="202.9" x2="569" y2="204"/>
			<line class="st57" x1="569" y1="204" x2="571.2" y2="204.1"/>
			<line class="st57" x1="571.2" y1="204.1" x2="573.4" y2="204.3"/>
			<line class="st57" x1="573.4" y1="204.3" x2="575.5" y2="205.1"/>
			<line class="st57" x1="575.5" y1="205.1" x2="577.7" y2="204.5"/>
			<line class="st57" x1="577.7" y1="204.5" x2="579.9" y2="197.7"/>
			<line class="st57" x1="579.9" y1="197.7" x2="582" y2="199.4"/>
			<line class="st57" x1="582" y1="199.4" x2="584.2" y2="201.6"/>
			<line class="st57" x1="584.2" y1="201.6" x2="586.4" y2="203.6"/>
			<line class="st57" x1="586.4" y1="203.6" x2="588.5" y2="202.1"/>
			<line class="st57" x1="588.5" y1="202.1" x2="590.7" y2="204.8"/>
			<line class="st57" x1="590.7" y1="204.8" x2="592.9" y2="205.4"/>
			<line class="st57" x1="592.9" y1="205.4" x2="595" y2="205.3"/>
			<line class="st57" x1="595" y1="205.3" x2="597.2" y2="213"/>
			<line class="st57" x1="597.2" y1="213" x2="599.4" y2="209.4"/>
			<line class="st57" x1="599.4" y1="209.4" x2="601.5" y2="209.1"/>
			<line class="st57" x1="601.5" y1="209.1" x2="603.7" y2="206"/>
			<line class="st57" x1="603.7" y1="206" x2="605.9" y2="206"/>
		</g>
	</g>
	
		<linearGradient id="SVGID_00000098223139815331601640000005660389091089753755_" gradientUnits="userSpaceOnUse" x1="492.669" y1="1316.1395" x2="479.8802" y2="1326.9" gradientTransform="matrix(1 0 0 1 0 -1115.9998)">
		<stop  offset="0" style="stop-color:#B6509E"/>
		<stop  offset="1" style="stop-color:#2EBAC6"/>
	</linearGradient>
	<path style="fill:url(#SVGID_00000098223139815331601640000005660389091089753755_);" d="M486.2,214.2c4.7,0,8.6-3.8,8.6-8.6
		c0-4.7-3.8-8.6-8.6-8.6s-8.6,3.8-8.6,8.6C477.7,210.3,481.5,214.2,486.2,214.2z"/>
	<path class="st2" d="M490,209l-2.9-7c-0.2-0.4-0.4-0.5-0.7-0.5h-0.3c-0.3,0-0.6,0.2-0.7,0.5l-1.3,3.1h-1c-0.3,0-0.5,0.2-0.5,0.5
		l0,0c0,0.3,0.2,0.5,0.5,0.5h0.5l-1.1,2.9c0,0.1,0,0.1,0,0.2c0,0.2,0.1,0.3,0.1,0.4s0.2,0.1,0.4,0.1c0.1,0,0.2,0,0.3-0.1
		c0.1-0.1,0.2-0.2,0.2-0.3l1.3-3.3h0.9c0.3,0,0.5-0.2,0.5-0.5l0,0c0-0.3-0.2-0.5-0.5-0.5h-0.5l1-2.5l2.8,6.9
		c0.1,0.1,0.1,0.2,0.2,0.3s0.2,0.1,0.3,0.1c0.2,0,0.3,0,0.4-0.1s0.1-0.2,0.1-0.4C490,209.1,490,209,490,209z"/>
	
		<animateTransform  accumulate="none" additive="replace" attributeName="transform" calcMode="linear" dur="60s" fill="remove" keyTimes="0;0.5;1" repeatCount="indefinite" restart="always" type="translate" values="1 0;-390 0;1 0;" xmlns="http://www.w3.org/2000/svg">
		</animateTransform>
</g>
<line class="st8" x1="9.8" y1="306.5" x2="224.9" y2="306.5"/>
<line class="st8" x1="9.8" y1="331.5" x2="224.9" y2="331.5"/>
<line class="st8" x1="9.8" y1="428.9" x2="224.9" y2="428.9"/>
<line class="st8" x1="9.8" y1="331.5" x2="224.9" y2="331.5"/>
<line class="st8" x1="9.8" y1="331.5" x2="224.9" y2="331.5"/>
<line class="st8" x1="9.8" y1="396.4" x2="224.9" y2="396.4"/>
<line class="st8" x1="9.8" y1="363.9" x2="224.9" y2="363.9"/>
<g>
	<text transform="matrix(1 0 0 1 52.8768 323.0415)" class="st59 st10 st60">Token</text>
	<text transform="matrix(1 0 0 1 107.9148 323.0415)" class="st59 st10 st60">Fund Type</text>
	<text transform="matrix(1 0 0 1 160.5282 323.0415)" class="st59 st10 st60">Risk profiles</text>
	<text transform="matrix(1 0 0 1 228.7846 323.0417)" class="st59 st10 st60">APY</text>
	<text transform="matrix(1 0 0 1 271.8855 323.0417)" class="st59 st10 st60">Staking Term</text>
	<g>
		<path class="st61" d="M38.8,356.5c4.7,0,8.6-3.8,8.6-8.6c0-4.7-3.8-8.6-8.6-8.6c-4.7,0-8.6,3.8-8.6,8.6
			C30.2,352.6,34,356.5,38.8,356.5z"/>
		<g>
			<g>
				<g>
					<g>
						<g>
							<g>
								<defs>
									<rect id="SVGID_00000173842301710192198030000008287378790211624839_" x="32.4" y="341.9" width="12.6" height="12.1"/>
								</defs>
								<clipPath id="SVGID_00000174588551995793056210000001996914708307836806_">
									<use xlink:href="#SVGID_00000173842301710192198030000008287378790211624839_"  style="overflow:visible;"/>
								</clipPath>
								<g style="clip-path:url(#SVGID_00000174588551995793056210000001996914708307836806_);">
									<path class="st2" d="M38.6,341.9c0.3-0.1,0.6,0.2,0.5,0.5c-0.1,0.2-0.4,0.3-0.6,0.1C38.3,342.3,38.4,342,38.6,341.9z
										 M35.6,342.2c0.2-0.1,0.4,0.1,0.4,0.3c0,0.2-0.2,0.4-0.4,0.3C35.4,342.7,35.4,342.3,35.6,342.2L35.6,342.2z M41.7,342.8
										c-0.3,0-0.3-0.5-0.1-0.5c0.2-0.1,0.4,0.1,0.4,0.3C42,342.7,41.9,342.8,41.7,342.8z M36.3,343.5c0.3-0.2,0.7,0.1,0.6,0.4
										c0,0.3-0.5,0.5-0.7,0.3C36,344.1,36.1,343.7,36.3,343.5z M40.6,343.7c0.1-0.3,0.6-0.3,0.8,0c0.1,0.3,0,0.6-0.3,0.7
										C40.8,344.4,40.4,344.1,40.6,343.7z M38.3,344.3c0-0.3,0.2-0.5,0.5-0.5c0.2,0,0.4,0.1,0.4,0.3c0.1,0.3,0,0.6-0.2,0.7
										c-0.1,0.1-0.3,0-0.4,0C38.4,344.8,38.2,344.6,38.3,344.3L38.3,344.3z M33.8,344.8c0.3-0.2,0.6,0.1,0.5,0.4
										c-0.1,0.2-0.4,0.3-0.6,0.2C33.6,345.2,33.6,344.9,33.8,344.8L33.8,344.8z M43.3,344.8c0.2-0.2,0.6,0,0.5,0.3
										c0,0.3-0.3,0.5-0.5,0.3C43.1,345.3,43.1,344.9,43.3,344.8L43.3,344.8z M39.5,345.3c0.4-0.1,0.8,0,1,0.4
										c0.3,0.4,0.1,1-0.3,1.3c-0.4,0.3-1.1,0-1.2-0.5C38.8,346,39.1,345.4,39.5,345.3L39.5,345.3z M37.4,345.3
										c0.4-0.2,0.9,0,1.1,0.4c0.2,0.4,0.1,1-0.4,1.2c-0.4,0.2-1,0.1-1.2-0.4C36.8,346.1,37,345.5,37.4,345.3L37.4,345.3z
										 M35.3,346.1c0-0.3,0.3-0.4,0.5-0.5c0.3,0,0.5,0.2,0.5,0.5s-0.2,0.5-0.5,0.5C35.5,346.7,35.2,346.4,35.3,346.1L35.3,346.1z
										 M41.5,345.7c0.3-0.2,0.8,0.1,0.7,0.5c0,0.4-0.5,0.7-0.8,0.4C41.1,346.4,41.2,345.8,41.5,345.7L41.5,345.7z M36.5,347.1
										c0.4-0.1,0.8,0.1,1,0.4c0.2,0.4,0.1,0.8-0.2,1.1c-0.4,0.4-1.1,0.2-1.3-0.3C35.8,347.8,36,347.2,36.5,347.1L36.5,347.1z
										 M40.5,347.1c0.4-0.1,0.8,0,1,0.4c0.3,0.4,0.1,1-0.2,1.2c-0.4,0.3-1,0.1-1.2-0.3C39.8,347.9,40,347.2,40.5,347.1
										L40.5,347.1z M34.2,347.5c0.3-0.1,0.7,0.2,0.5,0.6c-0.1,0.3-0.5,0.4-0.7,0.2C33.8,348,33.9,347.6,34.2,347.5L34.2,347.5z
										 M42.8,348c0-0.3,0.2-0.5,0.5-0.5c0.2,0,0.4,0.2,0.4,0.5s-0.4,0.5-0.6,0.4C42.9,348.2,42.8,348.1,42.8,348L42.8,348z
										 M32.6,347.7c0.2-0.1,0.4,0.1,0.4,0.3c0,0.2-0.4,0.3-0.5,0.1C32.4,348,32.5,347.7,32.6,347.7z M44.7,347.7
										c0.1-0.1,0.4,0,0.4,0.1c0.1,0.2-0.1,0.4-0.3,0.4C44.5,348.2,44.4,347.8,44.7,347.7z M37.6,348.8c0.5-0.1,1,0.3,1,0.8
										s-0.5,1-1,0.9c-0.4-0.1-0.7-0.5-0.7-0.9C36.9,349.3,37.2,348.9,37.6,348.8z M39.6,348.8c0.5-0.1,1.1,0.3,1.1,0.8
										s-0.5,1-1,0.9s-0.8-0.6-0.7-1.1C39,349.2,39.3,348.9,39.6,348.8L39.6,348.8z M35.7,349.2c0.4-0.1,0.7,0.3,0.5,0.7
										c-0.1,0.4-0.6,0.5-0.9,0.2C35.1,349.7,35.3,349.2,35.7,349.2z M41.6,349.2c0.3-0.1,0.7,0.1,0.7,0.5s-0.5,0.7-0.8,0.4
										C41.1,349.9,41.2,349.3,41.6,349.2L41.6,349.2z M43.2,350.9c-0.1-0.2,0.1-0.6,0.4-0.5c0.1,0,0.2,0.1,0.3,0.2
										c0,0.1,0,0.3-0.1,0.4C43.6,351.2,43.3,351.1,43.2,350.9z M33.8,350.4c0.2-0.2,0.6,0.1,0.5,0.4c0,0.3-0.3,0.4-0.5,0.3
										C33.6,350.9,33.6,350.6,33.8,350.4L33.8,350.4z M38.6,351c0.3-0.1,0.7,0.1,0.7,0.5s-0.5,0.7-0.8,0.4
										C38.1,351.7,38.2,351.1,38.6,351L38.6,351z M36.4,351.5c0.3-0.1,0.6,0.1,0.6,0.4s-0.2,0.5-0.5,0.4c-0.2,0-0.3-0.2-0.4-0.4
										C36.1,351.8,36.2,351.6,36.4,351.5L36.4,351.5z M40.8,351.5c0.3-0.2,0.7,0.1,0.6,0.4c0,0.3-0.4,0.6-0.7,0.3
										C40.5,352.1,40.5,351.7,40.8,351.5z M41.6,353.5c-0.1-0.2,0-0.4,0.2-0.5c0.2,0,0.3,0.2,0.3,0.3
										C42.1,353.6,41.7,353.7,41.6,353.5L41.6,353.5z M35.5,353.3c0-0.2,0.2-0.3,0.3-0.3c0.3,0,0.3,0.4,0.1,0.5
										C35.7,353.7,35.5,353.5,35.5,353.3L35.5,353.3z M38.4,353.5c0-0.2,0.3-0.3,0.5-0.2c0.1,0.1,0.2,0.2,0.2,0.3
										c0,0.1,0,0.1,0,0.2c-0.1,0.1-0.2,0.2-0.3,0.2C38.5,354,38.3,353.7,38.4,353.5z"/>
								</g>
							</g>
						</g>
					</g>
				</g>
			</g>
		</g>
	</g>
	<g>
		<g>
			<g>
				<g>
					<g>
						<g>
							<defs>
								<rect id="SVGID_00000161598113640790464240000011284674883916708535_" x="20.5" y="339.3" width="17.1" height="17.1"/>
							</defs>
							<clipPath id="SVGID_00000045613715608911929590000007284273781868343466_">
								<use xlink:href="#SVGID_00000161598113640790464240000011284674883916708535_"  style="overflow:visible;"/>
							</clipPath>
							<g style="clip-path:url(#SVGID_00000045613715608911929590000007284273781868343466_);">
								<path class="st52" d="M29.1,356.5c4.7,0,8.6-3.8,8.6-8.6c0-4.7-3.8-8.6-8.6-8.6c-4.7,0-8.6,3.8-8.6,8.6
									C20.5,352.6,24.4,356.5,29.1,356.5z"/>
								
									<linearGradient id="SVGID_00000087375442784239876520000011687443401225077902_" gradientUnits="userSpaceOnUse" x1="31.7117" y1="1460.1368" x2="28.4088" y2="1468.5632" gradientTransform="matrix(1 0 0 1 0 -1115.9998)">
									<stop  offset="0" style="stop-color:#03D1CF;stop-opacity:0.988"/>
									<stop  offset="1" style="stop-color:#4E09F8"/>
								</linearGradient>
								<path style="fill:url(#SVGID_00000087375442784239876520000011687443401225077902_);" d="M34.4,350.8l-5.3-7.7l-5.3,7.7h7.4
									l-2.1-3l-1,1.5H27l2.1-3.1l3.1,4.5L34.4,350.8z"/>
								<path class="st65" d="M29.1,356.2c4.6,0,8.3-3.7,8.3-8.3c0-4.6-3.7-8.3-8.3-8.3s-8.3,3.7-8.3,8.3
									C20.8,352.5,24.5,356.2,29.1,356.2z M37.6,347.9c0,4.7-3.8,8.6-8.6,8.6c-4.7,0-8.6-3.8-8.6-8.6c0-4.7,3.8-8.6,8.6-8.6
									S37.6,343.2,37.6,347.9z"/>
							</g>
						</g>
					</g>
				</g>
			</g>
		</g>
	</g>
	<text transform="matrix(1 0 0 1 51.2766 351.1319)" class="st59 st10 st60">GMS/ADA</text>
	<text transform="matrix(1 0 0 1 112.478 350.188)" class="st59 st10 st60">Liquidity</text>
	<text transform="matrix(1 0 0 1 164.9199 350.1872)" class="st59 st10 st60">High Yield</text>
	<g>
		<text transform="matrix(1 0 0 1 219.4959 350.7099)" class="st44 st12 st40">11%~17%</text>
	</g>
	<text transform="matrix(1 0 0 1 281.9111 350.2006)" class="st59 st10 st60">15 days</text>
	<g>
		<path class="st66" d="M47.1,382.2c-1.1,4.6-5.8,7.4-10.4,6.2c-4.6-1.1-7.4-5.8-6.2-10.4c1.1-4.6,5.8-7.4,10.4-6.2
			C45.4,373,48.2,377.6,47.1,382.2z"/>
		<path class="st52" d="M42.8,379.1c0.2-1.1-0.7-1.8-1.9-2.2l0.4-1.5l-0.9-0.2l-0.4,1.5c-0.2-0.1-0.5-0.1-0.8-0.2l0.4-1.5l-0.9-0.2
			l-0.4,1.5c-0.2,0-0.4-0.1-0.6-0.1l0,0l-1.3-0.3l-0.2,1l0.7,0.2c0.4,0.1,0.4,0.3,0.4,0.5c-0.4,1.4-0.7,2.8-1.1,4.2
			c0,0.1-0.2,0.3-0.4,0.2l-0.7-0.2l-0.5,1.1l1.2,0.3c0.1,0,0.3,0.1,0.4,0.1l0,0c0.1,0,0.2,0,0.3,0.1l-0.4,1.6l0.9,0.2l0.4-1.5
			c0.3,0.1,0.5,0.1,0.7,0.2l-0.4,1.5l0.9,0.2L39,384c1.6,0.3,2.8,0.2,3.3-1.3c0.4-1.2,0-1.8-0.9-2.3
			C42.3,380.3,42.7,379.9,42.8,379.1z M40.7,382.1c-0.3,1.1-1.9,0.6-2.7,0.4l0,0c-0.1,0-0.1,0-0.2,0l0.5-2.1c0.1,0,0.1,0,0.2,0.1
			C39.3,380.6,41,381,40.7,382.1z M38.7,379.5c0.6,0.2,2,0.5,2.3-0.4c0.2-1-1.1-1.3-1.8-1.4c-0.1,0-0.1,0-0.2,0l-0.5,1.9
			C38.6,379.5,38.7,379.5,38.7,379.5z"/>
	</g>
	<text transform="matrix(1 0 0 1 51.2766 383.3663)" class="st59 st10 st60">HT/BTC</text>
	<text transform="matrix(1 0 0 1 117.9926 382.4224)" class="st59 st10 st60">Swap</text>
	<g>
		<path class="st2" d="M33.2,407.3h10.9v10.9H33.2V407.3z"/>
		<path class="st67" d="M37.3,404.2c-3.2,0.6-5.7,2.8-6.7,5.8c-1.7,5.4,2.1,10.9,7.7,11.2c0.6,0,1.2,0,1.6,0
			c4.3-0.6,7.4-4.2,7.4-8.5c0-4-2.7-7.5-6.6-8.4C39.8,404.1,38.1,404,37.3,404.2z M37.3,408.8c-0.1,0.8-0.6,1.6-1.3,2.1
			c-0.4,0.3-0.6,0.4-1.4,0.5h-0.2v-1.5v-1.5h1.5h1.5L37.3,408.8z M43.2,409.9v1.5h-1.5h-1.5v3v3h-1.5h-1.5V414c0-3.3,0-3.3,0.2-3.7
			c0.3-0.8,1.2-1.6,2.1-1.8c0.2,0,1-0.1,1.9-0.1h1.7L43.2,409.9L43.2,409.9z"/>
	</g>
	<text transform="matrix(1 0 0 1 164.9199 382.4216)" class="st59 st10 st60">High Yield</text>
	<g>
		<text transform="matrix(1 0 0 1 219.4959 382.9443)" class="st44 st12 st40">4%~7%</text>
	</g>
	<text transform="matrix(1 0 0 1 281.9111 382.435)" class="st59 st10 st60">7 days</text>
	<g>
		<path class="st50" d="M29.1,421.2c4.7,0,8.6-3.8,8.6-8.6c0-4.7-3.8-8.6-8.6-8.6c-4.7,0-8.6,3.8-8.6,8.6
			C20.5,417.4,24.4,421.2,29.1,421.2z"/>
		<path class="st2" d="M31.8,410.3l-2.8-3.8l-2.7,3.8l-1.4,5.9l4.1,2.4l4.2-2.4L31.8,410.3z M32.8,415.5l-1.1-1.9l-0.6-1l0.6-1.9
			L32.8,415.5z M32.9,416.1H30l1-3.2l0.5,0.8L32.9,416.1z M29.2,407l2.4,3.3l-0.6,2l-1.8-3V407z M29.2,409.7l1.7,3l-1.1,3.4h-1.3
			l-1.1-3.4L29.2,409.7z M29,407v2.3l-1.7,3l-0.7-2L29,407z M26.5,410.8l0.6,1.8l-1.7,2.9L26.5,410.8z M27.2,413l1,3.2h-2.9
			L27.2,413z M25.5,416.2h2.8l0.6,2L25.5,416.2z M28.5,416.2h1.2l-0.6,1.9L28.5,416.2z M29.3,418.2l0.6-2h2.8L29.3,418.2z"/>
	</g>
	<text transform="matrix(1 0 0 1 51.2766 415.8593)" class="st59 st10 st60">EOS/TUSD</text>
	<text transform="matrix(1 0 0 1 112.478 414.9153)" class="st59 st10 st60">Liquidity</text>
	<text transform="matrix(1 0 0 1 164.9199 414.9146)" class="st59 st10 st60">High Yield</text>
	<g>
		<text transform="matrix(1 0 0 1 219.4959 415.4373)" class="st44 st12 st40">23%~37%</text>
	</g>
	<text transform="matrix(1 0 0 1 281.9111 414.9279)" class="st59 st10 st60">30 days</text>
	<g>
		<path class="st68" d="M29.1,388.7c4.7,0,8.6-3.8,8.6-8.6c0-4.7-3.8-8.6-8.6-8.6c-4.7,0-8.6,3.8-8.6,8.6
			C20.5,384.9,24.4,388.7,29.1,388.7z"/>
		<g>
			<g>
				<g>
					<g>
						<g>
							<g>
								<defs>
									<rect id="SVGID_00000059306272176143606820000002591215834906047377_" x="25.3" y="374" width="7.5" height="12.3"/>
								</defs>
								<clipPath id="SVGID_00000011748610917496906600000002325887536649223331_">
									<use xlink:href="#SVGID_00000059306272176143606820000002591215834906047377_"  style="overflow:visible;"/>
								</clipPath>
								<g style="clip-path:url(#SVGID_00000011748610917496906600000002325887536649223331_);">
									<path class="st2" d="M30.3,377.8c0-1.8-0.8-3.3-1.4-3.8l0,0c-0.1,3.4-1.7,4.3-2.6,5.6c-2.1,2.9-0.1,6,1.8,6.6
										c1.1,0.3-0.3-0.6-0.4-2.5C27.4,381.4,30.3,379.7,30.3,377.8z"/>
									<path class="st2" d="M31.3,378.9L31.3,378.9L31.3,378.9c-0.1,0.4-0.5,1.4-1.1,2.2c-1.9,2.9-0.8,4.2-0.2,5
										c0.3,0.4,0,0,0.9-0.4c0.1,0,1.7-1,1.9-3.1C33,380.6,31.8,379.3,31.3,378.9z"/>
								</g>
							</g>
						</g>
					</g>
				</g>
			</g>
		</g>
	</g>
	
		<animateTransform  accumulate="none" additive="replace" attributeName="transform" calcMode="linear" dur="30s" fill="remove" keyTimes="0;0.5;1" repeatCount="indefinite" restart="always" type="translate" values="1 0;-100 0;1 0;" xmlns="http://www.w3.org/2000/svg">
		</animateTransform>
</g>
<rect x="-0.5" y="154.3" class="st2" width="10.3" height="296.5"/>
<rect x="225.1" y="154.3" class="st2" width="10.3" height="296.5"/>
<path class="st9" d="M24.2,34.9c0.1,0,0.2,0,0.4,0c3,0,6.1,0,9.1,0c0.8,0,1.4-0.5,1.5-1.1c0.1-0.4,0-0.8,0-1.2
	c-0.2-1.3-0.9-2.5-1.8-3.5c-0.5-0.5-0.6-1.1-0.3-1.6c0.4-0.8,1.5-1,2.2-0.3c1.1,1.1,1.9,2.4,2.3,3.8c1.4,4.5-0.7,9.3-5,11.4
	c-1.3,0.6-2.6,0.9-4,0.9c-0.6,0-1.2-0.5-1.3-1c-0.1-0.7,0.1-1.3,0.7-1.5c0.2-0.1,0.5-0.1,0.7-0.1c1.4,0,2.6-0.4,3.7-1.2
	c0.4-0.3,0.6-0.7,0.5-1.1c-0.1-0.7-0.8-1.1-1.5-0.7c-0.4,0.2-0.8,0.5-1.3,0.6c-2.4,0.9-5.1-0.5-5.8-2.9C24.3,35.1,24.3,35,24.2,34.9
	z"/>
<path class="st9" d="M19.1,34.1c0-4.3,2.5-7.8,6.3-9.2c1-0.4,2-0.5,3.1-0.5c0.8,0,1.4,0.5,1.4,1.3c0,0.8-0.5,1.4-1.3,1.4
	c-0.7,0-1.4,0.1-2.1,0.3c-2.4,0.8-3.9,2.5-4.5,5c-0.5,2.4,0.1,4.4,1.8,6.2c0.4,0.5,0.5,1,0.3,1.6c-0.2,0.5-0.7,0.8-1.3,0.7
	c-0.4,0-0.6-0.2-0.9-0.4C20.1,38.6,19.2,36.4,19.1,34.1z"/>
<path class="st9" d="M33,32.7c-2.9,0-5.8,0-8.7,0c0.1-0.7,0.4-1.2,0.9-1.7c0.8-1,1.8-1.5,3.1-1.6c1.3-0.1,2.5,0.3,3.5,1.2
	C32.3,31.1,32.7,31.8,33,32.7z"/>
</svg>
