<?xml version="1.0" encoding="utf-8"?>
<!-- Generator: Adobe Illustrator 27.0.0, SVG Export Plug-In . SVG Version: 6.00 Build 0)  -->
<svg version="1.1" id="图层_1" xmlns="http://www.w3.org/2000/svg" xmlns:xlink="http://www.w3.org/1999/xlink" x="0px" y="0px"
	 viewBox="0 0 236.2 470" style="enable-background:new 0 0 236.2 470;" xml:space="preserve">
<style type="text/css">
	.st0{opacity:0.3;fill:none;stroke:#DDDDDD;stroke-width:0.5;stroke-miterlimit:10;enable-background:new    ;}
	.st1{fill:#4C4C4C;}
	.st2{display:none;fill:none;stroke:#000000;stroke-width:0.25;stroke-miterlimit:10;}
	.st3{fill:#B8BAC0;}
	.st4{fill:#FFFFFF;}
	.st5{fill:#D7DBE0;}
	.st6{fill:#1652F0;}
	.st7{fill:#EEF0F3;}
	.st8{fill:#0A0B0D;}
	.st9{fill:#CF2030;}
	.st10{opacity:0.3;fill:none;stroke:#6E6E6E;stroke-width:0.5;stroke-miterlimit:10;enable-background:new    ;}
	.st11{fill:#0052FF;}
	.st12{font-family:'ArialMT';}
	.st13{font-size:12px;}
	.st14{fill:#282828;}
	.st15{font-family:'Arial-BoldMT';}
	.st16{font-size:10.0591px;}
	.st17{fill:#2775CA;}
	.st18{fill:#898989;}
	.st19{font-size:5.8038px;}
	.st20{opacity:0.1;}
	.st21{font-size:6.9661px;}
	.st22{fill-rule:evenodd;clip-rule:evenodd;fill:#898989;}
	.st23{fill-rule:evenodd;clip-rule:evenodd;fill:#FFFFFF;}
	.st24{opacity:0.1;fill:#898989;enable-background:new    ;}
	.st25{font-size:5.6077px;}
	.st26{font-size:10px;}
	.st27{opacity:0.3;fill:none;stroke:#6E6E6E;stroke-width:0.25;stroke-miterlimit:10;enable-background:new    ;}
	.st28{fill:#5F6571;}
	.st29{font-size:8px;}
	.st30{fill:#1A202C;}
	.st31{font-size:9px;}
	.st32{font-size:7px;}
	.st33{fill:#2B5971;}
	.st34{clip-path:url(#SVGID_00000163785794655835097810000001488142179154088632_);}
	.st35{fill:#583A2F;}
	.st36{fill:#F1C9A5;}
	.st37{fill:#E4B692;}
	.st38{opacity:0.1;fill:#DDAC8C;enable-background:new    ;}
	.st39{fill:#C51C39;}
	.st40{fill:none;stroke:#FFFFFF;stroke-width:0.25;stroke-linecap:round;stroke-linejoin:round;}
	
		.st41{fill:none;stroke:#FFFFFF;stroke-width:0.25;stroke-linecap:round;stroke-linejoin:round;stroke-dasharray:4.790000e-02,1.9175;}
	.st42{fill:#57B4FC;}
	.st43{fill:#14B0BF;}
	.st44{clip-path:url(#SVGID_00000129886489295311765920000000999115682946130316_);}
	.st45{fill:#0D313D;}
	.st46{fill:#F1F2F2;}
	.st47{fill:#2B5770;}
	.st48{fill:#262421;}
</style>
<path class="st0" d="M220.7,100.8H15.5c-2.6,0-4.7-2.1-4.7-4.7V62c0-2.6,2.1-4.7,4.7-4.7h205.2c2.6,0,4.7,2.1,4.7,4.7v34.1
	C225.4,98.7,223.3,100.8,220.7,100.8z"/>
<rect x="8.1" y="0" class="st1" width="219.5" height="15.2"/>
<rect x="8.3" y="0" class="st2" width="219.5" height="445.1"/>
<g>
	<circle class="st3" cx="205" cy="33.7" r="10.9"/>
</g>
<g>
	<g>
		<path class="st4" d="M205,39.2c-1.3,0-2.4-0.5-3.3-1.4c0,0.5,0,1.3-0.2,1.8c0.1,0.1,0.2,0.1,0.2,0.3c0.2,1.5,1.6,2.6,3.2,2.6
			c1.7,0,3.1-1.1,3.2-2.6c0-0.1,0.1-0.2,0.2-0.3c-0.1-0.6-0.2-1.3-0.2-1.8C207.4,38.6,206.2,39.2,205,39.2z"/>
	</g>
</g>
<g>
	<g>
		<path class="st5" d="M208.1,37.8c-0.8,0.8-2,1.4-3.2,1.4c-1.3,0-2.4-0.5-3.3-1.4c0,0.5,0,1.3-0.2,1.8c0.1,0.1,0.2,0.1,0.2,0.3
			c0.1,0.7,0.4,1.2,0.9,1.7C204.8,41.2,207.2,39.1,208.1,37.8z"/>
	</g>
</g>
<g>
	<g>
		<path class="st4" d="M208.2,30.1H202c-1,0-1.8,0.8-1.8,1.8v2.2c0,2.8,2.1,5.1,4.7,5.1c2.6,0,4.7-2.3,4.7-5.1v-2.5
			C209.7,30.8,209,30.1,208.2,30.1z"/>
	</g>
</g>
<g>
	<g>
		<path class="st6" d="M207.5,26.1h-4.7c-0.7,0-1.3,0.5-1.4,1.1c-1.2,0.2-2.2,1.2-2.2,2.5v1.8c0,0.9,0.4,1.8,1.1,2.4v-2.1
			c0-1,0.8-1.8,1.8-1.8h6.2c0.8,0,1.4,0.7,1.4,1.4V34c0.7-0.6,1.1-1.5,1.1-2.4v-2.2C210.8,27.6,209.3,26.1,207.5,26.1z"/>
	</g>
</g>
<g>
	<path class="st6" d="M196.9,41c2,2.2,4.9,3.6,8.1,3.6s6.1-1.4,8.1-3.6c-0.3-0.5-0.8-0.9-1.5-1l0,0l-2.9-0.4h-0.1
		c-0.2,0-0.3,0.1-0.4,0.3c-0.2,1.5-1.6,2.6-3.2,2.6c-1.7,0-3.1-1.1-3.2-2.6c0-0.2-0.2-0.3-0.4-0.3c0,0,0,0-0.1,0l-2.9,0.4l0,0
		C197.7,40.2,197.2,40.5,196.9,41z"/>
</g>
<rect x="186.4" y="25.6" class="st7" width="0.8" height="16.3"/>
<circle class="st7" cx="169.2" cy="33.8" r="10.4"/>
<circle class="st8" cx="166.8" cy="31.3" r="0.9"/>
<circle class="st8" cx="169.2" cy="31.3" r="0.9"/>
<circle class="st8" cx="171.7" cy="31.3" r="0.9"/>
<circle class="st8" cx="166.7" cy="33.8" r="0.9"/>
<circle class="st8" cx="169.2" cy="33.8" r="0.9"/>
<circle class="st8" cx="171.7" cy="33.8" r="0.9"/>
<circle class="st8" cx="166.7" cy="36.3" r="0.9"/>
<circle class="st8" cx="169.1" cy="36.3" r="0.9"/>
<circle class="st8" cx="171.6" cy="36.3" r="0.9"/>
<circle class="st7" cx="142.6" cy="33.8" r="10.4"/>
<circle class="st9" cx="148" cy="28.4" r="2.4"/>
<path class="st8" d="M144.4,33.9v-1.4c0-0.2,0-0.4-0.1-0.6l0,0c-0.1-0.2-0.2-0.4-0.4-0.5c-0.2-0.2-0.3-0.3-0.5-0.4l0,0
	c-0.2-0.1-0.4-0.1-0.6-0.1c-0.2,0-0.4,0-0.6,0.1l0,0c-0.2,0.1-0.4,0.2-0.5,0.4c-0.2,0.2-0.3,0.3-0.4,0.5l0,0
	c-0.1,0.2-0.1,0.4-0.1,0.6l0,0v1.4l-0.7,1.5h4.8L144.4,33.9z M139.4,36.2v-0.8l0.8-1.7v-1.2c0-0.3,0.1-0.7,0.2-1l0,0
	c0.1-0.3,0.3-0.6,0.5-0.8c0.2-0.2,0.5-0.4,0.8-0.5l0,0c0.3-0.1,0.6-0.2,1-0.2s0.7,0.1,1,0.2l0,0c0.3,0.1,0.6,0.3,0.8,0.5
	s0.4,0.5,0.5,0.8l0,0c0.1,0.3,0.2,0.6,0.2,1l0,0v1.2l0.8,1.7v0.8H139.4z M141.5,37.4h2.5v-0.8h-2.5V37.4z"/>
<line class="st10" x1="8.1" y1="51.8" x2="227.6" y2="51.8"/>
<path class="st11" d="M113.1,42.4H65.9c-5.2,0-9.3-4.2-9.3-9.3l0,0c0-5.2,4.2-9.3,9.3-9.3h47.2c5.2,0,9.3,4.2,9.3,9.3l0,0
	C122.4,38.2,118.3,42.4,113.1,42.4z"/>
<text transform="matrix(1 0 0 1 69.0847 37.3189)" class="st4 st12 st13">AI Earn</text>
<path class="st4" d="M29.9,7.7c-0.2,0.2-0.4,0.4-0.6,0.5s-0.5,0.2-0.8,0.2c-0.4,0-0.7-0.1-0.9-0.3c-0.3-0.2-0.5-0.4-0.6-0.7
	c-0.1-0.3-0.2-0.7-0.2-1.1s0.1-0.8,0.2-1.1c0.2-0.3,0.4-0.6,0.7-0.8c0.3-0.2,0.6-0.3,1-0.3c0.6,0,1.1,0.2,1.5,0.7s0.5,1.1,0.5,1.9V7
	c0,1.2-0.2,2.1-0.7,2.7s-1.2,0.8-2.2,0.9h-0.2V9.9h0.2c0.7,0,1.2-0.2,1.5-0.5C29.7,9,29.9,8.4,29.9,7.7z M28.7,7.7
	c0.3,0,0.5-0.1,0.7-0.2c0.2-0.2,0.4-0.4,0.5-0.6V6.6c0-0.5-0.1-0.9-0.3-1.3c-0.2-0.3-0.5-0.5-0.9-0.5c-0.3,0-0.6,0.1-0.8,0.4
	c-0.2,0.3-0.3,0.6-0.3,1.1c0,0.4,0.1,0.8,0.3,1.1C28.1,7.6,28.4,7.7,28.7,7.7z M42.6,7.7c-0.2,0.2-0.4,0.4-0.6,0.5
	c-0.2,0.1-0.5,0.2-0.8,0.2c-0.4,0-0.7-0.1-0.9-0.3c-0.3-0.2-0.5-0.4-0.6-0.7c-0.1-0.3-0.2-0.7-0.2-1.1s0.1-0.8,0.2-1.1
	c0.2-0.3,0.4-0.6,0.7-0.8s0.6-0.3,1-0.3c0.6,0,1.1,0.2,1.5,0.7s0.5,1.1,0.5,1.9V7c0,1.2-0.2,2.1-0.7,2.7s-1.2,0.8-2.2,0.9h-0.2V9.9
	h0.2c0.7,0,1.2-0.2,1.5-0.5C42.4,9,42.5,8.4,42.6,7.7z M41.4,7.7c0.3,0,0.5-0.1,0.7-0.2c0.2-0.2,0.4-0.4,0.5-0.6V6.6
	c0-0.5-0.1-0.9-0.3-1.3c-0.2-0.3-0.5-0.5-0.9-0.5c-0.3,0-0.6,0.1-0.8,0.4s-0.3,0.6-0.3,1.1c0,0.4,0.1,0.8,0.3,1.1
	C40.7,7.6,41,7.7,41.4,7.7z M31.9,10.1c0-0.1,0-0.3,0.1-0.3c0.1-0.1,0.2-0.1,0.4-0.1s0.3,0,0.4,0.1c0.1,0.1,0.1,0.2,0.1,0.3
	s0,0.2-0.1,0.3s-0.2,0.1-0.4,0.1s-0.3,0-0.4-0.1C31.9,10.3,31.9,10.2,31.9,10.1z M31.9,6.3c0-0.1,0-0.3,0.1-0.3
	c0.1-0.1,0.2-0.1,0.4-0.1s0.3,0,0.4,0.1c0.1,0.1,0.1,0.2,0.1,0.3s0,0.2-0.1,0.3c-0.1,0.1-0.2,0.1-0.4,0.1s-0.3,0-0.4-0.1
	C31.9,6.5,31.9,6.4,31.9,6.3z M37.2,10.5h-0.8V5.2l-1.6,0.6V5.1l2.3-0.9h0.1V10.5z"/>
<path class="st4" d="M207.9,4.4h-0.6V3.7h-2.2v0.7h-0.6c-0.1,0-0.3,0.1-0.3,0.1s-0.1,0.2-0.1,0.3v5.6c0,0.3,0.2,0.5,0.5,0.5h3.4
	c0.1,0,0.3-0.1,0.3-0.1c0.1-0.1,0.1-0.2,0.1-0.3V4.9C208.4,4.6,208.2,4.4,207.9,4.4z"/>
<path class="st4" d="M193.4,10.6h7.3V3.3"/>
<path class="st4" d="M188.6,4c-1.5,0-3,0.5-4.3,1.5c1.5,1.9,2.7,3.4,4.3,5.3c1.5-1.9,3-3.8,4.3-5.3C191.7,4.5,190.2,4,188.6,4z"/>
<text transform="matrix(1 0 0 1 27.2511 85.1702)" class="st14 st15 st16">5,572.30</text>
<g>
	<path class="st17" d="M20.5,85.5c2.4,0,4.4-2,4.4-4.4s-2-4.4-4.4-4.4s-4.4,2-4.4,4.4C16.1,83.6,18.1,85.5,20.5,85.5z"/>
	<path class="st4" d="M21.8,81.8c0-0.7-0.4-0.8-1.2-1C20,80.7,20,80.5,20,80.3s0.2-0.4,0.6-0.4c0.3,0,0.5,0.1,0.6,0.4
		c0,0.1,0.1,0.1,0.2,0.1h0.3c0.1,0,0.2-0.1,0.2-0.2l0,0c-0.1-0.4-0.4-0.8-0.8-0.8V79c0-0.1-0.1-0.2-0.2-0.2h-0.3
		c-0.1,0-0.2,0.1-0.2,0.2v0.4c-0.6,0.1-0.9,0.4-0.9,0.9c0,0.6,0.3,0.8,1.2,0.9c0.5,0.1,0.7,0.2,0.7,0.5s-0.3,0.5-0.6,0.5
		c-0.5,0-0.7-0.2-0.7-0.5c0-0.1-0.1-0.1-0.2-0.1h-0.3c-0.1,0-0.2,0.1-0.2,0.2l0,0c0.1,0.5,0.3,0.8,1,0.9v0.4c0,0.1,0.1,0.2,0.2,0.2
		h0.3c0.1,0,0.2-0.1,0.2-0.2v-0.4C21.5,82.6,21.8,82.3,21.8,81.8L21.8,81.8z"/>
	<path class="st4" d="M19.6,83.7c-1.4-0.5-2.2-2.1-1.7-3.5c0.3-0.8,0.9-1.3,1.7-1.7c0.1,0,0.1-0.1,0.1-0.2V78c0-0.1,0-0.2-0.1-0.2
		h-0.1c-1.8,0.6-2.8,2.4-2.2,4.2c0.3,1,1.1,1.8,2.2,2.2c0.1,0,0.2,0,0.2-0.1c0,0,0,0,0-0.1v-0.3C19.8,83.8,19.7,83.7,19.6,83.7z
		 M21.6,77.9c-0.1,0-0.2,0-0.2,0.1c0,0,0,0,0,0.1v0.3c0,0.1,0.1,0.2,0.1,0.2c1.4,0.5,2.2,2.1,1.7,3.5c-0.3,0.8-0.9,1.3-1.7,1.7
		c-0.1,0-0.1,0.1-0.1,0.2v0.3c0,0.1,0,0.2,0.1,0.2h0.1c1.8-0.6,2.8-2.4,2.2-4.2C23.5,79,22.6,78.3,21.6,77.9L21.6,77.9z"/>
</g>
<g>
	<text transform="matrix(1 0 0 1 15.8916 96.053)" class="st18 st12 st19">Team bonus</text>
</g>
<g class="st20">
	<path class="st18" d="M192.6,88.2c1.2,0,2.2-1,2.2-2.2s-1-2.2-2.2-2.2s-2.2,1-2.2,2.2S191.4,88.2,192.6,88.2z"/>
	<path class="st18" d="M195,88.9c-0.2-0.3-0.5-0.5-0.9-0.5c0,0-2.3,0-3.1,0c-0.4,0-0.7,0.2-0.8,0.5l-2,3.9c-0.1,0.2-0.1,0.5-0.1,0.7
		c0.1,0.2,0.2,0.4,0.4,0.5c0.1,0.1,0.2,0.1,0.4,0.1c0,0,0,0,0.1,0c0.3,0,0.6-0.2,0.8-0.5l0.6-1.1V94c0,0.2,0.2,0.4,0.4,0.4h3.5
		c0.2,0,0.4-0.2,0.4-0.4v-1.6l0.6,1.2c0.2,0.3,0.5,0.5,0.8,0.5c0,0,0,0,0.1,0s0.2,0,0.3-0.1c0.2-0.1,0.4-0.3,0.4-0.5
		c0.1-0.2,0.1-0.5-0.1-0.7L195,88.9z"/>
	<path class="st18" d="M200.8,86c0,1.2,1,2.2,2.2,2.2s2.2-1,2.2-2.2s-1-2.2-2.2-2.2C201.8,83.9,200.8,84.8,200.8,86z"/>
	<path class="st18" d="M205.5,88.9c-0.2-0.3-0.4-0.5-0.9-0.5h-3.1c-0.3,0-0.7,0.2-0.8,0.5l-2,3.9c-0.1,0.2-0.1,0.5-0.1,0.7
		c0.1,0.2,0.2,0.4,0.4,0.5c0.1,0.1,0.2,0.1,0.4,0.1c0,0,0,0,0.1,0c0.3,0,0.6-0.2,0.8-0.5l0.6-1.1V94c0,0.2,0.2,0.4,0.4,0.4h3.5
		c0.2,0,0.4-0.2,0.4-0.4v-1.6l0.6,1.2c0.2,0.3,0.5,0.5,0.8,0.5c0,0,0,0,0.1,0s0.2,0,0.4-0.1s0.4-0.3,0.4-0.5s0.1-0.5-0.1-0.7
		L205.5,88.9z"/>
	<path class="st18" d="M211.5,86c0,1.2,1,2.2,2.2,2.2s2.2-1,2.2-2.2s-1-2.2-2.2-2.2C212.5,83.9,211.5,84.8,211.5,86z"/>
	<path class="st18" d="M218.2,92.9l-2-3.9c-0.2-0.3-0.4-0.5-0.9-0.5c0,0-2.3,0-3.1,0c-0.4,0-0.7,0.2-0.8,0.5l-2,3.9
		c-0.1,0.2-0.1,0.5-0.1,0.7c0.1,0.2,0.2,0.4,0.4,0.5c0.1,0.1,0.2,0.1,0.4,0.1c0,0,0,0,0.1,0c0.3,0,0.6-0.2,0.8-0.5l0.6-1.1v1.5
		c0,0.2,0.2,0.4,0.4,0.4h3.5c0.2,0,0.4-0.2,0.4-0.4v-1.6l0.6,1.2c0.2,0.3,0.5,0.5,0.8,0.5c0,0,0,0,0.1,0s0.2,0,0.4-0.1
		s0.4-0.3,0.4-0.5C218.3,93.3,218.3,93.1,218.2,92.9z"/>
	<path class="st18" d="M192.4,83c0.3,0,0.5-0.2,0.5-0.5v-1.6h9.7v1.6c0,0.3,0.2,0.5,0.5,0.5s0.5-0.2,0.5-0.5v-1.6h9.7v1.6
		c0,0.3,0.2,0.5,0.5,0.5s0.5-0.2,0.5-0.5v-1.9c0-0.4-0.3-0.7-0.7-0.7h-10v-1c0-0.3-0.2-0.5-0.5-0.5s-0.5,0.2-0.5,0.5v1h-10
		c-0.4,0-0.7,0.3-0.7,0.7v1.9C191.9,82.8,192.2,83,192.4,83z"/>
	<path class="st18" d="M203.2,78.4c4.1,0,7.4-3.3,7.4-7.4s-3.3-7.4-7.4-7.4s-7.4,3.3-7.4,7.4S199.1,78.4,203.2,78.4z M202.8,71.6
		c-1.4-0.5-2.2-1.2-2.2-2.4c0-1.1,0.7-2,2.1-2.3v-1.2h1v1.2c0.8,0,1.5,0.2,1.9,0.4l-0.4,1.5c-0.3-0.1-0.9-0.4-1.6-0.4
		c-0.8,0-1.2,0.4-1.2,0.7c0,0.5,0.5,0.7,1.5,1.1c1.4,0.5,2,1.2,2,2.4c0,1.2-0.7,2-2.2,2.4v1.2h-1v-1.1c-0.9,0-1.8-0.2-2.2-0.5
		l0.4-1.5c0.5,0.2,1.2,0.5,2,0.5s1.3-0.4,1.3-0.9S203.8,72,202.8,71.6z"/>
</g>
<g>
	<text transform="matrix(1 0 0 1 15.8921 68.0145)" class="st18 st15 st21">Count days</text>
	<text transform="matrix(1 0 0 1 53.7921 68.0145)" class="st18 st12 st21">:1/12/2022 0:00 - 5/12/2022 0:00</text>
</g>
<text transform="matrix(1 0 0 1 27.2511 127.5019)" class="st14 st15 st16">5,572.30</text>
<g>
	<path class="st17" d="M20.5,127.8c2.4,0,4.4-2,4.4-4.4s-2-4.4-4.4-4.4s-4.4,2-4.4,4.4C16.1,125.9,18.1,127.8,20.5,127.8z"/>
	<path class="st4" d="M21.8,124.1c0-0.7-0.4-0.8-1.2-1c-0.6-0.1-0.7-0.3-0.7-0.5s0.2-0.4,0.6-0.4c0.3,0,0.5,0.1,0.6,0.4
		c0,0.1,0.1,0.1,0.2,0.1h0.3c0.1,0,0.2-0.1,0.2-0.2l0,0c-0.1-0.4-0.4-0.8-0.8-0.8v-0.4c0-0.1-0.1-0.2-0.2-0.2h-0.3
		c-0.1,0-0.2,0.1-0.2,0.2v0.4c-0.6,0.1-0.9,0.4-0.9,0.9c0,0.6,0.3,0.8,1.2,0.9c0.5,0.1,0.7,0.2,0.7,0.5s-0.3,0.5-0.6,0.5
		c-0.5,0-0.7-0.2-0.7-0.5c0-0.1-0.1-0.1-0.2-0.1h-0.3c-0.1,0-0.2,0.1-0.2,0.2l0,0c0.1,0.5,0.3,0.8,1,0.9v0.4c0,0.1,0.1,0.2,0.2,0.2
		h0.3c0.1,0,0.2-0.1,0.2-0.2V125C21.5,125,21.8,124.6,21.8,124.1L21.8,124.1z"/>
	<path class="st4" d="M19.6,126.1c-1.4-0.5-2.2-2.1-1.7-3.5c0.3-0.8,0.9-1.3,1.7-1.7c0.1,0,0.1-0.1,0.1-0.2v-0.3
		c0-0.1,0-0.2-0.1-0.2h-0.1c-1.8,0.6-2.8,2.4-2.2,4.2c0.3,1,1.1,1.8,2.2,2.2c0.1,0,0.2,0,0.2-0.1c0,0,0,0,0-0.1v-0.3
		C19.8,126.1,19.7,126.1,19.6,126.1z M21.6,120.3c-0.1,0-0.2,0-0.2,0.1c0,0,0,0,0,0.1v0.3c0,0.1,0.1,0.2,0.1,0.2
		c1.4,0.5,2.2,2.1,1.7,3.5c-0.3,0.8-0.9,1.3-1.7,1.7c-0.1,0-0.1,0.1-0.1,0.2v0.3c0,0.1,0,0.2,0.1,0.2h0.1c1.8-0.6,2.8-2.4,2.2-4.2
		C23.5,121.4,22.6,120.6,21.6,120.3L21.6,120.3z"/>
</g>
<g>
	<text transform="matrix(1 0 0 1 15.8916 139.52)" class="st18 st12 st19">Level 1 bonus</text>
</g>
<path class="st0" d="M111.6,147.7H15.5c-2.6,0-4.7-2.1-4.7-4.7v-34.1c0-2.6,2.1-4.7,4.7-4.7h96.1c2.6,0,4.7,2.1,4.7,4.7V143
	C116.3,145.6,114.2,147.7,111.6,147.7z"/>
<g class="st20">
	<path class="st18" d="M90.6,110c-3.6,0-6.5,3-6.5,6.6s2.9,6.6,6.5,6.6s6.5-3,6.5-6.6S94.2,110,90.6,110z"/>
	<path class="st18" d="M94.5,133.2c0-2.4,1-4.6,2.7-6.1c-1.7-1-3.6-1.6-5.7-1.6h-2c-6.2,0-11.3,5.3-11.3,11.7c0,1.2,1,2.2,2.1,2.2
		h17C95.6,137.9,94.5,135.7,94.5,133.2z"/>
	<path class="st18" d="M102.8,126.9c-3.5,0-6.3,2.8-6.3,6.3s2.8,6.3,6.3,6.3s6.3-2.8,6.3-6.3C109.1,129.7,106.2,126.9,102.8,126.9z
		 M104.1,130.1v1h-0.2c-0.2,0-0.2,0-0.3,0.1c0,0.1-0.1,0.2-0.1,0.5v3.6c0,0.3,0,0.4,0.1,0.5c0,0.1,0.1,0.1,0.3,0.1h0.2v1h-2.5v-1
		h0.2c0.1,0,0.2,0,0.3-0.1c0-0.1,0.1-0.2,0.1-0.5v-3.7c0-0.3,0-0.4-0.1-0.5c0-0.1-0.1-0.1-0.3-0.1h-0.2v-1L104.1,130.1L104.1,130.1z
		"/>
</g>
<text transform="matrix(1 0 0 1 140.8511 127.5019)" class="st14 st15 st16">1,324.63</text>
<g>
	<path class="st17" d="M134.1,127.8c2.4,0,4.4-2,4.4-4.4s-2-4.4-4.4-4.4s-4.4,2-4.4,4.4C129.7,125.9,131.7,127.8,134.1,127.8z"/>
	<path class="st4" d="M135.4,124.1c0-0.7-0.4-0.8-1.2-1c-0.6-0.1-0.7-0.3-0.7-0.5s0.2-0.4,0.6-0.4c0.3,0,0.5,0.1,0.6,0.4
		c0,0.1,0.1,0.1,0.2,0.1h0.3c0.1,0,0.2-0.1,0.2-0.2l0,0c-0.1-0.4-0.4-0.8-0.8-0.8v-0.4c0-0.1-0.1-0.2-0.2-0.2h-0.3
		c-0.1,0-0.2,0.1-0.2,0.2v0.4c-0.6,0.1-0.9,0.4-0.9,0.9c0,0.6,0.3,0.8,1.2,0.9c0.5,0.1,0.7,0.2,0.7,0.5s-0.3,0.5-0.6,0.5
		c-0.5,0-0.7-0.2-0.7-0.5c0-0.1-0.1-0.1-0.2-0.1h-0.3c-0.1,0-0.2,0.1-0.2,0.2l0,0c0.1,0.5,0.3,0.8,1,0.9v0.4c0,0.1,0.1,0.2,0.2,0.2
		h0.3c0.1,0,0.2-0.1,0.2-0.2V125C135.1,125,135.4,124.6,135.4,124.1L135.4,124.1z"/>
	<path class="st4" d="M133.2,126.1c-1.4-0.5-2.2-2.1-1.7-3.5c0.3-0.8,0.9-1.3,1.7-1.7c0.1,0,0.1-0.1,0.1-0.2v-0.3
		c0-0.1,0-0.2-0.1-0.2h-0.1c-1.8,0.6-2.8,2.4-2.2,4.2c0.3,1,1.1,1.8,2.2,2.2c0.1,0,0.2,0,0.2-0.1c0,0,0,0,0-0.1L133.2,126.1
		C133.4,126.1,133.3,126.1,133.2,126.1z M135.2,120.3c-0.1,0-0.2,0-0.2,0.1c0,0,0,0,0,0.1v0.3c0,0.1,0.1,0.2,0.1,0.2
		c1.4,0.5,2.2,2.1,1.7,3.5c-0.3,0.8-0.9,1.3-1.7,1.7c-0.1,0-0.1,0.1-0.1,0.2v0.3c0,0.1,0,0.2,0.1,0.2h0.1c1.8-0.6,2.8-2.4,2.2-4.2
		C137.1,121.4,136.2,120.6,135.2,120.3L135.2,120.3z"/>
</g>
<g>
	<text transform="matrix(1 0 0 1 129.4916 139.52)" class="st18 st12 st19">Level 2 bonus</text>
</g>
<path class="st0" d="M220.7,147.5h-96.1c-2.6,0-4.7-2.1-4.7-4.7v-34.1c0-2.6,2.1-4.7,4.7-4.7h96.1c2.6,0,4.7,2.1,4.7,4.7v34.1
	C225.3,145.4,223.2,147.5,220.7,147.5z"/>
<g class="st20">
	<path class="st18" d="M203.2,110.8c-3.6,0-6.5,3-6.5,6.6s2.9,6.6,6.5,6.6s6.5-3,6.5-6.6S206.8,110.8,203.2,110.8z"/>
	<path class="st18" d="M207.1,134c0-2.4,1-4.6,2.7-6.1c-1.7-1-3.6-1.6-5.7-1.6h-2c-6.2,0-11.3,5.3-11.3,11.7c0,1.2,1,2.2,2.1,2.2h17
		C208.2,138.7,207.1,136.5,207.1,134z"/>
	<g>
		<path class="st18" d="M215.4,131.9h-0.2c-0.2,0-0.2,0-0.3,0.1c0,0.1-0.1,0.2-0.1,0.5v3.6c0,0.3,0,0.4,0.1,0.5
			c0,0.1,0.1,0.1,0.3,0.1h0.2h0.2c0.1,0,0.2,0,0.3-0.1c0-0.1,0.1-0.2,0.1-0.5v-3.7c0-0.3,0-0.4-0.1-0.5c0-0.1-0.1-0.1-0.3-0.1
			L215.4,131.9L215.4,131.9z"/>
		<path class="st18" d="M215.4,127.7c-3.5,0-6.3,2.8-6.3,6.3s2.8,6.3,6.3,6.3s6.3-2.8,6.3-6.3S218.9,127.7,215.4,127.7z
			 M217.9,130.9v1h-0.2c-0.2,0-0.2,0-0.3,0.1c0,0.1-0.1,0.2-0.1,0.5v3.6c0,0.3,0,0.4,0.1,0.5c0,0.1,0.1,0.1,0.3,0.1h0.2v1h-2.5h-2.5
			v-1h0.2c0.1,0,0.2,0,0.3-0.1c0-0.1,0.1-0.2,0.1-0.5v-3.7c0-0.3,0-0.4-0.1-0.5c0-0.1-0.1-0.1-0.3-0.1h-0.2v-1h2.5L217.9,130.9
			L217.9,130.9z"/>
	</g>
</g>
<text transform="matrix(1 0 0 1 27.2511 175.0658)" class="st14 st15 st16">856.22</text>
<g>
	<path class="st17" d="M20.5,175.4c2.4,0,4.4-2,4.4-4.4s-2-4.4-4.4-4.4s-4.4,2-4.4,4.4C16.1,173.5,18.1,175.4,20.5,175.4z"/>
	<path class="st4" d="M21.8,171.7c0-0.7-0.4-0.8-1.2-1c-0.6-0.1-0.7-0.3-0.7-0.5s0.2-0.4,0.6-0.4c0.3,0,0.5,0.1,0.6,0.4
		c0,0.1,0.1,0.1,0.2,0.1h0.3c0.1,0,0.2-0.1,0.2-0.2l0,0c-0.1-0.4-0.4-0.8-0.8-0.8v-0.4c0-0.1-0.1-0.2-0.2-0.2h-0.3
		c-0.1,0-0.2,0.1-0.2,0.2v0.4c-0.6,0.1-0.9,0.4-0.9,0.9c0,0.6,0.3,0.8,1.2,0.9c0.5,0.1,0.7,0.2,0.7,0.5s-0.3,0.5-0.6,0.5
		c-0.5,0-0.7-0.2-0.7-0.5c0-0.1-0.1-0.1-0.2-0.1h-0.3c-0.1,0-0.2,0.1-0.2,0.2l0,0c0.1,0.5,0.3,0.8,1,0.9v0.4c0,0.1,0.1,0.2,0.2,0.2
		h0.3c0.1,0,0.2-0.1,0.2-0.2v-0.4C21.5,172.5,21.8,172.2,21.8,171.7L21.8,171.7z"/>
	<path class="st4" d="M19.6,173.6c-1.4-0.5-2.2-2.1-1.7-3.5c0.3-0.8,0.9-1.3,1.7-1.7c0.1,0,0.1-0.1,0.1-0.2V168c0-0.1,0-0.2-0.1-0.2
		h-0.1c-1.8,0.6-2.8,2.4-2.2,4.2c0.3,1,1.1,1.8,2.2,2.2c0.1,0,0.2,0,0.2-0.1c0,0,0,0,0-0.1v-0.3C19.8,173.7,19.7,173.6,19.6,173.6z
		 M21.6,167.8c-0.1,0-0.2,0-0.2,0.1c0,0,0,0,0,0.1v0.3c0,0.1,0.1,0.2,0.1,0.2c1.4,0.5,2.2,2.1,1.7,3.5c-0.3,0.8-0.9,1.3-1.7,1.7
		c-0.1,0-0.1,0.1-0.1,0.2v0.3c0,0.1,0,0.2,0.1,0.2h0.1c1.8-0.6,2.8-2.4,2.2-4.2C23.5,168.9,22.6,168.2,21.6,167.8L21.6,167.8z"/>
</g>
<g>
	<text transform="matrix(1 0 0 1 15.8916 187.0838)" class="st18 st12 st19">Level 3 bonus</text>
</g>
<path class="st0" d="M111.6,195.3H15.5c-2.6,0-4.7-2.1-4.7-4.7v-34.1c0-2.6,2.1-4.7,4.7-4.7h96.1c2.6,0,4.7,2.1,4.7,4.7v34.1
	C116.3,193.2,114.2,195.3,111.6,195.3z"/>
<text transform="matrix(1 0 0 1 140.8511 175.0658)" class="st14 st15 st16">1,040.00</text>
<g>
	<path class="st17" d="M134.1,175.4c2.4,0,4.4-2,4.4-4.4s-2-4.4-4.4-4.4s-4.4,2-4.4,4.4C129.7,173.5,131.7,175.4,134.1,175.4z"/>
	<path class="st4" d="M135.4,171.7c0-0.7-0.4-0.8-1.2-1c-0.6-0.1-0.7-0.3-0.7-0.5s0.2-0.4,0.6-0.4c0.3,0,0.5,0.1,0.6,0.4
		c0,0.1,0.1,0.1,0.2,0.1h0.3c0.1,0,0.2-0.1,0.2-0.2l0,0c-0.1-0.4-0.4-0.8-0.8-0.8v-0.4c0-0.1-0.1-0.2-0.2-0.2h-0.3
		c-0.1,0-0.2,0.1-0.2,0.2v0.4c-0.6,0.1-0.9,0.4-0.9,0.9c0,0.6,0.3,0.8,1.2,0.9c0.5,0.1,0.7,0.2,0.7,0.5s-0.3,0.5-0.6,0.5
		c-0.5,0-0.7-0.2-0.7-0.5c0-0.1-0.1-0.1-0.2-0.1h-0.3c-0.1,0-0.2,0.1-0.2,0.2l0,0c0.1,0.5,0.3,0.8,1,0.9v0.4c0,0.1,0.1,0.2,0.2,0.2
		h0.3c0.1,0,0.2-0.1,0.2-0.2v-0.4C135.1,172.5,135.4,172.2,135.4,171.7L135.4,171.7z"/>
	<path class="st4" d="M133.2,173.6c-1.4-0.5-2.2-2.1-1.7-3.5c0.3-0.8,0.9-1.3,1.7-1.7c0.1,0,0.1-0.1,0.1-0.2V168
		c0-0.1,0-0.2-0.1-0.2h-0.1c-1.8,0.6-2.8,2.4-2.2,4.2c0.3,1,1.1,1.8,2.2,2.2c0.1,0,0.2,0,0.2-0.1c0,0,0,0,0-0.1L133.2,173.6
		C133.4,173.7,133.3,173.6,133.2,173.6z M135.2,167.8c-0.1,0-0.2,0-0.2,0.1c0,0,0,0,0,0.1v0.3c0,0.1,0.1,0.2,0.1,0.2
		c1.4,0.5,2.2,2.1,1.7,3.5c-0.3,0.8-0.9,1.3-1.7,1.7c-0.1,0-0.1,0.1-0.1,0.2v0.3c0,0.1,0,0.2,0.1,0.2h0.1c1.8-0.6,2.8-2.4,2.2-4.2
		C137.1,168.9,136.2,168.2,135.2,167.8L135.2,167.8z"/>
</g>
<g>
	<text transform="matrix(1 0 0 1 129.4916 187.0838)" class="st18 st12 st19">Referral bonus</text>
</g>
<path class="st0" d="M220.7,195h-96.1c-2.6,0-4.7-2.1-4.7-4.7v-34.1c0-2.6,2.1-4.7,4.7-4.7h96.1c2.6,0,4.7,2.1,4.7,4.7v34.1
	C225.3,192.9,223.2,195,220.7,195z"/>
<g class="st20">
	<path class="st18" d="M90.6,157.6c-3.6,0-6.5,3-6.5,6.6s2.9,6.6,6.5,6.6s6.5-3,6.5-6.6S94.2,157.6,90.6,157.6z"/>
	<path class="st18" d="M94.5,180.8c0-2.4,1-4.6,2.7-6.1c-1.7-1-3.6-1.6-5.7-1.6h-2c-6.2,0-11.3,5.3-11.3,11.7c0,1.2,1,2.2,2.1,2.2
		h17C95.6,185.5,94.5,183.3,94.5,180.8z"/>
	<g>
		<path class="st18" d="M104,178.7h-0.2c-0.2,0-0.2,0-0.3,0.1c0,0.1-0.1,0.2-0.1,0.5v3.6c0,0.3,0,0.4,0.1,0.5c0,0.1,0.1,0.1,0.3,0.1
			h0.2h0.2c0.1,0,0.2,0,0.3-0.1c0-0.1,0.1-0.2,0.1-0.5v-3.7c0-0.3,0-0.4-0.1-0.5c0-0.1-0.1-0.1-0.3-0.1L104,178.7L104,178.7z"/>
		<path class="st18" d="M101.7,178.6h-0.2v0.1h-0.2c-0.2,0-0.2,0-0.3,0.1c0,0.1-0.1,0.2-0.1,0.5v3.6c0,0.3,0,0.4,0.1,0.5
			c0,0.1,0.1,0.1,0.3,0.1h0.2h0.2c0.1,0,0.2,0,0.3-0.1c0-0.1,0.1-0.2,0.1-0.5v-3.7c0-0.3,0-0.4-0.1-0.5
			C102,178.6,101.9,178.6,101.7,178.6z"/>
		<path class="st18" d="M102.8,174.5c-3.5,0-6.3,2.8-6.3,6.3s2.8,6.3,6.3,6.3s6.3-2.8,6.3-6.3C109.1,177.3,106.2,174.5,102.8,174.5z
			 M106.5,177.7v1h-0.2c-0.2,0-0.2,0-0.3,0.1c0,0.1-0.1,0.2-0.1,0.5v3.6c0,0.3,0,0.4,0.1,0.5c0,0.1,0.1,0.1,0.3,0.1h0.2v1H104h-2.5
			H99v-1h0.2c0.1,0,0.2,0,0.3-0.1c0-0.1,0.1-0.2,0.1-0.5v-3.7c0-0.3,0-0.4-0.1-0.5c0-0.1-0.1-0.1-0.3-0.1H99v-1h2.5h2.5L106.5,177.7
			L106.5,177.7z"/>
	</g>
</g>
<g class="st20">
	<path class="st22" d="M214.8,174.3c3.5-0.6,6.1-3.8,6-7.4c-0.1-4-3.5-7.2-7.6-7.1c-3.5,0.1-6.4,2.7-7,6
		C210.3,167.1,213.5,170.3,214.8,174.3z M212.7,174.4c-1.2-3-3.5-5.3-6.5-6.5C206.6,171.3,209.3,174,212.7,174.4z"/>
	<path class="st22" d="M202.6,158.7c0.3-0.3,0.8-0.3,1.1,0l1.5,1.5c0.3,0.3,0.3,0.8,0,1.1l-1.3,1.5c-0.3,0.3-0.8,0.4-1.1,0.1
		s-0.3-0.8,0-1.2l0.1-0.1c-0.8,0.1-1.7,0.4-2.4,0.8c-1.4,0.7-2.5,1.7-3.3,2.9c-0.2,0.4-0.7,0.5-1.1,0.2c-0.3-0.2-0.4-0.7-0.2-1.1
		c0.9-1.4,2.2-2.6,3.8-3.5c1-0.5,2.1-0.8,3.1-0.9l-0.2-0.2C202.3,159.5,202.3,159,202.6,158.7z"/>
	<path class="st18" d="M213.5,178.7c0,6.4-5.2,11.7-11.7,11.7c-6.4,0-11.7-5.2-11.7-11.7c0-6.4,5.2-11.7,11.7-11.7
		S213.5,172.2,213.5,178.7z"/>
	<path class="st23" d="M201.4,172c0.4,0.1,0.6,0.5,0.5,0.8l-0.2,0.6l1.2,0.3l0.2-0.6c0.1-0.4,0.5-0.6,0.8-0.5
		c0.4,0.1,0.6,0.5,0.5,0.8l-0.2,0.6c1.4,0.5,2.2,2,1.8,3.4c-0.2,0.7-0.6,1.2-1.1,1.6c0.8,0.7,1.1,1.8,0.8,2.8c-0.4,1.5-2,2.4-3.5,2
		l-0.6-0.2l-0.2,0.6c-0.1,0.4-0.5,0.6-0.8,0.5c-0.4-0.1-0.6-0.5-0.5-0.8l0.2-0.6l-1.2-0.3l-0.2,0.6c-0.1,0.4-0.5,0.6-0.8,0.5
		c-0.4-0.1-0.6-0.5-0.5-0.8l0.2-0.6l-1-0.3c-0.4-0.1-0.6-0.5-0.5-0.8c0.1-0.4,0.5-0.6,0.8-0.5l1,0.3l1.9-7.1l-1-0.3
		c-0.4-0.1-0.6-0.5-0.5-0.8c0.1-0.4,0.5-0.6,0.8-0.5l1,0.3l0.2-0.6C200.6,172.1,201,171.9,201.4,172z M199.4,181.8l3.2,0.8
		c0.8,0.2,1.6-0.3,1.9-1.1c0.2-0.8-0.3-1.6-1.1-1.9l-3.2-0.7L199.4,181.8z M203.2,175.2L203.2,175.2L203.2,175.2l0.5,0.1
		c0.8,0.2,1.3,1,1.1,1.9c-0.2,0.8-1,1.3-1.9,1.1l-2.4-0.7l0.8-2.9L203.2,175.2z"/>
</g>
<text transform="matrix(1 0 0 1 27.2511 222.9521)" class="st14 st15 st16">50.00</text>
<g>
	<path class="st17" d="M20.5,223.3c2.4,0,4.4-2,4.4-4.4s-2-4.4-4.4-4.4s-4.4,2-4.4,4.4S18.1,223.3,20.5,223.3z"/>
	<path class="st4" d="M21.8,219.6c0-0.7-0.4-0.8-1.2-1c-0.6-0.1-0.7-0.3-0.7-0.5s0.2-0.4,0.6-0.4c0.3,0,0.5,0.1,0.6,0.4
		c0,0.1,0.1,0.1,0.2,0.1h0.3c0.1,0,0.2-0.1,0.2-0.2l0,0c-0.1-0.4-0.4-0.8-0.8-0.8v-0.4c0-0.1-0.1-0.2-0.2-0.2h-0.3
		c-0.1,0-0.2,0.1-0.2,0.2v0.4c-0.6,0.1-0.9,0.4-0.9,0.9c0,0.6,0.3,0.8,1.2,0.9c0.5,0.1,0.7,0.2,0.7,0.5S21,220,20.7,220
		c-0.5,0-0.7-0.2-0.7-0.5c0-0.1-0.1-0.1-0.2-0.1h-0.3c-0.1,0-0.2,0.1-0.2,0.2l0,0c0.1,0.5,0.3,0.8,1,0.9v0.4c0,0.1,0.1,0.2,0.2,0.2
		h0.3c0.1,0,0.2-0.1,0.2-0.2v-0.4C21.5,220.4,21.8,220.1,21.8,219.6L21.8,219.6z"/>
	<path class="st4" d="M19.6,221.5c-1.4-0.5-2.2-2.1-1.7-3.5c0.3-0.8,0.9-1.3,1.7-1.7c0.1,0,0.1-0.1,0.1-0.2v-0.3
		c0-0.1,0-0.2-0.1-0.2h-0.1c-1.8,0.6-2.8,2.4-2.2,4.2c0.3,1,1.1,1.8,2.2,2.2c0.1,0,0.2,0,0.2-0.1c0,0,0,0,0-0.1v-0.3
		C19.8,221.6,19.7,221.5,19.6,221.5z M21.6,215.7c-0.1,0-0.2,0-0.2,0.1c0,0,0,0,0,0.1v0.3c0,0.1,0.1,0.2,0.1,0.2
		c1.4,0.5,2.2,2.1,1.7,3.5c-0.3,0.8-0.9,1.3-1.7,1.7c-0.1,0-0.1,0.1-0.1,0.2v0.3c0,0.1,0,0.2,0.1,0.2h0.1c1.8-0.6,2.8-2.4,2.2-4.2
		C23.5,216.8,22.6,216.1,21.6,215.7L21.6,215.7z"/>
</g>
<g>
	<text transform="matrix(1 0 0 1 15.8916 234.9701)" class="st18 st12 st19">Unlock bonus</text>
</g>
<path class="st0" d="M111.6,243.2H15.5c-2.6,0-4.7-2.1-4.7-4.7v-34.1c0-2.6,2.1-4.7,4.7-4.7h96.1c2.6,0,4.7,2.1,4.7,4.7v34.1
	C116.3,241.1,114.2,243.2,111.6,243.2z"/>
<text transform="matrix(1 0 0 1 140.8511 222.9521)" class="st14 st15 st16">150.00</text>
<g>
	<path class="st17" d="M134.1,223.3c2.4,0,4.4-2,4.4-4.4s-2-4.4-4.4-4.4s-4.4,2-4.4,4.4C129.7,221.3,131.7,223.3,134.1,223.3z"/>
	<path class="st4" d="M135.4,219.6c0-0.7-0.4-0.8-1.2-1c-0.6-0.1-0.7-0.3-0.7-0.5s0.2-0.4,0.6-0.4c0.3,0,0.5,0.1,0.6,0.4
		c0,0.1,0.1,0.1,0.2,0.1h0.3c0.1,0,0.2-0.1,0.2-0.2l0,0c-0.1-0.4-0.4-0.8-0.8-0.8v-0.4c0-0.1-0.1-0.2-0.2-0.2h-0.3
		c-0.1,0-0.2,0.1-0.2,0.2v0.4c-0.6,0.1-0.9,0.4-0.9,0.9c0,0.6,0.3,0.8,1.2,0.9c0.5,0.1,0.7,0.2,0.7,0.5s-0.3,0.5-0.6,0.5
		c-0.5,0-0.7-0.2-0.7-0.5c0-0.1-0.1-0.1-0.2-0.1h-0.3c-0.1,0-0.2,0.1-0.2,0.2l0,0c0.1,0.5,0.3,0.8,1,0.9v0.4c0,0.1,0.1,0.2,0.2,0.2
		h0.3c0.1,0,0.2-0.1,0.2-0.2v-0.4C135.1,220.4,135.4,220.1,135.4,219.6L135.4,219.6z"/>
	<path class="st4" d="M133.2,221.5c-1.4-0.5-2.2-2.1-1.7-3.5c0.3-0.8,0.9-1.3,1.7-1.7c0.1,0,0.1-0.1,0.1-0.2v-0.3
		c0-0.1,0-0.2-0.1-0.2h-0.1c-1.8,0.6-2.8,2.4-2.2,4.2c0.3,1,1.1,1.8,2.2,2.2c0.1,0,0.2,0,0.2-0.1c0,0,0,0,0-0.1L133.2,221.5
		C133.4,221.6,133.3,221.5,133.2,221.5z M135.2,215.7c-0.1,0-0.2,0-0.2,0.1c0,0,0,0,0,0.1v0.3c0,0.1,0.1,0.2,0.1,0.2
		c1.4,0.5,2.2,2.1,1.7,3.5c-0.3,0.8-0.9,1.3-1.7,1.7c-0.1,0-0.1,0.1-0.1,0.2v0.3c0,0.1,0,0.2,0.1,0.2h0.1c1.8-0.6,2.8-2.4,2.2-4.2
		C137.1,216.8,136.2,216.1,135.2,215.7L135.2,215.7z"/>
</g>
<g>
	<text transform="matrix(1 0 0 1 129.4916 234.9701)" class="st18 st12 st19">Pending bonus</text>
</g>
<path class="st0" d="M220.7,242.9h-96.1c-2.6,0-4.7-2.1-4.7-4.7v-34.1c0-2.6,2.1-4.7,4.7-4.7h96.1c2.6,0,4.7,2.1,4.7,4.7v34.1
	C225.3,240.8,223.2,242.9,220.7,242.9z"/>
<path class="st24" d="M106.5,206.2h-8.9c-0.9,0-1.5,0.6-1.5,1.5s0.6,1.5,1.5,1.5h7.5v7.4c0,0.9,0.6,1.5,1.5,1.5l0,0
	c0.9,0,1.5-0.6,1.5-1.5v-8.9C108,206.8,107.4,206.2,106.5,206.2z"/>
<path class="st24" d="M79.7,218.1L79.7,218.1c0.9,0,1.5-0.6,1.5-1.5v-7.4h7.5c0.8,0,1.4-0.6,1.4-1.5s-0.6-1.5-1.5-1.5h-8.9
	c-0.9,0-1.5,0.6-1.5,1.5v8.9C78.2,217.5,78.8,218.1,79.7,218.1z"/>
<path class="st24" d="M88.6,233h-7.4v-7.4c0-0.9-0.6-1.5-1.5-1.5s-1.5,0.6-1.5,1.5v8.9c0,0.9,0.6,1.5,1.5,1.5h8.9
	c0.9,0,1.5-0.6,1.5-1.5S89.5,233,88.6,233z"/>
<path class="st24" d="M106.5,224.1c-0.9,0-1.5,0.6-1.5,1.5v7.5h-7.5c-0.9,0-1.5,0.6-1.5,1.5s0.6,1.5,1.5,1.5h8.9
	c0.9,0,1.5-0.6,1.5-1.5v-9C108,224.7,107.4,224.1,106.5,224.1z"/>
<path class="st24" d="M103.2,218.1v-1.5c0-2.5-1.9-4.5-4.5-4.5s-4.5,1.9-4.5,4.5v1.5h-2.7h-3c-1.6,0-3,1.3-3,3v6c0,1.6,1.3,3,3,3
	h8.9c1.6,0,3-1.3,3-3v-6c0-1.6-1.3-3-3-3h-0.3v-1.5c0-0.9,0.6-1.5,1.5-1.5s1.5,0.6,1.5,1.5v1.5H103.2z"/>
<path class="st11" d="M104.6,227.5H81.1c-3.3,0-6-2.7-6-6l0,0c0-3.3,2.7-6,6-6h23.5c3.3,0,6,2.7,6,6l0,0
	C110.7,224.8,108,227.5,104.6,227.5z"/>
<g>
	<text transform="matrix(1 0 0 1 83.3576 223.3912)" class="st4 st15 st25">Unlock</text>
</g>
<path class="st24" d="M218.8,206.5h-8.9c-0.9,0-1.5,0.6-1.5,1.5s0.6,1.5,1.5,1.5h7.5v7.4c0,0.9,0.6,1.5,1.5,1.5l0,0
	c0.9,0,1.5-0.6,1.5-1.5V208C220.3,207.1,219.7,206.5,218.8,206.5z"/>
<path class="st24" d="M192,218.4L192,218.4c0.9,0,1.5-0.6,1.5-1.5v-7.4h7.5c0.8,0,1.4-0.6,1.4-1.5s-0.6-1.5-1.5-1.5H192
	c-0.9,0-1.5,0.6-1.5,1.5v8.9C190.5,217.8,191.1,218.4,192,218.4z"/>
<path class="st24" d="M200.9,233.3h-7.4v-7.4c0-0.9-0.6-1.5-1.5-1.5s-1.5,0.6-1.5,1.5v8.9c0,0.9,0.6,1.5,1.5,1.5h8.9
	c0.9,0,1.5-0.6,1.5-1.5C202.4,233.9,201.8,233.3,200.9,233.3z"/>
<path class="st24" d="M218.8,224.4c-0.9,0-1.5,0.6-1.5,1.5v7.5h-7.5c-0.9,0-1.5,0.6-1.5,1.5s0.6,1.5,1.5,1.5h8.9
	c0.9,0,1.5-0.6,1.5-1.5v-9C220.3,225,219.7,224.4,218.8,224.4z"/>
<path class="st24" d="M205.4,212.5c-2.5,0-4.5,1.9-4.5,4.5v1.5c-1.6,0-3,1.3-3,3v6c0,1.6,1.3,3,3,3h8.9c1.6,0,3-1.3,3-3v-6
	c0-1.6-1.3-3-3-3v-1.6C209.9,214.4,207.9,212.5,205.4,212.5z M206.9,218.4h-3v-1.5c0-0.9,0.6-1.5,1.5-1.5s1.5,0.6,1.5,1.5V218.4z"/>
<path class="st18" d="M216.5,227.5H193c-3.3,0-6-2.7-6-6l0,0c0-3.3,2.7-6,6-6h23.5c3.3,0,6,2.7,6,6l0,0
	C222.5,224.8,219.8,227.5,216.5,227.5z"/>
<g>
	<text transform="matrix(1 0 0 1 197.1031 223.3913)" class="st4 st15 st25">Detail</text>
</g>
<text transform="matrix(1 0 0 1 22.7268 271.2374)" class="st15 st26">Team Bonus</text>
<path class="st27" d="M10.8,634V254.9c0-2.6,2.1-4.7,4.7-4.7h205.2c2.6,0,4.7,2.1,4.7,4.7v379"/>
<text transform="matrix(1 0 0 1 21.4693 284.0218)" class="st28 st12 st29">Your tem referral bonus</text>
<line class="st27" x1="11.3" y1="373.7" x2="224.2" y2="373.7"/>
<line class="st27" x1="11.3" y1="330.4" x2="224.2" y2="330.4"/>
<line class="st27" x1="11.3" y1="417" x2="224.2" y2="417"/>
<line class="st27" x1="11.3" y1="296.7" x2="224.2" y2="296.7"/>
<g>
	<text transform="matrix(1 0 0 1 24.9896 316.7519)" class="st30 st12 st31">NickName</text>
	<text transform="matrix(1 0 0 1 120.7264 316.7524)" class="st30 st12 st31">Level</text>
	<text transform="matrix(1 0 0 1 158.0805 315.8571)" class="st30 st12 st31">Type</text>
	<g>
		<text transform="matrix(1 0 0 1 205.0911 312.7527)" class="st30 st12 st31">Friend</text>
		<text transform="matrix(1 0 0 1 205.0911 320.7527)" class="st30 st12 st31">Bonus</text>
	</g>
	<g>
		<text transform="matrix(1 0 0 1 244.5072 311.8564)" class="st30 st12 st31">House</text>
		<text transform="matrix(1 0 0 1 247.0072 319.8564)" class="st30 st12 st31">Edge</text>
	</g>
	<text transform="matrix(1 0 0 1 283.5925 316.7527)" class="st30 st12 st31">Bonus</text>
	<text transform="matrix(1 0 0 1 346.0358 316.7522)" class="st30 st12 st31">Date</text>
	<text transform="matrix(1 0 0 1 407.5099 316.8016)" class="st30 st12 st31">Status</text>
	<g>
		<path class="st30" d="M50.6,350.6L50.6,350.6v4.8c0,0.2,0,0.3,0.1,0.4l0,0c0.1,0.1,0.1,0.3,0.2,0.4c0.1,0.1,0.2,0.2,0.4,0.2l0,0
			c0.1,0.1,0.3,0.1,0.4,0.1l0,0h5.6v-5.2h-0.7v-1.5h-5.2c-0.1,0-0.3,0-0.4,0.1l0,0c-0.1,0.1-0.2,0.2-0.3,0.3l0,0
			C50.6,350.4,50.6,350.5,50.6,350.6z M51.3,350.6h4.5v0.7h-4.5V350.6z M51.3,352.1h5.2v1.1H55v1.5h1.5v1.1h-4.8
			c-0.1,0-0.1,0-0.2-0.1c-0.1,0-0.1-0.1-0.1-0.1s-0.1-0.1-0.1-0.2l0,0C51.3,355.4,51.3,352.1,51.3,352.1z"/>
		<text transform="matrix(1 0 0 1 62.1834 355.8351)" class="st30 st12 st32">0x60222...1C41</text>
		<g>
			<circle class="st33" cx="34.5" cy="349.2" r="11.1"/>
			<g>
				<g>
					<g>
						<g>
							<defs>
								<circle id="SVGID_1_" cx="34.5" cy="349.2" r="11.1"/>
							</defs>
							<clipPath id="SVGID_00000168115100864521554440000013125514795936049286_">
								<use xlink:href="#SVGID_1_"  style="overflow:visible;"/>
							</clipPath>
							<g style="clip-path:url(#SVGID_00000168115100864521554440000013125514795936049286_);">
								<path class="st35" d="M39.1,347.8c0-2.6-2.1-5.3-4.6-5.3s-4.6,2.7-4.6,5.3c0,2.6,2.1,4.6,4.6,4.6S39.1,350.4,39.1,347.8z"/>
								<g>
									<path class="st35" d="M31.8,357.7h5.9c0,0,0.6-6.4,0.5-9c-0.1-2.5-2.5-4.1-4.7-4.1S29.1,354.4,31.8,357.7z"/>
									<path class="st36" d="M39.8,356c-0.5-0.9-2.6-1.6-4.1-1.9v-3h-2.5v3c-1.4,0.4-3.6,1-4.1,1.9c-0.5,1.9-1,4.3-1,4.3h6.3h6.3
										C40.8,360.3,40.5,357.7,39.8,356z"/>
									<path class="st37" d="M39.8,356c-0.5-0.9-2.6-1.6-4.1-1.9v-3h-1.3v2.8v1.4v5h6.3C40.8,360.3,40.5,357.7,39.8,356z"/>
									<path class="st38" d="M33.2,353c0.2,0.6,1.1,1,1.8,1c0.2,0,0.5,0,0.7-0.1V351h-2.5V353z"/>
									<path class="st36" d="M37.7,348.4c0-2.6-1.4-4.1-3.2-4.1s-3.2,1.5-3.2,4.1s1.4,4.7,3.2,4.7S37.7,351,37.7,348.4z"/>
									<path class="st37" d="M37.2,350.2c-0.6-0.1-1-0.6-0.9-1.3c0.1-0.7,0.7-1.1,1.2-1.1c0.6,0.1,1,0.6,0.9,1.3
										C38.4,349.8,37.8,350.3,37.2,350.2z"/>
									<path class="st36" d="M30.4,349.1c-0.1-0.7,0.3-1.2,0.9-1.3c0.6-0.1,1.1,0.4,1.2,1.1c0.1,0.7-0.3,1.2-0.9,1.3
										C31.1,350.3,30.5,349.8,30.4,349.1z"/>
									<path class="st37" d="M37.7,348.4c0-2.6-1.4-4.1-3.2-4.1v8.9C36.3,353.1,37.7,351,37.7,348.4z"/>
									<path class="st39" d="M35.7,354.1v-0.7c-0.4,0-0.8,0.1-1.3,0.1s-0.8,0-1.3-0.1v0.7c-1.4,0.4-3.6,1-4.1,1.9
										c-0.5,1.9-1,4.3-1,4.3h6.3h6.3c0,0-0.3-2.6-1-4.3C39.3,355.1,37.2,354.4,35.7,354.1z"/>
								</g>
								<g>
									<g>
										<path class="st40" d="M33,354.1L33,354.1"/>
										<path class="st41" d="M33,354.4c0.1,0.7,0.8,1.2,1.5,1.2c0.8,0,1.5-0.6,1.5-1.4"/>
										<path class="st40" d="M36,354.1L36,354.1"/>
									</g>
								</g>
								<path class="st35" d="M29.8,347.8c0,0-0.6,9.4-1,12.5H32l-0.7-8.7"/>
								<path class="st35" d="M39.1,347.8c0,0,0.6,9.4,1,12.5h-3.2l0.4-8.2"/>
								<path class="st35" d="M34.7,343.8c-1.9,0-3.7,2.1-3.7,4.2l0,0h1.8l0.2-1.4v1.4h1.8v-1.4l0.3,1.4h1.2v-1.1l0.3,1.1H38l0,0
									C38,345.9,36.6,343.8,34.7,343.8z"/>
							</g>
						</g>
					</g>
				</g>
			</g>
		</g>
		<path class="st42" d="M40.6,365.9H29c-2.8,0-5.1-2.3-5.1-5.1l0,0c0-2.8,2.3-5.1,5.1-5.1h11.6c2.8,0,5.1,2.3,5.1,5.1l0,0
			C45.7,363.7,43.4,365.9,40.6,365.9z"/>
		<text transform="matrix(1 0 0 1 27.2511 363.7447)" class="st4 st12 st32">VIP0</text>
		<text transform="matrix(1 0 0 1 50.5674 346.9785)" class="st30 st12 st31">Anna</text>
	</g>
	<text transform="matrix(1 0 0 1 127.8486 355.2716)" class="st30 st12 st31">1</text>
	<text transform="matrix(1 0 0 1 154.5312 355.2634)" class="st30 st12 st31">Referral</text>
	<text transform="matrix(1 0 0 1 212.0401 355.2175)" class="st30 st12 st31">10.00</text>
	<text transform="matrix(1 0 0 1 245.9742 355.196)" class="st30 st12 st31">100%</text>
	<g>
		<path class="st17" d="M207.2,355.8c2.1,0,3.8-1.7,3.8-3.8c0-2.1-1.7-3.8-3.8-3.8s-3.8,1.7-3.8,3.8
			C203.4,354.2,205.1,355.8,207.2,355.8z"/>
		<path class="st4" d="M208.2,352.7c0-0.6-0.4-0.7-1-0.9c-0.5-0.1-0.6-0.2-0.6-0.4c0-0.2,0.1-0.4,0.5-0.4c0.3,0,0.4,0.1,0.5,0.4
			c0,0.1,0.1,0.1,0.1,0.1h0.3c0.1,0,0.1-0.1,0.1-0.1l0,0c-0.1-0.4-0.4-0.6-0.7-0.6v-0.4c0-0.1-0.1-0.1-0.1-0.1h-0.2
			c-0.1,0-0.1,0.1-0.1,0.1v0.4c-0.5,0.1-0.8,0.4-0.8,0.8c0,0.5,0.3,0.7,1,0.8c0.4,0.1,0.6,0.1,0.6,0.4s-0.2,0.4-0.5,0.4
			c-0.4,0-0.6-0.1-0.6-0.4c0-0.1-0.1-0.1-0.1-0.1h-0.3c-0.1,0-0.1,0.1-0.1,0.1l0,0c0.1,0.4,0.3,0.7,0.9,0.8v0.4
			c0,0.1,0.1,0.1,0.1,0.1h0.2c0.1,0,0.1-0.1,0.1-0.1v-0.4C208,353.4,208.2,353.1,208.2,352.7L208.2,352.7z"/>
		<path class="st4" d="M206.4,354.3c-1.2-0.4-1.9-1.8-1.4-3c0.2-0.6,0.8-1.1,1.4-1.4c0.1,0,0.1-0.1,0.1-0.1v-0.2
			c0-0.1,0-0.1-0.1-0.1h-0.1c-1.5,0.5-2.3,2.1-1.9,3.6c0.3,0.9,0.9,1.6,1.9,1.9c0.1,0,0.1,0,0.1-0.1c0,0,0,0,0-0.1v-0.2
			C206.5,354.4,206.5,354.3,206.4,354.3z M208.1,349.4c-0.1,0-0.1,0-0.1,0.1c0,0,0,0,0,0.1v0.2c0,0.1,0.1,0.1,0.1,0.1
			c1.2,0.4,1.9,1.8,1.4,3c-0.2,0.6-0.8,1.1-1.4,1.4c-0.1,0-0.1,0.1-0.1,0.1v0.2c0,0.1,0,0.1,0.1,0.1h0.1c1.5-0.5,2.3-2.1,1.9-3.6
			C209.7,350.3,209,349.7,208.1,349.4L208.1,349.4z"/>
	</g>
	<text transform="matrix(1 0 0 1 290.3173 355.2175)" class="st30 st12 st31">10.00</text>
	<g>
		<path class="st17" d="M285.5,355.8c2.1,0,3.8-1.7,3.8-3.8c0-2.1-1.7-3.8-3.8-3.8c-2.1,0-3.8,1.7-3.8,3.8
			C281.7,354.2,283.4,355.8,285.5,355.8z"/>
		<path class="st4" d="M286.5,352.7c0-0.6-0.4-0.7-1-0.9c-0.5-0.1-0.6-0.2-0.6-0.4c0-0.2,0.1-0.4,0.5-0.4c0.3,0,0.4,0.1,0.5,0.4
			c0,0.1,0.1,0.1,0.1,0.1h0.3c0.1,0,0.1-0.1,0.1-0.1l0,0c-0.1-0.4-0.4-0.6-0.7-0.6v-0.4c0-0.1-0.1-0.1-0.1-0.1h-0.2
			c-0.1,0-0.1,0.1-0.1,0.1v0.4c-0.5,0.1-0.8,0.4-0.8,0.8c0,0.5,0.3,0.7,1,0.8c0.4,0.1,0.6,0.1,0.6,0.4s-0.2,0.4-0.5,0.4
			c-0.4,0-0.6-0.1-0.6-0.4c0-0.1-0.1-0.1-0.1-0.1h-0.3c-0.1,0-0.1,0.1-0.1,0.1l0,0c0.1,0.4,0.3,0.7,0.9,0.8v0.4
			c0,0.1,0.1,0.1,0.1,0.1h0.2c0.1,0,0.1-0.1,0.1-0.1v-0.4C286.2,353.4,286.5,353.1,286.5,352.7L286.5,352.7z"/>
		<path class="st4" d="M284.7,354.3c-1.2-0.4-1.9-1.8-1.4-3c0.2-0.6,0.8-1.1,1.4-1.4c0.1,0,0.1-0.1,0.1-0.1v-0.2
			c0-0.1,0-0.1-0.1-0.1h-0.1c-1.5,0.5-2.3,2.1-1.9,3.6c0.3,0.9,0.9,1.6,1.9,1.9c0.1,0,0.1,0,0.1-0.1c0,0,0,0,0-0.1v-0.2
			C284.8,354.4,284.7,354.3,284.7,354.3z M286.4,349.4c-0.1,0-0.1,0-0.1,0.1c0,0,0,0,0,0.1v0.2c0,0.1,0.1,0.1,0.1,0.1
			c1.2,0.4,1.9,1.8,1.4,3c-0.2,0.6-0.8,1.1-1.4,1.4c-0.1,0-0.1,0.1-0.1,0.1v0.2c0,0.1,0,0.1,0.1,0.1h0.1c1.5-0.5,2.3-2.1,1.9-3.6
			C287.9,350.3,287.2,349.7,286.4,349.4L286.4,349.4z"/>
	</g>
	<g>
		<text transform="matrix(1 0 0 1 325.8408 355.2588)" class="st30 st12 st31">1/12/2022 0:00</text>
	</g>
	<g>
		<path class="st30" d="M50.6,393.3L50.6,393.3v4.8c0,0.2,0,0.3,0.1,0.4l0,0c0.1,0.1,0.1,0.3,0.2,0.4c0.1,0.1,0.2,0.2,0.4,0.2l0,0
			c0.1,0.1,0.3,0.1,0.4,0.1l0,0h5.6V394h-0.7v-1.5h-5.2c-0.1,0-0.3,0-0.4,0.1l0,0c-0.1,0.1-0.2,0.2-0.3,0.3l0,0
			C50.6,393,50.6,393.2,50.6,393.3z M51.3,393.3h4.5v0.7h-4.5V393.3z M51.3,394.8h5.2v1.1H55v1.5h1.5v1.1h-4.8c-0.1,0-0.1,0-0.2-0.1
			c-0.1,0-0.1-0.1-0.1-0.1s-0.1-0.1-0.1-0.2l0,0C51.3,398.1,51.3,394.8,51.3,394.8z"/>
		<text transform="matrix(1 0 0 1 62.1834 398.5156)" class="st30 st12 st32">0x38452...9473</text>
		<g>
			<circle class="st43" cx="34.5" cy="391.8" r="11.1"/>
			<g>
				<g>
					<g>
						<g>
							<defs>
								<circle id="SVGID_00000124864586469068042970000017729353680995030431_" cx="34.5" cy="391.8" r="11.1"/>
							</defs>
							<clipPath id="SVGID_00000114760375903787829840000008434390931467620793_">
								<use xlink:href="#SVGID_00000124864586469068042970000017729353680995030431_"  style="overflow:visible;"/>
							</clipPath>
							<g style="clip-path:url(#SVGID_00000114760375903787829840000008434390931467620793_);">
								<g>
									<path class="st36" d="M41.1,397.8c-0.8-1.4-6.3-2.3-6.3-2.3s-5.4,0.9-6.3,2.3c-0.6,1.9-1.1,4.4-1.1,4.4h7.4h7.4
										C42.2,402.2,41.9,399.6,41.1,397.8z"/>
									<path class="st37" d="M34.8,395.6c0,0,5.4,0.9,6.3,2.3c0.8,1.8,1.1,4.4,1.1,4.4h-7.4C34.8,402.3,34.8,395.6,34.8,395.6z"/>
									<rect x="33.3" y="392.8" class="st36" width="2.9" height="4.3"/>
									<rect x="34.8" y="392.8" class="st37" width="1.5" height="4.3"/>
									<path class="st38" d="M33.3,394.7c0.3,0.7,1.3,1,2.1,1c0.3,0,0.6,0,0.8-0.1v-2.9h-2.9C33.3,392.7,33.3,394.7,33.3,394.7z"
										/>
									<path class="st36" d="M38.6,390c0-2.7-1.7-4.2-3.8-4.2S31,387.4,31,390c0,3.6,1.7,4.9,3.8,4.9
										C36.9,394.9,38.6,393.5,38.6,390z"/>
									<path class="st37" d="M38,391.9c-0.7-0.1-1.2-0.7-1-1.4c0.1-0.7,0.8-1.3,1.5-1.2c0.7,0.1,1.1,0.7,1,1.4
										C39.4,391.4,38.7,392,38,391.9z"/>
									<path class="st36" d="M30.2,390.7c-0.1-0.7,0.3-1.4,1-1.4c0.7-0.1,1.3,0.5,1.5,1.2c0.1,0.7-0.3,1.4-1,1.4
										C30.9,392,30.3,391.4,30.2,390.7z"/>
									<path class="st37" d="M38.6,390c0-2.7-1.7-4.2-3.8-4.2v9.1C36.9,394.9,38.6,393.5,38.6,390z"/>
								</g>
								<path class="st45" d="M41.1,397.8c-0.5-0.8-2.5-1.4-4.2-1.8l-2.1,6.2l-2.1-6.2c-1.6,0.4-3.7,1-4.2,1.8
									c-0.6,1.9-1.1,4.4-1.1,4.4h7.4h7.4C42.2,402.2,41.9,399.6,41.1,397.8z"/>
								<polygon class="st46" points="32.7,396 34.8,402.2 36.9,396 34.8,398.1 								"/>
								<polygon class="st47" points="34.8,402.2 38,399.1 36.9,398.8 38.8,396.5 37,396 								"/>
								<polygon class="st47" points="34.8,402.2 31.6,399.1 32.7,398.8 30.8,396.5 32.7,396 								"/>
								<path class="st4" d="M32.1,398.5l1.6-1.3l1.1,0.9l-1.5-2.2l-0.9,0.1C32.4,396.8,32.1,398.5,32.1,398.5z"/>
								<path class="st4" d="M37.5,398.5l-1.6-1.3l-1.1,0.9l1.5-2.2l0.9,0.1C37.2,396.8,37.5,398.5,37.5,398.5z"/>
								<path class="st48" d="M39,389.4c0,0-0.7-0.4-1,0.9c0.1-1.2,0-2.9-1.1-3.2c-0.6,1-3.1,1.6-4.8,1.3c0.1,1.1-0.3,2.1-0.7,2.3
									c0-0.9,0-1.5-0.6-1.3c-0.2-1.9,1-4.3,4.2-4.3C38.2,385.1,39.3,387,39,389.4z"/>
							</g>
						</g>
					</g>
				</g>
			</g>
		</g>
		<path class="st42" d="M40.6,408.6H29c-2.8,0-5.1-2.3-5.1-5.1l0,0c0-2.8,2.3-5.1,5.1-5.1h11.6c2.8,0,5.1,2.3,5.1,5.1l0,0
			C45.7,406.4,43.4,408.6,40.6,408.6z"/>
		<text transform="matrix(1 0 0 1 27.2511 406.4251)" class="st4 st12 st32">VIP1</text>
		<text transform="matrix(1 0 0 1 50.5674 389.659)" class="st30 st12 st31">Dave</text>
	</g>
	<text transform="matrix(1 0 0 1 127.8486 397.9417)" class="st30 st12 st31">1</text>
	<text transform="matrix(1 0 0 1 147.4066 397.9276)" class="st30 st12 st31">Commission</text>
	<text transform="matrix(1 0 0 1 211.5181 397.8865)" class="st30 st12 st31">50.00</text>
	<text transform="matrix(1 0 0 1 248.4771 397.8651)" class="st30 st12 st31">10%</text>
	<g>
		<path class="st17" d="M206.7,398.5c2.1,0,3.8-1.7,3.8-3.8c0-2.1-1.7-3.8-3.8-3.8s-3.8,1.7-3.8,3.8S204.6,398.5,206.7,398.5z"/>
		<path class="st4" d="M207.7,395.3c0-0.6-0.4-0.7-1-0.9c-0.5-0.1-0.6-0.2-0.6-0.4c0-0.2,0.1-0.4,0.5-0.4c0.3,0,0.4,0.1,0.5,0.4
			c0,0.1,0.1,0.1,0.1,0.1h0.3c0.1,0,0.1-0.1,0.1-0.1l0,0c-0.1-0.4-0.4-0.6-0.7-0.6V393c0-0.1-0.1-0.1-0.1-0.1h-0.2
			c-0.1,0-0.1,0.1-0.1,0.1v0.4c-0.5,0.1-0.8,0.4-0.8,0.8c0,0.5,0.3,0.7,1,0.8c0.4,0.1,0.6,0.1,0.6,0.4s-0.2,0.4-0.5,0.4
			c-0.4,0-0.6-0.1-0.6-0.4c0-0.1-0.1-0.1-0.1-0.1h-0.3c-0.1,0-0.1,0.1-0.1,0.1l0,0c0.1,0.4,0.3,0.7,0.9,0.8v0.4
			c0,0.1,0.1,0.1,0.1,0.1h0.2c0.1,0,0.1-0.1,0.1-0.1v-0.4C207.4,396.1,207.7,395.8,207.7,395.3L207.7,395.3z"/>
		<path class="st4" d="M205.9,397c-1.2-0.4-1.9-1.8-1.4-3c0.2-0.6,0.8-1.1,1.4-1.4c0.1,0,0.1-0.1,0.1-0.1v-0.2c0-0.1,0-0.1-0.1-0.1
			h-0.1c-1.5,0.5-2.3,2.1-1.9,3.6c0.3,0.9,0.9,1.6,1.9,1.9c0.1,0,0.1,0,0.1-0.1c0,0,0,0,0-0.1v-0.2C206,397.1,205.9,397,205.9,397z
			 M207.6,392.1c-0.1,0-0.1,0-0.1,0.1c0,0,0,0,0,0.1v0.2c0,0.1,0.1,0.1,0.1,0.1c1.2,0.4,1.9,1.8,1.4,3c-0.2,0.6-0.8,1.1-1.4,1.4
			c-0.1,0-0.1,0.1-0.1,0.1v0.2c0,0.1,0,0.1,0.1,0.1h0.1c1.5-0.5,2.3-2.1,1.9-3.6C209.1,393,208.4,392.4,207.6,392.1L207.6,392.1z"/>
	</g>
	<text transform="matrix(1 0 0 1 290.3173 397.8865)" class="st30 st12 st31">5.00</text>
	<g>
		<path class="st17" d="M285.5,398.5c2.1,0,3.8-1.7,3.8-3.8c0-2.1-1.7-3.8-3.8-3.8c-2.1,0-3.8,1.7-3.8,3.8S283.4,398.5,285.5,398.5z
			"/>
		<path class="st4" d="M286.5,395.3c0-0.6-0.4-0.7-1-0.9c-0.5-0.1-0.6-0.2-0.6-0.4c0-0.2,0.1-0.4,0.5-0.4c0.3,0,0.4,0.1,0.5,0.4
			c0,0.1,0.1,0.1,0.1,0.1h0.3c0.1,0,0.1-0.1,0.1-0.1l0,0c-0.1-0.4-0.4-0.6-0.7-0.6V393c0-0.1-0.1-0.1-0.1-0.1h-0.2
			c-0.1,0-0.1,0.1-0.1,0.1v0.4c-0.5,0.1-0.8,0.4-0.8,0.8c0,0.5,0.3,0.7,1,0.8c0.4,0.1,0.6,0.1,0.6,0.4s-0.2,0.4-0.5,0.4
			c-0.4,0-0.6-0.1-0.6-0.4c0-0.1-0.1-0.1-0.1-0.1h-0.3c-0.1,0-0.1,0.1-0.1,0.1l0,0c0.1,0.4,0.3,0.7,0.9,0.8v0.4
			c0,0.1,0.1,0.1,0.1,0.1h0.2c0.1,0,0.1-0.1,0.1-0.1v-0.4C286.2,396.1,286.5,395.8,286.5,395.3L286.5,395.3z"/>
		<path class="st4" d="M284.7,397c-1.2-0.4-1.9-1.8-1.4-3c0.2-0.6,0.8-1.1,1.4-1.4c0.1,0,0.1-0.1,0.1-0.1v-0.2c0-0.1,0-0.1-0.1-0.1
			h-0.1c-1.5,0.5-2.3,2.1-1.9,3.6c0.3,0.9,0.9,1.6,1.9,1.9c0.1,0,0.1,0,0.1-0.1c0,0,0,0,0-0.1v-0.2C284.8,397.1,284.7,397,284.7,397
			z M286.4,392.1c-0.1,0-0.1,0-0.1,0.1c0,0,0,0,0,0.1v0.2c0,0.1,0.1,0.1,0.1,0.1c1.2,0.4,1.9,1.8,1.4,3c-0.2,0.6-0.8,1.1-1.4,1.4
			c-0.1,0-0.1,0.1-0.1,0.1v0.2c0,0.1,0,0.1,0.1,0.1h0.1c1.5-0.5,2.3-2.1,1.9-3.6C287.9,393,287.2,392.4,286.4,392.1L286.4,392.1z"/>
	</g>
	<g>
		<text transform="matrix(1 0 0 1 325.8408 397.9278)" class="st30 st12 st31">2/12/2022 0:00</text>
	</g>
	<path d="M408.8,351h-0.3v-1c0-1.5-1.2-2.7-2.7-2.7s-2.7,1.2-2.7,2.7v1.1h-0.3c-0.4,0-0.8,0.4-0.8,0.8v4.1c0,0.4,0.4,0.8,0.8,0.8
		h5.9c0.4,0,0.8-0.4,0.8-0.8v-4.1C409.6,351.4,409.2,351,408.8,351z M405,353.4c0-0.4,0.3-0.8,0.8-0.8c0.4,0,0.8,0.3,0.8,0.8
		c0,0.3-0.1,0.5-0.4,0.7v0.9c0,0.2-0.2,0.4-0.4,0.4s-0.4-0.2-0.4-0.4v-0.9C405.2,354,405,353.7,405,353.4z M404.2,350
		c0-0.9,0.8-1.7,1.7-1.7c0.9,0,1.7,0.8,1.7,1.7v0.9c0,0.1-0.1,0.2-0.2,0.2h-3c-0.1,0-0.2-0.1-0.2-0.2V350z"/>
	<path class="st11" d="M409,393.7h-0.3v-1.1c0-1.5-1.2-2.7-2.7-2.7c-1.2,0-2.2,0.8-2.6,1.9c-0.1,0.3,0.1,0.5,0.3,0.6
		c0.3,0.1,0.5-0.1,0.6-0.3l0,0c0.3-0.9,1.2-1.4,2.1-1.1c0.7,0.2,1.2,0.9,1.2,1.6v0.9c0,0.1-0.1,0.2-0.2,0.2H403
		c-0.4,0-0.8,0.4-0.8,0.8v4.1c0,0.4,0.4,0.8,0.8,0.8h5.9c0.4,0,0.8-0.4,0.8-0.8v-4.1C409.8,394.1,409.4,393.7,409,393.7z
		 M405.2,396.1c0-0.4,0.3-0.8,0.8-0.8c0.4,0,0.8,0.3,0.8,0.8c0,0.3-0.1,0.5-0.4,0.7v0.9c0,0.2-0.2,0.4-0.4,0.4
		c-0.2,0-0.4-0.2-0.4-0.4v-0.9C405.4,396.6,405.2,396.4,405.2,396.1z"/>
	<g>
		<text transform="matrix(1 0 0 1 412.5431 355.2093)" class="st30 st12 st31">lock</text>
	</g>
	<g>
		<text transform="matrix(1 0 0 1 412.7518 397.8777)" class="st30 st12 st31">unlock</text>
	</g>
	
		<animateTransform  accumulate="none" additive="replace" attributeName="transform" calcMode="linear" dur="20s" fill="remove" keyTimes="0;0.5;1" repeatCount="indefinite" restart="always" type="translate" values="1 0;-220 0;1 0;" xmlns="http://www.w3.org/2000/svg">
		</animateTransform>
</g>
<rect y="154.3" class="st4" width="10.3" height="296.5"/>
<rect x="225.6" y="154.3" class="st4" width="10.3" height="296.5"/>
<path class="st11" d="M25.1,35.1c0.1,0,0.2,0,0.4,0c3,0,6.1,0,9.1,0c0.8,0,1.4-0.5,1.5-1.1c0.1-0.4,0-0.8,0-1.2
	c-0.2-1.3-0.9-2.5-1.8-3.5c-0.5-0.5-0.6-1.1-0.3-1.6c0.4-0.8,1.5-1,2.2-0.3c1.1,1.1,1.9,2.4,2.3,3.8c1.4,4.5-0.7,9.3-5,11.4
	c-1.3,0.6-2.6,0.9-4,0.9c-0.6,0-1.2-0.5-1.3-1c-0.1-0.7,0.1-1.3,0.7-1.5c0.2-0.1,0.5-0.1,0.7-0.1c1.4,0,2.6-0.4,3.7-1.2
	c0.4-0.3,0.6-0.7,0.5-1.1c-0.1-0.7-0.8-1.1-1.5-0.7c-0.4,0.2-0.8,0.5-1.3,0.6c-2.4,0.9-5.1-0.5-5.8-2.9
	C25.1,35.3,25.1,35.2,25.1,35.1z"/>
<path class="st11" d="M20,34.3c0-4.3,2.5-7.8,6.3-9.2c1-0.4,2-0.5,3.1-0.5c0.8,0,1.4,0.5,1.4,1.3c0,0.8-0.5,1.4-1.3,1.4
	c-0.7,0-1.4,0.1-2.1,0.3c-2.4,0.8-3.9,2.5-4.5,5c-0.5,2.4,0.1,4.4,1.8,6.2c0.4,0.5,0.5,1,0.3,1.6c-0.2,0.5-0.7,0.8-1.3,0.7
	c-0.4,0-0.6-0.2-0.9-0.4C20.9,38.8,20,36.6,20,34.3z"/>
<path class="st11" d="M33.8,32.9c-2.9,0-5.8,0-8.7,0c0.1-0.7,0.4-1.2,0.9-1.7c0.8-1,1.8-1.5,3.1-1.6c1.3-0.1,2.5,0.3,3.5,1.2
	C33.1,31.3,33.5,32,33.8,32.9z"/>
</svg>
