<svg xmlns="http://www.w3.org/2000/svg" x="0px" y="0px"
	 viewBox="0 0 768 438.2" style="enable-background:new 0 0 768 438.2;" xml:space="preserve">
<style type="text/css">
	.st0{fill:#B8C9C8;}
	.st1{fill:url(#SVGID_1_);}
	.st2{fill:#FFFFFF;}
	.st3{fill:#FFD200;}
	.st4{fill:url(#SVGID_00000087390674246558202540000004704794673928694946_);}
	.st5{fill:#5D6973;}
	.st6{fill:#191C23;}
	.st7{fill:#364058;}
	.st8{fill:#5E6C7E;}
	.st9{fill:#888A8C;}
	.st10{fill:#F46C3D;}
	.st11{fill:none;stroke:#020202;stroke-miterlimit:10;}
	.st12{fill:#D7E0E8;}
	.st13{fill:#606060;}
	.st14{fill:#0062FF;}
	.st15{fill:#2BBF7F;}
	.st16{fill:none;stroke:#000000;stroke-width:2;stroke-miterlimit:10;}
	.st17{fill:none;stroke:#000000;stroke-width:2;stroke-miterlimit:10;stroke-dasharray:7.5996,7.5996;}
	.st18{fill:none;stroke:#000000;stroke-width:2;stroke-miterlimit:10;stroke-dasharray:7.6779,7.6779;}
	.st19{fill:none;stroke:#000000;stroke-width:2;stroke-miterlimit:10;stroke-dasharray:8.1777,8.1777;}
	.st20{fill:none;stroke:#000000;stroke-width:2;stroke-miterlimit:10;stroke-dasharray:7.9384,7.9384;}
	.st21{fill:none;stroke:#000000;stroke-width:2;stroke-miterlimit:10;stroke-dasharray:7.9977,7.9977;}
	.st22{fill:#909EB0;}
	.st23{opacity:0.3;fill:#FFFFFF;enable-background:new    ;}
</style>
<rect x="0.3" class="st0" width="768" height="438.3"/>
<linearGradient id="SVGID_1_" gradientUnits="userSpaceOnUse" x1="65" y1="1338.4" x2="99.8" y2="1338.4" gradientTransform="matrix(1 0 0 1 0 -1280)">
	<stop  offset="3.026530e-02" style="stop-color:#1B1C23"/>
	<stop  offset="1" style="stop-color:#313B4B"/>
</linearGradient>
<path class="st1" d="M99.8,58.4c-9.6,0-17.4,7.8-17.4,17.4c0-9.6-7.8-17.4-17.4-17.4c9.6,0,17.4-7.8,17.4-17.4
	C82.4,50.6,90.3,58.4,99.8,58.4z"/>
<polygon class="st2" points="658,281.4 655.8,271.2 653.8,281.4 643.5,283.5 653.8,285.7 655.8,295.9 658,285.7 668.2,283.5 "/>
<path class="st3" d="M591.2,167.6c-7.7,0-14,6.3-14,14c0-7.7-6.3-14-14-14c7.7,0,14-6.3,14-14C577.1,161.4,583.5,167.6,591.2,167.6z
	"/>
<path class="st2" d="M369.9,322.2c-3.9,0-7,3.1-7,7c0-3.9-3.1-7-7-7c3.9,0,7-3.1,7-7C362.9,319,366.1,322.2,369.9,322.2z"/>
<linearGradient id="SVGID_00000126298137263658653970000009860694940076826801_" gradientUnits="userSpaceOnUse" x1="70.1135" y1="1491.95" x2="94.8135" y2="1491.95" gradientTransform="matrix(1 0 0 1 0 -1280)">
	<stop  offset="3.026530e-02" style="stop-color:#1B1C23"/>
	<stop  offset="1" style="stop-color:#313B4B"/>
</linearGradient>
<polygon style="fill:url(#SVGID_00000126298137263658653970000009860694940076826801_);" points="84.5,209.9 82.3,199.6 80.3,209.9 
	70,211.9 80.3,214.1 82.3,224.3 84.5,214.1 94.7,211.9 "/>
<circle class="st5" cx="189.3" cy="226.4" r="45.4"/>
<circle class="st6" cx="189.3" cy="226.4" r="44.2"/>
<path class="st7" d="M186.4,210.2c0,0-9.9,5.9-13.9,13.5c0,0-3.6,10.4-2.7,12.5s3,7.5,4.5,8.7c0,0-6.1-0.4-8.7,0.7
	c-2.7,1.1-6.7,5.2-7.2,6.4c-0.4,1.2-2.1,3.4-2.1,3.4l2,2.6c0,0,1.9-4.5,3.5-5.9c1.6-1.3,4.2-6.4,19.4-4.6c0,0-9.2-5-8.7-11
	c0.6-2.4,9.1-9.6,9.1-9.6s-6.6,2.5-9.2,5C174.3,224.9,178.5,216.5,186.4,210.2z"/>
<path class="st8" d="M184.1,226.5c0,0,19.3-2.9,21.6-1.4s2.4,2.9,2.8,3.4s1.3,1.7,1.5,3.7c0.3,2-1.1,10-2.4,11.2
	c-1.3,1.2-2.3,3.6-8.4,6c0,0,12-3.5,12.7-2.9c0.8,0.6,5.2,5,5.1,5.5s-0.4,0.8-1.1,0.9c-0.8,0.1-2.3,1.5-0.9,2.4c1.4,0.9,5,2.8,6,2.3
	s-8.2,4.6-8.2,4.6s1.9,0.8,2.1,0.7c0.1,0,5.8-1.8,10.7-10.4c0,0-4.5-6.7-7.5-7s-9.2-0.5-9.2-0.5s3.9-8.7,4-10.2s-2.6-12.3-5.5-16.2
	c-2.9-3.8-6.3-8.5-14.6-9.6c0,0,0.4,1.9-0.1,2.4s-4.9,3.8-3.9,4.5c0.9,0.7,6,1.5,6.1,2s-1.1,1.2-0.7,1.2c0.4,0,9.1,0,9.1,0.5
	s-9.9,3.2-12.2,3.1l0.1,1.1L184.1,226.5z"/>
<path class="st2" d="M182.1,230.7c0,0,6.2,2.7,7.2,2.7c0,0-0.6,2.1-1.7,2.1s-2.5-0.4-3-1C184.1,233.8,182.1,230.7,182.1,230.7z"/>
<path class="st2" d="M194,233.3c0,0,6.9-2.4,7.3-2.6c0.3-0.2-2.2,4.3-3.2,4.6S195.2,235.7,194,233.3z"/>
<circle class="st9" cx="411.5" cy="191.3" r="51.1"/>
<circle class="st10" cx="411.5" cy="191.3" r="49.7"/>
<path class="st2" d="M382.9,197.6L382.9,197.6c-2.7-0.3-4.7-2.8-4.4-5.5l1.1-10c0.3-2.7,2.8-4.7,5.5-4.4l0,0
	c2.7,0.3,4.7,2.8,4.4,5.5l-1.1,10C388.2,195.9,385.7,197.9,382.9,197.6z"/>
<line class="st11" x1="440.9" y1="182.6" x2="441.6" y2="176.1"/>
<path class="st2" d="M438.4,202.1L438.4,202.1c-2.7-0.3-4.7-2.8-4.4-5.5l1.1-10c0.3-2.7,2.8-4.7,5.5-4.4l0,0
	c2.7,0.3,4.7,2.8,4.4,5.5l-1.1,10C443.6,200.4,441.1,202.4,438.4,202.1z"/>
<path class="st2" d="M415.4,212.6l-13.4-1.5c-12-1.3-20.8-12.2-19.5-24.3l0,0c1.3-12,12.2-20.8,24.3-19.5l13.4,1.5
	c12,1.3,20.8,12.2,19.5,24.3l0,0C438.4,205.1,427.5,213.9,415.4,212.6z"/>
<path d="M424.3,196.9l-27.5-3c-3.2-0.3-5.5-3.3-5.2-6.5l0,0c0.3-3.2,3.3-5.5,6.5-5.2l27.5,3c3.2,0.3,5.5,3.3,5.2,6.5l0,0
	C430.4,195,427.5,197.3,424.3,196.9z"/>
<path class="st2" d="M407.5,191.6l-6.8-2.5c-0.6-0.2-0.9-0.9-0.7-1.5l0,0c0.2-0.6,0.9-0.9,1.5-0.7l6.8,2.5c0.6,0.2,0.9,0.9,0.7,1.5
	l0,0C408.8,191.5,408.1,191.8,407.5,191.6z"/>
<path class="st2" d="M414.5,192l7.2-1c0.6-0.1,1-0.7,1-1.3l0,0c-0.1-0.6-0.7-1-1.3-1l-7.2,1c-0.6,0.1-1,0.7-1,1.3l0,0
	C413.3,191.6,413.8,192.1,414.5,192z"/>
<path class="st12" d="M415.7,174.3l-5.6-0.6c-1.9-0.2-3.2-1.9-3-3.8l0,0c0.2-1.9,1.9-3.2,3.8-3l5.6,0.6c1.9,0.2,3.2,1.9,3,3.8l0,0
	C419.3,173.2,417.6,174.5,415.7,174.3z"/>
<line class="st11" x1="384.3" y1="177.5" x2="385" y2="171"/>
<path class="st2" d="M432.4,217.1l-46.8-5.1c-4.8-0.5-9.1,3-9.6,7.7l-0.6,5.6c7.8,8.3,18.5,14,30.8,15.3s23.9-1.9,33.4-8.4l0.6-5.6
	C440.7,221.9,437.2,217.6,432.4,217.1z"/>
<circle class="st9" cx="491.7" cy="107.8" r="38.2"/>
<circle class="st13" cx="491.7" cy="107.8" r="37.2"/>
<path class="st2" d="M471.3,114.8h-0.7c-1.9,0-3.4-1.5-3.4-3.4v-8.2c0-1.9,1.5-3.4,3.4-3.4h0.7c1.9,0,3.4,1.5,3.4,3.4v8.2
	C474.7,113.3,473.2,114.8,471.3,114.8z"/>
<line class="st11" x1="512.8" y1="98.9" x2="512.8" y2="94"/>
<path class="st2" d="M512.9,113.6h-0.7c-1.9,0-3.4-1.5-3.4-3.4V102c0-1.9,1.5-3.4,3.4-3.4h0.7c1.9,0,3.4,1.5,3.4,3.4v8.2
	C516.3,112.1,514.7,113.6,512.9,113.6z"/>
<path class="st2" d="M497.8,123.3h-13c-8.2,0-15-6.7-15-14.9v-3c0-8.2,6.7-15,14.9-15h13c8.2,0,15,6.7,15,14.9v3
	C512.8,116.5,506.1,123.3,497.8,123.3z"/>
<path d="M502.1,111h-21.5c-2.2,0-4-1.8-4-4v-0.8c0-2.2,1.8-4,4-4h21.5c2.2,0,4,1.8,4,4v0.8C506,109.2,504.2,111,502.1,111z"/>
<path class="st2" d="M488.8,108.4l-5.4-1.4c-0.4-0.1-0.7-0.5-0.6-0.9V106c0.1-0.4,0.5-0.7,0.9-0.6l5.4,1.4c0.4,0.1,0.7,0.5,0.6,0.9
	v0.1C489.6,108.2,489.2,108.5,488.8,108.4z"/>
<path class="st2" d="M493.9,108.1l5.4-1.4c0.4-0.1,0.7-0.5,0.6-0.9v-0.1c-0.1-0.4-0.5-0.7-0.9-0.6l-5.4,1.4
	c-0.4,0.1-0.7,0.5-0.6,0.9v0.1C493,108,493.4,108.2,493.9,108.1z"/>
<path class="st12" d="M493.7,94.9H489c-1.3,0-2.3-1-2.3-2.3v-0.5c0-1.3,1-2.3,2.3-2.3h4.7c1.3,0,2.3,1,2.3,2.3v0.5
	C496,93.8,494.9,94.9,493.7,94.9z"/>
<line class="st11" x1="470.3" y1="99.8" x2="470.3" y2="94.9"/>
<path class="st2" d="M509.3,125.2l-35.2,0.1c-3.6,0-6.5,2.9-6.5,6.5v4.2c6.5,5.5,14.9,8.9,24.1,8.9s17.6-3.4,24.1-9v-4.2
	C515.8,128.2,512.9,125.2,509.3,125.2z"/>
<circle class="st9" cx="377.9" cy="77.9" r="28.5"/>
<circle class="st3" cx="377.9" cy="77.9" r="27.8"/>
<path class="st2" d="M364.5,87.3L364.5,87.3c-1.5,0.4-3-0.4-3.5-1.9l-1.6-5.4c-0.4-1.5,0.4-3,1.9-3.5l0,0c1.5-0.4,3,0.4,3.5,1.9
	l1.6,5.4C366.8,85.3,366,86.9,364.5,87.3z"/>
<line class="st11" x1="391.1" y1="67.1" x2="390.1" y2="63.6"/>
<path class="st2" d="M394,77.7L394,77.7c-1.5,0.4-3-0.4-3.5-1.9l-1.6-5.4c-0.4-1.5,0.4-3,1.9-3.5l0,0c1.5-0.4,3,0.4,3.5,1.9l1.6,5.4
	C396.3,75.7,395.5,77.3,394,77.7z"/>
<path class="st2" d="M384.4,88l-7.2,2.1c-6.5,1.9-13.4-1.8-15.3-8.3l0,0c-1.9-6.5,1.8-13.4,8.3-15.3l7.2-2.1
	c6.5-1.9,13.4,1.8,15.3,8.3l0,0C394.7,79.3,390.9,86.1,384.4,88z"/>
<path d="M385.7,78.1l-14.8,4.4c-1.7,0.5-3.6-0.5-4.1-2.2l0,0c-0.5-1.7,0.5-3.6,2.2-4.1l14.8-4.4c1.7-0.5,3.6,0.5,4.1,2.2l0,0
	C388.4,75.7,387.4,77.6,385.7,78.1z"/>
<path class="st2" d="M375.9,78.9l-4,0.1c-0.3,0-0.6-0.3-0.7-0.6l0,0c0-0.3,0.3-0.6,0.6-0.7l4-0.1c0.3,0,0.6,0.3,0.7,0.6l0,0
	C376.5,78.6,376.2,78.9,375.9,78.9z"/>
<path class="st2" d="M379.5,77.6l3.5-2.1c0.3-0.2,0.4-0.6,0.2-0.9l0,0c-0.2-0.3-0.6-0.4-0.9-0.2l-3.5,2.1c-0.3,0.2-0.4,0.6-0.2,0.9
	l0,0C378.8,77.7,379.2,77.8,379.5,77.6z"/>
<path class="st12" d="M376.4,68.3l-3,0.9c-1,0.3-2.1-0.3-2.4-1.3l0,0c-0.3-1,0.3-2.1,1.3-2.4l3-0.9c1-0.3,2.1,0.3,2.4,1.3l0,0
	C378,66.9,377.4,68,376.4,68.3z"/>
<line class="st11" x1="360.9" y1="76.6" x2="359.8" y2="73.1"/>
<path class="st2" d="M394.2,86.7L369,94.1c-2.6,0.8-4.1,3.5-3.3,6.1l0.9,3c5.8,2.6,12.6,3.2,19.2,1.3c6.6-1.9,11.9-6.1,15.4-11.5
	l-0.9-3C399.4,87.4,396.7,86,394.2,86.7z"/>
<circle class="st9" cx="541" cy="276.6" r="69"/>
<ellipse transform="matrix(0.7071 -0.7071 0.7071 0.7071 -37.1305 463.559)" class="st14" cx="541" cy="276.6" rx="67.1" ry="67.1"/>
<path class="st2" d="M507.1,296.8L507.1,296.8c-3.6,0.8-7.3-1.6-8-5.2l-2.8-13.3c-0.8-3.6,1.6-7.3,5.2-8l0,0c3.6-0.8,7.3,1.6,8,5.2
	l2.8,13.3C513.1,292.4,510.7,296,507.1,296.8z"/>
<line class="st11" x1="575" y1="253.1" x2="573.1" y2="244.5"/>
<path class="st2" d="M580,279.1L580,279.1c-3.6,0.8-7.3-1.6-8-5.2l-2.8-13.3c-0.8-3.6,1.6-7.3,5.2-8l0,0c3.6-0.8,7.3,1.6,8,5.2
	l2.8,13.3C586,274.7,583.6,278.4,580,279.1z"/>
<path class="st2" d="M562.6,300.7l-32.8,7c-11.9,2.5-23.6-5.1-26.1-17l-3.2-15c-2.5-11.9,5.1-23.6,17-26.1l32.8-7
	c11.9-2.5,23.6,5.1,26.1,17l3.2,15C582.1,286.4,574.4,298.2,562.6,300.7z"/>
<path d="M561.8,278.1l-40.5,8.6c-3.2,0.7-6.3-1.4-7-4.5l-0.9-4c-0.7-3.2,1.4-6.3,4.5-7l40.5-8.6c3.2-0.7,6.3,1.4,7,4.5l0.9,4
	C567,274.3,565,277.4,561.8,278.1z"/>
<path class="st2" d="M536.4,278.7l-10.6-0.4c-0.6,0-1.1-0.6-1.1-1.2v-0.8c0-0.6,0.6-1.1,1.2-1.1l10.6,0.4c0.6,0,1.1,0.6,1.1,1.2v0.8
	C537.6,278.3,537,278.7,536.4,278.7z"/>
<path class="st2" d="M544.7,276.5l9.5-4.7c0.6-0.3,0.8-1,0.5-1.5l-0.4-0.7c-0.3-0.6-1-0.8-1.5-0.5l-9.5,4.7c-0.6,0.3-0.8,1-0.5,1.5
	l0.3,0.7C543.5,276.5,544.2,276.8,544.7,276.5z"/>
<path class="st12" d="M539.3,253.1l-7.5,1.6c-2.5,0.5-5-1.1-5.5-3.6l0,0c-0.5-2.5,1.1-5,3.6-5.5l7.5-1.6c2.5-0.5,5,1.1,5.5,3.6l0,0
	C543.4,250.1,541.8,252.6,539.3,253.1z"/>
<line class="st11" x1="500.3" y1="270.5" x2="498.5" y2="261.8"/>
<path class="st2" d="M578.7,300.9l-62.1,13.2c-6.3,1.3-10.4,7.6-9.1,14l1.6,7.5c13.5,7.4,29.7,10.1,45.9,6.6
	c16.3-3.5,29.9-12.6,39.2-24.8l-1.6-7.5C591.3,303.6,585,299.5,578.7,300.9z"/>
<circle class="st9" cx="244" cy="74.8" r="57.6"/>
<circle class="st15" cx="244" cy="74.8" r="56"/>
<path class="st2" d="M211,74L211,74c-2.9-1.1-4.4-4.3-3.4-7.3l3.9-10.7c1.1-2.9,4.3-4.4,7.3-3.4l0,0c2.9,1.1,4.4,4.3,3.4,7.3
	l-3.9,10.7C217.2,73.5,213.9,75.1,211,74z"/>
<line class="st11" x1="278.4" y1="73.3" x2="280.9" y2="66.4"/>
<path class="st2" d="M270.4,93.9L270.4,93.9c-2.9-1.1-4.4-4.3-3.4-7.3l3.9-10.7c1.1-2.9,4.3-4.4,7.3-3.4l0,0
	c2.9,1.1,4.4,4.3,3.4,7.3l-3.9,10.7C276.6,93.5,273.3,95,270.4,93.9z"/>
<path class="st2" d="M245.1,100.1L225.6,93c-11.4-4.2-17.3-16.9-13.1-28.3l1.9-5.2c4.2-11.4,16.9-17.3,28.3-13.1l19.5,7.1
	c11.4,4.2,17.3,16.9,13.1,28.3l-1.9,5.2C269.2,98.4,256.4,104.3,245.1,100.1z"/>
<path d="M257.1,84.8l-30.7-11.2c-3-1.1-4.6-4.5-3.5-7.5l0.5-1.4c1.1-3,4.5-4.6,7.5-3.5l30.7,11.2c3,1.1,4.6,4.5,3.5,7.5l-0.5,1.4
	C263.5,84.3,260.1,85.9,257.1,84.8z"/>
<path class="st2" d="M239.6,74.1l-7-4.8c-0.5-0.4-0.6-1.1-0.3-1.6l0.2-0.2c0.4-0.5,1.1-0.6,1.6-0.3l7,4.8c0.5,0.4,0.6,1.1,0.3,1.6
	l-0.2,0.2C240.8,74.4,240.1,74.5,239.6,74.1z"/>
<path class="st2" d="M246.8,76.4l8.4,0.9c0.6,0.1,1.2-0.4,1.2-1V76c0.1-0.6-0.4-1.2-1-1.2l-8.4-0.9c-0.6-0.1-1.2,0.4-1.2,1v0.3
	C245.8,75.8,246.2,76.3,246.8,76.4z"/>
<path class="st12" d="M253.2,57.4l-6-2.2c-2-0.7-3-3-2.3-5l0,0c0.7-2,3-3,5-2.3l6,2.2c2,0.7,3,3,2.3,5l0,0
	C257.4,57.1,255.2,58.2,253.2,57.4z"/>
<line class="st11" x1="217.9" y1="52.4" x2="220.4" y2="45.4"/>
<path class="st2" d="M259.8,108.7L210,90.4c-5.1-1.9-10.8,0.8-12.6,5.8l-2.2,6c6.3,11.2,16.5,20.3,29.5,25.1s26.7,4.4,38.7-0.1
	l2.2-6C267.5,116.2,264.8,110.5,259.8,108.7z"/>
<g>
	<g>
		<line class="st16" x1="201.2" y1="183.9" x2="202.8" y2="180.2"/>
		<line class="st17" x1="205.7" y1="173.2" x2="221.7" y2="134.6"/>
		<line class="st16" x1="223.1" y1="131.1" x2="224.7" y2="127.4"/>
	</g>
</g>
<g>
	<g>
		<path class="st16" d="M219.2,193.9c0,0,1-1,2.9-2.7"/>
		<path class="st18" d="M227.8,186c22.9-20.9,85.7-76.9,117-93"/>
		<path class="st16" d="M348.2,91.3c1.3-0.6,2.5-1.1,3.7-1.5"/>
	</g>
</g>
<g>
	<g>
		<path class="st16" d="M229.1,204.6c0,0,1.1-0.8,3.3-2.2"/>
		<path class="st19" d="M239.4,198c27.7-17.3,109-63.8,207.6-83.6"/>
		<path class="st16" d="M450.9,113.6c1.3-0.3,2.6-0.5,3.9-0.7"/>
	</g>
</g>
<g>
	<g>
		<path class="st16" d="M234,218.4c0,0,1.3-0.5,3.8-1.3"/>
		<path class="st20" d="M245.3,214.6c22.3-7.3,72.6-22.6,104.3-23.4"/>
		<path class="st16" d="M353.6,191.1c1.4,0,2.7,0.1,4,0.2"/>
	</g>
</g>
<g>
	<g>
		<path class="st16" d="M234.7,230.7c0,0,1.4,0.2,4,0.5"/>
		<path class="st21" d="M246.6,232.1c41.2,4.9,177.5,21.9,216.5,37.2"/>
		<path class="st16" d="M466.8,270.8c1.4,0.6,2.5,1.3,3.5,1.9"/>
	</g>
</g>
<path class="st22" d="M618,370.7c-37-15.1-101.4-10.4-228.8-1.1c-127.3,9.3-167.3-43.6-265.3-85.2c-51.2-21.8-94.2-25.8-123.6-24.6
	v175.3c4.3,1,8.7,2.1,13.3,3.1h572.6C615.2,420.1,645.8,382.1,618,370.7z"/>
<path class="st14" d="M768.3,338.3c-21.2,0.5-74.2,5.9-177,37.6C450.2,419.4,309.9,386,309.9,386C94.7,315.2,8.4,317.5,0.3,317.7
	v120.6h768V338.3z"/>
<path class="st22" d="M649.6,122.8c54.8,17.9,104.6,29.3,118.7,40.9V0h-233C548.7,24.8,595.6,105.1,649.6,122.8z"/>
<path class="st23" d="M206.1,0H0.3v129.7C25.8,122.8,141.3,88,206.1,0z"/>
</svg>
