<svg xmlns="http://www.w3.org/2000/svg" x="0px" y="0px"
	 viewBox="0 0 768 439" style="enable-background:new 0 0 768 439;" xml:space="preserve">
<style type="text/css">
	.st0{fill:#B9C9C8;}
	.st1{fill:#2BC080;}
	.st2{fill:#FFD200;}
	.st3{fill:#FFFFFF;}
	.st4{fill:#0063FF;}
	.st5{fill:#FFD824;}
</style>
<rect class="st0" width="768" height="439"/>
<rect x="99.94" y="101.68" class="st1" width="141" height="103.24"/>
<circle class="st2" cx="600.87" cy="155.03" r="57.19"/>
<circle class="st3" cx="600.87" cy="155.03" r="40.62"/>
<path class="st3" d="M339.58,246.53c-0.1-1.22-0.17-2.45-0.17-3.7c0-24.43,19.8-44.23,44.23-44.23s44.23,19.8,44.23,44.23
	c0,1.45-0.1,2.88-0.24,4.3l13.9,3.85c0.35-2.57,0.54-5.19,0.54-7.85c0-32.19-26.1-58.29-58.29-58.29c-8.05,0-15.72,1.63-22.69,4.58
	c-20.92,8.85-35.6,29.57-35.6,53.71c0,2.44,0.16,4.84,0.45,7.2C330.06,249.17,334.73,247.87,339.58,246.53z"/>
<path class="st4" d="M507.23,285.3l-81.03-30.47c1.07-3.82,1.66-7.84,1.66-12c0-24.43-19.8-44.23-44.23-44.23
	s-44.23,19.8-44.23,44.23c0,4.18,0.59,8.23,1.68,12.06l-0.11,0l-80.21,30.41c-7.63,0-13.82,6.19-13.82,13.82v29.58
	c0,7.63,6.19,13.82,13.82,13.82h246.47c7.63,0,13.82-6.19,13.82-13.82v-29.58C521.05,291.49,514.86,285.3,507.23,285.3z"/>
<path d="M494.25,328.52H274.4c-4.21,0-7.63-3.42-7.63-7.63v-15.06c0-4.21,3.42-7.63,7.63-7.63h219.85c4.21,0,7.63,3.42,7.63,7.63
	v15.06C501.88,325.1,498.46,328.52,494.25,328.52z"/>
<path class="st4" d="M498.25,333.52H278.4c-4.21,0-7.63-3.42-7.63-7.63v-15.06c0-4.21,3.42-7.63,7.63-7.63h219.85
	c4.21,0,7.63,3.42,7.63,7.63v15.06C505.88,330.1,502.46,333.52,498.25,333.52z"/>
<polyline class="st5" points="383.86,188.77 387.53,233.89 380.02,233.2 "/>
<polyline points="387.86,191.77 391.53,236.89 384.02,236.2 "/>
<path d="M398.55,246.12c0,5.95-4.82,10.77-10.77,10.77c-5.95,0-10.77-4.82-10.77-10.77c0-4.46,2.71-8.29,6.58-9.92
	c1.29-0.54,2.7-0.85,4.19-0.85C393.72,235.35,398.55,240.17,398.55,246.12z"/>
<path class="st3" d="M394.55,243.12c0,5.95-4.82,10.77-10.77,10.77c-5.95,0-10.77-4.82-10.77-10.77c0-4.46,2.71-8.29,6.58-9.92
	c1.29-0.54,2.7-0.85,4.19-0.85C389.72,232.35,394.55,237.17,394.55,243.12z"/>
<g>
	<path d="M404.8,199.43l2.64-5.61l-0.91-0.43l-2.64,5.62C404.19,199.16,404.5,199.28,404.8,199.43z"/>
	<path d="M396.88,196.45l1.63-6l-0.97-0.26l-1.62,5.99C396.24,196.26,396.56,196.36,396.88,196.45z"/>
	<path d="M412.06,203.76l3.58-5.08l-0.82-0.58l-3.57,5.07C411.52,203.37,411.79,203.57,412.06,203.76z"/>
	<path d="M340.09,222.09l-5.69-2.67l-0.42,0.91l5.7,2.68C339.81,222.7,339.95,222.39,340.09,222.09z"/>
	<path d="M388.57,194.89l0.56-6.2l-1-0.09l-0.56,6.22C387.91,194.83,388.24,194.85,388.57,194.89z"/>
	<path d="M427.97,223.2l5.62-2.6l-0.42-0.91l-5.61,2.6C427.7,222.59,427.83,222.9,427.97,223.2z"/>
	<path d="M423.83,215.82l5.08-3.54l-0.57-0.82l-5.09,3.54C423.45,215.28,423.64,215.55,423.83,215.82z"/>
	<path d="M419.73,210.61l4.59-4.24l-0.68-0.73l-4.6,4.25C419.27,210.13,419.51,210.36,419.73,210.61z"/>
	<path d="M380.12,194.8l-0.53-6.23l-1,0.08l0.53,6.22C379.46,194.84,379.79,194.82,380.12,194.8z"/>
	<path d="M349.92,208.44l-4.44-4.46l-0.71,0.71l4.43,4.46C349.44,208.91,349.68,208.67,349.92,208.44z"/>
	<path d="M344.41,214.84l-5.15-3.62l-0.58,0.82l5.15,3.63C344.03,215.38,344.22,215.11,344.41,214.84z"/>
	<path d="M356.45,203.09l-3.59-5.15l-0.82,0.57l3.58,5.15C355.9,203.46,356.17,203.28,356.45,203.09z"/>
	<path d="M371.78,196.15l-1.6-6.03l-0.97,0.26l1.6,6.05C371.14,196.32,371.46,196.23,371.78,196.15z"/>
	<path d="M363.81,198.95l-2.63-5.68l-0.91,0.42l2.63,5.68C363.2,199.22,363.51,199.08,363.81,198.95z"/>
</g>
<path d="M293.52,228.58c-67.54,8.19-101.77-2.42-110.98-6.02c-0.24-7.45-6.34-13.42-13.85-13.42c-7.66,0-13.87,6.21-13.87,13.87
	s6.21,13.87,13.87,13.87c4.24,0,8.03-1.91,10.57-4.9c74.87,19.5,147.81-2.45,147.81-2.45l3.3-9.84
	C316.93,223.73,293.52,228.58,293.52,228.58z"/>
<path class="st4" d="M293.5,228.59l9.26,6.39c15.15-2.69,24.32-5.45,24.32-5.45l3.3-9.84c-13.45,4.04-36.87,8.89-36.87,8.89
	C293.51,228.58,293.51,228.58,293.5,228.59z"/>
<path d="M475.76,228.58c67.54,8.19,101.77-2.42,110.98-6.02c0.24-7.45,6.34-13.42,13.85-13.42c7.66,0,13.87,6.21,13.87,13.87
	s-6.21,13.87-13.87,13.87c-4.24,0-8.03-1.91-10.57-4.9c-74.87,19.5-147.81-2.45-147.81-2.45l-3.3-9.84
	C452.34,223.73,475.76,228.58,475.76,228.58z"/>
<path class="st1" d="M637.52,172.56l-16.39-16.39l17.1-17.1c-4.11-9.6-11.81-17.3-21.41-21.41l-17.1,17.1l-16.39-16.39
	c-9.4,4.5-16.79,12.51-20.49,22.33l15.47,15.47l-14.82,14.82c4.11,9.6,11.81,17.3,21.41,21.41l14.82-14.82l15.47,15.47
	C625.01,189.35,633.02,181.96,637.52,172.56z"/>
<path class="st4" d="M448.79,222.4c0.79,2.77,1.77,6.12,2.79,9.54c15.38,3.57,48.13,9.65,86.53,7.76c-1.87-2.76-3.77-5.55-5.6-8.25
	c-15.42,0.49-34.22-0.14-56.75-2.87C475.76,228.58,461.46,225.62,448.79,222.4z"/>
<circle class="st4" cx="599.73" cy="223.2" r="3.69"/>
<circle class="st4" cx="168.95" cy="223.2" r="3.69"/>
<path d="M69.27,205.64c0,0,16.07,13.86,29.51,14.06s135.71,0,135.71,0s15.54,0.94,32.27-14.06H69.27z"/>
<path class="st4" d="M210.18,205.64H69.27c0,0,16.07,13.86,29.51,14.06c8.76,0.13,63.8,0.09,101.04,0.05
	C204.89,214.36,208.16,209.67,210.18,205.64z"/>
<path d="M500.98,205.64c0,0,16.07,13.86,29.51,14.06c13.44,0.19,135.71,0,135.71,0s15.54,0.94,32.27-14.06H500.98z"/>
<path class="st4" d="M641.89,205.64H500.98c0,0,16.07,13.86,29.51,14.06c8.76,0.13,63.8,0.09,101.04,0.05
	C636.6,214.36,639.87,209.67,641.89,205.64z"/>
<rect x="584.59" y="141.03" transform="matrix(0.7071 -0.7071 0.7071 0.7071 65.2249 469.8126)" width="30.28" height="30.28"/>
<rect x="222.34" y="101.68" width="4.62" height="103.24"/>
<rect x="231.88" y="101.68" width="4.62" height="103.24"/>
<rect x="99.94" y="112.2" class="st2" width="111.07" height="86.4"/>
<path class="st1" d="M197.35,123.27h-95.34c-0.71,0-1.4,0.09-2.07,0.25v64.54c0.66,0.16,1.35,0.25,2.07,0.25h95.34
	c4.87,0,8.81-3.94,8.81-8.81v-47.43C206.16,127.22,202.22,123.27,197.35,123.27z"/>
<circle class="st3" cx="175.71" cy="154.91" r="14.77"/>
<path class="st2" d="M116.83,126.77c-6.62,0-12.61,3.25-16.9,8.47v39.35c4.29,5.22,10.27,8.47,16.9,8.47
	c13.06,0,23.64-12.6,23.64-28.15S129.89,126.77,116.83,126.77z"/>
<g>
	<path d="M105.83,167.22v-7.82h8.67v2.54c0,0.63,0.22,1.18,0.66,1.65c0.44,0.47,0.94,0.71,1.51,0.71c0.47,0,0.89-0.24,1.25-0.71
		c0.36-0.47,0.54-1.15,0.54-2.02c0-1.07-0.71-1.95-2.12-2.64c-0.75-0.38-2.02-0.78-3.81-1.22c-2.23-0.44-3.96-1.32-5.18-2.64
		c-1.38-1.48-2.07-3.42-2.07-5.84c0-2.26,0.6-4.14,1.79-5.65c1.38-1.73,3.39-2.73,6.03-3.01v-2.83h7.06v2.83
		c1.26,0.28,2.55,0.7,3.88,1.25c1.33,0.55,2.39,1.14,3.18,1.77v7.06h-9.04v-1.7c0-0.78-0.15-1.39-0.45-1.81
		c-0.3-0.42-0.65-0.64-1.06-0.64c-0.41,0-0.82,0.23-1.25,0.68c-0.42,0.46-0.64,0.95-0.64,1.48c0.13,1.22,0.78,2.15,1.98,2.78
		c0.69,0.38,1.73,0.68,3.11,0.9c2.86,0.75,4.83,1.68,5.93,2.78c1.26,1.26,1.88,3.25,1.88,5.98v0.94c0,2.35-0.59,4.18-1.77,5.49
		c-1.18,1.3-3.1,2.14-5.77,2.52v3.11h-7.06v-3.11c-1.32-0.19-2.53-0.47-3.63-0.85C107.98,168.7,106.77,168.04,105.83,167.22z"/>
</g>
</svg>
