<svg xmlns="http://www.w3.org/2000/svg" x="0px" y="0px"
	 viewBox="0 0 768 439" style="enable-background:new 0 0 768 439;" xml:space="preserve">
<style type="text/css">
	.st0{fill:#0062FF;}
	.st1{fill:#D2B66E;}
	.st2{fill:#FFD200;}
	.st3{fill:#FFFFFF;}
	.st4{fill:#F46C3D;}
	.st5{stroke:#000000;stroke-miterlimit:10;}
	.st6{fill:#6D94FF;}
	.st7{fill:#B8C9C8;}
</style>
<rect class="st0" width="768" height="439"/>
<rect x="124.4" y="74.1" width="127.6" height="127.6"/>
<rect x="147" y="95.5" class="st1" width="31" height="31"/>
<rect x="199.2" y="95.5" class="st2" width="31" height="31"/>
<rect x="199.2" y="148.4" class="st0" width="31" height="31"/>
<rect x="147" y="148.4" class="st3" width="31" height="31"/>
<rect x="124.4" y="260.2" width="127.6" height="127.6"/>
<rect x="147" y="281.7" class="st4" width="31" height="31"/>
<rect x="199.2" y="281.7" class="st2" width="31" height="31"/>
<rect x="199.2" y="334.6" class="st0" width="31" height="31"/>
<rect x="147" y="334.6" class="st3" width="31" height="31"/>
<line class="st5" x1="252.1" y1="111" x2="495.9" y2="111"/>
<line class="st5" x1="252.1" y1="137.5" x2="495.9" y2="137.5"/>
<rect x="309.4" y="74.1" width="127.6" height="127.6"/>
<rect x="332" y="95.5" class="st6" width="31" height="31"/>
<rect x="384.2" y="95.5" class="st3" width="31" height="31"/>
<rect x="384.2" y="148.4" class="st7" width="31" height="31"/>
<rect x="332" y="148.4" class="st3" width="31" height="31"/>
<rect x="495.9" y="74.1" width="127.6" height="127.6"/>
<rect x="518.5" y="95.5" class="st2" width="31" height="31"/>
<rect x="570.6" y="95.5" class="st6" width="31" height="31"/>
<rect x="570.6" y="148.4" class="st4" width="31" height="31"/>
<rect x="518.5" y="148.4" class="st0" width="31" height="31"/>
<rect x="495.9" y="260.2" width="127.6" height="127.6"/>
<rect x="518.5" y="281.7" class="st1" width="31" height="31"/>
<rect x="570.6" y="281.7" class="st0" width="31" height="31"/>
<rect x="570.6" y="334.6" class="st2" width="31" height="31"/>
<rect x="518.5" y="334.6" class="st3" width="31" height="31"/>
<line class="st5" x1="252.1" y1="297.2" x2="495.9" y2="297.2"/>
<rect x="309.4" y="260.2" width="127.6" height="127.6"/>
<line class="st5" x1="252.1" y1="350.1" x2="495.9" y2="350.1"/>
<rect x="332" y="281.7" class="st7" width="31" height="31"/>
<rect x="384.2" y="281.7" class="st4" width="31" height="31"/>
<line class="st5" x1="558" y1="260.2" x2="558" y2="201.7"/>
<line class="st5" x1="532.2" y1="260.2" x2="532.2" y2="201.7"/>
<rect x="384.2" y="334.6" class="st0" width="31" height="31"/>
<rect x="332" y="334.6" class="st1" width="31" height="31"/>
<line class="st5" x1="252.1" y1="323.6" x2="309.4" y2="323.6"/>
<circle class="st2" cx="263.7" cy="297.2" r="4.1"/>
<circle class="st4" cx="296.3" cy="323.6" r="4.1"/>
<circle class="st6" cx="276.7" cy="350.1" r="4.1"/>
<line class="st5" x1="188.3" y1="260.2" x2="188.3" y2="201.7"/>
<circle class="st4" cx="481.2" cy="297.2" r="4.1"/>
<circle class="st4" cx="286.1" cy="137.9" r="4.1"/>
<circle class="st2" cx="188.3" cy="219.5" r="4.1"/>
<circle class="st2" cx="532.2" cy="241.7" r="4.1"/>
<circle class="st2" cx="451.6" cy="137.9" r="4.1"/>
<circle class="st6" cx="477.1" cy="111" r="4.1"/>
<line class="st5" x1="437" y1="163.9" x2="495.9" y2="163.9"/>
<line class="st5" x1="162.5" y1="260.2" x2="162.5" y2="201.7"/>
<rect x="471.9" y="159.8" class="st7" width="8.3" height="8.3"/>
<rect x="553.8" y="230.9" class="st4" width="8.3" height="8.3"/>
<rect x="158.3" y="239.2" class="st1" width="8.3" height="8.3"/>
<polygon class="st2" points="271.1,105.5 265.5,115.2 276.6,115.2 "/>
<polygon class="st3" points="457.2,344.5 451.6,354.1 462.8,354.1 "/>
</svg>
