<svg xmlns="http://www.w3.org/2000/svg" x="0px" y="0px"
	 viewBox="0 0 768 439" style="enable-background:new 0 0 768 439;" xml:space="preserve">
<style type="text/css">
	.st0{fill:#006BEF;}
	.st1{fill:#FFFFFF;}
</style>
<rect width="768" height="439"/>
<polyline class="st0" points="344.5,228.1 344.5,217.6 657.3,217.6 646.1,228.9 "/>
<path class="st0" d="M342.2,242.9c0,0,0.4,8.4-2.1,10.5h274.3l19.8-10.5H342.2z"/>
<path class="st0" d="M635.3,180.4H337.8v1.4c-0.5-3.8-1.6-8.3-3.6-13.2c-8.1-20.1-28.9-47.4-67-61c0,0-71.8-29.7-127.6,25.8
	c0,0-37.5,30.4-36.4,93.7c0,0,2.1-65,59-96.1s102.4-12.9,115.9-4.9c10.3,6,35.6,22.3,48.6,44.4c6.7,11.4,10.9,17.3,11.1,23.6h309.8
	L635.3,180.4z"/>
<path class="st0" d="M123,219.5c0,0,0.7,76,70.3,96.5s109.6-32.5,109.6-32.5s26.9-30.1,22.3-64c0,0-2.1,47.4-47.4,75.3
	c-31.9,19.7-74,22.1-108.2-1.4C148.7,279,127.9,254.8,123,219.5z"/>
<path class="st1" d="M251.2,204.5h-5v-17c-0.9-2.4-6.8-15.4-22-14.8c-15.4,0.5-21.2,13.9-22.1,16.4v15.4h-5v-16.3l0.1-0.4
	c0.1-0.2,6.7-19.4,26.8-20.1c20.2-0.7,27,18.4,27,18.6l0.1,0.4V204.5z"/>
<path class="st0" d="M181.4,204.5v67.3h85.3v-67.3H181.4z M226.9,238.3l1.5,15.1h-8.6l1.2-15.3c-2.5-1.2-4.2-3.7-4.2-6.6
	c0-4,3.3-7.3,7.3-7.3s7.3,3.3,7.3,7.3C231.4,234.6,229.6,237.2,226.9,238.3z"/>
</svg>
