<svg xmlns="http://www.w3.org/2000/svg" x="0px" y="0px"
	 viewBox="0 0 47.7 48" style="enable-background:new 0 0 47.7 48;" xml:space="preserve">
<style type="text/css">
	.st0{fill:#B8C9C8;}
	.st1{fill:#0A0B0D;}
	.st2{fill:#0052FF;}
	.st3{fill:#FFFFFF;}
</style>
<rect y="12" class="st0" width="47.7" height="31.8"/>
<path class="st1" d="M31.5,7.9c0-0.1,0-0.2,0-0.3c0-1.9-1.5-3.4-3.4-3.4c-0.3,0-0.6,0.1-0.9,0.1c0.1-0.3,0.2-0.6,0.2-1
	c0-1.9-1.5-3.4-3.4-3.4c-1.9,0-3.4,1.5-3.4,3.4c0,0.5,0.1,0.9,0.3,1.3c-0.3-0.1-0.7-0.2-1-0.2c-1.9,0-3.4,1.5-3.4,3.4H8V48H40V7.9
	H31.5z"/>
<rect x="8" y="12" class="st2" width="32.1" height="31.8"/>
<rect id="XMLID_179_" x="13.8" y="16.3" class="st3" width="21" height="2.5"/>
<rect id="XMLID_171_" x="13.8" y="38" class="st3" width="21" height="1.9"/>
<path class="st3" d="M13.3,28.5l3.6-2.4c0.1-0.1,0.2-0.1,0.3-0.1c0.4,0,1,0.5,1,1c0,0.2-0.1,0.5-0.3,0.6l-2.5,1.6L18,31
	c0.2,0.1,0.3,0.3,0.3,0.6c0,0.6-0.5,1-1,1c-0.1,0-0.2,0-0.3-0.1l-3.6-2.4c-0.3-0.2-0.4-0.6-0.4-0.8C12.9,29.1,13,28.7,13.3,28.5z"/>
<path class="st3" d="M24.8,23.3c0,0.1,0,0.2-0.1,0.3l-5,10.3c-0.1,0.2-0.4,0.4-0.6,0.4c-0.5,0-0.8-0.4-0.8-0.8c0-0.1,0-0.2,0.1-0.3
	l5-10.3c0.1-0.2,0.3-0.4,0.6-0.4C24.4,22.6,24.8,22.9,24.8,23.3z"/>
<path class="st3" d="M30.8,23.3c0,0.1,0,0.2-0.1,0.3l-5,10.3c-0.1,0.2-0.4,0.4-0.6,0.4c-0.5,0-0.8-0.4-0.8-0.8c0-0.1,0-0.2,0.1-0.3
	l5-10.3c0.1-0.2,0.3-0.4,0.6-0.4C30.4,22.6,30.8,22.9,30.8,23.3z"/>
<path class="st3" d="M35.8,30.1l-3.6,2.4c-0.1,0.1-0.2,0.1-0.3,0.1c-0.4,0-1-0.5-1-1c0-0.2,0.1-0.5,0.3-0.6l2.5-1.6l-2.5-1.6
	c-0.2-0.1-0.3-0.3-0.3-0.6c0-0.6,0.5-1,1-1c0.1,0,0.2,0,0.3,0.1l3.6,2.4c0.3,0.2,0.4,0.6,0.4,0.8C36.2,29.6,36.1,29.9,35.8,30.1z"/>
</svg>
