<svg xmlns="http://www.w3.org/2000/svg" x="0px" y="0px"
	 viewBox="0 0 768 439" style="enable-background:new 0 0 768 439;" xml:space="preserve">
<style type="text/css">
	.st0{fill:#2BC080;}
	.st1{fill:none;stroke:#000000;stroke-width:3;stroke-miterlimit:10;}
	.st2{fill:#FFD200;}
	.st3{fill:#0063FF;}
	.st4{fill:#F46C3C;}
</style>
<rect class="st0" width="768" height="439"/>
<line class="st1" x1="335.3" y1="213.1" x2="374.9" y2="173.3"/>
<line class="st1" x1="333.4" y1="238" x2="377.8" y2="279.9"/>
<rect x="118.3" y="213.1" width="40.2" height="40.2"/>
<rect x="164.5" y="213.1" width="40.2" height="40.2"/>
<rect x="210.7" y="213.1" width="40.2" height="40.2"/>
<rect x="256.9" y="213.1" width="40.2" height="40.2"/>
<rect x="303.1" y="213.1" width="40.2" height="40.2"/>
<rect x="627.7" y="155.5" class="st2" width="6.8" height="9.9"/>
<rect x="610.4" y="155.5" class="st2" width="6.8" height="9.9"/>
<rect x="593.1" y="155.5" class="st2" width="6.8" height="9.9"/>
<rect x="575.8" y="155.5" class="st2" width="6.8" height="9.9"/>
<rect x="558.5" y="155.5" class="st2" width="6.8" height="9.9"/>
<rect x="110.2" y="205.5" class="st3" width="40.2" height="40.2"/>
<rect x="156.4" y="205.5" class="st3" width="40.2" height="40.2"/>
<rect x="202.6" y="205.5" class="st3" width="40.2" height="40.2"/>
<rect x="248.8" y="205.5" class="st2" width="40.2" height="40.2"/>
<rect x="295" y="205.5" class="st2" width="40.2" height="40.2"/>
<rect x="383" y="145.3" width="40.2" height="40.2"/>
<rect x="429.3" y="145.3" width="40.2" height="40.2"/>
<rect x="475.5" y="145.3" width="40.2" height="40.2"/>
<rect x="521.7" y="145.3" width="40.2" height="40.2"/>
<rect x="627.7" y="288.7" class="st2" width="6.8" height="9.9"/>
<rect x="610.4" y="288.7" class="st2" width="6.8" height="9.9"/>
<rect x="593.1" y="288.7" class="st2" width="6.8" height="9.9"/>
<rect x="575.8" y="288.7" class="st2" width="6.8" height="9.9"/>
<rect x="558.5" y="288.7" class="st2" width="6.8" height="9.9"/>
<rect x="374.9" y="137.7" class="st3" width="40.2" height="40.2"/>
<rect x="421.2" y="137.7" class="st3" width="40.2" height="40.2"/>
<rect x="467.4" y="137.7" class="st3" width="40.2" height="40.2"/>
<rect x="513.6" y="137.7" class="st3" width="40.2" height="40.2"/>
<rect x="383" y="279.9" width="40.2" height="40.2"/>
<rect x="429.3" y="279.9" width="40.2" height="40.2"/>
<rect x="475.5" y="279.9" width="40.2" height="40.2"/>
<rect x="521.7" y="279.9" width="40.2" height="40.2"/>
<rect x="374.9" y="272.3" class="st4" width="40.2" height="40.2"/>
<rect x="421.2" y="272.3" class="st4" width="40.2" height="40.2"/>
<rect x="467.4" y="272.3" class="st4" width="40.2" height="40.2"/>
<rect x="513.6" y="272.3" class="st4" width="40.2" height="40.2"/>
</svg>
