<svg xmlns="http://www.w3.org/2000/svg" x="0px" y="0px"
	 viewBox="0 0 368.6 210.7" style="enable-background:new 0 0 368.6 210.7;" xml:space="preserve">
<style type="text/css">
	.st0{fill:#D2B56D;}
	.st1{fill:none;stroke:#FFD201;stroke-miterlimit:10;}
	.st2{fill:none;stroke:#0065FD;stroke-miterlimit:10;}
	.st3{fill:#FFD200;}
	.st4{fill:#FFFFFF;}
	.st5{fill:none;stroke:#FFFFFF;stroke-miterlimit:10;}
	.st6{fill:none;stroke:#F56D41;stroke-miterlimit:10;}
	.st7{fill:none;stroke:#2AC080;stroke-miterlimit:10;}
	.st8{fill:#0162FF;}
	.st9{fill:#2AC080;}
	.st10{fill:#F56D40;}
</style>
<rect class="st0" width="368.6" height="210.7"/>
<polyline class="st1" points="264,145.1 220.2,145.1 238,97.8 197.2,23.5 144.7,35.1 182,105.7 208.1,181.2 "/>
<polyline class="st2" points="264,173.7 220.2,145.1 198,121.3 "/>
<line class="st1" x1="175.3" y1="115.3" x2="143" y2="157"/>
<circle cx="184.3" cy="105.8" r="23.8"/>
<line class="st2" x1="264.5" y1="144.4" x2="144.7" y2="35.1"/>
<circle class="st3" cx="184.3" cy="101.8" r="23.8"/>
<circle cx="184.3" cy="101.8" r="18.4"/>
<circle class="st3" cx="184.3" cy="104.6" r="18.4"/>
<polygon class="st4" points="188.5,104.1 195.8,101.9 188.1,99.5 192.3,93.6 186.5,97.6 184.3,90.4 182.1,97.7 176.3,93.6 
	180.4,99.6 172.8,101.9 180.1,104.1 176.2,109.6 182,105.7 184.3,113.4 186.6,105.6 192.2,109.6 "/>
<polyline class="st5" points="297.2,82 269.5,103.8 197.2,23.5 187.4,78.2 "/>
<polyline class="st5" points="238,97.8 316.5,166.6 208.1,181.2 "/>
<line class="st1" x1="103.6" y1="143.9" x2="98.6" y2="167.5"/>
<line class="st1" x1="74.7" y1="141.3" x2="98.6" y2="167.5"/>
<polyline class="st2" points="206,181.2 136.7,127.9 58.3,97.1 144.7,35.1 136.7,127.9 "/>
<polyline class="st6" points="269.5,103.8 222,143.9 143,158.8 150.6,108.2 105.5,143 "/>
<polyline class="st7" points="59.1,96.1 272.4,45.4 238,98.5 "/>
<line class="st7" x1="105.5" y1="143.9" x2="141.9" y2="157"/>
<circle class="st8" cx="144.7" cy="35.8" r="2.8"/>
<circle class="st8" cx="135" cy="127.8" r="2.8"/>
<circle class="st8" cx="263" cy="174" r="2.8"/>
<circle class="st9" cx="272.4" cy="44.6" r="2.8"/>
<circle class="st9" cx="103.6" cy="143.9" r="2.8"/>
<circle class="st10" cx="143" cy="158.8" r="2.5"/>
<circle class="st10" cx="208.1" cy="181.2" r="2.5"/>
<circle class="st10" cx="269.5" cy="103.1" r="2.5"/>
<circle class="st4" cx="59.1" cy="96.3" r="2.8"/>
<circle class="st4" cx="198" cy="23.5" r="2.8"/>
<circle class="st3" cx="74.7" cy="141.3" r="2.2"/>
<circle class="st3" cx="264.5" cy="144.4" r="2.2"/>
<circle class="st3" cx="238.3" cy="97.8" r="2.2"/>
<circle class="st8" cx="219.9" cy="144.4" r="2.2"/>
<circle class="st4" cx="297.2" cy="82" r="2.2"/>
<circle class="st4" cx="316.5" cy="167.5" r="2.2"/>
<circle class="st4" cx="98.6" cy="167.5" r="2.2"/>
<circle class="st10" cx="151" cy="106.9" r="2.2"/>
</svg>
