<svg xmlns="http://www.w3.org/2000/svg" x="0px" y="0px"
	 viewBox="0 0 768 439" style="enable-background:new 0 0 768 439;" xml:space="preserve">
<style type="text/css">
	.st0{fill:#B9C9C8;}
	.st1{fill:#0063FF;}
	.st2{fill:none;stroke:#FFFFFF;stroke-miterlimit:10;}
	.st3{fill:#FFFFFF;}
	.st4{fill:#FFD200;}
</style>
<rect y="0" class="st0" width="768" height="439"/>
<polygon class="st1" points="429.81,193.25 384.9,167.33 339.99,193.25 339.99,245.11 384.9,271.04 429.81,245.11 "/>
<line class="st2" x1="127.78" y1="365.44" x2="256.28" y2="439"/>
<line class="st2" x1="65.57" y1="256.32" x2="383.64" y2="439"/>
<line class="st2" x1="66.08" y1="181.87" x2="510.2" y2="439"/>
<line class="st2" x1="129.31" y1="146.18" x2="573.43" y2="402.22"/>
<line class="st2" x1="128.29" y1="72.25" x2="321.32" y2="181.66"/>
<line class="st2" x1="192.03" y1="36.55" x2="637.68" y2="293.03"/>
<line class="st2" x1="256.79" y1="0" x2="702.44" y2="256.83"/>
<line class="st2" x1="384" y1="0" x2="702.44" y2="182.38"/>
<line class="st2" x1="510.71" y1="0" x2="637.68" y2="72.76"/>
<line class="st2" x1="128.29" y1="72.25" x2="256.79" y2="0"/>
<line class="st2" x1="66.08" y1="181.87" x2="384" y2="0"/>
<line class="st2" x1="65.57" y1="256.32" x2="510.71" y2="0"/>
<line class="st2" x1="129.36" y1="292.95" x2="574.2" y2="36.38"/>
<line class="st2" x1="446.9" y1="182.85" x2="637.68" y2="72.76"/>
<line class="st2" x1="192.54" y1="402.51" x2="638.48" y2="146.69"/>
<line class="st2" x1="256.28" y1="439" x2="702.44" y2="182.38"/>
<line class="st2" x1="702.44" y1="256.83" x2="383.64" y2="439"/>
<line class="st2" x1="510.2" y1="439" x2="637.68" y2="365.95"/>
<line class="st2" x1="637.68" y1="72.76" x2="637.68" y2="365.95"/>
<line class="st2" x1="702.44" y1="256.83" x2="702.44" y2="182.38"/>
<line class="st2" x1="573.94" y1="0" x2="573.94" y2="439"/>
<line class="st2" x1="510.71" y1="0" x2="510.71" y2="437.88"/>
<line class="st2" x1="446.86" y1="0" x2="446.86" y2="437.88"/>
<line class="st2" x1="384" y1="72.58" x2="384" y2="0"/>
<line class="st2" x1="383.64" y1="365.95" x2="383.64" y2="439"/>
<line class="st2" x1="320.32" y1="0" x2="320.32" y2="439"/>
<line class="st2" x1="256.79" y1="0" x2="256.79" y2="437.88"/>
<line class="st2" x1="192.54" y1="0" x2="192.54" y2="439"/>
<line class="st2" x1="128.29" y1="72.25" x2="128.29" y2="365.95"/>
<line class="st2" x1="66.08" y1="181.87" x2="66.08" y2="256.32"/>
<polygon class="st3" points="319.66,182.89 255.79,146.5 256.79,73.82 320.32,109.63 "/>
<polygon points="319.66,182.89 384,147.04 384,72.58 320.32,109.63 "/>
<polygon class="st1" points="320.32,109.63 256.79,73.82 320.32,36.61 384,72.58 "/>
<polygon class="st3" points="446.9,182.85 383.02,146.46 384.02,73.78 447.55,109.6 "/>
<polygon points="446.9,182.85 511.24,147 511.24,72.54 447.55,109.6 "/>
<polygon class="st1" points="447.55,109.6 384.02,73.78 447.55,36.57 511.24,72.54 "/>
<polygon class="st3" points="508.71,292.08 444.83,255.69 445.83,183.01 509.36,218.82 "/>
<polygon points="508.71,292.08 573.05,256.22 573.05,181.77 509.36,218.82 "/>
<polygon class="st1" points="509.36,218.82 445.83,183.01 509.36,145.8 573.05,181.77 "/>
<polygon class="st3" points="446.4,402.25 382.52,365.86 383.52,293.19 447.05,329 "/>
<polygon points="446.4,402.25 510.74,366.4 510.74,291.95 447.05,329 "/>
<polygon class="st1" points="447.05,329 383.52,293.19 447.05,255.98 510.74,291.95 "/>
<polygon class="st3" points="320.08,401.21 256.21,364.82 257.21,292.14 320.74,327.95 "/>
<polygon points="320.08,401.21 384.42,365.35 384.42,290.9 320.74,327.95 "/>
<polygon class="st1" points="320.74,327.95 257.21,292.14 320.74,254.93 384.42,290.9 "/>
<line class="st2" x1="127.78" y1="365.44" x2="320.74" y2="254.93"/>
<polygon class="st3" points="256.98,291.96 193.1,255.57 194.1,182.9 257.63,218.71 "/>
<polygon points="256.98,291.96 321.32,256.11 321.32,181.66 257.63,218.71 "/>
<polygon class="st1" points="257.63,218.71 194.1,182.9 257.63,145.69 321.32,181.66 "/>
<line class="st2" x1="509.24" y1="291.14" x2="639.02" y2="366.07"/>
<rect x="362.12" y="211.46" class="st4" width="43.05" height="33.97"/>
<path d="M387.27,224.95c0-1.82-1.56-3.37-3.37-3.37c-1.82,0-3.37,1.56-3.37,3.37c0,1.56,1.04,2.85,2.33,3.37l0,0l-0.78,7.52h4.15
	l-1.04-7.52C386.5,227.54,387.27,226.24,387.27,224.95z"/>
<path class="st3" d="M397.13,211.46h-2.07v-7.78c-0.26-1.04-3.11-8.3-11.15-8.3h-0.26c-8.3,0-10.63,7.78-10.89,9.08v7h-2.07v-7.26
	c0,0,2.59-10.63,12.97-10.63h0.26c10.11,0,13.22,9.85,13.22,9.85v0.26C397.13,203.68,397.13,211.46,397.13,211.46z"/>
</svg>
