<svg xmlns="http://www.w3.org/2000/svg" x="0px" y="0px"
	 viewBox="0 0 768 439" style="enable-background:new 0 0 768 439;" xml:space="preserve">
<style type="text/css">
	.st0{fill:#B9C9C8;}
	.st1{fill:#FFD200;}
	.st2{fill:none;stroke:#FFFFFF;stroke-miterlimit:10;}
	.st3{fill:none;stroke:#000000;stroke-miterlimit:10;stroke-dasharray:4,4;}
	.st4{fill:none;stroke:#000000;stroke-miterlimit:10;}
	.st5{fill:#FFFFFF;}
	.st6{fill:#F46C3D;}
	.st7{fill:#0052FF;}
	.st8{fill:#0063FF;}
	.st9{fill:#F46B3D;}
	.st10{fill:#32A48E;}
	.st11{fill:#80D4C4;}
	.st12{fill:#B4E6DD;}
	.st13{fill:#D2F0EA;}
	.st14{fill:none;stroke:#32A48E;stroke-miterlimit:10;}
	.st15{fill:none;stroke:#FFD200;stroke-miterlimit:10;}
	.st16{fill:none;stroke:#FFD200;stroke-miterlimit:10;stroke-dasharray:4,4;}
	.st17{fill:none;stroke:#0063FF;stroke-miterlimit:10;}
</style>
<rect class="st0" width="768" height="439"/>
<circle cx="383.71" cy="224.56" r="82.79"/>
<circle class="st1" cx="380.71" cy="218.56" r="82.79"/>
<path class="st2" d="M210.04,395.15c-44.99-44.81-72.84-106.83-72.84-175.34C137.2,83.14,248-27.66,384.67-27.66
	s247.47,110.8,247.47,247.47c0,51.25-15.58,98.86-42.26,138.36"/>
<path class="st3" d="M589.89,358.17C545.42,424,470.1,467.28,384.67,467.28h-1c-68.16,0-129.88-27.55-174.64-72.13"/>
<path class="st4" d="M383.78,549.78c-183.01,0-331.36-148.36-331.36-331.36s148.36-331.36,331.36-331.36
	c139.99,0,259.7,86.81,308.25,209.53"/>
<path class="st3" d="M692.03,96.58c14.92,37.71,23.12,78.82,23.12,121.83c0,183.01-148.36,331.36-331.36,331.36"/>
<circle class="st1" cx="77.9" cy="85.74" r="36.62"/>
<circle class="st1" cx="589.3" cy="345.78" r="36.62"/>
<path class="st5" d="M588.71,315.46c0,0-18.95,30.87-18.3,30.75s18.3-7.92,18.3-7.92V315.46z"/>
<polygon class="st6" points="588.71,315.46 588.71,338.29 607.32,346.21 "/>
<polygon class="st5" points="588.71,362.29 588.71,376.1 570.41,351.13 "/>
<polygon class="st6" points="588.71,376.1 607.32,351.61 588.71,362.29 "/>
<polygon class="st7" points="588.71,338.29 588.71,357.37 570.41,346.21 "/>
<polygon points="588.71,338.29 607.32,346.21 588.71,357.37 "/>
<circle class="st5" cx="77.2" cy="73.16" r="2.3"/>
<g>
	<g>
		<path class="st5" d="M77.2,55.46c-6.4,0-12.1,3.5-15.2,8.6l3.4,2.1c2.4-4,6.8-6.7,11.7-6.7c5,0,9.4,2.7,11.8,6.7l3.4-2
			C89.3,58.96,83.7,55.46,77.2,55.46z"/>
		<path class="st5" d="M77.2,62.86c-3.8,0-7.1,2-8.9,5.1l3.4,2.1c1.1-1.9,3.1-3.1,5.5-3.1c2.3,0,4.4,1.3,5.5,3.1l3.4-2
			C84.3,64.86,81,62.86,77.2,62.86z"/>
	</g>
</g>
<rect x="60.17" y="82.48" class="st8" width="33.35" height="23.87"/>
<circle class="st5" cx="87.67" cy="94.42" r="0.97"/>
<polygon points="60.17,82.48 87.67,76.78 87.67,82.48 "/>
<circle class="st1" cx="691.44" cy="96.58" r="36.62"/>
<rect x="675.04" y="100.13" class="st5" width="10.94" height="12.97"/>
<rect x="685.98" y="87.16" class="st9" width="10.94" height="12.97"/>
<rect x="696.91" y="80.06" class="st8" width="10.94" height="33.04"/>
<rect x="685.98" y="100.13" width="10.94" height="12.97"/>
<g>
	<rect x="326.03" y="252.01" class="st10" width="109.32" height="9.11"/>
	<rect x="329.95" y="242.9" class="st11" width="101.51" height="9.11"/>
	<rect x="329.95" y="183.37" class="st10" width="101.51" height="9.11"/>
	<g>
		<rect x="374.32" y="199.31" class="st12" width="12.75" height="36.76"/>
		<rect x="370.4" y="192.48" class="st13" width="20.59" height="6.83"/>
		<rect x="370.4" y="236.07" class="st13" width="20.59" height="6.83"/>
	</g>
	<g>
		<rect x="405.67" y="199.3" class="st12" width="12.75" height="36.76"/>
		<rect x="401.74" y="192.48" class="st13" width="20.59" height="6.83"/>
		<rect x="401.74" y="236.07" class="st13" width="20.59" height="6.83"/>
	</g>
	<g>
		<rect x="342.97" y="199.32" class="st12" width="12.75" height="36.76"/>
		<rect x="339.06" y="192.48" class="st13" width="20.59" height="6.83"/>
		<rect x="339.06" y="236.07" class="st13" width="20.59" height="6.83"/>
	</g>
	<polygon class="st12" points="380.7,151.8 329.95,183.37 431.44,183.37 	"/>
	<rect x="371.59" y="169.02" class="st11" width="18.22" height="14.35"/>
	<circle class="st5" cx="380.7" cy="169.34" r="9.11"/>
</g>
<path class="st14" d="M383.24,376.1"/>
<path class="st14" d="M225.17,218.03"/>
<path class="st14" d="M383.24,376.1"/>
<path class="st4" d="M541.31,218.03c0,87.3-70.77,158.07-158.07,158.07"/>
<path class="st14" d="M541.31,218.03"/>
<g>
	<g>
		<path class="st15" d="M225.17,218.03c0-87.3,70.77-158.07,158.07-158.07c30.17,0,58.36,8.45,82.34,23.12"/>
		<g>
			<polygon class="st1" points="461.65,86.62 471.62,86.96 466.93,78.16 			"/>
		</g>
	</g>
</g>
<path class="st3" d="M471.62,86.96c42.05,28.41,69.69,76.51,69.69,131.07"/>
<path class="st16" d="M383.24,376.1c-87.3,0-158.07-70.77-158.07-158.07"/>
<circle class="st8" cx="380.71" cy="376.1" r="3.29"/>
<path class="st17" d="M384.67,467.28"/>
<circle class="st8" cx="172.8" cy="90.45" r="4.71"/>
<rect x="203.99" y="388.86" transform="matrix(0.7071 -0.7071 0.7071 0.7071 -217.3062 263.182)" class="st5" width="10.09" height="10.09"/>
<rect x="52.72" y="273.49" transform="matrix(0.9944 -0.1059 0.1059 0.9944 -29.1724 7.6835)" class="st1" width="10.09" height="10.09"/>
<polygon class="st5" points="714.3,241.89 721.02,230.27 707.59,230.27 "/>
</svg>
