<svg xmlns="http://www.w3.org/2000/svg" x="0px" y="0px"
	 viewBox="0 0 768 439" style="enable-background:new 0 0 768 439;" xml:space="preserve">
<style type="text/css">
	.st0{fill:#2BBF7F;}
	.st1{fill:#FFD200;}
	.st2{fill:#FFFFFF;}
	.st3{fill:#DE8557;}
	.st4{fill:#FEE0D0;}
	.st5{fill:#0052FF;}
</style>
<rect width="768" height="439"/>
<polygon class="st0" points="716.8,86.9 716.8,439 768,439 768,58.8 "/>
<polygon class="st0" points="443.9,236.9 393.7,264.5 393.7,427.7 407.9,439 443.9,439 "/>
<g>
	<polygon class="st0" points="498.5,300.1 498.5,206.9 446.1,235.7 446.1,375.7 	"/>
	<polygon class="st0" points="446.1,379.6 446.1,439 498.5,439 498.5,304 	"/>
</g>
<g>
	<polygon class="st0" points="714.6,154.8 714.6,88.1 662.5,116.8 662.5,272.6 	"/>
	<polygon class="st0" points="662.5,278 662.5,439 714.6,439 714.6,160.3 	"/>
</g>
<g>
	<polygon class="st0" points="660.3,276.8 660.3,118 608.6,146.4 608.6,225.1 	"/>
	<polygon class="st0" points="608.6,228.2 608.6,439 660.3,439 660.3,279.9 	"/>
</g>
<g>
	<polygon class="st0" points="555.3,345.9 555.3,439 606.4,439 606.4,229.4 	"/>
	<polygon class="st0" points="606.4,224 606.4,147.6 555.3,175.7 555.3,340.4 	"/>
</g>
<g>
	<polygon class="st0" points="553.1,343.3 553.1,176.9 500.7,205.7 500.7,300.6 	"/>
	<polygon class="st0" points="500.7,303.5 500.7,439 553.1,439 553.1,346.2 	"/>
</g>
<polygon class="st0" points="391.5,265.7 272.1,331.3 391.5,426 "/>
<path class="st1" d="M407.9,417.5h-124c-3,0-5.4,2.4-5.4,5.4v9h134.8v-9C413.3,419.9,410.9,417.5,407.9,417.5z"/>
<path d="M278.5,431.8v1.8c0,3,2.4,5.4,5.4,5.4h124c3,0,5.4-2.4,5.4-5.4v-1.8H278.5z"/>
<rect x="378.2" y="417.5" class="st2" width="13.3" height="14.4"/>
<rect x="378.2" y="431.8" class="st1" width="13.3" height="7.2"/>
<path class="st2" d="M407.9,417.5h-8.4v14.4h13.8v-9C413.3,419.9,410.9,417.5,407.9,417.5z"/>
<path class="st1" d="M399.5,439h8.4c3,0,5.4-2.4,5.4-5.4v-1.8h-13.8V439z"/>
<path class="st1" d="M407.9,395.9h-124c-3,0-5.4,2.4-5.4,5.4v9h134.8v-9C413.3,398.3,410.9,395.9,407.9,395.9z"/>
<path d="M278.5,410.3v1.8c0,3,2.4,5.4,5.4,5.4h124c3,0,5.4-2.4,5.4-5.4v-1.8H278.5z"/>
<rect x="378.2" y="395.9" class="st2" width="13.3" height="14.4"/>
<rect x="378.2" y="410.3" class="st1" width="13.3" height="7.2"/>
<path class="st2" d="M407.9,395.9h-8.4v14.4h13.8v-9C413.3,398.3,410.9,395.9,407.9,395.9z"/>
<path class="st1" d="M399.5,417.5h8.4c3,0,5.4-2.4,5.4-5.4v-1.8h-13.8V417.5z"/>
<path class="st1" d="M401,374.4H277c-3,0-5.4,2.4-5.4,5.4v9h134.8v-9C406.4,376.8,404,374.4,401,374.4z"/>
<path d="M271.6,388.7v1.8c0,3,2.4,5.4,5.4,5.4h124c3,0,5.4-2.4,5.4-5.4v-1.8H271.6z"/>
<rect x="371.3" y="374.4" class="st2" width="13.3" height="14.4"/>
<rect x="371.3" y="388.7" class="st1" width="13.3" height="7.2"/>
<path class="st2" d="M401,374.4h-8.4v14.4h13.8v-9C406.4,376.8,404,374.4,401,374.4z"/>
<path class="st1" d="M392.6,395.9h8.4c3,0,5.4-2.4,5.4-5.4v-1.8h-13.8V395.9z"/>
<path class="st1" d="M420.5,352.8h-124c-3,0-5.4,2.4-5.4,5.4v9h134.8v-9C425.9,355.2,423.5,352.8,420.5,352.8z"/>
<path d="M291.1,367.2v1.8c0,3,2.4,5.4,5.4,5.4h124c3,0,5.4-2.4,5.4-5.4v-1.8H291.1z"/>
<rect x="390.8" y="352.8" class="st2" width="13.3" height="14.4"/>
<rect x="390.8" y="367.2" class="st1" width="13.3" height="7.2"/>
<path class="st2" d="M420.5,352.8h-8.4v14.4h13.8v-9C425.9,355.2,423.5,352.8,420.5,352.8z"/>
<path class="st1" d="M412.1,374.4h8.4c3,0,5.4-2.4,5.4-5.4v-1.8h-13.8V374.4z"/>
<path class="st1" d="M396.1,331.3h-124c-3,0-5.4,2.4-5.4,5.4v9h134.8v-9C401.5,333.7,399.1,331.3,396.1,331.3z"/>
<path d="M266.7,345.7v1.8c0,3,2.4,5.4,5.4,5.4h124c3,0,5.4-2.4,5.4-5.4v-1.8H266.7z"/>
<rect x="366.4" y="331.3" class="st2" width="13.3" height="14.4"/>
<rect x="366.4" y="345.7" class="st1" width="13.3" height="7.2"/>
<path class="st2" d="M396.1,331.3h-8.4v14.4h13.8v-9C401.5,333.7,399.1,331.3,396.1,331.3z"/>
<path class="st1" d="M387.7,352.8h8.4c3,0,5.4-2.4,5.4-5.4v-1.8h-13.8V352.8z"/>
<path class="st3" d="M109.4,0c0,0,28.5,48.4,38,60.4c9.5,12,29.2,57,30.4,81.8c1.3,24.7,34.2,108.4,34.2,108.4s19.6,27.9,40.6,19
	c20.9-8.9,27.2-19.6,25.9-62.1L253.9,88.9c0,0-5-53.9,17.8-62.1s32.9,12,32.9,12s2.5,3.8,3.2,20.9c0.6,17.1,7.6,225,7.6,225
	s-3.7,46.5,23.7,46.5s23.2,2.3,23.8-9.8c0.6-12,34.7-283.9,36.6-299.8S397.4,0,397.4,0H109.4z"/>
<path class="st4" d="M244.4,178.3c0,0-14.2-78.4-17.7-98.2c-1.3-68.4,60-54.8,60-54.8l0,0c12.3,2.3,17.9,13.6,17.9,13.6
	s2.5,3.8,3.2,20.9c0.6,17.1,7.6,225,7.6,225s-3.7,46.5,23.7,46.5c1.6,0,3,0,4.4,0l15-269c4.8-33.5,1.3-52.1-5.1-62.3h-244
	c0,0,28.5,48.4,38,60.4c9.5,12,29.2,57,30.4,81.8c1.3,24.7,34.2,108.4,34.2,108.4s19.6,27.9,40.6,19
	C268,260.7,244.4,178.3,244.4,178.3z"/>
<path class="st5" d="M177.8,142.3l-27.9,14.5c0,0-50.7,19-50.1,45c0.6,26,25.3,15.8,25.3,15.8s31-16.7,62.8-33.9
	C182.6,166.7,178.3,151,177.8,142.3z"/>
<path class="st5" d="M161.4,86.2c-30.8,9.6-64.7,22.2-72.9,33.7c-15.8,22.2,5.7,26.6,5.7,26.6l80.9-21.3
	C172,112.6,166.8,98.4,161.4,86.2z"/>
<path class="st5" d="M193.6,200.4c-3.4,2.2-6.4,4.1-8.8,5.8c-22.2,15.2-22.2,20.9-22.2,20.9c-10.1,38.7,19.6,29.8,19.6,29.8
	l27.1-13.1C206,234.8,199.7,218.1,193.6,200.4z"/>
<path class="st5" d="M311.6,172.1c-0.1-1.6-0.1-3.3-0.2-4.9c-0.1-3.5-0.2-6.9-0.3-10.3c0-0.6,0-1.3-0.1-1.9c-0.1-2-0.1-3.9-0.2-5.9
	c0-0.9-0.1-1.8-0.1-2.6c-0.1-3.6-0.2-7.2-0.4-10.8c-0.1-2.6-0.2-5.2-0.3-7.8c-0.2-6.9-0.5-13.6-0.7-19.9c0-0.6,0-1.1-0.1-1.7
	c-0.5-14.5-0.9-26.8-1.2-35.3c0-0.3,0-0.5,0-0.8c0-0.5,0-1,0-1.4c0-0.4,0-0.9,0-1.3c0-0.6,0-1.2-0.1-1.8c0-0.3,0-0.6,0-0.8
	c-0.1-1.7-0.1-3.1-0.1-4.1c0-0.4,0-0.7,0-0.9c-0.6-17.1-3.2-20.9-3.2-20.9s0,0,0,0c0,0,0,0,0,0c0,0,0-0.1,0-0.1c0,0,0-0.1,0-0.1
	c0,0-0.1-0.1-0.1-0.1c0-0.1-0.1-0.1-0.1-0.2c0-0.1-0.1-0.1-0.1-0.2c0-0.1-0.1-0.1-0.1-0.2c0-0.1-0.1-0.1-0.1-0.2
	c0-0.1-0.1-0.2-0.2-0.2c0,0-0.1-0.1-0.1-0.1c-0.1-0.2-0.3-0.4-0.4-0.6c0,0-0.1-0.1-0.1-0.1c-0.1-0.1-0.2-0.2-0.3-0.4
	c0-0.1-0.1-0.1-0.1-0.2c-0.3-0.4-0.7-0.9-1.1-1.4c0,0-0.1-0.1-0.1-0.1c-0.1-0.2-0.3-0.3-0.4-0.5c0,0-0.1-0.1-0.1-0.1
	c-0.4-0.5-0.9-1.1-1.5-1.6c0,0-0.1-0.1-0.1-0.1c-0.2-0.2-0.4-0.3-0.5-0.5c0,0-0.1-0.1-0.1-0.1c-0.6-0.5-1.2-1.1-1.9-1.6
	c0,0-0.1-0.1-0.1-0.1c-0.2-0.2-0.4-0.3-0.7-0.5c-0.1,0-0.1-0.1-0.2-0.1c-0.7-0.5-1.4-1-2.2-1.4c-0.1,0-0.1-0.1-0.2-0.1
	c-0.2-0.1-0.5-0.3-0.8-0.4c-0.1,0-0.2-0.1-0.3-0.1c-0.8-0.4-1.7-0.8-2.5-1.1c-0.1,0-0.2-0.1-0.4-0.1c-0.3-0.1-0.5-0.2-0.8-0.3
	c-0.1,0-0.3-0.1-0.4-0.1c-0.6-0.2-1.3-0.3-2-0.5l0,0c-4.2-0.8-9.2-0.6-15,1.5c-22.8,8.2-17.8,62.1-17.8,62.1l10.3,49.6
	c5.1-5.5,7.4-10.3,7.4-10.3L284.3,94l-8.9,57.7c0,0-2.9,1.6-7.6,4.4l10.5,50.3l33.5-25.4c-0.1-2.5-0.2-4.9-0.2-7.4
	C311.6,173,311.6,172.5,311.6,172.1z"/>
<circle class="st2" cx="445" cy="379.3" r="8.5"/>
<circle class="st2" cx="499.3" cy="300.9" r="8.5"/>
<circle class="st2" cx="554.2" cy="345.7" r="8.5"/>
<circle class="st2" cx="607.1" cy="225.1" r="8.5"/>
<circle class="st2" cx="660.9" cy="279" r="8.5"/>
<circle class="st2" cx="715.7" cy="155.1" r="8.5"/>
</svg>
