<svg xmlns="http://www.w3.org/2000/svg" x="0px" y="0px"
	 viewBox="0 0 768 439" style="enable-background:new 0 0 768 439;" xml:space="preserve">
<style type="text/css">
	.st0{fill:#0052FF;}
	.st1{fill:none;stroke:#000000;stroke-miterlimit:10;}
	.st2{fill:#FFD200;}
	.st3{fill:#FFFFFF;}
	.st4{fill:#F46C3D;}
	.st5{fill:#B8C9C8;}
</style>
<rect class="st0" width="768" height="439"/>
<line class="st1" x1="517.82" y1="153.95" x2="610.92" y2="101.93"/>
<line class="st1" x1="516.71" y1="269.43" x2="610.92" y2="101.93"/>
<line class="st1" x1="517.26" y1="120.77" x2="610.92" y2="257.05"/>
<line class="st1" x1="516.71" y1="181.19" x2="610.92" y2="181.19"/>
<line class="st1" x1="512.27" y1="200.39" x2="610.92" y2="336.05"/>
<line class="st1" x1="513.38" y1="234.91" x2="608.71" y2="181.19"/>
<line class="st1" x1="516.71" y1="287.04" x2="615.91" y2="257.05"/>
<line class="st1" x1="516.71" y1="311.96" x2="615.91" y2="336.05"/>
<line class="st1" x1="246.42" y1="315.66" x2="155.92" y2="101.93"/>
<line class="st1" x1="252.14" y1="183.83" x2="155.92" y2="101.93"/>
<line class="st1" x1="155.92" y1="257.05" x2="252.14" y2="117.22"/>
<line class="st1" x1="155.92" y1="181.19" x2="256.85" y2="149.33"/>
<line class="st1" x1="160.9" y1="257.05" x2="252.14" y2="259.33"/>
<line class="st1" x1="252.14" y1="228.84" x2="155.92" y2="336.05"/>
<line class="st1" x1="256.85" y1="281.14" x2="155.92" y2="336.05"/>
<line class="st1" x1="250.13" y1="207.79" x2="155.92" y2="181.19"/>
<rect x="246.42" y="62.7" width="275.4" height="24.95"/>
<path class="st2" d="M271.27,79.42L271.27,79.42c-2.59,0-4.72-2.12-4.72-4.72v0c0-2.59,2.12-4.72,4.72-4.72h0
	c2.59,0,4.72,2.12,4.72,4.72v0C275.98,77.3,273.86,79.42,271.27,79.42z"/>
<path class="st0" d="M285.68,79.42L285.68,79.42c-2.59,0-4.72-2.12-4.72-4.72v0c0-2.59,2.12-4.72,4.72-4.72l0,0
	c2.59,0,4.72,2.12,4.72,4.72v0C290.4,77.3,288.28,79.42,285.68,79.42z"/>
<rect x="246.42" y="87.65" class="st3" width="275.4" height="288.06"/>
<path class="st4" d="M256.85,79.42L256.85,79.42c-2.59,0-4.72-2.12-4.72-4.72v0c0-2.59,2.12-4.72,4.72-4.72l0,0
	c2.59,0,4.72,2.12,4.72,4.72v0C261.57,77.3,259.45,79.42,256.85,79.42z"/>
<rect x="411.23" y="109.83" class="st5" width="50.21" height="7.39"/>
<rect x="411.23" y="125.54" class="st5" width="73.45" height="7.39"/>
<rect x="411.23" y="141.25" class="st5" width="73.45" height="7.39"/>
<rect x="282.15" y="200.39" class="st5" width="190.25" height="7.39"/>
<rect x="282.15" y="215.8" class="st5" width="202.53" height="7.39"/>
<rect x="282.15" y="231.21" class="st5" width="190.25" height="7.39"/>
<rect x="282.15" y="246.62" class="st5" width="202.53" height="7.39"/>
<rect x="282.15" y="262.03" class="st5" width="190.25" height="7.39"/>
<rect x="282.15" y="277.44" class="st5" width="202.53" height="7.39"/>
<rect x="282.15" y="292.85" class="st5" width="190.25" height="7.39"/>
<rect x="282.15" y="308.26" class="st5" width="202.53" height="7.39"/>
<rect x="282.15" y="323.67" class="st5" width="190.25" height="7.39"/>
<rect x="282.15" y="339.08" class="st5" width="202.53" height="7.39"/>
<path class="st2" d="M298.31,109.83c0,0-23.13,37.67-22.33,37.53s22.33-9.67,22.33-9.67V109.83z"/>
<polygon class="st4" points="298.31,109.83 298.31,137.69 321.02,147.36 "/>
<polygon class="st2" points="298.31,166.98 298.31,183.83 275.98,153.36 "/>
<polygon class="st4" points="298.31,183.83 321.02,153.95 298.31,166.98 "/>
<polygon class="st0" points="298.31,137.69 298.31,160.98 275.98,147.36 "/>
<polygon points="298.31,137.69 321.02,147.36 298.31,160.98 "/>
<circle class="st3" cx="155.92" cy="101.93" r="4.99"/>
<circle class="st3" cx="155.92" cy="181.19" r="4.99"/>
<circle class="st3" cx="155.92" cy="257.05" r="4.99"/>
<circle class="st3" cx="155.92" cy="336.05" r="4.99"/>
<circle class="st3" cx="610.92" cy="101.93" r="4.99"/>
<circle class="st3" cx="610.92" cy="181.19" r="4.99"/>
<circle class="st3" cx="610.92" cy="257.05" r="4.99"/>
<circle class="st3" cx="610.92" cy="336.05" r="4.99"/>
</svg>
