<svg xmlns="http://www.w3.org/2000/svg" x="0px" y="0px"
	 viewBox="0 0 768 439" style="enable-background:new 0 0 768 439;" xml:space="preserve">
<style type="text/css">
	.st0{fill:#B8C9C8;}
	.st1{fill:#FEE0D0;}
	.st2{fill:#010101;}
	.st3{fill:#FFFFFF;}
	.st4{fill:#F46C3D;}
	.st5{fill:#0052FF;}
	.st6{fill:#DE8557;}
	.st7{fill:none;stroke:#000000;stroke-miterlimit:10;}
</style>
<rect class="st0" width="768" height="439"/>
<path d="M372.42,47.9c0,0,11.07,10.31,1.95,38.99c0,0-5,14.12-6.3,16.73c-1.3,2.61-2.61,7.82,2.61,9.78c5.21,1.96,5,3.48,17.6,4.35
	c0,0,1.96,8.26,0,10.21c0,0-1.3,7.39,8.26,10c0,0,0.22,9.56,4.78,11.3c0,0,8.91,2.61,8.26,10c0,0-2.17,14.34,9.13,19.12
	c0,0,2.82,3.26,10.65,2.17v16.08l155.9-53.57c0,0,53.13-16.51,54.67-88.2c0,0-1.55-38.52-14.96-54.85H355.19
	c0,0-6.7,26.25,7.74,50.21L372.42,47.9z"/>
<path class="st1" d="M372.42,47.9c0,0,11.07,10.31,1.95,38.99c0,0-5,14.12-6.3,16.73c-1.3,2.61-2.61,7.82,2.61,9.78
	c5.21,1.96,5,3.48,17.6,4.35c0,0,1.96,8.26,0,10.21c0,0-1.3,7.39,8.26,10c0,0,0.22,9.56,4.78,11.3c0,0,8.91,2.61,8.26,10
	c0,0-2.17,14.34,9.13,19.12c0,0,2.82,3.26,10.65,2.17c2.67-89.03-20.1-145.33-20.1-145.33L372.42,47.9z"/>
<path class="st2" d="M396.51,62.39c-0.64-2.38-2.4-4.71-3.16-5.65c4.39,0.07,8.02-0.44,8.02-0.44c-13.87-2.46-22.15-4.14-22.15-4.14
	c2.19,3.01,6.99,4.13,11.56,4.47c0.39,3.46,2.68,6.4,3.59,7.43c-0.79,0.56-1.66,1.11-2.63,1.64v2.8c0,0,9.18-6.6,9.62-12.2
	C401.37,56.29,400.19,59.2,396.51,62.39z"/>
<path class="st3" d="M393.35,56.73c0.77,0.94,2.52,3.28,3.16,5.65c3.17-2.75,4.48-5.28,4.78-5.93l0.07-0.16
	C401.37,56.29,397.74,56.81,393.35,56.73z"/>
<path class="st2" d="M378.86,111.53c0,0,2.34-1.96,12.03,0.92C390.89,112.44,381.03,114.7,378.86,111.53z"/>
<path class="st4" d="M388.25,128.09c-0.12,1-0.54,7.46,8.28,9.86c0,0,0.22,9.56,4.78,11.3c0,0,0.11,0.04,0.28,0.09l7.05-18.25
	L388.25,128.09z"/>
<path class="st5" d="M505.56,221.47c0,0-18.3,6.71-27.44,21.95c-9.15,15.25-23.48,35.37-27.75,42.69
	c-4.27,7.32-24.09,38.72-37.51,51.53c-13.42,12.81-37.2,29.88-39.94,43.6c-2.74,13.72-7.93,27.37,1.52,57.75h243.63
	c0,0,53.46-80.51,14.33-195.27c0,0-15.62-37.28-21.34-48.79c0,0-9.99,14.77-56.97,17.82S505.56,221.47,505.56,221.47z"/>
<path class="st1" d="M554.09,212.76c46.98-3.04,56.97-17.82,56.97-17.82l-25.83-51.9l-102.42,35.19l22.74,43.23
	C505.56,221.47,507.11,215.81,554.09,212.76z"/>
<path class="st6" d="M611.06,194.95l-25.83-51.9l-102.42,35.19l4.72,8.98c16.5-0.85,49.25,1.08,80.55,24.16
	C603.1,206.68,611.06,194.95,611.06,194.95z"/>
<path d="M632.41,243.73c0,0-15.62-37.28-21.34-48.79c0,0-7.97,11.73-42.97,16.44c1.72,1.27,3.43,2.59,5.14,3.99
	c45.67,37.41,60.03,94.39,54.81,124.84s-15.25,59.16-16.98,61.77s-7.38,12.61-13.04-2.17l5.65-36.54c0,0,4.78-11.31-6.52-10.44
	c0,0-2.61,4.78-5.65,11.74s-32.62,67.86-32.62,67.86l-8.7-3.48L545.42,439h72.66C618.08,439,671.54,358.49,632.41,243.73z"/>
<path class="st1" d="M545.42,439H437.95c0,0,11.74-45.28,19.57-53.11l92.65,43.06L545.42,439z"/>
<path class="st3" d="M243.44,75.95H142.53c-5.84,0-10.58,4.74-10.58,10.58v61.17c0,5.84,4.74,10.58,10.58,10.58h41.94l9.4,30.52
	l9.05-30.52h40.52c5.84,0,10.58-4.74,10.58-10.58V86.52C254.02,80.68,249.28,75.95,243.44,75.95z"/>
<path class="st6" d="M514.94,439h30.48l4.76-10.04l-92.65-43.06l46.98,31.32C504.5,417.21,520.6,424.68,514.94,439z"/>
<polygon class="st4" points="149.34,140.53 149.34,133.08 165.66,116.58 174.14,124.21 191.92,104.33 208.24,122.43 238.4,92.62 
	238.4,140.53 "/>
<line class="st7" x1="160.69" y1="92.62" x2="160.69" y2="140.53"/>
<line class="st7" x1="174.14" y1="92.62" x2="174.14" y2="140.53"/>
<line class="st7" x1="187.46" y1="92.62" x2="187.46" y2="140.53"/>
<line class="st7" x1="200.44" y1="92.62" x2="200.44" y2="140.53"/>
<circle class="st5" cx="257.16" cy="75.95" r="25.55"/>
<line class="st7" x1="213.56" y1="92.62" x2="213.56" y2="140.53"/>
<path d="M142.69,200.15l7.49-6.46l55.78,67.4l4.77,21.17c0,0-8.91,3.36-9.42,10.07l-10.85-10.07l12.25-11.61l-2.55-5.43l-9.18,11.61
	l-7.75-14.98l5.73-5.42L142.69,200.15z"/>
<line class="st7" x1="226.69" y1="92.62" x2="226.69" y2="140.53"/>
<path class="st3" d="M268.63,77.18c-0.52-0.86-1.21-1.55-1.98-1.98c-0.6-0.34-1.46-0.6-2.5-0.95c1.03-0.34,1.81-0.78,2.5-1.29
	c0.6-0.52,1.12-1.12,1.46-1.81s0.52-1.46,0.52-2.15c0-1.03-0.34-2.07-0.95-2.93c-0.6-0.86-1.55-1.55-2.67-2.07
	c-0.43-0.17-0.95-0.34-1.55-0.43v-4.14h-3.96v3.88h-2.5v-3.88h-4.14v3.88h-6.03v3.19h0.95c0.6,0,1.03,0.09,1.21,0.17
	c0.26,0.09,0.34,0.26,0.52,0.43c0.09,0.17,0.09,0.6,0.09,1.29v13.1c0,0.69,0,1.12-0.09,1.29s-0.26,0.34-0.52,0.43
	s-0.6,0.17-1.21,0.17h-0.95v3.19h6.03v3.88h3.96v-3.79h2.24c0.09,0,0.17,0,0.26,0v3.88h3.96V86.4c0.69-0.09,1.21-0.26,1.72-0.52
	c1.38-0.52,2.41-1.38,3.19-2.41c0.69-1.03,1.12-2.15,1.12-3.45C269.4,78.99,269.14,78.04,268.63,77.18z M255.35,67.01h2.59
	c1.46,0,2.5,0.09,3.1,0.26c0.6,0.17,1.03,0.52,1.29,0.95c0.34,0.43,0.43,0.95,0.43,1.55s-0.17,1.12-0.52,1.55s-0.78,0.78-1.46,1.03
	c-0.6,0.26-1.64,0.34-3.02,0.34h-2.59v-5.69C255.18,67.01,255.35,67.01,255.35,67.01z M262.59,81.49c-0.43,0.6-1.03,0.95-1.64,1.12
	c-0.69,0.17-1.46,0.26-2.5,0.26h-1.72c-0.6,0-0.95,0-1.03-0.09c-0.09-0.09-0.26-0.17-0.26-0.34c0-0.09-0.09-0.52-0.09-1.29v-5.08
	h3.02c1.29,0,2.33,0.09,3.02,0.34c0.69,0.26,1.12,0.6,1.46,1.12s0.52,1.03,0.52,1.72C263.28,80.19,263.11,80.88,262.59,81.49z"/>
<path class="st1" d="M349.33,439l-75.35-81.62c0,0-4.98-2.99-7.97-20.91c-2.99-17.92-27.55-43.81-27.55-43.81l-23.57-31.2
	c0,0-5.97-5.97-12.61,0c-6.64,5.97,3.65,17.26,3.65,17.26l14.27,23.23c0,0,3.32,9.63-4.32,5.97l-18.59-22.57l-22.9-47.8l-9.29-11.29
	c0,0-7.97-1.99-6.64,6.31l14.6,43.15l-3.98,3.32c0,0-3.65,3.98-1.33,9.63c2.32,5.64,15.93,28.3,15.93,28.3l47.13,50.69
	c0,0,10.62,10.62,14.27,19.58c3.65,8.96,31.86,51.75,31.86,51.75H349.33z"/>
<path class="st6" d="M349.33,439l-75.35-81.62c0,0-4.98-2.99-7.97-20.91s-27.55-43.81-27.55-43.81l-23.57-31.2
	c0,0-5.72-5.71-12.19-0.36l44.05,58.45c0,0,9.29,13.94,9.29,24.23s9.96,20.91,9.96,20.91L323.66,439H349.33z"/>
<path class="st6" d="M198.3,293.98c3.7,2.82,8.63,5.64,12.43,7.67l-13.42-16.3l-22.9-47.8l-7.21-8.75
	c6.38,16.62,16.83,45.92,16.83,45.92S191.33,288.67,198.3,293.98z"/>
<polygon class="st6" points="173.07,275.72 169.67,278.56 180.71,296.97 168.8,263.09 "/>
</svg>
