<svg xmlns="http://www.w3.org/2000/svg" x="0px" y="0px"
	 viewBox="0 0 768 439" style="enable-background:new 0 0 768 439;" xml:space="preserve">
<style type="text/css">
	.st0{fill:#B9C9C8;}
	.st1{fill:#2BC080;}
	.st2{fill:#FFFFFF;}
	.st3{fill:#CAD5D4;}
	.st4{fill:#F46B3D;}
	.st5{fill:#0063FF;}
	.st6{fill:#FFD200;}
</style>
<rect width="768" height="439"/>
<path class="st0" d="M464.91,288.01l13.42,108.55c1.24,10.04-6.59,18.9-16.7,18.9H313.48c-10.04,0-17.85-8.74-16.72-18.72
	l12.25-108.55c0.96-8.51,8.16-14.94,16.72-14.94h122.48C456.7,273.25,463.87,279.58,464.91,288.01z"/>
<path d="M302.95,402.54l12.25-108.55c0.96-8.51,8.16-14.94,16.72-14.94h122.48c2.9,0,5.63,0.75,8.02,2.05
	c-3-4.75-8.28-7.85-14.23-7.85H325.73c-8.56,0-15.76,6.43-16.72,14.94l-12.25,108.55c-0.8,7.08,2.91,13.52,8.72,16.67
	C303.5,410.3,302.5,406.53,302.95,402.54z"/>
<path class="st1" d="M474.47,283.17c-4.55-20.67-23.56-21.5-23.56-21.5s-111.21-0.83-128.15,0c-16.95,0.83-23.15,20.67-23.15,20.67
	c-6.61,24.8-12.4,95.91-13.23,104.18c-0.83,8.27-1.65,52.48-1.65,52.48h205.05C489.92,346.42,479.02,303.84,474.47,283.17z
	 M461.63,415.46H313.48c-10.04,0-17.85-8.74-16.72-18.72l12.25-108.55c0.96-8.51,8.16-14.94,16.72-14.94h122.48
	c8.5,0,15.66,6.33,16.7,14.76l13.42,108.55C479.57,406.6,471.74,415.46,461.63,415.46z"/>
<circle class="st2" cx="387.24" cy="344.9" r="59.43"/>
<path class="st3" d="M433.06,326.97l-39.95,15.1c-1.73-1.63-4.34-2.17-6.63-1.14l-18.02,8.08c-3.03,1.36-4.4,4.95-3.04,7.98
	l1.02,2.27c1.36,3.03,4.95,4.4,7.98,3.04l18.02-8.08c2.53-1.14,3.9-3.83,3.49-6.45L433.06,326.97z"/>
<path class="st4" d="M431.66,323.92l-39.95,15.1c-1.73-1.63-4.34-2.17-6.63-1.14l-18.02,8.08c-3.03,1.36-4.4,4.95-3.04,7.98
	l1.02,2.27c1.36,3.03,4.95,4.4,7.98,3.04l18.02-8.08c2.53-1.14,3.9-3.83,3.49-6.45L431.66,323.92z"/>
<circle class="st2" cx="387.24" cy="344.9" r="3.98"/>
<g>
	<path d="M428.74,334.55l8.27-2.22l-0.52-1.93l-8.27,2.22C428.41,333.25,428.58,333.9,428.74,334.55z"/>
	<path d="M357.88,313.77l-6.06-6.06l-1.41,1.41l6.06,6.06C356.93,314.7,357.4,314.23,357.88,313.77z"/>
	<path d="M377.24,303.18l-2.22-8.27l-1.93,0.52l2.22,8.27C375.95,303.51,376.59,303.34,377.24,303.18z"/>
	<path d="M346.4,332.61l-8.27-2.22l-0.52,1.93l8.27,2.22C346.04,333.9,346.21,333.25,346.4,332.61z"/>
	<path d="M350.89,322.43l-7.41-4.28l-1,1.73l7.41,4.28C350.21,323.58,350.54,323,350.89,322.43z"/>
	<path d="M366.86,307.19l-4.28-7.41l-1.73,1l4.28,7.41C365.7,307.85,366.27,307.51,366.86,307.19z"/>
	<path d="M424.72,324.16l7.41-4.28l-1-1.73l-7.41,4.28C424.07,323,424.4,323.58,424.72,324.16z"/>
	<path d="M387.31,301.98c0.34,0,0.67,0.02,1,0.03v-8.57h-2V302C386.64,301.99,386.97,301.98,387.31,301.98z"/>
	<path d="M418.14,315.19l6.06-6.06l-1.41-1.41l-6.06,6.06C417.21,314.23,417.68,314.7,418.14,315.19z"/>
	<path d="M409.49,308.19l4.28-7.41l-1.73-1l-4.28,7.41C408.34,307.51,408.92,307.85,409.49,308.19z"/>
	<path d="M399.3,303.7l2.22-8.27l-1.93-0.52l-2.22,8.27C398.02,303.34,398.67,303.51,399.3,303.7z"/>
	<path d="M344.67,344.61c0-0.34,0.02-0.67,0.03-1h-8.57v2h8.57C344.69,345.28,344.67,344.95,344.67,344.61z"/>
	<path d="M423.72,366.79l7.41,4.28l1-1.73l-7.41-4.28C424.4,365.64,424.07,366.22,423.72,366.79z"/>
	<path d="M416.73,375.45l6.06,6.06l1.41-1.41l-6.06-6.06C417.68,374.52,417.21,374.99,416.73,375.45z"/>
	<path d="M407.76,382.03l4.28,7.41l1.73-1l-4.28-7.41C408.92,381.37,408.34,381.71,407.76,382.03z"/>
	<path d="M428.22,356.61l8.27,2.22l0.52-1.93l-8.27-2.22C428.58,355.33,428.41,355.97,428.22,356.61z"/>
	<path d="M429.92,343.61c0.01,0.33,0.03,0.66,0.03,1c0,0.34-0.02,0.67-0.03,1h8.57v-2H429.92z"/>
	<path d="M397.37,386.04l2.22,8.27l1.93-0.52l-2.22-8.27C398.67,385.71,398.02,385.88,397.37,386.04z"/>
	<path d="M349.89,365.06l-7.41,4.28l1,1.73l7.41-4.28C350.54,366.22,350.21,365.64,349.89,365.06z"/>
	<path d="M345.88,354.68l-8.27,2.22l0.52,1.93l8.27-2.22C346.21,355.97,346.04,355.33,345.88,354.68z"/>
	<path d="M387.31,387.25c-0.34,0-0.67-0.02-1-0.03v8.57h2v-8.57C387.97,387.23,387.64,387.25,387.31,387.25z"/>
	<path d="M356.47,374.03l-6.06,6.06l1.41,1.41l6.06-6.06C357.4,374.99,356.93,374.52,356.47,374.03z"/>
	<path d="M365.13,381.03l-4.28,7.41l1.73,1l4.28-7.41C366.27,381.71,365.7,381.37,365.13,381.03z"/>
	<path d="M375.31,385.52l-2.22,8.27l1.93,0.52l2.22-8.27C376.59,385.88,375.95,385.71,375.31,385.52z"/>
</g>
<rect x="379.54" y="226.65" class="st5" width="15.56" height="34.66"/>
<path class="st1" d="M379.54,235.8v25.5h8.02C388.63,243.86,383.52,237.86,379.54,235.8z"/>
<path class="st1" d="M265.45,202.57l42.64,19.72c0,0,8.12,4.06,17.11,4.35h121.47c0,0,13.11-0.29,24.13-5.8
	c11.02-5.51,37.71-18.27,37.71-18.27H265.45z"/>
<polygon class="st0" points="139.94,0 265.45,202.57 508.51,202.57 634.4,0 "/>
<path class="st5" d="M425.85,219.5c0,0-3.57,3.65-8.08,7.15h28.9c0,0,13.11-0.29,24.13-5.8c11.02-5.51,37.71-18.27,37.71-18.27
	h-66.44L425.85,219.5z"/>
<path class="st6" d="M444.53,177.85h-84.08v-13.14h81.08c1.66,0,3.01,1.35,3.01,3.01V177.85z"/>
<path d="M444.53,177.85h-84.08v6.01h81.08c1.66,0,3.01-1.35,3.01-3.01V177.85z"/>
<path class="st2" d="M330.85,177.85h12.09v-13.14h-9.08c-1.66,0-3.01,1.35-3.01,3.01V177.85z"/>
<path class="st6" d="M330.85,177.85h12.09v6.01h-9.08c-1.66,0-3.01-1.35-3.01-3.01V177.85z"/>
<rect x="342.93" y="164.71" class="st6" width="6.78" height="13.14"/>
<rect x="342.93" y="177.85" width="6.78" height="6.01"/>
<rect x="349.71" y="164.71" transform="matrix(-1 -1.224647e-16 1.224647e-16 -1 710.1547 342.5594)" class="st2" width="10.74" height="13.14"/>
<rect x="349.71" y="177.85" transform="matrix(-1 -1.224647e-16 1.224647e-16 -1 710.1547 361.7075)" class="st6" width="10.74" height="6.01"/>
<path class="st6" d="M444.53,196.56h-84.08v-13.14h81.08c1.66,0,3.01,1.35,3.01,3.01V196.56z"/>
<path d="M444.53,196.56h-84.08v6.01h81.08c1.66,0,3.01-1.35,3.01-3.01V196.56z"/>
<path class="st2" d="M330.85,196.56h12.09v-13.14h-9.08c-1.66,0-3.01,1.35-3.01,3.01V196.56z"/>
<path class="st6" d="M330.85,196.56h12.09v6.01h-9.08c-1.66,0-3.01-1.35-3.01-3.01V196.56z"/>
<rect x="342.93" y="183.42" class="st6" width="6.78" height="13.14"/>
<rect x="342.93" y="196.56" width="6.78" height="6.01"/>
<rect x="349.71" y="183.42" transform="matrix(-1 -1.224647e-16 1.224647e-16 -1 710.1547 379.9863)" class="st2" width="10.74" height="13.14"/>
<rect x="349.71" y="196.56" transform="matrix(-1 -1.224647e-16 1.224647e-16 -1 710.1547 399.1344)" class="st6" width="10.74" height="6.01"/>
<circle class="st6" cx="388.42" cy="108.66" r="57.79"/>
<circle class="st2" cx="388.42" cy="108.66" r="41.54"/>
<rect x="366.26" y="86.5" transform="matrix(0.7071 -0.7071 0.7071 0.7071 36.9305 306.4838)" class="st1" width="44.33" height="44.33"/>
<path class="st5" d="M386.98,108.66c-14.67,0-27.75,6.8-36.27,17.42c6.59,14.24,20.99,24.12,37.71,24.12
	c15.8,0,29.54-8.82,36.56-21.81C416.57,116.46,402.69,108.66,386.98,108.66z"/>
<path class="st5" d="M350.98,90.65c8.53,10.42,21.48,17.08,36,17.08c15.53,0,29.27-7.62,37.71-19.32
	c-7.11-12.7-20.68-21.29-36.27-21.29C371.93,67.12,357.69,76.73,350.98,90.65z"/>
<path d="M364.06,101.68c6.77,3.85,14.59,6.05,22.92,6.05c9.09,0,17.56-2.63,24.72-7.14l-23.28-23.28L364.06,101.68z"/>
<path d="M363.47,115.06l24.95,24.95l23.84-23.84c-7.28-4.74-15.95-7.5-25.29-7.5C378.4,108.66,370.37,111,363.47,115.06z"/>
</svg>
