<svg xmlns="http://www.w3.org/2000/svg" x="0px" y="0px"
	 viewBox="0 0 768 439" style="enable-background:new 0 0 768 439;" xml:space="preserve">
<style type="text/css">
	.st0{fill:#B9C9C8;}
	.st1{fill:none;stroke:#F46B3D;stroke-width:2;stroke-miterlimit:10;}
	.st2{fill:none;stroke:#FFD200;stroke-miterlimit:10;}
	.st3{fill:none;stroke:#FFD200;stroke-width:2;stroke-miterlimit:10;stroke-dasharray:4,4;}
	.st4{fill:none;stroke:#F46B3D;stroke-width:2;stroke-miterlimit:10;stroke-dasharray:4,4;}
	.st5{fill:none;stroke:#2BC080;stroke-width:2;stroke-miterlimit:10;}
	.st6{fill:#F46C3D;}
	.st7{fill:#0063FF;}
	.st8{fill:#FFD200;}
	.st9{fill:#FFFFFF;}
	.st10{fill:#6D93FE;}
	.st11{fill:none;stroke:#FFFFFF;stroke-width:2;stroke-miterlimit:10;}
	.st12{fill:#F46B3D;}
	.st13{fill:#2BC080;}
	.st14{fill:none;stroke:#FFD200;stroke-width:2;stroke-miterlimit:10;}
	.st15{fill:none;stroke:#000000;stroke-miterlimit:10;}
	.st16{fill:none;stroke:#F46B3D;stroke-miterlimit:10;}
	.st17{fill:none;stroke:#B9C9C8;stroke-miterlimit:10;}
	.st18{fill:none;stroke:#0063FF;stroke-width:2;stroke-miterlimit:10;}
	.st19{fill:none;stroke:#FFFFFF;stroke-width:2;stroke-miterlimit:10;stroke-dasharray:4,4;}
</style>
<rect y="0" class="st0" width="768" height="439"/>
<path class="st1" d="M670.94,63.58c25.2,46.38,39.51,99.53,39.51,156.03c0,180.78-146.55,327.34-327.34,327.34"/>
<path class="st1" d="M83.64,351.97c-17.91-40.47-27.87-85.26-27.87-132.36c0-180.78,146.55-327.34,327.34-327.34"/>
<path class="st2" d="M257.93,287.47c-10.98-20.32-17.22-43.58-17.22-68.3c0-45.5,21.12-86.06,54.1-112.42"/>
<path class="st3" d="M328.56,351.71c-30.21-12.78-55.15-35.58-70.64-64.24"/>
<path class="st4" d="M427.28,81.47c-13.21-4-27.22-6.15-41.73-6.15h-1c-33.94,0-65.14,11.76-89.75,31.42"/>
<path class="st1" d="M426.28,81.47c43.67,13.21,78.56,46.63,93.8,89.37"/>
<path class="st5" d="M520.08,170.84c5.39,15.1,8.32,31.37,8.32,48.33c0,79.44-64.4,143.85-143.85,143.85
	c-19.86,0-38.78-4.03-55.99-11.3"/>
<circle class="st6" cx="518.46" cy="172.65" r="32.55"/>
<ellipse transform="matrix(0.3162 -0.9487 0.9487 0.3162 190.7227 609.9109)" class="st7" cx="518.47" cy="172.65" rx="23.91" ry="23.91"/>
<ellipse transform="matrix(0.7071 -0.7071 0.7071 0.7071 29.7805 417.1809)" class="st8" cx="518.47" cy="172.64" rx="11.29" ry="11.29"/>
<circle class="st8" cx="294.81" cy="107.54" r="32.55"/>
<circle class="st9" cx="294.81" cy="107.54" r="23.91"/>
<path class="st10" d="M294.81,107.54c-8.81,0-16.55,4.59-20.95,11.51c4.07,7.39,11.92,12.39,20.95,12.39s16.89-5.01,20.95-12.39
	C311.36,112.14,303.62,107.54,294.81,107.54z"/>
<path class="st11" d="M217.67,387.3c-42.67-42.67-69.06-101.61-69.06-166.72"/>
<path class="st7" d="M294.81,107.54c8.81,0,16.55-4.59,20.95-11.51c-4.07-7.39-11.92-12.39-20.95-12.39s-16.89,5.01-20.95,12.39
	C278.26,102.95,286,107.54,294.81,107.54z"/>
<circle class="st7" cx="148.58" cy="245.27" r="32.55"/>
<circle class="st9" cx="148.58" cy="245.27" r="23.91"/>
<circle class="st8" cx="140.65" cy="245.27" r="15.92"/>
<circle class="st12" cx="156.57" cy="245.27" r="15.92"/>
<path d="M148.61,231.5c-4.75,2.75-7.96,7.88-7.96,13.77s3.21,11.02,7.96,13.77c4.75-2.75,7.96-7.88,7.96-13.77
	S153.36,234.25,148.61,231.5z"/>
<ellipse transform="matrix(0.9939 -0.1104 0.1104 0.9939 -36.7362 10.8819)" class="st12" cx="79.87" cy="337.09" rx="32.55" ry="32.55"/>
<circle class="st8" cx="79.87" cy="337.08" r="23.91"/>
<path class="st7" d="M86.91,314.23c-2.23-0.69-4.59-1.06-7.04-1.06s-4.82,0.37-7.04,1.06v15.81H57.01
	c-0.69,2.23-1.06,4.59-1.06,7.04s0.37,4.82,1.06,7.04h15.81v15.81c2.23,0.69,4.59,1.06,7.04,1.06s4.82-0.37,7.04-1.06v-15.81h15.81
	c0.69-2.23,1.06-4.59,1.06-7.04s-0.37-4.82-1.06-7.04h-15.8C86.91,330.04,86.91,314.23,86.91,314.23z"/>
<rect x="72.82" y="330.04" width="14.09" height="14.09"/>
<circle class="st13" cx="327.34" cy="350.97" r="32.55"/>
<circle class="st12" cx="327.34" cy="350.97" r="23.91"/>
<rect x="314.48" y="338.11" transform="matrix(0.7071 -0.7071 0.7071 0.7071 -152.2933 334.2546)" class="st8" width="25.7" height="25.7"/>
<circle cx="327.34" cy="350.97" r="6.84"/>
<path class="st14" d="M594.11,328.42c-17.8,34.55-43.9,64.14-75.65,86.12"/>
<path class="st11" d="M384.39-15.2c130.22,0,235.78,105.56,235.78,235.78c0,38.86-9.4,75.53-26.06,107.85"/>
<circle class="st8" cx="593.38" cy="328.06" r="32.55"/>
<circle class="st13" cx="593.38" cy="328.06" r="23.91"/>
<path class="st7" d="M593.38,328.06v-23.91c6.34,0,12.42,2.52,16.9,7s7,10.57,7,16.9h-23.9V328.06z"/>
<path class="st7" d="M593.38,328.06v23.91c-6.34,0-12.42-2.52-16.9-7s-7-10.57-7-16.9h23.9V328.06z"/>
<circle class="st13" cx="682.49" cy="83.6" r="32.55"/>
<circle class="st9" cx="682.49" cy="83.6" r="23.91"/>
<path class="st10" d="M675.16,106.35c2.31,0.75,4.78,1.15,7.34,1.15s5.03-0.41,7.34-1.15V73.59h-14.68L675.16,106.35L675.16,106.35z
	"/>
<path class="st7" d="M682.49,90.95c10.19,0,18.93-6.22,22.63-15.06C701.91,66.47,693,59.7,682.49,59.7
	c-10.5,0-19.42,6.78-22.63,16.19C663.57,84.73,672.3,90.95,682.49,90.95z"/>
<path d="M675.16,89.83c2.32,0.73,4.78,1.12,7.34,1.12s5.02-0.39,7.34-1.12V73.59h-14.68L675.16,89.83L675.16,89.83z"/>
<path class="st15" d="M520.08,170.84"/>
<path class="st15" d="M384.55,75.32"/>
<path class="st2" d="M328.56,351.71"/>
<path class="st16" d="M520.08,170.84"/>
<circle cx="383.11" cy="223.47" r="58.66"/>
<circle class="st8" cx="383.11" cy="213.61" r="58.66"/>
<circle cx="383.11" cy="213.61" r="45.35"/>
<circle class="st8" cx="383.11" cy="220.51" r="45.35"/>
<polygon class="st9" points="393.46,219.28 411.45,213.85 392.47,207.94 402.83,193.4 388.53,203.26 383.11,185.51 377.69,203.5 
	363.39,193.4 373.5,208.19 354.77,213.85 372.76,219.28 363.15,232.83 377.44,223.22 383.11,242.2 388.78,222.97 402.58,232.83 "/>
<path class="st17" d="M594.11,328.42"/>
<path class="st17" d="M384.39-15.2"/>
<path class="st17" d="M223.63,48.1"/>
<path class="st17" d="M148.61,220.58"/>
<path class="st17" d="M217.67,387.3"/>
<circle class="st8" cx="518.46" cy="414.55" r="4.87"/>
<path class="st18" d="M148.61,220.58c0-68.09,28.86-129.44,75.02-172.48"/>
<circle class="st7" cx="223.63" cy="48.1" r="4.87"/>
<path class="st19" d="M384.39,456.35c-65.11,0-124.05-26.39-166.72-69.06"/>
</svg>
