<svg xmlns="http://www.w3.org/2000/svg" x="0px" y="0px"
	 viewBox="0 0 49.2 56.4" style="enable-background:new 0 0 49.2 56.4;" xml:space="preserve">
<style type="text/css">
	.st0{fill:#B8C9C8;}
	.st1{fill:#1652F0;}
	.st2{fill:#F46C3D;}
</style>
<circle class="st0" cx="31.5" cy="17.9" r="17.7"/>
<path class="st1" d="M34.7,26.9c-0.5-9.1-8.1-16.4-17.3-16.4S0.5,17.8,0,26.9l0,8.6h4.9v6.9c0,2.4,1.9,4.3,4.3,4.3h4.6v9.7h20.9"/>
<path d="M34.7,26.9c-0.5-9.1-8.1-16.4-17.3-16.4c-0.7,0-1.3,0-2,0.1c-1,2.2-1.6,4.7-1.6,7.2c0,9.8,7.9,17.7,17.7,17.7
	c1.1,0,2.2-0.1,3.2-0.3L34.7,26.9z"/>
<polygon class="st2" points="25.2,20.1 24.2,15.7 23.3,20.1 18.9,21 23.3,21.9 24.2,26.3 25.2,21.9 29.6,21 "/>
</svg>
