<svg xmlns="http://www.w3.org/2000/svg" x="0px" y="0px"
	 viewBox="0 0 197.3 171.5" style="enable-background:new 0 0 197.3 171.5;" xml:space="preserve">
<style type="text/css">
	.st0{fill:#92DEFF;}
	.st1{fill:#7BD2FF;}
	.st2{fill:url(#SVGID_1_);}
	.st3{fill:#1C4DE4;}
	.st4{fill:#2160EB;}
	.st5{fill:#2554E5;}
	.st6{fill:#2A68EE;}
	.st7{fill:url(#SVGID_00000018926582470449256250000005521541157901156009_);}
	.st8{fill:url(#SVGID_00000159432265280202543820000018239064334196435131_);}
	.st9{fill:#2C6FED;}
	.st10{fill:url(#SVGID_00000101101409535972573830000004792762942385248660_);}
	.st11{fill:url(#SVGID_00000050653782032039060900000015247296909051996597_);}
	.st12{fill:url(#SVGID_00000038391101770448355710000009264503573837085056_);}
	.st13{fill:url(#SVGID_00000121246521284817142040000014236620196142728089_);}
</style>
<polygon class="st0" points="13.6,93 0,82.5 20.9,58.4 "/>
<polygon class="st1" points="12.8,114.2 0,82.5 13.6,93 "/>
<linearGradient id="SVGID_1_" gradientUnits="userSpaceOnUse" x1="12.633" y1="65.7143" x2="20.9737" y2="49.4933" gradientTransform="matrix(0.6108 -0.7918 -0.7918 -0.6108 61.8928 154.5509)">
	<stop  offset="0" style="stop-color:#87D5FF"/>
	<stop  offset="1" style="stop-color:#508AFE"/>
</linearGradient>
<polygon class="st2" points="44.2,115.4 12.8,114.2 13.6,93 "/>
<polygon class="st3" points="51.9,77.9 44.2,115.4 13.6,93 "/>
<polygon class="st4" points="20.9,58.4 51.9,77.9 13.6,93 "/>
<polygon class="st5" points="44.2,115.4 64.1,93.3 51.9,77.9 "/>
<polygon class="st6" points="20.9,58.4 51.5,63.1 51.9,77.9 "/>
<linearGradient id="SVGID_00000027573262957728030560000013162291894948372394_" gradientUnits="userSpaceOnUse" x1="51.025" y1="112.1451" x2="129.7418" y2="112.1451">
	<stop  offset="0" style="stop-color:#87D5FF"/>
	<stop  offset="1" style="stop-color:#508AFE"/>
</linearGradient>
<polygon style="fill:url(#SVGID_00000027573262957728030560000013162291894948372394_);" points="51,97.2 128.7,131.3 129.7,124.2 
	51.6,93 "/>
<polygon class="st0" points="53.4,90.5 51.6,93 129.7,124.2 130.5,119.4 "/>
<polygon class="st0" points="140.2,122.8 140.2,102 178.8,104.2 "/>
<linearGradient id="SVGID_00000179638341093450108900000010961806383813487026_" gradientUnits="userSpaceOnUse" x1="132.1772" y1="17.2201" x2="142.2771" y2="-2.4221" gradientTransform="matrix(1 0 0 -1 0 152.3025)">
	<stop  offset="0" style="stop-color:#87D5FF"/>
	<stop  offset="1" style="stop-color:#508AFE"/>
</linearGradient>
<polygon style="fill:url(#SVGID_00000179638341093450108900000010961806383813487026_);" points="141.3,168.7 119.2,137.8 
	140.2,122.8 "/>
<polygon class="st3" points="183,148.3 141.3,168.7 140.2,122.8 "/>
<polygon class="st4" points="178.8,104.2 183,148.3 140.2,122.8 "/>
<polygon class="st9" points="196.8,137 177.2,171.5 183,148.3 "/>
<polygon class="st5" points="141.3,168.7 177.2,171.5 183,148.3 "/>
<polygon class="st6" points="178.8,104.2 196.8,137 183,148.3 "/>
<polygon class="st0" points="126.3,16.6 122.9,5 144.7,0 "/>
<polygon class="st1" points="117.1,28.3 122.9,5 126.3,16.6 "/>
<linearGradient id="SVGID_00000153703952950719446760000009007269092206641570_" gradientUnits="userSpaceOnUse" x1="126.8305" y1="138.5376" x2="132.6698" y2="127.1814" gradientTransform="matrix(0.9598 -0.2806 -0.2806 -0.9598 40.9816 193.2728)">
	<stop  offset="0" style="stop-color:#87D5FF"/>
	<stop  offset="1" style="stop-color:#508AFE"/>
</linearGradient>
<polygon style="fill:url(#SVGID_00000153703952950719446760000009007269092206641570_);" points="134.4,41.9 117.1,28.3 126.3,16.6 
	"/>
<polygon class="st3" points="154.2,23.8 134.4,41.9 126.3,16.6 "/>
<polygon class="st4" points="144.7,0 154.2,23.8 126.3,16.6 "/>
<polygon class="st9" points="160,15.3 154.8,37.6 154.2,23.8 "/>
<polygon class="st5" points="134.4,41.9 154.8,37.6 154.2,23.8 "/>
<polygon class="st6" points="144.7,0 160,15.3 154.2,23.8 "/>
<linearGradient id="SVGID_00000088111901959016020900000000646248976389807011_" gradientUnits="userSpaceOnUse" x1="53.4142" y1="104.7286" x2="133.4374" y2="104.7286">
	<stop  offset="0" style="stop-color:#87D5FF"/>
	<stop  offset="1" style="stop-color:#508AFE"/>
</linearGradient>
<polygon style="fill:url(#SVGID_00000088111901959016020900000000646248976389807011_);" points="55.1,90.1 53.4,90.5 130.5,119.4 
	133.4,117.5 "/>
<polygon class="st1" points="119.2,137.8 140.2,102 140.2,122.8 "/>
<linearGradient id="SVGID_00000010279053785127956140000017295471012578386070_" gradientUnits="userSpaceOnUse" x1="53.4142" y1="48.3627" x2="125.7168" y2="48.3627">
	<stop  offset="0" style="stop-color:#87D5FF"/>
	<stop  offset="1" style="stop-color:#508AFE"/>
</linearGradient>
<polygon style="fill:url(#SVGID_00000010279053785127956140000017295471012578386070_);" points="124.1,25.8 53.4,67.8 54.2,70.9 
	125.7,26.5 "/>
<polygon class="st0" points="125.7,26.5 54.2,70.9 55.6,73.5 126.8,28 "/>
<linearGradient id="SVGID_00000161607499063609983440000007587140417451696015_" gradientUnits="userSpaceOnUse" x1="55.5912" y1="51.6794" x2="127.0528" y2="51.6794">
	<stop  offset="0" style="stop-color:#87D5FF"/>
	<stop  offset="1" style="stop-color:#508AFE"/>
</linearGradient>
<polygon style="fill:url(#SVGID_00000161607499063609983440000007587140417451696015_);" points="126.8,28 55.6,73.5 56.3,75.4 
	127.1,29.8 "/>
<polygon class="st9" points="51.5,63.1 64.1,93.3 51.9,77.9 "/>
</svg>
