<?xml version="1.0" encoding="utf-8"?>
<!-- Generator: Adobe Illustrator 27.0.0, SVG Export Plug-In . SVG Version: 6.00 Build 0)  -->
<svg version="1.1" id="图层_1" xmlns="http://www.w3.org/2000/svg" xmlns:xlink="http://www.w3.org/1999/xlink" x="0px" y="0px"
	 viewBox="0 0 32 32" style="enable-background:new 0 0 32 32;" xml:space="preserve">
<style type="text/css">
	.st0{fill:#0052FF;}
</style>
<path class="st0" d="M8.6,17.9c0.2,0,0.3,0,0.7,0c5.1,0,10.3,0,15.3,0c1.3,0,2.4-0.8,2.5-1.9c0.2-0.7,0-1.3,0-2
	c-0.3-2.2-1.5-4.2-3-5.9c-0.8-0.8-1-1.9-0.5-2.7c0.7-1.3,2.5-1.7,3.7-0.5c1.9,1.9,3.2,4,3.9,6.4c2.4,7.6-1.2,15.7-8.4,19.2
	c-2.2,1-4.4,1.5-6.7,1.5c-1,0-2-0.8-2.2-1.7c-0.2-1.2,0.2-2.2,1.2-2.5c0.3-0.2,0.8-0.2,1.2-0.2c2.4,0,4.4-0.7,6.2-2
	c0.7-0.5,1-1.2,0.8-1.9c-0.2-1.2-1.3-1.9-2.5-1.2c-0.7,0.3-1.3,0.8-2.2,1c-4,1.5-8.6-0.8-9.8-4.9C8.6,18,8.6,18,8.6,17.9z"/>
<path class="st0" d="M0,16.3C0,9.1,4.2,3.2,10.6,0.8C12.3,0.2,14,0,15.8,0c1.3,0,2.4,0.8,2.4,2.2S17.3,4.5,16,4.5
	c-1.3,0-2.5,0.2-3.5,0.7c-4,1.3-6.7,4-7.6,8.3c-0.8,4,0.2,7.4,3,10.4c0.7,0.8,0.8,1.7,0.5,2.7c-0.3,0.8-1.2,1.3-2.2,1.2
	c-0.7,0-1-0.3-1.5-0.7C1.5,23.9,0,20.2,0,16.3z"/>
<path class="st0" d="M23.2,14c-4.9,0-9.8,0-14.7,0c0.2-1,0.7-2,1.5-2.9c1.3-1.7,3-2.5,5.1-2.7c2.2-0.2,4.2,0.5,5.9,2
	C22.2,11.3,22.9,12.5,23.2,14z"/>
</svg>
