<svg xmlns="http://www.w3.org/2000/svg"  x="0px" y="0px"
	 viewBox="0 0 11 11" style="enable-background:new 0 0 11 11;" xml:space="preserve">
<style type="text/css">
	.st0{fill:#57B4FC;}
	.st1{fill:#0050F9;}
</style>
<path class="st0" d="M10.2,4.6c0-0.7-0.7-1.5-1.5-1.5C8.4,3.2,8,3.3,7.5,3.5C7.7,3,7.8,2.6,7.8,2.3c0-0.9-0.6-1.5-1.5-1.5
	C6.1,0.8,5.8,1,5.5,1.1C5.2,1,4.9,0.8,4.6,0.8c-0.7,0-1.5,0.7-1.5,1.5c0,0.3,0.1,0.7,0.3,1.2C3,3.3,2.6,3.2,2.3,3.2
	c-0.9,0-1.5,0.6-1.5,1.5c0,0.3,0.1,0.6,0.3,0.9C1,5.8,0.8,6.1,0.8,6.4c0,0.7,0.7,1.5,1.5,1.5c0.3,0,0.7-0.1,1.2-0.3
	C3.3,8,3.2,8.4,3.2,8.7c0,0.9,0.6,1.5,1.5,1.5c0.3,0,0.6-0.1,0.9-0.3c0.3,0.1,0.6,0.3,0.9,0.3C7.4,10.2,8,9.6,8,8.7
	C8,8.4,7.9,8,7.7,7.5c0.3,0.2,0.7,0.3,1,0.3c0.9,0,1.5-0.6,1.5-1.5c0-0.3-0.1-0.6-0.3-0.9C10,5.2,10.2,4.9,10.2,4.6z M8,6.1H6.1V8
	c0,0.3-0.3,0.6-0.6,0.6S4.9,8.3,4.9,8V6.1H3c-0.3,0-0.6-0.3-0.6-0.6c0-0.3,0.3-0.6,0.6-0.6h1.9V3c0-0.3,0.3-0.6,0.6-0.6
	S6.1,2.7,6.1,3v1.9H8c0.3,0,0.6,0.3,0.6,0.6C8.6,5.8,8.3,6.1,8,6.1z"/>
<path class="st1" d="M9.4,1.6C8.4,0.6,7,0,5.5,0S2.7,0.6,1.6,1.6C0.6,2.6,0,4,0,5.5s0.6,2.8,1.6,3.9C2.6,10.5,4,11,5.5,11
	s2.8-0.6,3.9-1.6c1-1,1.6-2.4,1.6-3.9S10.4,2.6,9.4,1.6z M8.7,7.8c-0.3,0-0.7-0.1-1-0.3C7.9,8,8,8.4,8,8.7c0,0.9-0.6,1.5-1.5,1.5
	c-0.3,0-0.6-0.2-0.9-0.3c-0.3,0.2-0.6,0.3-0.9,0.3c-0.9,0-1.5-0.6-1.5-1.5c0-0.3,0.1-0.7,0.3-1.1C3,7.8,2.6,7.9,2.3,7.9
	c-0.8,0-1.5-0.8-1.5-1.5c0-0.3,0.2-0.6,0.3-0.8C0.9,5.3,0.8,5,0.8,4.7c0-0.9,0.6-1.5,1.5-1.5c0.3,0,0.7,0.1,1.1,0.3
	C3.2,3,3.1,2.6,3.1,2.3c0-0.8,0.8-1.5,1.5-1.5c0.3,0,0.6,0.2,0.9,0.3C5.8,1,6.1,0.8,6.3,0.8c0.9,0,1.5,0.6,1.5,1.5
	c0,0.3-0.1,0.7-0.3,1.2C8,3.3,8.4,3.2,8.7,3.1c0.8,0,1.5,0.8,1.5,1.5c0,0.3-0.2,0.6-0.3,0.8c0.2,0.3,0.3,0.6,0.3,0.9
	C10.2,7.2,9.6,7.8,8.7,7.8z"/>
</svg>
