<svg xmlns="http://www.w3.org/2000/svg" x="0px" y="0px"
	 viewBox="0 0 767.8 439" style="enable-background:new 0 0 767.8 439;" xml:space="preserve">
<style type="text/css">
	.st0{fill:#D2B66D;}
	.st1{fill:#FFFFFF;}
	.st2{fill:#F5D04E;}
	.st3{fill:none;stroke:#FFFFFF;stroke-miterlimit:10;}
	.st4{fill:#F46C3D;}
	.st5{fill:#FFD200;}
	.st6{fill:#2BBF7F;}
	.st7{fill:#28B578;}
	.st8{fill:#F46B3C;}
	.st9{fill:#B9C9C8;}
	.st10{fill:#D5986B;}
	.st11{fill:#7D481E;}
	.st12{opacity:0.69;fill:#0A202D;}
</style>
<rect class="st0" width="768" height="439"/>
<rect x="143.7" y="86.7" class="st1" width="480.4" height="292.5"/>
<rect x="579.1" y="308" transform="matrix(0.6217 0.7833 -0.7833 0.6217 472.4079 -337.8347)" class="st2" width="13.6" height="24.3"/>
<polygon points="581.5,336.6 187.2,336.6 187.2,128.6 445.3,128.6 475.2,113.6 512,115.5 545.6,128.6 581.5,128.6 "/>
<line class="st3" x1="186.3" y1="156.9" x2="409.5" y2="156.9"/>
<line class="st3" x1="186.3" y1="187.7" x2="397.8" y2="187.7"/>
<line class="st3" x1="186.3" y1="216" x2="397.8" y2="216"/>
<line class="st3" x1="183.5" y1="246.8" x2="406.8" y2="246.8"/>
<line class="st3" x1="183.4" y1="275.1" x2="426.6" y2="275.1"/>
<line class="st3" x1="181.2" y1="305.8" x2="561.5" y2="305.8"/>
<rect x="143.7" y="60.7" width="480.4" height="26"/>
<circle class="st4" cx="156.8" cy="73.7" r="3.6"/>
<circle class="st5" cx="167.8" cy="73.7" r="3.6"/>
<circle class="st6" cx="178.8" cy="73.7" r="3.6"/>
<rect x="202.1" y="257.7" class="st7" width="13.6" height="39.4"/>
<rect x="231.4" y="236.7" class="st7" width="13.6" height="32.6"/>
<rect x="260.6" y="209.3" class="st7" width="13.6" height="53.1"/>
<line class="st3" x1="408.9" y1="178.1" x2="576.4" y2="178.1"/>
<line class="st3" x1="408" y1="221.8" x2="580.3" y2="221.8"/>
<line class="st3" x1="426.6" y1="267" x2="565.8" y2="267"/>
<rect x="406.4" y="232" class="st7" width="20.2" height="20.2"/>
<rect x="318.4" y="178.1" class="st7" width="13.6" height="75.9"/>
<rect x="449.6" y="165.5" class="st7" width="20.2" height="115"/>
<rect x="492.8" y="148.7" class="st7" width="19.2" height="93.9"/>
<rect x="535.9" y="188.6" class="st8" width="19.4" height="45.4"/>
<rect x="406.1" y="242.5" class="st8" width="12.5" height="50.7"/>
<rect x="376.7" y="211.8" class="st8" width="13.6" height="53.1"/>
<rect x="347.3" y="202.4" class="st8" width="13.6" height="33.5"/>
<rect x="289.3" y="221.8" class="st8" width="13.6" height="61.4"/>
<rect x="207.9" y="233.9" class="st7" width="2" height="86.9"/>
<rect x="237.1" y="214.9" class="st7" width="2" height="78.3"/>
<rect x="266.3" y="187.7" class="st7" width="2" height="102.8"/>
<rect x="324.1" y="153.2" class="st7" width="2" height="115.7"/>
<rect x="501.4" y="124.1" class="st7" width="2" height="161.1"/>
<line class="st3" x1="439.6" y1="135.6" x2="543.9" y2="135.6"/>
<rect x="459" y="128.6" class="st7" width="2" height="151.9"/>
<rect x="411.3" y="239.1" class="st8" width="2" height="80.9"/>
<rect x="416.5" y="198.3" class="st7" width="2" height="34.8"/>
<path class="st9" d="M494.1,107.5c-53.5,0-97,43.4-97,97c0,53.5,43.4,97,97,97c53.5,0,97-43.4,97-97
	C591,150.9,547.6,107.5,494.1,107.5z M494.1,289c-46.7,0-84.6-37.9-84.6-84.6c0-46.7,37.9-84.6,84.6-84.6
	c46.7,0,84.6,37.9,84.6,84.6C578.6,251.1,540.8,289,494.1,289z"/>
<rect x="542.7" y="289.5" transform="matrix(0.6217 0.7833 -0.7833 0.6217 444.7474 -331.7355)" class="st9" width="46.3" height="10.1"/>
<rect x="566.7" y="290.5" transform="matrix(0.6217 0.7833 -0.7833 0.6217 450.5332 -332.9908)" class="st2" width="6.6" height="18.8"/>
<rect x="573.2" y="304.3" transform="matrix(0.6217 0.7833 -0.7833 0.6217 464.7739 -335.82)" class="st2" width="13.6" height="17.9"/>
<path class="st10" d="M768,439l-51-87.6c0,0-7.7-14.1-23.3-20.4L618,313.2c0,0-15.6-2.7-18.3,4.7c0,0-17.3-1.3-21,8.9
	c-3.8,10.2-2.8,15,2.9,27.8c0,0-11.2,9.6,1,49.8c0,0,3.2,3.8,8.5,3.5c0,0-1.5,19.2,3.7,31H768z"/>
<path class="st11" d="M627.9,341.9l31,12.1c0,0,7.4,2.9,13.3,16.3c5.9,13.4,8.4,21.4,8.4,21.4s1.9,7.7-2.6,9.3c-4.5,1.6-8-4.2-8-4.2
	L627.9,341.9z"/>
<path class="st11" d="M594.7,439h68.1c-6.2-7.6-12.6-16.1-15.3-22c-6.1-13.2-29.2-42.4-29.2-42.4l-39.4-48.4
	c-0.1,0.2-0.2,0.4-0.3,0.7c-3.8,10.2-2.8,15,2.9,27.8c0,0-11.2,9.6,1,49.8c0,0,3.2,3.8,8.5,3.5C591,408,589.6,427.2,594.7,439z"/>
<path d="M594.7,439h34.5c-2.2-28.1-17.3-48.3-22-51.1c-4.8-2.9-25.6-33.2-25.6-33.2s-0.2,0.2-0.5,0.6c-2.1,2.6-9,14.4,1.5,49.3
	c0,0,3.2,3.8,8.5,3.5C591,408,589.6,427.2,594.7,439z"/>
<path d="M594.7,439h34.5c-2.2-28.1-17.3-48.3-22-51.1c-4.8-2.9-25.6-33.2-25.6-33.2s-0.2,0.2-0.5,0.6c-2.1,2.6-9,14.4,1.5,49.3
	c0,0,3.2,3.8,8.5,3.5C591,408,589.6,427.2,594.7,439z"/>
<g>
	<g>
		<path class="st11" d="M614,439c-0.3-2.8-0.7-5.1-0.9-6.5c-0.7-4.7-3.6-14.8-4.7-18.6c-1.1-3.8-6.1-3.4-8.3-2.7
			c-2.2,0.7-4.3,2.2-6.6,3.6c-0.6,0.4-1.6,0.9-2.7,1.4c0.1,6.6,0.9,16,3.8,22.9H614z"/>
		<path class="st11" d="M590.5,408c1-0.6,1.9-1.1,2.4-1.6c1.9-1.6-1.8-19.8-1.9-22.2c-0.1-2.5-1.9-4.7-2.1-7
			c-0.1-1.5-6.8-8.4-11.4-13c-1.3,7.4-1.1,19.9,5,40.2C582.5,404.5,585.6,408.1,590.5,408z"/>
	</g>
</g>
<g>
	<path d="M578.1,361.9c0.2-0.8,0.4-1.4,0.6-2C578.5,360.4,578.3,361.1,578.1,361.9z"/>
	<path d="M579.4,358c0.1-0.1,0.1-0.3,0.2-0.4C579.6,357.7,579.5,357.8,579.4,358z"/>
	<path d="M579.1,358.7c0.1-0.2,0.1-0.4,0.2-0.5C579.2,358.4,579.2,358.6,579.1,358.7z"/>
	<path d="M578.7,359.7c0.1-0.2,0.2-0.5,0.3-0.7C578.9,359.2,578.8,359.4,578.7,359.7z"/>
	<path d="M577.8,363c0.1-0.3,0.1-0.7,0.2-1C577.9,362.4,577.9,362.7,577.8,363z"/>
	<path d="M577.5,364.3c0.1-0.3,0.1-0.7,0.2-1C577.7,363.6,577.6,364,577.5,364.3z"/>
	<polygon points="581.1,355.2 581.1,355.2 581.1,355.2 	"/>
	<path d="M576.9,371.2c0,0.5,0,1.1,0,1.6C576.9,372.3,576.9,371.7,576.9,371.2z"/>
	<path d="M580.8,355.5C580.8,355.5,580.8,355.5,580.8,355.5C580.8,355.5,580.8,355.5,580.8,355.5z"/>
	<path d="M579.8,357.3c0.1-0.1,0.1-0.2,0.2-0.4C579.9,357,579.8,357.2,579.8,357.3z"/>
	<path d="M580.1,356.7c0.1-0.1,0.1-0.2,0.2-0.3C580.2,356.5,580.1,356.6,580.1,356.7z"/>
	<path d="M577.3,365.7c0-0.4,0.1-0.7,0.2-1.1C577.4,365,577.4,365.3,577.3,365.7z"/>
	<path d="M578.4,387.6c-0.1-0.8-0.3-1.6-0.4-2.3C578.1,386,578.2,386.8,578.4,387.6z"/>
	<path d="M579.6,393.3c-0.1-0.6-0.3-1.3-0.4-1.9C579.3,392.1,579.4,392.7,579.6,393.3z"/>
	<path d="M577.5,381.9c-0.1-0.7-0.2-1.3-0.2-2C577.4,380.6,577.4,381.2,577.5,381.9z"/>
	<path d="M577.9,384.9c-0.1-0.9-0.3-1.7-0.4-2.6C577.7,383.1,577.8,384,577.9,384.9z"/>
	<path d="M578.9,390.4c-0.1-0.7-0.3-1.3-0.4-1.9C578.7,389.1,578.8,389.7,578.9,390.4z"/>
	<path d="M580.3,396.5c-0.2-0.7-0.3-1.3-0.5-2C580,395.2,580.2,395.8,580.3,396.5z"/>
	<path d="M581.2,399.9c-0.2-0.8-0.4-1.5-0.6-2.2C580.8,398.4,581,399.2,581.2,399.9z"/>
	<path d="M577.2,379.2c-0.1-0.5-0.1-1.1-0.1-1.6C577.1,378.1,577.2,378.7,577.2,379.2z"/>
	<path d="M577.1,367.3c0-0.4,0.1-0.8,0.1-1.2C577.2,366.5,577.2,366.9,577.1,367.3z"/>
	<path d="M582.5,404.5c-0.4-1.2-0.7-2.3-1-3.5C581.9,402.1,582.2,403.3,582.5,404.5z"/>
	<path d="M576.9,371c0-1.2,0.1-2.4,0.2-3.4C577,368.6,576.9,369.8,576.9,371z"/>
	<path d="M576.9,374.8c0-0.5,0-1,0-1.5C576.9,373.8,576.9,374.3,576.9,374.8z"/>
	<path d="M577,376.9c0-0.5-0.1-1-0.1-1.5C577,375.9,577,376.4,577,376.9z"/>
</g>
<rect x="295" y="200" class="st8" width="2" height="101.2"/>
<rect x="353.3" y="178.9" class="st8" width="2" height="84.1"/>
<rect x="382.9" y="211.7" class="st8" width="2" height="80.9"/>
<rect x="543.9" y="164.3" class="st8" width="3.4" height="88.2"/>
<line class="st3" x1="582.8" y1="275.1" x2="555.3" y2="275.1"/>
<circle class="st12" cx="383.9" cy="219.5" r="101.3"/>
<polygon class="st1" points="415.2,219.5 352.6,183.4 352.6,255.6 "/>
</svg>
