<?xml version="1.0" encoding="utf-8"?>
<!-- Generator: Adobe Illustrator 27.0.0, SVG Export Plug-In . SVG Version: 6.00 Build 0)  -->
<svg version="1.1" id="图层_1" xmlns="http://www.w3.org/2000/svg" xmlns:xlink="http://www.w3.org/1999/xlink" x="0px" y="0px"
	 viewBox="0 0 566.9 566.9" style="enable-background:new 0 0 566.9 566.9;" xml:space="preserve">
<style type="text/css">
	.st0{fill:#EB2E4A;}
</style>
<path class="st0" d="M128.8,173l101.7,44.2c6.1,2.8,12.9,3.7,19.5,2.8c18.3-2.8,30.9-19.9,28-38.2c-2.1-13.6-12.3-24.6-25.8-27.6
	l-108.7-24.1c-12.1-3.1-24.6,4.2-27.7,16.3c-0.7,3-0.9,6.1-0.4,9.3C116.7,163.3,121.8,169.9,128.8,173 M253.1,100.7
	c-4,6.4-5.1,14.4-2.8,21.6c4.3,13.3,18.6,20.7,31.9,16.3c4.3-1.3,8.1-3.9,11.1-7.2l63.5-73.8c8.2-9,11.1-21.7,7.6-33.4
	C358.5,6.5,339.7-3.1,322,2.6l0,0c-7.6,2.4-14.1,7.5-18.1,14.4L253.1,100.7 M435.7,222.3c-7.3-1.8-15.3-0.3-21.4,4.2
	c-11.4,8.2-13.8,24-5.7,35.3c2.7,3.6,6.1,6.4,10.3,8.2l89.9,37.4c11.1,5.1,24.1,3.9,34.1-3.1c15-10.9,18.3-31.9,7.3-46.9
	c-4.6-6.4-11.5-11.1-19.3-12.9L435.7,222.3 M376.5,433.3c-0.4-7.6-4.3-14.7-10.3-19.2c-11.2-8.2-27.1-5.7-35.3,5.5
	c-2.7,3.6-4.3,7.9-4.8,12.4c0,0.3-8.1,96.7-8.1,97c-1.3,12.1,3.7,24.1,13.5,31.5c15,10.8,35.9,7.5,46.7-7.5c4.8-6.4,7-14.4,6.3-22.3
	c0-2.1-8.2-97.3-8.2-97.6 M157.3,442.4c7-2.8,12.6-8.5,15-15.9c4.3-13.3-3-27.6-16.3-31.9c-4.2-1.3-8.7-1.6-13-0.7l-94.8,22.3
	c-12,2.4-21.9,11.1-25.9,22.6c-5.7,17.7,3.9,36.5,21.4,42.2c7.6,2.5,15.7,2.2,23.2-0.9L157.3,442.4 M81,236.7
	c4.9,5.8,12.1,9.3,19.6,9.3c13.9,0,25.3-11.2,25.3-25.3c0-4.5-1.2-9-3.4-12.9c0-0.1-50.3-83-50.6-83.3c-6-10.3-17.1-17.1-29.4-17.2
	C24,107.3,9,122.2,9,140.8l0,0c0,7.9,2.8,15.7,8.1,21.7L81,236.7 M328.4,126.6c0,0.3-10.6,110.1-10.6,110.4
	c-0.7,6.7,0.4,13.5,3.4,19.5c8.4,16.5,28.6,23.1,45.1,14.5c12.1-6.1,19.3-19.2,18.1-32.6c0-0.3-10.6-110.7-10.6-110.8
	c-0.1-3.1-1-6.1-2.4-8.8c-5.7-11.2-19.5-15.7-30.7-10C333.8,112.1,329.2,118.9,328.4,126.6 M434.5,301.8l-108.1,24.1
	c-6.6,1.3-12.6,4.5-17.4,9.3c-13.2,13-13.2,34.3-0.1,47.3c9.7,9.7,24.4,12.6,37,7.2L448,345.2c2.8-1.2,5.5-2.8,7.6-5.1
	c8.8-8.8,8.8-23.4,0-32.2C449.9,302.6,442.1,300.2,434.5,301.8 M300.3,456.8L244,361.3c-3.3-5.8-8.2-10.6-14.2-13.8
	c-16.5-8.4-36.7-1.8-45.1,14.7c-6.1,12.1-4.3,27,4.5,37.1l73.7,83.4c8.1,9.7,22.5,11.1,32,3c2.4-1.9,4.3-4.5,5.7-7.2
	C304.5,471.9,304.2,463.7,300.3,456.8 M111.4,377.3l73.4-82.8c4.5-4.9,7.6-11.1,8.7-17.7c2.8-18.3-9.7-35.5-28-38.3
	c-13.5-2.1-26.8,4.2-33.8,15.7L75,349.9c-6.7,10.6-3.6,24.7,7,31.5c2.7,1.6,5.5,2.7,8.7,3.3C98.6,385.8,106.3,383.1,111.4,377.3"/>
</svg>
