<?xml version="1.0" encoding="utf-8"?>
<!-- Generator: Adobe Illustrator 26.3.1, SVG Export Plug-In . SVG Version: 6.00 Build 0)  -->
<svg version="1.1" id="Layer_1" xmlns="http://www.w3.org/2000/svg" xmlns:xlink="http://www.w3.org/1999/xlink" x="0px" y="0px"
	 viewBox="0 0 1208.2 387" style="enable-background:new 0 0 1208.2 387;" xml:space="preserve">
<style type="text/css">
	.st0{fill:#141FD1;}
	.st1{fill:#EB2E4A;}
</style>
<path class="st0" d="M1042.2,88.6c-12.4-0.3-24.8,0.3-37.1,1.8v64.8l2.8,0.3c0,0,15.5,1.3,33.2,1.3c28.7,0,45.3-2.2,55.4-11.1
	c10.2-9.2,12.9-24.1,6.5-36.3C1093.1,89.5,1062,88.6,1042.2,88.6 M1005.1,293.8c16.6,1,34.5,1.8,52.6,1.1c14-0.5,32.5-1.6,45.7-15
	c11.8-12,13.9-30.5,5.1-44.9c-8.2-13.8-24.4-20.5-63.8-20.1c-13.3,0.1-26.6,0.8-39.8,2.2L1005.1,293.8z M1038.2,361.9
	c-41.5,0-80.3-1-110.6-2.6V29c10.5-0.9,43.2-1.6,89.4-2.8c26.2-1,52.4,0.3,78.3,3.9c49.1,7.7,66.9,31.2,74.7,44.1
	c8.3,13.2,12.2,28.7,11.2,44.2c-1.4,21.1-8.2,38.3-29.7,55.3l-3.9,3l4.3,2.2c13.2,7,24,17.9,30.9,31.1c8,14.7,12,31.1,11.8,47.8
	c0,35.6-12.8,62.6-38.6,80.6c-23.2,16-55.1,23.5-117.7,23.5 M852.1,28.8h-76.7c-6.9,14.1-54.6,112.8-76.6,169.1l-1.5,3.9h-2.6
	l-1.5-3.9c-21.9-56.3-69.6-155-76.6-169.1H540c-16.6,119.3-24.8,303.9-25.9,330.3h76.4c0.7-22.1,5.3-161.3,8.5-192.6l0.8-7.7h1.9
	l3.1,7c25.5,58,58.3,138,63.7,151.2h55.4c5.4-13.2,38.2-93.1,63.7-151.2l3.1-7h1.9l0.8,7.7c3.2,31.3,7.7,170.5,8.5,192.6h76.4
	c-1.1-26.4-9.3-211-25.9-330.3"/>
<path class="st1" d="M109.6,119.8l67.9,29.5c4.1,1.9,8.6,2.5,13,1.9c12.2-1.9,20.6-13.3,18.7-25.5c-1.4-9.1-8.2-16.4-17.2-18.4
	l-72.6-16.1c-8.1-2.1-16.4,2.8-18.5,10.9c-0.5,2-0.6,4.1-0.3,6.2C101.5,113.3,104.9,117.7,109.6,119.8 M192.6,71.5
	c-2.7,4.3-3.4,9.6-1.9,14.4c2.9,8.9,12.4,13.8,21.3,10.9c2.9-0.9,5.4-2.6,7.4-4.8l42.4-49.3c5.5-6,7.4-14.5,5.1-22.3
	C263,8.6,250.4,2.2,238.6,6c0,0,0,0,0,0c-5.1,1.6-9.4,5-12.1,9.6L192.6,71.5 M314.5,152.7c-4.9-1.2-10.2-0.2-14.3,2.8
	c-7.6,5.5-9.2,16-3.8,23.6c1.8,2.4,4.1,4.3,6.9,5.5l60,25c7.4,3.4,16.1,2.6,22.8-2.1c10-7.3,12.2-21.3,4.9-31.3
	c-3.1-4.3-7.7-7.4-12.9-8.6l-63.6-14.9 M275,293.6c-0.3-5.1-2.9-9.8-6.9-12.8c-7.5-5.5-18.1-3.8-23.6,3.7c-1.8,2.4-2.9,5.3-3.2,8.3
	c0,0.2-5.4,64.6-5.4,64.8c-0.9,8.1,2.5,16.1,9,21c10,7.2,24,5,31.2-5c3.2-4.3,4.7-9.6,4.2-14.9c0-1.4-5.5-65-5.5-65.2 M128.6,299.7
	c4.7-1.9,8.4-5.7,10-10.6c2.9-8.9-2-18.4-10.9-21.3c-2.8-0.9-5.8-1.1-8.7-0.5l-63.3,14.9c-8,1.6-14.6,7.4-17.3,15.1
	c-3.8,11.8,2.6,24.4,14.3,28.2c5.1,1.7,10.5,1.5,15.5-0.6L128.6,299.7 M77.7,162.3c3.3,3.9,8.1,6.2,13.1,6.2
	c9.3,0,16.9-7.5,16.9-16.9c0-3-0.8-6-2.3-8.6c0-0.1-33.6-55.4-33.8-55.6C67.6,80.5,60.2,76,52,75.9c-12.4,0-22.4,10-22.4,22.4l0,0
	c0,5.3,1.9,10.5,5.4,14.5L77.7,162.3 M242.9,88.8c0,0.2-7.1,73.5-7.1,73.7c-0.5,4.5,0.3,9,2.3,13c5.6,11,19.1,15.4,30.1,9.7
	c8.1-4.1,12.9-12.8,12.1-21.8c0-0.2-7.1-73.9-7.1-74c-0.1-2.1-0.7-4.1-1.6-5.9c-3.8-7.5-13-10.5-20.5-6.7
	C246.5,79.1,243.4,83.7,242.9,88.8 M313.7,205.8l-72.2,16.1c-4.4,0.9-8.4,3-11.6,6.2c-8.8,8.7-8.8,22.9-0.1,31.6
	c6.5,6.5,16.3,8.4,24.7,4.8l68.2-29.7c1.9-0.8,3.7-1.9,5.1-3.4c5.9-5.9,5.9-15.6,0-21.5C324,206.3,318.8,204.7,313.7,205.8
	 M224.1,309.3l-37.6-63.8c-2.2-3.9-5.5-7.1-9.5-9.2c-11-5.6-24.5-1.2-30.1,9.8c-4.1,8.1-2.9,18,3,24.8l49.2,55.7
	c5.4,6.5,15,7.4,21.4,2c1.6-1.3,2.9-3,3.8-4.8C226.9,319.4,226.7,313.9,224.1,309.3 M98,256.2l49-55.3c3-3.3,5.1-7.4,5.8-11.8
	c1.9-12.2-6.5-23.7-18.7-25.6c-9-1.4-17.9,2.8-22.6,10.5l-37.8,63.9c-4.5,7.1-2.4,16.5,4.7,21c1.8,1.1,3.7,1.8,5.8,2.2
	C89.4,261.9,94.6,260.1,98,256.2"/>
</svg>
