 <svg  xmlns="http://www.w3.org/2000/svg"  x="0px" y="0px"
         viewBox="0 0 24 24" xml:space="preserve">
<style type="text/css">
	.st0{fill:#56B4FC;}
	.st1{fill:#1652F0;}
	.st2{fill:#BFE9FF;}
	.st3{fill:#FFFFFF;}
</style>
        <circle class="st0" cx="17.7" cy="16.7" r="6.3"/>
        <path class="st1" d="M14,8.1c1,0,1.8,0.5,2.2,1.3c-3.4,0.7-5.9,3.7-5.9,7.3c0,1.5,0.4,2.8,1.2,4l0,0c-2.8,0-5.1-2.3-5.1-5.1v-4.9
	c0-1.4,1.2-2.6,2.6-2.6H14z"/>
        <path class="st2" d="M6.2,8.1c-0.6,0.6-1,1.4-1,2.3l0,0.2v4.9c0,1,0.2,1.9,0.6,2.7c-0.4,0.1-0.8,0.2-1.2,0.2c-2.5,0-4.6-2-4.6-4.6
	v-3.1c0-1.4,1.1-2.5,2.4-2.6l0.2,0L6.2,8.1z"/>
        <path class="st2" d="M20.3,8.1c1.4,0,2.6,1.2,2.6,2.6l0,0.6c-1.3-1.3-3.1-2.1-5.1-2.1l-0.3,0l0,0c-0.2-0.4-0.4-0.8-0.8-1.1L20.3,8.1
	z"/>
        <circle class="st2" cx="18.9" cy="4.1" r="2.9"/>
        <circle class="st1" cx="11.4" cy="3.6" r="3.4"/>
        <circle class="st2" cx="4" cy="4.1" r="2.9"/>
        <path class="st3" d="M21.2,17.3c0-0.2,0.1-0.4,0.1-0.7c0-0.2,0-0.5-0.1-0.7l0.8-0.6c0.2-0.2,0.3-0.6,0.2-0.9l-0.3-0.6
	c-0.1-0.2-0.4-0.3-0.6-0.3c-0.1,0-0.2,0-0.2,0L20.1,14c-0.3-0.3-0.8-0.5-1.2-0.7l-0.2-1c-0.1-0.3-0.4-0.5-0.7-0.5h-0.7
	c-0.3,0-0.6,0.2-0.7,0.5l-0.2,0.9c-0.5,0.1-0.9,0.4-1.2,0.7l-0.9-0.4c-0.1,0-0.2,0-0.2,0c-0.2,0-0.5,0.1-0.6,0.3l-0.3,0.6
	c-0.2,0.3-0.1,0.7,0.2,0.9l0.8,0.6c0,0.2-0.1,0.4-0.1,0.7c0,0.2,0,0.5,0.1,0.7l-0.8,0.7c-0.2,0.2-0.3,0.6-0.2,0.9l0.3,0.6
	c0.1,0.2,0.4,0.3,0.6,0.3c0.1,0,0.2,0,0.2,0l0.9-0.4c0.3,0.3,0.8,0.5,1.2,0.7l0.2,1c0.1,0.3,0.3,0.6,0.7,0.6h0.7
	c0.3,0,0.6-0.2,0.7-0.6l0.2-1c0.5-0.2,0.9-0.4,1.3-0.8l0.9,0.4c0.1,0,0.2,0,0.2,0c0.2,0,0.5-0.1,0.6-0.3l0.3-0.5
	c0.2-0.3,0.1-0.7-0.2-0.9L21.2,17.3z M17.7,19c-1.2,0-2.2-1-2.2-2.2s1-2.2,2.2-2.2c1.2,0,2.2,1,2.2,2.2c0,0,0,0,0,0
	C20,18,19,19,17.7,19C17.7,19,17.7,19,17.7,19z"/>
        <path class="st3" d="M17.7,15.5c-0.7,0-1.2,0.6-1.2,1.2s0.6,1.2,1.2,1.2s1.2-0.6,1.2-1.2v0C18.9,16,18.4,15.5,17.7,15.5z"/>
</svg>