<svg  xmlns="http://www.w3.org/2000/svg" x="0px" y="0px"
	 viewBox="0 0 24 24" style="enable-background:new 0 0 24 24;" xml:space="preserve">
<style type="text/css">
	.st0{fill:none;}
	.st1{fill:#9B9B9B;}
	.st2{opacity:0.51;fill:#C1C1C1;}
</style>
<path class="st0" d="M-1-1h26v26H-1V-1z"/>
<path class="st1" d="M20.9,2.1l-8.9-2l-8.9,2c-0.5,0.1-0.8,0.5-0.8,1v10.8c0,2.2,1.1,4.2,2.9,5.4l6.8,4.6l6.8-4.6
	c1.8-1.2,2.9-3.2,2.9-5.4V3.1C21.7,2.6,21.4,2.2,20.9,2.1z M19.6,13.9c0,1.4-0.7,2.8-1.9,3.6L12,21.3l-5.6-3.8
	c-1.2-0.8-1.9-2.2-1.9-3.6V4L12,2.3L19.6,4V13.9z"/>
<path class="st2" d="M12,2.3L4.5,4v9.9c0,1.4,0.7,2.8,1.9,3.6l5.6,3.8l5.7-3.8c1.2-0.8,1.9-2.2,1.9-3.6V4L12,2.3z M13.3,17.6
	c-0.3,0.3-0.8,0.5-1.3,0.5c-0.5,0-0.9-0.2-1.3-0.5c-0.3-0.3-0.5-0.8-0.5-1.3c0-0.5,0.2-0.9,0.5-1.3c0.3-0.3,0.8-0.5,1.3-0.5
	c0.5,0,0.9,0.2,1.3,0.5c0.3,0.3,0.5,0.8,0.5,1.3C13.8,16.8,13.7,17.3,13.3,17.6z M13.6,9.7c-0.3,1.5-0.5,2.9-0.6,4h-2.1
	c-0.1-1.2-0.3-2.5-0.6-4S10,7.2,10,6.8C10,6,10.2,5.4,10.5,5s0.9-0.7,1.5-0.7c0.6,0,1.1,0.2,1.5,0.7C13.8,5.4,14,6,14,6.8
	C14,7.2,13.9,8.1,13.6,9.7z"/>
</svg>
