<svg xmlns="http://www.w3.org/2000/svg" x="0px" y="0px"
	 viewBox="0 0 24 24" style="enable-background:new 0 0 24 24;" xml:space="preserve">
<style type="text/css">
	.st0{fill:none;}
	.st1{fill:#0050F9;}
	.st2{fill-rule:evenodd;clip-rule:evenodd;fill:#0050F9;}
</style>
<path class="st0" d="M-1-1H25V25H-1V-1z"/>
<g>
	<path class="st1" d="M18.4,16.9c-0.2,0.2-0.4,0.4-0.7,0.6L12,21.3l-5.6-3.8c-1.2-0.8-1.9-2.2-1.9-3.6V4l0.8-0.2L3.4,2L3.1,2.1
		C2.6,2.2,2.3,2.6,2.3,3.1v10.8c0,2.2,1.1,4.2,2.9,5.4l6.8,4.6l6.8-4.6c0.4-0.3,0.7-0.6,1-0.9L18.4,16.9z"/>
	<path class="st1" d="M7.9,3.2L12,2.3L19.6,4v9.9c0,0.3,0,0.6-0.1,0.9l1.7,1.7c0.4-0.8,0.6-1.7,0.6-2.6V3.1c0-0.5-0.4-0.9-0.8-1.1
		l-8.9-2L6.1,1.4L7.9,3.2z"/>
</g>
<rect x="-3.3" y="10.9" transform="matrix(0.7071 0.7071 -0.7071 0.7071 12.0168 -4.933)" class="st2" width="30.5" height="2.3"/>
</svg>
