<svg xml:space="preserve" style="" viewBox="0 0 50 50" y="0px" x="0px"
                          xmlns="http://www.w3.org/2000/svg" width="45px" height="45px"><g class="ldl-scale"
                                                                     style="transform-origin: 50% 50%; transform: rotate(0deg) scale(1, 1);">
                            <g class="ldl-ani" style="transform-origin: 25px 25px;">
                                <g class="ldl-layer">
                                    <g class="ldl-ani"
                                       style="transform: scale(0.91); transform-origin: 25px 25px; animation: 1.11111s linear -0.666667s infinite normal forwards running breath;">
                                        <path d="M1,41.7c0.6,0,1,0.5,1,1v5.2h5.1c0.6,0,1,0.5,1,1s-0.5,1-1,1H2.1C0.9,50,0,49.1,0,47.9v-5.2
	C0,42.1,0.5,41.7,1,41.7z M42.8,50c-0.6,0-1-0.5-1-1s0.5-1,1-1h5.1v-5.2c0-0.6,0.5-1,1-1c0.6,0,1,0.5,1,1v5.2c0,1.2-0.9,2.1-2.1,2.1
	H42.8z M7.2,0c0.6,0,1,0.5,1,1c0,0.6-0.5,1-1,1H2.1v5.2c0,0.6-0.5,1-1,1c-0.6,0-1-0.5-1-1V2.1C0,0.9,0.9,0,2,0l0,0H7.2z"
                                              class="st0" style="fill: rgb(0, 82, 255);"></path>
                                    </g>
                                </g>
                                <g class="ldl-layer">
                                    <g class="ldl-ani"
                                       style="transform: scale(0.91); transform-origin: 25px 25px; animation: 1.11111s linear -0.777778s infinite normal forwards running breath;">
                                        <path d="M50,7.3c0,0.6-0.5,1-1,1c-0.6,0-1-0.5-1-1V2.1h-5.1c-0.6,0-1-0.5-1-1c0-0.6,0.5-1,1-1h5.5c1,0,1.7,0.8,1.7,1.7
	V7.3z" class="st1" style="fill:#56B4FC"></path>
                                    </g>
                                </g>
                                <g class="ldl-layer">
                                    <g class="ldl-ani"
                                       style="transform: scale(0.91); transform-origin: 25px 25px; animation: 1.11111s linear -0.888889s infinite normal forwards running breath;">
                                        <path d="M31.2,32.6c-0.4,0-0.8-0.3-0.8-0.8c0-0.4,0.3-0.8,0.8-0.8C37.7,31,43,25.6,43,19c0-6.6-5.4-12-12-12
	c-6.5,0-11.9,5.3-12,11.8c0,0.4-0.4,0.8-0.8,0.8c-0.4,0-0.8-0.4-0.8-0.8C17.5,11.5,23.6,5.5,31,5.5c7.5,0,13.6,6.1,13.6,13.6
	C44.5,26.4,38.6,32.5,31.2,32.6C31.2,32.6,31.2,32.6,31.2,32.6z" class="st1" style="fill:#56B4FC"></path>
                                    </g>
                                </g>
                                <g class="ldl-layer">
                                    <g class="ldl-ani"
                                       style="transform: scale(0.91); transform-origin: 25px 25px; animation: 1.11111s linear -1s infinite normal forwards running breath-d2c7f9d3-bbfe-412a-9523-aae9618f898b;">
                                        <path d="M33.3,24.4c-0.3,0-0.5-0.1-0.7-0.4c-0.2-0.4-0.1-0.8,0.3-1c1.4-0.8,2.3-2.2,2.3-3.9c0-2.4-2-4.4-4.4-4.4
	c-1.7,0-3.2,0.9-3.9,2.4c-0.2,0.4-0.6,0.5-1,0.3c-0.4-0.2-0.5-0.6-0.3-1c1-2,3-3.3,5.3-3.3c3.2,0,5.9,2.6,5.9,5.9
	c0,2.2-1.2,4.2-3.2,5.2C33.6,24.3,33.5,24.4,33.3,24.4z" class="st1" style="fill:#56B4FC;"></path>
                                    </g>
                                </g>
                                <g class="ldl-layer">
                                    <g class="ldl-ani"
                                       style="transform: scale(0.91); transform-origin: 25px 25px; animation: 1.11111s linear -1.11111s infinite normal forwards running breath;">
                                        <path d="M11.8,43.9c-0.2,0-0.4-0.1-0.5-0.2L6.6,39c-0.1-0.1-0.2-0.3-0.2-0.5c0-0.2,0.1-0.4,0.2-0.5l8.2-8.2l-4.2-4.2
	c-0.2-0.2-0.3-0.5-0.2-0.7c0.1-0.3,0.3-0.5,0.5-0.5l20-5.9c0.3-0.1,0.6,0,0.8,0.2C32,18.7,32,19,32,19.3l-5.9,20
	c-0.1,0.3-0.3,0.5-0.5,0.5c-0.3,0.1-0.5,0-0.7-0.2l-4.2-4.2l-8.2,8.2C12.2,43.8,12,43.9,11.8,43.9z" class="st0"
                                              style="fill: rgb(0, 82, 255);"></path>
                                    </g>
                                </g>
                            </g>
                        </g></svg>