<svg xmlns="http://www.w3.org/2000/svg" x="0px" y="0px"
	 viewBox="0 0 37 37" xml:space="preserve">
<style type="text/css">
	.st0{fill-rule:evenodd;clip-rule:evenodd;fill:#56B4FC;}
	.st1{fill:#0052FF;}
	.st2{fill-rule:evenodd;clip-rule:evenodd;fill:#0052FF;}
</style>
<path class="st0" d="M5.8,13.8c-0.6,0-1,0.4-1,1v0.8c0,0.6,0.4,1,1,1h0.4L5.5,27.6h6.9l-0.7-11.1h0.4c0.6,0,1-0.4,1-1v-0.8
	c0-0.6-0.4-1-1-1H5.8z"/>
<path class="st0" d="M15.4,13.8c-0.6,0-1,0.4-1,1v0.8c0,0.6,0.4,1,1,1h0.4l-0.7,11.1h6.9l-0.7-11.1h0.4c0.6,0,1-0.4,1-1v-0.8
	c0-0.6-0.4-1-1-1H15.4z"/>
<path class="st0" d="M25.8,13.8c-0.6,0-1,0.4-1,1v0.8c0,0.6,0.4,1,1,1h0.4l-0.7,11.1h6.9l-0.7-11.1h0.4c0.6,0,1-0.4,1-1v-0.8
	c0-0.6-0.4-1-1-1H25.8z"/>
<path class="st1" d="M2.7,28.5c0.1-0.5,0.5-0.9,1-0.9h29.9c0.5,0,0.9,0.4,1,0.9L35,32c0.1,0.6-0.4,1.1-1,1.1H3.2
	c-0.6,0-1.1-0.5-1-1.1L2.7,28.5z"/>
<path class="st2" d="M2.7,7.5C2.3,7.6,2,8,2,8.4v3c0,0.6,0.4,1,1,1h31.2c0.6,0,1-0.4,1-1v-3c0-0.4-0.3-0.8-0.7-1L20.3,3.2
	c-1.1-0.3-2.3-0.3-3.4,0L2.7,7.5z M18.6,10.3c1.1,0,2.1-0.9,2.1-2.1c0-1.1-0.9-2.1-2.1-2.1s-2.1,0.9-2.1,2.1
	C16.5,9.4,17.5,10.3,18.6,10.3z"/>
</svg>
