<svg xml:space="preserve" viewBox="0 0 42 42" y="0px" x="0px"  xmlns="http://www.w3.org/2000/svg" width="45px" height="45px"><g class="ldl-scale" style="transform-origin: 50% 50%; transform: rotate(0deg) scale(1, 1);">
                            <g class="ldl-ani" style="transform-origin: 21px 21px;">
                                <style type="text/css">
                                    .st0 {
                                        fill: #00E4FC;
                                    }

                                    .st1 {
                                        fill: #0052FF;
                                    }
                                </style>
                                <g class="ldl-layer">
                                    <g class="ldl-ani" style="transform: scale(0.91); transform-origin: 21px 21px; animation: 1.11111s linear -0.833333s infinite normal forwards running breath;">
                                        <path d="M40.7,19L21,42L1.4,19l0.2-0.2c0.4-0.4,1-0.7,1.5-1l15.2,17.8l-4.6-12.8l1.4-2.3L21,37l5.8-16.4l1.4,2.3
	l-4.5,12.8L39,17.8c0.5,0.3,1,0.6,1.5,1L40.7,19" class="st0" style="fill:#56B4FC;"></path>
                                    </g>
                                </g>
                                <g class="ldl-layer">
                                    <g class="ldl-ani" style="transform: scale(0.91); transform-origin: 21px 21px; animation: 1.11111s linear -1.11111s infinite normal forwards running breath;">
                                        <path d="M6.1,15c3.2,0,6,1.8,7.5,4.5C15,16.8,17.8,15,21,15c3.2,0,6,1.8,7.5,4.5c1.4-2.7,4.2-4.5,7.5-4.5
	c2.3,0,4.5,0.9,6,2.4C40.1,7.5,31.4,0,21,0C10.6,0,1.9,7.5,0,17.5C1.6,15.9,3.7,15,6.1,15z" class="st1" style="fill: rgb(0, 82, 255);"></path>
                                    </g>
                                </g>
                            </g>
                        </g></svg>