<svg xmlns="http://www.w3.org/2000/svg"  x="0px" y="0px"
	 viewBox="0 0 612 612" style="enable-background:new 0 0 612 612;" xml:space="preserve">
<style type="text/css">
	.st0{fill:#56B4FC;}
	.st1{fill:#0052FF;}
</style>
<path class="st0" d="M452.8,204.1l51.9,51.9c31.1,31.1,31.1,77,31.1,77l8.3-13.8c13.6-22.8,24-50.1,22.3-72.6
	c-2.8-36.8-26-65.2-39.9-79L507.9,149l36.7-36.7l-132.9-4.7l4.8,132.9L452.8,204.1z"/>
<path class="st0" d="M159.2,409.9L107.3,358c-31.1-31.1-31.1-77-31.1-77L68,294.9c-13.6,22.8-24,50.1-22.3,72.6
	c2.8,36.8,26,65.2,39.9,79l18.5,18.5l-36.7,36.7l132.9,4.7l-4.8-132.9L159.2,409.9z"/>
<g>
	<path class="st1" d="M230.1,135.5c3.5-1.2,6.1-3.1,7.9-5.6c1.8-2.5,2.7-5.3,2.7-8.6c0-3.4-0.8-6.2-2.5-8.6
		c-1.7-2.4-4.1-4.1-7.3-5.1s-8.9-1.5-17.1-1.5h-14l0,31.3h14C221.2,137.4,226.6,136.7,230.1,135.5z"/>
	<path class="st1" d="M214.7,0C132.2,0,65.3,66.9,65.3,149.4s66.9,149.4,149.4,149.4c82.6,0.1,149.5-66.8,149.5-149.4
		C364.2,66.9,297.3,0,214.7,0z M276.3,177.3c0,6.8-2.1,13.1-6.1,18.8s-9.8,10.1-17.3,13.1c-2.8,1.1-6,2-9.6,2.7v22.9h-21.7v-21.1
		c-0.5,0-1,0-1.6,0h-12.3v21.1H186v-21.1h-33.1V196h5.1c3.3,0,5.6-0.3,6.8-0.9c1.3-0.6,2.1-1.4,2.6-2.5c0.5-1.1,0.7-3.5,0.7-7.2
		v-71.5c0-3.8-0.2-6.3-0.7-7.3c-0.6-1.1-1.4-2-2.6-2.5c-1.2-0.7-3.4-1-6.8-1h-5.1V85.4H186V64.3h21.7v21.1h13.9V64.3h21.7V87
		c3.2,0.6,6.1,1.4,8.6,2.4c6.4,2.6,11.2,6.4,14.7,11.2c3.4,4.8,5.1,10.2,5.1,16c0,4.2-0.9,8.2-2.7,12c-1.8,3.7-4.4,7.1-7.8,10
		c-3.4,2.9-7.9,5.3-13.5,7.2c6,1.6,10.6,3.2,13.8,5.1c4.5,2.5,8.2,6.2,10.9,10.8C275.1,166.3,276.5,171.4,276.3,177.3z"/>
	<path class="st1" d="M232.9,158.1c-3.6-1.3-9-2-16.3-2H200v27.7c0,3.9,0.2,6.3,0.4,6.9c0.3,0.9,0.8,1.5,1.5,1.8
		c0.7,0.4,2.6,0.5,5.7,0.5h9.3c5.4,0,9.9-0.5,13.5-1.5c3.6-1,6.6-3.1,9.1-6.3c2.5-3.2,3.7-7,3.9-11.5c0-3.7-0.8-7-2.6-9.6
		C239.1,161.5,236.5,159.5,232.9,158.1z"/>
</g>
<path class="st1" d="M400.2,313.1c-82.5,0-149.4,66.9-149.4,149.4s66.9,149.4,149.4,149.4S549.6,545,549.6,462.5
	S482.7,313.1,400.2,313.1z M415.3,531.2v21.4h-18.8v-20.7c-16.3,0-32.7-4.3-40.6-8.7l6.9-27.6c8.7,4.3,22.5,9.4,37,9.4
	c15.6,0,23.3-6.9,23.3-16.3c0-9.4-7.4-13.3-25.4-20.3c-25-8.7-40.6-21.4-40.6-43.8c0-20.7,13.7-37,38.9-42.1V360h18.8v21.4
	c15.6,0,26.9,3.2,35.2,7.7l-7.7,26.9c-6.2-2.6-16.3-6.9-30.1-6.9c-13.8,0-21.4,6.9-21.4,13.7c0,9.4,8.7,13,27.6,20.7
	c25.7,9.4,37.6,22.5,37.6,43.8S442.8,525,415.3,531.2z"/>
</svg>
