<?xml version="1.0" encoding="utf-8"?>
<!-- Generator: Adobe Illustrator 27.0.0, SVG Export Plug-In . SVG Version: 6.00 Build 0)  -->
<svg version="1.1" id="Capa_1" xmlns="http://www.w3.org/2000/svg" xmlns:xlink="http://www.w3.org/1999/xlink" x="0px" y="0px"
	 viewBox="0 0 800 800" style="enable-background:new 0 0 800 800;" xml:space="preserve">
<style type="text/css">
	.st0{fill:#FFFFFF;}
</style>
<g>
	<g>
		<path class="st0" d="M474.8,582.1l-1.3-2c-10.5-16.5-9.1-36.2,3.6-51.6c1.8-2.1,3.8-4.4,6.3-7.1c7.6-7.6,19.6-17.8,36.9-17.8
			c10.5,0,20.9,3.8,31.5,11.7c16.5,12.2,32.9,25,48.6,37.2c3.1,2.3,6.1,4.8,9.2,7.1c2.3-2.6,4.6-5.4,7.1-8.1
			c16.3-18.8,32.5-37.6,48.6-56.3c8.9-30.3,13.7-62.3,13.7-95.4c0-187.5-152.1-339.5-339.5-339.5C152.1,60.6,0,212.6,0,400.1
			s152.1,339.5,339.5,339.5c76.1,0,146.4-25,203-67.4c-18.1-23.6-36.6-47.3-54.5-70.8C483,595,478.7,588.4,474.8,582.1z M437,534
			c-14.8,18-34.1,30.1-56.7,36.2c-9.9,2.6-14.2,7.9-13.7,18.1c0.5,10,0,20.1,0,30.1c0,8.9-4.6,13.7-13.3,14
			c-10.7,0.3-21.6,0.3-32.5,0c-9.4-0.2-13.8-5.6-14-14.8c-0.2-7.2-0.2-14.7-0.2-21.9c-0.2-16.1-0.7-16.8-16.3-19.3
			c-19.9-3.1-39.4-7.7-57.7-16.5c-14.3-6.9-15.8-10.5-11.7-25.5c3.1-11.2,6.1-22.4,9.6-33.4c4-12.8,7.4-14.5,19.3-8.2
			c20.1,10.5,41.5,16.3,63.9,19.1c14.5,1.8,28.5,0.3,42-5.4c24.9-10.9,28.8-39.9,7.7-57.2c-7.2-5.9-15.3-10.2-23.9-14
			c-21.9-9.6-44.6-17-65.4-29.3c-33.6-20.1-54.9-47.6-52.4-88.5c2.8-46.1,28.8-75,71.2-90.3c17.5-6.4,17.5-6.1,17.6-24.4
			c0-6.1,0-12.4,0-18.5c0.3-13.8,2.6-16.1,16.3-16.5c4.3-0.2,8.6,0,12.7,0c29.2,0,29.2,0,29.3,29.2c0.2,20.6,0,20.8,20.6,23.9
			c15.8,2.5,30.8,7.1,45.3,13.5c8.1,3.5,11,9.2,8.6,17.6c-3.6,12.5-7.1,25.2-11,37.7c-3.8,11.9-7.6,13.5-18.9,8.1
			c-22.7-11-46.6-15.6-71.8-14.2c-6.6,0.3-13,1.3-19.1,4c-21.7,9.6-25.2,33.4-6.8,48.3c9.4,7.4,20.1,12.8,31.1,17.5
			c19.3,7.9,38.5,15.6,56.8,25.7C462.2,411.1,478.1,484.1,437,534z"/>
		<path class="st0" d="M790.9,435.8c-7.9-6.4-13.3-9.7-18.3-9.7c-5.6,0-10.5,4.3-18.1,13c-38.2,44.3-76.4,88.5-114.7,132.8
			c-8.6,9.9-17.1,19.8-26,30c-4.4-3.5-8.6-6.6-12.7-9.9c-22.6-17.5-44.8-35.1-67.5-52.1c-5.1-3.8-9.4-5.8-13.3-5.8
			c-4.9,0-9.6,3-15.2,8.7c-1.6,1.6-3,3.3-4.4,5.1c-4.1,4.9-4.8,10.2-1.3,15.6c4.1,6.4,8.2,13,12.8,19.1
			c30.1,39.2,60.3,78.2,90.6,117.5c3.6,4.8,7.9,7.2,12.2,7.2c4.6,0,9.2-2.8,13.2-8.6c55.5-79.4,110.9-158.6,166.2-238
			C802.8,448.8,801.9,444.9,790.9,435.8z"/>
	</g>
</g>
</svg>
