<svg xml:space="preserve" style="" viewBox="0 0 50 41" y="0px" x="0px" xmlns="http://www.w3.org/2000/svg"  width="45px" height="45px"><g class="ldl-scale" style="transform-origin: 50% 50%; transform: rotate(0deg) scale(1, 1);">
                            <g class="ldl-ani" style="transform-origin: 25px 20.5px;">
                                <style type="text/css">
                                    .st0 {
                                        fill: #00E4FC;
                                    }

                                    .st1 {
                                        fill: #56B4FC;
                                    }
                                </style>
                                <g class="ldl-layer">
                                    <g class="ldl-ani" style="transform: scale(0.91); transform-origin: 25px 20.5px; animation: 1.11111s linear -0.833333s infinite normal forwards running breath;">
                                        <path d="M35.4,31.5c0,0.2,0,0.4,0,0.6c1.1,0.5,2.2,0.7,2.9,0.5c1.7-0.5,3-2.3,4.3-4c1-1.4,1.9-2.7,3.1-3.4
	c0-8.5,0-20.2,0-23.9c0,0,0,0,0,0c-0.1-1.2-4.3-1.3-5.1-1.3c-0.8,0-5,0.1-5.1,1.3c0,0,0,0,0,0c0,3.4,0,13.7,0,21.9
	c1.7,0.1,4.4,0.7,4.9,3.7c0.1,1-0.1,1.9-0.7,2.7C38.8,30.7,37.2,31.2,35.4,31.5z M36.3,1.4c0.4-0.2,1.9-0.6,4.3-0.6
	c2.4,0,3.8,0.3,4.3,0.6C44.4,1.7,43,2,40.6,2C38.2,2,36.7,1.7,36.3,1.4z M31.9,23.3c0.4,0,0.8-0.1,1.2-0.1c0-5.7,0-12,0-15.1
	c0,0,0,0,0,0c-0.1-1.2-4.3-1.3-5.1-1.3c-0.8,0-5,0.1-5.1,1.3c0,0,0,0,0,0c0,3,0,8.7,0,14.1c0.2,0.1,0.5,0.1,0.7,0.2
	c1.7,0.4,3.4,0.8,5,1C29.5,23.5,30.7,23.4,31.9,23.3z M23.7,8.2c0.4-0.2,1.9-0.6,4.3-0.6c2.4,0,3.8,0.3,4.3,0.6
	c-0.4,0.2-1.9,0.6-4.3,0.6C25.6,8.7,24.1,8.4,23.7,8.2z M20.5,21.7c0-2.5,0-3.5,0-7.5c0,0,0,0,0,0c-0.1-1.2-4.3-1.3-5.1-1.3
	c-0.8,0-5,0.1-5.1,1.3c0,0,0,0,0,0c0,5,0,5.4,0,9.7c1.9-1.2,4-2.1,6.2-2.4C17.7,21.3,19,21.5,20.5,21.7z M15.3,14.8
	c-2.4,0-3.8-0.3-4.3-0.6c0.4-0.2,1.9-0.6,4.3-0.6c2.4,0,3.8,0.3,4.3,0.6C19.2,14.5,17.7,14.8,15.3,14.8z" class="st0" style="fill: #56B4FC;"></path>
                                    </g>
                                </g>
                                <g class="ldl-layer">
                                    <g class="ldl-ani" style="transform: scale(0.91); transform-origin: 25px 20.5px; animation: 1.11111s linear -1.11111s infinite normal forwards running breath;">
                                        <path d="M0,32.7c4.4-1.9,10-9,16.5-9.9c3.4-0.4,7.7,1.5,11.9,1.9c3.7,0.3,10-1.6,10.6,2.5c0.5,3.6-5.8,3.4-10,3.8
	c3.3,0.7,6.9,3.7,9.6,3c3.5-1,5.3-6.2,7.8-7.7c2.8-1.7,3.8-0.6,3.3,1.5c-1.3,5.3-3.6,10.2-8.1,11.9c-11.8,4.4-24.5-4-33.4,1.2
	L0,32.7z" class="st1" style="fill: rgb(0, 82, 255);"></path>
                                    </g>
                                </g>
                            </g>
                        </g></svg>