<svg xml:space="preserve" style="" viewBox="0 0 42 41" y="0px" x="0px" xmlns="http://www.w3.org/2000/svg" width="45px" height="45px"><g class="ldl-scale" style="transform-origin: 50% 50%; transform: rotate(0deg) scale(1, 1);">
                            <g class="ldl-ani" style="transform-origin: 21px 20.5px;">
                                <style type="text/css">
                                    .st0 {
                                        fill: #0052FF;
                                    }

                                    .st1 {
                                        fill: #00E4FC;
                                    }
                                </style>
                                <g class="ldl-layer">
                                    <g class="ldl-ani" style="transform: scale(0.91); transform-origin: 21px 20.5px; animation: 1.11111s linear -0.694444s infinite normal forwards running breath;">
                                        <path d="M34.8-0.2c-2.4,0-4.3,1.9-4.3,4.3v1.2c0,2.4,1.9,4.3,4.3,4.3c2.4,0,4.3-1.9,4.3-4.3V4.2
	C39.1,1.8,37.2-0.2,34.8-0.2z" class="st0" style="fill: rgb(0, 82, 255);"></path>
                                    </g>
                                </g>
                                <g class="ldl-layer">
                                    <g class="ldl-ani" style="transform: scale(0.91); transform-origin: 21px 20.5px; animation: 1.11111s linear -0.833333s infinite normal forwards running breath;">
                                        <path d="M37.1,11.2h-4.5c-2.7,0-4.9,2.2-4.9,4.9V23c0,2,1.2,3.8,3,4.6L31.5,39c0.1,1.1,1,2,2.2,2h2.2
	c1.1,0,2.1-0.9,2.2-2L39,27.5c1.8-0.8,3-2.6,3-4.6v-6.8C42,13.4,39.8,11.2,37.1,11.2z" class="st0" style="fill: rgb(0, 82, 255);"></path>
                                    </g>
                                </g>
                                <g class="ldl-layer">
                                    <g class="ldl-ani" style="transform: scale(0.91); transform-origin: 21px 20.5px; animation: 1.11111s linear -0.972222s infinite normal forwards running breath;">
                                        <path d="M21.4,21h-5.1c-1.1,0-2,0.7-2,1.6v16.7c0,0.9,0.9,1.6,2,1.6h5.1c1.1,0,2-0.7,2-1.6V22.7
	C23.4,21.8,22.5,21,21.4,21z" class="st1" style="fill:#56B4FC"></path>
                                    </g>
                                </g>
                                <g class="ldl-layer">
                                    <g class="ldl-ani" style="transform: scale(0.91); transform-origin: 21px 20.5px; animation: 1.11111s linear -1.11111s infinite normal forwards running breath;">
                                        <path d="M7.1,31.1H2c-1.1,0-2,0.7-2,1.6v6.6C0,40.3,0.9,41,2,41h5.1c1.1,0,2-0.7,2-1.6v-6.6C9.1,31.8,8.2,31.1,7.1,31.1
	z" class="st1" style="fill: #56B4FC"></path>
                                    </g>
                                </g>
                            </g>
                        </g></svg>