<svg xmlns="http://www.w3.org/2000/svg" x="0px" y="0px"
	 viewBox="0 0 32 33" style="enable-background:new 0 0 32 33;" xml:space="preserve">
<style type="text/css">
	.st0{fill-rule:evenodd;clip-rule:evenodd;fill:#56B4FC;}
	.st1{fill-rule:evenodd;clip-rule:evenodd;fill:#0052FF;}
	.st2{fill:#0052FF;}
</style>
<path class="st0" d="M25.3,16.4c3.5-0.6,6.1-3.8,6-7.4c-0.1-4-3.5-7.2-7.6-7.1c-3.5,0.1-6.4,2.7-7,6C20.8,9.2,24,12.4,25.3,16.4z"/>
<path class="st1" d="M13.1,0.8c0.3-0.3,0.8-0.3,1.1,0l1.5,1.5c0.3,0.3,0.3,0.8,0,1.1l-1.3,1.5c-0.3,0.3-0.8,0.4-1.1,0.1
	s-0.3-0.8,0-1.2l0.1-0.1c-0.8,0.1-1.7,0.4-2.4,0.8C9.6,5.2,8.5,6.2,7.7,7.4C7.5,7.8,7,7.9,6.6,7.6C6.3,7.4,6.2,6.9,6.4,6.5
	C7.3,5.1,8.6,3.9,10.2,3c1-0.5,2.1-0.8,3.1-0.9l-0.2-0.2C12.8,1.6,12.8,1.1,13.1,0.8z"/>
<g>
	<path class="st2" d="M13.9,21.7L10.7,21l-0.8,2.9l3.2,0.8c0.8,0.2,1.6-0.3,1.9-1.1C15.2,22.8,14.7,22,13.9,21.7z"/>
	<path class="st2" d="M14.2,17.4l-0.5-0.1l-1.9-0.5L11,19.7l2.4,0.7c0.9,0.2,1.7-0.3,1.9-1.1C15.5,18.4,15,17.6,14.2,17.4z"/>
	<path class="st2" d="M12.3,9.1c-6.5,0-11.7,5.3-11.7,11.7c0,6.5,5.3,11.7,11.7,11.7c6.5,0,11.7-5.3,11.7-11.7
		C24,14.3,18.8,9.1,12.3,9.1z M16.5,19.5c-0.2,0.7-0.6,1.2-1.1,1.6c0.8,0.7,1.1,1.8,0.8,2.8c-0.4,1.5-2,2.4-3.5,2l-0.6-0.2l-0.2,0.6
		c-0.1,0.4-0.5,0.6-0.8,0.5c-0.4-0.1-0.6-0.5-0.5-0.8l0.2-0.6l-1.2-0.3l-0.2,0.6c-0.1,0.4-0.5,0.6-0.8,0.5c-0.4-0.1-0.6-0.5-0.5-0.8
		l0.2-0.6l-1-0.3c-0.4-0.1-0.6-0.5-0.5-0.8c0.1-0.4,0.5-0.6,0.8-0.5l1,0.3l1.9-7.1l-1-0.3C9.1,16,8.9,15.6,9,15.3
		c0.1-0.4,0.5-0.6,0.8-0.5l1,0.3l0.2-0.6c0.1-0.3,0.5-0.5,0.9-0.4c0.4,0.1,0.6,0.5,0.5,0.8l-0.2,0.6l1.2,0.3l0.2-0.6
		c0.1-0.4,0.5-0.6,0.8-0.5c0.4,0.1,0.6,0.5,0.5,0.8l-0.2,0.6C16.1,16.6,16.9,18.1,16.5,19.5z"/>
</g>
</svg>
