<svg xmlns="http://www.w3.org/2000/svg" x="0px" y="0px"
	 viewBox="0 0 59 59" style="enable-background:new 0 0 59 59;" xml:space="preserve">
<style type="text/css">
	.st0{fill:#56B4FC;}
	.st1{fill:#0052FF;}
</style>
<path class="st0" d="M2.1,9.2v35.9C7,41.3,18.1,32.6,23.2,28.2L2.1,9.2z"/>
<path class="st0" d="M39.2,30.9c2.2-1.3,4.6-2.1,7.3-2.1c4.1,0,7.8,1.8,10.4,4.5V9.2L35.7,28.1L39.2,30.9z"/>
<path class="st1" d="M31.7,29.2L55.4,8H3.6l23.7,21.2C28.5,30.3,30.4,30.3,31.7,29.2z"/>
<path class="st0" d="M37.5,32.1l-3.3-2.6l-1.3,1.2c-0.9,0.9-2.2,1.2-3.4,1.2c-1.2,0-2.5-0.4-3.4-1.2l-1.3-1.2
	C19.5,34,7.8,43,2.9,46.8c0,0,0,0,0.1,0h29.9c-0.4-1.2-0.6-2.5-0.6-3.8C32.3,38.6,34.4,34.6,37.5,32.1z"/>
<g>
	<g>
		<g>
			<path class="st1" d="M46.1,31.5c-6.4,0-11.6,5.2-11.6,11.6s5.2,11.6,11.6,11.6s11.6-5.2,11.6-11.6S52.5,31.5,46.1,31.5z
				 M49.5,47.7c-0.5,0.6-1.2,1-1.9,1.2c-0.3,0.1-0.5,0.3-0.5,0.6s0,0.7,0,1S46.9,51,46.6,51c-0.2,0-0.4,0-0.6,0c-0.2,0-0.3,0-0.5,0
				c-0.3,0-0.5-0.2-0.5-0.5c0-0.2,0-0.5,0-0.8c0-0.6,0-0.6-0.6-0.7c-0.7-0.1-1.4-0.3-2-0.6c-0.5-0.2-0.5-0.4-0.4-0.9
				c0.1-0.4,0.2-0.8,0.3-1.1s0.2-0.4,0.3-0.4s0.2,0,0.3,0.1c0.7,0.4,1.4,0.6,2.2,0.7c0.1,0,0.3,0,0.4,0c0.4,0,0.7-0.1,1-0.2
				c0.9-0.4,1-1.4,0.3-2c-0.2-0.2-0.5-0.3-0.8-0.5c-0.8-0.3-1.5-0.6-2.2-1c-1.1-0.7-1.9-1.6-1.8-3c0.1-1.6,1-2.6,2.4-3.1
				c0.6-0.2,0.6-0.2,0.6-0.8c0-0.2,0-0.4,0-0.6c0-0.5,0.1-0.6,0.6-0.6c0.1,0,0.1,0,0.2,0c0.1,0,0.2,0,0.3,0h0.1c0.9,0,0.9,0,0.9,1
				c0,0.7,0,0.7,0.7,0.8c0.5,0.1,1.1,0.2,1.6,0.5c0.3,0.1,0.4,0.3,0.3,0.6c-0.1,0.4-0.2,0.9-0.4,1.3c-0.1,0.3-0.2,0.4-0.3,0.4
				s-0.2,0-0.3-0.1C48,39.2,47.3,39,46.5,39c-0.1,0-0.2,0-0.3,0c-0.2,0-0.4,0-0.7,0.1c-0.7,0.3-0.9,1.1-0.2,1.7
				c0.3,0.3,0.7,0.4,1.1,0.6c0.7,0.3,1.3,0.5,1.9,0.9C50.3,43.5,50.9,46,49.5,47.7z"/>
		</g>
	</g>
</g>
</svg>
