<svg xmlns="http://www.w3.org/2000/svg" x="0px" y="0px"
	 viewBox="0 0 37 37" style="enable-background:new 0 0 37 37;" xml:space="preserve">
<style type="text/css">
	.st0{fill-rule:evenodd;clip-rule:evenodd;fill:#56B4FC;}
	.st1{fill-rule:evenodd;clip-rule:evenodd;fill:#0052FF;}
	.st2{fill:#0052FF;}
</style>
<path class="st0" d="M5.8,13.8c-0.6,0-1,0.4-1,1v0.8c0,0.6,0.4,1,1,1h0.4l-0.7,11h6.9l-0.7-11.1h0.4c0.6,0,1-0.4,1-1v-0.8
	c0-0.6-0.4-1-1-1H5.8V13.8z"/>
<path class="st1" d="M2.7,7.5C2.3,7.6,2,8,2,8.4v3c0,0.6,0.4,1,1,1h31.2c0.6,0,1-0.4,1-1v-3c0-0.4-0.3-0.8-0.7-1L20.3,3.2
	c-1.1-0.3-2.3-0.3-3.4,0L2.7,7.5z M18.6,10.3c1.1,0,2.1-0.9,2.1-2.1c0-1.1-0.9-2.1-2.1-2.1S16.5,7,16.5,8.2S17.5,10.3,18.6,10.3z"/>
<path class="st0" d="M16.8,27.6c-0.1-0.5-0.1-1-0.1-1.5c0-3.7,1.9-6.9,4.7-8.8v-0.7h0.4c0.6,0,1-0.4,1-1v-0.8c0-0.6-0.4-1-1-1h-6.3
	c-0.6,0-1,0.4-1,1v0.8c0,0.6,0.4,1,1,1h0.4l-0.7,11.1L16.8,27.6L16.8,27.6z"/>
<path class="st2" d="M27.3,17.5c-4.7,0-8.6,3.9-8.6,8.6s3.9,8.6,8.6,8.6s8.6-3.9,8.6-8.6S32,17.5,27.3,17.5z M28,30.3h-0.2v0.4
	c0,0.4-0.3,0.7-0.7,0.7c-0.3-0.1-0.6-0.3-0.6-0.7v-0.4h-1.3c-0.4,0-0.7-0.3-0.7-0.7c0-0.4,0.3-0.7,0.7-0.7H28c0.6,0,1.1-0.5,1.1-1.1
	s-0.5-1.1-1.1-1.1h-1.6c-1.3,0-2.4-1.1-2.4-2.4s1.1-2.4,2.4-2.4h0.2v-0.5c0-0.4,0.3-0.7,0.6-0.7c0.4,0,0.7,0.3,0.7,0.7v0.5h1.3
	c0.4,0,0.7,0.3,0.7,0.7c0,0.4-0.3,0.7-0.7,0.7h-2.8c-0.6,0-1.1,0.5-1.1,1.1c0,0.6,0.5,1.1,1.1,1.1H28c1.3,0,2.4,1.1,2.4,2.4
	C30.4,29.2,29.3,30.3,28,30.3z"/>
<path class="st0" d="M27.3,15.5c1.7,0,3.2,0.4,4.6,1.1h0.2c0.6,0,1-0.4,1-1v-0.8c0-0.6-0.4-1-1-1h-6.3c-0.6,0-1,0.4-1,1v0.8
	c0,0.1,0,0.1,0,0.2C25.7,15.6,26.5,15.5,27.3,15.5z"/>
<path class="st2" d="M16.8,27.6H3.7c-0.5,0-0.9,0.4-1,0.9L2.2,32c-0.1,0.6,0.4,1.1,1,1.1h16.2C18,31.6,17.1,29.7,16.8,27.6z"/>
</svg>
