<svg xmlns="http://www.w3.org/2000/svg" x="0px" y="0px"
	 viewBox="0 0 32 31" xml:space="preserve">
<style type="text/css">
	.st0{fill:#56B4FC;}
	.st1{fill:#0052FF;}
</style>
<path class="st0" d="M29.4,0.6h-8.9c-0.9,0-1.5,0.6-1.5,1.5s0.6,1.5,1.5,1.5h7.5V11c0,0.9,0.6,1.5,1.5,1.5l0,0
	c0.9,0,1.5-0.6,1.5-1.5V2.1C30.9,1.2,30.3,0.6,29.4,0.6z"/>
<path class="st0" d="M2.6,12.5L2.6,12.5c0.9,0,1.5-0.6,1.5-1.5V3.6h7.5C12.4,3.6,13,3,13,2.1s-0.6-1.5-1.5-1.5H2.6
	c-0.9,0-1.5,0.6-1.5,1.5V11C1.1,11.9,1.7,12.5,2.6,12.5z"/>
<path class="st0" d="M11.5,27.4H4.1V20c0-0.9-0.6-1.5-1.5-1.5S1.1,19.1,1.1,20v8.9c0,0.9,0.6,1.5,1.5,1.5h8.9c0.9,0,1.5-0.6,1.5-1.5
	S12.4,27.4,11.5,27.4z"/>
<path class="st0" d="M29.4,18.5c-0.9,0-1.5,0.6-1.5,1.5v7.5h-7.5c-0.9,0-1.5,0.6-1.5,1.5s0.6,1.5,1.5,1.5h8.9c0.9,0,1.5-0.6,1.5-1.5
	V20C30.9,19.1,30.3,18.5,29.4,18.5z"/>
<path class="st1" d="M26.1,12.5V11c0-2.5-1.9-4.5-4.5-4.5s-4.5,1.9-4.5,4.5v1.5h-2.7h-3c-1.6,0-3,1.3-3,3v6c0,1.6,1.3,3,3,3h8.9
	c1.6,0,3-1.3,3-3v-6c0-1.6-1.3-3-3-3h-0.3V11c0-0.9,0.6-1.5,1.5-1.5s1.5,0.6,1.5,1.5v1.5H26.1z"/>
</svg>
