<svg xmlns="http://www.w3.org/2000/svg" x="0px" y="0px"
	 viewBox="0 0 128 128" style="enable-background:new 0 0 128 128;" xml:space="preserve">
<style type="text/css">
	.st0{fill:#0052FF;}
	.st1{fill:#56B4FC;}
</style>
<g id="H1">
</g>
<path class="st0" d="M36.5,46.5l15.1,15.1c3.7,3.7,8.9,5.5,13.7,5.4h40.2c3.2,0,5.9-2.6,5.9-5.9c0-3.3-2.6-5.9-5.9-5.9H80.8
	c-0.5,1.1-1.2,2.2-2.1,3c-1.8,1.8-4.3,2.9-6.9,2.9s-5.1-1-6.9-2.9L47.5,41c-0.8-0.8-0.8-2,0-2.8s2-0.8,2.7,0l17.5,17.5
	c2.3,2.3,6,2.3,8.3,0s2.3-6,0-8.3L54.3,25.6c-3.6-3.6-8.3-5.4-13-5.4H2v23.4h27.6C32.1,43.7,34.6,44.6,36.5,46.5z"/>
<path class="st0" d="M86.7,78.9c-4.7,0-9.4,1.8-13,5.4L52,106c-2.3,2.3-2.3,6,0,8.3s6,2.3,8.3,0l17.5-17.5c0.8-0.7,2-0.7,2.7,0
	c0.8,0.8,0.8,2,0,2.8L63.1,117c-1.8,1.8-4.3,2.9-6.9,2.9s-5.1-1-6.9-2.9c-0.9-0.9-1.6-1.9-2.1-3H22.5c-3.2,0-5.9,2.6-5.9,5.9
	s2.6,5.9,5.9,5.9h40.2c4.8,0.1,10-1.7,13.7-5.4l15.1-15.2c1.9-1.9,4.4-2.9,6.9-2.9H126V78.9H86.7z"/>
<path class="st1" d="M99.2,2C86.7,1.9,76.5,12.1,76.5,24.6c0,12.6,10.2,22.8,22.7,22.8s22.7-10.2,22.7-22.7
	C121.9,12.3,111.7,2,99.2,2z M113.8,21.6l-13.7,6.6c-0.3,0.1-0.6,0.3-0.9,0.3c-0.3,0-0.6-0.1-0.9-0.3c-0.6-0.3-1-0.9-1-1.6V10.2
	c0-1.2,1-1.9,2-1.9c0.5,0,0.9,0.1,1.2,0.5c0.5,0.3,0.6,0.7,0.6,1.4v13.1l11.2-5.1c1.2-0.5,2,0,2.4,0.7
	C115.2,19.8,114.9,21,113.8,21.6z"/>
<path class="st1" d="M27.5,62.5C15,62.5,4.8,72.7,4.8,85.2s10.2,22.7,22.7,22.7s22.7-10.2,22.7-22.7S39.9,62.5,27.5,62.5z
	 M29.3,95.8h-0.5v1.4c0,0.9-0.7,1.9-1.9,1.9c-0.8-0.3-1.5-0.9-1.5-1.9v-1.4h-3.6c-0.9,0-1.9-0.7-1.9-1.9c0-0.9,0.7-1.9,1.9-1.9h7.5
	c1.6,0,2.8-1.2,2.8-2.8s-1.2-2.8-2.8-2.8h-4.3c-3.4,0-6.4-2.9-6.4-6.4c0-3.4,2.9-6.4,6.4-6.4h0.7v-1.4c-0.2-0.9,0.7-1.9,1.6-1.9
	s1.9,0.7,1.9,1.9v1.6h3.4c0.9,0,1.9,0.7,1.9,1.9c0,0.9-0.7,1.9-1.9,1.9h-7.5c-1.6,0-2.8,1.2-2.8,2.8c0,1.6,1.2,2.8,2.8,2.8h4.3
	c3.4,0,6.4,2.9,6.4,6.4C35.7,93.2,32.7,95.8,29.3,95.8z"/>
</svg>
