<svg xmlns="http://www.w3.org/2000/svg" x="0px" y="0px"
	 viewBox="0 0 37 37" style="enable-background:new 0 0 37 37;" xml:space="preserve">
<style type="text/css">
	.st0{fill:#FFFFFF;}
	.st1{fill-rule:evenodd;clip-rule:evenodd;fill:#FFFFFF;}
</style>
<path class="st0" d="M18.5,8.5c-5.5,0-10,4.5-10,10c0,5.5,4.5,10,10,10s10-4.5,10-10C28.5,13,24,8.5,18.5,8.5z M19.3,23.2h-0.2v0.6
	c0,0.4-0.3,0.8-0.8,0.8c-0.4-0.1-0.7-0.4-0.7-0.8v-0.6H16c-0.4,0-0.8-0.3-0.8-0.8c0-0.4,0.3-0.8,0.8-0.8h3.3c0.7,0,1.2-0.5,1.2-1.2
	c0-0.7-0.5-1.2-1.2-1.2h-1.9c-1.5,0-2.8-1.3-2.8-2.8s1.3-2.8,2.8-2.8h0.3V13c-0.1-0.4,0.3-0.8,0.7-0.8c0.4,0,0.8,0.3,0.8,0.8v0.6
	h1.5c0.4,0,0.8,0.3,0.8,0.8c0,0.4-0.3,0.8-0.8,0.8h-3.3c-0.7,0-1.2,0.5-1.2,1.2c0,0.7,0.5,1.2,1.2,1.2h1.9c1.5,0,2.8,1.3,2.8,2.8
	S20.8,23.2,19.3,23.2z"/>
<path class="st1" d="M34.7,15.8c-0.2,0.3-0.5,0.4-0.8,0.5c-0.2,0-0.4,0.1-0.5,0c-0.2,0-0.4-0.1-0.6-0.2L29,14.3
	c-0.8-0.4-1.1-1.3-0.7-2.1c0.4-0.8,1.3-1.1,2.1-0.7l0.5,0.2C28.5,7.4,24,4.4,18.7,4.4c-4.2,0-7.9,1.8-10.5,4.8C8,9.4,8,9.4,8,9.5
	c-0.3,0.4-0.6,0.7-0.9,1.1c-0.8,1.2-1.5,2.5-1.9,3.9c0,0.1-0.1,0.2-0.1,0.3C4,18.7,4.6,23.1,7.2,26.7c0.9,1.2,1.9,2.3,3.1,3.1
	c2.3,1.7,5.1,2.7,8.2,2.7c6.3,0,11.6-4.2,13.3-9.9c0.2-0.8,1.1-1.3,1.9-1c0.8,0.2,1.3,1.1,1,1.9c-1.5,5.2-5.4,9.3-10.5,11.1
	c-0.1,0-0.2,0.1-0.3,0.1c-5.4,1.9-11.5,0.9-16-2.7c-3-2.3-5.1-5.6-6-9.4c0-0.1,0-0.2,0-0.3c-1-4.7-0.1-9.6,2.7-13.5
	c3.1-4.4,8.2-7.3,13.9-7.3c6.7,0,12.4,3.8,15.2,9.4l0.3-0.7c0.4-0.8,1.3-1.1,2.1-0.7s1.1,1.3,0.7,2.1L35,15.4
	C34.9,15.5,34.9,15.7,34.7,15.8z"/>
</svg>
