<svg xml:space="preserve" style="" viewBox="0 0 50 41" y="0px" x="0px" xmlns="http://www.w3.org/2000/svg"  width="45px" height="45px">
<style type="text/css">
	.st0{fill:#56B4FC;}
	.st1{fill:#0052FF;}
</style>
<g>
	<g>
		<polygon class="st0" points="5.6,11.3 9.9,11.3 9.4,13.1 6,13.1 		"/>
	</g>
</g>
<g>
	<g>
		<circle class="st1" cx="22.6" cy="5.3" r="5.3"/>
	</g>
</g>
<g>
	<g>
		<polygon class="st1" points="25.8,13.9 22.8,15.7 19.8,13.9 5.7,13.9 5.7,17.1 16.2,19.1 18.2,45 22.8,45 27.4,45 29.3,19.1 
			39.9,17.1 39.9,13.9 		"/>
	</g>
</g>
<g>
	<g>
		<polygon class="st0" points="35.6,11.3 39.9,11.3 39.4,13.1 36,13.1 		"/>
	</g>
</g>
<path class="st0" d="M7.4,18.1c-4.1,0-7.4,3.3-7.4,7.4S3.3,33,7.4,33c4.1,0,7.4-3.3,7.4-7.4S11.5,18.1,7.4,18.1z M10.3,29.9
	c-0.5,0.5-1.2,0.9-2.2,1.1v1.1H6.8V31c-0.8-0.1-1.4-0.4-2-0.9c-0.6-0.7-0.9-1.5-0.9-2.6V27h2.7v0.7c0,0.7,0,1.2,0.1,1.4
	c0.1,0.2,0.2,0.3,0.4,0.3c0.2,0,0.4-0.1,0.4-0.2c0.2-0.1,0.3-0.4,0.3-0.6c0-0.6-0.1-1.1-0.2-1.3c-0.1-0.2-0.4-0.5-0.9-0.9
	c-0.9-0.5-1.5-0.9-1.8-1.2c-0.4-0.3-0.6-0.6-0.8-1.1c-0.3-0.4-0.4-1-0.4-1.5c0-0.8,0.3-1.5,0.7-2c0.4-0.4,1.2-0.8,2.2-0.9V19h1.3
	v0.9c0.9,0.1,1.5,0.4,2,0.9c0.4,0.4,0.6,1.2,0.6,2c0.1-0.1,0.1,0.1,0.1,0.4H7.8v-0.4c0-0.5,0-0.8-0.1-1c-0.1-0.2-0.2-0.3-0.4-0.3
	c-0.2,0-0.3,0.1-0.4,0.2c-0.1,0.1-0.2,0.4-0.2,0.6c0,0.4,0.1,0.7,0.3,0.9c0.2,0.2,0.7,0.5,1.5,1.1c0.7,0.4,1.2,0.8,1.5,1
	c0.3,0.3,0.5,0.5,0.7,1c0.2,0.4,0.3,1,0.3,1.6C11,28.7,10.7,29.4,10.3,29.9z"/>
<path class="st0" d="M37.6,18.1c-4.1,0-7.4,3.3-7.4,7.4s3.3,7.4,7.4,7.4c4.1,0,7.4-3.3,7.4-7.4S41.7,18.1,37.6,18.1z M40.4,29.9
	c-0.6,0.4-1.3,0.8-2.2,0.9v1.1h-1.3v-1.1c-0.8-0.1-1.4-0.4-2-0.9c-0.5-0.5-0.9-1.3-0.9-2.5v-0.5h2.7v0.7c0,0.7,0,1.2,0.1,1.4
	c0.1,0.2,0.2,0.3,0.4,0.3c0.2,0,0.4-0.1,0.4-0.2c0.1-0.1,0.2-0.4,0.2-0.5c0-0.6-0.1-1.1-0.2-1.3c-0.1-0.3-0.4-0.5-0.9-0.9
	c-0.9-0.5-1.5-0.9-1.8-1.2c-0.4-0.3-0.6-0.6-0.8-1.1c-0.3-0.4-0.4-1-0.4-1.5c0-0.8,0.3-1.5,0.7-2c0.4-0.4,1.2-0.8,2.2-0.9V19h1.5
	v0.9c0.9,0.1,1.5,0.4,2,0.9c0.4,0.4,0.6,1.2,0.6,2c0,0,0,0.2,0,0.4H38v-0.4c0-0.5,0-0.8-0.1-1c-0.1-0.2-0.2-0.3-0.4-0.3
	c-0.2,0-0.3,0.1-0.4,0.2c-0.1,0.1-0.2,0.4-0.2,0.6c0,0.4,0.1,0.7,0.3,0.9c0.2,0.2,0.7,0.5,1.5,1.1c0.7,0.4,1.2,0.8,1.5,1
	c0.3,0.3,0.5,0.5,0.7,1c0.2,0.4,0.3,1,0.3,1.6C41.1,28.7,40.8,29.4,40.4,29.9z"/>
</svg>
