<svg xmlns="http://www.w3.org/2000/svg" x="0px" y="0px"
	 viewBox="0 0 32 33" xml:space="preserve">
<style type="text/css">
	.st0{fill-rule:evenodd;clip-rule:evenodd;fill:#56B4FC;}
	.st1{fill-rule:evenodd;clip-rule:evenodd;fill:#0052FF;}
	.st2{fill:#CCA301;filter:url(#Adobe_OpacityMaskFilter);}
	.st3{mask:url(#mask0_2696_12495_00000144298265440209250430000000323310539071171255_);}
	.st4{fill:#0052FF;}
	.st5{fill:#1E4DD8;}
</style>
<path class="st0" d="M2,19.7l4.1-7.1H5.9C5.4,12.6,5,12,5,11.5s0.4-1,0.9-1h1.4l1.9-3.3H3.8c-1.3,0-2.4,1.1-2.4,2.4v19.2
	c0,1.3,1.1,2.4,2.4,2.4h24.4c1.3,0,2.4-1.1,2.4-2.4V15c0-1.3-1-2.3-2.4-2.4h-0.8L18,28.9c-1.1,1.8-3.4,2.5-5.3,1.4l-9.3-5.4
	C1.5,23.9,0.9,21.5,2,19.7z M24.6,27c-1,0-1.8-0.8-1.8-1.8s0.8-1.8,1.8-1.8s1.8,0.8,1.8,1.8S25.5,27,24.6,27z"/>
<path class="st1" d="M5.5,21.6l9.1,5.2L25.2,8.6l-9.1-5.2L5.5,21.6z M3.4,21.2c-0.3,0.6-0.1,1.3,0.5,1.7l10.4,6
	c0.6,0.3,1.3,0.1,1.7-0.5L27.3,8.9c0.3-0.6,0.1-1.3-0.5-1.7l-10.4-6c-0.6-0.3-1.3-0.1-1.7,0.5L3.4,21.2z"/>
<defs>
	<filter id="Adobe_OpacityMaskFilter" filterUnits="userSpaceOnUse" x="-0.7" y="-2.3" width="31.8" height="35.3">
		<feColorMatrix  type="matrix" values="1 0 0 0 0  0 1 0 0 0  0 0 1 0 0  0 0 0 1 0"/>
	</filter>
</defs>
<mask maskUnits="userSpaceOnUse" x="-0.7" y="-2.3" width="31.8" height="35.3" id="mask0_2696_12495_00000144298265440209250430000000323310539071171255_">
	<path class="st2" d="M3.7,20.7L14.5,2.2C15,1.3,16.1,1,17,1.5l9.3,5.3c0.9,0.5,1.2,1.6,0.7,2.5L16.3,27.9c-0.5,0.9-1.6,1.2-2.5,0.7
		l-9.3-5.3C3.5,22.7,3.2,21.6,3.7,20.7z"/>
</mask>
<g class="st3">
	<path class="st4" d="M18.5,3.7C19.6,1.8,19-0.7,17-1.8c-1.9-1.1-4.4-0.4-5.5,1.5c-1.1,1.9-0.5,4.4,1.4,5.5
		C14.9,6.4,17.3,5.7,18.5,3.7z"/>
	<path class="st4" d="M30.5,10.7c1.1-1.9,0.5-4.4-1.4-5.5c-1.9-1.1-4.4-0.4-5.5,1.5s-0.5,4.4,1.4,5.5C26.9,13.3,29.4,12.6,30.5,10.7
		z"/>
	<path class="st4" d="M5.3,18.5c1.9,1.1,2.5,3.6,1.4,5.5c-1.1,1.9-3.6,2.6-5.5,1.5c-1.9-1.1-2.5-3.6-1.4-5.5
		C1,18.1,3.4,17.4,5.3,18.5z"/>
	<path class="st4" d="M18.8,31c1.1-1.9,0.5-4.4-1.4-5.5c-1.9-1.1-4.4-0.4-5.5,1.5c-1.1,1.9-0.5,4.4,1.4,5.5
		C15.2,33.6,17.7,32.9,18.8,31z"/>
</g>
<ellipse transform="matrix(0.5567 -0.8307 0.8307 0.5567 1.2141 19.663)" class="st4" cx="19" cy="8.7" rx="1.5" ry="1.5"/>
<ellipse transform="matrix(0.5566 -0.8308 0.8308 0.5566 -12.5694 19.2036)" class="st5" cx="11.7" cy="21.4" rx="1.5" ry="1.5"/>
<path class="st0" d="M28.3,12.6c-9,0-18,0-27,0v16.2c0,1.3,1.1,2.4,2.4,2.4h24.4c1.3,0,2.4-1.1,2.4-2.4V15
	C30.7,13.6,29.6,12.6,28.3,12.6z M24.6,27c-1,0-1.8-0.8-1.8-1.8s0.8-1.8,1.8-1.8s1.8,0.8,1.8,1.8S25.5,27,24.6,27z"/>
</svg>
