<svg xmlns="http://www.w3.org/2000/svg" x="0px" y="0px"
	 viewBox="0 0 32 31" style="enable-background:new 0 0 32 31;" xml:space="preserve">
<style type="text/css">
	.st0{fill:#0052FF;}
	.st1{fill:#56B4FC;}
</style>
<path class="st0" d="M13,0.7c-3.6,0-6.5,3-6.5,6.6s2.9,6.6,6.5,6.6s6.5-3,6.5-6.6S16.6,0.7,13,0.7z"/>
<path class="st0" d="M16.9,23.9c0-2.4,1-4.6,2.7-6.1c-1.7-1-3.6-1.6-5.7-1.6h-2c-6.2,0-11.3,5.3-11.3,11.7c0,1.2,1,2.2,2.1,2.2h17
	C18,28.6,16.9,26.4,16.9,23.9z"/>
<path class="st1" d="M25.2,17.6c-3.5,0-6.3,2.8-6.3,6.3c0,3.5,2.8,6.3,6.3,6.3c3.5,0,6.3-2.8,6.3-6.3C31.5,20.4,28.7,17.6,25.2,17.6
	z M23.6,20.8v1h-0.2c-0.2,0-0.2,0-0.3,0.1c0,0.1-0.1,0.2-0.1,0.5V26c0,0.3,0,0.4,0.1,0.5c0,0.1,0.1,0.1,0.3,0.1h0.2v1h-2.5v-1h0.2
	c0.1,0,0.2,0,0.3-0.1c0-0.1,0.1-0.2,0.1-0.5v-3.7c0-0.3,0-0.4-0.1-0.5c0-0.1-0.1-0.1-0.3-0.1h-0.2v-1L23.6,20.8L23.6,20.8z
	 M26.4,20.8v1h-0.2c-0.2,0-0.2,0-0.3,0.1c0,0.1-0.1,0.2-0.1,0.5V26c0,0.3,0,0.4,0.1,0.5c0,0.1,0.1,0.1,0.3,0.1h0.2v1h-2.5v-1h0.2
	c0.1,0,0.2,0,0.3-0.1c0-0.1,0.1-0.2,0.1-0.5v-3.7c0-0.3,0-0.4-0.1-0.5c0-0.1-0.1-0.1-0.3-0.1h-0.2v-1L26.4,20.8L26.4,20.8z
	 M29.2,20.8v1H29c-0.2,0-0.2,0-0.3,0.1c0,0.1-0.1,0.2-0.1,0.5V26c0,0.3,0,0.4,0.1,0.5c0,0.1,0.1,0.1,0.3,0.1h0.2v1h-2.5v-1h0.2
	c0.1,0,0.2,0,0.3-0.1c0-0.1,0.1-0.2,0.1-0.5v-3.7c0-0.3,0-0.4-0.1-0.5c0-0.1-0.1-0.1-0.3-0.1h-0.2v-1L29.2,20.8L29.2,20.8z"/>
</svg>
