<svg xmlns="http://www.w3.org/2000/svg" x="0px" y="0px"
	 viewBox="0 0 477.7 477.7" xml:space="preserve">
<style type="text/css">
	.st0{fill: #0052FF;}
	.st1{fill: #56B4FC}
</style>
	<path class="st0" d="M74.6,379.6c18.3,0,33.3-14.9,33.3-33.3S92.9,313,74.6,313c-18.3,0-33.3,14.9-33.3,33.3S56.2,379.6,74.6,379.6z
	"/>
	<path class="st0" d="M112.9,391.3c-2.4-4.6-7-7.5-13.8-7.5c0,0-35.8,0-47.7,0c-6.2,0-10.1,3.1-12.4,7.5L7.6,451.6
	c-1.7,3.3-2.1,7.1-0.9,10.7c1.1,3.6,3.6,6.5,6.9,8.2c1.7,0.9,3.5,1.4,5.5,1.6c0.3,0,0.7,0,1,0c5.2,0,10-2.9,12.4-7.5l9.1-17.4v23.7
	c0,3.8,3.1,6.9,6.9,6.9h54.4c3.8,0,6.9-3.1,6.9-6.9v-25.3l9.9,19c2.4,4.6,7.2,7.5,12.4,7.5c0.3,0,0.7,0,1,0c1.9-0.1,3.7-0.7,5.4-1.6
	c3.3-1.7,5.8-4.6,6.9-8.2s0.8-7.4-0.9-10.7L112.9,391.3z"/>
	<path class="st0" d="M202.6,346.3c0,18.3,14.9,33.3,33.3,33.3c18.3,0,33.3-14.9,33.3-33.3S254.2,313,235.8,313
	C217.5,313,202.6,327.9,202.6,346.3z"/>
	<path class="st0" d="M274.2,391.3c-2.4-4.6-6.9-7.5-13.8-7.5c0,0-47.7,0-47.7,0c-5.3,0-10.1,3.1-12.4,7.5l-31.4,60.2
	c-1.7,3.3-2.1,7.1-0.9,10.7c1.1,3.6,3.6,6.5,6.9,8.2c1.7,0.9,3.5,1.4,5.5,1.6c0.3,0,0.7,0,1,0c5.2,0,10-2.9,12.4-7.5l9.1-17.4v23.7
	c0,3.8,3.1,6.9,6.9,6.9H264c3.8,0,6.9-3.1,6.9-6.9v-25.3l9.9,19c2.4,4.6,7.2,7.5,12.4,7.5c0.3,0,0.7,0,1,0c1.9-0.1,3.7-0.7,5.5-1.6
	c3.3-1.7,5.8-4.6,6.9-8.2c1.1-3.6,0.8-7.4-0.9-10.7L274.2,391.3z"/>
	<path class="st0" d="M367.1,346.3c0,18.3,14.9,33.3,33.3,33.3c18.3,0,33.3-14.9,33.3-33.3S418.7,313,400.4,313
	C382,313,367.1,327.9,367.1,346.3z"/>
	<path class="st0" d="M470.1,451.6l-31.4-60.2c-2.4-4.6-6.2-7.5-13.8-7.5c0,0-35.8,0-47.7,0c-6.4,0-10.1,3.1-12.4,7.5l-31.4,60.2
	c-1.7,3.3-2.1,7.1-0.9,10.7c1.1,3.6,3.6,6.5,6.9,8.2c1.7,0.9,3.5,1.4,5.5,1.6c0.3,0,0.7,0,1,0c5.2,0,10-2.9,12.4-7.5l9.1-17.4v23.7
	c0,3.8,3.1,6.9,6.9,6.9h54.4c3.8,0,6.9-3.1,6.9-6.9v-25.3l9.9,19c2.4,4.6,7.2,7.5,12.4,7.5c0.3,0,0.7,0,1,0c1.9-0.1,3.7-0.7,5.5-1.6
	c3.3-1.7,5.8-4.6,6.9-8.2C472.2,458.7,471.9,454.9,470.1,451.6z"/>
	<path class="st1" d="M72.7,300.1c4.1,0,7.4-3.3,7.4-7.4v-25.4h149.7v25.4c0,4.1,3.3,7.4,7.4,7.4c4.1,0,7.4-3.3,7.4-7.4v-25.4h149.7
	v25.4c0,4.1,3.3,7.4,7.4,7.4s7.4-3.3,7.4-7.4v-29.5c0-5.9-4.8-10.7-10.7-10.7H244.6v-15.8c0-4.1-3.3-7.4-7.4-7.4
	c-4.1,0-7.4,3.3-7.4,7.4v15.8H76c-5.9,0-10.7,4.8-10.7,10.7v29.5C65.2,296.8,68.6,300.1,72.7,300.1z"/>
	<path class="st0" d="M238.7,228.6c62.9,0,114.3-51.1,114.3-114.3S301.9,0,238.7,0s-114,51.4-114,114.7
	C124.7,177.6,175.8,228.6,238.7,228.6z M232.4,124c-21-7.3-34-17.9-34-36.8c0-17.4,11.5-31,32.6-35.3V33.1h15.8v17.9
	c13.1,0,22.5,2.7,29.5,6.4L269.8,80c-5.2-2.1-13.6-5.7-25.3-5.7c-11.6,0-17.9,5.7-17.9,11.5c0,7.9,7.3,10.9,23.1,17.4
	c21.5,7.9,31.6,18.8,31.6,36.8s-10.9,31.6-34,36.8v17.9h-15.8v-17.4c-13.6,0-27.4-3.6-34-7.3l5.7-23.1c7.3,3.6,18.8,7.9,31,7.9
	c13.1,0,19.5-5.7,19.5-13.6S247.5,129.9,232.4,124z"/>
</svg>
