<svg xml:space="preserve" style="" viewBox="0 0 50 41" y="0px" x="0px" xmlns="http://www.w3.org/2000/svg"  width="45px" height="45px">
<style type="text/css">
	.st0{fill:#0052FF;}
	.st1{fill:#56B4FC;}
</style>
<g>
	<g>
		<g>
			<g>
				<g>
					<path class="st0" d="M43.3,4.7l-0.1-0.4C43,3.3,42.1,2.8,41.3,3L27.8,5.7v3.8l14.3-2.9C42.8,6.4,43.5,5.5,43.3,4.7z"/>
				</g>
			</g>
			<g>
				<g>
					<path class="st0" d="M17.3,7.8L3.1,10.7c-0.9,0.2-1.4,1.1-1.3,1.9V13c0.2,0.9,1.1,1.4,1.9,1.3l13.5-2.7L17.3,7.8L17.3,7.8z"/>
				</g>
			</g>
		</g>
	</g>
</g>
<g>
	<g>
		<path class="st0" d="M22.9,16.8h-0.7c-1.6,0-3-1.3-3-3V3c0-1.6,1.4-3,3-3h0.7c1.6,0,3,1.4,3,3v11C25.8,15.6,24.5,16.8,22.9,16.8z"
			/>
	</g>
</g>
<g>
	<g>
		<rect x="20.4" y="18.5" class="st0" width="4.1" height="17.2"/>
	</g>
</g>
<g>
	<g>
		<path class="st0" d="M27.8,39.9H17.2v-0.3c0-1.4,1.2-2.6,2.6-2.6h5.3c1.4,0,2.6,1.2,2.6,2.6L27.8,39.9L27.8,39.9z"/>
	</g>
</g>
<g>
	<g>
		<path class="st0" d="M29.1,45H15.9c-1,0-1.8-0.8-1.8-1.8v-0.5c0-1,0.8-1.8,1.8-1.8h13.1c1,0,1.8,0.8,1.8,1.8v0.5
			C30.9,44.2,30.1,45,29.1,45z"/>
	</g>
</g>
<g>
	<g>
		<path class="st1" d="M36.7,6c-2.5,0-8.2,8.9-8.2,13.3s3.7,8,8.2,8s8.2-3.6,8.2-8S39.2,6,36.7,6z M31.2,16.1c1.2-3.3,4-7.4,5.5-7.4
			s4.3,4,5.6,7.4H31.2z"/>
	</g>
</g>
<path class="st1" d="M8.2,11.7C5.7,11.7,0,20.8,0,25.1s3.8,8,8.3,8c4.5,0,8.2-3.6,8.2-8S10.7,11.7,8.2,11.7z M11.2,27.7
	c-0.5,0.5-1.3,0.9-2.2,1.1v1.1H7.7v-1.1c-0.8-0.1-1.4-0.4-2.1-0.9c-0.5-0.5-0.9-1.3-0.9-2.6v-0.5h2.9v0.7c0,0.7,0,1.3,0.1,1.4
	c0.1,0.2,0.2,0.3,0.4,0.3c0.2,0,0.4-0.1,0.5-0.2c0.1-0.1,0.2-0.4,0.2-0.5c0-0.6-0.1-1.1-0.2-1.3c-0.1-0.3-0.4-0.5-0.9-0.9
	c-0.9-0.5-1.5-0.9-1.8-1.2C5.5,22.8,5.2,22.4,5,22c-0.3-0.4-0.4-1-0.4-1.5c0-0.8,0.3-1.5,0.7-2c0.4-0.4,1.3-0.8,2.2-0.9v-0.9H9v0.9
	c0.9,0.1,1.5,0.5,2,0.9c0.5,0.5,0.6,1.2,0.6,2c0,0.1,0,0.2,0,0.3H8.7v-0.5c0-0.5,0-0.8-0.1-1C8.5,19.1,8.5,19,8.2,19
	c-0.2,0-0.3,0.1-0.4,0.2c-0.1,0.1-0.2,0.4-0.2,0.6c0,0.5,0.1,0.7,0.3,0.9c0.2,0.2,0.7,0.5,1.5,1.1c0.7,0.5,1.3,0.8,1.5,1
	c0.3,0.3,0.5,0.5,0.7,1c0.2,0.4,0.3,1,0.3,1.6C12,26.4,11.7,27.2,11.2,27.7z"/>
</svg>
