<svg xmlns="http://www.w3.org/2000/svg" x="0px" y="0px"
	 viewBox="0 0 512 512" style="enable-background:new 0 0 512 512;" xml:space="preserve">
<style type="text/css">
	.st0{fill:#56B4FC;}
	.st1{fill:#0052FF;}
</style>
<g>
	<path class="st0" d="M43.5,173.1c-10.7,0.1-19.3,8.7-19.3,19.4V282c0,10.7,8.7,19.4,19.4,19.4h19.1v191.3
		c0,10.7,8.7,19.4,19.4,19.4h125.8c0-2.6,0-335.6,0-338.9H43.5z"/>
	<path class="st0" d="M468.5,173.1H304.1c0,3.4,0,336.3,0,338.9h125.8c10.7,0,19.4-8.7,19.4-19.4V301.4h19.1
		c10.7,0,19.4-8.7,19.4-19.4v-89.5C487.8,181.8,479.1,173.2,468.5,173.1z"/>
</g>
<path class="st1" d="M468.5,173.1c0,0-0.1,0-0.1,0H309.7c32.4-10.6,66.2-32.8,79.3-45.9c29.1-29.1,29.1-76.3,0-105.4
	c-29.1-29.1-76.3-29.1-105.4,0c-8.6,8.6-18.7,23-27.6,38.9c-8.9-15.9-19-30.3-27.6-38.9c-29.1-29.1-76.3-29.1-105.4,0
	C93.9,51,93.9,98.1,123,127.2c13.1,13.1,46.9,35.3,79.3,45.9H43.6c0,0-0.1,0-0.1,0h164.4c0,0,0,0,0,0h44.7h51.5c0,0,0,0,0,0H468.5z
	 M156.6,93.6C146,83.1,146,66,156.6,55.4c10.6-10.6,27.6-10.6,38.2,0c6.3,6.3,17.7,23,26.6,41.7c6.6,13.9,10.5,32.9,10.4,34.2
	C210.5,129.5,169.9,107,156.6,93.6z M279.4,131.5c0.9-10.5,6.6-24.7,11.2-34.3c8.9-18.7,20.4-35.5,26.6-41.7
	c10.6-10.6,27.6-10.6,38.2,0c10.6,10.6,10.6,27.6,0,38.2C341.9,107.2,300.3,130,279.4,131.5z"/>
</svg>
