<svg width="40" height="40" viewBox="0 0 40 40" fill="none" xmlns="http://www.w3.org/2000/svg">
<style type="text/css">
	.st0{fill-rule:evenodd;clip-rule:evenodd;fill:#56B4FC;}
	.st1{fill:#1652F0;}
</style>
<path class="st0" d="M0,6.3c0-1.7,1.3-3,3-3h25.7c1.7,0,3,1.3,3,3v8.8c-0.2,0-0.3,0-0.5,0c-3.7,0-6.7,3-6.7,6.7c0,2,0.9,3.8,2.3,5
	c-3.4,1.3-5.9,4.4-6.4,8.1H3c-1.7,0-3-1.3-3-3V6.3z M31.7,30.2V32c0,1.7-1.3,3-3,3h-4.3c0.7-2.8,3.1-4.8,6-4.8H31.7z M31.7,19.1v5.4
	c-0.2,0-0.3,0-0.5,0c-1.5,0-2.7-1.2-2.7-2.7s1.2-2.7,2.7-2.7C31.3,19.1,31.5,19.1,31.7,19.1z M5.7,18.3c0,0.6,0.4,1,1,1H15
	c0.6,0,1-0.4,1-1V10c0-0.6-0.4-1-1-1H6.7c-0.6,0-1,0.4-1,1V18.3z M7.7,17.3V11H14v6.3H7.7z M21,23.3c0-0.6-0.4-1-1-1H6.7
	c-0.6,0-1,0.4-1,1s0.4,1,1,1H20C20.6,24.3,21,23.9,21,23.3z M16.7,27.3c0.6,0,1,0.4,1,1s-0.4,1-1,1h-10c-0.6,0-1-0.4-1-1s0.4-1,1-1
	H16.7z"/>
<path class="st1" d="M30.4,28.2c-4.5,0-8.2,3.8-8.2,8.4c0,0.9,0.7,1.6,1.5,1.6h14.7c0.9,0,1.5-0.7,1.5-1.6c0-4.6-3.7-8.4-8.2-8.4
	H30.4z"/>
<path class="st1" d="M31.2,17.1c-2.6,0-4.7,2.1-4.7,4.7s2.1,4.7,4.7,4.7c2.6,0,4.7-2.1,4.7-4.7S33.8,17.1,31.2,17.1z"/>
</svg>
