<svg xmlns="http://www.w3.org/2000/svg" x="0px" y="0px"
	 viewBox="0 0 24 24" style="enable-background:new 0 0 24 24;" xml:space="preserve">
<style type="text/css">
	.st0{fill:none;}
	.st1{fill:#57B4FC;}
	.st2{fill:#0050F9;}
</style>
<path class="st0" d="M-1-1H25V25H-1V-1z"/>
<path class="st1" d="M12,2.3L4.4,4v9.9c0,1.4,0.7,2.8,1.9,3.6l5.6,3.8l5.6-3.8c1.2-0.8,1.9-2.2,1.9-3.6V4L12,2.3z M14.8,15.7
	c-0.4,0.5-1,0.9-2,1v1.9h-1.9v-1.9c-0.8-0.1-1.6-0.2-2.4-0.5l0.4-2c0.5,0.1,0.9,0.3,1.3,0.3c0.5,0.1,0.9,0.1,1.3,0.1
	c0.6,0,0.9-0.1,1.1-0.3c0.2-0.2,0.3-0.5,0.3-1c0-0.5-0.1-0.8-0.2-0.9c-0.2-0.2-0.6-0.3-1.3-0.5c-1.2-0.2-1.9-0.6-2.3-1.1
	c-0.3-0.4-0.5-1.2-0.5-2.3c0-1,0.2-1.7,0.6-2.2c0.4-0.5,1.1-0.8,2.2-0.9V3.7h1.9v2c0.7,0.1,1.3,0.1,1.9,0.3L14.9,8
	c-0.8-0.2-1.7-0.3-2.7-0.3c-0.5,0-0.8,0.1-1,0.2C11,8,11,8.3,11,8.8c0,0.5,0.1,0.8,0.2,0.9c0.1,0.1,0.6,0.3,1.4,0.5
	c1.3,0.3,2,0.7,2.4,1.2c0.2,0.2,0.3,0.5,0.3,0.9c0,0.3,0.1,0.7,0.1,1.3C15.3,14.5,15.2,15.3,14.8,15.7z"/>
<path class="st2" d="M20.9,2.1l-8.9-2l-8.9,2C2.6,2.2,2.3,2.6,2.3,3.1v10.8c0,2.2,1.1,4.2,2.9,5.4l6.8,4.6l6.8-4.6
	c1.8-1.2,2.9-3.2,2.9-5.4V3.1C21.7,2.6,21.4,2.2,20.9,2.1z M19.6,13.9c0,1.4-0.7,2.8-1.9,3.6L12,21.3l-5.6-3.8
	c-1.2-0.8-1.9-2.2-1.9-3.6V4L12,2.3L19.6,4V13.9z"/>
</svg>
