<svg xmlns="http://www.w3.org/2000/svg" x="0px" y="0px"
	 viewBox="0 0 768 440" style="enable-background:new 0 0 768 440;" xml:space="preserve">
<style type="text/css">
	.st0{fill:#B8C9C8;}
	.st1{fill:#FFD200;}
	.st2{fill:#FFFFFF;}
	.st3{fill:#F46C3D;}
	.st4{fill:#0062FF;}
	.st5{fill:none;stroke:#000000;stroke-miterlimit:10;}
	.st6{fill:none;stroke:#000000;stroke-miterlimit:10;stroke-dasharray:4,4;}
	.st7{fill:none;stroke:#2BBF7F;stroke-width:10;stroke-miterlimit:10;}
	.st8{fill:#2BBF7F;}
</style>
<rect class="st0" width="768" height="440"/>
<circle class="st1" cx="378.25" cy="135.54" r="61.14"/>
<circle cx="378.25" cy="135.54" r="47.27"/>
<circle class="st1" cx="378.25" cy="142.73" r="47.27"/>
<polygon class="st2" points="389.04,141.45 407.8,135.79 388.02,129.63 398.81,114.47 383.91,124.75 378.25,106.25 372.6,125 
	357.7,114.47 368.24,129.89 348.71,135.79 367.46,141.45 357.45,155.57 372.35,145.56 378.25,165.34 384.16,145.3 398.55,155.57 "/>
<rect x="156.83" y="40.7" class="st3" width="130.13" height="130.13"/>
<path class="st4" d="M258,337.13h247.16v-186.8h-92.87h-118.1l-42.83-5.5v185.65C251.35,334.15,254.33,337.13,258,337.13z"/>
<path d="M505.16,232.34h-16.89c-10.46,0-18.94,8.48-18.94,18.94v0c0,11.57,9.38,20.94,20.94,20.94h8.51h6.39V232.34z"/>
<path class="st2" d="M507.87,216.14v7.26h-19.61c-10.46,0-18.94,8.48-18.94,18.94v0c0,11.57,9.38,20.94,20.94,20.94h8.51h12.29h1.92
	v-0.33c2.32-0.8,3.99-3,3.99-5.59v-1.76v-39.47H507.87z"/>
<path d="M582.67,84.16c0-9.18-7.44-16.62-16.62-16.62s-16.62,7.44-16.62,16.62c0,6.39,3.61,11.93,8.9,14.71l-8.9,25.06h33.24
	l-8.9-25.06C579.06,96.08,582.67,90.54,582.67,84.16z"/>
<rect x="467.43" y="301.07" class="st1" width="147.89" height="98.91"/>
<circle cx="489.04" cy="243.45" r="8.16"/>
<rect x="534.66" y="328.92" class="st5" width="110.23" height="43.22"/>
<rect x="401.44" y="364.45" class="st0" width="21.69" height="10.32"/>
<rect x="231.12" y="364.45" transform="matrix(-1 -1.224647e-16 1.224647e-16 -1 632.5583 739.2313)" class="st1" width="170.31" height="10.32"/>
<path class="st2" d="M202.1,374.78l29.02-10.32c0,0,2.28,0.81,2.28,5.57s-2.28,4.76-2.28,4.76H202.1z"/>
<rect x="231.12" y="374.78" transform="matrix(-1 -1.224647e-16 1.224647e-16 -1 632.5583 759.8785)" width="170.31" height="10.32"/>
<rect x="144.78" y="297.27" class="st2" width="77.6" height="102.67"/>
<polygon points="211.87,371.3 202.1,374.78 211.87,374.78 "/>
<path class="st0" d="M202.1,374.78l29.02,10.32c0,0,2.28-0.81,2.28-5.57c0-4.76-2.28-4.76-2.28-4.76H202.1z"/>
<polygon points="211.87,378.25 202.1,374.78 211.87,374.78 "/>
<rect x="401.44" y="374.78" class="st4" width="21.69" height="10.32"/>
<path class="st3" d="M423.13,374.78h13.02v-8.32c0-1.1-0.9-2-2-2h-11.02V374.78z"/>
<path d="M423.13,374.78h13.02v8.32c0,1.1-0.9,2-2,2h-11.02V374.78z"/>
<rect x="156.83" y="311.79" width="52.68" height="3.03"/>
<rect x="156.83" y="324.14" width="52.68" height="3.03"/>
<rect x="156.83" y="336.49" width="52.68" height="3.03"/>
<rect x="156.83" y="349.08" width="52.68" height="3.03"/>
<rect x="156.83" y="361.42" width="52.68" height="3.03"/>
<rect x="156.83" y="373.26" width="36.04" height="3.03"/>
<polyline class="st5" points="209.51,285.66 132.38,285.66 132.38,388.59 "/>
<polyline class="st5" points="198.89,274.05 121.55,274.05 121.55,376.52 "/>
<rect x="167.69" y="214.23" class="st1" width="18.32" height="18.32"/>
<line class="st5" x1="251.35" y1="223.4" x2="186.02" y2="223.4"/>
<circle class="st6" cx="176.85" cy="223.4" r="28.22"/>
<line class="st5" x1="121.55" y1="80.45" x2="222.38" y2="80.45"/>
<line class="st5" x1="121.55" y1="105.69" x2="222.38" y2="105.69"/>
<line class="st5" x1="121.55" y1="130.92" x2="222.38" y2="130.92"/>
<circle class="st1" cx="178.76" cy="80.45" r="5.53"/>
<circle class="st2" cx="140.15" cy="105.69" r="5.53"/>
<path class="st5" d="M598.58,139.45c-9.19,6.83-20.57,10.88-32.9,10.88c-30.47,0-55.18-24.7-55.18-55.18s24.7-55.18,55.18-55.18
	s55.18,24.7,55.18,55.18"/>
<circle class="st4" cx="198.89" cy="130.92" r="5.53"/>
<circle class="st1" cx="614.6" cy="70.12" r="6.26"/>
<circle class="st4" cx="525.72" cy="134.38" r="6.26"/>
<path class="st6" d="M620.85,95.15c0,18.14-8.76,34.24-22.28,44.3"/>
<path class="st7" d="M512.98,78.74c6.99-22.46,27.94-38.77,52.7-38.77"/>
<rect x="298.81" y="184.03" class="st2" width="29.56" height="13.32"/>
<rect x="341.8" y="184.03" class="st2" width="29.56" height="13.32"/>
<rect x="384" y="184.03" class="st2" width="29.56" height="13.32"/>
<rect x="427.54" y="184.03" class="st2" width="29.56" height="13.32"/>
<rect x="298.81" y="210.07" class="st2" width="29.56" height="13.32"/>
<rect x="341.8" y="210.07" class="st2" width="29.56" height="13.32"/>
<rect x="384" y="210.07" class="st2" width="29.56" height="13.32"/>
<rect x="427.54" y="210.07" class="st2" width="29.56" height="13.32"/>
<rect x="298.81" y="236.79" class="st2" width="29.56" height="13.32"/>
<rect x="341.8" y="236.79" class="st2" width="29.56" height="13.32"/>
<rect x="384" y="236.79" class="st2" width="29.56" height="13.32"/>
<rect x="427.54" y="236.79" class="st2" width="29.56" height="13.32"/>
<rect x="315.18" y="274.05" class="st8" width="125.8" height="28.83"/>
<path d="M510.13,208.88h-4.98v14.51h5.9c3.27,0,5.91-2.65,5.91-5.91v-1.76C516.97,211.95,513.91,208.88,510.13,208.88z"/>
<g>
	<path d="M317.11,135.54c0-0.39,0.02-0.77,0.03-1.16h-57.75c-4.44,0-8.04,3.6-8.04,8.04c0,4.37,3.54,7.91,7.91,7.91h59.66
		C317.75,145.59,317.11,140.64,317.11,135.54z"/>
	<path d="M439.36,134.38c0.01,0.39,0.03,0.77,0.03,1.16c0,5.1-0.63,10.05-1.81,14.79h54.16v-15.95H439.36z"/>
</g>
<line class="st5" x1="565.68" y1="301.07" x2="565.68" y2="150.32"/>
</svg>
