<svg xmlns="http://www.w3.org/2000/svg" x="0px" y="0px"
	 viewBox="0 0 768 440" style="enable-background:new 0 0 768 440;" xml:space="preserve">
<style type="text/css">
	.st0{fill:#BBC8C8;}
	.st1{fill:#FFD200;}
	.st2{fill:#FFFFFF;}
	.st3{fill:#2265F6;}
	.st4{fill:#0A0B0D;}
	.st5{fill:none;stroke:#000000;stroke-miterlimit:10;}
	.st6{fill:#F46C3D;}
	.st7{fill:#00D17F;}
	.st8{fill:#070709;}
	.st9{fill:none;stroke:#070709;stroke-miterlimit:10;}
	.st10{fill:none;stroke:#6691FF;stroke-width:10;stroke-miterlimit:10;}
	.st11{fill:none;stroke:#00D17F;stroke-width:10;stroke-miterlimit:10;}
	.st12{fill:none;stroke:#000000;stroke-miterlimit:10;stroke-dasharray:4,4;}
	.st13{fill:none;stroke:#0A0B0D;stroke-miterlimit:10;}
	.st14{fill:#6691FF;}
	.st15{fill:#FF7800;}
	.st16{fill:#02D180;}
</style>
<rect class="st0" width="768" height="440"/>
<circle class="st1" cx="161.37" cy="69.81" r="30.76"/>
<circle cx="161.37" cy="69.81" r="23.78"/>
<circle class="st1" cx="161.37" cy="73.42" r="23.78"/>
<polygon class="st2" points="166.8,72.78 176.23,69.93 166.28,66.83 171.71,59.21 164.21,64.38 161.37,55.07 158.53,64.51 
	151.03,59.21 156.33,66.96 146.51,69.93 155.94,72.78 150.9,79.89 158.4,74.85 161.37,84.8 164.34,74.72 171.58,79.89 "/>
<circle class="st1" cx="130.61" cy="145.87" r="30.76"/>
<circle cx="130.61" cy="145.87" r="23.78"/>
<circle class="st1" cx="130.61" cy="149.49" r="23.78"/>
<polygon class="st2" points="136.04,148.84 145.47,146 135.52,142.9 140.95,135.27 133.45,140.44 130.61,131.14 127.77,140.57 
	120.27,135.27 125.57,143.03 115.75,146 125.18,148.84 120.14,155.95 127.64,150.91 130.61,160.86 133.58,150.78 140.82,155.95 "/>
<circle class="st1" cx="115.75" cy="225.29" r="30.76"/>
<circle cx="115.75" cy="225.29" r="23.78"/>
<circle class="st1" cx="115.75" cy="228.91" r="23.78"/>
<polygon class="st2" points="121.18,228.26 130.61,225.42 120.66,222.32 126.09,214.69 118.59,219.86 115.75,210.56 112.91,219.99 
	105.41,214.69 110.71,222.45 100.89,225.42 110.32,228.26 105.28,235.37 112.78,230.33 115.75,240.28 118.72,230.2 125.96,235.37 
	"/>
<circle class="st1" cx="650.52" cy="228.91" r="30.76"/>
<circle cx="650.52" cy="228.91" r="23.78"/>
<circle class="st1" cx="650.52" cy="232.53" r="23.78"/>
<polygon class="st2" points="655.95,231.88 665.38,229.04 655.43,225.94 660.86,218.31 653.36,223.48 650.52,214.18 647.67,223.61 
	640.18,218.31 645.48,226.07 635.66,229.04 645.09,231.88 640.05,238.99 647.55,233.95 650.52,243.9 653.49,233.82 660.73,238.99 
	"/>
<circle class="st1" cx="643.54" cy="311.86" r="30.76"/>
<circle cx="643.54" cy="311.86" r="23.78"/>
<circle class="st1" cx="643.54" cy="315.48" r="23.78"/>
<polygon class="st2" points="648.97,314.84 658.4,311.99 648.45,308.89 653.88,301.27 646.38,306.43 643.54,297.13 640.7,306.56 
	633.2,301.27 638.5,309.02 628.68,311.99 638.11,314.84 633.07,321.94 640.57,316.9 643.54,326.85 646.51,316.77 653.75,321.94 "/>
<circle class="st1" cx="604.9" cy="384.23" r="30.76"/>
<circle cx="604.9" cy="384.23" r="23.78"/>
<circle class="st1" cx="604.9" cy="387.85" r="23.78"/>
<polygon class="st2" points="610.33,387.2 619.76,384.36 609.81,381.26 615.24,373.63 607.74,378.8 604.9,369.5 602.05,378.93 
	594.56,373.63 599.86,381.39 590.04,384.36 599.47,387.2 594.43,394.31 601.92,389.27 604.9,399.22 607.87,389.14 615.11,394.31 "/>
<rect x="298.56" y="136.36" class="st2" width="249.09" height="233.14"/>
<path class="st3" d="M325.11,311.14h-96.28c-8.94,0-16.23-7.22-16.23-16.23V85.36c0-8.94,7.22-16.23,16.23-16.23h96.28
	c8.94,0,16.23,7.22,16.23,16.23v209.62C341.34,303.92,334.04,311.14,325.11,311.14z"/>
<path class="st4" d="M324.51,302.28h-95.09c-4.91,0-8.86-3.95-8.86-8.86V86.85c0-4.91,3.95-8.86,8.86-8.86h95.09
	c4.91,0,8.86,3.95,8.86,8.86v206.57C333.37,298.33,329.35,302.28,324.51,302.28z"/>
<path class="st3" d="M297.7,80.15h-39.54c-3.13,0-5.81,2.53-5.81,5.81l0,0c0,3.13,2.53,5.81,5.81,5.81h39.54
	c3.13,0,5.81-2.53,5.81-5.81l0,0C303.44,82.75,300.9,80.15,297.7,80.15z"/>
<rect x="257.48" y="127.94" class="st2" width="10.69" height="16.84"/>
<rect x="274.41" y="127.94" class="st2" width="10.69" height="16.84"/>
<rect x="292.25" y="127.94" class="st2" width="10.69" height="16.84"/>
<path class="st5" d="M567.86,419.81c-48.46,45.31-113.56,73.04-185.14,73.04c-59.43,0-114.39-19.12-159.08-51.54
	c-53.68-38.95-92.52-97.1-106.44-164.36"/>
<rect x="309.89" y="127.94" class="st2" width="10.69" height="16.84"/>
<circle class="st6" cx="309.57" cy="178.13" r="11.01"/>
<circle class="st6" cx="309.57" cy="209.05" r="11.01"/>
<circle class="st6" cx="309.57" cy="240.28" r="11.01"/>
<circle class="st6" cx="309.57" cy="271.52" r="11.01"/>
<circle class="st0" cx="278.18" cy="178.13" r="11.01"/>
<circle class="st3" cx="278.18" cy="209.05" r="11.01"/>
<circle class="st3" cx="278.18" cy="240.28" r="11.01"/>
<circle class="st0" cx="246.48" cy="178.13" r="11.01"/>
<circle class="st3" cx="246.48" cy="209.05" r="11.01"/>
<circle class="st3" cx="246.48" cy="240.28" r="11.01"/>
<path class="st3" d="M278.1,283.76h-31.54c-6.1,0-11.09-4.99-11.09-11.09v0c0-6.1,4.99-11.09,11.09-11.09h31.54
	c6.1,0,11.09,4.99,11.09,11.09v0C289.19,278.77,284.2,283.76,278.1,283.76z"/>
<rect x="341.34" y="109.96" class="st4" width="206.31" height="26.4"/>
<rect x="358.35" y="236.19" class="st3" width="172.45" height="115.2"/>
<rect x="377.78" y="315.48" class="st6" width="18.38" height="35.91"/>
<rect x="415.95" y="285.66" class="st7" width="18.73" height="65.73"/>
<rect x="453.76" y="309.3" class="st6" width="18.38" height="42.09"/>
<rect x="491.92" y="276.95" class="st7" width="18.73" height="74.44"/>
<circle class="st8" cx="386.97" cy="305.45" r="3.85"/>
<circle class="st8" cx="425.31" cy="276.95" r="3.85"/>
<circle class="st8" cx="463.3" cy="299.83" r="3.85"/>
<circle class="st8" cx="501.29" cy="266.61" r="3.85"/>
<polyline class="st9" points="386.97,305.45 425.31,276.95 463.3,299.83 501.29,266.61 "/>
<path class="st0" d="M404.29,186.72V220c-18.26,0-33.28-15.02-33.28-33.28s15.02-33.28,33.28-33.28V186.72z"/>
<path class="st3" d="M404.29,186.72h33.28c0,8.82-3.51,17.29-9.75,23.53S413.11,220,404.29,220V186.72z"/>
<path class="st4" d="M404.29,186.72l23.53-23.53c3.09,3.09,5.54,6.76,7.21,10.8c1.67,4.04,2.53,8.37,2.53,12.74H404.29z"/>
<path class="st6" d="M404.29,186.72v-33.28c4.37,0,8.7,0.86,12.74,2.53c4.04,1.67,7.71,4.12,10.8,7.21L404.29,186.72z"/>
<path class="st4" d="M483.79,186.72v-33.28c18.26,0,33.28,15.02,33.28,33.28S502.05,220,483.79,220V186.72z"/>
<path class="st7" d="M483.79,186.72h-33.28c0-8.82,3.51-17.29,9.75-23.53c6.24-6.24,14.71-9.75,23.53-9.75V186.72z"/>
<path class="st0" d="M483.79,186.72l-23.53,23.53c-3.09-3.09-5.54-6.76-7.21-10.8c-1.67-4.04-2.53-8.37-2.53-12.74H483.79z"/>
<path class="st3" d="M483.79,186.72V220c-4.37,0-8.7-0.86-12.74-2.53c-4.04-1.67-7.71-4.12-10.8-7.21L483.79,186.72z"/>
<path class="st5" d="M190.98,29.96c49.07-49.07,116.86-79.42,191.74-79.42c136.33,0,249.17,100.61,268.3,231.64"/>
<path class="st10" d="M211.23,431.75c-28.04-22.92-51.4-51.33-68.44-83.6"/>
<path class="st11" d="M555.2,12.46c27.7,22.86,50.78,51.11,67.64,83.15"/>
<path class="st12" d="M382.72-114.31c185.57,0,336.01,150.44,336.01,336.01"/>
<path class="st12" d="M382.72,557.71c-185.57,0-336.01-150.44-336.01-336.01"/>
<circle class="st12" cx="382.72" cy="221.7" r="396.62"/>
<path class="st13" d="M718.73,221.7c0,185.57-150.44,336.01-336.01,336.01"/>
<path class="st13" d="M46.71,221.7c0-185.57,150.44-336.01,336.01-336.01"/>
<circle class="st14" cx="84.7" cy="66.36" r="3.44"/>
<circle class="st14" cx="690.83" cy="357.27" r="3.44"/>
<rect x="654.9" y="25.93" transform="matrix(0.866 -0.5 0.5 0.866 73.0616 333.8904)" class="st1" width="9.35" height="9.35"/>
<rect x="76.52" y="363.46" transform="matrix(0.866 -0.5 0.5 0.866 -173.1914 89.9171)" class="st15" width="9.35" height="9.35"/>
<polygon class="st16" points="10.55,358.89 10.55,348.15 1.25,353.52 "/>
<polygon class="st16" points="752.37,77.24 749.67,87.64 760.03,84.78 "/>
</svg>
