<svg xmlns="http://www.w3.org/2000/svg" x="0px" y="0px"
	 viewBox="0 0 32 32" style="enable-background:new 0 0 32 32;" xml:space="preserve">
<style type="text/css">
	.st0{fill-rule:evenodd;clip-rule:evenodd;fill:#FF060A;}
	.st1{fill:#FFFFFF;}
</style>
<path class="st0" d="M16,32c8.84,0,16-7.16,16-16c0-8.84-7.16-16-16-16C7.16,0,0,7.16,0,16C0,24.84,7.16,32,16,32z"/>
<g id="tron">
	<path class="st1" d="M25.99,13.41c-0.9-0.83-2.14-2.09-3.15-2.99l-0.06-0.04c-0.1-0.08-0.21-0.14-0.33-0.19l0,0
		C20.02,9.74,8.69,7.62,8.47,7.65C8.4,7.66,8.34,7.68,8.29,7.72L8.24,7.76C8.17,7.83,8.11,7.92,8.08,8.01L8.07,8.05v0.21V8.3
		c1.28,3.55,6.31,15.19,7.31,17.92c0.06,0.19,0.17,0.54,0.39,0.56h0.05c0.11,0,0.6-0.64,0.6-0.64s8.65-10.49,9.53-11.61
		c0.11-0.14,0.21-0.29,0.3-0.44C26.28,13.83,26.19,13.58,25.99,13.41z M18.62,14.64l3.69-3.06l2.17,2L18.62,14.64z M17.19,14.43
		l-6.36-5.21l10.29,1.9L17.19,14.43z M17.76,15.8l6.51-1.05l-7.44,8.96L17.76,15.8z M9.97,9.74l6.69,5.68l-0.97,8.3L9.97,9.74z"/>
</g>
</svg>
