<svg xmlns="http://www.w3.org/2000/svg" x="0px" y="0px"
	 viewBox="0 0 368.6 210.7" style="enable-background:new 0 0 368.6 210.7;" xml:space="preserve">
<style type="text/css">
	.st0{fill:#B8C9C8;}
	.st1{fill:#FEE0D0;}
	.st2{fill:#DE8557;}
	.st3{fill:#FFD200;}
	.st4{fill:#FFFFFF;}
	.st5{fill:#F4CF4F;}
	.st6{fill:#0052FF;}
	.st7{fill:#F46C3D;}
	.st8{fill:#0062FF;}
	.st9{fill:#2BBF7F;}
	.st10{fill:none;stroke:#000000;stroke-width:0.5;stroke-miterlimit:10;}
	.st11{fill:#0062FF;stroke:#000000;stroke-width:0.5;stroke-miterlimit:10;}
</style>
<rect class="st0" width="368.6" height="210.7"/>
<path class="st1" d="M120.4,191.3l57.8-2.6c0,0,5.2,4.7,11.9,4.7s40.9,1,40.9,1s11.7-0.3,23.1,9.1l8.5,7.2h61.1l-54.1-41.9
	c0,0-20.5-15.5-22.3-16.1c-1.8-0.5-17.1-8-37.6-10.1c0,0-11.7-3.9-14.2-6s-11.9-4.1-13.7-3.6c-1.8,0.5-11.7,6.5-3.4,15
	c4.1,4.3,12,5.8,17.9,7.8c6.4,2.1,11.9,4.7,11.9,4.7s-2.3,7.3-9.6,5.7c-7.5-4.2-28.2-14.5-28.2-14.5s-6.5-1.8-9.1-1
	c-2.6,0.8-8.8,1.3-5.2,5.2s15.5,8.5,15.5,8.5l-32.1-9.3c0,0-5.4-2.6-10.4,1c0,0-4.9,3.1-0.5,5.4c4.4,2.3,16.5,6.7,16.5,6.7l-23-1.6
	c0,0-10.1-1.8-13,7.5c0,0-2.3,2.8,8,3.6l11.4,2.3C128.7,180.2,115.5,184.1,120.4,191.3z"/>
<g>
	<g>
		<path class="st2" d="M289.3,210.7c-9.2-6.8-28.7-21.2-35.5-25.9c-9.1-6.2-20.2-5.4-20.2-5.4s-35.7,0-41.2,0c-5.4,0-14.5,0-14.5,0
			l-58.6,8.9c0,0.9,0.3,2,1.1,3l57.8-2.6c0,0,5.2,4.7,11.9,4.7s40.9,1,40.9,1s11.7-0.3,23.1,9.1l8.5,7.2H289.3z"/>
		<path class="st2" d="M196.3,155.8c6.4,2.1,11.9,4.7,11.9,4.7s-1.5,4.8-6,5.7l19.4,0.2c4.9-1.3,0-6.5,0-6.5l-8.3-3.6
			c0,0-27.5-12.6-37.9-17.1c-0.8,2.4-0.4,5.4,2.9,8.8C182.5,152.3,190.4,153.9,196.3,155.8z"/>
	</g>
</g>
<path d="M198.6,166.2c-7.5-4.2-28.2-14.5-28.2-14.5s-6.5-1.8-9.1-1s-8.8,1.3-5.2,5.2c3.6,3.9,15.5,8.5,15.5,8.5l-32.1-9.3
	c0,0-5.4-2.6-10.4,1c0,0-4.9,3.1-0.5,5.4c4.4,2.3,16.5,6.7,16.5,6.7l-23-1.6c0,0-10.1-1.8-13,7.5c0,0-2.3,2.8,8,3.6l10.9,2.2
	c17.7-3.6,47-9.7,47-9.7c5.1-3.9,9.2-4.1,9.2-4.1H198.6z"/>
<circle class="st3" cx="184.3" cy="74.2" r="32.5"/>
<circle cx="184.3" cy="74.2" r="25.1"/>
<circle class="st3" cx="184.3" cy="78" r="25.1"/>
<path class="st4" d="M197.8,79.6c-0.6-1-1.4-1.8-2.3-2.3c-0.7-0.4-1.7-0.7-2.9-1.1c1.2-0.4,2.1-0.9,2.9-1.5c0.7-0.6,1.3-1.3,1.7-2.1
	s0.6-1.7,0.6-2.5c0-1.2-0.4-2.4-1.1-3.4c-0.7-1-1.8-1.8-3.1-2.4c-0.5-0.2-1.1-0.4-1.8-0.5V59h-4.6v4.5h-2.9V59h-4.8v4.5h-7v3.7h1.1
	c0.7,0,1.2,0.1,1.4,0.2c0.3,0.1,0.4,0.3,0.6,0.5c0.1,0.2,0.1,0.7,0.1,1.5v15.2c0,0.8,0,1.3-0.1,1.5s-0.3,0.4-0.6,0.5
	s-0.7,0.2-1.4,0.2h-1.1v3.7h7V95h4.6v-4.4h2.6c0.1,0,0.2,0,0.3,0v4.5h4.6v-4.8c0.8-0.1,1.4-0.3,2-0.6c1.6-0.6,2.8-1.6,3.7-2.8
	c0.8-1.2,1.3-2.5,1.3-4C198.7,81.7,198.4,80.6,197.8,79.6z M182.4,67.8h3c1.7,0,2.9,0.1,3.6,0.3s1.2,0.6,1.5,1.1
	c0.4,0.5,0.5,1.1,0.5,1.8s-0.2,1.3-0.6,1.8c-0.4,0.5-0.9,0.9-1.7,1.2c-0.7,0.3-1.9,0.4-3.5,0.4h-3v-6.6H182.4z M190.8,84.6
	c-0.5,0.7-1.2,1.1-1.9,1.3c-0.8,0.2-1.7,0.3-2.9,0.3h-2c-0.7,0-1.1,0-1.2-0.1c-0.1-0.1-0.3-0.2-0.3-0.4c0-0.1-0.1-0.6-0.1-1.5v-5.9
	h3.5c1.5,0,2.7,0.1,3.5,0.4c0.8,0.3,1.3,0.7,1.7,1.3s0.6,1.2,0.6,2C191.6,83.1,191.4,83.9,190.8,84.6z"/>
<rect x="97" y="20.6" class="st5" width="34.9" height="34.7"/>
<rect x="105.8" y="34.8" class="st6" width="16.6" height="13.1"/>
<path d="M115.5,40c0-0.7-0.6-1.3-1.3-1.3c-0.7,0-1.3,0.6-1.3,1.3c0,0.6,0.4,1.1,0.9,1.3l0,0l-0.3,2.9h1.6l-0.4-2.9
	C115.2,41,115.5,40.5,115.5,40z"/>
<path class="st4" d="M119.3,34.8h-0.8v-3c-0.1-0.4-1.2-3.2-4.3-3.2c0,0-0.1,0-0.1,0c-3.2,0-4.1,3-4.2,3.5v2.7h-0.8l0-2.8
	c0,0,1-4.1,5-4.1c0,0,0.1,0,0.1,0c3.9,0,5.1,3.8,5.1,3.8l0,0.1V34.8z"/>
<rect x="96.7" y="93.3" class="st7" width="34.9" height="34.7"/>
<rect x="102.9" y="114" class="st4" width="6.1" height="7.9"/>
<rect x="111.1" y="105.4" width="6.1" height="16.6"/>
<rect x="120.6" y="99.4" class="st4" width="6.1" height="22.6"/>
<rect x="237.1" y="93.3" width="34.9" height="34.7"/>
<rect x="243.3" y="99.4" class="st8" width="8.3" height="8.3"/>
<rect x="257.3" y="99.4" class="st3" width="8.3" height="8.3"/>
<rect x="243.3" y="113.6" class="st7" width="8.3" height="8.3"/>
<rect x="257.3" y="113.6" class="st9" width="8.3" height="8.3"/>
<rect x="236.7" y="20.6" class="st8" width="34.9" height="34.7"/>
<polygon class="st10" points="265,44.2 265,31.6 254.2,25.4 243.3,31.6 243.3,44.2 254.2,50.4 "/>
<polygon class="st10" points="254.2,50.4 265,31.6 243.3,31.6 "/>
<polygon class="st10" points="254.2,25.4 243.3,44.2 265,44.2 "/>
<circle class="st4" cx="254.2" cy="25.4" r="2"/>
<circle class="st4" cx="265" cy="44.2" r="2"/>
<circle class="st3" cx="254.2" cy="50.4" r="2"/>
<circle class="st3" cx="265" cy="31.6" r="2"/>
<circle class="st7" cx="243.3" cy="44.2" r="2"/>
<circle class="st9" cx="243.3" cy="31.6" r="2"/>
<path class="st11" d="M202.5,44.2c0,0,9.6-3.7,31.7-9.3"/>
<path class="st11" d="M218.9,76.5c0,0,8.7-5.6,26.3-20"/>
<path class="st11" d="M217.8,71.7c0,0,8.7,5.5,26.5,19.9"/>
<path class="st11" d="M201.7,104.1c0,0,9.6,3.6,31.8,9.1"/>
<path class="st11" d="M165.1,44.2c0,0-9.6-3.7-31.7-9.3"/>
<path class="st11" d="M148.8,76.5c0,0-8.7-5.6-26.3-20"/>
<path class="st11" d="M149.8,71.7c0,0-8.7,5.5-26.5,19.9"/>
<path class="st11" d="M165.9,104.1c0,0-9.6,3.6-31.8,9.1"/>
<circle class="st3" cx="158" cy="41.7" r="1.7"/>
<circle class="st3" cx="136.6" cy="81.6" r="1.7"/>
<circle class="st7" cx="130.1" cy="62.4" r="1.7"/>
<circle class="st9" cx="160.9" cy="105.9" r="1.7"/>
<circle class="st8" cx="225" cy="36.9" r="1.7"/>
<circle class="st9" cx="228.4" cy="69.4" r="1.7"/>
<circle class="st7" cx="232.7" cy="82.2" r="1.7"/>
<circle class="st8" cx="211.6" cy="107.6" r="1.7"/>
</svg>
