<svg xmlns="http://www.w3.org/2000/svg"  x="0px" y="0px"
	 viewBox="0 0 601.8 237.5" style="enable-background:new 0 0 601.8 237.5;" xml:space="preserve">
<style type="text/css">
	.st0{opacity:0.17;}
	.st1{fill:none;stroke:#9FA0A0;}
	.st2{fill:#EC0077;}
	.st3{fill:#595757;}
	.st4{font-family:'ArialMT';}
	.st5{font-size:12px;}
	.st6{fill:none;stroke:#595757;stroke-miterlimit:10;}
</style>
<g class="st0">
	<g>
		<line class="st1" x1="-1.1" y1="106" x2="578" y2="106"/>
	</g>
</g>
<g>
	<rect x="0.9" y="176" class="st2" width="21" height="38"/>
	<rect x="24.9" y="158.4" class="st2" width="21" height="55.6"/>
	<rect x="48.9" y="156.4" class="st2" width="21" height="57.6"/>
	<rect x="72.9" y="161.6" class="st2" width="21" height="52.4"/>
	<rect x="96.9" y="161.8" class="st2" width="21" height="52.2"/>
	<rect x="120.9" y="148.6" class="st2" width="21" height="65.4"/>
	<rect x="145.9" y="147.9" class="st2" width="21" height="66.1"/>
	<rect x="169.9" y="122.9" class="st2" width="21" height="91.1"/>
	<rect x="193.9" y="81.3" class="st2" width="21" height="132.7"/>
	<rect x="217.9" y="90.9" class="st2" width="21" height="123.1"/>
	<rect x="241.9" y="80" class="st2" width="21" height="134"/>
	<rect x="265.9" y="78.8" class="st2" width="21" height="135.2"/>
	<rect x="290.9" y="50.9" class="st2" width="21" height="163.1"/>
	<rect x="314.9" y="47.4" class="st2" width="21" height="166.6"/>
	<rect x="338.9" y="35.9" class="st2" width="21" height="178.1"/>
	<rect x="362.9" y="28.6" class="st2" width="21" height="185.4"/>
	<rect x="386.9" y="67.7" class="st2" width="21" height="146.3"/>
	<rect x="411.9" y="50.5" class="st2" width="21" height="163.5"/>
	<rect x="435.9" y="72.3" class="st2" width="21" height="141.7"/>
	<rect x="459.9" y="56.7" class="st2" width="21" height="157.3"/>
	<rect x="483.9" y="44.3" class="st2" width="21" height="169.7"/>
	<rect x="507.9" y="63.1" class="st2" width="21" height="150.9"/>
	<rect x="531.9" y="21" class="st2" width="21" height="193"/>
	<rect x="556.9" class="st2" width="21" height="214"/>
</g>
<g transform="translate(584.125,0)">
	<text transform="matrix(1 0 0 1 -2.1227 219)" class="st3 st4 st5">0</text>
	<text transform="matrix(1 0 0 1 -2.1227 111.0344)" class="st3 st4 st5">$5B</text>
</g>
<g>
	<g>
		<line class="st6" x1="578" y1="214" x2="-1.1" y2="214"/>
	</g>
</g>
<g transform="translate(0,219)">
	<text transform="matrix(1 0 0 1 86.8773 13)" class="st3 st4 st5">Dec ’20</text>
	<text transform="matrix(1 0 0 1 193.8773 13)" class="st3 st4 st5">Jan ’21</text>
	<text transform="matrix(1 0 0 1 300.8773 13)" class="st3 st4 st5">Feb ’21</text>
	<text transform="matrix(1 0 0 1 396.8773 13)" class="st3 st4 st5">Mar ’21</text>
	<text transform="matrix(1 0 0 1 503.8773 13)" class="st3 st4 st5">Apr ’21</text>
	<g>
		<g transform="translate(12,0)">
		</g>
		<g transform="translate(36,0)">
		</g>
		<g transform="translate(60,0)">
		</g>
		<g transform="translate(84,0)">
		</g>
		<g transform="translate(108,0)">
		</g>
		<g transform="translate(132,0)">
		</g>
		<g transform="translate(157,0)">
		</g>
		<g transform="translate(181,0)">
		</g>
		<g transform="translate(205,0)">
		</g>
		<g transform="translate(229,0)">
		</g>
		<g transform="translate(253,0)">
		</g>
		<g transform="translate(277,0)">
		</g>
		<g transform="translate(302,0)">
		</g>
		<g transform="translate(326,0)">
		</g>
		<g transform="translate(350,0)">
		</g>
		<g transform="translate(374,0)">
		</g>
		<g transform="translate(398,0)">
		</g>
		<g transform="translate(423,0)">
		</g>
		<g transform="translate(447,0)">
		</g>
		<g transform="translate(471,0)">
		</g>
		<g transform="translate(495,0)">
		</g>
		<g transform="translate(519,0)">
		</g>
		<g transform="translate(543,0)">
		</g>
		<g transform="translate(568,0)">
		</g>
	</g>
</g>
<g>
</g>
<g>
</g>
</svg>
