<svg width="40" height="40" fill="none" xmlns="http://www.w3.org/2000/svg"><path fill-rule="evenodd" clip-rule="evenodd" d="M3.477 7.285a3.808 3.808 0 0 1 3.808-3.808h6.725a1.523 1.523 0 1 1 0 3.046H7.285a.762.762 0 0 0-.762.762v6.763a1.523 1.523 0 0 1-3.046 0V7.285ZM24.502 5c0-.841.682-1.523 1.523-1.523h6.69a3.808 3.808 0 0 1 3.808 3.808v6.763a1.523 1.523 0 0 1-3.046 0V7.285a.762.762 0 0 0-.762-.762h-6.69A1.523 1.523 0 0 1 24.502 5ZM5 24.505c.841 0 1.523.682 1.523 1.524v6.686c0 .42.341.762.762.762h6.725a1.523 1.523 0 1 1 0 3.046H7.285a3.808 3.808 0 0 1-3.808-3.808v-6.687c0-.84.682-1.523 1.523-1.523Zm30 0c.841 0 1.523.682 1.523 1.524v6.686a3.808 3.808 0 0 1-3.808 3.808h-6.69a1.523 1.523 0 0 1 0-3.046h6.69c.42 0 .762-.341.762-.762v-6.687c0-.84.682-1.523 1.523-1.523Z" fill="#56B4FC"/><path d="M19.122 20.389c-4.638 0-8.409 3.77-8.409 8.408a1.6 1.6 0 0 0 1.604 1.604h15.126a1.6 1.6 0 0 0 1.604-1.604c0-4.638-3.771-8.408-8.409-8.408h-1.516ZM19.902 9.598a4.754 4.754 0 0 0-4.767 4.767c0 2.644 2.124 4.811 4.767 4.811 2.644 0 4.768-2.124 4.768-4.81 0-2.601-2.124-4.768-4.768-4.768Z" fill="#1652F0"/></svg>