<svg xmlns="http://www.w3.org/2000/svg" x="0px" y="0px"
	 viewBox="0 0 768 439" style="enable-background:new 0 0 768 439;" xml:space="preserve">
<style type="text/css">
	.st0{fill:#0052FF;}
	.st1{fill:#B8C9C8;}
	.st2{fill:#FFFFFF;}
	.st3{fill:none;stroke:#000000;stroke-width:1.5;stroke-miterlimit:10;}
	.st4{fill:#F4CF4F;}
	.st5{fill:#29C175;}
	.st6{opacity:0.69;fill:#0A202D;}
	.st7{fill:#F46C3D;}
	.st8{fill:none;stroke:#FFFFFF;stroke-width:3;stroke-miterlimit:10;}
	.st9{fill:#FFD200;}
</style>
<rect x="0" class="st0" width="768" height="439"/>
<path d="M450.3,385.6H318.2c-12.3,0-22.3-10-22.3-22.3V75.7c0-12.3,10-22.3,22.3-22.3h132.1c12.3,0,22.3,10,22.3,22.3v287.7
	C472.6,375.7,462.6,385.6,450.3,385.6z"/>
<path class="st1" d="M449.5,373.5H319c-6.7,0-12.2-5.4-12.2-12.2V77.7c0-6.7,5.4-12.2,12.2-12.2h130.5c6.7,0,12.2,5.4,12.2,12.2
	v283.6C461.7,368,456.2,373.5,449.5,373.5z"/>
<path d="M412.7,68.6h-54.3c-4.3,0-7.9,3.5-7.9,7.9l0,0c0,4.3,3.5,7.9,7.9,7.9h54.3c4.3,0,7.9-3.5,7.9-7.9l0,0
	C420.7,72.1,417.2,68.6,412.7,68.6z"/>
<rect x="331.4" y="92.4" class="st2" width="110.9" height="77.5"/>
<rect x="331.4" y="191" class="st2" width="110.9" height="77.5"/>
<rect x="331.4" y="285.7" class="st2" width="110.9" height="77.5"/>
<g>
	<g>
		<line class="st3" x1="509.9" y1="122.4" x2="385.6" y2="122.4"/>
		<g>
			<polygon points="390.6,116.2 391.6,117.3 386.2,122.4 391.6,127.4 390.6,128.5 384,122.4 			"/>
		</g>
	</g>
</g>
<g>
	<g>
		<line class="st3" x1="258.1" y1="218.9" x2="382.4" y2="218.9"/>
		<g>
			<polygon points="377.4,225.1 376.4,224 381.8,218.9 376.4,213.9 377.4,212.8 384,218.9 			"/>
		</g>
	</g>
</g>
<circle class="st4" cx="279.6" cy="218.9" r="6"/>
<circle class="st5" cx="418.1" cy="122.4" r="6"/>
<circle class="st6" cx="384" cy="219.5" r="101.3"/>
<polygon class="st2" points="423.4,218.9 360.8,182.8 360.8,255.1 "/>
<g>
	<g>
		<line class="st3" x1="509.9" y1="315.5" x2="385.6" y2="315.5"/>
		<g>
			<polygon points="390.6,309.3 391.6,310.4 386.2,315.5 391.6,320.5 390.6,321.6 384,315.5 			"/>
		</g>
	</g>
</g>
<circle class="st7" cx="439.7" cy="315.5" r="6"/>
<rect x="509.9" y="68.6" class="st1" width="151.3" height="106.1"/>
<circle class="st7" cx="585.9" cy="122.7" r="36"/>
<polygon class="st2" points="608.5,118.2 590.1,118.2 590.1,99.8 581.5,99.8 581.5,118.2 563.1,118.2 563.1,126.8 581.5,126.8 
	581.5,145.2 590.1,145.2 590.1,126.8 608.5,126.8 "/>
<rect x="509.9" y="261.4" class="st4" width="151.3" height="106.1"/>
<rect x="555.2" y="304.7" class="st0" width="60.5" height="47.6"/>
<path d="M590.5,323.4c0-2.7-2.2-4.9-4.9-4.9c-2.7,0-4.9,2.2-4.9,4.9c0,2.2,1.4,4,3.4,4.7l0,0l-1.1,10.5h5.9l-1.4-10.6
	C589.2,327.2,590.5,325.5,590.5,323.4z"/>
<path class="st8" d="M568.6,304.7v-9.9c0,0,3.3-13.7,16.9-13.9s17.4,12.8,17.4,12.8v11"/>
<rect x="106.4" y="164.8" class="st5" width="151.3" height="106.1"/>
<circle class="st9" cx="182.1" cy="219.1" r="36.3"/>
<circle cx="182.1" cy="219.1" r="28"/>
<circle class="st9" cx="182.1" cy="223.3" r="28"/>
<path class="st2" d="M194.3,223c-0.6-1-1.4-1.8-2.3-2.3c-0.7-0.4-1.7-0.7-2.9-1.1c1.2-0.4,2.1-0.9,2.9-1.5c0.7-0.6,1.3-1.3,1.7-2.1
	c0.4-0.8,0.6-1.7,0.6-2.5c0-1.2-0.4-2.4-1.1-3.4c-0.7-1-1.8-1.8-3.1-2.4c-0.5-0.2-1.1-0.4-1.8-0.5v-4.8h-4.6v4.5h-2.9v-4.5H176v4.5
	h-7v3.7h1.1c0.7,0,1.2,0.1,1.4,0.2c0.3,0.1,0.4,0.3,0.6,0.5c0.1,0.2,0.1,0.7,0.1,1.5V228c0,0.8,0,1.3-0.1,1.5
	c-0.1,0.2-0.3,0.4-0.6,0.5c-0.3,0.1-0.7,0.2-1.4,0.2H169v3.7h7v4.5h4.6V234h2.6c0.1,0,0.2,0,0.3,0v4.5h4.6v-4.8
	c0.8-0.1,1.4-0.3,2-0.6c1.6-0.6,2.8-1.6,3.7-2.8c0.8-1.2,1.3-2.5,1.3-4C195.2,225.1,194.9,224,194.3,223z M178.9,211.2h3
	c1.7,0,2.9,0.1,3.6,0.3s1.2,0.6,1.5,1.1c0.4,0.5,0.5,1.1,0.5,1.8c0,0.7-0.2,1.3-0.6,1.8c-0.4,0.5-0.9,0.9-1.7,1.2
	c-0.7,0.3-1.9,0.4-3.5,0.4h-3V211.2z M187.3,228c-0.5,0.7-1.2,1.1-1.9,1.3c-0.8,0.2-1.7,0.3-2.9,0.3h-2c-0.7,0-1.1,0-1.2-0.1
	c-0.1-0.1-0.3-0.2-0.3-0.4c0-0.1-0.1-0.6-0.1-1.5v-5.9h3.5c1.5,0,2.7,0.1,3.5,0.4c0.8,0.3,1.3,0.7,1.7,1.3c0.4,0.6,0.6,1.2,0.6,2
	C188.1,226.5,187.9,227.3,187.3,228z"/>
</svg>
