<?xml version="1.0" encoding="utf-8"?>
<!-- Generator: Adobe Illustrator 27.0.0, SVG Export Plug-In . SVG Version: 6.00 Build 0)  -->
<svg version="1.1" id="图层_1" xmlns="http://www.w3.org/2000/svg" xmlns:xlink="http://www.w3.org/1999/xlink" x="0px" y="0px"
	 viewBox="0 0 566.9 566.9" style="enable-background:new 0 0 566.9 566.9;" xml:space="preserve">
<style type="text/css">
	.st0{fill-rule:evenodd;clip-rule:evenodd;fill:url(#SVGID_1_);}
	.st1{fill-rule:evenodd;clip-rule:evenodd;fill:url(#SVGID_00000088824669005675063500000007869715910739260064_);}
</style>
<g>
	
		<linearGradient id="SVGID_1_" gradientUnits="userSpaceOnUse" x1="497.8614" y1="205.3363" x2="45.9005" y2="521.803" gradientTransform="matrix(1 0 0 -1 0 566.9291)">
		<stop  offset="0" style="stop-color:#006840"/>
		<stop  offset="0.4" style="stop-color:#007A48"/>
		<stop  offset="1" style="stop-color:#86C440"/>
	</linearGradient>
	<path class="st0" d="M204.2,14.9C164.4,23,149.8,41,151.2,67c2,36.5,42.1,106,61.3,137.1c33.5,54.2,73.1,103.1,117.2,148.1
		c35.7,35.3,58.1,42.9,96.2-9.2c32.6-42.9,62.6-85.6,88.5-138.8c11.3-23.4,21.8-48.9,31.1-77.5c10-33.4,6.4-63-26.3-84.8
		c31.6,15.3,45.3,43.7,47.3,74.9c1.9,30.2-7.1,63.1-14,87.3c-17.2,60.3-39.1,121.1-67,175.7c-21,41.2-47.8,90.9-74.5,127.6
		c-59.1,81.4-115.9,55.1-182.4,0c-42.1-34.9-82.7-79.1-117.5-127.3c-35.1-48.7-73.9-120.8-96.8-176.2c-31.4-75.9-7-114.7,31.8-139.4
		C88.8,37.4,152.6,22,204.2,14.9z"/>
	
		<linearGradient id="SVGID_00000062895890895375871900000010156652400204124837_" gradientUnits="userSpaceOnUse" x1="214.3709" y1="554.7642" x2="481.8206" y2="367.4945" gradientTransform="matrix(1 0 0 -1 0 566.9291)">
		<stop  offset="0" style="stop-color:#006840"/>
		<stop  offset="0.3" style="stop-color:#007A48"/>
		<stop  offset="1" style="stop-color:#86C440"/>
	</linearGradient>
	<path style="fill-rule:evenodd;clip-rule:evenodd;fill:url(#SVGID_00000062895890895375871900000010156652400204124837_);" d="
		M202.9,188c61.6-9.2,221.6-19.2,277.7,9.9c18.8,9.7,19.3,22.9,17.5,37.8c5.6-10.1,11.1-20.6,16.4-31.6
		c11.3-23.4,21.8-48.9,31.1-77.5c10-33.4,6.4-63-26.3-84.8l-0.2-0.1c-12.2-6.4-26.2-11-38.7-14.6c-37-10.7-78.1-15.1-119.3-18.1
		c-17-1.3-34.9-1.1-52.9-1.1c-32.6,0.1-68.4,2.1-104,6.9C164.4,23,149.8,41,151.2,67C152.9,98.1,182.4,153.2,202.9,188z"/>
</g>
</svg>
