<svg xmlns="http://www.w3.org/2000/svg" viewBox="0 0 382.41 95.69"><path d="M430.52 533.64V526h-5.28v-8.16h-9.63V526h-4.82v7.63h4.82v14.07a11.39 11.39 0 0 0 11.64 11.08l3.27-.1v-8.52h-.63a4.66 4.66 0 0 1-4.66-4.67v-11.85ZM399.76 538.81a7.76 7.76 0 0 0-15.28 0Zm9.23 6.57h-24.68a7.79 7.79 0 0 0 7.8 7.19 8 8 0 0 0 6.89-4.07h9.17a17.92 17.92 0 0 1-6.09 8.09 16.3 16.3 0 0 1-9.8 3.16 16.5 16.5 0 0 1-12.18-5.07 17.65 17.65 0 0 1-.12-24.46 16.86 16.86 0 0 1 24.47 0 17.31 17.31 0 0 1 4.84 12.58 20.42 20.42 0 0 1-.26 2.58M361.76 534.67a8.65 8.65 0 0 1 8.67-8.68h1v32.79h-9.59ZM434.42 534.67a8.65 8.65 0 0 1 8.67-8.68h1v32.79h-9.59ZM469.45 558.77V539a5.23 5.23 0 0 0-5.25-5.27 5.3 5.3 0 0 0-5.49 5.43v19.66h-9.79v-32.76h9.13v3.48h.13a11.74 11.74 0 0 1 21 7.15v22.09ZM545.57 548.31a7.8 7.8 0 0 1-11.26 0 8.14 8.14 0 0 1-2.25-5.8 8.53 8.53 0 0 1 2.17-6 7.21 7.21 0 0 1 5.63-2.47 7.55 7.55 0 0 1 5.68 2.36 8.3 8.3 0 0 1 2.25 6 8.41 8.41 0 0 1-2.22 5.94m2.34-22.34v3.48h-.11a8.7 8.7 0 0 0-4.09-3.52 13.06 13.06 0 0 0-5.34-1.09 15.12 15.12 0 0 0-11.75 5.15 17.79 17.79 0 0 0-4.45 12.31 18.07 18.07 0 0 0 4.37 12.39 15.09 15.09 0 0 0 11.83 5.09 13.24 13.24 0 0 0 5.37-1.06 7.94 7.94 0 0 0 4.06-3.6h.11v3.54h9.65V526ZM653.78 491.19h22.4v19.73a73.41 73.41 0 0 1 23.38 7.75 38.21 38.21 0 1 0-69.18 0 73.43 73.43 0 0 1 23.39-7.73Z" transform="translate(-320.79 -464.15)" style="fill:#005691"/><path d="M665 540.53a38.21 38.21 0 0 0 32-17.26 68.61 68.61 0 0 0-63.94 0 38.18 38.18 0 0 0 32 17.28" transform="translate(-320.79 -464.15)" style="fill:#d30240"/><path d="M583 558.77V539a5.23 5.23 0 0 0-5.25-5.27 5.3 5.3 0 0 0-5.49 5.43v19.66h-9.79v-32.76h9.13v3.48h.14a11.73 11.73 0 0 1 21 7.15v22.09ZM342.38 558.76a8 8 0 0 0 7.46-5.43c4.07-10.51 16.47-41.95 16.47-41.95h-9.92l-11.8 30.07-11.8-30.07h-12l18.61 47.38ZM504.18 550h-9.06v-11.25H504a5.63 5.63 0 1 1 .18 11.26m-9-29.84h7.12a5 5 0 0 1 5.17 4.92 5.07 5.07 0 0 1-5.17 4.91h-7.12Zm16.56 13.17c6.31-3.44 5.93-9.3 5.28-12.54-.81-4-5.1-9.44-14.8-9.38h-18.08v47.35h18.4c11.89 0 17.31-6.9 17.16-14.36-.08-3.33-1-8.9-8-11.07M616.54 540.56 630.39 526h-12.27l-10.51 11.66v-17.73a8.65 8.65 0 0 0-8.67-8.69h-1.36v47.45h10V544l9.9 14.72h12.88Z" transform="translate(-320.79 -464.15)" style="fill:#005691"/></svg>