<svg xmlns="http://www.w3.org/2000/svg" x="0px" y="0px"
	 viewBox="0 0 87.3 87.3" style="enable-background:new 0 0 87.3 87.3;" xml:space="preserve">
<style type="text/css">
	.st0{fill:url(#SVGID_1_);}
</style>
<linearGradient id="SVGID_1_" gradientUnits="userSpaceOnUse" x1="0.1737" y1="43.6589" x2="87.3964" y2="43.6589">
	<stop  offset="0" style="stop-color:#00C698"/>
	<stop  offset="0.3605" style="stop-color:#0BCFC3"/>
	<stop  offset="0.6608" style="stop-color:#00CFD8"/>
	<stop  offset="1" style="stop-color:#0AA0C3"/>
</linearGradient>
<path class="st0" d="M85.5,37l-5.2-14.2h0.6v-3.3h-2.9l-14.8-13V3.9h-3.3v0.9L45.4,1.9V0.2H42v1.7L27.8,4.7V3.9h-3.3v2.6l-15,13.1
	v-0.1H6.1v3.3h1L2,37H0.2v3.3h1.5l2.5,18.2h-1v3.3h2.4l9.7,12.8H15V78h3.3v-0.8L42,85.5v1.6h3.3v-1.8l23.7-8V78h3.3v-3.2l9.6-12.4
	h2.3v-3.3h-1l2.3-18.7h1.7V37H85.5z M84.4,37h-0.3v2.5l-9.8,3.6c-0.2-0.4-0.5-0.7-0.9-0.9l5.8-19.3h0.1L84.4,37z M62.7,70.6
	c0.1-0.3,0.2-0.6,0.2-1c0-0.8-0.3-1.5-0.9-1.9l8.1-11.6c0.1,0,0.1,0,0.2,0.1l-0.1,18.5h-0.4L62.7,70.6z M44.7,83.8h-0.4l0-6.4
	c0.7-0.2,1.2-0.8,1.4-1.5l12.5-4.9c0.2,0.3,0.4,0.5,0.6,0.7L44.7,83.8z M29.4,70.6c0.1-0.1,0.2-0.2,0.3-0.3l12.1,5
	c0,0.1,0,0.2,0,0.3c0,0.9,0.6,1.6,1.4,1.9l0,0l0,6.3h-0.5L29.4,70.6z M3.5,38.4l9.2-1.2c0.2,1,1,1.7,1.9,2l1.3,14
	c-0.1,0.1-0.3,0.1-0.4,0.2L3.5,39.8V38.4z M26.4,17.8c0.3,1.2,1.3,2,2.6,2c0.1,0,0.1,0,0.2,0l1.1,2.6h-0.8v0.7h-5v-0.7h-3.3v1.1
	L9.4,21.9v-0.8L26.4,17.8z M28.9,15.6c0.9,0,1.6,0.7,1.6,1.6s-0.7,1.6-1.6,1.6s-1.6-0.7-1.6-1.6S28,15.6,28.9,15.6z M43.2,13.7
	l0,9.7h0c-0.3,0.1-0.6,0.3-0.8,0.5l-10.8-7c0-0.1,0-0.2,0-0.3l10.8-3.5C42.5,13.4,42.8,13.6,43.2,13.7z M44.6,11.9
	c0,0.5-0.4,0.9-0.9,0.9s-0.9-0.4-0.9-0.9s0.4-0.9,0.9-0.9S44.6,11.4,44.6,11.9z M59.9,7.3l-1.7,7.3c-0.8,0-1.5,0.4-1.9,1L45.6,12
	c0-0.1,0-0.1,0-0.2c0-0.2,0-0.5-0.1-0.7L59.9,7.3z M60.5,18.5l17,2.7v1.7h0.2L71,30.5c-0.1,0-0.2,0-0.3,0c-0.3,0-0.7,0.1-0.9,0.3
	l-4.1-5h0.6v-3.3h-2.6l-3.4-3.5C60.4,18.7,60.4,18.6,60.5,18.5z M60.3,67c-0.1,0-0.2,0-0.3,0l-3.1-21.6H57l12,8
	c-0.1,0.3-0.2,0.5-0.2,0.8c0,0.5,0.2,0.9,0.4,1.2l-8.1,11.7C60.9,67.1,60.6,67,60.3,67z M45.5,74.9c-0.2-0.6-0.7-1-1.3-1.2l0-8.9
	h0.6l13,4.1c0,0.2-0.1,0.4-0.1,0.6c0,0.2,0,0.3,0,0.5L45.5,74.9z M43.7,76.5c-0.5,0-0.9-0.4-0.9-0.9s0.4-0.9,0.9-0.9
	s0.9,0.4,0.9,0.9S44.2,76.5,43.7,76.5z M42.2,74.4l-12.1-5c0-0.1,0.1-0.3,0.1-0.4l12.4-4.1h0.6l0,8.8C42.8,73.9,42.5,74.1,42.2,74.4
	z M18.3,56c0.2-0.3,0.4-0.7,0.4-1.1c0-0.2,0-0.4-0.1-0.6l11.2-8.6l-2.1,20.4c-0.1,0-0.1,0-0.2,0c-0.5,0-0.9,0.1-1.3,0.4L18.3,56z
	 M16.9,52.9l-1.3-13.8c0.7-0.1,1.2-0.4,1.6-0.9L29.1,44l0.1-0.1V45l-11.1,8.4C17.8,53.1,17.4,53,16.9,52.9z M15.3,34.9
	c0.9,0,1.6,0.7,1.6,1.6s-0.7,1.6-1.6,1.6s-1.6-0.7-1.6-1.6S14.4,34.9,15.3,34.9z M29.4,25.1v0.7h1.8l2.3,6.1h0v2.8h1L42,54.7v0.7
	h3.3v-0.9l8-19.9h1v-2.8h0.1l2.4-6.1h1.5v-0.7h4.5v0.5L56,42.1h-1.7v3.3h0.3L49,59.2c0,0-1.1,2.2-3.6,2.9v-0.4H42v0.5
	c-2.6-0.6-3.8-2.7-3.9-2.8l-5.7-14V42h-1.3l-6.7-16.6v-0.3H29.4z M30.4,23.4h1.3v1.3h-1.3V23.4z M44.6,25.3c0,0.5-0.4,0.9-0.9,0.9
	s-0.9-0.4-0.9-0.9s0.4-0.9,0.9-0.9S44.6,24.8,44.6,25.3z M57.3,19.7l-0.4,2.7h-1.8v2.8H55l-2.4,6.1h-0.8l-6.2-5.5
	c0-0.2,0.1-0.3,0.1-0.5c0-0.2,0-0.4-0.1-0.6l10.3-6.4C56.1,18.9,56.7,19.4,57.3,19.7z M62.9,23.1h-4.4v-0.7h-0.5l0.4-2.6
	c0.4,0,0.8-0.1,1.2-0.3L62.9,23.1z M71.6,32.4c0,0.5-0.4,0.9-0.9,0.9s-0.9-0.4-0.9-0.9s0.4-0.9,0.9-0.9S71.6,31.9,71.6,32.4z
	 M69.4,43.9l-11.7-0.5l0.3-0.7l11.5-8.7c0.2,0.2,0.4,0.3,0.7,0.4l0.5,7.9C70,42.5,69.6,43.1,69.4,43.9z M56.6,43.1v1.3h-1.3v-1.3
	H56.6z M68.9,33.1l-10.1,7.7l6-14.5l4.2,5.1c-0.2,0.3-0.3,0.6-0.3,1C68.7,32.6,68.8,32.9,68.9,33.1z M65.2,24.7h-1.3v-1.3h1.3V24.7z
	 M56.1,24.7v-1.3h1.3v1.3H56.1z M43,53.1h1.3v1.3H43V53.1z M44.2,52.1l0-24.9h0c0.3-0.1,0.6-0.2,0.8-0.5l6,5.4v2.6h0.2L44.2,52.1z
	 M52,33.6v-1.3h1.3v1.3H52z M42.5,26.8c0.2,0.2,0.4,0.3,0.7,0.4c0,0,0,0,0,0l0,25l-6.6-17.5h0.2V32L42.5,26.8z M35.8,33.6h-1.3v-1.3
	h1.3V33.6z M44.4,62.6v1.3H43v-1.3H44.4z M31.4,44.3h-1.3V43h1.3V44.3z M23.4,24.7h-1.3v-1.3h1.3V24.7z M29.1,42.4v0.5l-11.3-5.5
	c0.1-0.3,0.1-0.5,0.1-0.8c0-0.8-0.4-1.6-1-2.1l5.5-8.8L29.1,42.4z M30.8,46.5l5.5,13.6c0.1,0.1,1.8,3.3,5.6,4l0,0L30.2,68
	c-0.2-0.7-0.7-1.4-1.4-1.7L30.8,46.5z M58.2,68.1l-12.7-4l0.1,0c3.7-0.8,5.3-3.9,5.3-4.1l5.3-12.7L59,67.4
	C58.7,67.6,58.4,67.8,58.2,68.1z M70.8,55.2c-0.5,0-0.9-0.4-0.9-0.9s0.4-0.9,0.9-0.9s0.9,0.4,0.9,0.9S71.3,55.2,70.8,55.2z
	 M70.3,52.4c-0.2,0.1-0.4,0.1-0.6,0.3l-12-8v-0.3l11.8,0.5c0.2,0.9,0.8,1.6,1.6,1.9L70.3,52.4z M72,46c-0.9,0-1.6-0.7-1.6-1.6
	s0.7-1.6,1.6-1.6s1.6,0.7,1.6,1.6S72.9,46,72,46z M72,41.8c-0.1,0-0.2,0-0.3,0l-0.5-7.6c0.8-0.2,1.4-1,1.4-1.8
	c0-0.6-0.3-1.1-0.7-1.4l5.7-6.6l-5.2,17.4C72.3,41.8,72.1,41.8,72,41.8z M58.2,18.8c-0.9,0-1.6-0.7-1.6-1.6s0.7-1.6,1.6-1.6
	s1.6,0.7,1.6,1.6S59.1,18.8,58.2,18.8z M45.3,13l10.5,3.5c-0.1,0.2-0.1,0.5-0.1,0.7c0,0,0,0,0,0l-10.7,6.6c-0.2-0.2-0.5-0.3-0.8-0.4
	c0,0,0,0,0,0l0-9.7l0,0C44.6,13.6,45,13.3,45.3,13z M31.4,18l10.4,6.8c0,0.2-0.1,0.3-0.1,0.5c0,0.2,0,0.5,0.1,0.7l-5.8,5.3h-0.7
	l-2.2-5.8l-0.5-1.2v-1.9h-1.5l-1.2-2.8C30.7,19.3,31.2,18.7,31.4,18z M8.9,22.8l12.2,1.7v1.2h0.1L16,34.1c-0.2-0.1-0.5-0.1-0.7-0.1
	c-0.3,0-0.7,0.1-1,0.2L8.9,22.8L8.9,22.8z M16.8,53.9c0.5,0,0.9,0.4,0.9,0.9s-0.4,0.9-0.9,0.9s-0.9-0.4-0.9-0.9S16.3,53.9,16.8,53.9
	z M17.5,74.7L17,56.7c0.2,0,0.4-0.1,0.5-0.1l8.1,10.5c-0.4,0.4-0.6,1-0.6,1.6c0,0.3,0.1,0.5,0.1,0.8L17.5,74.7z M27.6,67.1
	c0.9,0,1.6,0.7,1.6,1.6s-0.7,1.6-1.6,1.6S26,69.6,26,68.7S26.7,67.1,27.6,67.1z M58.7,69.7c0-0.9,0.7-1.6,1.6-1.6s1.6,0.7,1.6,1.6
	s-0.7,1.6-1.6,1.6S58.7,70.6,58.7,69.7z M71.3,56.1c0.4-0.1,0.7-0.3,1-0.7l8.8,4.4V62l-9.8,12.6h-0.1L71.3,56.1z M71.3,52.5L72,47
	c0,0,0,0,0,0c1.4,0,2.6-1.2,2.6-2.6c0-0.1,0-0.2,0-0.3l8.3-3L72.2,53C71.9,52.7,71.7,52.6,71.3,52.5z M78.5,20.5h1.3v1.3h-1.3V20.5z
	 M77.1,20.1l-16.3-2.6c0-0.1,0-0.2,0-0.3c0-1.1-0.7-2.1-1.7-2.5l1.8-7.6h1.4L77.1,20.1z M60.8,4.9h1.3v1.3h-1.3V4.9z M45.4,3
	l14.4,2.8v0.5l-14.9,4c-0.2-0.1-0.4-0.2-0.7-0.3l0,0l0-6.5h1.2V3z M43,1.2h1.3v1.3H43V1.2z M43.2,3.5l0,6.5c0,0,0,0,0,0
	c-0.3,0.1-0.6,0.3-0.9,0.5L28.1,5.7L42,2.9v0.6H43.2z M27.8,7.2V6.6l14.1,4.9c0,0.1,0,0.3,0,0.4c0,0.1,0,0.2,0,0.3l-10.8,3.5
	c-0.5-0.7-1.3-1.1-2.1-1.1c-0.1,0-0.3,0-0.4,0L27,7.2H27.8z M25.4,4.9h1.3v1.3h-1.3V4.9z M26,7.2l1.6,7.8c-0.6,0.4-1.1,1-1.2,1.8
	l-15.7,3.1L25.1,7.2H26z M7.1,21.8v-1.3h1.3v1.3H7.1z M8,23.3l5.4,11.4c-0.4,0.4-0.7,0.9-0.8,1.4l-9.2,1.2V37H3.1L8,23.3z M1.2,39.3
	V38h1.3v1.3H1.2z M5.5,60.8H4.1v-1.3h1.3V60.8z M5.2,58.5L2.7,40.3L15,54.2c-0.1,0.2-0.1,0.4-0.1,0.7c0,0,0,0.1,0,0.1l-8.4,3.9v-0.3
	H5.2z M6.5,61.5V60l8.7-4.1c0.2,0.3,0.5,0.5,0.8,0.7l0.5,18.1h-0.1L6.5,61.5z M17.3,77H16v-1.3h1.3V77z M18.3,75.3l7.3-5
	c0.5,0.6,1.2,1,2,1c0.3,0,0.6-0.1,0.8-0.1l13.4,13.2l-23.6-8.2V75.3z M44.4,86.2H43v-1.3h1.3V86.2z M45.8,84.2l13.9-12
	c0.2,0.1,0.4,0.1,0.6,0.1c0.8,0,1.4-0.3,1.9-0.8l6.9,4v0.9L45.8,84.2z M71.4,77h-1.3v-1.3h1.3V77z M83.4,61.4h-1.3v-1.3h1.3V61.4z
	 M82.4,59.1h-0.7l-9-4.5c0-0.1,0-0.2,0-0.3c0-0.1,0-0.2,0-0.3l12-13.5L82.4,59.1z M86.4,39.3h-1.3V38h1.3V39.3z"/>
</svg>
