<svg xmlns="http://www.w3.org/2000/svg" x="0px" y="0px"
	 viewBox="0 0 87.3 87.3" xml:space="preserve">
<style type="text/css">
	.st0{fill:url(#SVGID_1_);}
</style>
<linearGradient id="SVGID_1_" gradientUnits="userSpaceOnUse" x1="6.305780e-02" y1="43.6214" x2="87.2857" y2="43.6214">
	<stop  offset="0" style="stop-color:#00C698"/>
	<stop  offset="0.3605" style="stop-color:#0BCFC3"/>
	<stop  offset="0.6608" style="stop-color:#00CFD8"/>
	<stop  offset="1" style="stop-color:#0AA0C3"/>
</linearGradient>
<path class="st0" d="M85.3,37l-5.2-14.2h0.6v-3.3h-2.9L63,6.5V3.8h-3.3v0.9L45.3,1.9V0.1h-3.3v1.7L27.7,4.7V3.8h-3.3v2.6l-15,13.1
	v-0.1H6v3.3h1L1.9,37H0.1v3.3h1.5L4,58.5H3v3.3h2.4l9.7,12.8h-0.2V78h3.3v-0.8l23.7,8.3v1.6h3.3v-1.8l23.7-8V78h3.3v-3.2l9.6-12.4
	h2.3V59h-1l2.3-18.7h1.7V37H85.3z M78.4,20.4h1.3v1.3h-1.3V20.4z M79,22.8L79,22.8L84.3,37H84v2.5L74.1,43c-0.2-0.4-0.5-0.7-0.9-0.9
	L79,22.8z M57.6,70.1l-12.2,4.8c-0.2-0.6-0.7-1-1.3-1.2l0-8.9h0.6l13,4.1c0,0.2-0.1,0.4-0.1,0.6C57.5,69.8,57.6,69.9,57.6,70.1z
	 M22.3,25.7L29,42.3v0.5l-11.3-5.5c0.1-0.3,0.1-0.5,0.1-0.8c0-0.8-0.4-1.6-1-2.1L22.3,25.7z M22,24.7v-1.3h1.3v1.3H22z M31.3,18
	l10.4,6.8c0,0.2-0.1,0.3-0.1,0.5c0,0.2,0,0.5,0.1,0.7L36,31.2h-0.7l-2.2-5.8l-0.5-1.2v-1.9h-1.5L30,19.5
	C30.6,19.2,31.1,18.7,31.3,18z M28.8,18.8c-0.9,0-1.6-0.7-1.6-1.6s0.7-1.6,1.6-1.6s1.6,0.7,1.6,1.6S29.7,18.8,28.8,18.8z M64.7,26.3
	l4.2,5.1c-0.2,0.3-0.3,0.6-0.3,1c0,0.2,0.1,0.5,0.1,0.7l-10.1,7.7L64.7,26.3z M63.8,24.7v-1.3h1.3v1.3H63.8z M71.8,30.9l5.7-6.6
	l-5.2,17.4c-0.1,0-0.3,0-0.4,0c-0.1,0-0.2,0-0.3,0l-0.5-7.6c0.8-0.2,1.4-1,1.4-1.8C72.5,31.8,72.2,31.3,71.8,30.9z M73.5,44.3
	c0,0.9-0.7,1.6-1.6,1.6s-1.6-0.7-1.6-1.6s0.7-1.6,1.6-1.6S73.5,43.4,73.5,44.3z M70.5,33.3c-0.5,0-0.9-0.4-0.9-0.9s0.4-0.9,0.9-0.9
	s0.9,0.4,0.9,0.9S71.1,33.3,70.5,33.3z M70.1,34.2l0.5,7.9c-0.6,0.4-1.1,1-1.3,1.7l-11.7-0.5l0.3-0.7l11.5-8.7
	C69.6,34,69.8,34.1,70.1,34.2z M44.3,62.6v1.3h-1.3v-1.3H44.3z M30,43h1.3v1.3H30V43z M51.1,34.6l-7,17.5l0-24.9h0
	c0.3-0.1,0.6-0.2,0.8-0.5l6,5.4v2.6H51.1z M57.3,24.7H56v-1.3h1.3V24.7z M53.3,33.6h-1.3v-1.3h1.3V33.6z M42.9,54.4v-1.3h1.3v1.3
	H42.9z M43.6,26.2c-0.5,0-0.9-0.4-0.9-0.9s0.4-0.9,0.9-0.9s0.9,0.4,0.9,0.9S44.1,26.2,43.6,26.2z M43.1,27.1
	C43.1,27.1,43.1,27.1,43.1,27.1l0,25l-6.6-17.5h0.2V32l5.7-5.2C42.6,26.9,42.8,27,43.1,27.1z M35.7,33.6h-1.3v-1.3h1.3V33.6z
	 M55.2,43.1h1.3v1.3h-1.3V43.1z M58.3,23v-0.7h-0.5l0.4-2.6c0.4,0,0.8-0.1,1.2-0.3l3.4,3.6H58.3z M58.1,18.8c-0.9,0-1.6-0.7-1.6-1.6
	s0.7-1.6,1.6-1.6s1.6,0.7,1.6,1.6S59,18.8,58.1,18.8z M57.2,19.6l-0.4,2.7H55v2.8h-0.1l-2.4,6.1h-0.8l-6.2-5.5
	c0-0.2,0.1-0.3,0.1-0.5c0-0.2,0-0.4-0.1-0.6l10.3-6.4C56,18.9,56.5,19.4,57.2,19.6z M55.5,17.2l-10.7,6.6c-0.2-0.2-0.5-0.3-0.8-0.4
	c0,0,0,0,0,0l0-9.7c0.4-0.1,0.8-0.4,1.1-0.7l10.5,3.5C55.5,16.7,55.5,16.9,55.5,17.2C55.5,17.2,55.5,17.2,55.5,17.2z M43.6,12.7
	c-0.5,0-0.9-0.4-0.9-0.9s0.4-0.9,0.9-0.9s0.9,0.4,0.9,0.9S44.1,12.7,43.6,12.7z M43.1,13.7l0,9.7h0c-0.3,0.1-0.6,0.3-0.8,0.5
	l-10.8-7c0-0.1,0-0.2,0-0.3l10.8-3.5C42.4,13.4,42.7,13.6,43.1,13.7z M30.3,23.4h1.3v1.3h-1.3V23.4z M16.8,36.5
	c0,0.9-0.7,1.6-1.6,1.6c-0.9,0-1.6-0.7-1.6-1.6s0.7-1.6,1.6-1.6C16.1,34.9,16.8,35.6,16.8,36.5z M14.5,39.1l1.3,14
	c-0.1,0.1-0.3,0.1-0.4,0.2L3.4,39.8v-1.4l9.2-1.2C12.8,38.1,13.6,38.8,14.5,39.1z M16.7,53.9c0.5,0,0.9,0.4,0.9,0.9
	s-0.4,0.9-0.9,0.9s-0.9-0.4-0.9-0.9S16.2,53.9,16.7,53.9z M16.8,52.9l-1.3-13.8c0.7-0.1,1.2-0.4,1.6-0.9l11.8,5.7l0.1-0.1v1.1
	l-11.1,8.4C17.6,53.1,17.3,52.9,16.8,52.9z M18.5,54.2l11.2-8.6L27.7,66c-0.1,0-0.1,0-0.2,0c-0.5,0-0.9,0.1-1.3,0.4l-8-10.4
	c0.2-0.3,0.4-0.7,0.4-1.1C18.6,54.6,18.6,54.4,18.5,54.2z M27.5,67c0.9,0,1.6,0.7,1.6,1.6s-0.7,1.6-1.6,1.6s-1.6-0.7-1.6-1.6
	S26.6,67,27.5,67z M28.7,66.3l2-19.9L36.2,60c0.1,0.1,1.8,3.3,5.6,4l0,0L30.1,68C29.9,67.2,29.4,66.6,28.7,66.3z M30.1,69l12.4-4.1
	h0.6l0,8.8c-0.4,0.1-0.7,0.3-1,0.6l-12.1-5C30.1,69.3,30.1,69.2,30.1,69z M43.6,74.7c0.5,0,0.9,0.4,0.9,0.9s-0.4,0.9-0.9,0.9
	s-0.9-0.4-0.9-0.9S43.1,74.7,43.6,74.7z M45.3,64.1L45.3,64.1c3.8-0.8,5.3-4,5.4-4.1L56,47.2l2.9,20.1c-0.3,0.2-0.6,0.4-0.8,0.7
	L45.3,64.1z M60.2,68c0.9,0,1.6,0.7,1.6,1.6s-0.7,1.6-1.6,1.6s-1.6-0.7-1.6-1.6S59.3,68,60.2,68z M61.1,67.2
	c-0.3-0.1-0.6-0.2-0.9-0.2c-0.1,0-0.2,0-0.3,0l-3.1-21.6h0.2l12,8c-0.1,0.3-0.2,0.5-0.2,0.8c0,0.5,0.2,0.9,0.4,1.2L61.1,67.2z
	 M57.5,44.6v-0.3l11.8,0.5c0.2,0.9,0.8,1.6,1.6,1.9l-0.7,5.6c-0.2,0.1-0.4,0.1-0.6,0.3L57.5,44.6z M70.7,53.3c0.5,0,0.9,0.4,0.9,0.9
	s-0.4,0.9-0.9,0.9s-0.9-0.4-0.9-0.9S70.2,53.3,70.7,53.3z M71.2,52.4l0.6-5.4c0,0,0,0,0,0c1.4,0,2.6-1.2,2.6-2.6c0-0.1,0-0.2,0-0.3
	l8.3-3l-10.7,12C71.8,52.7,71.5,52.5,71.2,52.4z M77.5,22.8l-6.7,7.7c-0.1,0-0.2,0-0.3,0c-0.3,0-0.7,0.1-0.9,0.3l-4.1-5h0.6v-3.3
	h-2.6l-3.4-3.5c0.1-0.1,0.2-0.3,0.3-0.4l17,2.7v1.7H77.5z M77,20l-16.3-2.6c0-0.1,0-0.2,0-0.3c0-1.1-0.7-2.1-1.7-2.5l1.8-7.6h1.4
	L77,20z M60.7,4.8H62v1.3h-1.3V4.8z M59.8,7.3L58,14.6c-0.8,0-1.5,0.4-1.9,1L45.5,12c0-0.1,0-0.1,0-0.2c0-0.2,0-0.5-0.1-0.7
	L59.8,7.3z M45.3,2.9l14.4,2.8v0.5l-14.9,4c-0.2-0.1-0.4-0.2-0.7-0.3l0-6.5h1.2V2.9z M42.9,1.1h1.3v1.3h-1.3V1.1z M41.9,2.9v0.6h1.1
	l0,6.5c0,0,0,0,0,0c-0.3,0.1-0.6,0.3-0.9,0.5L28,5.6L41.9,2.9z M27.7,7.2V6.6l14.1,4.9c0,0.1,0,0.3,0,0.4c0,0.1,0,0.2,0,0.3
	l-10.8,3.5c-0.5-0.7-1.3-1.1-2.1-1.1c-0.1,0-0.3,0-0.4,0l-1.5-7.4H27.7z M25.3,4.8h1.3v1.3h-1.3V4.8z M25,7.2h0.9l1.6,7.8
	c-0.6,0.4-1.1,1-1.2,1.8l-15.7,3.1L25,7.2z M9.3,21.1l16.9-3.3c0.3,1.2,1.3,2,2.6,2c0.1,0,0.1,0,0.2,0l1.1,2.6h-0.8V23h-5v-0.7H21
	v1.1L9.3,21.8V21.1z M8.8,22.8L21,24.5v1.2h0.1L15.9,34c-0.2-0.1-0.5-0.1-0.7-0.1c-0.3,0-0.7,0.1-1,0.2L8.8,22.8L8.8,22.8z M7,21.8
	v-1.3h1.3v1.3H7z M7.9,23.3l5.4,11.4c-0.4,0.4-0.7,0.9-0.8,1.4l-9.2,1.2V37H2.9L7.9,23.3z M2.4,39.3H1.1V38h1.3V39.3z M5.4,60.8H4
	v-1.3h1.3V60.8z M5.1,58.5L2.5,40.3l12.3,13.8c-0.1,0.2-0.1,0.4-0.1,0.7c0,0,0,0.1,0,0.1l-8.4,3.9v-0.3H5.1z M6.4,61.4v-1.5l8.7-4.1
	c0.2,0.3,0.5,0.5,0.8,0.7l0.5,18.1h-0.1L6.4,61.4z M17.2,77h-1.3v-1.3h1.3V77z M17.4,74.6l-0.5-17.9c0.2,0,0.4-0.1,0.5-0.1L25.5,67
	c-0.4,0.4-0.6,1-0.6,1.6c0,0.3,0.1,0.5,0.1,0.8L17.4,74.6z M18.2,76.1v-0.8l7.3-5c0.5,0.6,1.2,1,2,1c0.3,0,0.6-0.1,0.8-0.1
	l13.4,13.2L18.2,76.1z M29.3,70.6c0.1-0.1,0.2-0.2,0.3-0.3l12.1,5c0,0.1,0,0.2,0,0.3c0,0.9,0.6,1.6,1.4,1.9l0,6.3h-0.5L29.3,70.6z
	 M44.3,86.1h-1.3v-1.3h1.3V86.1z M44.6,83.8h-0.4l0-6.4c0.7-0.2,1.2-0.8,1.4-1.5L58,71c0.2,0.3,0.4,0.5,0.6,0.7L44.6,83.8z M69,76.3
	l-23.3,7.9l13.9-12c0.2,0.1,0.4,0.1,0.6,0.1c0.8,0,1.4-0.3,1.9-0.8l6.9,4V76.3z M62.6,70.6c0.1-0.3,0.2-0.6,0.2-1
	c0-0.8-0.3-1.5-0.9-1.9L70,56c0.1,0,0.1,0,0.2,0.1l-0.1,18.5h-0.4L62.6,70.6z M71.3,77H70v-1.3h1.3V77z M80.9,62l-9.8,12.6h-0.1
	l0.1-18.5c0.4-0.1,0.7-0.3,1-0.7l8.8,4.4V62z M83.3,61.3h-1.3V60h1.3V61.3z M82.3,59h-0.7l-9-4.5c0-0.1,0-0.2,0-0.3
	c0-0.1,0-0.2,0-0.3l12-13.5L82.3,59z M86.3,39.3H85V38h1.3V39.3z"/>
</svg>
