<svg xmlns="http://www.w3.org/2000/svg" x="0px" y="0px"
	 viewBox="0 0 86.1 85" xml:space="preserve">
<style type="text/css">
	.st0{fill:url(#SVGID_1_);}
</style>
<linearGradient id="SVGID_1_" gradientUnits="userSpaceOnUse" x1="-4.262812e-02" y1="42.4263" x2="86.18" y2="42.4263">
	<stop  offset="0" style="stop-color:#00C698"/>
	<stop  offset="0.3605" style="stop-color:#0BCFC3"/>
	<stop  offset="0.6608" style="stop-color:#00CFD8"/>
	<stop  offset="1" style="stop-color:#0AA0C3"/>
</linearGradient>
<path class="st0" d="M57.9,66.9l-12.7-4l0.1,0c3.7-0.8,5.3-3.9,5.3-4.1L55.9,46l2.9,20.1C58.4,66.3,58.2,66.6,57.9,66.9z M51.8,32.4
	h1.3v-1.3h-1.3V32.4z M55.1,43.2h1.3v-1.3h-1.3V43.2z M44.7,22.6L55.4,16c0,0,0,0,0,0c0-0.3,0-0.5,0.1-0.7L45,11.7
	c-0.3,0.4-0.6,0.6-1.1,0.7l0,9.7c0,0,0,0,0,0C44.3,22.3,44.5,22.4,44.7,22.6z M60.3,17.2c-0.1,0.2-0.2,0.3-0.3,0.4l3.4,3.5H66v3.3
	h-0.6l4.1,5c0.3-0.2,0.6-0.3,0.9-0.3c0.1,0,0.2,0,0.3,0l6.7-7.7h-0.2v-1.7L60.3,17.2z M44.6,63.7H44l0,8.9c0.6,0.2,1,0.6,1.3,1.2
	l12.2-4.8c0-0.2,0-0.3,0-0.5c0-0.2,0-0.4,0.1-0.6L44.6,63.7z M68.7,31.9c-0.1-0.2-0.1-0.4-0.1-0.7c0-0.4,0.1-0.7,0.3-1l-4.2-5.1
	l-6,14.5L68.7,31.9z M65,22.2h-1.3v1.3H65V22.2z M85.2,36.8h-0.4v1.3h0.4h1v-1.3H85.2z M69.9,74.4v0.7v0.6h1.3v-1.3h-0.3H69.9z
	 M57.2,22.2h-1.3v1.3h1.3V22.2z M58.1,18.6l-0.4,2.6h0.5v0.7h4.4l-3.4-3.6C58.9,18.5,58.5,18.6,58.1,18.6z M71,33l0.5,7.6
	c0.1,0,0.2,0,0.3,0c0.1,0,0.3,0,0.4,0l5.2-17.4l-5.7,6.6c0.4,0.4,0.7,0.9,0.7,1.4C72.4,32,71.8,32.8,71,33z M58,14.4
	c-0.9,0-1.6,0.7-1.6,1.6c0,0.9,0.7,1.6,1.6,1.6s1.6-0.7,1.6-1.6C59.6,15.1,58.9,14.4,58,14.4z M70.4,30.2c-0.5,0-0.9,0.4-0.9,0.9
	s0.4,0.9,0.9,0.9s0.9-0.4,0.9-0.9S70.9,30.2,70.4,30.2z M57.8,41.4l-0.3,0.7l11.7,0.5c0.2-0.7,0.6-1.4,1.3-1.7L70,33
	c-0.3-0.1-0.5-0.2-0.7-0.4L57.8,41.4z M51.5,30.1h0.8l2.4-6.1h0.1v-2.8h1.8l0.4-2.7c-0.7-0.2-1.2-0.7-1.5-1.4l-10.3,6.4
	c0.1,0.2,0.1,0.4,0.1,0.6c0,0.2,0,0.3-0.1,0.5L51.5,30.1z M71.1,54.9l-0.1,18.5H71l9.8-12.6v-2.2L72,54.2
	C71.8,54.6,71.4,54.8,71.1,54.9z M70.6,54c0.5,0,0.9-0.4,0.9-0.9s-0.4-0.9-0.9-0.9s-0.9,0.4-0.9,0.9S70,54,70.6,54z M72.5,53.1
	c0,0.1,0,0.2,0,0.3l9,4.5h0.7l2.3-18.6l-12,13.5C72.5,52.8,72.5,52.9,72.5,53.1z M79.6,20.6v-1.3h-1.3h-0.1v1.3h1H79.6z M70.1,54.9
	c-0.1,0-0.1,0-0.2-0.1l-8.1,11.6c0.5,0.5,0.9,1.2,0.9,1.9c0,0.3-0.1,0.7-0.2,1l7,4.1h0.4L70.1,54.9z M60.1,71.1
	c-0.2,0-0.4,0-0.6-0.1L45.6,83l23.3-7.9v-0.9l-6.9-4C61.5,70.7,60.8,71.1,60.1,71.1z M57.9,69.8l-12.5,4.9c-0.1,0.7-0.7,1.3-1.4,1.5
	l0,6.4h0.4l14-12.1C58.2,70.3,58,70.1,57.9,69.8z M81.8,58.8v1.3H82h1.2v-1.3h-0.5H81.8z M61.9,4.9V3.6h-1.3v0.4V5h1.3V4.9z
	 M60.1,70.1c0.9,0,1.6-0.7,1.6-1.6s-0.7-1.6-1.6-1.6s-1.6,0.7-1.6,1.6S59.2,70.1,60.1,70.1z M83.9,35.8h0.3L79,21.6h-0.1l-5.8,19.3
	c0.4,0.2,0.7,0.6,0.9,0.9l9.8-3.6V35.8z M82.7,39.8l-8.3,3c0,0.1,0,0.2,0,0.3c0,1.4-1.2,2.6-2.6,2.6c0,0,0,0,0,0l-0.6,5.4
	c0.3,0.1,0.6,0.3,0.8,0.5L82.7,39.8z M70.1,43.2c0,0.9,0.7,1.6,1.6,1.6s1.6-0.7,1.6-1.6s-0.7-1.6-1.6-1.6S70.1,42.3,70.1,43.2z
	 M70.1,51.2l0.7-5.6c-0.8-0.3-1.4-1.1-1.6-1.9l-11.8-0.5v0.3l12,8C69.7,51.3,69.9,51.2,70.1,51.2z M68.6,53.1c0-0.3,0.1-0.6,0.2-0.8
	l-12-8h-0.2l3.1,21.6c0.1,0,0.2,0,0.3,0c0.3,0,0.6,0.1,0.9,0.2l8.1-11.7C68.8,53.9,68.6,53.5,68.6,53.1z M58.9,13.5
	c1,0.4,1.7,1.3,1.7,2.5c0,0.1,0,0.2,0,0.3l16.3,2.6L62.1,6h-1.4L58.9,13.5z M45.4,10.6c0,0.1,0,0.1,0,0.2L56,14.4
	c0.5-0.6,1.2-1,1.9-1l1.7-7.3L45.3,10C45.3,10.2,45.4,10.4,45.4,10.6z M44,8.8c0.2,0.1,0.5,0.2,0.7,0.3l14.9-4V4.5L45.1,1.7v0.5H44
	L44,8.8z M43.7,83.6h0.5v0.3v1h-1.3v-0.3L18.1,76v0.8h-3.3v-3.3H15L5.3,60.6H2.9v-3.3h1L1.4,39.1H0v-3.3h1.8l5.2-14.2h-1v-3.3h3.3
	v0.1l15-13.1V2.6h3.3v0.9l15.3-3.1v-0.5h1.3v0.9v0.4h-0.4l0,0L27.9,4.4l15.4,5.3l0,0c0.1,0,0.1,0,0.2,0c0,0,0,0,0,0s0,0,0,0
	c0.5,0,0.9,0.4,0.9,0.9s-0.4,0.9-0.9,0.9c0,0,0,0,0,0s0,0,0,0c-0.1,0-0.3,0-0.4-0.1l-11.8,3.9c0,0.1,0,0.2,0,0.3L43,23.2l0,0
	c0.1-0.1,0.3-0.1,0.4-0.1c0,0,0,0,0,0s0,0,0,0c0.5,0,0.9,0.4,0.9,0.9S44,25,43.5,25c0,0,0,0,0,0s0,0,0,0c-0.2,0-0.4-0.1-0.5-0.2l0,0
	l-6.4,6v2.6h-0.2l3.3,8.9v0l0.1,0.3l3.5,9.2c0,0,0.1,0.1,0.2,0.1c0,0,0,0,0,0c0.1,0,0.2-0.1,0.2-0.1l0.3-0.8l0-24.9h0
	c0.3-0.1,0.6-0.2,0.8-0.5l6,5.4v2.6H51l-7,17.4v2.9c-0.2,0-0.4,0.1-0.5,0.1c0,0,0,0,0,0c-0.9,0-1.7-0.6-2-1.4l-7.1-19h-1v-2.8h0
	l-2.3-6.1h-1.8v-0.7h-5v0.3l6.7,16.6h1.3V44l5.7,14c0.1,0.1,0.7,1.1,1.9,1.9c0.2,0.1,0.3,0.2,0.5,0.3c0.1,0,0.2,0.1,0.3,0.1
	c0.2,0.1,0.3,0.2,0.5,0.2c0.1,0,0.2,0.1,0.4,0.1c0.6,0.2,1.2,0.3,1.9,0.3c0.2,0,0.4,0,0.6,0v2l-14,4.8c0,0.1-0.1,0.3-0.1,0.4
	l13.2,5.3c0.1,0,0.2-0.1,0.4-0.1c0,0,0,0,0,0s0,0,0,0c0.5,0,0.9,0.4,0.9,0.9s-0.4,0.9-0.9,0.9c0,0,0,0,0,0s0,0,0,0
	c-0.5,0-0.9-0.4-0.9-0.9l-13.1-5.3c-0.1,0.1-0.2,0.2-0.3,0.3L43.7,83.6z M30.6,45.2l-2,19.9c0.7,0.3,1.2,0.9,1.4,1.7l11.8-3.9l0.3,0
	c-0.1,0-0.2,0-0.3,0v0l0,0c-3.8-0.8-5.6-3.9-5.6-4L30.6,45.2z M27.4,65.8c-0.9,0-1.6,0.7-1.6,1.6s0.7,1.6,1.6,1.6s1.6-0.7,1.6-1.6
	S28.3,65.8,27.4,65.8z M29.9,43.1h1.3v-1.3h-1.3V43.1z M29.6,44.4L18.4,53c0.1,0.2,0.1,0.4,0.1,0.6c0,0.4-0.1,0.8-0.4,1.1l8,10.4
	c0.4-0.2,0.8-0.4,1.3-0.4c0.1,0,0.1,0,0.2,0L29.6,44.4z M12.5,35.9l-9.2,1.2v1.4l12.1,13.6c0.1-0.1,0.2-0.2,0.4-0.2l-1.3-14
	C13.5,37.6,12.7,36.9,12.5,35.9z M15.1,37c0.9,0,1.6-0.7,1.6-1.6s-0.7-1.6-1.6-1.6s-1.6,0.7-1.6,1.6S14.2,37,15.1,37z M15.7,53.6
	c0,0.5,0.4,0.9,0.9,0.9s0.9-0.4,0.9-0.9s-0.4-0.9-0.9-0.9S15.7,53.1,15.7,53.6z M17.8,52.2l11.1-8.4v-1.1l-0.1,0.1L17.1,37
	c-0.4,0.5-1,0.8-1.6,0.9l1.3,13.8C17.1,51.7,17.5,51.9,17.8,52.2z M22.2,24.5l-5.5,8.8c0.6,0.5,1,1.2,1,2.1c0,0.3-0.1,0.6-0.1,0.8
	l11.3,5.5v-0.5L22.2,24.5z M23.2,23.5v-1.3h-1.3v1.3H23.2z M31.5,22.2h-1.3v1.3h1.3V22.2z M35.6,31.1h-1.3v1.3h1.3V31.1z M31.2,16.8
	c-0.2,0.7-0.7,1.2-1.3,1.5l1.2,2.8h1.5V23l0.5,1.2l2.2,5.8h0.7l5.8-5.3c-0.1-0.2-0.1-0.4-0.1-0.7c0-0.2,0-0.3,0.1-0.5L31.2,16.8z
	 M30.3,16c0-0.9-0.7-1.6-1.6-1.6s-1.6,0.7-1.6,1.6c0,0.9,0.7,1.6,1.6,1.6S30.3,16.9,30.3,16z M26.8,6l1.5,7.4c0.1,0,0.3,0,0.4,0
	c0.9,0,1.7,0.4,2.1,1.1L41.6,11c0-0.1,0-0.2,0-0.3c0-0.1,0-0.3,0-0.4L27.5,5.4V6H26.8z M25.2,5h1.3V3.6h-1.3V5z M10.4,18.6l15.7-3.1
	c0.1-0.8,0.6-1.4,1.2-1.8L25.8,6h-0.9L10.4,18.6z M9.2,20.6l11.7,1.6v-1.1h3.3v0.7h5v-0.7h0.8l-1.1-2.6c-0.1,0-0.1,0-0.2,0
	c-1.2,0-2.3-0.9-2.6-2L9.2,19.9V20.6z M8.7,21.6l5.4,11.3c0.3-0.1,0.6-0.2,1-0.2c0.2,0,0.5,0,0.7,0.1l5.2-8.3h-0.1v-1.2L8.7,21.6
	L8.7,21.6z M8.2,20.6v-1.3H6.9v1.3H8.2z M2.8,35.8h0.4v0.3l9.2-1.2c0.1-0.6,0.4-1.1,0.8-1.4L7.8,22.1L2.8,35.8z M2.3,36.8H1v1.3h1.3
	V36.8z M5.3,58.3H3.9v1.3h1.3V58.3z M6.3,57.3v0.3l8.4-3.9c0,0,0-0.1,0-0.1c0-0.2,0-0.4,0.1-0.7L2.4,39.1l2.5,18.2H6.3z M16.2,73.4
	L16.2,73.4l-0.5-18.1c-0.3-0.2-0.6-0.4-0.8-0.7l-8.7,4.1v1.5L16.2,73.4z M17.1,74.4h-1.3v1.3h1.3V74.4z M24.9,68.2
	c-0.1-0.3-0.1-0.5-0.1-0.8c0-0.6,0.2-1.2,0.6-1.6l-8.1-10.5c-0.2,0.1-0.4,0.1-0.5,0.1l0.5,17.9L24.9,68.2z M41.7,83.2L28.3,69.9
	c-0.3,0.1-0.5,0.1-0.8,0.1c-0.8,0-1.5-0.4-2-1l-7.3,5v0.8L41.7,83.2z"/>
</svg>
