<svg xmlns="http://www.w3.org/2000/svg" x="0px" y="0px"
	 viewBox="0 0 85.2 85" xml:space="preserve">
<style type="text/css">
	.st0{fill:url(#SVGID_1_);}
</style>
<linearGradient id="SVGID_1_" gradientUnits="userSpaceOnUse" x1="0" y1="42.4963" x2="85.2227" y2="42.4963">
	<stop  offset="0" style="stop-color:#00C698"/>
	<stop  offset="0.3605" style="stop-color:#0BCFC3"/>
	<stop  offset="0.6608" style="stop-color:#00CFD8"/>
	<stop  offset="1" style="stop-color:#0AA0C3"/>
</linearGradient>
<path class="st0" d="M85.2,36.9v1.3h-1h-0.4h0v-1.3h0h0.4H85.2z M54.2,43.3h1.3V42h-1.3V43.3z M43.2,52h-1.3v1.3h1.3V52z M50.9,32.4
	h1.3v-1.3h-1.3V32.4z M35.6,30.8v2.6h-0.2L42,51l0-25c0,0,0,0,0,0c-0.3-0.1-0.5-0.2-0.7-0.4L35.6,30.8z M54.7,17.1l-10.3,6.4
	c0.1,0.2,0.1,0.4,0.1,0.6c0,0.2,0,0.3-0.1,0.5l6.2,5.5h0.8l2.4-6.1h0.1v-2.8h1.8l0.4-2.7C55.5,18.3,54.9,17.8,54.7,17.1z M56.8,41.4
	l-0.3,0.7l11.7,0.5c0.2-0.7,0.6-1.4,1.3-1.7L69,33.1c-0.3-0.1-0.5-0.2-0.7-0.4L56.8,41.4z M57.1,14.4c-0.9,0-1.6,0.7-1.6,1.6
	s0.7,1.6,1.6,1.6s1.6-0.7,1.6-1.6S58,14.4,57.1,14.4z M57.1,18.7l-0.4,2.6h0.5v0.7h4.4l-3.4-3.6C57.9,18.5,57.6,18.7,57.1,18.7z
	 M69.5,30.3c-0.5,0-0.9,0.4-0.9,0.9s0.4,0.9,0.9,0.9s0.9-0.4,0.9-0.9S70,30.3,69.5,30.3z M30.5,22.2h-1.3v1.3h1.3V22.2z M42,72.6
	l0-8.8h-0.6l-12.4,4.1c0,0.1-0.1,0.3-0.1,0.4l12.1,5C41.3,72.9,41.7,72.7,42,72.6z M28.9,43.2h1.3v-1.3h-1.3V43.2z M57.8,66.2
	l-2.9-20.1l-5.3,12.7c-0.1,0.2-1.6,3.3-5.3,4.1l-0.1,0L57,67C57.2,66.7,57.5,66.4,57.8,66.2z M44.1,11.8c-0.3,0.4-0.6,0.6-1.1,0.7
	l0,9.7c0,0,0,0,0,0c0.3,0.1,0.5,0.2,0.8,0.4l10.7-6.6c0,0,0,0,0,0c0-0.3,0-0.5,0.1-0.7L44.1,11.8z M43.4,24.1c0-0.5-0.4-0.9-0.9-0.9
	s-0.9,0.4-0.9,0.9S42,25,42.5,25S43.4,24.6,43.4,24.1z M49.9,33.4v-2.6l-6-5.4c-0.2,0.2-0.5,0.4-0.8,0.5h0l0,24.9l7-17.5H49.9z
	 M30.3,15.5c0,0.1,0,0.2,0,0.3l10.8,7c0.2-0.2,0.5-0.4,0.8-0.5h0l0-9.7c-0.4-0.1-0.7-0.3-0.9-0.6L30.3,15.5z M33.3,32.4h1.3v-1.3
	h-1.3V32.4z M43.2,61.4h-1.3v1.3h1.3V61.4z M11.5,36l-9.2,1.2v1.4l12.1,13.6c0.1-0.1,0.2-0.2,0.4-0.2l-1.3-14
	C12.5,37.7,11.8,36.9,11.5,36z M16.7,35.4c0,0.3-0.1,0.6-0.1,0.8l11.3,5.5v-0.5l-6.7-16.6l-5.5,8.8C16.3,33.8,16.7,34.6,16.7,35.4z
	 M14.1,33.8c-0.9,0-1.6,0.7-1.6,1.6s0.7,1.6,1.6,1.6s1.6-0.7,1.6-1.6S15,33.8,14.1,33.8z M43.6,63.8H43l0,8.9c0.6,0.2,1,0.6,1.3,1.2
	L56.5,69c0-0.2,0-0.3,0-0.5c0-0.2,0-0.4,0.1-0.6L43.6,63.8z M22.2,22.2h-1.3v1.3h1.3V22.2z M80.9,58.9L80.9,58.9l0,1.3h0H81h1.2
	v-1.3h-0.5H80.9z M1,36.9H0v1.3h1h0.4h0v-1.3h0H1z M59.4,17.3c-0.1,0.2-0.2,0.3-0.3,0.4l3.4,3.5h2.6v3.3h-0.6l4.1,5
	c0.3-0.2,0.6-0.3,0.9-0.3c0.1,0,0.2,0,0.3,0l6.7-7.7h-0.2V20L59.4,17.3z M42,8.9C42,8.9,42,8.9,42,8.9l0-6.5h-1.1V1.7L27,4.5
	l14.2,4.9C41.4,9.1,41.7,9,42,8.9z M70,33.1l0.5,7.6c0.1,0,0.2,0,0.3,0c0.1,0,0.3,0,0.4,0l5.2-17.4l-5.7,6.6
	c0.4,0.4,0.7,0.9,0.7,1.4C71.4,32.1,70.8,32.8,70,33.1z M27.7,14.4c-0.9,0-1.6,0.7-1.6,1.6s0.7,1.6,1.6,1.6s1.6-0.7,1.6-1.6
	S28.6,14.4,27.7,14.4z M31.5,21.2v1.9l0.5,1.2l2.2,5.8h0.7l5.8-5.3c-0.1-0.2-0.1-0.4-0.1-0.7c0-0.2,0-0.3,0.1-0.5l-10.4-6.8
	c-0.2,0.7-0.7,1.2-1.3,1.5l1.2,2.8H31.5z M67.7,31.9c-0.1-0.2-0.1-0.4-0.1-0.7c0-0.4,0.1-0.7,0.3-1l-4.2-5.1l-6,14.5L67.7,31.9z
	 M64.1,22.2h-1.3v1.3h1.3V22.2z M27.9,43.8v-1.1l-0.1,0.1l-11.8-5.7c-0.4,0.5-1,0.8-1.6,0.9l1.3,13.8c0.4,0,0.8,0.2,1.1,0.5
	L27.9,43.8z M29,66.9l11.8-3.9l0,0c-3.8-0.8-5.6-3.9-5.6-4l-5.5-13.6l-2,19.9C28.3,65.5,28.8,66.1,29,66.9z M25.2,65.3
	c0.4-0.2,0.8-0.4,1.3-0.4c0.1,0,0.1,0,0.2,0l2.1-20.4l-11.2,8.6c0.1,0.2,0.1,0.4,0.1,0.6c0,0.4-0.1,0.8-0.4,1.1L25.2,65.3z
	 M26.5,69.1c0.9,0,1.6-0.7,1.6-1.6s-0.7-1.6-1.6-1.6s-1.6,0.7-1.6,1.6S25.6,69.1,26.5,69.1z M56.3,22.2h-1.3v1.3h1.3V22.2z M70.1,55
	L70,73.5h0.1l9.8-12.6v-2.2l-8.8-4.4C70.8,54.6,70.5,54.9,70.1,55z M69.6,54c0.5,0,0.9-0.4,0.9-0.9s-0.4-0.9-0.9-0.9
	s-0.9,0.4-0.9,0.9S69.1,54,69.6,54z M69.1,55c-0.1,0-0.1,0-0.2-0.1l-8.1,11.6c0.5,0.5,0.9,1.2,0.9,1.9c0,0.3-0.1,0.7-0.2,1l7,4.1H69
	L69.1,55z M71.5,53.1c0,0.1,0,0.2,0,0.3l9,4.5h0.7l2.3-18.6l-12,13.5C71.5,52.9,71.5,53,71.5,53.1z M59.1,71.1c-0.2,0-0.4,0-0.6-0.1
	L44.6,83l23.3-7.9v-0.9l-6.9-4C60.5,70.8,59.9,71.1,59.1,71.1z M42.5,75.4c0.5,0,0.9-0.4,0.9-0.9s-0.4-0.9-0.9-0.9s-0.9,0.4-0.9,0.9
	S42,75.4,42.5,75.4z M42,76.3c-0.8-0.2-1.4-1-1.4-1.9c0-0.1,0-0.2,0-0.3l-12.1-5c-0.1,0.1-0.2,0.2-0.3,0.3l13.4,13.2h0.5L42,76.3z
	 M26.5,70.1c-0.8,0-1.5-0.4-2-1l-7.3,5V75l23.6,8.2L27.3,70C27,70.1,26.8,70.1,26.5,70.1z M56.9,69.9l-12.5,4.9
	c-0.1,0.7-0.7,1.3-1.4,1.5l0,6.4h0.4l14-12.1C57.3,70.4,57.1,70.1,56.9,69.9z M78.3,20.6h0.3v-1.3h-1.3h-0.1h0v1.3h0H78.3z
	 M41.9,83.7L41.9,83.7l0,1.3h1.3v-1h0v-0.3h0H41.9z M68.9,74.5L68.9,74.5l0,1.3h1.3v-1.3h-0.3H68.9z M60.9,5L60.9,5l0-0.1l0,0V3.7
	h-1.3V5h0H60.9z M59.1,70.1c0.9,0,1.6-0.7,1.6-1.6s-0.7-1.6-1.6-1.6s-1.6,0.7-1.6,1.6S58.2,70.1,59.1,70.1z M3.7,58.4H3v1.3h1.3
	v-0.2l0,0v-1.2h0H3.7z M43.2,1.3L43.2,1.3l0-0.4h0V0h-1.3v1.3h0H43.2z M25.6,5L25.6,5l0-0.9h0V3.7h-1.3V5h0H25.6z M7.3,20.6
	L7.3,20.6l0-0.7l0,0v-0.6H5.9v1.3h1H7.3z M15.6,74.5h-0.8v1.3h1.3V75h0v-0.5h0H15.6z M44.4,10.7c0,0.1,0,0.1,0,0.2L55,14.4
	c0.5-0.6,1.2-1,1.9-1l1.7-7.3L44.3,10C44.4,10.2,44.4,10.5,44.4,10.7z M57.9,13.6c1,0.4,1.7,1.3,1.7,2.5c0,0.1,0,0.2,0,0.3l16.3,2.6
	L61.2,6h-1.4L57.9,13.6z M43,8.9c0.2,0.1,0.5,0.2,0.7,0.3l14.9-4V4.6L44.2,1.8v0.5H43L43,8.9z M82.9,35.9h0.3L78,21.6H78L72.2,41
	c0.4,0.2,0.7,0.6,0.9,0.9l9.8-3.6V35.9z M69.2,43.2c0,0.9,0.7,1.6,1.6,1.6s1.6-0.7,1.6-1.6s-0.7-1.6-1.6-1.6S69.2,42.3,69.2,43.2z
	 M69.1,51.3l0.7-5.6c-0.8-0.3-1.4-1.1-1.6-1.9l-11.8-0.5v0.3l12,8C68.7,51.4,68.9,51.3,69.1,51.3z M67.7,53.1c0-0.3,0.1-0.6,0.2-0.8
	l-12-8h-0.2l3.1,21.6c0.1,0,0.2,0,0.3,0c0.3,0,0.6,0.1,0.9,0.2l8.1-11.7C67.8,54,67.7,53.6,67.7,53.1z M23.8,67.5
	c0-0.6,0.2-1.2,0.6-1.6l-8.1-10.5c-0.2,0.1-0.4,0.1-0.5,0.1l0.5,17.9l7.6-5.2C23.9,68.1,23.8,67.8,23.8,67.5z M42.5,9.8
	c-0.5,0-0.9,0.4-0.9,0.9s0.4,0.9,0.9,0.9s0.9-0.4,0.9-0.9S43,9.8,42.5,9.8z M81.7,39.8l-8.3,3c0,0.1,0,0.2,0,0.3
	c0,1.4-1.2,2.6-2.6,2.6c0,0,0,0,0,0l-0.6,5.4c0.3,0.1,0.6,0.3,0.8,0.5L81.7,39.8z M5.3,57.4v0.3l8.4-3.9c0,0,0-0.1,0-0.1
	c0-0.2,0-0.4,0.1-0.7L1.5,39.2L4,57.4H5.3z M15.3,73.5l-0.5-18.1c-0.3-0.2-0.6-0.4-0.8-0.7l-8.7,4.1v1.5L15.3,73.5L15.3,73.5z
	 M15.6,54.6c0.5,0,0.9-0.4,0.9-0.9s-0.4-0.9-0.9-0.9s-0.9,0.4-0.9,0.9S15.1,54.6,15.6,54.6z M2.3,36.2l9.2-1.2
	c0.1-0.6,0.4-1.1,0.8-1.4L6.8,22.2l-5,13.7h0.4V36.2z M26.4,13.8L24.8,6H24L9.5,18.7l15.7-3.1C25.3,14.9,25.8,14.2,26.4,13.8z
	 M27.7,13.4c0.9,0,1.7,0.4,2.1,1.1L40.6,11c0-0.1,0-0.2,0-0.3c0-0.1,0-0.3,0-0.4L26.6,5.4V6h-0.7l1.5,7.4
	C27.5,13.4,27.6,13.4,27.7,13.4z M19.9,21.2h3.3v0.7h5v-0.7H29l-1.1-2.6c-0.1,0-0.1,0-0.2,0c-1.2,0-2.3-0.9-2.6-2L8.3,20v0.8
	l11.7,1.6V21.2z M14.1,32.8c0.2,0,0.5,0,0.7,0.1l5.2-8.3h-0.1v-1.2L7.7,21.6h0L13.1,33C13.4,32.9,13.8,32.8,14.1,32.8z"/>
</svg>
