<svg xmlns="http://www.w3.org/2000/svg" x="0px" y="0px"
	 viewBox="0 0 90.5 86.1" style="enable-background:new 0 0 90.5 86.1;" xml:space="preserve">
<style type="text/css">
	.st0{fill:url(#SVGID_1_);}
</style>
<linearGradient id="SVGID_1_" gradientUnits="userSpaceOnUse" x1="4.241655e-02" y1="43.0512" x2="90.4132" y2="43.0512">
	<stop  offset="0" style="stop-color:#00C698"/>
	<stop  offset="0.3605" style="stop-color:#0BCFC3"/>
	<stop  offset="0.6608" style="stop-color:#00CFD8"/>
	<stop  offset="1" style="stop-color:#0AA0C3"/>
</linearGradient>
<path class="st0" d="M90.4,38.1v1.3h-1h-0.4h0v-1.3h0h0.4H90.4z M59.3,44.5h1.3v-1.3h-1.3V44.5z M48.4,53.2h-1.3v1.3h1.3V53.2z
	 M56.1,33.7h1.3v-1.3h-1.3V33.7z M40.8,32.1v2.6h-0.2l6.6,17.5l0-25c0,0,0,0,0,0c-0.3-0.1-0.5-0.2-0.7-0.4L40.8,32.1z M59.8,18.3
	l-10.3,6.4c0.1,0.2,0.1,0.4,0.1,0.6c0,0.2,0,0.3-0.1,0.5l6.2,5.5h0.8l2.4-6.1h0.1v-2.8h1.8l0.4-2.7C60.7,19.5,60.1,19,59.8,18.3z
	 M62,42.7l-0.3,0.7l11.7,0.5c0.2-0.7,0.6-1.4,1.3-1.7l-0.5-7.9c-0.3-0.1-0.5-0.2-0.7-0.4L62,42.7z M62.2,15.6
	c-0.9,0-1.6,0.7-1.6,1.6s0.7,1.6,1.6,1.6s1.6-0.7,1.6-1.6S63.1,15.6,62.2,15.6z M62.3,19.9l-0.4,2.6h0.5v0.7h4.4l-3.4-3.6
	C63.1,19.8,62.7,19.9,62.3,19.9z M74.7,31.5c-0.5,0-0.9,0.4-0.9,0.9c0,0.5,0.4,0.9,0.9,0.9s0.9-0.4,0.9-0.9
	C75.6,31.9,75.2,31.5,74.7,31.5z M35.7,23.5h-1.3v1.3h1.3V23.5z M47.2,73.8l0-8.8h-0.6l-12.4,4.1c0,0.1-0.1,0.3-0.1,0.4l12.1,5
	C46.5,74.2,46.8,73.9,47.2,73.8z M34.1,44.4h1.3v-1.3h-1.3V44.4z M63,67.4l-2.9-20.1L54.8,60c-0.1,0.2-1.6,3.3-5.3,4.1l-0.1,0
	l12.7,4C62.4,67.9,62.7,67.6,63,67.4z M49.3,13c-0.3,0.4-0.6,0.6-1.1,0.7l0,9.7c0,0,0,0,0,0c0.3,0.1,0.5,0.2,0.8,0.4l10.7-6.6
	c0,0,0,0,0,0c0-0.3,0-0.5,0.1-0.7L49.3,13z M48.6,25.3c0-0.5-0.4-0.9-0.9-0.9s-0.9,0.4-0.9,0.9s0.4,0.9,0.9,0.9S48.6,25.8,48.6,25.3
	z M55.1,34.7v-2.6l-6-5.4c-0.2,0.2-0.5,0.4-0.8,0.5h0l0,24.9l7-17.5H55.1z M35.5,16.7c0,0.1,0,0.2,0,0.3l10.8,7
	c0.2-0.2,0.5-0.4,0.8-0.5h0l0-9.7c-0.4-0.1-0.7-0.3-0.9-0.6L35.5,16.7z M38.5,33.7h1.3v-1.3h-1.3V33.7z M48.4,62.7h-1.3V64h1.3V62.7
	z M16.7,37.2l-9.2,1.2v1.4l12.1,13.6c0.1-0.1,0.2-0.2,0.4-0.2l-1.3-14C17.7,38.9,17,38.2,16.7,37.2z M21.9,36.6
	c0,0.3-0.1,0.6-0.1,0.8l11.3,5.5v-0.5l-6.7-16.6l-5.5,8.8C21.5,35,21.9,35.8,21.9,36.6z M19.3,35c-0.9,0-1.6,0.7-1.6,1.6
	s0.7,1.6,1.6,1.6s1.6-0.7,1.6-1.6S20.2,35,19.3,35z M48.8,65h-0.6l0,8.9c0.6,0.2,1,0.6,1.3,1.2l12.2-4.8c0-0.2,0-0.3,0-0.5
	c0-0.2,0-0.4,0.1-0.6L48.8,65z M27.4,23.5h-1.3v1.3h1.3V23.5z M86.1,60.1L86.1,60.1l0,1.3h0h0.1h1.2v-1.3h-0.5H86.1z M6.2,38.1h-1
	v1.3h1h0.4h0v-1.3h0H6.2z M64.5,18.5c-0.1,0.2-0.2,0.3-0.3,0.4l3.4,3.5h2.6v3.3h-0.6l4.1,5c0.3-0.2,0.6-0.3,0.9-0.3
	c0.1,0,0.2,0,0.3,0l6.7-7.7h-0.2v-1.7L64.5,18.5z M47.2,10.1C47.2,10.1,47.2,10.1,47.2,10.1l0-6.5h-1.1V2.9L32.1,5.7l14.2,4.9
	C46.6,10.4,46.9,10.2,47.2,10.1z M75.2,34.3l0.5,7.6c0.1,0,0.2,0,0.3,0c0.1,0,0.3,0,0.4,0l5.2-17.4L75.9,31c0.4,0.4,0.7,0.9,0.7,1.4
	C76.6,33.3,76,34.1,75.2,34.3z M32.9,15.6c-0.9,0-1.6,0.7-1.6,1.6s0.7,1.6,1.6,1.6s1.6-0.7,1.6-1.6S33.8,15.6,32.9,15.6z M36.7,22.5
	v1.9l0.5,1.2l2.2,5.8h0.7l5.8-5.3c-0.1-0.2-0.1-0.4-0.1-0.7c0-0.2,0-0.3,0.1-0.5l-10.4-6.8c-0.2,0.7-0.7,1.2-1.3,1.5l1.2,2.8H36.7z
	 M72.9,33.1c-0.1-0.2-0.1-0.4-0.1-0.7c0-0.4,0.1-0.7,0.3-1l-4.2-5.1l-6,14.5L72.9,33.1z M69.2,23.5h-1.3v1.3h1.3V23.5z M33.1,45
	v-1.1L33.1,44l-11.8-5.7c-0.4,0.5-1,0.8-1.6,0.9L21,53c0.4,0,0.8,0.2,1.1,0.5L33.1,45z M34.2,68.1L46,64.2l0,0
	c-3.8-0.8-5.6-3.9-5.6-4l-5.5-13.6l-2,19.9C33.5,66.7,34,67.3,34.2,68.1z M30.4,66.5c0.4-0.2,0.8-0.4,1.3-0.4c0.1,0,0.1,0,0.2,0
	l2.1-20.4l-11.2,8.6c0.1,0.2,0.1,0.4,0.1,0.6c0,0.4-0.1,0.8-0.4,1.1L30.4,66.5z M31.7,70.4c0.9,0,1.6-0.7,1.6-1.6s-0.7-1.6-1.6-1.6
	S30,67.8,30,68.7S30.8,70.4,31.7,70.4z M61.5,23.5h-1.3v1.3h1.3V23.5z M75.3,56.2l-0.1,18.5h0.1l9.8-12.6v-2.2l-8.8-4.4
	C76,55.8,75.7,56.1,75.3,56.2z M74.8,55.3c0.5,0,0.9-0.4,0.9-0.9s-0.4-0.9-0.9-0.9s-0.9,0.4-0.9,0.9S74.3,55.3,74.8,55.3z
	 M74.3,56.2c-0.1,0-0.1,0-0.2-0.1l-8.1,11.6c0.5,0.5,0.9,1.2,0.9,1.9c0,0.3-0.1,0.7-0.2,1l7,4.1h0.4L74.3,56.2z M76.7,54.3
	c0,0.1,0,0.2,0,0.3l9,4.5h0.7l2.3-18.6L76.7,54C76.7,54.1,76.7,54.2,76.7,54.3z M64.3,72.3c-0.2,0-0.4,0-0.6-0.1l-13.9,12l23.3-7.9
	v-0.9l-6.9-4C65.7,72,65.1,72.3,64.3,72.3z M47.7,76.6c0.5,0,0.9-0.4,0.9-0.9s-0.4-0.9-0.9-0.9s-0.9,0.4-0.9,0.9
	S47.2,76.6,47.7,76.6z M47.2,77.5c-0.8-0.2-1.4-1-1.4-1.9c0-0.1,0-0.2,0-0.3l-12.1-5c-0.1,0.1-0.2,0.2-0.3,0.3l13.4,13.2h0.5
	L47.2,77.5z M31.7,71.4c-0.8,0-1.5-0.4-2-1l-7.3,5v0.8l23.6,8.2L32.5,71.2C32.2,71.3,32,71.4,31.7,71.4z M62.1,71.1L49.6,76
	c-0.1,0.7-0.7,1.3-1.4,1.5l0,6.4h0.4l14-12.1C62.5,71.6,62.2,71.4,62.1,71.1z M83.5,21.9h0.3v-1.3h-1.3h-0.1h0v1.3h0H83.5z
	 M47.1,84.9L47.1,84.9l0,1.3h1.3v-1h0v-0.3h0H47.1z M74.1,75.7L74.1,75.7l0,1.3h1.3v-1.3h-0.3H74.1z M66.1,6.2L66.1,6.2l0-0.1l0,0
	V4.9h-1.3v1.3h0H66.1z M64.3,71.3c0.9,0,1.6-0.7,1.6-1.6s-0.7-1.6-1.6-1.6c-0.9,0-1.6,0.7-1.6,1.6S63.4,71.3,64.3,71.3z M8.9,59.6
	H8.2v1.3h1.3v-0.2l0,0v-1.2h0H8.9z M48.4,2.5L48.4,2.5l0-0.4h0V1.2h-1.3v1.3h0H48.4z M23,6.9L23,6.9L23,6h0V5.6h-1.3v1.3h0H23z
	 M13.6,15.6L13.6,15.6l0-0.7l0,0v-0.6h-1.3v1.3h1H13.6z M20.8,75.7H20V77h1.3v-0.8h0v-0.5h0H20.8z M49.6,11.9c0,0.1,0,0.1,0,0.2
	l10.6,3.6c0.5-0.6,1.2-1,1.9-1l1.7-7.3l-14.4,3.9C49.6,11.4,49.6,11.7,49.6,11.9z M63.1,14.8c1,0.4,1.7,1.3,1.7,2.5
	c0,0.1,0,0.2,0,0.3l16.3,2.6L66.4,7.2h-1.4L63.1,14.8z M48.2,10.1c0.2,0.1,0.5,0.2,0.7,0.3l14.9-4V5.8L49.4,3v0.5h-1.2L48.2,10.1z
	 M88.1,37.1h0.3l-5.2-14.2h-0.1l-5.8,19.3c0.4,0.2,0.7,0.6,0.9,0.9l9.8-3.6V37.1z M74.4,44.4c0,0.9,0.7,1.6,1.6,1.6s1.6-0.7,1.6-1.6
	s-0.7-1.6-1.6-1.6S74.4,43.5,74.4,44.4z M74.3,52.5l0.7-5.6c-0.8-0.3-1.4-1.1-1.6-1.9l-11.8-0.5v0.3l12,8
	C73.9,52.6,74.1,52.5,74.3,52.5z M72.9,54.3c0-0.3,0.1-0.6,0.2-0.8l-12-8h-0.2L64,67.1c0.1,0,0.2,0,0.3,0c0.3,0,0.6,0.1,0.9,0.2
	l8.1-11.7C73,55.2,72.9,54.8,72.9,54.3z M29,68.7c0-0.6,0.2-1.2,0.6-1.6l-8.1-10.5c-0.2,0.1-0.4,0.1-0.5,0.1l0.5,17.9l7.6-5.2
	C29.1,69.3,29,69,29,68.7z M47.7,11c-0.5,0-0.9,0.4-0.9,0.9s0.4,0.9,0.9,0.9s0.9-0.4,0.9-0.9S48.2,11,47.7,11z M86.9,41l-8.3,3
	c0,0.1,0,0.2,0,0.3c0,1.4-1.2,2.6-2.6,2.6c0,0,0,0,0,0l-0.6,5.4c0.3,0.1,0.6,0.3,0.8,0.5L86.9,41z M10.5,58.6v0.3l8.4-3.9
	c0,0,0-0.1,0-0.1c0-0.2,0-0.4,0.1-0.7L6.7,40.4l2.5,18.2H10.5z M20.5,74.7L20,56.6c-0.3-0.2-0.6-0.4-0.8-0.7L10.5,60v1.5L20.5,74.7
	L20.5,74.7z M20.8,55.8c0.5,0,0.9-0.4,0.9-0.9S21.3,54,20.8,54s-0.9,0.4-0.9,0.9S20.3,55.8,20.8,55.8z M1.1,36.6l9.2-1.2
	c0.1-0.6,0.4-1.1,0.8-1.4L5.6,22.6l-5,13.7h0.4V36.6z M29,14.8l-1.9-7.7l-0.9,0L12.3,20.4l15.5-3.7C28,15.9,28.4,15.2,29,14.8z
	 M32.9,14.6c0.9,0,1.7,0.4,2.1,1.1l10.8-3.5c0-0.1,0-0.2,0-0.3c0-0.1,0-0.3,0-0.4L31.8,6.7v0.6h-0.7l1.5,7.4
	C32.7,14.7,32.8,14.6,32.9,14.6z M25.1,22.5h3.3v0.7h5v-0.7h0.8l-1.1-2.6c-0.1,0-0.1,0-0.2,0c-1.2,0-2.3-0.9-2.6-2l-16.9,3.3v0.8
	l11.7,1.6V22.5z M16.9,35.1c0.2,0,0.5,0,0.7,0.1l5.2-8.3h-0.1v-1.2l-12.2-1.7h0l5.4,11.3C16.2,35.1,16.5,35.1,16.9,35.1z M0,6.8
	C0.3,6.9,0.5,7,0.7,7.2L16,4.8L16,4.2L2-0.1L1.9,0.4L0.7,0.3L0,6.8z M7,22.1L6.2,11l-5.5,3.7c0.2,0.5,0.1,1.1-0.3,1.7l5.9,6
	c0,0,0.1,0,0.1-0.1C6.6,22.1,6.8,22.1,7,22.1z"/>
</svg>
