<svg xmlns="http://www.w3.org/2000/svg" x="0px" y="0px"
	 viewBox="0 0 32 33" style="enable-background:new 0 0 32 33;" xml:space="preserve">
<style type="text/css">
	.st0{fill-rule:evenodd;clip-rule:evenodd;fill:#373D43;}
	.st1{fill:#FFFFFF;}
	.st2{fill:#DA251D;}
	.st3{fill:#FFFF00;}
</style>
<path class="st0" d="M24.5,15c4.1,0,7.5-3.4,7.5-7.5S28.6,0,24.5,0S17,3.4,17,7.5S20.4,15,24.5,15z"/>
<g>
	<path class="st1" d="M26.8,11H22c-0.1,0-0.3,0.1-0.3,0.3v0.4c0,0.1,0.1,0.3,0.3,0.3h4.8c0.1,0,0.3-0.1,0.3-0.3v-0.4
		C27,11.1,26.9,11,26.8,11z"/>
	<path class="st1" d="M27.6,3.4h-1v-1h-1.2v0.9h-1.8c-0.1,0-0.3,0.1-0.3,0.3V4c0,0.1,0.1,0.2,0.1,0.2l0,0l0,0c0,0,0,0,0.1,0h1.8v1.3
		l0,0c-0.3-0.4-0.9-0.8-1.7-0.8c-1.4,0-2.6,1.1-2.6,2.9c0,1.6,1.1,2.7,2.4,2.7c0.9,0,1.6-0.4,1.9-1l0,0v0.9h1.1c0-0.4,0-0.9,0-1.4
		V4.3h1c0.1,0,0.3-0.1,0.3-0.3V3.6C27.8,3.5,27.7,3.4,27.6,3.4z M25.2,7.9c0,0.1,0,0.3-0.1,0.4c-0.2,0.7-0.8,1.1-1.5,1.1
		c-1,0-1.5-0.8-1.5-1.8c0-1.1,0.6-1.9,1.6-1.9c0.7,0,1.3,0.5,1.4,1.1c0,0.1,0,0.3,0,0.4v0.7H25.2z"/>
</g>
<path class="st2" d="M24.5,17c-5.3,0-9.5-4.3-9.5-9.5c0-1.2,0.2-2.3,0.6-3.4C8.7,3.3,2.1,7.7,0.4,14.6c-1.9,7.5,2.7,15.1,10.2,17
	s15.1-2.7,17-10.2c0.4-1.7,0.5-3.4,0.3-5C26.8,16.8,25.7,17,24.5,17z"/>
<polygon class="st3" points="16.6,19.5 20.7,16.5 15.7,16.5 14,11.7 12.5,16.5 7.3,16.5 11.4,19.5 9.9,24.3 14,21.4 18.1,24.3 "/>
</svg>
