<?xml version="1.0" encoding="utf-8"?>
<!-- Generator: Adobe Illustrator 27.0.0, SVG Export Plug-In . SVG Version: 6.00 Build 0)  -->
<svg version="1.1" id="图层_1" xmlns="http://www.w3.org/2000/svg" xmlns:xlink="http://www.w3.org/1999/xlink" x="0px" y="0px"
	 viewBox="0 0 142.7 239.4" style="enable-background:new 0 0 142.7 239.4;" xml:space="preserve">
<style type="text/css">
	.st0{fill:#FFFFFF;}
</style>
<path class="st0" d="M26.5,239.4c-0.2-2.4,4.3-15.1,10.1-29.6c3.8-9.6,7.3-19.3,11-28.9c3.7-9.7,7.4-19.3,11.1-29
	c-0.9-0.9-1.9-0.6-2.8-0.7c-3.8,0-7.6,0-11.5,0c-1,0-2,0.1-2.9-0.5C39.8,148.2,0.1,49.1,0,47c1.6-0.7,20.8-0.9,25.2-0.2
	c8.9,23.3,17.4,47,26.5,71.2c2.3-5,3.8-9.7,5.6-14.4c1.8-4.7,3.6-9.5,5.3-14.2c1.8-4.7,3.5-9.5,5.3-14.3c1.8-4.8,3.5-9.5,5.3-14.3
	c1.8-4.7,3.6-9.4,5.4-14.4c7.5,0,14.9,0,22.5,0c3.4-8,6.6-15.8,10-23.5c3.4-7.7,6.3-15.6,10.4-22.9
	C119.7,12.1,38.1,217.7,26.5,239.4z"/>
<path class="st0" d="M69.1,146.4c6.1-15.2,12.2-30.5,18.2-45.6c11.1-6.6,42.9,0.3,51.8,11c-0.6,2-9.5,15.1-11.6,17
	c-1.2,0.2-2-0.6-2.9-1.2c-4-2.5-8.2-4.7-12.7-6.3c-5-1.8-10.2-2.2-15.5-1.7c-1.5,0.1-2.9,0.7-4.3,1.3c-6.5,3.3-5.5,11.8-0.5,14.4
	c3.3,1.7,6.7,2.9,10.2,3.9c7.5,2.2,15.2,3.7,22.3,7c6.5,2.9,12.3,6.7,15.6,13.4c2.9,5.9,3.5,12.2,2.4,18.7
	c-2.2,13.4-10.4,21.3-23,25c-8.3,2.4-16.7,2.5-25.2,1.2c-12.2-1.9-23-6.8-32.5-14.7c-0.3-0.3-0.7-0.4-0.7-0.4
	c-0.3-1.3,0-1.8,0.4-2.4c3.9-4.7,7.8-9.3,11.7-14c0.3-0.3,0.6-0.6,1.4-0.7c0.6-0.1,1,0.6,1.6,1.1c5.1,3.9,10.5,7.3,16.7,9.2
	c6.8,2.1,13.7,2.7,20.6,0.5c5-1.6,7.3-6.4,5.6-11.1c-0.8-2.2-2.5-3.5-4.4-4.6c-3.4-1.8-7-2.9-10.7-4c-7.4-2.1-15-3.7-22.1-6.9
	c-4.4-2-8.6-4.4-11.7-8.3c-0.3-0.3-0.5-0.7-0.7-1C69.2,147,69.2,146.9,69.1,146.4z"/>
</svg>
