<svg xmlns="http://www.w3.org/2000/svg" xmlns:xlink="http://www.w3.org/1999/xlink" x="0px"
	 y="0px" viewBox="0 0 800 800" style="enable-background:new 0 0 800 800;" xml:space="preserve">
<style type="text/css">
	.st0{fill:#56B4FC;}
	.st1{fill:#0052FF;}
</style>
<path id="secondary" class="st0" d="M397.9,74.6L246.7,290h-42.1c-13.4-0.1-25.7-7.6-31.9-19.6c-5.8-11.6-5-25.4,2.2-36.3
	L302.2,52.9c5.1-8.5,13.5-14.5,23.2-16.7c9.5-1.8,19.3,0.3,27.2,5.8L397.9,74.6z M711.9,131.2L533.9,6.5c-16.4-11.4-39-7.3-50.4,9.1
	l-56.2,79.8L292.4,290h335.4c11-0.8,21-6.5,27.2-15.6l66-93.2c11.4-16.4,7.3-39-9.1-50.4V131.2z"/>
<path class="st1" d="M727.5,217.5H147.3c-40.1,0-72.5,32.5-72.5,72.5v182.6c25.2-12.6,53.7-19.6,83.7-19.6
	c104,0,188.5,84.6,188.5,188.5c0,30-7.1,58.4-19.6,83.7h400c40.1,0,72.5-32.5,72.5-72.5V290C800,250,767.5,217.5,727.5,217.5z"/>
<path id="secondary-2" class="st0" d="M618.7,398.8H800l0,0v145l0,0H618.7c-20,0-36.3-16.2-36.3-36.3V435
	C582.4,415,598.7,398.8,618.7,398.8z"/>
<path class="st0" d="M158.5,482.9C71,482.9,0,553.9,0,641.5S71,800,158.5,800s158.5-71,158.5-158.5S246.1,482.9,158.5,482.9z
	 M250,657.1c-13.2,13.2-34.7,13.2-47.9,0l-9.8-10.1v87.4c0,18.6-15.1,33.8-33.8,33.8s-33.8-15.1-33.8-33.8V647l-9.8,10.1
	c-0.1,0.1-0.1,0.1-0.2,0.2c-13.2,13.1-34.6,13-47.7-0.2c-0.1-0.1-0.1-0.1-0.2-0.2c-13.1-13.2-13-34.6,0.2-47.7l67.5-67.5
	c0.1-0.1,0.1-0.1,0.2-0.2c13.2-13.1,34.6-13,47.7,0.2l67.5,67.5C263.3,622.4,263.3,643.9,250,657.1z"/>
</svg>
