<svg xmlns="http://www.w3.org/2000/svg" x="0px" y="0px"
	 viewBox="0 0 768 438.2" style="enable-background:new 0 0 768 438.2;" xml:space="preserve">
<style type="text/css">
	.st0{fill:#B8C9C8;}
	.st1{fill:#FFFFFF;}
	.st2{fill:#898D9F;}
	.st3{font-family:'ArialMT';}
	.st4{font-size:11.9503px;}
	.st5{fill:url(#SVGID_1_);}
	.st6{opacity:0.2;fill:#D2D4DE;enable-background:new    ;}
	.st7{fill:url(#SVGID_00000044163022635584524560000011387077868250696376_);}
	.st8{fill:url(#SVGID_00000113343509878003793840000003366398277893034143_);}
	.st9{fill:#D2D4DE;}
	.st10{fill:url(#SVGID_00000049931857114715533870000016999672514746096808_);}
	.st11{fill:#8391A3;}
	.st12{fill:none;stroke:#FDFEFF;stroke-width:0.5;stroke-miterlimit:10;}
	.st13{fill:#8690A3;}
	.st14{fill:#29303E;}
	.st15{fill:#5E6C7B;}
	.st16{fill:#364254;}
	.st17{fill:#1B1C23;}
	.st18{fill:#0052FF;}
	.st19{fill:#222423;}
	.st20{fill:#18181A;}
	.st21{font-size:9.7004px;}
	.st22{fill:url(#SVGID_00000020382173906002054400000018102221523405783940_);}
	.st23{fill:url(#SVGID_00000018236251277296021070000009618861420842246539_);}
	.st24{fill:url(#SVGID_00000155865131420490860120000010679440947438853024_);}
	.st25{fill:url(#SVGID_00000032615837922761879540000004694138792809997198_);}
	.st26{fill:url(#SVGID_00000072282457163844089830000007666687554882599092_);}
</style>
<rect y="-0.8" class="st0" width="768" height="439"/>
<path class="st1" d="M480.1,392.3H288.5c-14.8,0-26.8-12-26.8-26.8v-295c0-14.8,12-26.8,26.8-26.8h191.6c14.8,0,26.8,12,26.8,26.8
	v295C507,380.3,494.9,392.3,480.1,392.3z"/>
<g>
	<text transform="matrix(1 0 0 1 346.6846 326.8271)"><tspan x="0" y="0" class="st2 st3 st4">60X leverage</tspan><tspan x="0" y="14.3" class="st2 st3 st4">Automatic loan repayment</tspan><tspan x="0" y="28.7" class="st2 st3 st4">profit guarantee</tspan><tspan x="0" y="43" class="st2 st3 st4">First-time fee exemption</tspan></text>
</g>
<linearGradient id="SVGID_1_" gradientUnits="userSpaceOnUse" x1="384.6302" y1="724.7281" x2="383.2698" y2="944.5718" gradientTransform="matrix(1 0 0 1 0 -640)">
	<stop  offset="3.026530e-02" style="stop-color:#1B1C23"/>
	<stop  offset="1" style="stop-color:#0054F9"/>
</linearGradient>
<rect x="274.7" y="85.4" class="st5" width="218.5" height="218.5"/>
<path class="st6" d="M449.5,310c-21.2,0-38.3,17.1-38.3,38.3c0,21.2,17.1,38.3,38.3,38.3c21.2,0,38.3-17.1,38.3-38.3
	C487.7,327,470.7,310,449.5,310z M442.3,374.7c0,0.3,0,0.5-0.2,0.6c-0.2,0.6-0.8,1-1.4,0.6c-8.9-2.9-15.8-9.7-18.6-18.6
	c-4.8-15.1,3.5-31.2,18.6-36c0.2-0.2,0.5-0.2,0.6-0.2c0.6,0.2,1,0.6,1,1.3v2.2c0,0.8-0.3,1.3-1,1.6c-6.5,2.4-11.8,7.5-14.2,14.2
	c-4.6,12.3,1.8,26.1,14.2,30.6c0.5,0.3,1,1,1,1.4V374.7z M452,366.6c-0.2,0.8-0.6,1.3-1.3,1.3h-2.4c-0.8-0.2-1.3-0.6-1.3-1.3v-3.8
	c-5.3-0.8-7.8-3.7-8.4-7.7v-0.2c0-0.6,0.5-1.1,1.1-1.1h2.7c0.5,0,1,0.3,1.1,1c0.5,2.4,1.9,4.1,6.1,4.1c3,0,5.3-1.8,5.3-4.3
	s-1.4-3.5-5.9-4.3c-6.7-0.8-9.9-2.9-9.9-8.1c0-4,3-7.2,7.8-7.8v-3.7c0.2-0.8,0.6-1.3,1.3-1.3h2.4c0.8,0.2,1.3,0.6,1.3,1.3v3.8
	c3.7,0.3,6.5,3,7.2,6.5v0.2c0,0.6-0.5,1.1-1.1,1.1h-2.6c-0.5,0-1-0.3-1.1-0.8c-0.8-2.4-2.4-3.3-5.3-3.3c-3.2,0-4.8,1.4-4.8,3.7
	c0,2.2,1,3.5,5.7,4.1c6.7,0.8,10,2.7,10,8.3l0,0c0,4.3-3.2,7.7-8,8.4L452,366.6L452,366.6z M458.2,376.1c-0.2,0.2-0.5,0.2-0.6,0.2
	c-0.6-0.2-1-0.6-1-1.3v-2.2c0-0.8,0.3-1.3,1-1.6c6.5-2.4,11.8-7.5,14.2-14.2c4.6-12.3-1.8-26.1-14.2-30.6c-0.5-0.3-1-1-1-1.6v-2.2
	c0-0.3,0-0.5,0.2-0.6c0.2-0.6,0.8-1,1.4-0.6l0,0c8.8,2.9,15.8,9.7,18.6,18.8C481.7,355.2,473.4,371.4,458.2,376.1z"/>
<linearGradient id="SVGID_00000147910330080743122150000010988250657262905248_" gradientUnits="userSpaceOnUse" x1="-18.3704" y1="1155.7141" x2="245.63" y2="903.044" gradientTransform="matrix(1 0 0 1 0 -640)">
	<stop  offset="3.026530e-02" style="stop-color:#1B1C23"/>
	<stop  offset="1" style="stop-color:#0054F9"/>
</linearGradient>
<path style="fill:url(#SVGID_00000147910330080743122150000010988250657262905248_);" d="M316.8,428.3
	c-82.5-3.7-127.9-54.6-127.9-54.6C69.9,230.7,13.8,201.4-0.3,195.9v242.4h378.9C360.4,433.2,339.6,429.3,316.8,428.3z"/>
<linearGradient id="SVGID_00000152949950647399411070000016798981083152837521_" gradientUnits="userSpaceOnUse" x1="397.3643" y1="911.7247" x2="189.2903" y2="990.4653" gradientTransform="matrix(1 0 0 1 0 -640)">
	<stop  offset="0.2573" style="stop-color:#D2D4DE"/>
	<stop  offset="1" style="stop-color:#313B4B"/>
</linearGradient>
<path style="fill:url(#SVGID_00000152949950647399411070000016798981083152837521_);" d="M325.4,229.9c0,0-2.5,70.1,49.6,164.2
	c0,0-67.8,21.1-89.1,4.5c0,0-28.3-105.3,2.2-164.3s48.1-51.3,48.1-51.3S324.9,216.1,325.4,229.9z"/>
<path class="st9" d="M427.2,303.9c0,0-11.3-5.7-22.8-36.3c-11.6-30.7-25.8-68.6-25.8-68.6s-15.3-19.7-42.3-16.1
	c0,0-8.7,15.8-11.3,41.5c-2.2,21.2,0.1,49.3,12.4,79.4h89.8L427.2,303.9L427.2,303.9z"/>
<linearGradient id="SVGID_00000067236452047367531740000016308171066958093746_" gradientUnits="userSpaceOnUse" x1="378.6" y1="879.2576" x2="509.1929" y2="879.2576" gradientTransform="matrix(1 0 0 1 0 -640)">
	<stop  offset="0.2573" style="stop-color:#D2D4DE"/>
	<stop  offset="1" style="stop-color:#313B4B"/>
</linearGradient>
<path style="fill:url(#SVGID_00000067236452047367531740000016308171066958093746_);" d="M378.6,199l25.8,68.6
	c0,0,32.2,15.6,102.6,11.1c0,0,6.6-14.3-3.1-42.6c-3.3-9.5-9.7-16.1-17.2-30.7C486.7,205.4,419.7,228.8,378.6,199z"/>
<path class="st11" d="M330,403.8c0,0,2.6,11.1,8.9,12c0,0,3.9,0.7,4.2-2s-2.6-8.4-4.3-10.9L330,403.8z"/>
<path class="st12" d="M340.9,409.8c-0.4-0.3-0.8-0.5-1.3-0.4c-0.7,0.1-1.6,0.7-1.8,1.4c-0.3,1.1,0.3,2.4,0.7,3.1
	c0.5,0.6,0.9,1.4,2.3,1.4c1,0,2.5-0.8,1.6-3C342,411.1,341.6,410.4,340.9,409.8z"/>
<path class="st13" d="M336.8,175.3l0.6,19.9c0,0,11.5,3.4,24.8,0l-2.3-12.6L336.8,175.3z"/>
<path class="st14" d="M336.8,176.1v1.4c3.4,3,15,12.6,24.4,16.2h0.7l-2-11l-22.2-7L336.8,176.1z"/>
<path class="st11" d="M324.5,405c0,0-0.5,3.5,0,5.4s3.5,8.1,3.5,8.1s10.2,1.3,12,1.9s4.8,1.6,4.5,4.5c0,0-4.6,1.4-6.4,1.4
	s-10,1.2-15.6-0.9l-14.6-18c0,0-0.1-1.2-0.4-2.4H324.5z"/>
<path class="st15" d="M328,418.4c0,0,6.5,0.8,10,1.5c1.4-0.1,2.3-0.2,2.3-0.2l4.1-1c-0.1-1.7-1-3-1.8-3.8c-1.1,1.3-3.8,0.9-3.8,0.9
	c-1.1-0.2-2.1-0.6-3-1.3l-3.5,0.9h-5.5c0,0,0,0.3,0,0.7C327.5,417.4,328,418.4,328,418.4z"/>
<path class="st16" d="M327.2,416.8l2.4,0.1l6.7-2.2l0,0c-1.3-0.9-2.4-2.2-3.3-3.6l-7.6,1.8C326,414.3,326.7,415.7,327.2,416.8z"/>
<path class="st17" d="M324.3,408.3c0,0.7,0.1,1.4,0.2,2s0.5,1.5,0.9,2.5l6.7-2.7v-0.6c-0.5-1.1-1-2.1-1.3-3
	c-0.6-0.1-1.2-0.2-1.6-0.2l-5,1.5L324.3,408.3L324.3,408.3z"/>
<path class="st18" d="M585.5,157.4c0,24.2-19.6,43.8-43.8,43.8c-24.2,0-43.8-19.6-43.8-43.8s19.6-43.8,43.8-43.8
	C565.9,113.6,585.5,133.2,585.5,157.4L585.5,157.4z"/>
<path class="st1" d="M519.1,181.5h20.6v-18.6l-3.8,6.1c-0.6,1-2,1.3-3,0.7s-1.3-2-0.7-3l5.5-8.7l-7.2,3c-1.3,0.7-3,0.3-3.7-1
	c-0.3-0.5-0.4-1.1-0.3-1.7v-8.4c-0.2-1.5,0.9-2.9,2.4-3c0.6-0.1,1.2,0,1.7,0.3l9.3,3.8v-18.5h-20.6c-1,0-1.7,0.8-1.7,1.7v45.5
	C517.3,180.7,518.1,181.5,519.1,181.5z"/>
<path class="st1" d="M566.3,134.2c0-1-0.8-1.7-1.7-1.7l0,0H544V151l9.3-3.8c1.3-0.7,3-0.3,3.7,1c0.3,0.5,0.4,1.1,0.3,1.7v8.4
	c0.2,1.5-0.9,2.9-2.4,3c-0.6,0.1-1.2,0-1.7-0.3l-7.2-3l5.5,8.7c0.6,1,0.3,2.4-0.7,3c-1,0.6-2.4,0.3-3-0.7l-3.8-6.1v18.6h20.6
	c1,0,1.7-0.8,1.7-1.7l0,0L566.3,134.2L566.3,134.2z"/>
<path class="st19" d="M503.9,236.1c-3.3-9.5-9.7-16.1-17.2-30.7c-2,1.6-17.4,18.7,20.3,73.3C507,278.7,513.5,264.3,503.9,236.1z"/>
<path class="st1" d="M344.1,136.2h29.3l1.6-7.5l1.7,6.9l4.1,0.4l3.2,0.3c0,0,1.8-14.1-10.1-23s-35.6-7.4-45.6-1
	s-18.6,21.1-14.7,51.4c0,0,11.2,16.1,27.4,13.4c1.3-0.2,2.6-0.6,4-1.1L344.1,136.2z"/>
<path class="st11" d="M376.7,135.5l-1.7-6.9l-1.6,7.5h-29.3l0.9,39.7c-1.3,0.5-2.6,0.8-3.8,1c2.8,3.3,8.6,8,17.8,6.6
	c13.7-2,16-7.5,16-7.5s6.3-6.6,6.3-20.3c0-9.3-0.1-15.6-0.6-19.8L376.7,135.5z"/>
<path class="st16" d="M367.4,148.9l-4,10.3c0,0,3.8,1,5.1,0.7s2.2,0.3,1.6-2.9C369.6,153.8,367.4,148.9,367.4,148.9z"/>
<path class="st11" d="M555.9,193.1c0,0-1.9-5.2-2.8-6.3s-3.8-3.2-3.8-3.2l-4.8-3.2c0,0-2.8,1-2.5,3.4s1.8,3.1,2.8,3.9s2.2,2,2.6,2.9
	c0.4,0.9,1.9,3.8,1.9,3.8l0.5,1.2l-2.2,1.5l-2-3.5c0,0-0.7-1.5-2.6-2.6c-1.9-1.1-6.9-2.6-7.7-1.3c-0.8,1.2,0,3.7,1.2,4.1
	c1.2,0.5,4.9,2.3,5,2.8s0.2,3.5,0.2,3.5v1.2c0,0-13.2,0.1-23.8-7.2c0,0-2.8,2.2-4.7,7.2c0,0-8.3,4.7-30.2,9.8c0,0-3.3,11.3,1.7,24.9
	c0,0,34.3-13.5,43.6-19.3c0,0,6.9-2.6,10.7-3.2s12.6-6.6,13.9-10.3c0,0,6.8-3.3,8-4.5s1.6-0.8,2.3-2.4c0.2-0.4,14.1-8.1,14.3-8.7
	c0-0.1-1.1-1.9-2.3-2.5c-5.6,6.5-10.2,9.6-11.6,9.9c0.4-1,0.4-1.4,0.5-1.6c0.5-1.5,0.9-3.3,1.2-4.7c0.5-2.6,0.8-6.1,0.9-8
	c0.1-2,0.9-5.4-1.3-5.4c-2.2,0.1-4,1.9-4.1,4.3c-0.1,2.3,0,4.1-0.5,5.8s-1.7,5.1-2.1,5.8C557.6,191.9,555.9,193.1,555.9,193.1z"/>
<path class="st12" d="M540.3,190.5c0,0,0.3,0.8-0.6,1.2c-0.6,0.2-1.3,0.1-2.2-0.2s-1.6-1.1-1.8-1.6S540.1,189.6,540.3,190.5z"/>
<path class="st12" d="M547.8,183.6c0,0-0.2,0.9-1.4,0.7s-2.8-1-3-1.6s0-1.3,0-1.3s0.8-1.1,2.2-0.2
	C546.9,182,547.8,182.8,547.8,183.6z"/>
<path class="st12" d="M565.6,175.8c0,0-1.7,0.7-1.7,2.9c0,1.1,0.5,2.8,1.4,2.9s0.9-2.8,0.9-2.8S566.3,175.9,565.6,175.8z"/>
<path class="st12" d="M572.3,190.5c0,0,0.3-1.5,1.9-2.2c2.1-0.9,2.6-0.6,2.6-0.6L572.3,190.5z"/>
<path class="st20" d="M481.4,65.9L481.4,65.9c-0.6,0-1.2-0.5-1.2-1.2l0,0c0-0.6,0.5-1.2,1.2-1.2l0,0c0.6,0,1.2,0.5,1.2,1.2l0,0
	C482.6,65.4,482.1,65.9,481.4,65.9z"/>
<path class="st20" d="M485,65.9L485,65.9c-0.6,0-1.2-0.5-1.2-1.2l0,0c0-0.6,0.5-1.2,1.2-1.2l0,0c0.6,0,1.2,0.5,1.2,1.2l0,0
	C486.1,65.4,485.6,65.9,485,65.9z"/>
<path class="st20" d="M488.4,65.9L488.4,65.9c-0.6,0-1.2-0.5-1.2-1.2l0,0c0-0.6,0.5-1.2,1.2-1.2l0,0c0.6,0,1.2,0.5,1.2,1.2l0,0
	C489.6,65.4,489.1,65.9,488.4,65.9z"/>
<text transform="matrix(1 0 0 1 312.6158 68.5032)" class="st2 st3 st21">Newbie card</text>
<linearGradient id="SVGID_00000088124936145982906720000010468582989140325787_" gradientUnits="userSpaceOnUse" x1="779.1924" y1="626.0464" x2="660.8033" y2="739.2992" gradientTransform="matrix(1 0 0 1 0 -640)">
	<stop  offset="3.026530e-02" style="stop-color:#1B1C23"/>
	<stop  offset="1" style="stop-color:#0054F9"/>
</linearGradient>
<path style="fill:url(#SVGID_00000088124936145982906720000010468582989140325787_);" d="M768,151V-0.8H604.2
	C627.1,33.2,680.3,100.9,768,151z"/>
<linearGradient id="SVGID_00000118373783913091950870000002144058074700345246_" gradientUnits="userSpaceOnUse" x1="44.7558" y1="719" x2="79.5558" y2="719" gradientTransform="matrix(1 0 0 1 0 -640)">
	<stop  offset="3.026530e-02" style="stop-color:#1B1C23"/>
	<stop  offset="1" style="stop-color:#313B4B"/>
</linearGradient>
<path style="fill:url(#SVGID_00000118373783913091950870000002144058074700345246_);" d="M79.6,79c-9.6,0-17.4,7.8-17.4,17.4
	c0-9.6-7.8-17.4-17.4-17.4c9.6,0,17.4-7.8,17.4-17.4C62.2,71.2,70.1,79,79.6,79z"/>
<polygon class="st1" points="707.2,265 705,254.8 703,265 692.7,267.1 703,269.3 705,279.5 707.2,269.3 717.4,267.1 "/>
<linearGradient id="SVGID_00000140000595995407025930000004570122912663953293_" gradientUnits="userSpaceOnUse" x1="607.7116" y1="768" x2="635.7538" y2="768" gradientTransform="matrix(1 0 0 1 0 -640)">
	<stop  offset="3.026530e-02" style="stop-color:#1B1C23"/>
	<stop  offset="1" style="stop-color:#313B4B"/>
</linearGradient>
<path style="fill:url(#SVGID_00000140000595995407025930000004570122912663953293_);" d="M635.8,128c-7.7,0-14,6.3-14,14
	c0-7.7-6.3-14-14-14c7.7,0,14-6.3,14-14C621.7,121.8,628.1,128,635.8,128z"/>
<path class="st1" d="M565,340.3c-3.9,0-7,3.1-7,7c0-3.9-3.1-7-7-7c3.9,0,7-3.1,7-7C558,337.1,561.2,340.3,565,340.3z"/>
<linearGradient id="SVGID_00000121271096601064171440000009947596164157237179_" gradientUnits="userSpaceOnUse" x1="161.2487" y1="874.25" x2="185.9487" y2="874.25" gradientTransform="matrix(1 0 0 1 0 -640)">
	<stop  offset="3.026530e-02" style="stop-color:#1B1C23"/>
	<stop  offset="1" style="stop-color:#313B4B"/>
</linearGradient>
<polygon style="fill:url(#SVGID_00000121271096601064171440000009947596164157237179_);" points="175.7,232.2 173.5,221.9 
	171.5,232.2 161.2,234.2 171.5,236.4 173.5,246.6 175.7,236.4 185.9,234.2 "/>
<linearGradient id="SVGID_00000125575907982684626150000017451587179663343769_" gradientUnits="userSpaceOnUse" x1="566.2" y1="421.5" x2="566.2" y2="421.5" gradientTransform="matrix(1 0 0 -1 0 440)">
	<stop  offset="3.026530e-02" style="stop-color:#1B1C23"/>
	<stop  offset="1" style="stop-color:#0054F9"/>
</linearGradient>
<path style="fill:url(#SVGID_00000125575907982684626150000017451587179663343769_);" d="M566.2,18.5"/>
<path class="st18" d="M303.9,64.7c0,7.4-6,13.4-13.4,13.4c-7.4,0-13.4-6-13.4-13.4c0-7.4,6-13.4,13.4-13.4S303.9,57.3,303.9,64.7
	L303.9,64.7z"/>
<path class="st1" d="M283.6,72h6.3v-5.7l-1.2,1.9c-0.2,0.3-0.6,0.4-0.9,0.2c-0.3-0.2-0.4-0.6-0.2-0.9l1.7-2.6l-2.2,0.9
	c-0.4,0.2-0.9,0.1-1.1-0.3c-0.1-0.2-0.1-0.3-0.1-0.5v-2.6c-0.1-0.5,0.3-0.9,0.7-0.9c0.2,0,0.4,0,0.5,0.1l2.8,1.2v-5.6h-6.3
	c-0.3,0-0.5,0.2-0.5,0.5v13.9C283.1,71.8,283.3,72,283.6,72z"/>
<path class="st1" d="M298,57.6c0-0.3-0.2-0.5-0.5-0.5l0,0h-6.3v5.7l2.8-1.2c0.4-0.2,0.9-0.1,1.1,0.3c0.1,0.2,0.1,0.3,0.1,0.5V65
	c0.1,0.5-0.3,0.9-0.7,0.9c-0.2,0-0.4,0-0.5-0.1l-2.2-0.9l1.7,2.6c0.2,0.3,0.1,0.7-0.2,0.9s-0.7,0.1-0.9-0.2l-1.2-1.9V72h6.3
	c0.3,0,0.5-0.2,0.5-0.5l0,0V57.6L298,57.6z"/>
</svg>
