<svg xmlns="http://www.w3.org/2000/svg" x="0px" y="0px"
	 viewBox="0 0 768 439" style="enable-background:new 0 0 768 439;" xml:space="preserve">
<style type="text/css">
	.st0{fill:#006BF0;}
	.st1{fill:#7C3929;}
	.st2{fill:#F4CF4F;}
	.st3{fill:#F46C3D;}
	.st4{fill:#F36C3D;}
	.st5{fill:#0062FF;}
	.st6{fill:#0062FF;stroke:#000000;stroke-width:2;stroke-miterlimit:10;}
	.st7{fill:#FFFFFF;}
	.st8{fill:#FFD200;}
	.st9{fill:#F5D04F;}
	.st10{fill:#1552F0;}
	.st11{fill:#0052FF;}
</style>
<rect class="st0" width="768" height="439"/>
<path class="st1" d="M250.8,398.6l120.3-5.4c0,0,10.8,9.7,24.8,9.7s85.3,2.2,85.3,2.2s24.3-0.5,48,18.9L547,439h127.4l-112.8-87.4
	c0,0-42.6-32.4-46.4-33.5c-3.8-1.1-35.6-16.7-78.3-21c0,0-24.3-8.1-29.7-12.4c-5.4-4.3-24.8-8.6-28.6-7.6s-24.3,13.5-7,31.3
	c8.6,8.9,24.9,12.1,37.2,16.2c13.4,4.4,24.8,9.7,24.8,9.7s-4.9,15.1-20,11.9c-15.7-8.6-58.8-30.2-58.8-30.2s-13.5-3.8-18.9-2.2
	c-5.4,1.6-18.3,2.7-10.8,10.8c7.6,8.1,32.4,17.8,32.4,17.8L290.7,323c0,0-11.3-5.4-21.6,2.2c0,0-10.3,6.5-1.1,11.3s34.3,14,34.3,14
	l-47.8-3.2c0,0-21-3.8-27,15.7c0,0-4.9,5.9,16.7,7.6l23.7,4.9C268,375.4,240.5,383.5,250.8,398.6z"/>
<g>
	<g>
		<path d="M602.7,439c-19.1-14.2-59.7-44.2-74-53.9c-18.9-13-42.1-11.3-42.1-11.3s-74.5,0-85.8,0c-11.3,0-30.2,0-30.2,0l-122.1,18.5
			c0.1,2,0.7,4.1,2.3,6.4l120.3-5.4c0,0,10.8,9.7,24.8,9.7s85.3,2.2,85.3,2.2s24.3-0.5,48,18.9L547,439H602.7z"/>
		<path d="M408.9,324.6c13.4,4.4,24.8,9.7,24.8,9.7s-3.2,9.9-12.4,12l40.5,0.5c10.3-2.7,0-13.5,0-13.5l-17.3-7.6
			c0,0-57.4-26.3-78.9-35.6c-1.7,5-0.8,11.3,6.1,18.4C380.3,317.3,396.6,320.6,408.9,324.6z"/>
	</g>
</g>
<path d="M413.8,346.2c-15.7-8.6-58.8-30.2-58.8-30.2s-13.5-3.8-18.9-2.2c-5.4,1.6-18.3,2.7-10.8,10.8c7.6,8.1,32.4,17.8,32.4,17.8
	L290.7,323c0,0-11.3-5.4-21.6,2.2c0,0-10.3,6.5-1.1,11.3c9.2,4.9,34.3,14,34.3,14l-47.8-3.2c0,0-21-3.8-27,15.7
	c0,0-4.9,5.9,16.7,7.6l22.6,4.6c36.8-7.4,97.9-20.3,97.9-20.3c10.7-8.1,19.2-8.6,19.2-8.6H413.8z"/>
<rect x="202.1" y="42.8" class="st2" width="72.6" height="72.2"/>
<rect x="201.5" y="194.4" class="st3" width="72.6" height="72.2"/>
<rect x="493.9" y="194.4" class="st2" width="72.6" height="72.2"/>
<rect x="493.2" y="42.9" class="st4" width="72.6" height="72.2"/>
<circle cx="298.7" cy="205.6" r="3.6"/>
<circle class="st5" cx="440.8" cy="224.1" r="3.6"/>
<line class="st6" x1="432.2" y1="190.8" x2="486.7" y2="213.2"/>
<line class="st6" x1="410.4" y1="219.5" x2="486.7" y2="226.4"/>
<circle class="st3" cx="448.5" cy="197.3" r="3.6"/>
<circle class="st7" cx="461.4" cy="224.1" r="3.6"/>
<line class="st6" x1="430" y1="117.6" x2="486.7" y2="94.3"/>
<line class="st6" x1="411.8" y1="87" x2="486.7" y2="80.6"/>
<line class="st6" x1="278.8" y1="80.6" x2="354.3" y2="87"/>
<line class="st6" x1="278.8" y1="94.3" x2="336.6" y2="117.6"/>
<line class="st6" x1="278.8" y1="213.2" x2="335.3" y2="190.8"/>
<line class="st6" x1="278.8" y1="226.4" x2="356" y2="219.5"/>
<circle class="st8" cx="340.2" cy="220.5" r="3.6"/>
<circle class="st3" cx="307.7" cy="105.9" r="3.6"/>
<circle class="st7" cx="332.1" cy="85" r="3.6"/>
<circle class="st8" cx="465" cy="82.4" r="3.6"/>
<polygon class="st9" points="444.5,165.3 384,202 322.9,165.3 380.1,134.7 "/>
<circle cx="448.5" cy="109.6" r="3.6"/>
<polygon class="st7" points="384,50.3 322.9,150.1 384,123.5 "/>
<polygon class="st10" points="384,187.4 322.9,150.1 384,123.5 "/>
<polygon class="st7" points="322.9,165.3 384,202 384,249.7 "/>
<polygon class="st3" points="383.8,50.3 444.9,150.1 383.8,123.5 "/>
<polygon points="383.8,187.4 444.9,150.1 383.8,123.5 "/>
<polygon class="st3" points="444.9,165.3 383.8,202 383.8,249.7 "/>
<rect x="512.9" y="72.6" class="st11" width="34.6" height="27.2"/>
<path class="st7" d="M541.1,72.6h-1.7v-6.2c-0.3-0.9-2.4-6.6-8.9-6.6c-0.1,0-0.1,0-0.2,0c-6.6,0.1-8.6,6.3-8.8,7.2v5.5h-1.7l0-5.9
	c0-0.1,2.1-8.5,10.5-8.6c0.1,0,0.1,0,0.2,0c8.2,0,10.6,7.9,10.6,7.9l0,0.1V72.6z"/>
<circle cx="530.2" cy="93.6" r="2.3"/>
<g>
	<path d="M530.2,75.9c-6.4,0-12.1,3.5-15.2,8.6l3.4,2.1c2.4-4,6.8-6.7,11.7-6.7c5,0,9.4,2.7,11.8,6.7l3.4-2
		C542.3,79.4,536.7,75.9,530.2,75.9z"/>
	<path d="M530.2,83.3c-3.8,0-7.1,2-8.9,5.1l3.4,2.1c1.1-1.9,3.1-3.1,5.5-3.1c2.3,0,4.4,1.3,5.5,3.1l3.4-2
		C537.3,85.3,534,83.3,530.2,83.3z"/>
</g>
<polygon class="st4" points="527,211.7 533.1,207.8 536.4,214.2 543.6,213.9 543.2,221.1 549.6,224.4 545.8,230.5 549.6,236.6 
	543.2,239.9 543.6,247.1 536.4,246.7 533.1,253.2 527,249.3 520.9,253.2 517.6,246.7 510.4,247.1 510.7,239.9 504.3,236.6 
	508.2,230.5 504.3,224.4 510.7,221.1 510.4,213.9 517.6,214.2 520.9,207.8 "/>
<circle class="st7" cx="527" cy="230.5" r="13.7"/>
<path class="st0" d="M217.9,209h40v22.2c0,0,0,13.3-20,20.8c0,0-16.4-4.6-20-21.5V209z"/>
<polygon class="st7" points="237.9,217 240.6,224.4 248.5,224.7 242.3,229.6 244.5,237.2 237.9,232.8 231.4,237.2 233.5,229.6 
	227.3,224.7 235.2,224.4 "/>
<path class="st4" d="M224.9,86.1l-5.1,9.9c0,0-1,2.2-3.5,1c-2.6-1.2-4.5-3.5-4.5-3.5s-2.2-0.7,0-8.6l4.4-18.9c0,0,1.4-4.7,4.4-5.3
	H255c0,0,3.4,0.8,4.4,5.8l4.9,20.1c0,0,1.2,4.9-0.8,6.9l-3.5,3.3c0,0-3.9,1.9-4.9-0.9l-4.4-9.7H224.9z"/>
<circle cx="229.4" cy="79" r="4"/>
<rect x="233.4" y="67.6" class="st7" width="8.9" height="3.7"/>
<polygon points="228.2,67.6 225,67.6 225,64.4 222.6,64.4 222.6,67.6 219.5,67.6 219.5,70 222.6,70 222.6,73.2 225,73.2 225,70 
	228.2,70 "/>
<polygon points="256.1,70.8 254.7,70.8 254.7,69.4 253.6,69.4 253.6,70.8 252.2,70.8 252.2,71.9 253.6,71.9 253.6,73.3 254.7,73.3 
	254.7,71.9 256.1,71.9 "/>
<path class="st7" d="M251.6,66.1h-0.5c-0.2-0.5-0.5-0.8-1-1v-0.5H249v0.5c-0.5,0.2-0.8,0.5-1,1h-0.5v1.2h0.5c0.2,0.5,0.5,0.8,1,1
	v0.5h1.2v-0.5c0.5-0.2,0.8-0.5,1-1h0.5V66.1z"/>
<circle cx="229.4" cy="79" r="4"/>
<circle cx="245.9" cy="79" r="4"/>
</svg>
