<svg xmlns="http://www.w3.org/2000/svg" x="0px" y="0px"
	 viewBox="0 0 768 439" style="enable-background:new 0 0 768 439;" xml:space="preserve">
<style type="text/css">
	.st0{fill:#0052FF;}
	.st1{fill:#FFFFFF;}
	.st2{fill:#B8C9C8;}
	.st3{fill:#F46C3D;}
	.st4{fill:#FFD200;}
	.st5{fill:#2BBF7F;}
	.st6{fill:none;stroke:#000000;stroke-miterlimit:10;}
	.st7{fill:#D2B66E;}
</style>
<rect class="st0" width="768" height="439"/>
<rect x="566.3" y="159.6" class="st1" width="123.5" height="151"/>
<rect x="566.3" y="184.1" class="st2" width="98.2" height="101.2"/>
<rect x="78" y="136.1" width="259.5" height="23.5"/>
<rect x="202.5" y="75.2" width="363.8" height="33"/>
<circle class="st3" cx="219.1" cy="91.7" r="4.6"/>
<circle class="st4" cx="233.1" cy="91.7" r="4.6"/>
<circle class="st5" cx="247.1" cy="91.7" r="4.6"/>
<rect x="233.1" y="138.1" class="st4" width="24.6" height="7.4"/>
<rect x="202.5" y="108.2" class="st1" width="363.8" height="264.4"/>
<rect x="233.1" y="138.1" class="st4" width="24.6" height="7.4"/>
<rect x="233.1" y="167.5" class="st4" width="24.6" height="7.4"/>
<rect x="233.1" y="197" class="st4" width="24.6" height="7.4"/>
<rect x="233.1" y="226.4" class="st4" width="24.6" height="7.4"/>
<rect x="233.1" y="255.9" class="st4" width="24.6" height="7.4"/>
<rect x="233.1" y="285.3" class="st4" width="24.6" height="7.4"/>
<rect x="233.1" y="314.8" class="st4" width="24.6" height="7.4"/>
<g>
	<line class="st6" x1="288.2" y1="138.1" x2="288.2" y2="339.8"/>
	<line class="st6" x1="310.7" y1="138.1" x2="310.7" y2="339.8"/>
	<line class="st6" x1="333.1" y1="138.1" x2="333.1" y2="339.8"/>
	<line class="st6" x1="355.6" y1="138.1" x2="355.6" y2="339.8"/>
	<line class="st6" x1="378.1" y1="138.1" x2="378.1" y2="339.8"/>
	<line class="st6" x1="400.5" y1="138.1" x2="400.5" y2="339.8"/>
	<line class="st6" x1="423" y1="138.1" x2="423" y2="339.8"/>
	<line class="st6" x1="445.4" y1="138.1" x2="445.4" y2="339.8"/>
	<line class="st6" x1="467.9" y1="138.1" x2="467.9" y2="339.8"/>
	<line class="st6" x1="490.4" y1="138.1" x2="490.4" y2="339.8"/>
	<line class="st6" x1="512.8" y1="138.1" x2="512.8" y2="339.8"/>
</g>
<polygon class="st3" points="267.3,342.5 297.3,336.9 321.1,327.8 369.8,314.8 389,322.2 415.1,292.7 457,274 476.8,240 
	505.7,226.4 527.8,191.9 537.4,162.5 537.4,342.5 "/>
<rect x="78.7" y="159.6" class="st1" width="123.7" height="151"/>
<circle class="st3" cx="89.8" cy="147.8" r="3.3"/>
<circle class="st4" cx="99.8" cy="147.8" r="3.3"/>
<circle cx="615.4" cy="234.7" r="36.6"/>
<circle class="st5" cx="109.8" cy="147.8" r="3.3"/>
<rect x="103.1" y="184.1" class="st2" width="99.3" height="78"/>
<rect x="103.1" y="243.4" class="st4" width="16.6" height="18.7"/>
<rect x="119.7" y="236.4" width="16.6" height="25.7"/>
<rect x="136.2" y="227.3" class="st4" width="16.6" height="34.8"/>
<rect x="152.8" y="211.6" width="16.6" height="50.5"/>
<rect x="169.3" y="222.4" class="st4" width="16.6" height="39.7"/>
<rect x="178.6" y="159.6" class="st7" width="23.9" height="151"/>
<rect x="178.6" y="184.1" class="st0" width="23.8" height="78"/>
<rect x="185.9" y="202.8" width="16.6" height="59.3"/>
<rect x="103.1" y="273.2" class="st2" width="99.3" height="8.4"/>
<rect x="103.1" y="273.2" class="st2" width="99.3" height="8.4"/>
<rect x="103.1" y="291.7" class="st2" width="99.3" height="8.4"/>
<rect x="178.6" y="273.2" class="st0" width="23.8" height="8.4"/>
<rect x="103.1" y="291.7" class="st2" width="99.3" height="8.4"/>
<rect x="178.6" y="291.7" class="st0" width="23.8" height="8.4"/>
<rect x="178.6" y="222.4" class="st3" width="7.3" height="39.7"/>
<rect x="566.3" y="136.1" width="123.5" height="23.5"/>
<path class="st4" d="M615.4,234.7H652c0,20.1-16.5,36.6-36.6,36.6s-36.6-16.5-36.6-36.6s16.5-36.6,36.6-36.6V234.7z"/>
<rect x="566.3" y="159.6" class="st7" width="24.2" height="151"/>
<rect x="566.3" y="184.1" class="st0" width="24.2" height="101.2"/>
<path class="st3" d="M590.5,208.1c-7.1,6.7-11.6,16.2-11.6,26.6s4.5,19.9,11.6,26.6V208.1z"/>
</svg>
