<?xml version="1.0" encoding="utf-8"?>
<!-- Generator: Adobe Illustrator 27.0.0, SVG Export Plug-In . SVG Version: 6.00 Build 0)  -->
<svg version="1.1" id="图层_1" xmlns="http://www.w3.org/2000/svg" xmlns:xlink="http://www.w3.org/1999/xlink" x="0px" y="0px"
	 viewBox="0 0 768 438.2" style="enable-background:new 0 0 768 438.2;" xml:space="preserve">
<style type="text/css">
	.st0{fill:#B8C9C8;}
	.st1{opacity:0.3;fill:#FFFFFF;enable-background:new    ;}
	.st2{fill:#0062FF;}
	.st3{fill:#909EB0;}
	.st4{fill:#FFFFFF;}
	.st5{fill:#5E6C7E;}
	.st6{fill:#1B1D23;}
	.st7{fill:#171B21;}
	.st8{fill:#FFD200;}
	.st9{fill:#334457;}
	.st10{fill:none;stroke:#000000;stroke-miterlimit:10;}
	.st11{fill:none;stroke:#000000;stroke-miterlimit:10;stroke-dasharray:12.0444,12.0444;}
	.st12{fill:none;stroke:#000000;stroke-miterlimit:10;stroke-dasharray:11.8699,11.8699;}
	.st13{fill:#5E6779;}
	.st14{fill:#D2D6DA;}
	.st15{fill:url(#SVGID_1_);}
	.st16{font-family:'Arial-Black';}
	.st17{font-size:25.4427px;}
	.st18{fill:#F46C3D;}
	.st19{fill:#00E000;}
</style>
<rect y="-0.5" class="st0" width="768" height="438.3"/>
<path class="st1" d="M0,314.4c0,0,71.3-132.2,331.8-40.6s243.5-7.1,436.2-4.1v-49.6c0,0-173.8,62.5-275.3,64.2
	c-39.1,0.6-74.4-7.2-107-14.5C267.4,243.1,233.1,210.5,146,215c-54.6,2.8-116.3,16.4-146,58.8V314.4z"/>
<path class="st2" d="M4.4,437.7c0,0,78.4-138,317.2-146.4c0,0,87.3-4.4,164.6,86.5c25.5,30,61.9,48.9,101.2,51.2
	c46.6,2.7,109.2-14,180.6-85.7l0.1,95L4.4,437.7z"/>
<path class="st3" d="M-0.3,107.2c0,0,8.4,48.4,276.4-45.9c0,0,45.8-18.1,185.2,82.4c30,21.6,65.6,34.2,102.6,35.4
	c54.8,1.8,132.2-13.6,204.2-91.5V-0.5H0L-0.3,107.2z"/>
<path class="st1" d="M-1.3,200.3c0,0,64-1.6,142.5-31.9c19.3-7.4,40.2-10.3,60.7-7.8c22.1,2.6,48.3,11.1,69.4,33.4
	C316.7,242,651.6,306.7,768,174.2v-21c0,0-140.7,74.4-238.6,59.9C431.5,198.4,317.6,76.1,226,104.2s-149.4,88.3-227.3,70V200.3z"/>
<polygon class="st4" points="226.1,312 243.9,322.4 261.8,312 243.9,301.7 "/>
<polygon class="st5" points="226.1,312 243.9,322.4 243.9,344.2 226.1,334.6 "/>
<polygon class="st6" points="243.9,344.2 243.9,322.4 261.8,312 261.8,333.8 "/>
<ellipse transform="matrix(0.9194 -0.3933 0.3933 0.9194 -88.2509 116.2904)" class="st7" cx="239.6" cy="273.5" rx="17.4" ry="23.9"/>
<ellipse transform="matrix(0.9194 -0.3933 0.3933 0.9194 -87.2565 117.9569)" class="st8" cx="244.2" cy="271.9" rx="16.3" ry="23.6"/>
<ellipse transform="matrix(0.9194 -0.3933 0.3933 0.9194 -87.4041 117.7514)" class="st9" cx="243.6" cy="272.2" rx="11.7" ry="16.4"/>
<ellipse transform="matrix(0.9194 -0.3933 0.3933 0.9194 -87.6111 117.4093)" class="st8" cx="242.7" cy="272.5" rx="10.7" ry="16.4"/>
<path class="st4" d="M249.3,272c-0.4-0.3-0.8-0.6-1.3-0.7c-0.3-0.1-0.7-0.1-1.3,0c0.4-0.3,0.7-0.7,0.8-1.2c0.2-0.4,0.2-0.8,0.2-1.2
	c0-0.4-0.1-0.8-0.2-1.2c-0.2-0.6-0.6-1-1.1-1.3c-0.5-0.3-1-0.5-1.7-0.5c-0.2,0-0.5,0-0.8,0.1l-0.9-2.1l-1.7,0.7l0.8,2l-1.2,0.5
	l-0.8-2l-1.7,0.7l0.8,2l-2.7,1.2l0.7,1.7l0.4-0.2c0.2-0.1,0.5-0.2,0.6-0.2c0.1,0,0.2,0.1,0.3,0.2c0.1,0.1,0.2,0.3,0.3,0.7l2.8,6.6
	c0.2,0.3,0.2,0.6,0.2,0.7s0,0.2-0.1,0.3s-0.2,0.2-0.5,0.3l-0.4,0.2l0.7,1.7l2.7-1.2l0.8,2l1.7-0.7l-0.8-2l1-0.4c0.1,0,0.1,0,0.2-0.1
	l0.8,2l1.7-0.7l-0.9-2.2c0.2-0.2,0.5-0.4,0.7-0.6c0.5-0.6,0.8-1.2,0.9-1.8s0-1.3-0.2-2C249.9,272.8,249.7,272.3,249.3,272z
	 M241,269.4l1.2-0.5c0.7-0.2,1.2-0.4,1.5-0.5c0.3-0.1,0.6,0.1,0.8,0.2s0.4,0.4,0.6,0.7c0.2,0.3,0.2,0.6,0.1,0.9
	c-0.1,0.3-0.2,0.6-0.4,0.8c-0.2,0.2-0.7,0.5-1.2,0.7l-1.2,0.5L241,269.4z M247.4,275.3c-0.1,0.4-0.2,0.7-0.5,0.9
	c-0.2,0.2-0.6,0.4-1.1,0.6l-0.7,0.3c-0.2,0.1-0.4,0.2-0.5,0.2s-0.2-0.1-0.2-0.1c0-0.1-0.2-0.2-0.3-0.7L243,274l1.3-0.6
	c0.6-0.2,1.1-0.4,1.4-0.4s0.7,0.1,0.9,0.2s0.4,0.5,0.6,0.8C247.5,274.6,247.5,274.9,247.4,275.3z"/>
<polygon class="st4" points="121.1,204.1 139,214.5 156.8,204.1 139,193.8 "/>
<polygon class="st5" points="121.1,204.1 139,214.5 139,236.3 121.1,226.7 "/>
<polygon class="st6" points="139,236.3 139,214.5 156.8,204.1 156.8,225.9 "/>
<ellipse transform="matrix(0.9194 -0.3933 0.3933 0.9194 -54.2726 66.3088)" class="st7" cx="134.7" cy="165.6" rx="17.4" ry="23.9"/>
<ellipse transform="matrix(0.9194 -0.3933 0.3933 0.9194 -53.2783 67.9754)" class="st8" cx="139.2" cy="164" rx="16.3" ry="23.6"/>
<ellipse transform="matrix(0.9194 -0.3933 0.3933 0.9194 -53.4258 67.7699)" class="st9" cx="138.7" cy="164.2" rx="11.7" ry="16.4"/>
<ellipse transform="matrix(0.9194 -0.3933 0.3933 0.9194 -53.6329 67.4277)" class="st8" cx="137.7" cy="164.6" rx="10.7" ry="16.4"/>
<path class="st4" d="M144.3,164.1c-0.4-0.3-0.8-0.6-1.3-0.7c-0.3-0.1-0.7-0.1-1.3,0c0.4-0.3,0.7-0.7,0.8-1.2s0.2-0.8,0.2-1.2
	s-0.1-0.8-0.2-1.2c-0.2-0.6-0.6-1-1.1-1.3s-1-0.5-1.7-0.5c-0.2,0-0.5,0-0.8,0.1L138,156l-1.7,0.7l0.8,2l-1.2,0.5l-0.8-2l-1.7,0.7
	l0.8,2l-2.7,1.2l0.7,1.7l0.4-0.2c0.2-0.1,0.5-0.2,0.6-0.2c0.1,0,0.2,0.1,0.3,0.2c0.1,0.1,0.2,0.3,0.3,0.7l2.8,6.6
	c0.2,0.3,0.2,0.6,0.2,0.7c0,0.1,0,0.2-0.1,0.3c-0.1,0.1-0.2,0.2-0.5,0.3l-0.4,0.2l0.7,1.7l2.7-1.2l0.8,2l1.7-0.7l-0.8-2l1-0.4
	c0.1,0,0.1,0,0.2-0.1l0.8,2l1.7-0.7l-0.9-2.2c0.2-0.2,0.5-0.4,0.7-0.6c0.5-0.6,0.8-1.2,0.9-1.8c0.1-0.7,0-1.3-0.2-2
	C145,164.9,144.7,164.4,144.3,164.1z M136.1,161.4l1.2-0.5c0.7-0.2,1.2-0.4,1.5-0.5c0.3-0.1,0.6,0.1,0.8,0.2
	c0.2,0.2,0.4,0.4,0.6,0.7c0.2,0.3,0.2,0.6,0.1,0.9c-0.1,0.3-0.2,0.6-0.4,0.8s-0.7,0.5-1.2,0.7l-1.2,0.5L136.1,161.4z M142.5,167.4
	c-0.1,0.4-0.2,0.7-0.5,0.9c-0.2,0.2-0.6,0.4-1.1,0.6l-0.7,0.3c-0.2,0.1-0.4,0.2-0.5,0.2c-0.1,0-0.2-0.1-0.2-0.1
	c0-0.1-0.2-0.2-0.3-0.7l-1.1-2.6l1.3-0.6c0.6-0.2,1.1-0.4,1.4-0.4c0.3,0,0.7,0.1,0.9,0.2c0.2,0.2,0.4,0.5,0.6,0.8
	C142.6,166.7,142.6,167,142.5,167.4z"/>
<polygon class="st4" points="610.4,204.1 628.2,214.5 646.1,204.1 628.2,193.8 "/>
<polygon class="st5" points="610.4,204.1 628.2,214.5 628.2,236.3 610.4,226.7 "/>
<polygon class="st6" points="628.2,236.3 628.2,214.5 646.1,204.1 646.1,225.9 "/>
<ellipse transform="matrix(0.9194 -0.3933 0.3933 0.9194 -14.8409 258.7441)" class="st7" cx="623.9" cy="165.6" rx="17.4" ry="23.9"/>
<ellipse transform="matrix(0.9194 -0.3933 0.3933 0.9194 -13.8467 260.4104)" class="st8" cx="628.5" cy="164" rx="16.3" ry="23.6"/>
<ellipse transform="matrix(0.9194 -0.3933 0.3933 0.9194 -13.9941 260.2051)" class="st9" cx="627.9" cy="164.2" rx="11.7" ry="16.4"/>
<ellipse transform="matrix(0.9194 -0.3933 0.3933 0.9194 -14.2012 259.863)" class="st8" cx="627" cy="164.6" rx="10.7" ry="16.4"/>
<path class="st4" d="M633.6,164.1c-0.4-0.3-0.8-0.6-1.3-0.7c-0.3-0.1-0.7-0.1-1.3,0c0.4-0.3,0.7-0.7,0.8-1.2
	c0.2-0.4,0.2-0.8,0.2-1.2s-0.1-0.8-0.2-1.2c-0.2-0.6-0.6-1-1.1-1.3s-1-0.5-1.7-0.5c-0.2,0-0.5,0-0.8,0.1l-0.9-2.1l-1.7,0.7l0.8,2
	l-1.2,0.5l-0.8-2l-1.7,0.7l0.8,2l-2.7,1.2l0.7,1.7l0.4-0.2c0.2-0.1,0.5-0.2,0.6-0.2c0.1,0,0.2,0.1,0.3,0.2c0.1,0.1,0.2,0.3,0.3,0.7
	l2.8,6.6c0.2,0.3,0.2,0.6,0.2,0.7c0,0.1,0,0.2-0.1,0.3c-0.1,0.1-0.2,0.2-0.5,0.3l-0.4,0.2l0.7,1.7l2.7-1.2l0.8,2l1.7-0.7l-0.8-2
	l1-0.4c0.1,0,0.1,0,0.2-0.1l0.8,2l1.7-0.7l-0.9-2.2c0.2-0.2,0.5-0.4,0.7-0.6c0.5-0.6,0.8-1.2,0.9-1.8c0.1-0.7,0-1.3-0.2-2
	C634.2,164.9,634,164.4,633.6,164.1z M625.4,161.4l1.2-0.5c0.7-0.2,1.2-0.4,1.5-0.5c0.3-0.1,0.6,0.1,0.8,0.2
	c0.2,0.2,0.4,0.4,0.6,0.7c0.2,0.3,0.2,0.6,0.1,0.9c-0.1,0.3-0.2,0.6-0.4,0.8c-0.2,0.2-0.7,0.5-1.2,0.7l-1.2,0.5L625.4,161.4z
	 M631.7,167.4c-0.1,0.4-0.2,0.7-0.5,0.9c-0.2,0.2-0.6,0.4-1.1,0.6l-0.7,0.3c-0.2,0.1-0.4,0.2-0.5,0.2c-0.1,0-0.2-0.1-0.2-0.1
	c0-0.1-0.2-0.2-0.3-0.7l-1.1-2.6l1.3-0.6c0.6-0.2,1.1-0.4,1.4-0.4c0.3,0,0.7,0.1,0.9,0.2c0.2,0.2,0.4,0.5,0.6,0.8
	C631.8,166.7,631.8,167,631.7,167.4z"/>
<polygon class="st4" points="225.7,94.2 243.6,104.5 261.4,94.2 243.6,83.8 "/>
<polygon class="st5" points="225.7,94.2 243.6,104.5 243.6,126.3 225.7,116.7 "/>
<polygon class="st6" points="243.6,126.3 243.6,104.5 261.4,94.2 261.4,116 "/>
<ellipse transform="matrix(0.9194 -0.3933 0.3933 0.9194 -2.5849 98.5806)" class="st7" cx="239.3" cy="55.6" rx="17.4" ry="23.9"/>
<ellipse transform="matrix(0.9194 -0.3933 0.3933 0.9194 -1.5907 100.2472)" class="st8" cx="243.8" cy="54" rx="16.3" ry="23.6"/>
<g>
	<g>
		<line class="st10" x1="153.3" y1="214.5" x2="159.3" y2="214.5"/>
		<line class="st11" x1="171.3" y1="214.5" x2="598.9" y2="214.5"/>
		<line class="st10" x1="604.9" y1="214.5" x2="610.9" y2="214.5"/>
	</g>
</g>
<g>
	<g>
		<line class="st10" x1="234" y1="95.4" x2="238.7" y2="99.2"/>
		<line class="st12" x1="248" y1="106.6" x2="520.8" y2="326.1"/>
		<line class="st10" x1="525.4" y1="329.8" x2="530.1" y2="333.6"/>
	</g>
</g>
<g>
	<g>
		<line class="st10" x1="530.1" y1="95.4" x2="525.4" y2="99.2"/>
		<line class="st12" x1="516.2" y1="106.6" x2="243.3" y2="326.1"/>
		<line class="st10" x1="238.7" y1="329.8" x2="234" y2="333.6"/>
	</g>
</g>
<ellipse transform="matrix(0.9194 -0.3933 0.3933 0.9194 -1.7382 100.0416)" class="st9" cx="243.2" cy="54.3" rx="11.7" ry="16.4"/>
<ellipse transform="matrix(0.9194 -0.3933 0.3933 0.9194 -1.9452 99.6995)" class="st8" cx="242.3" cy="54.6" rx="10.7" ry="16.4"/>
<path class="st4" d="M248.9,54.1c-0.4-0.3-0.8-0.6-1.3-0.7c-0.3-0.1-0.7-0.1-1.3,0c0.4-0.3,0.7-0.7,0.8-1.2s0.2-0.8,0.2-1.2
	s-0.1-0.8-0.2-1.2c-0.2-0.6-0.6-1-1.1-1.3c-0.5-0.3-1-0.5-1.7-0.5c-0.2,0-0.5,0-0.8,0.1l-0.9-2.1l-1.7,0.7l0.8,2l-1.2,0.5l-0.8-2
	l-1.7,0.7l0.8,2l-2.7,1.2l0.7,1.7l0.4-0.2c0.2-0.1,0.5-0.2,0.6-0.2c0.1,0,0.2,0.1,0.3,0.2c0.1,0.1,0.2,0.3,0.3,0.7l2.8,6.6
	c0.2,0.3,0.2,0.6,0.2,0.7s0,0.2-0.1,0.3c-0.1,0.1-0.2,0.2-0.5,0.3l-0.4,0.2l0.7,1.7l2.7-1.2l0.8,2l1.7-0.7l-0.8-2l1-0.4
	c0.1,0,0.1,0,0.2-0.1l0.8,2l1.7-0.7l-0.9-2.2c0.2-0.2,0.5-0.4,0.7-0.6c0.5-0.6,0.8-1.2,0.9-1.8s0-1.3-0.2-2
	C249.5,54.9,249.3,54.5,248.9,54.1z M240.7,51.5l1.2-0.5c0.7-0.2,1.2-0.4,1.5-0.5c0.3-0.1,0.6,0.1,0.8,0.2c0.2,0.2,0.4,0.4,0.6,0.7
	c0.2,0.3,0.2,0.6,0.1,0.9c-0.1,0.3-0.2,0.6-0.4,0.8s-0.7,0.5-1.2,0.7l-1.2,0.5L240.7,51.5z M247.1,57.4c-0.1,0.4-0.2,0.7-0.5,0.9
	s-0.6,0.4-1.1,0.6l-0.7,0.3c-0.2,0.1-0.4,0.2-0.5,0.2s-0.2-0.1-0.2-0.1c0-0.1-0.2-0.2-0.3-0.7l-1.1-2.6l1.3-0.6
	c0.6-0.2,1.1-0.4,1.4-0.4s0.7,0.1,0.9,0.2s0.4,0.5,0.6,0.8C247.1,56.7,247.1,57,247.1,57.4z"/>
<polygon class="st4" points="508.7,94.2 526.6,104.5 544.4,94.2 526.6,83.8 "/>
<polygon class="st5" points="508.7,94.2 526.6,104.5 526.6,126.3 508.7,116.7 "/>
<polygon class="st6" points="526.6,126.3 526.6,104.5 544.4,94.2 544.4,116 "/>
<ellipse transform="matrix(0.9194 -0.3933 0.3933 0.9194 20.2227 209.887)" class="st7" cx="522.3" cy="55.6" rx="17.4" ry="23.9"/>
<ellipse transform="matrix(0.9194 -0.3933 0.3933 0.9194 21.2169 211.5535)" class="st8" cx="526.8" cy="54" rx="16.3" ry="23.6"/>
<ellipse transform="matrix(0.9194 -0.3933 0.3933 0.9194 21.0695 211.3481)" class="st9" cx="526.2" cy="54.3" rx="11.7" ry="16.4"/>
<ellipse transform="matrix(0.9194 -0.3933 0.3933 0.9194 20.8625 211.006)" class="st8" cx="525.3" cy="54.6" rx="10.7" ry="16.4"/>
<path class="st4" d="M531.9,54.1c-0.4-0.3-0.8-0.6-1.3-0.7c-0.3-0.1-0.7-0.1-1.3,0c0.4-0.3,0.7-0.7,0.8-1.2c0.2-0.4,0.2-0.8,0.2-1.2
	s-0.1-0.8-0.2-1.2c-0.2-0.6-0.6-1-1.1-1.3c-0.5-0.3-1-0.5-1.7-0.5c-0.2,0-0.5,0-0.8,0.1l-0.9-2.1l-1.7,0.7l0.8,2l-1.2,0.5l-0.8-2
	l-1.7,0.7l0.8,2l-2.7,1.2l0.7,1.7l0.4-0.2c0.2-0.1,0.5-0.2,0.6-0.2c0.1,0,0.2,0.1,0.3,0.2c0.1,0.1,0.2,0.3,0.3,0.7l2.8,6.6
	c0.2,0.3,0.2,0.6,0.2,0.7s0,0.2-0.1,0.3c-0.1,0.1-0.2,0.2-0.5,0.3l-0.4,0.2l0.7,1.7l2.7-1.2l0.8,2l1.7-0.7l-0.8-2l1-0.4
	c0.1,0,0.1,0,0.2-0.1l0.8,2l1.7-0.7l-0.9-2.2c0.2-0.2,0.5-0.4,0.7-0.6c0.5-0.6,0.8-1.2,0.9-1.8s0-1.3-0.2-2
	C532.6,54.9,532.3,54.5,531.9,54.1z M523.7,51.5l1.2-0.5c0.7-0.2,1.2-0.4,1.5-0.5c0.3-0.1,0.6,0.1,0.8,0.2c0.2,0.2,0.4,0.4,0.6,0.7
	c0.2,0.3,0.2,0.6,0.1,0.9c-0.1,0.3-0.2,0.6-0.4,0.8c-0.2,0.2-0.7,0.5-1.2,0.7l-1.2,0.5L523.7,51.5z M530.1,57.4
	c-0.1,0.4-0.2,0.7-0.5,0.9c-0.2,0.2-0.6,0.4-1.1,0.6l-0.7,0.3c-0.2,0.1-0.4,0.2-0.5,0.2c-0.1,0-0.2-0.1-0.2-0.1
	c0-0.1-0.2-0.2-0.3-0.7l-1.1-2.6l1.3-0.6c0.6-0.2,1.1-0.4,1.4-0.4c0.3,0,0.7,0.1,0.9,0.2c0.2,0.2,0.4,0.5,0.6,0.8
	C530.1,56.7,530.1,57,530.1,57.4z"/>
<polygon class="st4" points="226.1,312 243.9,322.4 261.8,312 243.9,301.7 "/>
<polygon class="st5" points="226.1,312 243.9,322.4 243.9,344.2 226.1,334.6 "/>
<polygon class="st6" points="243.9,344.2 243.9,322.4 261.8,312 261.8,333.8 "/>
<ellipse transform="matrix(0.9194 -0.3933 0.3933 0.9194 -88.2509 116.2904)" class="st7" cx="239.6" cy="273.5" rx="17.4" ry="23.9"/>
<ellipse transform="matrix(0.9194 -0.3933 0.3933 0.9194 -87.2565 117.9569)" class="st8" cx="244.2" cy="271.9" rx="16.3" ry="23.6"/>
<ellipse transform="matrix(0.9194 -0.3933 0.3933 0.9194 -87.4041 117.7514)" class="st9" cx="243.6" cy="272.2" rx="11.7" ry="16.4"/>
<ellipse transform="matrix(0.9194 -0.3933 0.3933 0.9194 -87.6111 117.4093)" class="st8" cx="242.7" cy="272.5" rx="10.7" ry="16.4"/>
<path class="st4" d="M249.3,272c-0.4-0.3-0.8-0.6-1.3-0.7c-0.3-0.1-0.7-0.1-1.3,0c0.4-0.3,0.7-0.7,0.8-1.2c0.2-0.4,0.2-0.8,0.2-1.2
	c0-0.4-0.1-0.8-0.2-1.2c-0.2-0.6-0.6-1-1.1-1.3c-0.5-0.3-1-0.5-1.7-0.5c-0.2,0-0.5,0-0.8,0.1l-0.9-2.1l-1.7,0.7l0.8,2l-1.2,0.5
	l-0.8-2l-1.7,0.7l0.8,2l-2.7,1.2l0.7,1.7l0.4-0.2c0.2-0.1,0.5-0.2,0.6-0.2c0.1,0,0.2,0.1,0.3,0.2c0.1,0.1,0.2,0.3,0.3,0.7l2.8,6.6
	c0.2,0.3,0.2,0.6,0.2,0.7s0,0.2-0.1,0.3s-0.2,0.2-0.5,0.3l-0.4,0.2l0.7,1.7l2.7-1.2l0.8,2l1.7-0.7l-0.8-2l1-0.4c0.1,0,0.1,0,0.2-0.1
	l0.8,2l1.7-0.7l-0.9-2.2c0.2-0.2,0.5-0.4,0.7-0.6c0.5-0.6,0.8-1.2,0.9-1.8s0-1.3-0.2-2C249.9,272.8,249.7,272.3,249.3,272z
	 M241,269.4l1.2-0.5c0.7-0.2,1.2-0.4,1.5-0.5c0.3-0.1,0.6,0.1,0.8,0.2s0.4,0.4,0.6,0.7c0.2,0.3,0.2,0.6,0.1,0.9
	c-0.1,0.3-0.2,0.6-0.4,0.8c-0.2,0.2-0.7,0.5-1.2,0.7l-1.2,0.5L241,269.4z M247.4,275.3c-0.1,0.4-0.2,0.7-0.5,0.9
	c-0.2,0.2-0.6,0.4-1.1,0.6l-0.7,0.3c-0.2,0.1-0.4,0.2-0.5,0.2s-0.2-0.1-0.2-0.1c0-0.1-0.2-0.2-0.3-0.7L243,274l1.3-0.6
	c0.6-0.2,1.1-0.4,1.4-0.4s0.7,0.1,0.9,0.2s0.4,0.5,0.6,0.8C247.5,274.6,247.5,274.9,247.4,275.3z"/>
<polygon class="st4" points="504.8,312 522.7,322.4 540.6,312 522.7,301.7 "/>
<polygon class="st5" points="504.8,312 522.7,322.4 522.7,344.2 504.8,334.6 "/>
<polygon class="st6" points="522.7,344.2 522.7,322.4 540.6,312 540.6,333.8 "/>
<ellipse transform="matrix(0.9194 -0.3933 0.3933 0.9194 -65.7853 225.9273)" class="st7" cx="518.4" cy="273.5" rx="17.4" ry="23.9"/>
<ellipse transform="matrix(0.9194 -0.3933 0.3933 0.9194 -64.791 227.5937)" class="st8" cx="523" cy="271.9" rx="16.3" ry="23.6"/>
<ellipse transform="matrix(0.9194 -0.3933 0.3933 0.9194 -64.9385 227.3884)" class="st9" cx="522.4" cy="272.2" rx="11.7" ry="16.4"/>
<ellipse transform="matrix(0.9194 -0.3933 0.3933 0.9194 -65.1456 227.0462)" class="st8" cx="521.4" cy="272.5" rx="10.7" ry="16.4"/>
<path class="st4" d="M528,272c-0.4-0.3-0.8-0.6-1.3-0.7c-0.3-0.1-0.7-0.1-1.3,0c0.4-0.3,0.7-0.7,0.8-1.2c0.2-0.4,0.2-0.8,0.2-1.2
	c0-0.4-0.1-0.8-0.2-1.2c-0.2-0.6-0.6-1-1.1-1.3c-0.5-0.3-1-0.5-1.7-0.5c-0.2,0-0.5,0-0.8,0.1l-0.9-2.1l-1.7,0.7l0.8,2l-1.2,0.5
	l-0.8-2l-1.7,0.7l0.8,2l-2.7,1.2l0.7,1.7l0.4-0.2c0.2-0.1,0.5-0.2,0.6-0.2c0.1,0,0.2,0.1,0.3,0.2c0.1,0.1,0.2,0.3,0.3,0.7l2.8,6.6
	c0.2,0.3,0.2,0.6,0.2,0.7s0,0.2-0.1,0.3c-0.1,0.1-0.2,0.2-0.5,0.3l-0.4,0.2l0.7,1.7l2.7-1.2l0.8,2l1.7-0.7l-0.8-2l1-0.4
	c0.1,0,0.1,0,0.2-0.1l0.8,2l1.7-0.7l-0.9-2.2c0.2-0.2,0.5-0.4,0.7-0.6c0.5-0.6,0.8-1.2,0.9-1.8s0-1.3-0.2-2
	C528.7,272.8,528.4,272.3,528,272z M519.8,269.4l1.2-0.5c0.7-0.2,1.2-0.4,1.5-0.5c0.3-0.1,0.6,0.1,0.8,0.2c0.2,0.2,0.4,0.4,0.6,0.7
	c0.2,0.3,0.2,0.6,0.1,0.9c-0.1,0.3-0.2,0.6-0.4,0.8c-0.2,0.2-0.7,0.5-1.2,0.7l-1.2,0.5L519.8,269.4z M526.2,275.3
	c-0.1,0.4-0.2,0.7-0.5,0.9c-0.2,0.2-0.6,0.4-1.1,0.6l-0.7,0.3c-0.2,0.1-0.4,0.2-0.5,0.2c-0.1,0-0.2-0.1-0.2-0.1
	c0-0.1-0.2-0.2-0.3-0.7l-1.1-2.6l1.3-0.6c0.6-0.2,1.1-0.4,1.4-0.4c0.3,0,0.7,0.1,0.9,0.2c0.2,0.2,0.4,0.5,0.6,0.8
	C526.3,274.6,526.3,274.9,526.2,275.3z"/>
<polygon class="st13" points="320,180.1 381.1,214.3 442.2,180.1 381.1,145.9 "/>
<polygon class="st5" points="320,180.1 381.1,214.3 381.1,286.3 320,254.4 "/>
<polygon class="st6" points="381.1,286.3 381.1,214.3 442.2,180.1 442.2,252.1 "/>
<path class="st8" d="M623.4,105c-9.6,0-17.4,7.8-17.4,17.4c0-9.6-7.8-17.4-17.4-17.4c9.6,0,17.4-7.8,17.4-17.4
	C606,97.2,613.9,105,623.4,105z"/>
<polygon class="st4" points="205.7,102.9 203.5,92.7 201.5,102.9 191.2,105 201.5,107.2 203.5,117.4 205.7,107.2 215.9,105 "/>
<path class="st8" d="M181.4,373c-7.7,0-14,6.3-14,14c0-7.7-6.3-14-14-14c7.7,0,14-6.3,14-14C167.4,366.8,173.8,373,181.4,373z"/>
<path class="st4" d="M60.1,321.4c-3.9,0-7,3.1-7,7c0-3.9-3.1-7-7-7c3.9,0,7-3.1,7-7C53.1,318.2,56.3,321.4,60.1,321.4z"/>
<polygon class="st8" points="353.7,45.7 349.5,47.6 345.8,44.9 346.3,40.4 350.4,38.5 354.1,41.2 "/>
<polygon class="st8" points="410.4,111.1 401.8,110.4 398.1,102.6 403,95.5 411.6,96.2 415.3,104 "/>
<polygon class="st8" points="449.7,77 446.5,79.3 443,77.7 442.6,73.8 445.7,71.5 449.3,73.1 "/>
<polygon class="st8" points="439.1,132.3 434.2,133 431.2,129.1 433.1,124.5 437.9,123.9 440.9,127.8 "/>
<polygon class="st8" points="425.5,127.7 422.1,128.2 420,125.6 421.2,122.4 424.6,121.9 426.7,124.6 "/>
<polygon class="st8" points="322.6,50.6 319.6,57.7 324.9,61.8 331.1,61.8 330.2,52.1 "/>
<polygon class="st8" points="346.1,74.2 342.2,83.2 357.2,87.8 355.8,76.5 "/>
<polygon class="st8" points="420.7,74.2 427,78.2 424.9,87.8 419.6,86.4 415.6,80 "/>
<polygon class="st8" points="436.1,104.6 429.5,111.8 442.1,120.6 444.7,109.9 "/>
<polygon class="st8" points="409,133.7 404.8,138.1 415.6,149.8 417.1,138.7 "/>
<polygon class="st8" points="329.8,109.5 327.5,115 340.4,122.6 339,111.6 "/>
<polygon class="st14" points="322.6,50.6 317.6,46.4 325.3,40.6 334.8,46.4 336.4,56.2 331.1,61.8 330.2,52.1 "/>
<polygon class="st14" points="346.1,74.2 339.5,68.3 350,68.3 362,68.3 357.2,87.8 355.8,76.5 "/>
<polygon class="st14" points="417.1,68.3 420.7,74.2 427,78.2 424.9,87.8 431.8,84.1 433.2,74.2 427,65.7 "/>
<polygon class="st14" points="431.1,97 436.1,104.6 444.7,109.9 442.1,120.6 452.5,103.3 "/>
<polygon class="st14" points="399.8,127.2 404.1,125.1 409,133.7 404.8,138.1 398.6,131.6 "/>
<polygon class="st14" points="320.3,107.2 320.3,110.4 327.5,115 329.8,109.5 323.5,103.3 "/>
<circle class="st8" cx="378.8" cy="164.2" r="29.8"/>
<g>
	<path class="st4" d="M383.7,167c-1.5,0.8-3.1,1.5-4.6,1.9c-1.5,0.4-3.1,0.6-4.7,0.6c-4.2,0-7.5-1.2-10.1-3.6
		c-2.6-2.4-3.8-5.5-3.8-9.4c0-4.2,1.5-7.6,4.6-10.1c3.1-2.5,7.2-3.8,12.3-3.8c6.2,0,11,1.8,14.6,5.5c3.5,3.7,5.3,8.7,5.3,15.1
		c0,6.9-1.9,12.3-5.7,16.4c-3.8,4-9,6.1-15.5,6.1c-4.2,0-7.6-0.9-10.2-2.7c-2.6-1.8-3.9-4.1-3.9-6.9c0-1.7,0.6-3.1,1.7-4.1
		c1.2-1,2.7-1.5,4.7-1.5c1.8,0,3.3,0.5,4.4,1.4c1.2,0.9,1.7,2.1,1.7,3.5c0,0.9-0.2,1.6-0.6,2.3c-0.4,0.6-1,1.2-1.7,1.6
		c0.5,0.2,0.9,0.3,1.4,0.4c0.4,0.1,0.9,0.1,1.3,0.1c2.7,0,4.8-1.1,6.4-3.4c1.6-2.3,2.4-5.4,2.4-9.3V167z M378.3,148.3
		c-1.4,0-2.5,0.7-3.3,2c-0.8,1.3-1.3,3.1-1.3,5.3c0,2.2,0.4,4,1.3,5.4c0.8,1.3,2,2,3.3,2c1.4,0,2.5-0.7,3.4-2s1.3-3.1,1.3-5.4
		c0-2.3-0.4-4.1-1.3-5.4C380.9,148.9,379.7,148.3,378.3,148.3z"/>
</g>
<linearGradient id="SVGID_1_" gradientUnits="userSpaceOnUse" x1="382.7" y1="214.3339" x2="382.7" y2="-1.4028">
	<stop  offset="0" style="stop-color:#020202;stop-opacity:0.3"/>
	<stop  offset="1" style="stop-color:#020202;stop-opacity:0"/>
</linearGradient>
<polygon class="st15" points="274.6,-1.4 318.8,180.1 379.9,214.3 441,180.1 490.8,-1.4 "/>
<text transform="matrix(1 0 0 1 24.0033 43.046)" class="st8 st16 st17">$28,765.09</text>
<polygon class="st18" points="418.4,217.3 415.9,217.3 415.9,204.1 415.2,204.1 415.2,217.3 412.8,217.3 412.8,246.9 415.2,246.9 
	415.2,260 415.9,260 415.9,246.9 418.4,246.9 "/>
<polygon class="st19" points="353.6,217.3 351.1,217.3 351.1,204.1 350.5,204.1 350.5,217.3 348,217.3 348,246.9 350.5,246.9 
	350.5,260 351.1,260 351.1,246.9 353.6,246.9 "/>
</svg>
