<svg xmlns="http://www.w3.org/2000/svg" x="0px" y="0px"
	 viewBox="0 0 768 439" style="enable-background:new 0 0 768 439;" xml:space="preserve">
<style type="text/css">
	.st0{fill:#2BBF7F;}
	.st1{fill:none;stroke:#231815;stroke-width:1.5;stroke-miterlimit:10;}
	.st2{fill:#FFFFFF;}
	.st3{fill:#F46C3D;}
	.st4{fill:#0052FF;}
	.st5{fill:#FFD200;}
	.st6{fill:#D4986A;}
	.st7{fill:#7D471E;}
</style>
<rect class="st0" width="768" height="439"/>
<g>
	<line class="st1" x1="0" y1="210.2" x2="768" y2="210.2"/>
	<line class="st1" x1="0" y1="224.8" x2="768" y2="224.8"/>
	<line class="st1" x1="0" y1="239.4" x2="768" y2="239.4"/>
	<line class="st1" x1="0" y1="254.1" x2="768" y2="254.1"/>
	<line class="st1" x1="0" y1="268.7" x2="768" y2="268.7"/>
	<line class="st1" x1="0" y1="283.4" x2="768" y2="283.4"/>
	<line class="st1" x1="0" y1="298" x2="768" y2="298"/>
</g>
<path class="st2" d="M215.7,326V183.4c0-7.3,5.9-13.3,13.3-13.3h309.9c7.3,0,13.3,5.9,13.3,13.3V326c0,7.3-5.9,13.3-13.3,13.3H229.1
	C221.7,339.4,215.7,333.3,215.7,326z"/>
<rect x="354.5" y="163.5" width="57.2" height="41"/>
<path class="st3" d="M382.9,109.2c-30,0-54.3,24.3-54.3,54.3s24.3,54.3,54.3,54.3s54.3-24.3,54.3-54.3S412.9,109.2,382.9,109.2z
	 M382.9,202.3c-21.4,0-38.8-17.4-38.8-38.8s17.4-38.8,38.8-38.8s38.8,17.4,38.8,38.8S404.3,202.3,382.9,202.3z"/>
<path class="st4" d="M405.1,131.7c-13,4.5-22.2,16.9-22.2,31.4c0,14.8,9.7,27.3,23.1,31.6c9.6-7.1,15.7-18.4,15.7-31.2
	C421.7,150.3,415.2,138.7,405.1,131.7z"/>
<path class="st4" d="M360.7,131.7c-10,7-16.6,18.6-16.6,31.8c0,12.8,6.2,24.1,15.7,31.2c13.4-4.3,23.1-16.8,23.1-31.6
	C382.9,148.5,373.6,136.2,360.7,131.7z"/>
<rect x="354.3" y="120.8" class="st2" width="57.2" height="41"/>
<path class="st0" d="M405.1,131.7c-13,4.5-22.2,16.9-22.2,31.4c0,0,0,0.1,0,0.1h38.8C421.6,150.1,415.1,138.6,405.1,131.7z"/>
<path class="st0" d="M360.7,131.7c-9.9,7-16.5,18.5-16.6,31.5h38.8c0,0,0-0.1,0-0.1C382.9,148.5,373.6,136.2,360.7,131.7z"/>
<path class="st5" d="M382.9,109.2c-29.9,0-54.1,24.1-54.3,54h15.5c0.2-21.3,17.5-38.5,38.8-38.5s38.6,17.2,38.8,38.5h15.5
	C437,133.3,412.8,109.2,382.9,109.2z"/>
<path d="M548.9,285.8v-59.3c0-4.7-3.8-8.6-8.6-8.6l0,0c-4.7,0-8.6,3.8-8.6,8.6v59.3c0,4.7,3.8,8.6,8.6,8.6l0,0
	C545.1,294.6,548.9,290.7,548.9,285.8z"/>
<path class="st6" d="M444.2,53.4c-4.7-8.5-31-53.4-31-53.4H235.5c0,0,13.7,29.8,51.1,50.1l14.3,8c0,0-6.3,8.5-1.6,15.1
	s5.8,8.2,21.1,9.9l4.4,8.2l23.9,29.1c0,0,10.2,14.3,19.5,15.4c0,0,15.4,0.3,18.7-7.4c0,0,3.6-4.7,4.1-9.3c0,0,0.6-5.1-0.5-8.6
	c3.3,0.2,8.8,2,8.8,2l32.9-26.3c0,0,14-6.6,15.7-20.3C447.8,65.8,448.9,61.9,444.2,53.4z M400.9,66c-1.6,4.9-19.2,26.1-19.2,26.1
	l-4.9-7.1l15.7-32.4C392.3,52.6,402.5,61.1,400.9,66z"/>
<path class="st7" d="M417.6,57.6c-5.6-10.3-32.3-42-32.3-42S376.5,6.4,369.8,0h-32.1l5,15.6c0,0,1-7.3,6.9-5s15.3,9.7,19,13.9
	c3.8,4.2,20.2,23.6,20.2,23.6l3.5,4.5c0,0,10.2,8.5,8.5,13.5s-19.2,26.1-19.2,26.1l4.7,10.7l25.2-25.8
	C411.5,77.1,423.2,67.9,417.6,57.6z"/>
<path d="M388.9,48.1c0,0-16.4-19.4-20.2-23.6c-3.8-4.2-13.1-11.5-19-13.9s-6.9,5-6.9,5l0.2,2.6c0,0,9.5,24.8,10.5,26.4
	s9.3,16.3,9.3,16.3l14,24.2l15.7-32.4L388.9,48.1z"/>
<path class="st7" d="M286.6,50.1l14.3,8c0,0,0,0,8,7c8,7,11.5,18,11.5,18l4.4,8.2l23.9,29.1c0,0,10.2,14.3,19.5,15.4
	c0,0,3.9,0.1,8.2-0.9L355.9,104c0,0-27-39.9-31.8-48.9s-10.1-10.7-10.1-10.7l-10.1-6c-24.1-13.6-39.2-33.2-43-38.5h-25.3
	C235.5,0,249.3,29.8,286.6,50.1z"/>
<g>
	<path d="M324,55.1c0.2,0.3,0.4,0.6,0.6,1v-1.4h-0.8C323.9,54.9,324,55,324,55.1z"/>
	<polygon points="295,54.8 300.9,58.1 295,54.8 	"/>
	<path d="M308.9,65.1c-8-7-8-7-8-7s-6.3,8.5-1.6,15.1s5.8,8.2,21.1,9.9C320.4,83.1,316.9,72.1,308.9,65.1z"/>
	<polygon points="320.4,83.1 321.4,85 321.4,85 	"/>
</g>
<path d="M541.1,158.2H226.9c-13.4,0-24.4,10.9-24.4,24.4v144.3c0,13.4,10.8,24.4,24.3,24.4h314.4c13.4,0,24.4-10.9,24.4-24.4V182.5
	C565.5,169.1,554.6,158.2,541.1,158.2z M552.3,326c0,7.3-5.9,13.3-13.3,13.3H229.1c-7.3,0-13.3-6-13.3-13.3V183.4
	c0-7.3,5.9-13.3,13.3-13.3h309.9c7.3,0,13.3,5.9,13.3,13.3V326z"/>
<path class="st6" d="M243.1,439c0,0,23-17.5,26.1-17.5c3.1,0,6.9-0.8,13.1,0c6.2,0.8,56.2,4.6,56.2,4.6s12.8,1.6,17.7-3.3
	c0,0,22.9,1.6,31.1-6.8h14.2c0,0,10.1-1.4,12.5-10.6c0,0,5.2-13.9,28.9-16.6l36.3-3.5c0,0,23.2-3.8,22.9-20.2l0-22.6
	c0,0-1.6-21.5-10.6-36.3s-19.4-22.6-19.4-22.6s-15-6.8-15.5,11.2c0,0-0.3,4.9,0.5,10.4s10.1,21.3,10.1,21.3l-0.5,24.5L437,351
	l4.6-27.5c0,0,1.1-14.5-4.6-21.5c-5.7-7.1-62.5-60.8-62.5-60.8s-10.6-5.2-17.7,1.6c0,0-7.9,7.4-1.1,18l45.3,52.9l-6.3,36.3
	l-9.5-32.2c0,0-4.1-9.8-7.1-12.5c-3-2.7-59.2-61.1-59.2-61.1s-5.2-4.9-13.1,0.3c0,0-7.9,5.5-1.9,16.6l49.9,69.6l-0.3,6
	c0,0-3-5.7-13.4-18c-10.4-12.3-35.2-37.6-35.2-37.6s-5.7-5.5-9.8-1.6c-2,1.9-3.3,4.9-3.5,8.4c-0.2,3.6,0.9,7.8,3.5,12
	c5.2,8.5,20.7,44.2,20.7,44.2l0.3,8.5l-58.4-1.6c0,0-26.1,3.8-36.4,9.3c-10.3,5.5-144.2,79-144.2,79H243.1z"/>
<path class="st7" d="M335.8,347.1c0-7.5-14.7-26.2-14.7-26.2l-26.6-40.8c-1.6,1.9-2.6,4.5-2.7,7.6c-0.2,3.6,0.9,7.8,3.5,12
	c5.2,8.5,20.7,44.2,20.7,44.2l0.3,8.5l-58.4-1.6c0,0-26.1,3.8-36.4,9.3c-10.3,5.5-144.2,79-144.2,79l74.2-0.1
	c42.1-24,81-46.2,89.8-51c12.8-7.1,30.4-5.2,30.4-5.2s31.4,1.4,48,0c16.6-1.4,16.2-16.6,16.2-16.6S335.8,354.6,335.8,347.1z"/>
<path class="st7" d="M370.6,371.9c5.1-9.4,0-24.8,0-24.8s-2.6-11.5-4.6-19.8c-2-8.3-14.6-23.4-14.6-23.4l-46.8-58.5
	c-1.9,2.1-5.2,7.2-0.7,15.6l49.9,69.6l9.6,49.9C363.4,380.5,365.4,381.4,370.6,371.9z"/>
<g>
	<g>
		<path class="st7" d="M411.2,300.2l-53.6-58.1c-0.2,0.2-0.5,0.4-0.7,0.6c0,0-7.9,7.4-1.1,18l45.3,52.9l-6.3,36.3l6.7,24.3
			c4.6-5.1,12.9-30,12.9-30s1.1-13.1,3.7-25.4C420.6,306.5,411.2,300.2,411.2,300.2z"/>
	</g>
</g>
<path class="st7" d="M475.8,364.4c8.3-2.1,9.7-12.4,9.7-12.4s0-14.7,0-18.1s-1.7-5.7-1.7-5.7l-21-45.6c-3.2,1.1-6,4.3-6.2,11.9
	c0,0-0.3,4.9,0.5,10.4s10.1,21.3,10.1,21.3l-0.5,24.5L437,351l-3.8,16.5L475.8,364.4z"/>
<circle class="st5" cx="443.4" cy="113.7" r="11"/>
<circle class="st3" cx="258.3" cy="125.9" r="12.2"/>
<rect x="290.9" y="124.8" transform="matrix(0.9708 -0.2401 0.2401 0.9708 -23.556 76.1727)" class="st4" width="19.9" height="19.9"/>
<rect x="464.7" y="89.3" transform="matrix(0.9504 0.3112 -0.3112 0.9504 54.0931 -146.112)" class="st3" width="40.5" height="14.3"/>
<polygon class="st2" points="296.6,104.2 270.7,100.5 286.9,80 "/>
<polygon class="st4" points="460.7,149 465.4,123.3 485.3,140.3 "/>
<circle class="st3" cx="107.5" cy="269" r="6.4"/>
<circle class="st3" cx="588.3" cy="284.1" r="6.4"/>
<circle class="st5" cx="647.3" cy="225.6" r="6.4"/>
<polygon class="st4" points="724.9,269.8 712.4,262.6 712.4,277 "/>
<polygon class="st4" points="162,298.9 174.4,306.1 174.4,291.7 "/>
<polygon class="st5" points="33.9,225.6 46.4,232.8 46.4,218.5 "/>
</svg>
