<svg xmlns="http://www.w3.org/2000/svg" x="0px" y="0px"
	 viewBox="0 0 768.89 439" style="enable-background:new 0 0 768.89 439;" xml:space="preserve">
<style type="text/css">
	.st0{fill:#B9C9C8;}
	.st1{fill:#FFFFFF;}
	.st2{fill:#2BC080;}
	.st3{fill:#F5D04E;}
	.st4{fill:#F46B3D;}
	.st5{fill:none;stroke:#F46B3D;stroke-width:2;stroke-miterlimit:10;}
	.st6{fill:none;stroke:#FFFFFF;stroke-width:2;stroke-miterlimit:10;}
	.st7{fill:none;stroke:#2BC080;stroke-width:2;stroke-miterlimit:10;}
</style>
<rect x="0.89" class="st0" width="768" height="439"/>
<rect x="414.16" y="96.25" width="297.24" height="272.05"/>
<rect x="414.16" y="71.6" class="st1" width="297.24" height="24.66"/>
<circle class="st2" cx="455.52" cy="83.87" r="4.46"/>
<circle class="st3" cx="441.25" cy="83.87" r="4.46"/>
<circle class="st4" cx="426.38" cy="83.87" r="4.46"/>
<rect x="58.26" y="96.25" width="297.24" height="272.05"/>
<rect x="435.66" y="285.48" class="st2" width="45.51" height="45.51"/>
<rect x="287.53" y="286.06" class="st4" width="45.51" height="45.51"/>
<path d="M435.66,304.24l7.86-2.88c0,0,2.66-1.55,8.42-1.44c0,0,0.55-2.99,3.43-4.21c2.88-1.22,7.2-2.33,7.09-6.31
	c0,0,2.33,3.43-3.54,9.3l4,0.33c0,0,4.2-1.22,5.53-6.53c0,0,2.55,2.88-3.88,10.3c0,0,0.55,4.54,2.99,5.98c0,0-2.1,0.44-1.66,1.66
	l5.54,9.64c0,0,1.88,2.77,0.44,4.65l-1.88,2.66c0,0-5.21,2.66-8.08-1.77c0,0-6.53-2.21-10.41-2.33c0,0-5.87,5.09-6.98,7.75h-8.86
	V304.24z"/>
<path d="M287.53,289.3l9.53,6.2c0,0,1.55-2.74,4.17-2.5c2.62,0.24,3.81,1.79,2.5,6.2l9.89,5.6c0,0,2.15,0.83,1.19,2.86
	c0,0-0.95,1.79,1.31,2.74c2.26,0.95,5.72,3.1,5.72,3.1s2.74,1.55,0.95,3.81c0,0,1.07,6.2-21.93,10.25h-13.35V289.3z"/>
<circle class="st4" cx="310.03" cy="309.24" r="1.9"/>
<circle class="st2" cx="462.21" cy="310.22" r="1.9"/>
<rect x="81.91" y="156.08" class="st4" width="13.5" height="50.42"/>
<rect x="117.02" y="182.78" class="st4" width="13.5" height="50.42"/>
<rect x="153.93" y="195.21" class="st4" width="13.5" height="57.8"/>
<rect x="189.64" y="217.04" class="st4" width="13.5" height="33.57"/>
<rect x="225.65" y="239.5" class="st4" width="13.5" height="69.73"/>
<rect x="530.48" y="243.99" class="st2" width="13.5" height="59.43"/>
<rect x="566.49" y="207.06" class="st2" width="13.5" height="60.39"/>
<rect x="602.66" y="173.31" class="st2" width="13.5" height="39.88"/>
<rect x="638.46" y="161.26" class="st2" width="13.5" height="55.78"/>
<rect x="675.41" y="152.78" class="st2" width="13.5" height="79.49"/>
<line class="st5" x1="88.66" y1="132.11" x2="88.66" y2="220.73"/>
<line class="st5" x1="125.05" y1="171.64" x2="123.77" y2="260.26"/>
<line class="st5" x1="160.68" y1="165.4" x2="160.68" y2="270.48"/>
<line class="st5" x1="196.54" y1="193.07" x2="196.54" y2="278.12"/>
<line class="st5" x1="232.41" y1="204.92" x2="232.41" y2="337.23"/>
<line class="st6" x1="264.41" y1="119.33" x2="264.41" y2="248.53"/>
<line class="st6" x1="263.34" y1="272.1" x2="263.34" y2="345.43"/>
<line class="st6" x1="276.88" y1="260.93" x2="343.95" y2="260.93"/>
<line class="st6" x1="505.14" y1="119.33" x2="505.14" y2="248.53"/>
<line class="st6" x1="506.21" y1="272.1" x2="506.21" y2="345.43"/>
<line class="st6" x1="492.67" y1="260.93" x2="425.6" y2="260.93"/>
<line class="st7" x1="537.24" y1="220.89" x2="537.24" y2="327.55"/>
<line class="st7" x1="573.24" y1="193.25" x2="573.24" y2="303.43"/>
<line class="st7" x1="609.41" y1="153.73" x2="609.41" y2="229.72"/>
<line class="st7" x1="645.79" y1="130.6" x2="645.79" y2="243.99"/>
<line class="st7" x1="682.16" y1="128.72" x2="682.16" y2="259.42"/>
<rect x="288.7" y="142.23" class="st4" width="44.33" height="7.67"/>
<rect x="288.7" y="161.2" class="st4" width="44.33" height="7.67"/>
<rect x="288.7" y="180.17" class="st4" width="44.33" height="7.67"/>
<rect x="288.7" y="199.15" class="st4" width="44.33" height="7.67"/>
<rect x="288.7" y="218.12" class="st4" width="44.33" height="7.67"/>
<rect x="288.7" y="142.23" class="st2" width="20.8" height="7.67"/>
<rect x="288.7" y="161.2" class="st2" width="15.54" height="7.67"/>
<rect x="288.7" y="180.17" class="st2" width="10.4" height="7.67"/>
<rect x="288.7" y="199.15" class="st2" width="15.54" height="7.67"/>
<rect x="288.7" y="218.12" class="st2" width="10.4" height="7.67"/>
<rect x="437.29" y="142.23" class="st4" width="44.33" height="7.67"/>
<rect x="437.29" y="161.2" class="st4" width="44.33" height="7.67"/>
<rect x="437.29" y="180.17" class="st4" width="44.33" height="7.67"/>
<rect x="437.29" y="199.15" class="st4" width="44.33" height="7.67"/>
<rect x="437.29" y="218.12" class="st4" width="44.33" height="7.67"/>
<rect x="437.29" y="142.23" class="st2" width="39.31" height="7.67"/>
<rect x="437.29" y="161.2" class="st2" width="27.97" height="7.67"/>
<rect x="437.29" y="180.17" class="st2" width="37.01" height="7.67"/>
<rect x="437.29" y="199.15" class="st2" width="22.17" height="7.67"/>
<rect x="437.29" y="218.12" class="st2" width="33.52" height="7.67"/>
<rect x="58.26" y="71.6" class="st1" width="297.24" height="24.66"/>
<circle class="st2" cx="99.61" cy="83.87" r="4.46"/>
<circle class="st3" cx="85.35" cy="83.87" r="4.46"/>
<circle class="st4" cx="70.48" cy="83.87" r="4.46"/>
</svg>
