<svg xmlns="http://www.w3.org/2000/svg" x="0px" y="0px"
	 viewBox="0 0 768 440" style="enable-background:new 0 0 768 440;" xml:space="preserve">
<style type="text/css">
	.st0{fill:#0062FF;}
	.st1{fill:none;stroke:#000000;stroke-miterlimit:10;}
	.st2{fill:#2BBF7F;}
	.st3{fill:#F46C3D;}
	.st4{fill:#FFFFFF;}
	.st5{fill:#FFD200;}
	.st6{fill:#B8C9C8;}
</style>
<rect class="st0" width="768" height="440"/>
<circle class="st1" cx="384" cy="220" r="249.1"/>
<circle class="st1" cx="384" cy="220" r="203.7"/>
<circle class="st1" cx="384" cy="220" r="158.1"/>
<path class="st2" d="M231.2,220.1l-12-0.1c0.3-46.1,21.2-91,57.3-123.1l8,9C250.9,135.8,231.4,177.5,231.2,220.1z"/>
<path class="st3" d="M324.7,360.4c-22.1-9.3-42-23.8-57.7-42.6l-9.2,7.7c17.1,20.3,38.6,36,62.5,46L324.7,360.4z"/>
<path d="M476.2,331.2"/>
<path class="st4" d="M492.1,343.4c23.9-20.9,41.4-48.4,50.1-79.5l-11.6-3.2c-8.1,29.1-24.6,54.8-47,74.2L492.1,343.4z"/>
<path class="st5" d="M199.9,148l-11.2-4.2c-9.3,23.6-14.4,49.4-14.4,76.3c0,22,3.4,43.2,9.7,63.2l11.3-3.9
	c-5.9-18.7-9.1-38.6-9.1-59.3C186.3,194.6,191.2,170.3,199.9,148z"/>
<path class="st2" d="M524.3,80.9c35.5,35.7,57.4,84.9,57.4,139.1c0,0.5,0,1,0,1.5l12,0.4c0-0.6,0-1.3,0-1.9
	c0-57.5-23.3-109.7-61-147.7L524.3,80.9z"/>
<path class="st2" d="M454.5,404.7c-21.9,8.4-45.7,13-70.5,13c-24.3,0-47.5-4.4-69-12.4l-4,11.3c22.7,8.5,47.3,13.1,73,13.1
	c26.2,0,51.4-4.9,74.5-13.7L454.5,404.7z"/>
<path class="st4" d="M237.2,87.8C257.6,65.2,283,47.3,311.8,36l-3.9-11.3c-30.7,12-57.9,31.1-79.6,55.2L237.2,87.8z"/>
<path class="st3" d="M608,314.8c-11.9,28.1-29.1,53.9-51.2,76.2l8.6,8.4c23.2-23.5,41.3-50.6,53.8-80.2L608,314.8z"/>
<path class="st5" d="M478.3-4.2c28.6,12,55,29.7,77.6,52.3c10.7,10.7,20.2,22.1,28.6,34.3l9.9-6.8c-8.8-12.7-18.8-24.8-30-36
	C540.6,15.9,513-2.6,483-15.2L478.3-4.2z"/>
<path class="st4" d="M231.1,409c-6.6-5.3-12.9-11-19-17.1c-20.3-20.3-36.6-43.6-48.4-68.9l-11,4.8c12.4,26.6,29.5,51.1,50.9,72.5
	c6.4,6.4,13,12.3,19.9,17.9L231.1,409z"/>
<circle class="st4" cx="633.1" cy="220" r="6.8"/>
<circle class="st4" cx="324.7" cy="72.3" r="6.8"/>
<circle class="st5" cx="448.8" cy="75.6" r="6.8"/>
<circle class="st5" cx="165" cy="100.4" r="6.8"/>
<circle class="st3" cx="134.9" cy="220" r="6.8"/>
<circle class="st2" cx="235" cy="359.4" r="6.8"/>
<circle class="st5" cx="422.9" cy="372.9" r="6.8"/>
<circle class="st2" cx="420.7" cy="20.1" r="6.8"/>
<circle class="st3" cx="384.4" cy="220" r="112.9"/>
<circle cx="384.4" cy="221.1" r="96.7"/>
<circle class="st3" cx="384.4" cy="231.2" r="96.7"/>
<path d="M381.1,180.3c0,0,12.5-18.1,44.4-10c0,0-13.7,3.7-16.5,8.4c0,0,24.6-5.3,35.3,5.6c0,0-12.5,0.7-14.6,4.9c0,0,22.5,0,29,12.5
	c0,0-11.6-3-16.3,1.2c0,0,19.5,0,28.1,17.4c0,0-13.5-3.6-15.8-1.2c0,0,11.8,0.5,22.1,17v4.4c0,0-10.7-5.8-14.2-4.4
	c0,0,11.6,6.7,11.8,8.4c0,0,0,10.2-13.2,29.3L381.1,180.3z"/>
<path class="st4" d="M342.8,221l-22.8,31.8c0,0-3.3,7.4-1.4,12.1s7.4,15.3,25.5,9.1c0,0,4.4-1.4,4.6-8.6c0,0,16-8.8,20.2-12.4
	c5,0.9,11.2,0.1,17.9-4.5h3c0,0,2.8,0.4,2.1,5.1s-1.2,22.1-17,33.2s-22.3,23.2-22.3,23.2s62.9,25.8,108.5-36.2
	c0,0-2.8-82.2-82.7-93.8c0,0-6-14.6-15.1-16.7c0,0-3.7,12.8,1.6,22.1l-21.4,25.3C343.8,210.5,340.5,213.1,342.8,221z"/>
<path class="st6" d="M411.8,265.3c0,0,1.5,8.4-22.1,29c0,0-5.4,3.9,0,5.1l21.2-2.3c0,0,4.4-0.9,4.6-6.3c0.2-5.3-1.6-23.5-1.6-23.5
	S414.1,266,411.8,265.3z"/>
<g>
	<g>
		<path class="st6" d="M390,248.4c0,0,2.8,0.4,2.1,5.1c-0.5,3.3-0.9,12.8-6.5,22.1l0,0c29.5-32.5,10.5-51.3,10.5-51.3
			c1.1,9.7-5,19.2-8.9,24.2H390z"/>
		<path class="st6" d="M378.6,179.9c0,0-6-14.6-15.1-16.7c0,0-0.1,0.3-0.2,0.9l8.1,19.5c0,0,5.6,14.2,5.8,15.6
			c0.2,1.4,5.3,6.5,7.7,0s11.8-2.6,11.8-2.6s36.5,18.6,34.8,66.1c-1.2,33.9-1.4,33.9-2.6,40.8c11-6.4,22.1-15.8,32.3-29.7
			C461.3,273.7,458.5,191.5,378.6,179.9z"/>
		<path class="st6" d="M370.8,253.1c-0.5-0.1-1.1-0.2-1.7-0.2C369.7,253,370.2,253.1,370.8,253.1z"/>
		<path class="st6" d="M348.9,265.3c0,0,16-8.8,20.2-12.4c-7.3,0-13.7-6.4-13.7-6.4L348.9,265.3z"/>
	</g>
</g>
<path d="M352.8,219.1c0,0-3-5.3,0-8.5s6.3-2.1,7.9-1.4L352.8,219.1z"/>
<path d="M324.2,267.7c0,0,4.6-3.7,3.9-8.1c-0.7-4.4-1.4-3.9-3.9-2.3C321.7,258.8,324.2,267.7,324.2,267.7z"/>
<path d="M327.2,164.3l28.9,31.1l9-10.2l-37.5-21.5C327.3,163.5,326.9,164,327.2,164.3z"/>
<path class="st0" d="M327.2,164.3l28.9,31.1l4.5-5.1L327.2,164.3C327.2,164.2,327.2,164.3,327.2,164.3z"/>
<path class="st3" d="M344.8,173.6l-17.2-9.8c-0.3-0.2-0.7,0.2-0.4,0.5l16.7,18L344.8,173.6z"/>
<polygon class="st0" points="354.4,179.1 353.1,192.1 356.1,195.4 365.1,185.2 "/>
<path class="st5" d="M344.4,177.6l-17.2-13.4c0,0,0,0,0,0l16.7,18L344.4,177.6z"/>
<polygon class="st2" points="353.8,185 353.1,192.1 356.1,195.4 360.6,190.3 "/>
<path class="st5" d="M335.6,168.3l-8-4.6c-0.3-0.2-0.7,0.2-0.4,0.5l7.6,8.2L335.6,168.3z"/>
<path class="st4" d="M335.2,170.5l-8-6.2c0,0,0,0,0,0l7.6,8.2L335.2,170.5z"/>
<polygon class="st4" points="350,156.3 348.8,150.7 347.7,156.3 342.1,157.5 347.7,158.6 348.8,164.2 350,158.6 355.6,157.5 "/>
<polygon class="st4" points="321.6,181.1 320.3,175.5 319.2,181.1 313.6,182.3 319.2,183.4 320.3,189 321.6,183.4 327.2,182.3 "/>
<polygon class="st4" points="329.9,202.8 329.2,199.5 328.5,202.8 325.1,203.5 328.5,204.2 329.2,207.5 329.9,204.2 333.2,203.5 "/>
</svg>
