<svg xmlns="http://www.w3.org/2000/svg" x="0px" y="0px"
	 viewBox="0 0 768 438.2" style="enable-background:new 0 0 768 438.2;" xml:space="preserve">
<style type="text/css">
	.st0{fill:#B8C9C8;}
	.st1{fill:#0062FF;}
	.st2{opacity:0.3;fill:#FFFFFF;enable-background:new    ;}
	.st3{opacity:0.3;fill:#EDEDED;enable-background:new    ;}
	.st4{fill:#FFD200;}
	.st5{fill:#364254;}
	.st6{fill:#191D22;}
	.st7{fill:#FEE0D0;}
	.st8{fill:#DE8557;}
	.st9{fill:#FFFFFF;}
	.st10{fill:#7C3929;}
	.st11{fill:url(#SVGID_1_);}
	.st12{fill:url(#SVGID_00000013185961881505763430000004898259304031036548_);}
	.st13{fill:url(#SVGID_00000036209818800337679570000007206425100051357056_);}
</style>
<rect x="0.3" y="-0.2" class="st0" width="768" height="438.3"/>
<path class="st1" d="M768.3,238.9l-0.3-1.4c0,0-26.7,30-53.5,66.1c-28.6,38.4-82.8,25.7-150.3,43.8c-56.6,15.2-89.9,65.6-89.1,90.7
	h293.2L768.3,238.9L768.3,238.9z"/>
<path class="st2" d="M768.3,20.4c-79.5,41.4-289.6,107.1-390.6,119.9c-117.3,14.9-261.5,105-291.7,124c-16,10.1-53.7,42.6-85.7,71
	V438h406.1c115.5-153.6,162.4-114.3,228.9-127.7c49-9.9,106-75.8,133-110.5L768.3,20.4L768.3,20.4z"/>
<path class="st3" d="M0.3,166.6c88.7-8,318.8-69.4,347.1-83.6c29.6-14.8,133.1-24.2,169.4-3.9c30.3,17,187.3,36.8,251.5,87.6V-0.2
	H0.3V166.6z"/>
<path d="M227.6,326.7h24c0,0,6.8,0.3,15.3,6.8c0,0,48.8,10.2,78.3,16.2l18.1-3.7c17.1-1.3,13.3-6,13.3-6
	c-4.8-15.5-21.6-12.5-21.6-12.5l-38.3,2.7c0,0,20.1-7.3,27.5-11.2c7.3-3.8-0.8-9-0.8-9c-8.3-6-17.3-1.7-17.3-1.7l-53.4,15.5
	c0,0,19.8-7.7,25.8-14.2s-4.3-7.3-8.7-8.7c-4.3-1.3-15.2,1.7-15.2,1.7S240.1,319.7,227.6,326.7L227.6,326.7z"/>
<path class="st4" d="M207.4,125.9c0,0,2.8,24.9,25,46.6c0,0-58.8,57.8-65.1,105.1c-6.3,47.2,49.2,59.8,49.2,59.8
	s85.4,13.4,105.9-13.7s8.5-59.8-19.9-105.3c-28.5-45.5-33-44.7-33-44.7s3.7-15.5,10.6-27.3c0,0,12.5-10.6,1.7-16.9
	c0,0-9.4,3.1-10-3.7s-8.3-12.5-14.5-9.4c-6.3,3.1-7.7,11.1-11.7,8s-6.8-12.9-15.3-8.9s-3.2,10.6-8,8.9s-3.4-4.3-8.5-5.1
	C208.5,118.5,207.4,125.9,207.4,125.9z"/>
<path class="st5" d="M244,172.1c0,0-16.4-3.4-16.8-1.4c-0.3,2-2,5.1,3.9,6.3c6,1.1,19.9,0,19.9,0s-3.4,25,2.6,31.6h6.8
	c0,0-6-23.6-3.1-25.3c0,0,24.5,14.5,17.4,64.6c0,0-1.7,25.3,14.5,33.6l3.4-6c0,0-12.5-4.6-10.5-29s5.1-38.1-18.5-69.7h7.1
	c0,0,4.8-3.8-0.3-6.6h-4c0,0,5.1-6.2,0-11.3s-10.8,0.3-11.4,3.7c0,0-8-3.4-9.4-1.1S239.5,164.7,244,172.1z"/>
<path class="st6" d="M437,190.6l2.6,14c0,0,1.1,4.2,5.2,1c4.1-3.3,4.1-15.4,4.1-15.4l1.6-26.3c0,0-3.5,9-4.3,13.4
	S441.7,190,437,190.6z"/>
<path class="st7" d="M344.2,349.8l0.8-0.2c-29.5-6-78.2-16.1-78.2-16.1c-8.5-6.5-15.3-6.8-15.3-6.8h-23.7c-0.1,0.1-0.2,0.1-0.3,0.2
	l0,0c-12.2,2.7-16-9.5-16-9.5s9.2-4.3,19.8-7.8c9.8-3.3,23-5.8,29.8-13c13.8-14.2-2.7-24.1-5.7-25c-3-0.8-18.6,2.5-22.8,6
	s-23.6,10-23.6,10c-34.1,3.5-59.6,16-62.6,16.8c-3,1-37.1,26.8-37.1,26.8L0,416.2l0.3,22h80.5l54.2-49.3
	c19-15.7,38.5-15.2,38.5-15.2s56.9-1.7,68.1-1.7s19.8-7.8,19.8-7.8l96.2,4.3C365.9,356.6,343.9,350.1,344.2,349.8z"/>
<path class="st6" d="M452.2,208.3c0,0,7.1-0.5,6.9-12s-8.9-27.1,0.9-48.2c0,0-6.7,3.7-8.7,15.3c0,0-1.1,34-2.3,38
	C449,201.4,448.9,208.7,452.2,208.3z"/>
<g>
	<g>
		<path class="st8" d="M80.9,438.2l54.2-49.3c19-15.7,38.5-15.2,38.5-15.2s56.9-1.7,68.1-1.7s19.8-7.8,19.8-7.8l96.2,4.3
			c1.3-1.7,1.8-3.5,1.8-5L262,348.8c0,0-15.2,0-24.1,0c-9.2,0-68.6,0-68.6,0s-18.5-1.3-33.6,9c-11.3,7.8-86.2,69.1-101.5,80.4
			L80.9,438.2L80.9,438.2z"/>
		<path class="st8" d="M261.3,296.5c5.5-5.7,6.2-10.7,4.8-14.7c-17.3,7.5-63.1,28.5-63.1,28.5l-13.8,6c0,0-8.2,8.7,0,10.8l32.3-0.3
			c-7.5-1.5-10-9.5-10-9.5s9.2-4.3,19.8-7.8C241.1,306.4,254.3,303.7,261.3,296.5z"/>
	</g>
</g>
<path class="st9" d="M269.9,244c-0.8-1.4-2-2.5-3.2-3.2c-1-0.6-2.4-1-4-1.5c1.7-0.6,2.9-1.3,4-2.1c1-0.8,1.8-1.8,2.4-2.9
	c0.6-1.1,0.8-2.4,0.8-3.5c0-1.7-0.6-3.3-1.5-4.7c-1-1.4-2.5-2.5-4.3-3.3c-0.7-0.3-1.5-0.6-2.5-0.7v-6.7h-6.4v6.3h-4v-6.3h-6.7v6.3
	h-9.8v5.2h1.5c1,0,1.7,0.1,2,0.3c0.4,0.1,0.6,0.4,0.8,0.7c0.1,0.3,0.1,1,0.1,2.1v21c0,1.1,0,1.8-0.1,2.1s-0.4,0.6-0.8,0.7
	c-0.4,0.1-1,0.3-2,0.3h-1.5v5.2h9.8v6.3h6.4v-6.1h3.6c0.1,0,0.3,0,0.4,0v6.3h6.4V259c1.1-0.1,2-0.4,2.8-0.8c2.2-0.8,3.9-2.2,5.2-3.9
	c1.1-1.7,1.8-3.5,1.8-5.6C271.1,247,270.7,245.4,269.9,244z M248.4,227.6h4.2c2.4,0,4,0.1,5,0.4s1.7,0.8,2.1,1.5
	c0.6,0.7,0.7,1.5,0.7,2.5s-0.3,1.8-0.8,2.5c-0.6,0.7-1.3,1.3-2.4,1.7c-1,0.4-2.6,0.6-4.9,0.6h-4.2v-9.2
	C248.1,227.6,248.4,227.6,248.4,227.6z M260.1,251c-0.7,1-1.7,1.5-2.6,1.8c-1.1,0.3-2.4,0.4-4,0.4h-2.8c-1,0-1.5,0-1.7-0.1
	c-0.1-0.1-0.4-0.3-0.4-0.6c0-0.1-0.1-0.8-0.1-2.1v-8.2h4.9c2.1,0,3.8,0.1,4.9,0.6c1.1,0.4,1.8,1,2.4,1.8s0.8,1.7,0.8,2.8
	C261.2,248.9,260.9,250,260.1,251z"/>
<path class="st10" d="M481.2,90.7c-14.6,6.9-14.1,8.8-31.1,28.5s-16.6,35.9-16.6,35.9c-3.4,35.3,0.5,34.5,0.5,34.5
	c9.2,2.3,12.5-15.5,12.5-15.5c5.3-18.7,5.6-18.7,11.4-25.3c3.2-3.6,7-3.9,18.6-11.9c16.9-11.7,27.8-3.3,27.8-3.3
	c17.8,11.8-0.1,22.1-0.1,22.1c-11.4,5.1-21.5,9.3-21.5,9.3c-10.5,10.6,2.8,13,2.8,13c53.1,1.7,88.4-63.7,88.4-63.7
	C632.5,84.8,707.5,80,768.3,82.5V-0.2h-20.8c-138,23.2-222,71.4-238.4,79.6C487,90.3,495.8,83.8,481.2,90.7z"/>
<linearGradient id="SVGID_1_" gradientUnits="userSpaceOnUse" x1="82.4" y1="-260.7" x2="117.2" y2="-260.7" gradientTransform="matrix(1 0 0 -1 0 -200)">
	<stop  offset="3.026530e-02" style="stop-color:#1B1C23"/>
	<stop  offset="1" style="stop-color:#313B4B"/>
</linearGradient>
<path class="st11" d="M117.2,60.7c-9.6,0-17.4,7.8-17.4,17.4c0-9.6-7.8-17.4-17.4-17.4c9.6,0,17.4-7.8,17.4-17.4
	C99.8,52.9,107.7,60.7,117.2,60.7z"/>
<polygon class="st9" points="645.8,238.8 643.6,228.6 641.6,238.8 631.3,240.9 641.6,243.1 643.6,253.3 645.8,243.1 656,240.9 "/>
<linearGradient id="SVGID_00000096040848948773841910000008363730421028159922_" gradientUnits="userSpaceOnUse" x1="332.5528" y1="-269.3" x2="360.595" y2="-269.3" gradientTransform="matrix(1 0 0 -1 0 -200)">
	<stop  offset="3.026530e-02" style="stop-color:#1B1C23"/>
	<stop  offset="1" style="stop-color:#313B4B"/>
</linearGradient>
<path style="fill:url(#SVGID_00000096040848948773841910000008363730421028159922_);" d="M360.6,69.3c-7.7,0-14,6.3-14,14
	c0-7.7-6.3-14-14-14c7.7,0,14-6.3,14-14C346.5,63.1,352.9,69.3,360.6,69.3z"/>
<path class="st9" d="M503.6,314.1c-3.9,0-7,3.1-7,7c0-3.9-3.1-7-7-7c3.9,0,7-3.1,7-7C496.6,310.9,499.8,314.1,503.6,314.1z"/>
<linearGradient id="SVGID_00000094580405959660364080000018129072121328975021_" gradientUnits="userSpaceOnUse" x1="99.8635" y1="-408.05" x2="124.5635" y2="-408.05" gradientTransform="matrix(1 0 0 -1 0 -200)">
	<stop  offset="3.026530e-02" style="stop-color:#1B1C23"/>
	<stop  offset="1" style="stop-color:#313B4B"/>
</linearGradient>
<polygon style="fill:url(#SVGID_00000094580405959660364080000018129072121328975021_);" points="114.3,206 112.1,195.7 110.1,206 
	99.8,208 110.1,210.2 112.1,220.4 114.3,210.2 124.5,208 "/>
</svg>
