<?xml version="1.0" encoding="utf-8"?>
<!-- Generator: Adobe Illustrator 26.3.1, SVG Export Plug-In . SVG Version: 6.00 Build 0)  -->
<svg version="1.1" id="图层_1" xmlns="http://www.w3.org/2000/svg" xmlns:xlink="http://www.w3.org/1999/xlink" x="0px" y="0px"
	 viewBox="0 0 354.3 283.5" style="enable-background:new 0 0 354.3 283.5;" xml:space="preserve">
<style type="text/css">
	.st0{fill:#B22234;}
	.st1{fill:#FFFFFF;}
	.st2{fill:#3C3B6E;}
</style>
<path class="st0" d="M0,0h354.3v283.5H0V0z"/>
<g>
	<path d="M0,32.7h354.3 M354.3,76.3H0 M0,119.9h354.3 M354.3,163.5H0 M0,207.1h354.3 M354.3,250.8H0"/>
	<path class="st1" d="M354.3,261.7H0v-21.8h354.3V261.7z M354.3,218H0v-21.8h354.3V218z M354.3,174.4H0v-21.8h354.3V174.4z
		 M354.3,130.8H0V109h354.3V130.8z M354.3,87.2H0V65.4h354.3V87.2z M354.3,43.6H0V21.8h354.3V43.6z"/>
</g>
<path class="st2" d="M0,0h215.4v152.6H0V0z"/>
<g>
	<g id="d">
		<g id="c">
			<g id="e">
				<g id="b">
					<path id="a" class="st1" d="M18,6.5l5.1,15.8L9.7,12.6h16.6l-13.4,9.8L18,6.5z"/>
					<g>
						<path id="a_00000178924193021838784720000013328702293812768427_" class="st1" d="M18,37.1l5.1,15.8L9.7,43.1h16.6l-13.4,9.8
							L18,37.1z"/>
					</g>
					<g>
						<path id="a_00000134216091829597375830000004058227315756498860_" class="st1" d="M18,67.6l5.1,15.8L9.7,73.6h16.6l-13.4,9.8
							L18,67.6z"/>
					</g>
					<g>
						<path id="a_00000043454684908358041020000008247148827952787106_" class="st1" d="M18,98.1l5.1,15.8l-13.4-9.8h16.6l-13.4,9.8
							L18,98.1z"/>
					</g>
				</g>
				<g>
					<path id="a_00000081646405291092705380000012035341562028908206_" class="st1" d="M18,128.6l5.1,15.8l-13.4-9.8h16.6l-13.4,9.8
						L18,128.6z"/>
				</g>
			</g>
			<g>
				<g id="b_00000156561840611363004620000001875468394512580025_">
					<path id="a_00000151504412627880061320000000060955367735581568_" class="st1" d="M35.9,21.8L41,37.6l-13.4-9.8h16.6l-13.4,9.8
						L35.9,21.8z"/>
					<g>
						<path id="a_00000068660936068991759430000004728366767983132587_" class="st1" d="M35.9,52.3L41,68.1l-13.4-9.8h16.6
							l-13.4,9.8L35.9,52.3z"/>
					</g>
					<g>
						<path id="a_00000111156862113713530330000012673332824351963024_" class="st1" d="M35.9,82.9L41,98.6l-13.4-9.8h16.6
							l-13.4,9.8L35.9,82.9z"/>
					</g>
					<g>
						<path id="a_00000026140908827982767130000004839875215040542885_" class="st1" d="M35.9,113.4l5.1,15.8l-13.4-9.8h16.6
							l-13.4,9.8L35.9,113.4z"/>
					</g>
				</g>
			</g>
		</g>
		<g>
			<g id="c_00000160886699905980537790000007575753999222696881_">
				<g id="e_00000169535384491289715590000005311967012124549803_">
					<g id="b_00000145036379178077225210000015406460240144780465_">
						<path id="a_00000144303008999005595100000016227636019710945689_" class="st1" d="M53.9,6.5L59,22.3l-13.4-9.8h16.6l-13.4,9.8
							L53.9,6.5z"/>
						<g>
							<path id="a_00000140010527844820927440000006290543862564277133_" class="st1" d="M53.9,37.1L59,52.8l-13.4-9.8h16.6
								l-13.4,9.8L53.9,37.1z"/>
						</g>
						<g>
							<path id="a_00000098188388417918975840000010574679471803031426_" class="st1" d="M53.9,67.6L59,83.4l-13.4-9.8h16.6
								l-13.4,9.8L53.9,67.6z"/>
						</g>
						<g>
							<path id="a_00000109016118689052849860000006025872183483244934_" class="st1" d="M53.9,98.1l5.1,15.8l-13.4-9.8h16.6
								l-13.4,9.8L53.9,98.1z"/>
						</g>
					</g>
					<g>
						<path id="a_00000060030869608638923160000016687369871795653045_" class="st1" d="M53.9,128.6l5.1,15.8l-13.4-9.8h16.6
							l-13.4,9.8L53.9,128.6z"/>
					</g>
				</g>
				<g>
					<g id="b_00000163045186472539353040000011369987474994669503_">
						<path id="a_00000096761866862363324180000008011390904773854391_" class="st1" d="M71.8,21.8l5.1,15.8l-13.4-9.8h16.6
							l-13.4,9.8L71.8,21.8z"/>
						<g>
							<path id="a_00000040563274443692208170000012956610065568559500_" class="st1" d="M71.8,52.3l5.1,15.8l-13.4-9.8h16.6
								l-13.4,9.8L71.8,52.3z"/>
						</g>
						<g>
							<path id="a_00000039847158006418112350000016866615587711987105_" class="st1" d="M71.8,82.9l5.1,15.8l-13.4-9.8h16.6
								l-13.4,9.8L71.8,82.9z"/>
						</g>
						<g>
							<path id="a_00000039119712597962867720000010735884257491067269_" class="st1" d="M71.8,113.4l5.1,15.8l-13.4-9.8h16.6
								l-13.4,9.8L71.8,113.4z"/>
						</g>
					</g>
				</g>
			</g>
		</g>
	</g>
	<g>
		<g id="d_00000133506128049412759490000013450149538349813438_">
			<g id="c_00000145753689312091071570000006935104781644335785_">
				<g id="e_00000065067777062517799010000004275532311466685371_">
					<g id="b_00000161602780237893142390000000479363074710818211_">
						<path id="a_00000044165962362038090540000001249033580051882637_" class="st1" d="M89.8,6.5l5.1,15.8l-13.4-9.8h16.6
							l-13.4,9.8L89.8,6.5z"/>
						<g>
							<path id="a_00000139290760378481377280000009117242792805167283_" class="st1" d="M89.8,37.1l5.1,15.8l-13.4-9.8h16.6
								l-13.4,9.8L89.8,37.1z"/>
						</g>
						<g>
							<path id="a_00000044887471073865461340000011916142055997164427_" class="st1" d="M89.8,67.6l5.1,15.8l-13.4-9.8h16.6
								l-13.4,9.8L89.8,67.6z"/>
						</g>
						<g>
							<path id="a_00000026150245896383090460000015286266633965485186_" class="st1" d="M89.8,98.1l5.1,15.8l-13.4-9.8h16.6
								l-13.4,9.8L89.8,98.1z"/>
						</g>
					</g>
					<g>
						<path id="a_00000088835115765234588770000016956484703098201271_" class="st1" d="M89.8,128.6l5.1,15.8l-13.4-9.8h16.6
							l-13.4,9.8L89.8,128.6z"/>
					</g>
				</g>
				<g>
					<g id="b_00000170990803692850642000000006535546588825416121_">
						<path id="a_00000019669328755326146620000002765001786355565474_" class="st1" d="M107.7,21.8l5.1,15.8l-13.4-9.8H116
							l-13.4,9.8L107.7,21.8z"/>
						<g>
							<path id="a_00000036236879250157499800000009983062343868508815_" class="st1" d="M107.7,52.3l5.1,15.8l-13.4-9.8H116
								l-13.4,9.8L107.7,52.3z"/>
						</g>
						<g>
							<path id="a_00000029763054776761573860000006933653431853814963_" class="st1" d="M107.7,82.9l5.1,15.8l-13.4-9.8H116
								l-13.4,9.8L107.7,82.9z"/>
						</g>
						<g>
							<path id="a_00000133504818351705177250000010696154992976433540_" class="st1" d="M107.7,113.4l5.1,15.8l-13.4-9.8H116
								l-13.4,9.8L107.7,113.4z"/>
						</g>
					</g>
				</g>
			</g>
			<g>
				<g id="c_00000164481504920167028950000010629275879287760821_">
					<g id="e_00000132073872336934329760000000550042070553914756_">
						<g id="b_00000061442896809156666560000002799170108990061967_">
							<path id="a_00000142889174414010984690000006346086164786889101_" class="st1" d="M125.7,6.5l5.1,15.8l-13.4-9.8H134
								l-13.4,9.8L125.7,6.5z"/>
							<g>
								<path id="a_00000075873643658787531510000004379280365226095003_" class="st1" d="M125.7,37.1l5.1,15.8l-13.4-9.8H134
									l-13.4,9.8L125.7,37.1z"/>
							</g>
							<g>
								<path id="a_00000160894637403788055060000014460253857902644908_" class="st1" d="M125.7,67.6l5.1,15.8l-13.4-9.8H134
									l-13.4,9.8L125.7,67.6z"/>
							</g>
							<g>
								<path id="a_00000122700562146570400160000000683672267541374370_" class="st1" d="M125.7,98.1l5.1,15.8l-13.4-9.8H134
									l-13.4,9.8L125.7,98.1z"/>
							</g>
						</g>
						<g>
							<path id="a_00000083772121970474249550000008667896930335571334_" class="st1" d="M125.7,128.6l5.1,15.8l-13.4-9.8H134
								l-13.4,9.8L125.7,128.6z"/>
						</g>
					</g>
					<g>
						<g id="b_00000006709338339878729040000002271946167407690376_">
							<path id="a_00000077287873032977934070000011024204065966372541_" class="st1" d="M143.6,21.8l5.1,15.8l-13.4-9.8h16.6
								l-13.4,9.8L143.6,21.8z"/>
							<g>
								<path id="a_00000060027956785432261830000002623357936131433406_" class="st1" d="M143.6,52.3l5.1,15.8l-13.4-9.8h16.6
									l-13.4,9.8L143.6,52.3z"/>
							</g>
							<g>
								<path id="a_00000057115601192652279360000005784497702503164320_" class="st1" d="M143.6,82.9l5.1,15.8l-13.4-9.8h16.6
									l-13.4,9.8L143.6,82.9z"/>
							</g>
							<g>
								<path id="a_00000037661460430583018130000014161268510618505095_" class="st1" d="M143.6,113.4l5.1,15.8l-13.4-9.8h16.6
									l-13.4,9.8L143.6,113.4z"/>
							</g>
						</g>
					</g>
				</g>
			</g>
		</g>
	</g>
	<g>
		<g id="c_00000072237841993657473670000000541901942706029749_">
			<g id="e_00000073713854161876031120000011297666267835574656_">
				<g id="b_00000175296195158987409550000014740055798586993573_">
					<path id="a_00000162342058269316088850000011861447382814841984_" class="st1" d="M161.6,6.5l5.1,15.8l-13.4-9.8h16.6
						l-13.4,9.8L161.6,6.5z"/>
					<g>
						<path id="a_00000174566654504216262760000018246128619983665575_" class="st1" d="M161.6,37.1l5.1,15.8l-13.4-9.8h16.6
							l-13.4,9.8L161.6,37.1z"/>
					</g>
					<g>
						<path id="a_00000088109943059688969800000004195383590226396800_" class="st1" d="M161.6,67.6l5.1,15.8l-13.4-9.8h16.6
							l-13.4,9.8L161.6,67.6z"/>
					</g>
					<g>
						<path id="a_00000106864582118349324120000008320499569606783364_" class="st1" d="M161.6,98.1l5.1,15.8l-13.4-9.8h16.6
							l-13.4,9.8L161.6,98.1z"/>
					</g>
				</g>
				<g>
					<path id="a_00000011734610352085172480000014205129679436579507_" class="st1" d="M161.6,128.6l5.1,15.8l-13.4-9.8h16.6
						l-13.4,9.8L161.6,128.6z"/>
				</g>
			</g>
			<g>
				<g id="b_00000126323256956522700040000008326543371865985722_">
					<path id="a_00000009552273421782049270000009294062256671352229_" class="st1" d="M179.5,21.8l5.1,15.8l-13.4-9.8h16.6
						l-13.4,9.8L179.5,21.8z"/>
					<g>
						<path id="a_00000116224717468944368580000004612291157311642035_" class="st1" d="M179.5,52.3l5.1,15.8l-13.4-9.8h16.6
							l-13.4,9.8L179.5,52.3z"/>
					</g>
					<g>
						<path id="a_00000052782888695206305790000006607816104834189955_" class="st1" d="M179.5,82.9l5.1,15.8l-13.4-9.8h16.6
							l-13.4,9.8L179.5,82.9z"/>
					</g>
					<g>
						<path id="a_00000167393197778804276700000008366112498539426966_" class="st1" d="M179.5,113.4l5.1,15.8l-13.4-9.8h16.6
							l-13.4,9.8L179.5,113.4z"/>
					</g>
				</g>
			</g>
		</g>
	</g>
	<g>
		<g id="e_00000142877354361325791150000003063286626257116308_">
			<g id="b_00000064322399442839878840000001659192428204167581_">
				<path id="a_00000155141407721833054120000005086142567355585192_" class="st1" d="M197.5,6.5l5.1,15.8l-13.4-9.8h16.6l-13.4,9.8
					L197.5,6.5z"/>
				<g>
					<path id="a_00000090268368420415427450000000524331346105103519_" class="st1" d="M197.5,37.1l5.1,15.8l-13.4-9.8h16.6
						l-13.4,9.8L197.5,37.1z"/>
				</g>
				<g>
					<path id="a_00000066502747886837607410000005634849454418277037_" class="st1" d="M197.5,67.6l5.1,15.8l-13.4-9.8h16.6
						l-13.4,9.8L197.5,67.6z"/>
				</g>
				<g>
					<path id="a_00000000926251999364525790000010640445511726549407_" class="st1" d="M197.5,98.1l5.1,15.8l-13.4-9.8h16.6
						l-13.4,9.8L197.5,98.1z"/>
				</g>
			</g>
			<g>
				<path id="a_00000054264136367441081770000001864738021782998198_" class="st1" d="M197.5,128.6l5.1,15.8l-13.4-9.8h16.6
					l-13.4,9.8L197.5,128.6z"/>
			</g>
		</g>
	</g>
</g>
</svg>
