<?xml version="1.0" encoding="utf-8"?>
<!-- Generator: Adobe Illustrator 26.3.1, SVG Export Plug-In . SVG Version: 6.00 Build 0)  -->
<svg version="1.1" id="图层_1" xmlns="http://www.w3.org/2000/svg" xmlns:xlink="http://www.w3.org/1999/xlink" x="0px" y="0px"
	 viewBox="0 0 354.3 283.5" style="enable-background:new 0 0 354.3 283.5;" xml:space="preserve">
<style type="text/css">
	.st0{fill:#C60B1E;}
	.st1{fill:#FFC400;}
	.st2{fill:#AD1519;stroke:#000000;stroke-width:0.26;stroke-linejoin:round;}
	.st3{fill:#C8B100;stroke:#000000;stroke-width:0.26;}
	.st4{fill:#C8B100;}
	.st5{fill:#C8B100;stroke:#000000;stroke-width:0.3;}
	.st6{fill:none;stroke:#000000;stroke-width:0.26;}
	.st7{fill:#C8B100;stroke:#000000;stroke-width:0.26;stroke-linejoin:round;}
	.st8{fill:#AD1519;stroke:#000000;stroke-width:0.26;}
	.st9{fill:#FFFFFF;stroke:#000000;stroke-width:0.26;}
	.st10{fill:none;stroke:#000000;stroke-width:1.000000e-02;}
	.st11{fill:none;stroke:#000000;stroke-width:2.000000e-02;}
	.st12{fill:none;stroke:#000000;stroke-width:3.000000e-02;}
	.st13{fill:none;stroke:#000000;stroke-width:4.000000e-02;}
	.st14{fill:none;stroke:#000000;stroke-width:5.000000e-02;}
	.st15{fill:none;stroke:#000000;stroke-width:6.000000e-02;}
	.st16{fill:none;stroke:#000000;stroke-width:7.000000e-02;}
	.st17{fill:none;stroke:#000000;stroke-width:8.000000e-02;}
	.st18{fill:none;stroke:#000000;stroke-width:9.000000e-02;}
	.st19{fill:none;stroke:#000000;stroke-width:0.1;}
	.st20{fill:none;stroke:#000000;stroke-width:0.11;}
	.st21{fill:none;stroke:#000000;stroke-width:0.12;}
	.st22{fill:none;stroke:#000000;stroke-width:0.13;}
	.st23{fill:none;stroke:#000000;stroke-width:0.14;}
	.st24{fill:none;stroke:#000000;stroke-width:0.15;}
	.st25{fill:none;stroke:#000000;stroke-width:0.18;}
	.st26{fill:#005BBF;stroke:#000000;stroke-width:0.39;}
	.st27{fill:#CCCCCC;stroke:#000000;stroke-width:0.39;}
	.st28{fill:#C8B100;stroke:#000000;stroke-width:0.39;stroke-linejoin:round;}
	.st29{fill:#C8B100;stroke:#000000;stroke-width:0.39;}
	.st30{fill:none;stroke:#000000;stroke-width:0.39;}
	.st31{fill:#AD1519;stroke:#000000;stroke-width:0.39;}
	.st32{fill:#AD1519;stroke:#000000;stroke-width:0.39;stroke-linejoin:round;}
	.st33{fill:#AD1519;stroke:#000000;stroke-width:0.27;}
	.st34{fill:none;stroke:#000000;stroke-width:0.26;stroke-linecap:round;}
	.st35{fill:none;stroke:#000000;stroke-width:0.21;}
	.st36{fill:#FFFFFF;stroke:#000000;stroke-width:0.21;}
	.st37{fill:#005BBF;stroke:#000000;stroke-width:0.26;}
	.st38{fill:#FFFFFF;stroke:#000000;stroke-width:0.39;}
	.st39{fill:none;stroke:#000000;stroke-width:0.23;}
	.st40{fill:none;stroke:#000000;stroke-width:0.28;}
	.st41{fill:none;stroke:#000000;stroke-width:0.33;}
	.st42{fill:none;stroke:#000000;stroke-width:0.37;}
	.st43{fill:none;stroke:#000000;stroke-width:0.42;}
	.st44{fill:none;stroke:#000000;stroke-width:0.46;}
	.st45{fill:none;stroke:#000000;stroke-width:0.51;}
	.st46{fill:none;stroke:#000000;stroke-width:0.56;}
	.st47{fill:none;stroke:#000000;stroke-width:0.6;}
	.st48{fill:none;stroke:#000000;stroke-width:0.63;}
	.st49{fill:none;stroke:#000000;stroke-width:0.68;}
	.st50{fill:none;stroke:#000000;stroke-width:0.73;}
	.st51{fill:none;stroke:#000000;stroke-width:0.77;}
	.st52{fill:none;stroke:#000000;stroke-width:0.91;}
	.st53{fill:#058E6E;stroke:#000000;stroke-width:0.39;}
	.st54{fill:#CCCCCC;stroke:#000000;stroke-width:0.52;}
	.st55{fill:#FFD691;stroke:#000000;stroke-width:0.52;}
	.st56{fill:#058E6E;stroke:#000000;stroke-width:0.52;}
	.st57{fill:#AD1519;stroke:#000000;stroke-width:0.52;}
	.st58{fill:#C8B100;stroke:#000000;stroke-width:0.52;}
	.st59{fill:#058E6E;}
	.st60{fill:#C8B100;stroke:#000000;stroke-width:0.46;}
	.st61{fill:#0039F0;}
	.st62{fill:#DB4446;stroke:#000000;stroke-width:0.39;}
	.st63{fill:#ED72AA;stroke:#000000;stroke-width:0.39;}
	.st64{stroke:#000000;stroke-width:0.26;}
	.st65{stroke:#000000;stroke-width:5.000000e-02;}
	.st66{fill:#AD1519;stroke:#000000;stroke-width:0.61;}
	.st67{fill:#005BBF;stroke:#000000;stroke-width:0.61;}
	.st68{fill:#C8B100;stroke:#000000;stroke-width:0.34;stroke-linejoin:round;}
	.st69{fill:#C8B100;stroke:#000000;stroke-width:0.34;}
</style>
<path class="st0" d="M0,0h354.3v284.5H0V0z"/>
<path class="st1" d="M0,71.1h354.3v142.2H0V71.1z"/>
<g>
	<g>
		<path class="st2" d="M95.6,126.4c0,0-0.3,0-0.4-0.1c-0.2-0.1-0.6-0.5-0.6-0.5l-0.4-0.3l-0.4-0.5c0,0-0.4-0.7-0.2-1.2
			c0.2-0.5,0.5-0.7,0.8-0.9c0.3-0.1,0.9-0.3,0.9-0.3s0.5-0.2,0.6-0.2c0.2,0,0.7-0.2,0.7-0.2s0.2-0.1,0.3-0.2
			c0.2-0.1,0.4-0.1,0.5-0.1c0.1,0,0.4-0.1,0.6-0.1c0.3,0,0.8,0.1,0.9,0.1s0.7,0,0.9,0c0.2,0,1-0.1,1.3-0.1c0.2,0,0.4,0,0.6,0
			c0.3,0,0.7,0.2,0.8,0.2c0.1,0.1,0.9,0.3,1.2,0.4s1,0.2,1.3,0.4c0.3,0.2,0.5,0.4,0.7,0.6c0.2,0.2,0.2,0.4,0.3,0.6
			c0.1,0.1,0.1,0.5,0,0.6c-0.1,0.1-0.3,0.5-0.3,0.5l-0.4,0.6l-0.4,0.4c0,0-0.3,0.3-0.6,0.3c-0.3,0-2.9-0.5-4.5-0.5
			S95.6,126.4,95.6,126.4L95.6,126.4L95.6,126.4z"/>
		<g>
			<ellipse class="st3" cx="99.9" cy="122.7" rx="0.8" ry="1.4"/>
			<ellipse class="st3" cx="100" cy="122.7" rx="0.4" ry="1.3"/>
			<ellipse class="st4" cx="100" cy="121.2" rx="0.5" ry="0.5"/>
			<path class="st5" d="M100.7,121v0.3h-1.4V121h0.5v-0.8h-0.4V120h0.4v-0.3h0.3v0.3h0.4v0.3h-0.4v0.8H100.7"/>
			<path class="st5" d="M0,0"/>
			<path class="st3" d="M100,126.3h-2.7l-0.1-0.7L97,125l-0.1-0.9c-0.8-1-1.5-1.6-1.7-1.5c0.1-0.2,0.1-0.3,0.3-0.4
				c0.7-0.4,2.1,0.6,3.1,2.1c0.1,0.1,0.2,0.3,0.3,0.4h2.3c0.1-0.1,0.2-0.3,0.3-0.4c1-1.6,2.4-2.5,3.1-2.1c0.1,0.1,0.2,0.2,0.3,0.4
				c-0.2-0.1-0.9,0.5-1.7,1.5l-0.1,0.9l-0.1,0.7l-0.1,0.7H100L100,126.3z"/>
			<path class="st6" d="M95.3,122.6c0.5-0.3,1.7,0.6,2.7,2.1 M104.6,122.6c-0.5-0.3-1.7,0.6-2.7,2.1"/>
		</g>
		<g id="a">
			<path class="st3" d="M95.9,127.6c-0.1-0.3-0.3-0.6-0.3-0.6c1.1-0.3,2.7-0.5,4.4-0.5c1.7,0,3.3,0.2,4.4,0.5c0,0-0.1,0.2-0.3,0.5
				c-0.1,0.2-0.2,0.5-0.2,0.5c-1-0.3-2.3-0.5-3.9-0.5c-1.6,0-3.1,0.2-3.9,0.5C96,128,96,127.8,95.9,127.6L95.9,127.6"/>
			<path class="st3" d="M99.9,129c1.4,0,2.9-0.2,3.5-0.4c0.4-0.1,0.6-0.3,0.6-0.5c0-0.1-0.1-0.2-0.2-0.2c-0.8-0.3-2.3-0.5-3.8-0.5
				c-1.5,0-3,0.2-3.8,0.5c-0.1,0-0.2,0.1-0.2,0.2c0,0.2,0.2,0.4,0.6,0.5C97,128.8,98.6,129,99.9,129z M104.4,126.3l-0.3-0.3
				c0,0-0.3,0.2-0.7,0.1c-0.4-0.1-0.5-0.6-0.5-0.6s-0.4,0.4-0.8,0.4c-0.4,0-0.6-0.4-0.6-0.4s-0.4,0.3-0.8,0.3
				c-0.4,0-0.7-0.5-0.7-0.5s-0.4,0.5-0.7,0.5c-0.4,0-0.6-0.3-0.6-0.3s-0.2,0.3-0.6,0.4c-0.4,0.1-0.8-0.4-0.8-0.4s-0.3,0.4-0.6,0.5
				c-0.3,0.1-0.7-0.2-0.7-0.2s-0.1,0.2-0.1,0.2s-0.2,0.1-0.2,0.1l0.1,0.3c1.1-0.3,2.6-0.5,4.3-0.5s3.2,0.2,4.3,0.5L104.4,126.3
				L104.4,126.3L104.4,126.3z M0,0"/>
			<path class="st7" d="M99.9,126.4c-1.7,0-3.3,0.2-4.4,0.5c-0.1,0-0.2,0-0.2-0.1c0-0.1,0-0.2,0.1-0.2c1.1-0.3,2.7-0.6,4.4-0.6
				s3.3,0.2,4.5,0.6c0.1,0,0.1,0.1,0.1,0.2c0,0.1-0.1,0.1-0.2,0.1C103.2,126.6,101.7,126.4,99.9,126.4z"/>
			<path class="st3" d="M94.1,125.7c0,0-0.2-0.3-0.4-0.4c-0.1-0.1-0.4-0.2-0.4-0.2c0,0,0.2-0.2,0.3-0.2c0.1,0,0.2,0,0.3,0.1l0-0.1
				c0,0,0.1,0,0.2,0.2c0.1,0.2,0,0.4,0,0.4S94.2,125.7,94.1,125.7L94.1,125.7z M95.2,125.3l-0.1,0.4l-0.8,0.1l-0.1-0.1l0-0.1
				l0.6-0.5L95.2,125.3"/>
			<path class="st3" d="M94.1,125.6c0.1-0.1,0.2-0.1,0.3,0c0.1,0.1,0.1,0.2,0.1,0.3c-0.1,0.1-0.2,0.1-0.3,0
				C94.1,125.8,94.1,125.7,94.1,125.6z M95.6,125.7c0-0.1,0-0.2,0.1-0.2c0.1,0,0.2,0.1,0.2,0.2c0,0.1,0,0.2-0.1,0.2
				C95.7,125.8,95.6,125.8,95.6,125.7z M96,125.2l0.3,0.3l0.7-0.4L97,125l-0.1-0.1l-0.8-0.1L96,125.2"/>
			<path class="st3" d="M96.8,123.9l-0.4,0.4l0.5,0.6l0.1,0.1l0.1-0.1l0.2-0.8L96.8,123.9"/>
			<path class="st3" d="M98.1,124.8l-0.1,0.4l-0.8-0.1L97,125l0.1-0.1l0.7-0.4L98.1,124.8"/>
			<ellipse class="st3" cx="97" cy="125" rx="0.3" ry="0.3"/>
			<path class="st3" d="M98.4,125.1c0-0.1,0-0.2,0.1-0.2c0.1,0,0.2,0.1,0.2,0.2c0,0.1,0,0.2-0.1,0.2
				C98.4,125.3,98.4,125.2,98.4,125.1z M98.9,124.7l0.2,0.3l0.8-0.2l0.1-0.1l-0.1-0.1l-0.8-0.2L98.9,124.7"/>
			<path class="st3" d="M99.9,123.5l-0.5,0.3l0.4,0.8l0.1,0.1l0.1-0.1l0.4-0.8L99.9,123.5"/>
			<path class="st3" d="M101,124.7l-0.2,0.3l-0.8-0.2l-0.1-0.1l0.1-0.1l0.8-0.2L101,124.7"/>
			<ellipse class="st3" cx="99.9" cy="124.7" rx="0.3" ry="0.3"/>
			<path class="st3" d="M101.6,125.1c0-0.1,0-0.2-0.1-0.2c-0.1,0-0.2,0.1-0.2,0.2c0,0.1,0,0.2,0.1,0.2
				C101.5,125.3,101.5,125.2,101.6,125.1z M101.8,124.8l0.1,0.4l0.8-0.1l0.1-0.1l-0.1-0.1l-0.7-0.4L101.8,124.8"/>
			<path class="st3" d="M103.1,123.9l0.4,0.4l-0.5,0.6l-0.1,0.1l-0.1-0.1l-0.2-0.8L103.1,123.9"/>
			<path class="st3" d="M103.9,125.2l-0.3,0.3l-0.7-0.4l-0.1-0.1l0.1-0.1l0.8-0.1L103.9,125.2"/>
			<ellipse class="st3" cx="102.9" cy="125" rx="0.3" ry="0.3"/>
			<path class="st3" d="M104.3,125.7c0-0.1,0-0.2-0.1-0.2c-0.1,0-0.2,0.1-0.2,0.2c0,0.1,0,0.2,0.1,0.2
				C104.2,125.8,104.3,125.8,104.3,125.7z M105.7,125.7c0,0,0.2-0.3,0.4-0.4c0.1-0.1,0.4-0.2,0.4-0.2c0,0-0.2-0.2-0.3-0.2
				c-0.1,0-0.2,0-0.3,0.1l0-0.1c0,0-0.1,0-0.2,0.2c-0.1,0.2,0,0.4,0,0.4S105.6,125.7,105.7,125.7L105.7,125.7z M104.6,125.3l0.1,0.4
				l0.8,0.1l0.1-0.1l0-0.1l-0.6-0.5L104.6,125.3"/>
			<path class="st3" d="M105.7,125.6c-0.1-0.1-0.2-0.1-0.3,0s-0.1,0.2-0.1,0.3c0.1,0.1,0.2,0.1,0.3,0
				C105.7,125.8,105.7,125.7,105.7,125.6z"/>
		</g>
		<g id="b">
			<path class="st8" d="M95.6,127.6l0.2-0.3l0.4,0.1l-0.2,0.3L95.6,127.6"/>
			<path class="st8" d="M0,0"/>
			<ellipse class="st9" cx="98.5" cy="127" rx="0.3" ry="0.2"/>
			<path class="st8" d="M100,127.1h-0.5c-0.1,0-0.2-0.1-0.2-0.2c0-0.1,0.1-0.2,0.2-0.2h1.1c0.1,0,0.2,0.1,0.2,0.2
				c0,0.1-0.1,0.2-0.2,0.2H100"/>
			<ellipse class="st9" cx="101.4" cy="127" rx="0.3" ry="0.2"/>
			<path class="st9" d="M0,0"/>
			<path class="st8" d="M104.3,127.6l-0.1-0.3l-0.4,0l0.2,0.3L104.3,127.6"/>
			<path class="st2" d="M99.9,128.7c-1.4,0-2.6-0.1-3.6-0.4c1-0.2,2.2-0.4,3.6-0.4c1.4,0,2.6,0.2,3.6,0.4
				C102.6,128.5,101.3,128.7,99.9,128.7z"/>
			<path class="st10" d="M100.6,128.6V128 M100.3,128.6l0-0.7 M100,128.7v-0.7"/>
			<path class="st11" d="M99.8,128.7v-0.7"/>
			<path class="st12" d="M99.6,128.7v-0.7"/>
			<path class="st13" d="M99.4,128.7v-0.7 M99.2,128.7v-0.7"/>
			<path class="st14" d="M99.1,128.7v-0.7"/>
			<path class="st15" d="M98.8,128.6l0-0.7 M98.9,128.6v-0.7"/>
			<path class="st16" d="M98.5,128.6V128 M98.6,128.6l0-0.6"/>
			<path class="st17" d="M98.1,128.6V128 M98.2,128.6V128 M98.4,128.6V128"/>
			<path class="st18" d="M98,128.6V128"/>
			<path class="st19" d="M97.8,128.5V128"/>
			<path class="st20" d="M97.7,128.5v-0.4"/>
			<path class="st21" d="M97.4,128.5l0-0.4 M97.6,128.5v-0.4 M97.3,128.4v-0.3"/>
			<path class="st22" d="M97.2,128.4v-0.3"/>
			<path class="st23" d="M97,128.4v-0.2"/>
			<path class="st24" d="M96.9,128.4v-0.2"/>
			<path class="st25" d="M96.7,128.3L96.7,128.3"/>
		</g>
	</g>
	<g id="c">
		<g>
			<path class="st26" d="M108.8,188.1c-0.9,0-1.7-0.2-2.2-0.5c-0.6-0.3-1.3-0.5-2.2-0.5c-0.9,0-1.6,0.2-2.2,0.5
				c-0.6,0.3-1.4,0.5-2.2,0.5c-0.9,0-1.7-0.2-2.2-0.5c-0.6-0.3-1.3-0.4-2.2-0.4c-0.9,0-1.6,0.2-2.2,0.5c-0.6,0.3-1.4,0.5-2.2,0.5
				v1.4c0.9,0,1.7-0.2,2.2-0.5c0.6-0.3,1.3-0.5,2.2-0.5c0.8,0,1.6,0.2,2.2,0.5c0.6,0.3,1.4,0.5,2.2,0.5c0.9,0,1.7-0.2,2.2-0.5
				c0.6-0.3,1.4-0.5,2.2-0.5c0.9,0,1.6,0.2,2.2,0.5c0.6,0.3,1.3,0.5,2.2,0.5L108.8,188.1L108.8,188.1z"/>
			<path class="st27" d="M108.8,189.5c-0.9,0-1.7-0.2-2.2-0.5c-0.6-0.3-1.3-0.5-2.2-0.5c-0.9,0-1.6,0.2-2.2,0.5
				c-0.6,0.3-1.4,0.5-2.2,0.5c-0.9,0-1.7-0.2-2.2-0.5c-0.6-0.3-1.3-0.5-2.2-0.5c-0.9,0-1.6,0.2-2.2,0.5c-0.6,0.3-1.4,0.5-2.2,0.5
				v1.4c0.9,0,1.7-0.2,2.2-0.5c0.6-0.3,1.3-0.5,2.2-0.5c0.8,0,1.6,0.2,2.2,0.5c0.6,0.3,1.4,0.5,2.2,0.5c0.9,0,1.7-0.2,2.2-0.5
				c0.6-0.3,1.4-0.5,2.2-0.5c0.9,0,1.6,0.2,2.2,0.5c0.6,0.3,1.3,0.5,2.2,0.5L108.8,189.5"/>
			<path class="st26" d="M108.8,190.9c-0.9,0-1.7-0.2-2.2-0.5c-0.6-0.3-1.3-0.5-2.2-0.5c-0.9,0-1.6,0.2-2.2,0.5s-1.4,0.5-2.2,0.5
				c-0.9,0-1.7-0.2-2.2-0.5c-0.6-0.3-1.3-0.5-2.2-0.5c-0.9,0-1.6,0.2-2.2,0.5c-0.6,0.3-1.4,0.5-2.2,0.5v1.4c0.9,0,1.7-0.2,2.2-0.5
				c0.6-0.3,1.3-0.5,2.2-0.5c0.8,0,1.6,0.2,2.2,0.4c0.6,0.3,1.4,0.5,2.2,0.5c0.9,0,1.7-0.2,2.2-0.5c0.6-0.3,1.4-0.5,2.2-0.5
				c0.9,0,1.6,0.2,2.2,0.5c0.6,0.3,1.3,0.5,2.2,0.5L108.8,190.9"/>
			<path class="st27" d="M108.8,193.6c-0.9,0-1.6-0.2-2.2-0.5c-0.6-0.3-1.3-0.5-2.2-0.5c-0.9,0-1.6,0.2-2.2,0.5
				c-0.6,0.3-1.4,0.5-2.2,0.5c-0.9,0-1.7-0.2-2.2-0.5c-0.6-0.3-1.3-0.4-2.2-0.4c-0.9,0-1.6,0.2-2.2,0.5c-0.6,0.3-1.4,0.5-2.2,0.5
				v-1.4c0.9,0,1.7-0.2,2.2-0.5c0.6-0.3,1.3-0.5,2.2-0.5c0.8,0,1.6,0.2,2.2,0.4c0.6,0.3,1.4,0.5,2.2,0.5c0.9,0,1.7-0.2,2.2-0.5
				c0.6-0.3,1.4-0.5,2.2-0.5c0.9,0,1.6,0.2,2.2,0.5c0.6,0.3,1.4,0.5,2.2,0.5L108.8,193.6"/>
			<path class="st26" d="M108.8,195c-0.9,0-1.6-0.2-2.2-0.5c-0.6-0.3-1.3-0.5-2.2-0.5c-0.9,0-1.6,0.2-2.2,0.5
				c-0.6,0.3-1.4,0.5-2.2,0.5c-0.9,0-1.7-0.2-2.2-0.5c-0.6-0.3-1.3-0.5-2.2-0.5c-0.9,0-1.6,0.2-2.2,0.5c-0.6,0.3-1.4,0.5-2.2,0.5
				v-1.4c0.9,0,1.7-0.2,2.2-0.5c0.6-0.3,1.3-0.5,2.2-0.5c0.8,0,1.6,0.2,2.2,0.4c0.6,0.3,1.4,0.5,2.2,0.5c0.9,0,1.7-0.2,2.2-0.5
				s1.4-0.5,2.2-0.5c0.9,0,1.6,0.2,2.2,0.5c0.6,0.3,1.4,0.5,2.2,0.5L108.8,195L108.8,195z"/>
		</g>
		<g>
			<path class="st28" d="M95,182.5c0,0.1,0.1,0.2,0.1,0.4c0,0.8-0.7,1.5-1.6,1.5h13.1c-0.9,0-1.6-0.7-1.6-1.5c0-0.1,0-0.2,0.1-0.4
				c-0.1,0-0.2,0-0.3,0h-9.5C95.1,182.5,95,182.5,95,182.5z"/>
			<path class="st29" d="M95.2,181.6h9.5c0.3,0,0.6,0.2,0.6,0.4s-0.3,0.4-0.6,0.4h-9.5c-0.3,0-0.6-0.2-0.6-0.4
				S94.9,181.6,95.2,181.6z M93.5,187.7h13v-3.3h-13V187.7z"/>
		</g>
		<path class="st27" d="M95.3,181.1h9.2v-45.3h-9.2V181.1z"/>
		<path class="st30" d="M101.9,135.9v45.2 M103,135.9v45.2"/>
		<g>
			<path class="st29" d="M93.6,132.2h12.7v-3.3H93.6L93.6,132.2L93.6,132.2z"/>
			<path class="st29" d="M0,0"/>
			<path class="st29" d="M95.2,134.4h9.5c0.3,0,0.6,0.2,0.6,0.4c0,0.3-0.3,0.4-0.6,0.4h-9.5c-0.3,0-0.6-0.2-0.6-0.4
				C94.6,134.6,94.9,134.4,95.2,134.4z M95.2,132.2h9.5c0.3,0,0.6,0.2,0.6,0.4c0,0.2-0.3,0.4-0.6,0.4h-9.5c-0.3,0-0.6-0.2-0.6-0.4
				C94.6,132.4,94.9,132.2,95.2,132.2z"/>
		</g>
	</g>
	<g id="d">
		<path class="st31" d="M92.4,169.9c-1.3,0.7-2.2,1.5-2,1.9c0.1,0.3,0.5,0.6,1.1,1c0.9,0.6,1.5,1.8,1,2.3c0.8-0.6,1.2-1.5,1.2-2.6
			C93.8,171.5,93.3,170.5,92.4,169.9z"/>
		<path class="st32" d="M114,152.7c-2-0.8-5.4-1.5-9.4-1.6c-1.4,0-2.9,0.1-4.4,0.4c-5.5,0.9-9.7,3.1-9.4,4.9c0,0,0,0.1,0,0.1
			c0,0-2.1-4.7-2.1-4.8c-0.4-2,4.3-4.4,10.4-5.5c1.9-0.3,3.8-0.4,5.4-0.4c3.9,0,7.3,0.5,9.4,1.3L114,152.7"/>
		<path class="st31" d="M95.3,158.4c-2.6-0.2-4.3-0.9-4.5-1.9c-0.2-0.9,0.7-1.8,2.3-2.7c0.7,0.1,1.5,0.2,2.3,0.2L95.3,158.4
			 M104.6,155c1.6,0.2,2.8,0.6,3.4,1.1l0.1,0.1c0.3,0.6-1.1,1.8-3.5,3.2L104.6,155"/>
		<path class="st32" d="M89.6,167.2c-0.2-0.7,2.3-2.2,5.8-3.5c1.6-0.6,2.9-1.2,4.6-1.9c4.9-2.2,8.5-4.7,8.1-5.6l-0.1-0.1
			c0.3,0.2,0.7,4.7,0.7,4.7c0.4,0.8-2.9,3.3-7.4,5.5c-1.4,0.7-4.5,1.8-5.9,2.3c-2.6,0.9-5.1,2.6-4.9,3.2L89.6,167.2L89.6,167.2
			L89.6,167.2z"/>
	</g>
	<g>
		<path class="st33" d="M184.8,125.4c0,0-0.4,0.4-0.7,0.5c-0.3,0.1-0.7-0.3-0.7-0.3s-0.3,0.3-0.6,0.4c-0.3,0.1-0.8-0.4-0.8-0.4
			s-0.3,0.5-0.6,0.6c-0.3,0.1-0.6-0.1-0.6-0.1s-0.1,0.2-0.4,0.3c-0.1,0.1-0.3,0-0.3,0l-0.3-0.2l-0.4-0.4l-0.4-0.1
			c0,0-0.2-0.5-0.2-0.6c0-0.1,0-0.3,0-0.3c-0.1-0.4,0.5-0.8,1.3-1c0.5-0.1,0.9-0.1,1.2,0c0.3-0.3,1-0.5,1.8-0.5
			c0.7,0,1.4,0.2,1.7,0.4c0.3-0.2,1-0.4,1.7-0.4c0.8,0,1.5,0.2,1.8,0.5c0.3-0.1,0.7-0.1,1.2,0c0.8,0.2,1.4,0.6,1.3,1
			c0,0,0,0.2,0,0.3c0,0.1-0.2,0.6-0.2,0.6l-0.4,0.1l-0.4,0.4l-0.3,0.2c0,0-0.2,0.1-0.3,0c-0.2-0.1-0.4-0.3-0.4-0.3s-0.4,0.2-0.6,0.1
			c-0.3-0.1-0.6-0.6-0.6-0.6s-0.5,0.5-0.8,0.4c-0.3-0.1-0.6-0.4-0.6-0.4s-0.4,0.3-0.7,0.3C185.2,125.8,184.8,125.4,184.8,125.4
			L184.8,125.4z"/>
		<g>
			<ellipse class="st3" cx="184.8" cy="123" rx="0.8" ry="1.1"/>
			<ellipse class="st3" cx="184.8" cy="123" rx="0.4" ry="1"/>
			<ellipse class="st4" cx="184.8" cy="121.7" rx="0.5" ry="0.5"/>
			<path class="st5" d="M185.5,121.5v0.3h-1.4v-0.3h0.5v-0.7h-0.4v-0.3h0.4v-0.3h0.3v0.3h0.3v0.3H185v0.7H185.5"/>
			<path class="st5" d="M0,0"/>
		</g>
		<g>
			<path class="st34" d="M178.9,125.2c-0.1-0.2-0.1-0.4-0.1-0.6c0-0.9,0.7-1.6,1.6-1.6c0.3,0,0.5,0.1,0.8,0.2"/>
			<path class="st6" d="M181.8,124c-0.1-0.1-0.2-0.3-0.2-0.5c0-0.7,0.7-1.2,1.5-1.2c0.4,0,0.7,0.1,0.9,0.3 M187.8,124
				c0.1-0.1,0.1-0.3,0.1-0.5c0-0.7-0.7-1.2-1.5-1.2c-0.4,0-0.7,0.1-0.9,0.3"/>
			<path class="st34" d="M190.7,125.2c0.1-0.2,0.1-0.4,0.1-0.6c0-0.9-0.7-1.6-1.6-1.6c-0.3,0-0.6,0.1-0.8,0.2"/>
			<ellipse class="st35" cx="178.4" cy="124.4" rx="0.3" ry="0.2"/>
			<ellipse class="st35" cx="178.5" cy="123.5" rx="0.3" ry="0.2"/>
			<ellipse class="st35" cx="179.1" cy="122.8" rx="0.3" ry="0.2"/>
			<ellipse class="st35" cx="179.8" cy="122.5" rx="0.3" ry="0.2"/>
			<ellipse class="st35" cx="180.7" cy="122.5" rx="0.3" ry="0.2"/>
			<ellipse class="st36" cx="181.2" cy="123.5" rx="0.3" ry="0.2"/>
			<ellipse class="st35" cx="181.3" cy="122.6" rx="0.3" ry="0.2"/>
			<ellipse class="st35" cx="181.9" cy="122.1" rx="0.3" ry="0.2"/>
			<ellipse class="st35" cx="182.8" cy="121.9" rx="0.3" ry="0.2"/>
			<ellipse class="st35" cx="183.6" cy="121.9" rx="0.3" ry="0.2"/>
			<ellipse class="st35" cx="186" cy="121.9" rx="0.3" ry="0.2"/>
			<ellipse class="st35" cx="186.8" cy="121.9" rx="0.3" ry="0.2"/>
			<ellipse class="st35" cx="187.6" cy="122.1" rx="0.3" ry="0.2"/>
			<ellipse class="st35" cx="188.3" cy="122.6" rx="0.3" ry="0.2"/>
			<ellipse class="st36" cx="188.4" cy="123.5" rx="0.3" ry="0.2"/>
			<ellipse class="st35" cx="188.9" cy="122.5" rx="0.3" ry="0.2"/>
			<ellipse class="st35" cx="189.7" cy="122.5" rx="0.3" ry="0.2"/>
			<ellipse class="st35" cx="190.5" cy="122.8" rx="0.3" ry="0.2"/>
			<ellipse class="st35" cx="191.1" cy="123.5" rx="0.3" ry="0.2"/>
			<ellipse class="st35" cx="191.2" cy="124.4" rx="0.3" ry="0.2"/>
		</g>
		<g>
			<g id="a_00000099635757408224484760000013103439152243084932_">
				<path class="st3" d="M180.8,127.6c-0.1-0.3-0.3-0.6-0.3-0.6c1.1-0.3,2.7-0.5,4.4-0.5c1.7,0,3.3,0.2,4.4,0.5c0,0-0.1,0.2-0.3,0.5
					c-0.1,0.2-0.2,0.5-0.2,0.5c-1-0.3-2.3-0.5-3.9-0.5c-1.6,0-3.1,0.2-3.9,0.5C180.9,128,180.8,127.8,180.8,127.6L180.8,127.6"/>
				<path class="st3" d="M184.8,129c1.4,0,2.9-0.2,3.5-0.4c0.4-0.1,0.6-0.3,0.6-0.5c0-0.1-0.1-0.2-0.2-0.2c-0.8-0.3-2.3-0.5-3.8-0.5
					c-1.5,0-3,0.2-3.8,0.5c-0.1,0-0.2,0.1-0.2,0.2c0,0.2,0.2,0.4,0.6,0.5C181.9,128.8,183.4,129,184.8,129z M189.3,126.3l-0.3-0.3
					c0,0-0.3,0.2-0.7,0.1c-0.4-0.1-0.5-0.6-0.5-0.6s-0.4,0.4-0.8,0.4c-0.4,0-0.6-0.4-0.6-0.4s-0.4,0.3-0.8,0.3
					c-0.4,0-0.7-0.5-0.7-0.5s-0.4,0.5-0.7,0.5c-0.4,0-0.6-0.3-0.6-0.3s-0.2,0.3-0.6,0.4c-0.4,0.1-0.8-0.4-0.8-0.4s-0.3,0.4-0.6,0.5
					c-0.3,0.1-0.7-0.2-0.7-0.2s-0.1,0.2-0.1,0.2c0,0.1-0.2,0.1-0.2,0.1l0.1,0.3c1.1-0.3,2.6-0.5,4.3-0.5s3.2,0.2,4.3,0.5
					L189.3,126.3L189.3,126.3L189.3,126.3z M84.9,0"/>
				<path class="st7" d="M184.8,126.4c-1.7,0-3.3,0.2-4.4,0.5c-0.1,0-0.2,0-0.2-0.1c0-0.1,0-0.2,0.1-0.2c1.1-0.3,2.7-0.6,4.4-0.6
					c1.8,0,3.3,0.2,4.5,0.6c0.1,0,0.1,0.1,0.1,0.2c0,0.1-0.1,0.1-0.2,0.1C188.1,126.6,186.5,126.4,184.8,126.4z"/>
				<path class="st3" d="M179,125.7c0,0-0.2-0.3-0.4-0.4c-0.1-0.1-0.4-0.2-0.4-0.2c0,0,0.2-0.2,0.3-0.2c0.1,0,0.2,0,0.3,0.1l0-0.1
					c0,0,0.1,0,0.2,0.2c0.1,0.2,0,0.4,0,0.4S179,125.7,179,125.7L179,125.7z M180.1,125.3l-0.1,0.4l-0.8,0.1l-0.1-0.1l0-0.1l0.6-0.5
					L180.1,125.3"/>
				<path class="st3" d="M179,125.6c0.1-0.1,0.2-0.1,0.3,0c0.1,0.1,0.1,0.2,0.1,0.3c-0.1,0.1-0.2,0.1-0.3,0
					C179,125.8,178.9,125.7,179,125.6z M180.5,125.7c0-0.1,0-0.2,0.1-0.2c0.1,0,0.2,0.1,0.2,0.2c0,0.1,0,0.2-0.1,0.2
					C180.6,125.8,180.5,125.8,180.5,125.7z M180.8,125.2l0.3,0.3l0.7-0.4l0.1-0.1l-0.1-0.1l-0.8-0.1L180.8,125.2"/>
				<path class="st3" d="M181.6,123.9l-0.4,0.4l0.5,0.6l0.1,0.1l0.1-0.1l0.2-0.8L181.6,123.9"/>
				<path class="st3" d="M182.9,124.8l-0.1,0.4L182,125l-0.1-0.1l0.1-0.1l0.7-0.4L182.9,124.8"/>
				<ellipse class="st3" cx="181.9" cy="125" rx="0.3" ry="0.3"/>
				<path class="st3" d="M183.2,125.1c0-0.1,0-0.2,0.1-0.2c0.1,0,0.2,0.1,0.2,0.2c0,0.1,0,0.2-0.1,0.2
					C183.3,125.3,183.2,125.2,183.2,125.1z M183.7,124.7l0.2,0.3l0.8-0.2l0.1-0.1l-0.1-0.1l-0.8-0.2L183.7,124.7"/>
				<path class="st3" d="M184.8,123.5l-0.5,0.3l0.4,0.8l0.1,0.1l0.1-0.1l0.4-0.8L184.8,123.5"/>
				<path class="st3" d="M185.9,124.7l-0.2,0.3l-0.8-0.2l-0.1-0.1l0.1-0.1l0.8-0.2L185.9,124.7"/>
				<ellipse class="st3" cx="184.8" cy="124.7" rx="0.3" ry="0.3"/>
				<path class="st3" d="M186.4,125.1c0-0.1,0-0.2-0.1-0.2s-0.2,0.1-0.2,0.2c0,0.1,0,0.2,0.1,0.2
					C186.3,125.3,186.4,125.2,186.4,125.1z M186.7,124.8l0.1,0.4l0.8-0.1l0.1-0.1l-0.1-0.1l-0.7-0.4L186.7,124.8"/>
				<path class="st3" d="M188,123.9l0.4,0.4l-0.5,0.6l-0.1,0.1l-0.1-0.1l-0.2-0.8L188,123.9"/>
				<path class="st3" d="M188.8,125.2l-0.3,0.3l-0.7-0.4l-0.1-0.1l0.1-0.1l0.8-0.1L188.8,125.2"/>
				<ellipse class="st3" cx="187.8" cy="125" rx="0.3" ry="0.3"/>
				<path class="st3" d="M189.2,125.7c0-0.1,0-0.2-0.1-0.2c-0.1,0-0.2,0.1-0.2,0.2c0,0.1,0,0.2,0.1,0.2
					C189,125.8,189.1,125.8,189.2,125.7z M190.5,125.7c0,0,0.2-0.3,0.4-0.4c0.1-0.1,0.4-0.2,0.4-0.2c0,0-0.2-0.2-0.3-0.2
					c-0.1,0-0.2,0-0.3,0.1l0-0.1c0,0-0.1,0-0.2,0.2c-0.1,0.2,0,0.4,0,0.4S190.5,125.7,190.5,125.7L190.5,125.7z M189.5,125.3
					l0.1,0.4l0.8,0.1l0.1-0.1l0-0.1l-0.6-0.5L189.5,125.3"/>
				<path class="st3" d="M190.5,125.6c-0.1-0.1-0.2-0.1-0.3,0c-0.1,0.1-0.1,0.2-0.1,0.3c0.1,0.1,0.2,0.1,0.3,0
					C190.6,125.8,190.6,125.7,190.5,125.6z"/>
			</g>
		</g>
		<g>
			<g id="b_00000087405274799813236810000009708129844189943940_">
				<path class="st8" d="M180.5,127.6l0.2-0.3l0.4,0.1l-0.2,0.3L180.5,127.6"/>
				<path class="st8" d="M84.9,0"/>
				<ellipse class="st9" cx="183.4" cy="127" rx="0.3" ry="0.2"/>
				<path class="st8" d="M184.8,127.1h-0.5c-0.1,0-0.2-0.1-0.2-0.2c0-0.1,0.1-0.2,0.2-0.2h1.1c0.1,0,0.2,0.1,0.2,0.2
					c0,0.1-0.1,0.2-0.2,0.2H184.8"/>
				<ellipse class="st9" cx="186.2" cy="127" rx="0.3" ry="0.2"/>
				<path class="st9" d="M84.9,0"/>
				<path class="st8" d="M189.1,127.6l-0.1-0.3l-0.4,0l0.2,0.3L189.1,127.6"/>
				<path class="st2" d="M184.8,128.7c-1.4,0-2.6-0.1-3.6-0.4c1-0.2,2.2-0.4,3.6-0.4c1.4,0,2.6,0.2,3.6,0.4
					C187.5,128.5,186.2,128.7,184.8,128.7z"/>
				<path class="st10" d="M185.5,128.6V128 M185.1,128.6l0-0.7 M184.9,128.7v-0.7"/>
				<path class="st11" d="M184.7,128.7v-0.7"/>
				<path class="st12" d="M184.5,128.7v-0.7"/>
				<path class="st13" d="M184.3,128.7v-0.7 M184.1,128.7v-0.7"/>
				<path class="st14" d="M184,128.7v-0.7"/>
				<path class="st15" d="M183.6,128.6l0-0.7 M183.8,128.6v-0.7"/>
				<path class="st16" d="M183.3,128.6V128 M183.5,128.6l0-0.6"/>
				<path class="st17" d="M183,128.6V128 M183.1,128.6V128 M183.2,128.6V128"/>
				<path class="st18" d="M182.8,128.6V128"/>
				<path class="st19" d="M182.7,128.5V128"/>
				<path class="st20" d="M182.6,128.5v-0.4"/>
				<path class="st21" d="M182.3,128.5l0-0.4 M182.4,128.5v-0.4 M182.1,128.4v-0.3"/>
				<path class="st22" d="M182,128.4v-0.3"/>
				<path class="st23" d="M181.9,128.4v-0.2"/>
				<path class="st24" d="M181.7,128.4v-0.2"/>
				<path class="st25" d="M181.6,128.3L181.6,128.3"/>
			</g>
		</g>
	</g>
	<g>
		<g id="c_00000019678918365065919690000013027680557802530710_">
			<g>
				<path class="st26" d="M193.7,188.1c-0.9,0-1.7-0.2-2.2-0.5c-0.6-0.3-1.3-0.5-2.2-0.5c-0.9,0-1.6,0.2-2.2,0.5
					c-0.6,0.3-1.4,0.5-2.2,0.5c-0.9,0-1.7-0.2-2.2-0.5c-0.6-0.3-1.3-0.4-2.2-0.4c-0.9,0-1.6,0.2-2.2,0.5c-0.6,0.3-1.4,0.5-2.2,0.5
					v1.4c0.9,0,1.7-0.2,2.2-0.5c0.6-0.3,1.3-0.5,2.2-0.5c0.8,0,1.6,0.2,2.2,0.5c0.6,0.3,1.4,0.5,2.2,0.5c0.9,0,1.7-0.2,2.2-0.5
					c0.6-0.3,1.4-0.5,2.2-0.5c0.9,0,1.6,0.2,2.2,0.5c0.6,0.3,1.3,0.5,2.2,0.5L193.7,188.1L193.7,188.1z"/>
				<path class="st27" d="M193.7,189.5c-0.9,0-1.7-0.2-2.2-0.5c-0.6-0.3-1.3-0.5-2.2-0.5c-0.9,0-1.6,0.2-2.2,0.5
					c-0.6,0.3-1.4,0.5-2.2,0.5c-0.9,0-1.7-0.2-2.2-0.5c-0.6-0.3-1.3-0.5-2.2-0.5c-0.9,0-1.6,0.2-2.2,0.5c-0.6,0.3-1.4,0.5-2.2,0.5
					v1.4c0.9,0,1.7-0.2,2.2-0.5c0.6-0.3,1.3-0.5,2.2-0.5c0.8,0,1.6,0.2,2.2,0.5c0.6,0.3,1.4,0.5,2.2,0.5c0.9,0,1.7-0.2,2.2-0.5
					c0.6-0.3,1.4-0.5,2.2-0.5c0.9,0,1.6,0.2,2.2,0.5c0.6,0.3,1.3,0.5,2.2,0.5L193.7,189.5"/>
				<path class="st26" d="M193.7,190.9c-0.9,0-1.7-0.2-2.2-0.5c-0.6-0.3-1.3-0.5-2.2-0.5c-0.9,0-1.6,0.2-2.2,0.5
					c-0.6,0.3-1.4,0.5-2.2,0.5c-0.9,0-1.7-0.2-2.2-0.5c-0.6-0.3-1.3-0.5-2.2-0.5c-0.9,0-1.6,0.2-2.2,0.5c-0.6,0.3-1.4,0.5-2.2,0.5
					v1.4c0.9,0,1.7-0.2,2.2-0.5c0.6-0.3,1.3-0.5,2.2-0.5c0.8,0,1.6,0.2,2.2,0.4c0.6,0.3,1.4,0.5,2.2,0.5c0.9,0,1.7-0.2,2.2-0.5
					c0.6-0.3,1.4-0.5,2.2-0.5c0.9,0,1.6,0.2,2.2,0.5c0.6,0.3,1.3,0.5,2.2,0.5L193.7,190.9"/>
				<path class="st27" d="M193.7,193.6c-0.9,0-1.6-0.2-2.2-0.5c-0.6-0.3-1.3-0.5-2.2-0.5c-0.9,0-1.6,0.2-2.2,0.5
					c-0.6,0.3-1.4,0.5-2.2,0.5c-0.9,0-1.7-0.2-2.2-0.5c-0.6-0.3-1.3-0.4-2.2-0.4c-0.9,0-1.6,0.2-2.2,0.5c-0.6,0.3-1.4,0.5-2.2,0.5
					v-1.4c0.9,0,1.7-0.2,2.2-0.5c0.6-0.3,1.3-0.5,2.2-0.5c0.8,0,1.6,0.2,2.2,0.4c0.6,0.3,1.4,0.5,2.2,0.5c0.9,0,1.7-0.2,2.2-0.5
					c0.6-0.3,1.4-0.5,2.2-0.5c0.9,0,1.6,0.2,2.2,0.5c0.6,0.3,1.4,0.5,2.2,0.5L193.7,193.6"/>
				<path class="st26" d="M193.7,195c-0.9,0-1.6-0.2-2.2-0.5c-0.6-0.3-1.3-0.5-2.2-0.5c-0.9,0-1.6,0.2-2.2,0.5
					c-0.6,0.3-1.4,0.5-2.2,0.5c-0.9,0-1.7-0.2-2.2-0.5c-0.6-0.3-1.3-0.5-2.2-0.5c-0.9,0-1.6,0.2-2.2,0.5c-0.6,0.3-1.4,0.5-2.2,0.5
					v-1.4c0.9,0,1.7-0.2,2.2-0.5c0.6-0.3,1.3-0.5,2.2-0.5c0.8,0,1.6,0.2,2.2,0.4c0.6,0.3,1.4,0.5,2.2,0.5c0.9,0,1.7-0.2,2.2-0.5
					s1.4-0.5,2.2-0.5c0.9,0,1.6,0.2,2.2,0.5c0.6,0.3,1.4,0.5,2.2,0.5L193.7,195L193.7,195z"/>
			</g>
			<g>
				<path class="st28" d="M179.8,182.5c0,0.1,0.1,0.2,0.1,0.4c0,0.8-0.7,1.5-1.6,1.5h13.1c-0.9,0-1.6-0.7-1.6-1.5
					c0-0.1,0-0.2,0.1-0.4c-0.1,0-0.2,0-0.3,0h-9.5C180,182.5,179.9,182.5,179.8,182.5z"/>
				<path class="st29" d="M180.1,181.6h9.5c0.3,0,0.6,0.2,0.6,0.4s-0.3,0.4-0.6,0.4h-9.5c-0.3,0-0.6-0.2-0.6-0.4
					S179.7,181.6,180.1,181.6z M178.3,187.7h13v-3.3h-13V187.7z"/>
			</g>
			<path class="st27" d="M180.2,181.1h9.2v-45.3h-9.2V181.1z"/>
			<path class="st30" d="M186.8,135.9v45.2 M187.8,135.9v45.2"/>
			<g>
				<path class="st29" d="M178.5,132.2h12.7v-3.3h-12.7V132.2L178.5,132.2z"/>
				<path class="st29" d="M84.9,0"/>
				<path class="st29" d="M180.1,134.4h9.5c0.3,0,0.6,0.2,0.6,0.4c0,0.3-0.3,0.4-0.6,0.4h-9.5c-0.3,0-0.6-0.2-0.6-0.4
					C179.5,134.6,179.7,134.4,180.1,134.4z M180.1,132.2h9.5c0.3,0,0.6,0.2,0.6,0.4c0,0.2-0.3,0.4-0.6,0.4h-9.5
					c-0.3,0-0.6-0.2-0.6-0.4C179.5,132.4,179.7,132.2,180.1,132.2z"/>
			</g>
		</g>
	</g>
	<g transform="matrix(-1 0 0 1 500.57 0)">
		<g id="d_00000085230102076061153780000001580773234469436587_">
			<path class="st31" d="M192.3,169.9c1.3,0.7,2.2,1.5,2,1.9c-0.1,0.3-0.5,0.6-1.1,1c-0.9,0.6-1.5,1.8-1,2.3
				c-0.8-0.6-1.2-1.5-1.2-2.6C191,171.5,191.5,170.5,192.3,169.9z"/>
			<path class="st32" d="M170.8,152.7c2-0.8,5.4-1.5,9.4-1.6c1.4,0,2.9,0.1,4.4,0.4c5.5,0.9,9.7,3.1,9.4,4.9c0,0,0,0.1,0,0.1
				c0,0,2.1-4.7,2.1-4.8c0.4-2-4.3-4.4-10.4-5.5c-1.9-0.3-3.8-0.4-5.4-0.4c-3.9,0-7.3,0.5-9.4,1.3L170.8,152.7"/>
			<path class="st31" d="M189.5,158.4c2.6-0.2,4.3-0.9,4.5-1.9c0.2-0.9-0.7-1.8-2.3-2.7c-0.7,0.1-1.5,0.2-2.3,0.2L189.5,158.4
				 M180.2,155c-1.6,0.2-2.8,0.6-3.4,1.1l-0.1,0.1c-0.3,0.6,1.1,1.8,3.5,3.2L180.2,155"/>
			<path class="st32" d="M195.2,167.2c0.2-0.7-2.3-2.2-5.8-3.5c-1.6-0.6-2.9-1.2-4.6-1.9c-4.9-2.2-8.5-4.7-8.1-5.6l0.1-0.1
				c-0.3,0.2-0.7,4.7-0.7,4.7c-0.4,0.8,2.9,3.3,7.4,5.5c1.4,0.7,4.5,1.8,5.9,2.3c2.6,0.9,5.1,2.6,4.9,3.2L195.2,167.2L195.2,167.2
				L195.2,167.2z"/>
		</g>
	</g>
	<path class="st4" d="M94.7,150.6c1.1-0.4,1.9-0.9,1.5-1.8c-0.2-0.6-0.8-0.7-1.7-0.4L93,149l1.4,3.4c0.2-0.1,0.3-0.1,0.5-0.2
		c0.2-0.1,0.3-0.1,0.5-0.1L94.7,150.6L94.7,150.6L94.7,150.6z M94,148.9l0.4-0.1c0.3-0.1,0.7,0.1,0.9,0.5c0.1,0.3,0.1,0.6-0.3,0.9
		c-0.1,0.1-0.3,0.1-0.4,0.2L94,148.9 M98.3,147.5c-0.2,0-0.3,0.1-0.5,0.1c-0.2,0-0.3,0.1-0.5,0.1l0.8,3.6l2.5-0.5
		c0-0.1-0.1-0.1-0.1-0.2c0-0.1,0-0.2,0-0.2c-0.4,0.1-0.9,0.3-1.5,0.4L98.3,147.5 M103.3,150.6c0.5-1.3,1-2.5,1.6-3.8
		c-0.1,0-0.2,0-0.3,0c-0.1,0-0.2,0-0.3,0c-0.3,0.9-0.7,1.8-1.1,2.7c-0.5-0.9-1-1.7-1.4-2.6c-0.2,0-0.4,0.1-0.6,0.1
		c-0.2,0-0.4,0-0.6,0c0.7,1.2,1.4,2.3,2.1,3.5c0.1,0,0.2,0,0.3,0C103.1,150.5,103.2,150.5,103.3,150.6 M108.5,147.8
		c0.1-0.2,0.2-0.3,0.3-0.5c-0.1-0.1-0.5-0.3-1-0.4c-1-0.1-1.6,0.3-1.7,1c-0.1,1.3,1.9,1.2,1.8,2c0,0.4-0.4,0.5-0.8,0.5
		c-0.5,0-0.8-0.3-0.9-0.7l-0.1,0c-0.1,0.2-0.2,0.4-0.3,0.7c0.3,0.2,0.7,0.3,1.1,0.3c1,0.1,1.8-0.3,1.9-1c0.1-1.2-1.9-1.3-1.8-2
		c0-0.3,0.3-0.5,0.8-0.4c0.4,0,0.6,0.2,0.7,0.5L108.5,147.8 M176.5,150.7c0.4-1.3,0.8-2.6,1.2-3.9c-0.1,0-0.2,0.1-0.3,0.1
		c-0.1,0-0.2,0-0.3,0c-0.2,0.9-0.5,1.9-0.8,2.8c-0.5-0.8-1.1-1.6-1.6-2.4c-0.2,0-0.4,0.1-0.6,0.1c-0.2,0-0.4,0-0.6,0.1
		c0.8,1.1,1.6,2.2,2.4,3.4c0.1,0,0.2-0.1,0.3-0.1C176.4,150.8,176.4,150.8,176.5,150.7 M180.1,146.9c-0.2,0-0.3,0-0.5,0
		c-0.2,0-0.3,0-0.5,0l-0.1,3.6l2.6,0c0-0.1,0-0.2,0-0.2s0-0.2,0-0.2c-0.5,0-1,0.1-1.5,0L180.1,146.9 M184.1,147.5
		c0.4,0,0.8,0.1,1.2,0.2c0-0.1,0-0.2,0-0.2c0-0.1,0-0.1,0.1-0.2l-3.5-0.3c0,0.1,0,0.2,0,0.2c0,0.1,0,0.2-0.1,0.2c0.4,0,0.8,0,1.3,0
		l-0.3,3.3c0.2,0,0.3,0,0.5,0c0.2,0,0.3,0,0.5,0.1L184.1,147.5 M185.5,151.1c0.2,0,0.3,0.1,0.5,0.1c0.2,0,0.3,0.1,0.5,0.1l0.4-1.7
		l0,0c0.1,0.2,0.2,0.5,0.3,0.7l0.5,1.3c0.2,0,0.4,0.1,0.6,0.1c0.2,0,0.4,0.1,0.6,0.2l-0.2-0.4c-0.3-0.6-0.6-1.1-0.8-1.7
		c0.6,0,1.1-0.2,1.3-0.7c0.1-0.4-0.1-0.6-0.4-0.9c-0.3-0.2-0.7-0.3-1-0.3l-1.4-0.3L185.5,151.1 M187.3,148c0.4,0.1,0.9,0.2,0.9,0.6
		c0,0.1,0,0.2,0,0.3c-0.1,0.5-0.5,0.7-1.2,0.5L187.3,148 M192.1,152.2c0,0.4-0.1,0.8-0.2,1.2c0.2,0.1,0.3,0.2,0.5,0.3
		c0.2,0.1,0.3,0.2,0.5,0.3l0.3-4.1c-0.1,0-0.2-0.1-0.2-0.1c-0.1,0-0.1-0.1-0.2-0.1l-3.6,2.3c0.1,0,0.2,0.1,0.3,0.1
		c0.1,0.1,0.2,0.1,0.3,0.2c0.3-0.3,0.6-0.5,1-0.7L192.1,152.2L192.1,152.2z M191,151.2l1.2-0.8l-0.1,1.4L191,151.2"/>
	<path class="st8" d="M142,104c3.8,0,7.1,0.6,9.3,1.4c1.3,0.6,2.9,1,4.8,1.2c1.4,0.2,2.7,0.2,3.9,0.1c1.6,0,3.8,0.4,6,1.4
		c1.9,0.8,3.4,1.8,4.4,2.8l-0.9,0.8l-0.3,2.3l-2.4,2.8l-1.2,1l-2.9,2.3l-1.5,0.1l-0.4,1.3l-18.7-2.2l-18.8,2.2l-0.4-1.3l-1.5-0.1
		l-2.9-2.3l-1.2-1l-2.4-2.8l-0.3-2.3l-0.9-0.8c1-1,2.6-2,4.4-2.8c2.2-1,4.5-1.4,6-1.4c1.2,0.1,2.5,0.1,3.9-0.1
		c1.8-0.3,3.5-0.7,4.8-1.2C135.1,104.5,138.3,104,142,104L142,104z"/>
	<g>
		<path class="st29" d="M128.2,108.9l0.8,0.6l1.2-1.9c-1.3-0.8-2.2-2.2-2.2-3.7c0-0.2,0-0.3,0-0.5c0.1-2.5,3.1-4.5,6.9-4.5
			c2,0,3.8,0.5,5,1.4c0-0.4,0.1-0.7,0.1-1.1c-1.4-0.8-3.2-1.3-5.1-1.3c-4.4,0-7.8,2.5-8,5.4c0,0.2,0,0.3,0,0.5c0,1.6,0.7,3,1.9,4
			L128.2,108.9"/>
		<path class="st29" d="M128.3,108.9c-1.5-1.1-2.4-2.6-2.4-4.3c0-1.9,1.3-3.6,3.2-4.8c-1.2,1-1.9,2.2-2,3.5c0,0.2,0,0.3,0,0.5
			c0,1.6,0.7,3,1.9,4L128.3,108.9"/>
		<path class="st29" d="M0,0"/>
		<path class="st29" d="M116.6,102.7c-1.1,0.7-1.9,1.5-2.4,2.5c-0.3,0.7-0.5,1.4-0.5,2.2c0,1.3,0.5,2.5,1.4,3.5l-0.9,1.5
			c-0.9-1.1-1.4-2.4-1.4-3.8C112.8,106.1,114.3,104.1,116.6,102.7L116.6,102.7z M142.3,97.4c1,0,1.9,0.7,2.1,1.6
			c0.1,0.8,0.2,1.7,0.2,2.6c0,0.1,0,0.2,0,0.3c0,0.1,0,0.2,0,0.3c0,2,0.3,3.8,0.7,4.8l-3,2.9l-3.1-2.9c0.4-1.1,0.7-2.8,0.7-4.8
			c0-0.1,0-0.2,0-0.3c0-0.1,0-0.2,0-0.3c0-1,0.1-1.8,0.2-2.6C140.4,98.1,141.3,97.4,142.3,97.4L142.3,97.4z"/>
		<path class="st29" d="M142.3,98.4c0.5,0,1,0.3,1.1,0.8c0.1,0.7,0.2,1.6,0.2,2.5c0,0.1,0,0.2,0,0.3c0,0.1,0,0.2,0,0.3
			c0,1.9,0.3,3.6,0.7,4.6l-2,1.9l-2-1.9c0.4-1,0.7-2.7,0.7-4.6c0-0.1,0-0.2,0-0.3c0-0.1,0-0.2,0-0.3c0-0.9,0.1-1.7,0.2-2.5
			C141.3,98.7,141.7,98.4,142.3,98.4z M156.3,108.9l-0.8,0.6l-1.2-1.9c1.3-0.8,2.2-2.2,2.2-3.7c0-0.2,0-0.3,0-0.5
			c-0.1-2.5-3.1-4.5-6.9-4.5c-2,0-3.8,0.5-5,1.4c0-0.4-0.1-0.7-0.1-1.1c1.4-0.8,3.2-1.3,5.2-1.3c4.4,0,7.8,2.5,8,5.4
			c0,0.2,0,0.3,0,0.5c0,1.6-0.7,3-1.9,4L156.3,108.9"/>
		<path class="st29" d="M156.2,108.9c1.5-1.1,2.4-2.6,2.4-4.3c0-1.9-1.3-3.6-3.2-4.8c1.2,1,1.9,2.2,2,3.5c0,0.2,0,0.3,0,0.5
			c0,1.6-0.7,3-1.9,4L156.2,108.9"/>
		<path class="st29" d="M169.4,110.9c0.8-0.9,1.4-2.2,1.4-3.5c0-0.8-0.2-1.6-0.5-2.2c-1.2-2.5-5-4.3-9.5-4.3c-1.2,0-2.4,0.1-3.5,0.4
			c0.2,0.3,0.4,0.6,0.6,0.8c0.9-0.2,1.9-0.3,2.9-0.3c4.1,0,7.6,1.6,8.6,3.8c0.3,0.6,0.4,1.2,0.4,1.8c0,1.3-0.6,2.5-1.6,3.3l1.5,2.4
			l0.8-0.6L169.4,110.9z"/>
		<path class="st29" d="M167.9,102.7c1.1,0.7,1.9,1.5,2.4,2.5c0.3,0.7,0.5,1.4,0.5,2.2c0,1.3-0.5,2.5-1.4,3.5l0.9,1.5
			c0.9-1.1,1.4-2.4,1.4-3.8C171.7,106.1,170.2,104.1,167.9,102.7L167.9,102.7z"/>
		<ellipse class="st37" cx="142.3" cy="95.2" rx="2.5" ry="2.4"/>
		<path class="st3" d="M141.6,88.5v1.3h-1.4v1.3h1.4v3.8h-1.7c0,0.1-0.1,0.2-0.1,0.3c0,0.3,0.1,0.6,0.2,0.9c0,0,0,0,0,0h4.6
			c0,0,0,0,0,0c0.1-0.3,0.2-0.6,0.2-0.9c0-0.1-0.1-0.2-0.1-0.3H143v-3.8h1.4v-1.3H143v-1.3H141.6z"/>
	</g>
	<g>
		<ellipse class="st38" cx="142.3" cy="107.5" rx="1.1" ry="1"/>
		<ellipse class="st38" cx="142.3" cy="105.5" rx="1.1" ry="1"/>
		<ellipse class="st38" cx="142.3" cy="103.3" rx="0.9" ry="0.8"/>
		<ellipse class="st38" cx="142.3" cy="101.4" rx="0.6" ry="0.6"/>
		<ellipse class="st38" cx="142.3" cy="99.7" rx="0.5" ry="0.5"/>
		<ellipse class="st38" cx="113.2" cy="113" rx="0.6" ry="0.6"/>
		<ellipse class="st38" cx="112.3" cy="111.5" rx="0.6" ry="0.6"/>
		<ellipse class="st38" cx="111.8" cy="109.8" rx="0.6" ry="0.6"/>
		<ellipse class="st38" cx="111.7" cy="107.9" rx="0.6" ry="0.6"/>
		<ellipse class="st38" cx="112.1" cy="106" rx="0.6" ry="0.6"/>
		<ellipse class="st38" cx="113.1" cy="104.4" rx="0.6" ry="0.6"/>
		<ellipse class="st38" cx="114.4" cy="103" rx="0.6" ry="0.6"/>
		<ellipse class="st38" cx="115.9" cy="101.8" rx="0.6" ry="0.6"/>
		<ellipse class="st38" cx="117.7" cy="100.9" rx="0.6" ry="0.6"/>
		<ellipse class="st38" cx="119.5" cy="100.2" rx="0.6" ry="0.6"/>
		<ellipse class="st38" cx="121.6" cy="99.9" rx="0.6" ry="0.6"/>
		<ellipse class="st38" cx="123.5" cy="99.8" rx="0.6" ry="0.6"/>
		<ellipse class="st38" cx="125.4" cy="99.8" rx="0.6" ry="0.6"/>
		<ellipse class="st38" cx="127.6" cy="108.3" rx="0.6" ry="0.6"/>
		<ellipse class="st38" cx="126.5" cy="106.8" rx="0.6" ry="0.6"/>
		<ellipse class="st38" cx="125.9" cy="105.1" rx="0.6" ry="0.6"/>
		<ellipse class="st38" cx="126" cy="103.3" rx="0.6" ry="0.6"/>
		<ellipse class="st38" cx="126.4" cy="101.5" rx="0.6" ry="0.6"/>
		<ellipse class="st38" cx="127.4" cy="99.8" rx="0.6" ry="0.6"/>
		<ellipse class="st38" cx="128.8" cy="98.7" rx="0.6" ry="0.6"/>
		<ellipse class="st38" cx="130.5" cy="97.7" rx="0.6" ry="0.6"/>
		<ellipse class="st38" cx="132.4" cy="97.2" rx="0.6" ry="0.6"/>
		<ellipse class="st38" cx="134.3" cy="96.8" rx="0.6" ry="0.6"/>
		<ellipse class="st38" cx="136.3" cy="96.9" rx="0.6" ry="0.6"/>
		<ellipse class="st38" cx="138.2" cy="97.2" rx="0.6" ry="0.6"/>
		<ellipse class="st38" cx="140.1" cy="97.8" rx="0.6" ry="0.6"/>
		<ellipse class="st38" cx="144.4" cy="97.8" rx="0.6" ry="0.6"/>
		<ellipse class="st38" cx="146.2" cy="97.2" rx="0.6" ry="0.6"/>
		<ellipse class="st38" cx="148.2" cy="96.9" rx="0.6" ry="0.6"/>
		<ellipse class="st38" cx="150.1" cy="96.8" rx="0.6" ry="0.6"/>
		<ellipse class="st38" cx="152.1" cy="97.2" rx="0.6" ry="0.6"/>
		<ellipse class="st38" cx="154" cy="97.7" rx="0.6" ry="0.6"/>
		<ellipse class="st38" cx="155.7" cy="98.7" rx="0.6" ry="0.6"/>
		<ellipse class="st38" cx="157.1" cy="99.8" rx="0.6" ry="0.6"/>
		<ellipse class="st38" cx="158.1" cy="101.5" rx="0.6" ry="0.6"/>
		<ellipse class="st38" cx="158.5" cy="103.3" rx="0.6" ry="0.6"/>
		<ellipse class="st38" cx="158.6" cy="105.1" rx="0.6" ry="0.6"/>
		<ellipse class="st38" cx="158" cy="106.8" rx="0.6" ry="0.6"/>
		<ellipse class="st38" cx="156.9" cy="108.3" rx="0.6" ry="0.6"/>
		<ellipse class="st38" cx="159.1" cy="99.8" rx="0.6" ry="0.6"/>
		<ellipse class="st38" cx="161" cy="99.8" rx="0.6" ry="0.6"/>
		<ellipse class="st38" cx="162.9" cy="99.9" rx="0.6" ry="0.6"/>
		<ellipse class="st38" cx="165" cy="100.2" rx="0.6" ry="0.6"/>
		<ellipse class="st38" cx="166.8" cy="100.9" rx="0.6" ry="0.6"/>
		<ellipse class="st38" cx="168.6" cy="101.8" rx="0.6" ry="0.6"/>
		<ellipse class="st38" cx="170.1" cy="103" rx="0.6" ry="0.6"/>
		<ellipse class="st38" cx="171.4" cy="104.4" rx="0.6" ry="0.6"/>
		<ellipse class="st38" cx="172.3" cy="106" rx="0.6" ry="0.6"/>
		<ellipse class="st38" cx="172.8" cy="107.9" rx="0.6" ry="0.6"/>
		<ellipse class="st38" cx="172.7" cy="109.8" rx="0.6" ry="0.6"/>
		<ellipse class="st38" cx="172.2" cy="111.5" rx="0.6" ry="0.6"/>
		<ellipse class="st38" cx="171.3" cy="113" rx="0.6" ry="0.6"/>
	</g>
	<g>
		<path class="st29" d="M142.3,128.7c-7,0-13.2-0.8-17.7-2.2c-0.3-0.1-0.5-0.4-0.5-0.7c0-0.3,0.2-0.6,0.5-0.7
			c4.5-1.3,10.7-2.2,17.7-2.2c7,0,13.2,0.8,17.7,2.2c0.3,0.1,0.5,0.4,0.5,0.7c0,0.3-0.2,0.6-0.5,0.7
			C155.5,127.8,149.3,128.7,142.3,128.7"/>
		<path class="st29" d="M142.3,122.9c-7.1,0-13.4,0.9-17.9,2.3c0.4-0.2,0.3-0.6-0.1-1.8c-0.6-1.4-1.4-1.4-1.4-1.4
			c4.9-1.5,11.8-2.4,19.4-2.4c7.6,0,14.6,0.9,19.5,2.4c0,0-0.9-0.1-1.4,1.4c-0.5,1.2-0.5,1.6-0.1,1.8
			C155.8,123.8,149.3,123,142.3,122.9"/>
		<path class="st29" d="M142.3,119.6c-7.6,0-14.5,0.9-19.4,2.4c-0.3,0.1-0.7,0-0.8-0.3c-0.1-0.3,0.1-0.7,0.4-0.8
			c5-1.5,12-2.5,19.8-2.5c7.8,0,14.9,1,19.9,2.5c0.3,0.1,0.5,0.5,0.4,0.8c-0.1,0.3-0.5,0.4-0.8,0.3
			C156.8,120.6,149.9,119.7,142.3,119.6"/>
		<path class="st29" d="M0,0"/>
		<path class="st29" d="M0,0"/>
		<path class="st31" d="M116.8,116.6c0.3-0.3,0.9-0.2,1.3,0.1c0.5,0.4,0.6,0.9,0.3,1.2c-0.3,0.3-0.9,0.2-1.3-0.1
			C116.6,117.5,116.5,116.9,116.8,116.6"/>
		<path class="st38" d="M123.1,117.1c-0.2-0.5,0-0.9,0.3-1c0.3-0.1,0.8,0.2,0.9,0.7c0.2,0.5,0,0.9-0.3,1
			C123.7,117.9,123.3,117.6,123.1,117.1"/>
		<path class="st29" d="M128.6,114.8c-0.2-0.2-0.3-0.4-0.4-0.6c0-0.3,0-0.5,0.1-0.7c0,0-0.5-0.3-1-0.4c-0.4-0.1-1.1-0.1-1.3-0.1
			c-0.2,0-0.7,0-0.7,0s0,0.1,0.2,0.3c0.2,0.3,0.3,0.4,0.3,0.4c-0.7,0.2-1.3,0.6-1.7,1.2c0.6,0.4,1.3,0.6,2,0.6c0,0-0.1,0.2-0.1,0.5
			c0,0.2,0,0.3,0,0.3s0.4-0.1,0.6-0.2c0.2-0.1,0.9-0.3,1.2-0.5C128.3,115.2,128.6,114.8,128.6,114.8"/>
		<path class="st29" d="M128.4,109c0.6,0.4,1.1,1,1.3,1.7c0,0,0.1-0.1,0.4-0.3c0.3-0.2,0.6-0.2,0.6-0.2s-0.1,0.6-0.1,0.8
			c-0.1,0.2-0.1,0.8-0.2,1.3c-0.1,0.5-0.4,1-0.4,1c-0.2-0.2-0.6-0.3-0.9-0.2c-0.3,0.1-0.6,0.3-0.8,0.5c0,0-0.4-0.3-0.7-0.8
			c-0.3-0.5-0.5-1-0.6-1.2c-0.1-0.2-0.4-0.7-0.4-0.7s0.3-0.1,0.6,0c0.4,0.1,0.5,0.2,0.5,0.2C127.7,110.3,128,109.6,128.4,109"/>
		<path class="st29" d="M0,0"/>
		<ellipse class="st31" cx="129.4" cy="114" rx="1.2" ry="1.2"/>
		<path class="st38" d="M135.3,114.8c-0.1-0.5,0.2-0.9,0.5-1c0.4,0,0.7,0.3,0.8,0.8c0.1,0.5-0.2,0.9-0.5,1
			C135.7,115.6,135.3,115.3,135.3,114.8"/>
		<path class="st29" d="M141.4,113.7c-0.2-0.2-0.3-0.5-0.3-0.8c0-0.3,0.1-0.6,0.3-0.8c0,0-0.5-0.4-1.1-0.6c-0.4-0.2-1.2-0.3-1.5-0.4
			l-0.7-0.1c0,0,0,0.1,0.1,0.4c0.1,0.3,0.2,0.5,0.2,0.5c-0.8,0-1.6,0.5-2.2,1c0.5,0.5,1.3,0.9,2.2,1c0,0-0.1,0.2-0.2,0.5
			c-0.1,0.3-0.1,0.4-0.1,0.4l0.7-0.1c0.2,0,1-0.2,1.5-0.4C140.9,114.1,141.4,113.7,141.4,113.7"/>
		<path class="st29" d="M142.3,107.2c0.6,0.5,1.1,1.3,1.1,2.2c0,0,0.1-0.2,0.5-0.3c0.4-0.1,0.7-0.1,0.7-0.1s-0.2,0.6-0.3,0.8
			c-0.1,0.2-0.2,0.9-0.5,1.4c-0.3,0.6-0.6,1-0.6,1c-0.2-0.3-0.6-0.4-1-0.4c-0.4,0-0.7,0.2-1,0.4c0,0-0.3-0.4-0.6-1
			c-0.3-0.6-0.4-1.2-0.5-1.4c-0.1-0.2-0.3-0.8-0.3-0.8s0.3-0.1,0.7,0.1c0.4,0.1,0.5,0.3,0.5,0.3
			C141.3,108.5,141.7,107.7,142.3,107.2"/>
		<path class="st29" d="M143.2,113.7c0.2-0.2,0.3-0.5,0.3-0.8c0-0.3-0.1-0.6-0.3-0.8c0,0,0.5-0.4,1.1-0.6c0.4-0.2,1.2-0.3,1.5-0.4
			l0.7-0.1c0,0,0,0.1-0.1,0.4c-0.1,0.3-0.2,0.5-0.2,0.5c0.8,0,1.6,0.5,2.2,1c-0.5,0.5-1.3,0.9-2.2,1c0,0,0.1,0.2,0.2,0.5
			c0.1,0.3,0.1,0.4,0.1,0.4l-0.7-0.1c-0.2,0-1-0.2-1.5-0.4C143.8,114.1,143.2,113.7,143.2,113.7"/>
		<ellipse class="st31" cx="142.3" cy="112.9" rx="1.2" ry="1.2"/>
		<path class="st38" d="M149.4,114.8c0.1-0.5-0.2-0.9-0.5-1c-0.4,0-0.7,0.3-0.8,0.8c-0.1,0.5,0.2,0.9,0.5,1
			C149,115.6,149.3,115.3,149.4,114.8"/>
		<path class="st29" d="M154.4,114.6c-0.1-0.2-0.2-0.4-0.1-0.7c0.1-0.3,0.2-0.5,0.4-0.6c0,0-0.4-0.4-0.8-0.7c-0.3-0.2-1-0.5-1.2-0.5
			c-0.2-0.1-0.6-0.2-0.6-0.2s0,0.1,0,0.3c0,0.3,0.1,0.5,0.1,0.5c-0.7-0.1-1.5,0.2-2,0.6c0.4,0.6,1,1,1.7,1.2c0,0-0.1,0.2-0.3,0.4
			c-0.1,0.2-0.2,0.3-0.2,0.3l0.6,0c0.2,0,0.9,0,1.3-0.1C153.9,114.8,154.4,114.6,154.4,114.6"/>
		<path class="st29" d="M156.3,109c-0.6,0.4-1.1,1-1.3,1.7c0,0-0.1-0.1-0.4-0.3c-0.3-0.2-0.6-0.2-0.6-0.2s0.1,0.6,0.1,0.8
			c0.1,0.2,0.1,0.8,0.2,1.3c0.1,0.5,0.4,1,0.4,1c0.2-0.2,0.6-0.3,0.9-0.2c0.3,0.1,0.6,0.3,0.8,0.5c0,0,0.4-0.3,0.7-0.8
			c0.3-0.5,0.5-1,0.6-1.2c0.1-0.2,0.4-0.7,0.4-0.7s-0.3-0.1-0.6,0c-0.4,0.1-0.5,0.2-0.5,0.2C156.9,110.3,156.7,109.6,156.3,109"/>
		<path class="st29" d="M156,114.8c0.2-0.2,0.3-0.4,0.4-0.6c0.1-0.3,0-0.5-0.1-0.7c0,0,0.5-0.3,1-0.4c0.4-0.1,1.1-0.1,1.3-0.1
			c0.2,0,0.7,0,0.7,0s0,0.1-0.2,0.3c-0.1,0.3-0.3,0.4-0.3,0.4c0.7,0.2,1.3,0.6,1.7,1.2c-0.6,0.4-1.3,0.6-2,0.6c0,0,0.1,0.2,0.1,0.5
			c0,0.2,0,0.3,0,0.3s-0.4-0.1-0.6-0.2c-0.2-0.1-0.9-0.3-1.2-0.5C156.4,115.2,156,114.8,156,114.8"/>
		<ellipse class="st31" cx="155.3" cy="114" rx="1.2" ry="1.2"/>
		<path class="st38" d="M161.6,117.1c0.2-0.5,0-0.9-0.3-1c-0.3-0.1-0.8,0.2-0.9,0.7c-0.2,0.5,0,0.9,0.3,1
			C161,117.9,161.4,117.6,161.6,117.1"/>
		<path class="st29" d="M166.1,117.4c0.1-0.2,0.2-0.4,0.4-0.6c0.4-0.4,1.1-0.4,1.3-0.1c0,0,0.1,0.1,0.1,0.1c0,0,0.6-1.2,1.4-1.6
			c0.7-0.4,2-0.3,2-0.3c0-0.9-0.7-1.6-1.7-1.6c-0.6,0-1.1,0.2-1.4,0.6l-0.1-0.6c0,0-0.8,0.2-1.1,1s0,2.2,0,2.2s-0.2-0.5-0.5-0.9
			c-0.3-0.4-1-0.8-1.4-0.9c-0.4-0.2-0.8-0.4-0.8-0.4s0,0.1,0,0.3c0,0.3,0,0.5,0,0.5c-0.7-0.1-1.5,0-2.2,0.3c0.3,0.5,0.8,1,1.5,1.3
			c0,0-0.2,0.2-0.5,0.4c-0.2,0.2-0.2,0.3-0.2,0.3s0.5,0.1,0.7,0.1c0.2,0,1,0.2,1.5,0.1C165.5,117.5,165.9,117.4,166.1,117.4"/>
		<path class="st31" d="M167.9,116.6c-0.3-0.3-0.9-0.2-1.3,0.1c-0.4,0.4-0.6,0.9-0.3,1.2c0.3,0.3,0.9,0.2,1.3-0.1
			C168,117.5,168.2,116.9,167.9,116.6"/>
	</g>
	<g>
		<path class="st32" d="M142.3,127.8c-6.3,0-12-0.7-16.3-1.9c4.3-1.1,10-1.8,16.3-1.8c6.3,0,12,0.7,16.4,1.8
			C154.3,127,148.6,127.8,142.3,127.8L142.3,127.8z"/>
		<path class="st14" d="M146.8,127.6v-3.4 M145.1,127.7l0-3.6 M143.8,127.8v-3.7"/>
		<path class="st18" d="M142.8,127.8v-3.7"/>
		<path class="st23" d="M141.8,127.8v-3.7"/>
		<path class="st25" d="M140.8,127.8v-3.7"/>
		<path class="st39" d="M139.8,127.8v-3.7"/>
		<path class="st40" d="M139,127.8v-3.7"/>
		<path class="st41" d="M137.4,127.6l0-3.4 M138.2,127.6v-3.6"/>
		<path class="st42" d="M135.9,127.4v-3.1 M136.7,127.5l0-3.3"/>
		<path class="st43" d="M133.9,127.3v-2.8 M134.6,127.3v-2.9 M135.2,127.4v-3"/>
		<path class="st44" d="M133.2,127.2v-2.7"/>
		<path class="st45" d="M132.5,127.1v-2.5"/>
		<path class="st46" d="M131.8,127v-2.3"/>
		<path class="st47" d="M130.4,126.8l0-1.8 M131.1,126.9v-2.1"/>
		<path class="st48" d="M129.7,126.7v-1.6"/>
		<path class="st49" d="M129,126.6v-1.3"/>
		<path class="st50" d="M128.3,126.4v-1.1"/>
		<path class="st51" d="M127.5,126.3v-0.8"/>
		<path class="st52" d="M126.7,126.1v-0.4"/>
		<path class="st30" d="M125.2,126.1c4.4-1.2,10.4-2,17.1-2c6.7,0,12.7,0.8,17.1,2"/>
		<path class="st31" d="M123.3,123.5l0.7-0.9l1.9,0.2l-1.5,1.1L123.3,123.5"/>
		<path class="st38" d="M127.5,122.5c0-0.3,0.3-0.6,0.6-0.6c0.3,0,0.6,0.3,0.6,0.6c0,0.3-0.3,0.6-0.6,0.6
			C127.7,123.1,127.5,122.8,127.5,122.5"/>
		<path class="st53" d="M132.9,122.4l-1.3,0.2c-0.3,0-0.7-0.2-0.7-0.5c0-0.3,0.2-0.6,0.5-0.7l1.3-0.2l1.4-0.2c0.3,0,0.7,0.2,0.7,0.5
			c0,0.3-0.2,0.6-0.5,0.7L132.9,122.4"/>
		<path class="st38" d="M136.9,121.4c0-0.3,0.3-0.6,0.6-0.6c0.3,0,0.6,0.3,0.6,0.6c0,0.3-0.3,0.6-0.6,0.6
			C137.1,122,136.9,121.7,136.9,121.4"/>
		<path class="st31" d="M142.3,121.8h-1.9c-0.3,0-0.6-0.3-0.6-0.6c0-0.3,0.3-0.6,0.6-0.6h3.8c0.3,0,0.6,0.3,0.6,0.6
			c0,0.3-0.3,0.6-0.6,0.6H142.3"/>
		<path class="st38" d="M146.5,121.4c0-0.3,0.3-0.6,0.6-0.6c0.3,0,0.6,0.3,0.6,0.6c0,0.3-0.3,0.6-0.6,0.6
			C146.8,122,146.5,121.7,146.5,121.4"/>
		<path class="st53" d="M151.7,122.4l1.3,0.2c0.3,0,0.7-0.2,0.7-0.5c0-0.3-0.2-0.6-0.5-0.7l-1.3-0.2l-1.4-0.2
			c-0.3,0-0.7,0.2-0.7,0.5c0,0.3,0.2,0.6,0.5,0.7L151.7,122.4"/>
		<path class="st38" d="M155.9,122.5c0-0.3,0.3-0.6,0.6-0.6c0.3,0,0.6,0.3,0.6,0.6c0,0.3-0.3,0.6-0.6,0.6
			C156.2,123.1,155.9,122.8,155.9,122.5"/>
		<path class="st31" d="M161.3,123.5l-0.7-0.9l-1.9,0.2l1.5,1.1L161.3,123.5"/>
	</g>
	<g>
		<path class="st54" d="M142.5,195.9c-7.4,0-14.8-1.8-21-4.9c-4.6-2.3-7.6-6.8-7.6-12.1V160H171V179c0,5.2-3,9.8-7.6,12.1
			C157.2,194.1,150,195.9,142.5,195.9L142.5,195.9z"/>
		<path class="st55" d="M143.9,187.5c1.2,0.4,1.8,1.2,1.8,2.3c0,1.4-1.3,2.4-3,2.4c-1.7,0-3.1-1-3.1-2.4c0-1,0.6-2.2,1.8-2.2
			c0,0,0-0.1-0.1-0.3c-0.1-0.1-0.4-0.4-0.4-0.4s0.4-0.1,0.7,0c0.3,0.1,0.4,0.3,0.4,0.3s0.1-0.2,0.3-0.4c0.2-0.2,0.4-0.3,0.4-0.3
			s0.3,0.2,0.3,0.4c0.1,0.2,0.1,0.3,0.1,0.3s0.2-0.2,0.4-0.3c0.2-0.1,0.5-0.1,0.5-0.1s-0.1,0.3-0.1,0.4
			C143.9,187.2,143.9,187.5,143.9,187.5"/>
		<path class="st56" d="M142.4,193.6c0,0-2.3-1.5-3.2-1.7c-1.3-0.3-2.7-0.1-3.3-0.1c0,0,0.7,0.5,1,0.8s1.4,0.9,2,1.1
			C140.7,194.2,142.4,193.6,142.4,193.6 M143.1,193.7c0,0,1.4-1.5,3-1.7c1.8-0.3,3,0.1,3.7,0.3c0,0-0.6,0.3-0.9,0.5
			c-0.3,0.2-1.1,0.9-2.4,0.9c-1.2,0-2.6-0.1-2.8-0.1C143.4,193.7,143.1,193.7,143.1,193.7 M0,0"/>
		<path class="st56" d="M142.1,195c0,0,0.3-0.9,0.4-1.6c0-0.6-0.1-1.2-0.1-1.2h0.5c0,0,0.2,0.7,0.2,1.2c0,0.6-0.1,1.3-0.1,1.3
			s-0.3,0-0.4,0.1C142.4,194.9,142.1,195,142.1,195"/>
		<g>
			<path class="st57" d="M142.4,179c0,7.5-6.3,13.6-14.3,13.6s-14.3-6.1-14.3-13.6v-19h28.6V179"/>
			<path class="st58" d="M113.8,178.7c0.1,4,1.7,7,3.3,8.9v-28.1h-3.2L113.8,178.7L113.8,178.7z M120.1,190.1
				c0.9,0.5,2.1,1.3,3.4,1.6l-0.1-32.4h-3.3V190.1z M126.5,192.4c1.3,0.1,2.3,0.1,3.3,0v-33.1h-3.3V192.4z M132.7,191.7
				c1.3-0.3,2.8-1.1,3.4-1.5v-30.9h-3.3L132.7,191.7z M139.3,187.3c1.4-1.2,2.7-4.1,3.2-7.3l0.1-20.7h-3.3L139.3,187.3z"/>
		</g>
		<path class="st57" d="M171,160v19c0,7.5-6.4,13.6-14.3,13.6c-7.9,0-14.3-6.1-14.3-13.6v-19H171"/>
		<path id="e" class="st57" d="M0,0"/>
		<g transform="matrix(-1 0 0 1 550.43 0)">
			<path id="e_00000176044904653508478500000016734386860730897320_" class="st57" d="M313.2,0"/>
		</g>
		<path class="st59" d="M155.1,174.6c0-0.8,0.7-1.5,1.6-1.5s1.6,0.7,1.6,1.5c0,0.8-0.7,1.5-1.6,1.5S155.1,175.4,155.1,174.6"/>
		<g>
			<path class="st57" d="M113.9,160h28.5v-31.7h-28.5V160z"/>
			<path class="st60" d="M123.7,135.6h-0.5v-0.5h-0.9v2.1h0.9v1.5h-2v4.2h1.1v8.4h-2.1v4.3h16.2v-4.3h-2.1v-8.4h1.1v-4.2h-2v-1.5
				h0.9v-2.1h-0.9v0.5h-0.5v-0.5h-0.9v0.5h-0.7v-0.5h-0.9v2.1h0.9v1.5h-2v-4.6h1V132h-1v0.5h-0.5V132h-0.9v0.5h-0.5V132h-1.1v2.1
				h1.1v4.6h-2v-1.5h0.9v-2.1h-0.9v0.5h-0.5v-0.5h-1.1L123.7,135.6L123.7,135.6z M120.1,155.6h16.2 M120.1,154.6h16.2 M120.1,153.5
				h16.2 M120.1,152.5h16.2 M120.1,151.3h16.2 M122.2,150.4h12 M122.2,149.3h12 M122.2,148.1h12 M122.2,147.1h12 M122.2,146h12
				 M122.2,145h12 M122.2,143.9h12 M121.2,142.9h14.1 M121.2,141.8h14.1 M121.2,140.8h14.1 M121.2,139.7h14.1 M123.1,138.7h10.1
				 M127.2,137.6h2 M127.2,136.6h2 M127.2,135.5h2 M127.2,134.5h2 M126.1,133.1h4.1 M123.1,137.6h2.1 M122.2,136.3h3.9 M122.2,155.6
				v-1.1 M122.2,153.5v-1.1 M121.2,153.5v1.1 M123.1,154.6v-1.1 M124.2,155.6v-1.1 M124.2,153.5v-1.1 M124.2,151.3v-0.9
				 M124.2,149.3v-1.2 M123.1,152.5v-1.2 M121.2,152.5v-1.2 M125.2,151.3v1.2 M126.1,151.3v-0.9 M123.1,149.3v1.1 M125.2,149.3v1.1
				 M127.2,149.3v1.1 M126.1,149.3v-1.2 M127.2,147.1v1 M127.2,145v1.1 M126.1,143.9v1.1 M127.2,142.9v1.1 M125.2,142.9v1.1
				 M123.1,142.9v1.1 M122.2,141.8v1.1 M124.2,141.8v1.1 M126.1,141.8v1.1 M127.2,140.8v1.1 M125.2,140.8v1.1 M123.1,140.8v1.1
				 M122.2,139.7v1 M126.1,139.7v1 M124.2,137.6v1.1 M133.2,137.6h-2.1 M134.2,136.3h-3.9 M134.2,155.6v-1.1 M134.2,153.5v-1.1
				 M135.2,153.5v1.1 M133.2,154.6v-1.1 M132.2,155.6v-1.1 M132.2,153.5v-1.1 M132.2,151.3v-0.9 M132.2,149.3v-1.2 M133.2,152.5
				v-1.2 M135.2,152.5v-1.2 M131.1,151.3v1.2 M130.2,151.3v-0.9 M133.2,149.3v1.1 M131.1,149.3v1.1 M129.2,149.3v1.1 M130.2,149.3
				v-1.2 M129.2,147.1v1 M129.2,145v1.1 M130.2,143.9v1.1 M129.2,142.9v1.1 M131.1,142.9v1.1 M133.2,142.9v1.1 M134.2,141.8v1.1
				 M132.2,141.8v1.1 M130.2,141.8v1.1 M129.2,140.8v1.1 M131.1,140.8v1.1 M133.2,140.8v1.1 M134.2,139.7v1 M130.2,139.7v1
				 M132.2,137.6v1.1 M128.1,149.3v-1.2 M128.1,145v-1.1 M128.1,147.1V146 M128.1,142.9v-1.1 M128.1,140.8v-1 M128.1,137.6v-1.1
				 M128.1,135.5v-1.1 M123.1,137.2h2.1 M127.2,134.1h2 M131.1,137.2h2.1"/>
			<path class="st60" d="M130.9,155.6v-2.8c0-0.5-0.3-2.1-2.8-2.1c-2.4,0-2.6,1.6-2.6,2.1v2.8H130.9z"/>
			<path class="st60" d="M126.4,153l-1.3-0.1c0-0.5,0.1-1.3,0.5-1.6l1.2,0.9C126.7,152.3,126.4,152.7,126.4,153z M128.6,151.7
				l0.7-1.2c-0.3-0.1-0.8-0.3-1.2-0.3c-0.3,0-0.8,0.1-1.1,0.3l0.7,1.2H128.6L128.6,151.7z M130,153l1.3-0.1c0-0.5-0.1-1.3-0.5-1.6
				l-1.2,0.9C129.7,152.3,130,152.7,130,153z M126.1,148.4v-2.9c0-0.8-0.5-1.4-1.4-1.4c-0.9,0-1.4,0.7-1.4,1.4v2.9H126.1
				L126.1,148.4z M130.2,148.4v-2.9c0-0.8,0.5-1.4,1.5-1.4c0.9,0,1.4,0.7,1.4,1.4v2.9H130.2z M125.2,141.3l0.1-2.6h-2.5l0.3,2.6
				H125.2z M129.2,141.3l0.3-2.6h-2.5l0.1,2.6H129.2z M131.1,141.3l-0.3-2.6h2.6l-0.3,2.6H131.1L131.1,141.3z"/>
			<path class="st61" d="M130,155.6v-2.4c0-0.4-0.3-1.6-1.8-1.6c-1.4,0-1.7,1.2-1.7,1.6v2.4H130L130,155.6z M125.9,148.1v-2.5
				c0-0.7-0.4-1.3-1.2-1.3s-1.2,0.7-1.2,1.3v2.5H125.9z M130.5,148.1v-2.5c0-0.7,0.4-1.3,1.2-1.3c0.8,0,1.2,0.7,1.2,1.3v2.5H130.5z"
				/>
		</g>
		<path class="st54" d="M142.4,160H171v-31.7h-28.6V160z"/>
		<path class="st62" d="M157,136.1l0-0.4l0.1-0.2c0,0-0.9,0.1-1.4-0.1c-0.5-0.1-0.9-0.3-1.4-0.7c-0.4-0.4-0.6-0.6-1-0.7
			c-0.8-0.1-1.4,0.2-1.4,0.2s0.6,0.2,1,0.7c0.4,0.5,0.9,0.8,1.1,0.9c0.3,0.1,1.5,0,1.8,0C156.3,136,157,136.1,157,136.1L157,136.1z"
			/>
		<g>
			<path class="st63" d="M161.3,134.8c0,0,0,0.4,0,0.8c0,0.4-0.1,0.7-0.1,0.9s0.1,0.4,0.2,0.5c0.1,0.1,0.1,0.5,0.1,0.5
				s-0.2-0.2-0.4-0.3c-0.2-0.2-0.3-0.3-0.3-0.3l0.1,0.6c0,0.2,0.1,0.5,0.3,0.7c0.2,0.2,0.5,0.5,0.6,0.8c0.1,0.3,0.1,0.8,0.1,0.8
				s-0.3-0.4-0.5-0.5c-0.2-0.1-0.7-0.4-0.7-0.4s0.4,0.4,0.4,0.9c0,0.4-0.2,0.9-0.2,0.9s-0.2-0.4-0.5-0.6c-0.3-0.3-0.6-0.5-0.6-0.5
				s0.3,0.7,0.3,1.1c0,0.4-0.1,1.4-0.1,1.4s-0.2-0.4-0.4-0.5c-0.2-0.2-0.5-0.3-0.6-0.4c-0.1-0.1,0.3,0.4,0.3,0.7
				c0,0.3,0.2,1.3,1.1,2.7c0.5,0.8,1.4,2.1,3.1,1.7c1.8-0.4,1.1-2.8,0.7-3.9c-0.4-1.1-0.6-2.3-0.5-2.8c0-0.4,0.3-1.7,0.3-1.9
				c0-0.2-0.1-1.1,0.1-1.9c0.2-0.8,0.4-1.1,0.5-1.4c0.1-0.3,0.2-0.5,0.3-0.8c0-0.3,0-0.8,0-0.8s0.3,0.6,0.4,0.8
				c0.1,0.2,0.1,0.9,0.1,0.9s0.1-0.6,0.6-1c0.5-0.3,1.1-0.6,1.2-0.8s0.2-0.3,0.2-0.3s0,1.1-0.4,1.5c-0.2,0.3-1,1.2-1,1.2
				s0.4-0.2,0.7-0.2c0.3,0,0.5,0,0.5,0s-0.4,0.3-0.8,0.9c-0.5,0.7-0.3,0.7-0.6,1.3s-0.6,0.6-1,0.9c-0.6,0.5-0.3,2.5-0.2,2.8
				c0.1,0.3,1.2,2.7,1.2,3.3c0,0.6,0.1,1.9-0.9,2.7c-0.7,0.5-1.7,0.5-2,0.7c-0.2,0.2-0.7,0.6-0.7,1.7c0,1,0.4,1.2,0.7,1.4
				c0.3,0.3,0.7,0.1,0.7,0.3c0.1,0.2,0.1,0.3,0.3,0.4c0.1,0.1,0.2,0.3,0.2,0.5c0,0.2-0.5,0.7-0.7,1.1c-0.2,0.3-0.5,1.3-0.5,1.4
				s0,0.6,0.1,0.8c0,0,0.5,0.6,0.2,0.7c-0.2,0.1-0.4-0.1-0.6-0.1c-0.3,0.1-0.5,0.3-0.6,0.3c-0.2,0-0.2-0.1-0.2-0.4
				c0-0.3,0-0.4-0.1-0.4c-0.1,0-0.2,0.1-0.2,0.3c0,0.2,0,0.5-0.2,0.5s-0.3-0.3-0.5-0.3c-0.1-0.1-0.5-0.1-0.5-0.3
				c0-0.2,0.2-0.5,0.4-0.5c0.2-0.1,0.4-0.2,0.3-0.3c-0.1-0.1-0.3-0.1-0.4,0c-0.1,0.1-0.4,0-0.4-0.2c0-0.2,0.1-0.4,0-0.5
				c0-0.1-0.3-0.3,0.1-0.5c0.3-0.2,0.5,0.2,0.8,0.1c0.3-0.1,0.5-0.2,0.6-0.4c0.1-0.2,0.1-0.6-0.1-0.9c-0.2-0.3-0.4-0.3-0.5-0.5
				c-0.1-0.2-0.2-0.5-0.2-0.5s0.1,0.7,0,0.8s0,0.5,0,0.5s-0.2-0.3-0.4-0.4c-0.2-0.2-0.4-0.8-0.4-0.8s0,0.5,0,0.8
				c0,0.2,0.2,0.4,0.2,0.5c-0.1,0.1-0.5-0.4-0.6-0.5c-0.1-0.1-0.4-0.3-0.6-0.6s-0.3-0.7-0.3-0.8c0-0.1-0.1-0.7,0-0.9
				c0.1-0.2,0.3-0.6,0.3-0.6h-0.8c-0.4,0-0.7-0.1-0.9,0.2s-0.1,0.9,0.1,1.6c0.2,0.8,0.3,1.1,0.3,1.3c-0.1,0.1-0.3,0.4-0.4,0.5
				c-0.1,0.1-0.4,0-0.5,0c-0.1-0.1-0.3-0.2-0.7-0.2s-0.6,0-0.8,0c-0.1,0-0.5-0.2-0.7-0.2c-0.2,0-0.4,0.2-0.4,0.4
				c0.1,0.3-0.1,0.4-0.3,0.4c-0.2,0-0.3-0.1-0.5-0.1c-0.2-0.1-0.5,0-0.5-0.2c0-0.2,0.1-0.3,0.2-0.4c0.1-0.2,0.1-0.3,0-0.3
				c-0.1,0-0.3,0-0.4,0.1c-0.1,0.1-0.3,0.3-0.4,0.2c-0.1-0.1-0.3-0.2-0.3-0.6c0-0.4-0.4-0.7,0-0.7c0.4,0,0.8,0.3,0.9,0.1
				c0.1-0.2,0-0.3-0.2-0.4c-0.2-0.2-0.4-0.2-0.2-0.4c0.3-0.2,0.3-0.2,0.4-0.3c0.1-0.1,0.2-0.4,0.4-0.4c0.4,0.2,0,0.4,0.4,0.8
				c0.4,0.4,0.6,0.5,1.2,0.5c0.6-0.1,0.8-0.1,0.8-0.3c0-0.2-0.1-0.5-0.1-0.6c0-0.1,0.1-0.6,0.1-0.6s-0.3,0.2-0.4,0.3
				c-0.1,0.2-0.2,0.5-0.2,0.5s-0.1-0.3,0-0.6c0-0.2,0.1-0.4,0.1-0.5c0-0.2-0.1-0.5-0.1-0.5s-0.1,0.4-0.2,0.5
				c-0.1,0.1-0.1,0.6-0.1,0.6s-0.4-0.3-0.3-0.9c0.1-0.4-0.1-1,0.1-1.2c0.1-0.2,0.4-0.9,1.2-1c0.7,0,1.3,0,1.6,0
				c0.3,0,1.2-0.2,1.2-0.2s-1.7-0.9-2.1-1.1c-0.4-0.3-1-0.9-1.2-1.2c-0.2-0.3-0.4-0.9-0.4-0.9s-0.3,0-0.6,0.2
				c-0.3,0.2-0.5,0.4-0.7,0.6c-0.2,0.2-0.4,0.6-0.4,0.6s0-0.5,0-0.7s0-0.5,0-0.5s-0.2,0.7-0.6,1c-0.4,0.3-0.8,0.7-0.8,0.7
				s0-0.4,0-0.5c0-0.1,0.1-0.6,0.1-0.6s-0.3,0.4-0.7,0.5c-0.4,0.1-1,0.1-1.1,0.3c0,0.3,0.1,0.6,0,0.8c-0.1,0.2-0.3,0.3-0.3,0.3
				s-0.2-0.2-0.4-0.2c-0.2,0-0.4,0.1-0.4,0.1s-0.2-0.2-0.1-0.4c0.1-0.1,0.4-0.4,0.3-0.5c-0.1-0.1-0.3,0-0.5,0.1
				c-0.2,0.1-0.5,0.2-0.5-0.1c0-0.3,0.1-0.4,0-0.6c-0.1-0.2,0-0.3,0.1-0.3c0.1,0,0.6,0,0.7-0.1c0-0.1-0.1-0.3-0.5-0.3
				c-0.3-0.1-0.5-0.3-0.3-0.4c0.2-0.2,0.2-0.2,0.3-0.4c0.1-0.2,0.1-0.4,0.4-0.3c0.3,0.1,0.2,0.5,0.6,0.6c0.3,0.1,1.1,0,1.2-0.1
				c0.2-0.1,0.7-0.5,0.9-0.6c0.2-0.1,0.9-0.6,0.9-0.6s-0.4-0.3-0.6-0.5c-0.2-0.2-0.4-0.5-0.6-0.6c-0.1-0.1-0.9-0.3-1.1-0.4
				c-0.2,0-1-0.3-1-0.3s0.3-0.1,0.4-0.2c0.1-0.1,0.4-0.3,0.5-0.3c0.1,0,0.2,0,0.2,0s-0.7,0-0.8-0.1c-0.1,0-0.6-0.3-0.7-0.3
				c-0.2,0-0.5,0.1-0.5,0.1s0.4-0.3,0.8-0.3c0.4-0.1,0.6,0,0.6,0s-0.5-0.2-0.7-0.3c-0.1-0.2-0.3-0.5-0.4-0.6
				c-0.1-0.1-0.2-0.3-0.3-0.3c-0.2,0-0.5,0.2-0.7,0.2s-0.3-0.1-0.3-0.4c0-0.3,0-0.2-0.1-0.3c-0.1-0.1-0.3-0.5-0.1-0.5
				c0.2-0.1,0.8,0,0.8,0c0-0.1-0.3-0.4-0.5-0.5c-0.2-0.1-0.5-0.3-0.4-0.4c0.2-0.1,0.4-0.2,0.4-0.3c0.1-0.1,0.2-0.5,0.4-0.4
				c0.2,0.1,0.5,0.7,0.7,0.7c0.2,0,0.2-0.5,0.1-0.7c0-0.2,0-0.5,0.2-0.5c0.2,0,0.3,0.2,0.5,0.3c0.3,0,0.6-0.1,0.6,0.1
				c0,0.2-0.2,0.4-0.4,0.6c-0.2,0.2-0.3,0.6-0.1,0.9c0.1,0.3,0.4,0.7,0.7,0.8c0.3,0.2,0.7,0.3,1,0.5c0.3,0.2,1,0.8,1.3,0.8
				s0.5,0.2,0.5,0.2s0.3-0.1,0.6-0.1s1.2,0.1,1.5-0.1c0.3-0.1,0.7-0.4,0.6-0.7c-0.1-0.3-0.8-0.5-0.8-0.8c0.1-0.2,0.3-0.2,0.8-0.3
				c0.4,0,1,0.1,1.1-0.5c0.1-0.6,0.1-1-0.5-1.1c-0.6-0.1-1.1-0.2-1.2-0.6c-0.1-0.4-0.2-0.6-0.1-0.7c0.1-0.1,0.4-0.2,0.8-0.2
				c0.5,0,1,0,1.1-0.1c0.1-0.1,0.2-0.4,0.3-0.5c0.2-0.1,0.9-0.2,0.9-0.2s0.8,0.4,1.6,1C160.6,134.1,161.3,134.8,161.3,134.8"/>
			<path class="st30" d="M153,138.5c0,0-0.5,0.1-0.6,0.4c-0.2,0.3-0.2,0.6-0.2,0.6s0.4-0.3,0.9-0.2c0.5,0.1,0.5,0.2,0.8,0.2
				c0.2,0,0.7-0.2,0.7-0.2s-0.4,0.5-0.4,0.8c0,0.3,0.1,0.5,0.1,0.7c0,0.4-0.3,0.9-0.3,0.9s0.2-0.1,0.6-0.2c0.4-0.1,0.8-0.3,1-0.5
				c0.2-0.2,0.5-0.6,0.5-0.6s-0.1,0.6,0,0.8c0.1,0.3,0.1,1,0.1,1s0.3-0.2,0.5-0.4c0.1-0.1,0.4-0.2,0.5-0.4c0.1-0.1,0.2-0.6,0.2-0.6
				s0.1,0.5,0.2,0.8c0.2,0.2,0.4,1,0.4,1s0.2-0.5,0.3-0.7s0.4-0.5,0.4-0.6c0-0.2,0-0.5,0-0.5l0.2,0.5 M152.4,141.6
				c0,0,0.3-0.5,0.5-0.6c0.3-0.1,0.6-0.4,0.7-0.5c0.1,0,0.5-0.3,0.5-0.3 M154.7,143.2c0,0,0.6-0.3,0.8-0.4c0.4-0.2,0.7-0.6,0.7-0.6"
				/>
			<path class="st6" d="M160.8,137.1c0,0-0.2-0.3-0.2-0.4c-0.1-0.1-0.1-0.3-0.1-0.3"/>
			<path class="st30" d="M158.4,146.4c0,0,1.2,0.7,1.1,1.3c0,0.6-0.6,1.4-0.6,1.4"/>
		</g>
		<path class="st64" d="M155.3,134.4c0,0-0.1-0.3-0.1-0.4c0-0.1-0.1-0.2-0.1-0.2s0.5,0,0.5,0.2c0,0.2-0.2,0.2-0.2,0.2
			C155.4,134.3,155.3,134.4,155.3,134.4L155.3,134.4z"/>
		<path class="st65" d="M157.6,133.6l0-0.2c0,0,0.4,0,0.6,0.1c0.3,0.2,0.5,0.6,0.5,0.6c-0.1,0.1-0.3-0.2-0.5-0.2c0,0-0.1,0-0.3,0
			c-0.1,0-0.2-0.1-0.2-0.1c0-0.1,0-0.2,0-0.2L157.6,133.6z"/>
		<path class="st64" d="M155.4,136.6l0.2-0.3l0.2,0.3L155.4,136.6 M155.8,136.6l0.2-0.3l0.2,0.3L155.8,136.6 M155.6,134.7l0.5,0.2
			l-0.4,0.2L155.6,134.7 M156.2,134.9l0.4,0.1l-0.3,0.3L156.2,134.9"/>
		<path class="st62" d="M149,134.3c0,0,0.3,0.2,0.5,0.2c0.2,0,0.4,0,0.5,0c0,0,0.1-0.3,0.1-0.5c-0.1-0.7-0.7-0.8-0.7-0.8
			s0.2,0.4,0.1,0.6C149.2,134.1,149,134.3,149,134.3L149,134.3z M147.7,134.9c0,0-0.2-0.4-0.8-0.4c-0.5,0.1-0.9,0.5-0.9,0.5
			s0.6,0,0.7,0.1c0.2,0.1,0.3,0.5,0.3,0.5s0.3-0.2,0.4-0.3C147.6,135.1,147.7,134.9,147.7,134.9L147.7,134.9z M147.1,136.7
			c0,0-0.4,0.1-0.7,0.3c-0.2,0.3-0.2,0.8-0.2,0.8s0.3-0.3,0.5-0.3c0.3,0,0.7,0.1,0.7,0.1s-0.1-0.3-0.1-0.5S147.1,136.7,147.1,136.7
			L147.1,136.7z M148.5,142.4c0,0-0.2-0.3-0.7-0.2c-0.4,0.1-0.7,0.6-0.7,0.6s0.4-0.1,0.6,0c0.2,0,0.4,0.3,0.4,0.3s0.2-0.2,0.3-0.3
			C148.4,142.7,148.5,142.4,148.5,142.4L148.5,142.4z M148,144.1c0,0-0.4-0.1-0.7,0.2c-0.3,0.2-0.3,0.7-0.3,0.7s0.3-0.2,0.5-0.2
			c0.2,0,0.5,0.2,0.5,0.2s0-0.3,0.1-0.4C148.2,144.4,148,144.1,148,144.1L148,144.1z M148.9,145.7c0,0,0,0.4,0.2,0.7
			c0.2,0.3,0.6,0.3,0.6,0.3s-0.1-0.3-0.2-0.5c0-0.2,0.2-0.4,0.2-0.4s-0.2-0.2-0.4-0.2C149.1,145.7,148.9,145.7,148.9,145.7
			L148.9,145.7z M153,149.7c0,0-0.3-0.4-0.7-0.4c-0.4,0-0.8,0.4-0.8,0.4s0.5,0,0.6,0.1c0.1,0.2,0.3,0.4,0.3,0.4s0.2-0.1,0.3-0.2
			C152.8,150,153,149.7,153,149.7L153,149.7z M151.8,151.3c0,0-0.5-0.1-0.8,0.2c-0.3,0.3-0.2,0.8-0.2,0.8s0.3-0.3,0.6-0.3
			c0.3,0,0.6,0.2,0.6,0.2s-0.1-0.3-0.1-0.4C151.9,151.5,151.8,151.3,151.8,151.3L151.8,151.3z M153,153c0,0-0.3,0.4-0.1,0.7
			c0.2,0.3,0.6,0.4,0.6,0.4s-0.1-0.2-0.1-0.5c0.1-0.2,0.4-0.5,0.4-0.5L153,153L153,153z M160,153.7c0,0-0.5-0.1-0.7,0
			c-0.3,0.1-0.5,0.8-0.5,0.8s0.4-0.4,0.7-0.3c0.3,0,0.5,0.2,0.5,0.2s0-0.3,0-0.4C160.1,153.8,160,153.7,160,153.7L160,153.7z
			 M160.2,155.4c0,0-0.4,0.4-0.2,0.7c0.1,0.3,0.4,0.6,0.4,0.6s0-0.5,0.1-0.6c0.2-0.2,0.6-0.2,0.6-0.2s-0.3-0.3-0.4-0.3
			C160.6,155.5,160.2,155.4,160.2,155.4z M162,155.9c0,0-0.2,0.4,0.2,0.7c0.3,0.3,0.6,0.3,0.6,0.3s-0.3-0.5-0.2-0.7
			c0.1-0.3,0.3-0.4,0.3-0.4s-0.4-0.1-0.5-0.1C162.4,155.7,162,155.9,162,155.9L162,155.9z M0,0"/>
		<g>
			<path class="st65" d="M159.7,132.8c0,0,0.1,0,0.1,0c0,0,0.1,0.1,0,0.1c0,0-0.1,0-0.1,0C159.6,132.9,159.6,132.8,159.7,132.8
				L159.7,132.8z M160.2,133.2l-0.2-0.1c0,0,0-0.1,0-0.1c0,0,0.1,0,0.1,0L160.2,133.2l0.3,0.1c0,0,0,0.1,0,0.1c0,0-0.1,0-0.1,0
				L160.2,133.2 M159.2,132.6l-0.1-0.1c0,0-0.1-0.1,0-0.1c0,0,0.1,0,0.1,0l0.1,0.1l0.1,0.1c0,0,0.1,0.1,0,0.1c0,0-0.1,0-0.1,0
				L159.2,132.6 M158.6,132.2c0,0,0.1,0,0.1,0c0,0,0.1,0.1,0,0.1c0,0-0.1,0-0.1,0S158.6,132.2,158.6,132.2L158.6,132.2z
				 M160.8,133.6c0,0,0-0.1,0-0.1c0,0-0.1,0-0.1,0c0,0,0,0.1,0,0.1C160.7,133.7,160.8,133.7,160.8,133.6L160.8,133.6z M161.1,134
				l0.1,0.1c0,0,0.1,0,0.1,0c0,0,0-0.1,0-0.1l-0.1-0.1l-0.1-0.1c0,0-0.1,0-0.1,0c0,0,0,0.1,0,0.1L161.1,134 M161.7,134.5
				c0,0,0-0.1,0-0.1c0,0-0.1,0-0.1,0c0,0,0,0.1,0,0.1C161.6,134.5,161.6,134.5,161.7,134.5z"/>
			<path class="st3" d="M160.1,131.1l-0.3,0l-0.1,0.5l0,0.1l0.1,0l0.4-0.3L160.1,131.1"/>
			<path class="st3" d="M160.1,131.1l-0.3,0l-0.1,0.5l0,0.1l0.1,0l0.4-0.3L160.1,131.1"/>
			<path class="st3" d="M159.2,131.3l0,0.3l0.5,0.1l0.1,0l0-0.1l-0.3-0.4L159.2,131.3"/>
			<path class="st3" d="M160.3,131.9l-0.3,0.2l-0.3-0.4l0-0.1l0.1,0l0.5,0.1L160.3,131.9"/>
			<path class="st3" d="M0,0"/>
			<path class="st3" d="M159,131.2l-0.2,0.2l-0.4-0.3l0,0l0-0.1l0.5,0L159,131.2"/>
			<path class="st3" d="M158.3,131c0-0.1,0.1-0.1,0.2-0.1c0.1,0,0.1,0.1,0.1,0.2s-0.1,0.1-0.2,0.1
				C158.3,131.2,158.3,131.1,158.3,131z M161.4,131.9l-0.3,0l-0.1,0.5l0,0.1l0.1,0l0.5-0.2L161.4,131.9"/>
			<path class="st3" d="M160.4,132l-0.1,0.3l0.5,0.1l0.1,0l0-0.1l-0.2-0.4L160.4,132"/>
			<path class="st3" d="M161.4,132.8l-0.3,0.1l-0.2-0.4l0-0.1l0.1,0l0.5,0.1L161.4,132.8"/>
			<path class="st3" d="M0,0"/>
			<path class="st3" d="M162.4,133.8l-0.3,0.1l-0.2-0.5l0-0.1l0.1,0l0.5,0.2L162.4,133.8"/>
			<path class="st3" d="M161.6,132.9l-0.1,0.3l0.5,0.2l0.1,0l0-0.1l-0.2-0.5L161.6,132.9"/>
			<path class="st3" d="M0,0"/>
			<path class="st3" d="M162.6,134l-0.2,0.3l0.4,0.3l0.1,0l0.1,0l-0.1-0.5L162.6,134"/>
			<path class="st3" d="M162.9,134.6c0.1,0,0.1-0.1,0.1-0.2c0-0.1-0.1-0.1-0.2,0s-0.1,0.1-0.1,0.2
				C162.8,134.6,162.8,134.6,162.9,134.6z"/>
		</g>
		<g>
			<ellipse class="st66" cx="142.5" cy="159.9" rx="9.3" ry="10.4"/>
			<ellipse class="st67" cx="142.5" cy="159.8" rx="6.5" ry="7.6"/>
			<g id="f">
				<path class="st68" d="M139.4,154.6c0,0-0.8,0.8-0.8,1.6c0,0.8,0.3,1.4,0.3,1.4c-0.1-0.3-0.4-0.5-0.8-0.5c-0.5,0-0.9,0.4-0.9,0.8
					c0,0.1,0.1,0.3,0.1,0.4l0.3,0.6c0.1-0.2,0.3-0.3,0.6-0.3c0.3,0,0.6,0.3,0.6,0.6c0,0.1,0,0.1,0,0.1l-0.7,0v0.6h0.6l-0.5,0.9
					l0.6-0.2l0.5,0.5l0.5-0.5l0.6,0.2l-0.5-0.9h0.6v-0.6l-0.7,0c0,0,0-0.1,0-0.1c0-0.3,0.3-0.6,0.6-0.6c0.3,0,0.5,0.1,0.6,0.3
					l0.3-0.6c0.1-0.1,0.1-0.3,0.1-0.4c0-0.4-0.4-0.8-0.8-0.8c-0.4,0-0.7,0.2-0.8,0.5c0,0,0.3-0.7,0.3-1.4
					C140.2,155.4,139.4,154.6,139.4,154.6L139.4,154.6z"/>
				<path class="st69" d="M138.2,159.9h2.5v-0.6h-2.5V159.9z"/>
			</g>
			<g>
				<g id="f_00000179634539760788916250000013926721396622738616_">
					<path class="st68" d="M145.5,154.6c0,0-0.8,0.8-0.8,1.6c0,0.8,0.3,1.4,0.3,1.4c-0.1-0.3-0.4-0.5-0.8-0.5
						c-0.5,0-0.9,0.4-0.9,0.8c0,0.1,0.1,0.3,0.1,0.4l0.3,0.6c0.1-0.2,0.3-0.3,0.6-0.3c0.3,0,0.6,0.3,0.6,0.6c0,0.1,0,0.1,0,0.1
						l-0.7,0v0.6h0.6l-0.5,0.9l0.6-0.2l0.5,0.5l0.5-0.5l0.6,0.2l-0.5-0.9h0.6v-0.6l-0.7,0c0,0,0-0.1,0-0.1c0-0.3,0.3-0.6,0.6-0.6
						c0.3,0,0.5,0.1,0.6,0.3l0.3-0.6c0.1-0.1,0.1-0.3,0.1-0.4c0-0.4-0.4-0.8-0.8-0.8c-0.4,0-0.7,0.2-0.8,0.5c0,0,0.3-0.7,0.3-1.4
						C146.2,155.4,145.5,154.6,145.5,154.6L145.5,154.6z"/>
					<path class="st69" d="M144.2,159.9h2.5v-0.6h-2.5V159.9z"/>
				</g>
			</g>
			<g>
				<g id="f_00000153677613155300449910000006549208745452449721_">
					<path class="st68" d="M142.4,159.8c0,0-0.8,0.8-0.8,1.6c0,0.8,0.3,1.4,0.3,1.4c-0.1-0.3-0.4-0.5-0.8-0.5
						c-0.5,0-0.9,0.4-0.9,0.8c0,0.1,0.1,0.3,0.1,0.4l0.3,0.6c0.1-0.2,0.3-0.3,0.6-0.3c0.3,0,0.6,0.3,0.6,0.6c0,0.1,0,0.1,0,0.1
						l-0.7,0v0.6h0.6l-0.5,0.9l0.6-0.2l0.5,0.5l0.5-0.5l0.6,0.2l-0.5-0.9h0.6v-0.6l-0.7,0c0,0,0-0.1,0-0.1c0-0.3,0.3-0.6,0.6-0.6
						c0.3,0,0.5,0.1,0.6,0.3l0.3-0.6c0.1-0.1,0.1-0.3,0.1-0.4c0-0.4-0.4-0.8-0.8-0.8c-0.4,0-0.7,0.2-0.8,0.5c0,0,0.3-0.7,0.3-1.4
						C143.2,160.6,142.4,159.8,142.4,159.8L142.4,159.8z"/>
					<path class="st69" d="M141.2,165.1h2.5v-0.6h-2.5V165.1z"/>
				</g>
			</g>
		</g>
	</g>
</g>
</svg>
