<?xml version="1.0" encoding="utf-8"?>
<!-- Generator: Adobe Illustrator 26.3.1, SVG Export Plug-In . SVG Version: 6.00 Build 0)  -->
<svg version="1.1" id="图层_1" xmlns="http://www.w3.org/2000/svg" xmlns:xlink="http://www.w3.org/1999/xlink" x="0px" y="0px"
	 viewBox="0 0 354.3 283.5" style="enable-background:new 0 0 354.3 283.5;" xml:space="preserve">
<style type="text/css">
	.st0{fill:#FF9933;}
	.st1{fill:#FFFFFF;}
	.st2{fill:#128807;}
	.st3{fill:#000088;}
</style>
<path class="st0" d="M0,1.3h354.3v93.9H0V1.3z"/>
<path class="st1" d="M0,95.3h354.3v93.9H0V95.3z"/>
<path class="st2" d="M0,189.2h354.3v93.9H0V189.2z"/>
<g transform="translate(450 300)">
	<circle class="st3" cx="-272" cy="-157.7" r="43.4"/>
	<circle class="st1" cx="-272" cy="-157.7" r="37.6"/>
	<circle class="st3" cx="-272" cy="-157.7" r="7.5"/>
	<g id="d">
		<g id="c">
			<g id="b">
				<g id="a">
					<circle class="st3" cx="-234.7" cy="-152.8" r="1.6"/>
					<path class="st3" d="M-272-120.2l1.4-22.5l-0.9-7.5v-0.5h-0.9v0.5l-0.9,7.5L-272-120.2z"/>
				</g>
				<g transform="rotate(15)">
					<g id="a_00000151522360924363904340000008623205545462036869_">
						<circle class="st3" cx="-237.3" cy="-143.4" r="1.6"/>
						<path class="st3" d="M-281.7-121.5l7.2-21.4l1-7.5l0.1-0.4l-0.9-0.2l-0.1,0.4l-2.9,7L-281.7-121.5z"/>
					</g>
				</g>
			</g>
			<g transform="rotate(30)">
				<g id="b_00000096779132089944787360000017930180154479365793_">
					<g id="a_00000034079939790797564370000005021393668604973698_">
						<circle class="st3" cx="-242.2" cy="-134.9" r="1.6"/>
						<path class="st3" d="M-290.8-125.2l12.5-18.8l3-7l0.2-0.4l-0.8-0.5l-0.2,0.4l-4.6,6.1L-290.8-125.2z"/>
					</g>
					<g transform="rotate(15)">
						<g id="a_00000149344141491613759910000016579198585389664900_">
							<circle class="st3" cx="-249.1" cy="-127.9" r="1.6"/>
							<path class="st3" d="M-298.6-131.2l16.9-14.9l4.7-6l0.3-0.3l-0.7-0.7l-0.3,0.3l-6,4.7L-298.6-131.2z"/>
						</g>
					</g>
				</g>
			</g>
		</g>
		<g transform="rotate(60)">
			<g id="c_00000121265133333155586090000002499322149897440190_">
				<g id="b_00000048463244974518755470000001125796097099831735_">
					<g id="a_00000095337512972910385000000009355093433253199272_">
						<circle class="st3" cx="-257.6" cy="-123" r="1.6"/>
						<path class="st3" d="M-304.5-139l20.2-10.1l6.1-4.6l0.4-0.2l-0.5-0.8l-0.4,0.2l-7,3L-304.5-139z"/>
					</g>
					<g transform="rotate(15)">
						<g id="a_00000116194578370987855780000011723242736121774209_">
							<circle class="st3" cx="-267.1" cy="-120.5" r="1.6"/>
							<path class="st3" d="M-308.3-148l22.1-4.5l7-2.9l0.4-0.1l-0.2-0.9l-0.4,0.1l-7.5,1L-308.3-148z"/>
						</g>
					</g>
				</g>
				<g transform="rotate(30)">
					<g id="b_00000138534717002028820300000012447903736157426309_">
						<g id="a_00000139291899655252837650000001724006633663053954_">
							<circle class="st3" cx="-276.9" cy="-120.5" r="1.6"/>
							<path class="st3" d="M-309.6-157.7l22.5,1.4l7.5-0.9h0.5v-0.9h-0.5l-7.5-0.9L-309.6-157.7z"/>
						</g>
						<g transform="rotate(15)">
							<g id="a_00000089543977215520205150000002719414368079653037_">
								<circle class="st3" cx="-286.4" cy="-123" r="1.6"/>
								<path class="st3" d="M-308.3-167.5l21.4,7.2l7.5,1l0.4,0.1l0.2-0.9l-0.4-0.1l-7-2.9L-308.3-167.5z"/>
							</g>
						</g>
					</g>
				</g>
			</g>
		</g>
	</g>
	<g transform="rotate(120)">
		<g id="d_00000057108311962977845360000008897711008727262114_">
			<g id="c_00000042716731148227904670000009439816412824525711_">
				<g id="b_00000183250700538383413370000005764616312849316243_">
					<g id="a_00000045613154729941901390000003524232712761764285_">
						<circle class="st3" cx="-294.9" cy="-127.9" r="1.6"/>
						<path class="st3" d="M-304.5-176.5l18.8,12.5l7,3l0.4,0.2l0.5-0.8l-0.4-0.2l-6.1-4.6L-304.5-176.5z"/>
					</g>
					<g transform="rotate(15)">
						<g id="a_00000035490559013183388010000007437521140927145151_">
							<circle class="st3" cx="-301.8" cy="-134.9" r="1.6"/>
							<path class="st3" d="M-298.6-184.3l14.9,16.9l6,4.7l0.3,0.3l0.7-0.7l-0.3-0.3l-4.7-6L-298.6-184.3z"/>
						</g>
					</g>
				</g>
				<g transform="rotate(30)">
					<g id="b_00000141436863794276611780000000949309678884699303_">
						<g id="a_00000123431117066946221130000000230972360435984063_">
							<circle class="st3" cx="-306.7" cy="-143.4" r="1.6"/>
							<path class="st3" d="M-290.8-190.3l10.1,20.2l4.6,6.1l0.2,0.4l0.8-0.5l-0.2-0.4l-3-7L-290.8-190.3z"/>
						</g>
						<g transform="rotate(15)">
							<g id="a_00000182504731538006527750000015702998420101214118_">
								<circle class="st3" cx="-309.2" cy="-152.8" r="1.6"/>
								<path class="st3" d="M-281.7-194l4.5,22.1l2.9,7l0.1,0.4l0.9-0.2l-0.1-0.4l-1-7.5L-281.7-194z"/>
							</g>
						</g>
					</g>
				</g>
			</g>
			<g transform="rotate(60)">
				<g id="c_00000110466869152702044230000014451704093641405373_">
					<g id="b_00000169554297920122087730000014181958562753417602_">
						<g id="a_00000165207230696662394410000013674416277257148577_">
							<circle class="st3" cx="-309.2" cy="-162.7" r="1.6"/>
							<path class="st3" d="M-272-195.3l-1.4,22.5l0.9,7.5v0.5h0.9v-0.5l0.9-7.5L-272-195.3z"/>
						</g>
						<g transform="rotate(15)">
							<g id="a_00000054246196813953524230000013810284846497134465_">
								<circle class="st3" cx="-306.7" cy="-172.1" r="1.6"/>
								<path class="st3" d="M-262.3-194l-7.2,21.4l-1,7.5l-0.1,0.4l0.9,0.2l0.1-0.4l2.9-7L-262.3-194z"/>
							</g>
						</g>
					</g>
					<g transform="rotate(30)">
						<g id="b_00000043420265023479367690000000471045572074643073_">
							<g id="a_00000081630412549373868690000000461793490419861937_">
								<circle class="st3" cx="-301.8" cy="-180.6" r="1.6"/>
								<path class="st3" d="M-253.2-190.3l-12.5,18.8l-3,7l-0.2,0.4l0.8,0.5l0.2-0.4l4.6-6.1L-253.2-190.3z"/>
							</g>
							<g transform="rotate(15)">
								<g id="a_00000006687869402737917250000009387871435955290031_">
									<circle class="st3" cx="-294.9" cy="-187.6" r="1.6"/>
									<path class="st3" d="M-245.4-184.3l-16.9,14.9l-4.7,6l-0.3,0.3l0.7,0.7l0.3-0.3l6-4.7L-245.4-184.3z"/>
								</g>
							</g>
						</g>
					</g>
				</g>
			</g>
		</g>
	</g>
	<g transform="rotate(-120)">
		<g id="d_00000041989479497487493490000007181204668500323716_">
			<g id="c_00000152266530572016038700000008328353144459960468_">
				<g id="b_00000021816975082557255310000015613915231382123183_">
					<g id="a_00000025420517980239913840000012106190369590334093_">
						<circle class="st3" cx="-286.4" cy="-192.5" r="1.6"/>
						<path class="st3" d="M-239.4-176.5l-20.2,10.1l-6.1,4.6l-0.4,0.2l0.5,0.8l0.4-0.2l7-3L-239.4-176.5z"/>
					</g>
					<g transform="rotate(15)">
						<g id="a_00000146490981980841003210000016394464851058362798_">
							<circle class="st3" cx="-276.9" cy="-195" r="1.6"/>
							<path class="st3" d="M-235.7-167.5l-22.1,4.5l-7,2.9l-0.4,0.1l0.2,0.9l0.4-0.1l7.5-1L-235.7-167.5z"/>
						</g>
					</g>
				</g>
				<g transform="rotate(30)">
					<g id="b_00000023962122624423308140000014390971833979124415_">
						<g id="a_00000174567843192820901210000012980771837726655137_">
							<circle class="st3" cx="-267.1" cy="-195" r="1.6"/>
							<path class="st3" d="M-234.4-157.7l-22.5-1.4l-7.5,0.9h-0.5v0.9h0.5l7.5,0.9L-234.4-157.7z"/>
						</g>
						<g transform="rotate(15)">
							<g id="a_00000011710565255840015600000001629914131522457989_">
								<circle class="st3" cx="-257.6" cy="-192.5" r="1.6"/>
								<path class="st3" d="M-235.7-148l-21.4-7.2l-7.5-1l-0.4-0.1l-0.2,0.9l0.4,0.1l7,2.9L-235.7-148z"/>
							</g>
						</g>
					</g>
				</g>
			</g>
			<g transform="rotate(60)">
				<g id="c_00000146501043860253014290000011344366590239894945_">
					<g id="b_00000146464863512277256970000008348447234021352380_">
						<g id="a_00000181050457178970438410000016221747187636242332_">
							<circle class="st3" cx="-249.1" cy="-187.6" r="1.6"/>
							<path class="st3" d="M-239.4-139l-18.8-12.5l-7-3l-0.4-0.2l-0.5,0.8l0.4,0.2l6.1,4.6L-239.4-139z"/>
						</g>
						<g transform="rotate(15)">
							<g id="a_00000178206651063500639270000014990826320257759622_">
								<circle class="st3" cx="-242.2" cy="-180.6" r="1.6"/>
								<path class="st3" d="M-245.4-131.2l-14.9-16.9l-6-4.7l-0.3-0.3l-0.7,0.7l0.3,0.3l4.7,6L-245.4-131.2z"/>
							</g>
						</g>
					</g>
					<g transform="rotate(30)">
						<g id="b_00000079453756497806687970000005872347752192724669_">
							<g id="a_00000064319911684832507040000003788588637712445882_">
								<circle class="st3" cx="-237.3" cy="-172.1" r="1.6"/>
								<path class="st3" d="M-253.2-125.2l-10.1-20.2l-4.6-6.1l-0.2-0.4l-0.8,0.5l0.2,0.4l3,7L-253.2-125.2z"/>
							</g>
							<g transform="rotate(15)">
								<g id="a_00000045601244842098310540000017962865213233546936_">
									<circle class="st3" cx="-234.7" cy="-162.7" r="1.6"/>
									<path class="st3" d="M-262.3-121.5l-4.5-22.1l-2.9-7l-0.1-0.4l-0.9,0.2l0.1,0.4l1,7.5L-262.3-121.5z"/>
								</g>
							</g>
						</g>
					</g>
				</g>
			</g>
		</g>
	</g>
</g>
</svg>
