<?xml version="1.0" encoding="utf-8"?>
<!-- Generator: Adobe Illustrator 26.3.1, SVG Export Plug-In . SVG Version: 6.00 Build 0)  -->
<svg version="1.1" id="图层_1" xmlns="http://www.w3.org/2000/svg" xmlns:xlink="http://www.w3.org/1999/xlink" x="0px" y="0px"
	 viewBox="0 0 354.3 283.5" style="enable-background:new 0 0 354.3 283.5;" xml:space="preserve">
<style type="text/css">
	.st0{fill:#FF0000;}
	.st1{fill:#006600;}
	
		.st2{fill-rule:evenodd;clip-rule:evenodd;fill:#FFFF00;stroke:#000000;stroke-width:0.573;stroke-linecap:round;stroke-linejoin:round;}
	
		.st3{fill-rule:evenodd;clip-rule:evenodd;fill:#FFFF00;stroke:#000000;stroke-width:0.55;stroke-linecap:round;stroke-linejoin:round;}
	.st4{fill:#FFFFFF;stroke:#000000;stroke-width:0.67;}
	.st5{fill:#FF0000;stroke:#000000;stroke-width:0.507;}
	.st6{fill:#FFFF00;}
	.st7{fill:#FFFF00;stroke:#000000;stroke-width:0.5;}
	.st8{fill:#003399;}
	.st9{fill:#FFFFFF;}
</style>
<path class="st0" d="M0,0h354.3v283.5H0V0z"/>
<path class="st1" d="M0,0h141.7v283.5H0V0z"/>
<g>
	<path class="st2" d="M187.9,173.2c-17.8-0.5-99.6-51.6-100.2-59.7l4.5-7.5c8.1,11.8,91.7,61.5,100,59.7L187.9,173.2"/>
	<path class="st2" d="M91.3,104.9c-1.6,4.3,21.3,18.5,49,35.3c27.6,16.8,51.4,27.2,53.2,25.7c0.1-0.2,0.9-1.5,0.8-1.5
		c-0.3,0.5-1.1,0.7-2.4,0.3c-7.5-2.2-26.9-11.1-51-25.7c-24.1-14.6-45.1-28.1-48.3-33.8c-0.2-0.4-0.4-1.1-0.4-1.7l-0.1,0l-0.7,1.2
		L91.3,104.9L91.3,104.9L91.3,104.9z M188.4,173.5c-0.3,0.5-0.9,0.6-1.9,0.4c-6.7-0.7-26.9-10.6-50.9-24.9
		c-27.9-16.7-50.9-31.9-48.4-35.9l0.7-1.2l0.1,0c-2.2,6.7,45.4,34,48.2,35.7c27.6,17.1,50.9,27.1,52.9,24.5L188.4,173.5L188.4,173.5
		L188.4,173.5z"/>
	<path class="st2" d="M141.8,118.4c17.9-0.1,39.9-2.4,52.6-7.5l-2.7-4.4c-7.5,4.1-29.7,6.9-50,7.3c-24.1-0.2-41-2.5-49.5-8.2
		l-2.6,4.7C105.2,116.9,121.2,118.4,141.8,118.4"/>
	<path class="st2" d="M195.1,111c-0.4,0.7-8.7,3.5-20.9,5.7c-8.3,1.3-19,2.3-32.5,2.3c-12.8,0-23.2-0.9-31.1-2
		c-12.8-2-19.4-4.8-21.8-5.8c0.2-0.5,0.4-0.8,0.6-1.2c7,2.8,13.7,4.5,21.4,5.7c7.8,1.1,18.2,2,30.9,2c13.4,0,24-1.2,32.3-2.4
		c12.5-2,19.3-4.6,20.3-5.8L195.1,111L195.1,111L195.1,111z M192.7,106.5c-1.4,1.1-8.1,3.5-20,5.4c-7.9,1.1-18,2.2-30.9,2.2
		c-12.2,0-22.2-0.8-29.8-1.9c-12.1-1.6-18.5-4.4-20.8-5.2c0.2-0.4,0.5-0.8,0.7-1.2c1.8,0.9,8,3.4,20.2,5.2
		c7.5,1.1,17.5,1.9,29.7,1.8c12.8,0,22.8-1,30.6-2.2c11.9-1.6,18.4-4.7,19.3-5.5L192.7,106.5L192.7,106.5L192.7,106.5z M83.2,139.9
		c11,5.9,35.4,8.9,58.5,9.1c21,0,48.4-3.2,58.6-8.7l-0.3-5.9c-3.2,5-32.5,9.8-58.6,9.6c-26-0.2-50.2-4.2-58.3-9.4L83.2,139.9"/>
	<path class="st2" d="M200.9,139.1v1.4c-1.5,1.8-11.2,4.6-23.3,6.6c-9.2,1.4-21.2,2.5-36.2,2.5c-14.2,0-25.5-1-34.3-2.4
		c-13.9-2-22.8-5.6-24.6-6.6l0-1.6c5.4,3.6,19.9,6.2,24.8,7c8.7,1.3,20,2.3,34.1,2.3c14.9,0,26.8-1.1,36-2.5
		C186.1,144.5,198.4,141.3,200.9,139.1L200.9,139.1L200.9,139.1z M200.9,134.1v1.4c-1.5,1.8-11.2,4.6-23.3,6.6
		c-9.2,1.4-21.2,2.5-36.2,2.5c-14.2,0-25.5-1-34.3-2.4c-13.9-2-22.8-5.6-24.6-6.6l0-1.6c5.4,3.6,19.9,6.2,24.8,7
		c8.7,1.3,20,2.3,34.1,2.3c14.9,0,26.8-1.1,36-2.5C186.1,139.5,198.4,136.2,200.9,134.1L200.9,134.1L200.9,134.1z M141.6,172.2
		c-25.3-0.2-46.9-6.9-51.5-8l3.3,5.2c8.1,3.4,29.2,8.5,48.4,7.9c19.2-0.6,36-2,47.8-7.8l3.4-5.4C185,167.9,157.6,172.2,141.6,172.2"
		/>
	<path class="st3" d="M190.9,168.3c-0.5,0.8-1,1.5-1.5,2.3c-5.6,2-14.4,4-18.1,4.6c-7.6,1.6-19.3,2.7-29.7,2.7
		c-22.4-0.3-40.7-4.7-49.3-8.4l-0.7-1.2l0.1-0.2l1.2,0.5c15.3,5.5,32.5,7.7,48.8,8.1c10.4,0,20.7-1.2,29.1-2.7
		c12.9-2.6,18.1-4.5,19.7-5.4L190.9,168.3L190.9,168.3L190.9,168.3z M193.9,163.4L193.9,163.4c-0.3,0.7-0.7,1.3-1.1,2
		c-3,1.1-11,3.4-22.8,5.1c-7.8,1.1-12.6,2.1-28,2.4c-28.9-0.7-47.7-6.4-52.1-7.8l-0.7-1.3c16.8,4.4,33.9,7.4,52.8,7.7
		c14.1-0.3,20.1-1.3,27.8-2.4c13.7-2.1,20.7-4.4,22.7-5.1c0,0-0.1-0.1-0.1-0.1L193.9,163.4L193.9,163.4L193.9,163.4z"/>
	<path class="st2" d="M194.2,135.3c0.1,16.6-8.4,31.5-15.3,38.1c-9.7,9.3-22.5,15.3-37.5,15.6c-16.8,0.3-32.6-10.6-36.8-15.4
		c-8.3-9.4-15-21.3-15.2-37.3c1-18.1,8.1-30.8,18.5-39.4s24.1-12.9,35.5-12.6c13.2,0.3,28.6,6.8,39.3,19.7
		C189.6,112.3,192.6,121.4,194.2,135.3L194.2,135.3z M141.5,78.4c32.2,0,58.6,26.2,58.6,58.3c0,32.1-26.5,58.3-58.6,58.3
		s-58.4-26.2-58.4-58.3S109.3,78.4,141.5,78.4"/>
	<path class="st2" d="M141.7,78.2c32.2,0,58.5,26.3,58.5,58.5c0,32.2-26.3,58.5-58.5,58.5c-32.2,0-58.5-26.3-58.5-58.5
		C83.2,104.4,109.5,78.2,141.7,78.2L141.7,78.2z M84.5,136.7c0,31.5,25.8,57.2,57.2,57.2c31.4,0,57.2-25.7,57.2-57.2
		c0-31.5-25.8-57.2-57.2-57.2S84.5,105.2,84.5,136.7L84.5,136.7z"/>
	<path class="st2" d="M141.7,83c29.4,0,53.6,24.1,53.6,53.6c0,29.5-24.2,53.6-53.6,53.6s-53.6-24.1-53.6-53.6
		C88.2,107.1,112.4,83,141.7,83L141.7,83z M89.5,136.6c0,28.8,23.6,52.3,52.3,52.3s52.3-23.5,52.3-52.3c0-28.8-23.6-52.3-52.3-52.3
		C113.1,84.3,89.5,107.8,89.5,136.6L89.5,136.6z"/>
	<path class="st2" d="M144.1,77.9h-5l0,117.5h5L144.1,77.9z"/>
	<path class="st2" d="M143.6,77.3h1.3l0,118.8h-1.3L143.6,77.3L143.6,77.3z M138.6,77.3h1.3l0,118.8h-1.3L138.6,77.3L138.6,77.3z"/>
	<path class="st2" d="M200.2,138.9v-4.3l-3.5-3.3l-20.1-5.3l-28.9-3l-34.8,1.8L88,130.7l-5,3.7v4.3l12.7-5.7l30.1-4.7h28.9l21.3,2.4
		l14.8,3.5L200.2,138.9z"/>
	<path class="st2" d="M141.7,127.6c13.8,0,27.2,1.3,37.8,3.4c11,2.2,18.7,4.9,21.3,8l0,1.5c-3.2-3.8-13.6-6.6-21.6-8.2
		c-10.5-2.1-23.9-3.4-37.6-3.4c-14.5,0-28,1.4-38.4,3.4c-8.3,1.7-19.5,4.9-20.8,8.2v-1.6c0.8-2.2,9-5.6,20.7-7.9
		C113.6,129,127.1,127.6,141.7,127.6L141.7,127.6z M141.7,122.6c13.8,0,27.2,1.3,37.8,3.4c11,2.2,18.7,4.9,21.3,8l0,1.5
		c-3.2-3.8-13.6-6.6-21.6-8.2c-10.5-2.1-23.9-3.4-37.6-3.4c-14.5,0-27.9,1.4-38.3,3.4c-8,1.5-19.6,4.9-20.9,8.2v-1.6
		c0.8-2.2,9.2-5.7,20.7-7.9C113.6,124,127.1,122.6,141.7,122.6L141.7,122.6z M141.4,97c21.8-0.1,40.7,3,49.4,7.5l3.2,5.5
		c-7.5-4.1-28-8.3-52.6-7.7c-20,0.1-41.4,2.2-52.1,7.9l3.8-6.3C102,99.3,122.7,97,141.4,97"/>
	<path class="st2" d="M141.7,101.5c12.4,0,24.4,0.7,33.9,2.4c8.9,1.7,17.4,4.1,18.6,5.5l0.9,1.7c-2.9-1.9-10.3-4.1-19.7-5.8
		c-9.5-1.8-21.4-2.4-33.8-2.3c-14,0-24.9,0.7-34.2,2.3c-9.9,1.8-16.7,4.5-18.4,5.7l0.9-1.8c3.3-1.7,8.5-3.7,17.3-5.3
		C116.9,102.1,127.9,101.6,141.7,101.5L141.7,101.5L141.7,101.5z M141.7,96.5c11.9,0,23.6,0.6,32.7,2.3c7.2,1.4,14.3,3.6,17,5.5
		l1.4,2.2c-2.3-2.6-11.1-5.1-18.9-6.4c-9.1-1.6-20.3-2.2-32.2-2.3c-12.5,0-24,0.8-32.9,2.4c-8.5,1.6-14,3.5-16.4,5l1.2-1.8
		c3.2-1.7,8.4-3.2,14.9-4.5C117.6,97.3,129.2,96.5,141.7,96.5L141.7,96.5z M170.8,161c-10.8-2-21.5-2.3-29.1-2.2
		c-36.3,0.4-48,7.4-49.4,9.6l-2.7-4.4c9.2-6.7,29-10.4,52.3-10.1c12.1,0.2,22.6,1,31.4,2.7L170.8,161"/>
	<path class="st3" d="M141.5,158.1c10.1,0.2,20,0.6,29.5,2.3l-0.7,1.2c-8.9-1.6-18.3-2.3-28.8-2.2c-13.4-0.1-26.9,1.1-38.7,4.5
		c-3.7,1-9.9,3.4-10.5,5.4l-0.7-1.1c0.2-1.2,3.9-3.6,10.9-5.5C116,158.9,128.6,158.2,141.5,158.1L141.5,158.1L141.5,158.1z
		 M141.9,153c10.5,0.2,21.2,0.7,31.7,2.8l-0.7,1.3c-9.5-1.9-18.5-2.5-31-2.7c-13.4,0-27.7,1-40.6,4.7c-4.2,1.2-11.4,3.9-11.6,5.9
		l-0.7-1.2c0.2-1.9,6.4-4.4,12-6C114.1,154,128.4,153.1,141.9,153L141.9,153z"/>
	<path class="st2" d="M193.5,164.6l-4.4,6.8l-12.5-11.1l-32.5-21.9l-36.6-20.1l-19-6.5l4.1-7.5l1.4-0.8l11.8,3l39,20.1l22.4,14.2
		l18.9,13.6l7.7,8.9L193.5,164.6z"/>
	<path class="st2" d="M87.8,112c3.3-2.3,27.8,8.7,53.5,24.1c25.6,15.5,50,33,47.8,36.3l-0.7,1.1l-0.3,0.3c0.1-0.1,0.4-0.5,0-1.7
		c-1.1-3.6-18.4-17.4-47.2-34.8c-28-16.7-51.4-26.8-53.7-23.9L87.8,112L87.8,112L87.8,112z M194.3,164.5c2.1-4.2-20.6-21.3-48.8-38
		c-28.8-16.3-49.6-26-53.4-23.1l-0.8,1.5c0,0.1,0-0.1,0.2-0.2c0.7-0.6,1.8-0.6,2.3-0.6c6.5,0.1,25.2,8.7,51.4,23.7
		c11.5,6.7,48.5,30.4,48.3,37.1c0,0.6,0,0.7-0.2,1L194.3,164.5L194.3,164.5L194.3,164.5z"/>
</g>
<g transform="translate(0 -.172)">
	<path class="st4" d="M106.7,143.3c0,9.6,3.9,18.3,10.3,24.7c6.4,6.4,15.1,10.4,24.7,10.4c9.7,0,18.5-3.9,24.8-10.3
		c6.4-6.3,10.3-15.1,10.3-24.7h0V96.5l-70.1-0.1L106.7,143.3L106.7,143.3L106.7,143.3z"/>
	<path class="st5" d="M108,143.3L108,143.3c0,9.2,3.8,17.6,9.9,23.7c6.1,6.1,14.5,9.9,23.7,9.9c9.3,0,17.7-3.8,23.8-9.8
		c6.1-6.1,9.9-14.4,9.9-23.6h0V98L108,98L108,143.3 M161.7,111.6l0,28.9l0,3.1l0,0c0,0.8,0,1.7-0.1,2.5c-0.5,4.6-2.6,8.5-5.8,11.6
		c-3.6,3.6-8.7,5.9-14.2,5.9c-5.5,0-10.4-2.3-14.1-6c-3.7-3.7-5.9-8.9-5.9-14.1l0-31.9L161.7,111.6L161.7,111.6L161.7,111.6z"/>
	<g id="e">
		<g id="d">
			<path class="st6" d="M112.3,109.9c0.1-3.3,2.4-4,2.4-4c0,0,2.5,0.8,2.5,4.1L112.3,109.9"/>
			<path class="st7" d="M110.3,105.9l-0.4,3.7l2.4,0c0-3.1,2.3-3.6,2.4-3.6c0.1,0,2.4,0.7,2.4,3.6h2.5l-0.4-3.8L110.3,105.9
				L110.3,105.9z M109.8,109.6h10c0.2,0,0.4,0.2,0.4,0.5c0,0.3-0.2,0.5-0.4,0.5h-10c-0.2,0-0.4-0.2-0.4-0.5
				C109.4,109.8,109.5,109.6,109.8,109.6L109.8,109.6z"/>
			<path class="st7" d="M113.4,109.6c0-2,1.3-2.5,1.3-2.5c0,0,1.4,0.6,1.4,2.5H113.4 M110,104.3h9.6c0.2,0,0.4,0.2,0.4,0.4
				c0,0.2-0.2,0.4-0.4,0.4H110c-0.2,0-0.4-0.2-0.4-0.4C109.6,104.5,109.8,104.3,110,104.3L110,104.3z M110.2,105.1h9.2
				c0.2,0,0.4,0.2,0.4,0.4c0,0.2-0.2,0.4-0.4,0.4h-9.2c-0.2,0-0.4-0.2-0.4-0.4C109.8,105.3,110,105.1,110.2,105.1L110.2,105.1z
				 M113.1,98.9l0.7,0v0.5h0.5v-0.5l0.7,0v0.5h0.5v-0.5h0.7l0,1.2c0,0.2-0.1,0.3-0.3,0.3h-2.6c-0.2,0-0.3-0.1-0.3-0.3L113.1,98.9
				L113.1,98.9L113.1,98.9z M115.9,100.5l0.2,3.8l-2.5,0l0.2-3.8L115.9,100.5"/>
			<path id="a" class="st7" d="M112.8,102.3l0.1,2.1l-2.4,0l0.1-2.1H112.8L112.8,102.3L112.8,102.3z"/>
			<g>
				<path id="a_00000121997648016988433640000016922627949075187899_" class="st7" d="M119,102.3l0.1,2.1l-2.4,0l0.1-2.1H119
					L119,102.3L119,102.3z"/>
			</g>
			<path id="b" class="st7" d="M110,100.8l0.7,0v0.5h0.5v-0.5l0.7,0v0.5h0.5v-0.5l0.7,0l0,1.2c0,0.2-0.1,0.3-0.3,0.3h-2.5
				c-0.2,0-0.3-0.1-0.3-0.3L110,100.8L110,100.8L110,100.8z"/>
			<g>
				<path id="b_00000150085485780553343860000003787476773607447736_" class="st7" d="M116.3,100.8l0.7,0v0.5h0.5v-0.5l0.7,0v0.5
					h0.5v-0.5l0.7,0l0,1.2c0,0.2-0.1,0.3-0.3,0.3h-2.5c-0.2,0-0.3-0.1-0.3-0.3L116.3,100.8L116.3,100.8L116.3,100.8z"/>
			</g>
			<path d="M114.5,101.7c0-0.4,0.5-0.4,0.5,0v0.9h-0.5V101.7"/>
			<path id="c" d="M111.4,103c0-0.4,0.5-0.4,0.5,0v0.7h-0.5V103"/>
			<g>
				<path id="c_00000152967196643441294510000015466828515197005712_" d="M117.6,103c0-0.4,0.5-0.4,0.5,0v0.7h-0.5V103"/>
			</g>
		</g>
		<g>
			<g id="d_00000119092375411611073590000016518668315028782262_">
				<path class="st6" d="M112.3,137.2c0.1-3.3,2.4-4,2.4-4c0,0,2.5,0.8,2.5,4.1L112.3,137.2"/>
				<path class="st7" d="M110.3,133.2l-0.4,3.7l2.4,0c0-3.1,2.3-3.6,2.4-3.6c0.1,0,2.4,0.7,2.4,3.6h2.5l-0.4-3.8L110.3,133.2
					L110.3,133.2z M109.8,137h10c0.2,0,0.4,0.2,0.4,0.5c0,0.3-0.2,0.5-0.4,0.5h-10c-0.2,0-0.4-0.2-0.4-0.5
					C109.4,137.2,109.5,137,109.8,137L109.8,137z"/>
				<path class="st7" d="M113.4,137c0-2,1.3-2.5,1.3-2.5c0,0,1.4,0.6,1.4,2.5H113.4 M110,131.7h9.6c0.2,0,0.4,0.2,0.4,0.4
					s-0.2,0.4-0.4,0.4H110c-0.2,0-0.4-0.2-0.4-0.4C109.6,131.9,109.8,131.7,110,131.7L110,131.7z M110.2,132.5h9.2
					c0.2,0,0.4,0.2,0.4,0.4c0,0.2-0.2,0.4-0.4,0.4h-9.2c-0.2,0-0.4-0.2-0.4-0.4C109.8,132.7,110,132.5,110.2,132.5L110.2,132.5z
					 M113.1,126.3l0.7,0v0.5h0.5v-0.5l0.7,0v0.5h0.5v-0.5h0.7l0,1.2c0,0.2-0.1,0.3-0.3,0.3h-2.6c-0.2,0-0.3-0.1-0.3-0.3L113.1,126.3
					L113.1,126.3L113.1,126.3z M115.9,127.8l0.2,3.8l-2.5,0l0.2-3.8L115.9,127.8"/>
				<path id="a_00000123421073089046530750000015528170847193610673_" class="st7" d="M112.8,129.6l0.1,2.1l-2.4,0l0.1-2.1H112.8
					L112.8,129.6L112.8,129.6z"/>
				<g>
					<path id="a_00000175286196521799506350000003186619794592514982_" class="st7" d="M119,129.6l0.1,2.1l-2.4,0l0.1-2.1H119
						L119,129.6L119,129.6z"/>
				</g>
				<path id="b_00000145770202488526320660000006792314132583537074_" class="st7" d="M110,128.1l0.7,0v0.5h0.5v-0.5l0.7,0v0.5h0.5
					v-0.5l0.7,0l0,1.2c0,0.2-0.1,0.3-0.3,0.3h-2.5c-0.2,0-0.3-0.1-0.3-0.3L110,128.1L110,128.1L110,128.1z"/>
				<g>
					<path id="b_00000051356964991584237850000006934256783525171893_" class="st7" d="M116.3,128.1l0.7,0v0.5h0.5v-0.5l0.7,0v0.5
						h0.5v-0.5l0.7,0l0,1.2c0,0.2-0.1,0.3-0.3,0.3h-2.5c-0.2,0-0.3-0.1-0.3-0.3L116.3,128.1L116.3,128.1L116.3,128.1z"/>
				</g>
				<path d="M114.5,129c0-0.4,0.5-0.4,0.5,0v0.9h-0.5V129"/>
				<path id="c_00000036953380043016698790000009420872921289222019_" d="M111.4,130.4c0-0.4,0.5-0.4,0.5,0v0.7h-0.5V130.4"/>
				<g>
					<path id="c_00000111153515586403959130000007681416771355614131_" d="M117.6,130.4c0-0.4,0.5-0.4,0.5,0v0.7h-0.5V130.4"/>
				</g>
			</g>
		</g>
		<g transform="rotate(-45.202 312.766 180.004)">
			<g id="d_00000023276465763885624370000012688209388565983676_">
				<path class="st6" d="M123,165.7c-2.3-2.4-1.2-4.5-1.2-4.6c0,0,2.4-1.2,4.6,1.1L123,165.7"/>
				<path class="st7" d="M118.8,164.3l2.4,2.9l1.7-1.7c-2.2-2.2-0.9-4.2-0.9-4.2c0,0,2.1-1.2,4.3,0.8l1.7-1.7l-3-2.3L118.8,164.3
					L118.8,164.3z M121,167.3l7.1-7.1c0.1-0.1,0.4-0.1,0.6,0.1c0.2,0.2,0.2,0.4,0.1,0.6l-7.1,7.1c-0.1,0.1-0.4,0.1-0.6-0.1
					C120.9,167.8,120.9,167.5,121,167.3L121,167.3z"/>
				<path class="st7" d="M123.6,164.7c-1.4-1.4-0.8-2.7-0.8-2.7c0,0,1.4-0.6,2.8,0.8L123.6,164.7 M117.4,163.4l6.8-6.8
					c0.1-0.1,0.4-0.1,0.6,0c0.2,0.2,0.2,0.4,0,0.6L118,164c-0.1,0.1-0.4,0.1-0.6,0C117.3,163.8,117.3,163.6,117.4,163.4L117.4,163.4
					z M118.1,163.9l6.5-6.5c0.1-0.1,0.4-0.1,0.5,0c0.2,0.2,0.2,0.4,0,0.5l-6.5,6.5c-0.1,0.1-0.4,0.1-0.5,0
					C118,164.3,118,164,118.1,163.9L118.1,163.9z M115.8,157.4l0.5-0.5l0.4,0.4l0.4-0.4l-0.4-0.4l0.5-0.5l0.4,0.4l0.4-0.4l-0.4-0.4
					l0.5-0.5l0.8,0.8c0.1,0.1,0.1,0.3,0,0.4l-1.8,1.8c-0.1,0.1-0.3,0.1-0.5,0L115.8,157.4L115.8,157.4L115.8,157.4z M118.8,156.6
					l2.8,2.6l-1.8,1.8l-2.6-2.8L118.8,156.6"/>
				<path id="a_00000022550613856730618860000010034484869804278400_" class="st7" d="M117.9,160l1.5,1.4l-1.7,1.7l-1.4-1.5
					L117.9,160L117.9,160L117.9,160z"/>
				<g>
					<path id="a_00000008129754716932048570000011988318854980277161_" class="st7" d="M122.3,155.6l1.5,1.4l-1.7,1.7l-1.4-1.5
						L122.3,155.6L122.3,155.6L122.3,155.6z"/>
				</g>
				<path id="b_00000158717536550333535260000010386974453844673724_" class="st7" d="M114.9,160.9l0.5-0.5l0.4,0.4l0.4-0.4
					l-0.4-0.4l0.5-0.5l0.4,0.4l0.4-0.4l-0.4-0.4l0.5-0.5l0.8,0.8c0.1,0.1,0.1,0.3,0,0.4l-1.8,1.8c-0.1,0.1-0.3,0.1-0.5,0
					L114.9,160.9L114.9,160.9L114.9,160.9z"/>
				<g>
					<path id="b_00000128444972613644921570000015384402036949340067_" class="st7" d="M119.3,156.5l0.5-0.5l0.4,0.4l0.4-0.4
						l-0.4-0.4l0.5-0.5l0.4,0.4l0.4-0.4l-0.4-0.4l0.5-0.5l0.8,0.8c0.1,0.1,0.1,0.3,0,0.4l-1.8,1.8c-0.1,0.1-0.3,0.1-0.5,0
						L119.3,156.5L119.3,156.5L119.3,156.5z"/>
				</g>
				<path d="M118.7,158.4c-0.3-0.2,0.1-0.6,0.4-0.4l0.6,0.6l-0.4,0.4L118.7,158.4"/>
				<path id="c_00000036972859547192880540000000451547508738244794_" d="M117.5,161.5c-0.3-0.3,0.1-0.6,0.3-0.3l0.5,0.5l-0.3,0.3
					L117.5,161.5"/>
				<g>
					<path id="c_00000137838548260726535330000002913341052414551194_" d="M121.9,157.1c-0.3-0.3,0.1-0.6,0.3-0.3l0.5,0.5l-0.3,0.3
						L121.9,157.1"/>
				</g>
			</g>
		</g>
	</g>
	<g>
		<g id="d_00000106852928027810866510000011274062298924663973_">
			<path class="st6" d="M139.3,109.9c0.1-3.3,2.4-4,2.4-4c0,0,2.5,0.8,2.5,4.1L139.3,109.9"/>
			<path class="st7" d="M137.3,105.9l-0.4,3.7l2.4,0c0-3.1,2.3-3.6,2.4-3.6c0.1,0,2.4,0.7,2.4,3.6h2.5l-0.4-3.8L137.3,105.9
				L137.3,105.9z M136.8,109.6h10c0.2,0,0.4,0.2,0.4,0.5c0,0.3-0.2,0.5-0.4,0.5h-10c-0.2,0-0.4-0.2-0.4-0.5
				C136.4,109.8,136.5,109.6,136.8,109.6L136.8,109.6z"/>
			<path class="st7" d="M140.4,109.6c0-2,1.3-2.5,1.3-2.5c0,0,1.4,0.6,1.4,2.5H140.4 M137,104.3h9.6c0.2,0,0.4,0.2,0.4,0.4
				c0,0.2-0.2,0.4-0.4,0.4H137c-0.2,0-0.4-0.2-0.4-0.4C136.6,104.5,136.8,104.3,137,104.3L137,104.3z M137.2,105.1h9.2
				c0.2,0,0.4,0.2,0.4,0.4c0,0.2-0.2,0.4-0.4,0.4h-9.2c-0.2,0-0.4-0.2-0.4-0.4C136.8,105.3,137,105.1,137.2,105.1L137.2,105.1z
				 M140.1,98.9l0.7,0v0.5h0.5v-0.5l0.7,0v0.5h0.5v-0.5h0.7l0,1.2c0,0.2-0.1,0.3-0.3,0.3h-2.6c-0.2,0-0.3-0.1-0.3-0.3L140.1,98.9
				L140.1,98.9L140.1,98.9z M142.9,100.5l0.2,3.8l-2.5,0l0.2-3.8L142.9,100.5"/>
			<path id="a_00000179647944555294857290000000250792020714569896_" class="st7" d="M139.8,102.3l0.1,2.1l-2.4,0l0.1-2.1H139.8
				L139.8,102.3L139.8,102.3z"/>
			<g>
				<path id="a_00000146462318141065977330000003613957761961005980_" class="st7" d="M146,102.3l0.1,2.1l-2.4,0l0.1-2.1H146
					L146,102.3L146,102.3z"/>
			</g>
			<path id="b_00000025417433659444405950000003283764023983152299_" class="st7" d="M137,100.8l0.7,0v0.5h0.5v-0.5l0.7,0v0.5h0.5
				v-0.5l0.7,0l0,1.2c0,0.2-0.1,0.3-0.3,0.3h-2.5c-0.2,0-0.3-0.1-0.3-0.3L137,100.8L137,100.8L137,100.8z"/>
			<g>
				<path id="b_00000044883520454292903500000008806322621545253265_" class="st7" d="M143.3,100.8l0.7,0v0.5h0.5v-0.5l0.7,0v0.5
					h0.5v-0.5l0.7,0l0,1.2c0,0.2-0.1,0.3-0.3,0.3h-2.5c-0.2,0-0.3-0.1-0.3-0.3L143.3,100.8L143.3,100.8L143.3,100.8z"/>
			</g>
			<path d="M141.5,101.7c0-0.4,0.5-0.4,0.5,0v0.9h-0.5V101.7"/>
			<path id="c_00000094592330074801622440000008013500462232423610_" d="M138.4,103c0-0.4,0.5-0.4,0.5,0v0.7h-0.5V103"/>
			<g>
				<path id="c_00000132054946887128816930000012607922686683020439_" d="M144.6,103c0-0.4,0.5-0.4,0.5,0v0.7h-0.5V103"/>
			</g>
		</g>
	</g>
	<g transform="matrix(-1 0 0 1 479.792 0)">
		<g id="e_00000016073076212208583750000008968573184928963242_">
			<g id="d_00000129193667158033948260000017902567198373158829_">
				<path class="st6" d="M171,109.9c-0.1-3.3-2.4-4-2.4-4c0,0-2.5,0.8-2.5,4.1L171,109.9"/>
				<path class="st7" d="M173,105.9l0.4,3.7l-2.4,0c0-3.1-2.3-3.6-2.4-3.6c-0.1,0-2.4,0.7-2.4,3.6h-2.5l0.4-3.8L173,105.9L173,105.9
					z M173.6,109.6h-10c-0.2,0-0.4,0.2-0.4,0.5c0,0.3,0.2,0.5,0.4,0.5h10c0.2,0,0.4-0.2,0.4-0.5C174,109.8,173.8,109.6,173.6,109.6
					L173.6,109.6z"/>
				<path class="st7" d="M169.9,109.6c0-2-1.3-2.5-1.3-2.5c0,0-1.4,0.6-1.4,2.5H169.9 M173.4,104.3h-9.6c-0.2,0-0.4,0.2-0.4,0.4
					c0,0.2,0.2,0.4,0.4,0.4h9.6c0.2,0,0.4-0.2,0.4-0.4C173.7,104.5,173.6,104.3,173.4,104.3L173.4,104.3z M173.2,105.1H164
					c-0.2,0-0.4,0.2-0.4,0.4c0,0.2,0.2,0.4,0.4,0.4h9.2c0.2,0,0.4-0.2,0.4-0.4C173.5,105.3,173.4,105.1,173.2,105.1L173.2,105.1z
					 M170.2,98.9l-0.7,0v0.5H169v-0.5l-0.7,0v0.5h-0.5v-0.5h-0.7l0,1.2c0,0.2,0.2,0.3,0.3,0.3h2.6c0.2,0,0.3-0.1,0.3-0.3L170.2,98.9
					L170.2,98.9L170.2,98.9z M167.5,100.5l-0.2,3.8l2.5,0l-0.2-3.8L167.5,100.5"/>
				<path id="a_00000022536938383500140500000009277355659788371600_" class="st7" d="M170.6,102.3l-0.1,2.1l2.4,0l-0.1-2.1H170.6
					L170.6,102.3L170.6,102.3z"/>
				<g>
					<path id="a_00000095322612857691245070000017863518279360349571_" class="st7" d="M164.3,102.3l-0.1,2.1l2.4,0l-0.1-2.1H164.3
						L164.3,102.3L164.3,102.3z"/>
				</g>
				<path id="b_00000108298176748717513250000015018744318143620027_" class="st7" d="M173.3,100.8l-0.7,0v0.5h-0.5v-0.5l-0.7,0v0.5
					h-0.5v-0.5l-0.7,0l0,1.2c0,0.2,0.1,0.3,0.3,0.3h2.5c0.2,0,0.3-0.1,0.3-0.3L173.3,100.8L173.3,100.8L173.3,100.8z"/>
				<g>
					<path id="b_00000075139354272775407150000002972038757345778561_" class="st7" d="M167.1,100.8l-0.7,0v0.5h-0.5v-0.5l-0.7,0
						v0.5h-0.5v-0.5l-0.7,0l0,1.2c0,0.2,0.1,0.3,0.3,0.3h2.5c0.2,0,0.3-0.1,0.3-0.3L167.1,100.8L167.1,100.8L167.1,100.8z"/>
				</g>
				<path d="M168.8,101.7c0-0.4-0.5-0.4-0.5,0v0.9h0.5V101.7"/>
				<path id="c_00000119819359499378729820000001348443932474326928_" d="M172,103c0-0.4-0.5-0.4-0.5,0v0.7h0.5V103"/>
				<g>
					<path id="c_00000057117267487066830950000011889315928935766700_" d="M165.7,103c0-0.4-0.5-0.4-0.5,0v0.7h0.5V103"/>
				</g>
			</g>
			<g>
				<g id="d_00000058580871969015850620000001839050519804328833_">
					<path class="st6" d="M171,137.2c-0.1-3.3-2.4-4-2.4-4c0,0-2.5,0.8-2.5,4.1L171,137.2"/>
					<path class="st7" d="M173,133.2l0.4,3.7l-2.4,0c0-3.1-2.3-3.6-2.4-3.6c-0.1,0-2.4,0.7-2.4,3.6h-2.5l0.4-3.8L173,133.2
						L173,133.2z M173.6,137h-10c-0.2,0-0.4,0.2-0.4,0.5c0,0.3,0.2,0.5,0.4,0.5h10c0.2,0,0.4-0.2,0.4-0.5
						C174,137.2,173.8,137,173.6,137L173.6,137z"/>
					<path class="st7" d="M169.9,137c0-2-1.3-2.5-1.3-2.5c0,0-1.4,0.6-1.4,2.5H169.9 M173.4,131.7h-9.6c-0.2,0-0.4,0.2-0.4,0.4
						s0.2,0.4,0.4,0.4h9.6c0.2,0,0.4-0.2,0.4-0.4C173.7,131.9,173.6,131.7,173.4,131.7L173.4,131.7z M173.2,132.5H164
						c-0.2,0-0.4,0.2-0.4,0.4c0,0.2,0.2,0.4,0.4,0.4h9.2c0.2,0,0.4-0.2,0.4-0.4C173.5,132.7,173.4,132.5,173.2,132.5L173.2,132.5z
						 M170.2,126.3l-0.7,0v0.5H169v-0.5l-0.7,0v0.5h-0.5v-0.5h-0.7l0,1.2c0,0.2,0.2,0.3,0.3,0.3h2.6c0.2,0,0.3-0.1,0.3-0.3
						L170.2,126.3L170.2,126.3L170.2,126.3z M167.5,127.8l-0.2,3.8l2.5,0l-0.2-3.8L167.5,127.8"/>
					<path id="a_00000093863324103023585140000014848722509622973847_" class="st7" d="M170.6,129.6l-0.1,2.1l2.4,0l-0.1-2.1H170.6
						L170.6,129.6L170.6,129.6z"/>
					<g>
						<path id="a_00000052097712468709115110000009723061263153302670_" class="st7" d="M164.3,129.6l-0.1,2.1l2.4,0l-0.1-2.1H164.3
							L164.3,129.6L164.3,129.6z"/>
					</g>
					<path id="b_00000083794778534471051940000016362219716077708951_" class="st7" d="M173.3,128.1l-0.7,0v0.5h-0.5v-0.5l-0.7,0
						v0.5h-0.5v-0.5l-0.7,0l0,1.2c0,0.2,0.1,0.3,0.3,0.3h2.5c0.2,0,0.3-0.1,0.3-0.3L173.3,128.1L173.3,128.1L173.3,128.1z"/>
					<g>
						<path id="b_00000165938319237354881330000009531125178581565092_" class="st7" d="M167.1,128.1l-0.7,0v0.5h-0.5v-0.5l-0.7,0
							v0.5h-0.5v-0.5l-0.7,0l0,1.2c0,0.2,0.1,0.3,0.3,0.3h2.5c0.2,0,0.3-0.1,0.3-0.3L167.1,128.1L167.1,128.1L167.1,128.1z"/>
					</g>
					<path d="M168.8,129c0-0.4-0.5-0.4-0.5,0v0.9h0.5V129"/>
					<path id="c_00000005973557934902501520000001851060056515671945_" d="M172,130.4c0-0.4-0.5-0.4-0.5,0v0.7h0.5V130.4"/>
					<g>
						<path id="c_00000094600397087551453480000005445646812475174045_" d="M165.7,130.4c0-0.4-0.5-0.4-0.5,0v0.7h0.5V130.4"/>
					</g>
				</g>
			</g>
			<g transform="rotate(-45.202 312.766 180.004)">
				<g id="d_00000177479581284403519680000000844965840802888079_">
					<path class="st6" d="M160.4,165.7c2.3-2.4,1.2-4.5,1.2-4.6c0,0-2.4-1.2-4.6,1.1L160.4,165.7"/>
					<path class="st7" d="M164.6,164.3l-2.4,2.9l-1.7-1.7c2.2-2.2,0.9-4.2,0.9-4.2c0,0-2.1-1.2-4.3,0.8l-1.7-1.7l3-2.3L164.6,164.3
						L164.6,164.3z M162.3,167.3l-7.1-7.1c-0.1-0.1-0.4-0.1-0.6,0.1c-0.2,0.2-0.2,0.4-0.1,0.6l7.1,7.1c0.1,0.1,0.4,0.1,0.6-0.1
						C162.4,167.8,162.5,167.5,162.3,167.3L162.3,167.3z"/>
					<path class="st7" d="M159.8,164.7c1.4-1.4,0.8-2.7,0.8-2.7c0,0-1.4-0.6-2.8,0.8L159.8,164.7 M165.9,163.4l-6.8-6.8
						c-0.1-0.1-0.4-0.1-0.6,0c-0.2,0.2-0.2,0.4,0,0.6l6.8,6.8c0.1,0.1,0.4,0.1,0.6,0C166.1,163.8,166.1,163.6,165.9,163.4
						L165.9,163.4z M165.2,163.9l-6.5-6.5c-0.1-0.1-0.4-0.1-0.5,0c-0.2,0.2-0.2,0.4,0,0.5l6.5,6.5c0.1,0.1,0.4,0.1,0.5,0
						C165.3,164.3,165.3,164,165.2,163.9L165.2,163.9z M167.6,157.4l-0.5-0.5l-0.4,0.4l-0.4-0.4l0.4-0.4l-0.5-0.5l-0.4,0.4l-0.4-0.4
						l0.4-0.4l-0.5-0.5l-0.8,0.8c-0.1,0.1-0.1,0.3,0,0.4l1.8,1.8c0.1,0.1,0.3,0.1,0.5,0L167.6,157.4L167.6,157.4L167.6,157.4z
						 M164.5,156.6l-2.8,2.6l1.8,1.8l2.6-2.8L164.5,156.6"/>
					<path id="a_00000031205554694139203560000001766845983987964347_" class="st7" d="M165.4,160l-1.5,1.4l1.7,1.7l1.4-1.5
						L165.4,160L165.4,160L165.4,160z"/>
					<g>
						<path id="a_00000182511416415479618820000014253818982872093346_" class="st7" d="M161,155.6l-1.5,1.4l1.7,1.7l1.4-1.5
							L161,155.6L161,155.6L161,155.6z"/>
					</g>
					<path id="b_00000052069073011678410200000000635438028170160278_" class="st7" d="M168.4,160.9l-0.5-0.5l-0.4,0.4l-0.4-0.4
						l0.4-0.4l-0.5-0.5l-0.4,0.4l-0.4-0.4l0.4-0.4l-0.5-0.5l-0.8,0.8c-0.1,0.1-0.1,0.3,0,0.4l1.8,1.8c0.1,0.1,0.3,0.1,0.5,0
						L168.4,160.9L168.4,160.9L168.4,160.9z"/>
					<g>
						<path id="b_00000071528748617380875840000007338233038580169356_" class="st7" d="M164,156.5l-0.5-0.5l-0.4,0.4l-0.4-0.4
							l0.4-0.4l-0.5-0.5l-0.4,0.4l-0.4-0.4l0.4-0.4l-0.5-0.5l-0.8,0.8c-0.1,0.1-0.1,0.3,0,0.4l1.8,1.8c0.1,0.1,0.3,0.1,0.5,0
							L164,156.5L164,156.5L164,156.5z"/>
					</g>
					<path d="M164.6,158.4c0.3-0.2-0.1-0.6-0.4-0.4l-0.6,0.6l0.4,0.4L164.6,158.4"/>
					<path id="c_00000024710870804101057900000009835236496191519643_" d="M165.9,161.5c0.3-0.3-0.1-0.6-0.3-0.3l-0.5,0.5l0.3,0.3
						L165.9,161.5"/>
					<g>
						<path id="c_00000138563496362116608710000014376973780576297917_" d="M161.5,157.1c0.3-0.3-0.1-0.6-0.3-0.3l-0.5,0.5l0.3,0.3
							L161.5,157.1"/>
					</g>
				</g>
			</g>
		</g>
	</g>
	<g id="f">
		<path class="st8" d="M137.4,138.2L137.4,138.2c0,1.3,0.5,2.5,1.3,3.4c0.8,0.9,1.9,1.4,3.1,1.4c1.2,0,2.3-0.5,3.1-1.4
			c0.8-0.9,1.3-2.1,1.3-3.4v-6.4l-8.9,0L137.4,138.2"/>
		<circle class="st9" cx="139.4" cy="134.2" r="0.9"/>
		<circle class="st9" cx="144.3" cy="134.2" r="0.9"/>
		<circle class="st9" cx="141.9" cy="136.6" r="0.9"/>
		<circle class="st9" cx="139.4" cy="139.1" r="0.9"/>
		<circle class="st9" cx="144.3" cy="139.1" r="0.9"/>
	</g>
	<g>
		<g id="f_00000063629163580950202030000002473572044532720260_">
			<path class="st8" d="M137.4,122.8L137.4,122.8c0,1.3,0.5,2.5,1.3,3.4c0.8,0.9,1.9,1.4,3.1,1.4c1.2,0,2.3-0.5,3.1-1.4
				c0.8-0.9,1.3-2.1,1.3-3.4v-6.4l-8.9,0L137.4,122.8"/>
			<circle class="st9" cx="139.4" cy="118.9" r="0.9"/>
			<circle class="st9" cx="144.3" cy="118.9" r="0.9"/>
			<circle class="st9" cx="141.9" cy="121.2" r="0.9"/>
			<circle class="st9" cx="139.4" cy="123.7" r="0.9"/>
			<circle class="st9" cx="144.3" cy="123.7" r="0.9"/>
		</g>
	</g>
	<g>
		<g id="f_00000121998729147615206330000015827543168731393691_">
			<path class="st8" d="M125.1,138.2L125.1,138.2c0,1.3,0.5,2.5,1.3,3.4c0.8,0.9,1.9,1.4,3.1,1.4c1.2,0,2.3-0.5,3.1-1.4
				c0.8-0.9,1.3-2.1,1.3-3.4v-6.4l-8.9,0L125.1,138.2"/>
			<circle class="st9" cx="127.1" cy="134.2" r="0.9"/>
			<circle class="st9" cx="132" cy="134.2" r="0.9"/>
			<circle class="st9" cx="129.6" cy="136.6" r="0.9"/>
			<circle class="st9" cx="127.1" cy="139.1" r="0.9"/>
			<circle class="st9" cx="132" cy="139.1" r="0.9"/>
		</g>
	</g>
	<g>
		<g id="f_00000129898808332136126540000010174664706466899615_">
			<path class="st8" d="M149.6,138.2L149.6,138.2c0,1.3,0.5,2.5,1.3,3.4c0.8,0.9,1.9,1.4,3.1,1.4c1.2,0,2.3-0.5,3.1-1.4
				c0.8-0.9,1.3-2.1,1.3-3.4v-6.4l-8.9,0L149.6,138.2"/>
			<circle class="st9" cx="151.7" cy="134.2" r="0.9"/>
			<circle class="st9" cx="156.6" cy="134.2" r="0.9"/>
			<circle class="st9" cx="154.1" cy="136.6" r="0.9"/>
			<circle class="st9" cx="151.7" cy="139.1" r="0.9"/>
			<circle class="st9" cx="156.6" cy="139.1" r="0.9"/>
		</g>
	</g>
	<g>
		<g id="f_00000134957809091589050360000015564929627650959772_">
			<path class="st8" d="M137.4,153.4L137.4,153.4c0,1.3,0.5,2.5,1.3,3.4c0.8,0.9,1.9,1.4,3.1,1.4c1.2,0,2.3-0.5,3.1-1.4
				c0.8-0.9,1.3-2.1,1.3-3.4v-6.4l-8.9,0L137.4,153.4"/>
			<circle class="st9" cx="139.4" cy="149.5" r="0.9"/>
			<circle class="st9" cx="144.3" cy="149.5" r="0.9"/>
			<circle class="st9" cx="141.9" cy="151.8" r="0.9"/>
			<circle class="st9" cx="139.4" cy="154.3" r="0.9"/>
			<circle class="st9" cx="144.3" cy="154.3" r="0.9"/>
		</g>
	</g>
</g>
</svg>
