<?xml version="1.0" encoding="utf-8"?>
<!-- Generator: Adobe Illustrator 26.3.1, SVG Export Plug-In . SVG Version: 6.00 Build 0)  -->
<svg version="1.1" id="图层_1" xmlns="http://www.w3.org/2000/svg" xmlns:xlink="http://www.w3.org/1999/xlink" x="0px" y="0px"
	 viewBox="0 0 354.3 283.5" style="enable-background:new 0 0 354.3 283.5;" xml:space="preserve">
<style type="text/css">
	.st0{fill-rule:evenodd;clip-rule:evenodd;fill:#FE0000;}
	.st1{fill-rule:evenodd;clip-rule:evenodd;fill:#000095;}
	.st2{fill:#FFFFFF;}
	.st3{fill:#000095;}
</style>
<path class="st0" d="M0,0h354.3v283.5H0V0z"/>
<path class="st1" d="M0,0h212.6v141.7H0V0z"/>
<path class="st2" d="M106.3,17.7l-26.6,99.2l72.6-72.6L53.1,70.9l99.2,26.6L79.7,24.8l26.6,99.2l26.6-99.2L60.3,97.4l99.2-26.6
	L60.3,44.3l72.6,72.6L106.3,17.7"/>
<g>
	<circle class="st2" cx="106.3" cy="70.9" r="28.3"/>
	<path class="st3" d="M106.3,101c-16.6,0-30.1-13.5-30.1-30.1s13.5-30.1,30.1-30.1s30.1,13.5,30.1,30.1S122.9,101,106.3,101z
		 M106.3,44.3c-14.7,0-26.6,11.9-26.6,26.6s11.9,26.6,26.6,26.6s26.6-11.9,26.6-26.6S121,44.3,106.3,44.3z"/>
</g>
</svg>
