<svg xmlns="http://www.w3.org/2000/svg" x="0px" y="0px" viewBox="0 0 370.6 417.5" style="enable-background:new 0 0 370.6 417.5;" xml:space="preserve">
<style type="text/css">
	.st0{opacity:0.1;fill:#A3A3A3;enable-background:new    ;}
	.st1{fill:#606373;}
	.st2{fill:#77788B;}
	.st3{fill:#11113B;}
	.st4{fill:#EFEFEF;}
	.st5{fill:#E0E0E0;}
	.st6{fill:#B1B1C9;}
	.st7{fill:#DCDBEA;stroke:#8D8DAA;stroke-miterlimit:10;}
	.st8{fill:#9A9AB7;}
	.st9{fill:#060423;stroke:#FFFFFF;stroke-miterlimit:10;}
	.st10{fill:none;stroke:#8D8DAA;stroke-miterlimit:10;}
	.st11{opacity:0.1;fill:#FFFFFF;enable-background:new    ;}
	.st12{fill:#212154;}
	.st13{fill:#060423;}
	.st14{fill:#E3E3E3;}
	.st15{fill:#FBF9F9;}
	.st16{fill:#D6D6D6;}
	.st17{fill:url(#SVGID_1_);}
	.st18{fill:#2CFBFB;}
	.st19{fill:#E1E1E1;}
	.st20{fill:#FDFDFB;}
	.st21{opacity:0.3;fill:#B1B1C9;enable-background:new    ;}
	.st22{opacity:0.3;fill:#FFFFFF;enable-background:new    ;}
	.st23{fill:#FFFFFF;}
</style>
	<ellipse class="st0" cx="185.2" cy="401.5" rx="135.6" ry="16">
<animate accumulate="none" additive="replace" attributeName="rx" calcMode="linear" dur="2s" fill="remove" keyTimes="0;0.5;1" repeatCount="indefinite" restart="always" values="115.6;135.6;115.6">
	</animate>
</ellipse>
	<g>
	<path class="st1" d="M270.3,230.9c-18.2,3.2-62.3,5-81.7,5.4h-6.4c-19.4-0.4-63.5-2.2-81.7-5.4c-1-0.2-1.9-0.4-2.8-0.5l0.1,11.3   c36.3,8.5,139.9,8.5,176.2,0l0.2-11.6C273,230.4,271.7,230.7,270.3,230.9z"/>
		<path class="st2" d="M135.7,246.6c-0.4-0.8-1.4-1.9-3.1-3.2c-15.2-11.4-29.9-1.9-31.6-0.7C110.1,244.4,122.1,245.7,135.7,246.6z"/>
		<path class="st2" d="M236.4,246.6c0.4-0.8,1.4-1.9,3.1-3.2c15.2-11.4,29.9-1.9,31.6-0.7C262.1,244.4,250.1,245.7,236.4,246.6z"/>
		<path class="st3" d="M239.1,236.3h-4h-97.8h-4c-3,5,1.2,7.3,1.2,7.3c-1.3,1.3,1.2,3,1.2,3l3,2.7l45.2-0.6l49.9,0.6l3-2.7   c0,0,2.5-1.7,1.2-3C237.9,243.6,242,241.2,239.1,236.3z"/>
		<path class="st4" d="M274.1,241.7c-36.3,8.5-139.9,8.5-176.2,0c0,0-6,94.2,46.8,108.1c0,0,20.1,4.9,41.3,4.8   c21.2,0.2,41.3-4.8,41.3-4.8C280.1,335.9,274.1,241.7,274.1,241.7z"/>
		<path class="st5" d="M274.1,241.7c-6.4,1.5-15,2.8-25,3.7l-0.1,0.1c0,0,10.6,50.8-4.1,70.1c-14.1,18.5-22.8,32-103.7,32.5   c-0.6,0-1.3,0-1.9,0c1.7,0.7,3.5,1.3,5.3,1.7c0,0,20.1,4.9,41.3,4.8c21.2,0.2,41.3-4.8,41.3-4.8   C280.1,335.9,274.1,241.7,274.1,241.7z"/>
		<path class="st6" d="M247.1,266.8c-0.8-12.9-1.6-17.6-1.8-18.5v-0.1l0,0l0,0c0,0-0.6,0.1-1.7,0.2c-5.5,0.6-24.3,2.4-57,2.4   s-51.5-1.8-57-2.4c-1.1-0.1-1.7-0.2-1.7-0.2l0,0l0,0v0.1c-0.2,0.8-1,5.6-1.8,18.5c-0.5,8,0,18.1,0,18.1s-0.1,18,11.4,32.5   c0.9,1.1,1.8,2.2,2.9,3.3c2.5,2.6,4.8,4.9,7.4,6.8l0.1,0.1c0.1,0.1,0.2,0.1,0.3,0.2c0.8,0.6,1.7,1.1,2.6,1.7l0,0   c0.3,0.2,0.6,0.4,1,0.5c0.2,0.1,0.5,0.2,0.7,0.4c0.1,0.1,0.2,0.1,0.3,0.2c6.6,3.2,16.1,4.9,33.6,4.9c0.1,0,0.1,0,0.2,0   c0.1,0,0.1,0,0.2,0c0.1,0,0.1,0,0.2,0c0.1,0,0.1,0,0.2,0c17.5,0,27-1.7,33.6-4.9c0.1-0.1,0.2-0.1,0.3-0.2c0.2-0.1,0.5-0.2,0.7-0.4   c0.3-0.2,0.7-0.4,1-0.5l0,0c0.9-0.5,1.8-1.1,2.6-1.7c0.1-0.1,0.2-0.1,0.3-0.2l0.1-0.1c2.6-2,4.9-4.2,7.4-6.8c1-1.1,2-2.2,2.9-3.3   c11.5-14.5,11.4-32.5,11.4-32.5S247.6,274.8,247.1,266.8z"/>
		<circle class="st7" cx="134.1" cy="253.9" r="3.5"/>
		<circle class="st7" cx="149.7" cy="317.7" r="3.5"/>
		<path class="st8" d="M243.6,248.3L243.6,248.3c-2,0.2-5.4,0.6-10.5,0.9c1.6,11.7,2.9,41.2-7.2,55.5c-13.7,19.4-56.3,36.6-81.3,20.2   c0.9,0.8,1.9,1.7,2.9,2.4l0.1,0.1c0.1,0.1,0.2,0.1,0.3,0.2c0.8,0.6,1.7,1.1,2.6,1.7l0,0c0.3,0.2,0.6,0.4,1,0.5   c0.2,0.1,0.5,0.2,0.7,0.4c0.1,0.1,0.2,0.1,0.3,0.2c6.6,3.2,16.1,4.9,33.6,4.9c0.1,0,0.1,0,0.2,0c0.1,0,0.1,0,0.2,0   c0.1,0,0.1,0,0.2,0c0.1,0,0.1,0,0.2,0c17.5,0,27-1.7,33.6-4.9c0.1-0.1,0.2-0.1,0.3-0.2c0.2-0.1,0.5-0.2,0.7-0.4   c0.3-0.2,0.7-0.4,1-0.5l0,0c0.9-0.5,1.8-1.1,2.6-1.7c0.1-0.1,0.2-0.1,0.3-0.2l0.1-0.1c2.6-2,4.9-4.2,7.4-6.8c1-1.1,2-2.2,2.9-3.3   c11.5-14.5,11.4-32.5,11.4-32.5s0.5-10.1,0-18.1c-0.8-12.9-1.6-17.6-1.8-18.5V248C245.3,248.1,244.7,248.2,243.6,248.3z"/>
		<circle class="st9" cx="218.3" cy="274" r="20.2">

		<animate accumulate="none" additive="replace" attributeName="fill" calcMode="linear" dur="2s" fill="remove" keyTimes="0;0.5;1" repeatCount="indefinite" restart="always" values="#272362;#0052ff;#272362">
		</animate>
	</circle>
		<circle class="st7" cx="238.5" cy="253.9" r="3.5"/>
		<path class="st10" d="M274.1,241.7c-36.3,8.5-139.9,8.5-176.2,0c0,0-6,94.2,46.8,108.1c0,0,20.1,4.9,41.3,4.8   c21.2,0.2,41.3-4.8,41.3-4.8C280.1,335.9,274.1,241.7,274.1,241.7z"/>
		<path class="st11" d="M205.3,289.4c3.5,3,8,4.8,13,4.8c11.1,0,20.2-9,20.2-20.2c0-5.7-2.4-10.9-6.2-14.5c1.4,3.4,7,19.1-7.3,29.3   C225,288.8,216.9,293.1,205.3,289.4z"/>
		<circle class="st7" cx="223.7" cy="317.7" r="3.5"/>
		<path class="st12" d="M264.2,311c-9.9-6.3-19.7,10.2-19.7,10.2c-15.2,27.9-48.3,33.1-48.3,33.1l0,0c17-1,31.1-4.5,31.1-4.5   c19.1-5,30.5-20.6,37.3-38.5C264.5,311.2,264.3,311.1,264.2,311z"/>
		<path class="st4" d="M292.1,34.9c-17-9.7-196.4-9.7-213.4,0c0,0-39.8,20.3-42.5,64.4v52.5c0,0,1.2,41.9,15.5,56.8   s28.2,22.5,48.9,26.1c18.2,3.2,62.3,5,81.7,5.4v0.1c0.9,0,2,0,3.2,0s2.3,0,3.2,0V240c19.4-0.4,63.5-2.2,81.7-5.4   c20.6-3.6,34.6-11.2,48.9-26.1c14.3-14.9,15.5-56.8,15.5-56.8V99.3C331.9,55.2,292.1,34.9,292.1,34.9z"/>
		<path class="st12" d="M126.9,321.2c0,0-9.7-16.5-19.7-10.2c6.8,18,18.2,33.8,37.4,38.8c0,0,13.8,3.4,30.5,4.5   C175.1,354.2,142.1,349,126.9,321.2z"/>
		<path class="st13" d="M286.7,204.2c-0.6,0.4-1.3,0.8-2,1.2c-4.8,3.1-12.7,8.2-38.5,11.2l-55.3,1.1h-7.6l-55.3-1.1   c-25.7-3-33.7-8.1-38.5-11.2c-0.7-0.5-1.3-0.9-2-1.2c-16.8-11.3-18.6-42.9-18.7-44.2v-35.5c-0.2-18.2,3.1-22.9,3.6-23.6l0.3-0.1   l0.4-0.6c3.6-6,12.6-10.7,19.8-14.4c1.1-0.6,2.2-1.1,3.2-1.7c25.5-10.7,71.7-12.7,87.2-13.1h7.6c15.5,0.4,61.8,2.3,87.2,13.1   c1,0.5,2.1,1.1,3.2,1.7c7.2,3.8,16.2,8.4,19.8,14.4l0.4,0.6l0.3,0.1c0.5,0.6,3.9,5.4,3.6,23.6V160   C305.4,161.3,303.5,192.9,286.7,204.2z"/>
		<path class="st14" d="M292.1,34.9c-0.2-0.1-0.3-0.2-0.5-0.3l6,6.7c0,0,33.5,26.7,28.3,74.8s-11.6,84.7-50.2,106.3   c-33.6,18.8-101.4,17-182.8,10.6c2.5,0.6,5,1.2,7.7,1.6c18.2,3.2,62.3,5,81.7,5.4v0.1c0.9,0,2,0,3.2,0s2.3,0,3.2,0V240   c19.4-0.4,63.5-2.2,81.7-5.4c20.6-3.6,34.6-11.2,48.9-26.1c14.3-14.9,15.5-56.8,15.5-56.8V99.3C331.9,55.2,292.1,34.9,292.1,34.9z"/>
		<path d="M108.2,209.2c0,0-24.9-3.3-29.1-31.6c-4.3-28.2-1.5-62.2-1.5-62.2S77.3,103,98.9,94.1c13.2-5.4,47.5-17.1,94.7-15.9   c29.7,0.7,78.9,1.7,102.6,22.3c0,0-126-37.3-186.7,18.5C109.4,119,65.4,158.2,108.2,209.2z"/>
		<path d="M258.4,105c0,0-138.7-31-158.8,64.7c0,0-9.4-59.9,79.4-71.6C179.1,98,229,94.4,258.4,105z"/>
		<path class="st10" d="M292.1,34.9c-17-9.7-196.4-9.7-213.4,0c0,0-39.8,20.3-42.5,64.4v52.5c0,0,1.2,41.9,15.5,56.8   s28.2,22.5,48.9,26.1c18.2,3.2,62.3,5,81.7,5.4v0.1c0.9,0,2,0,3.2,0s2.3,0,3.2,0V240c19.4-0.4,63.5-2.2,81.7-5.4   c20.6-3.6,34.6-11.2,48.9-26.1c14.3-14.9,15.5-56.8,15.5-56.8V99.3C331.9,55.2,292.1,34.9,292.1,34.9z"/>
		<path class="st15" d="M186.1,10C116.7,8.2,79,32.2,79,32.2s4.1,2.7,6.7,6.7c2.7,3.9,6,8.3,17.3,13.1c14.3,6,83.1,7,83.1,7   s68.7-1,83.1-7c11.3-4.7,14.6-9.1,17.3-13.1c2.7-3.9,6.7-6.7,6.7-6.7S255.5,8.2,186.1,10z"/>
		<polygon class="st16" points="293.6,35.7 294,32.2 290.6,34.3  "/>
		<path class="st4" d="M275.1,23.7c-11.3,7-48.5,28.3-86.5,28.5C143.2,52.4,86.5,38.5,86.5,38.5c-0.2,0.1-0.5,0.2-0.7,0.3   c2.7,3.9,6,8.3,17.3,13c14.3,6,83.1,7,83.1,7s68.7-1,83.1-7c11.3-4.7,14.6-9.1,17.3-13.1c2.7-3.9,6.7-6.7,6.7-6.7   S287.1,28.2,275.1,23.7z"/>
		<path class="st10" d="M186.1,10C116.7,8.2,79,32.2,79,32.2s4.1,2.7,6.7,6.7c2.7,3.9,6,8.3,17.3,13.1c14.3,6,83.1,7,83.1,7   s68.7-1,83.1-7c11.3-4.7,14.6-9.1,17.3-13.1c2.7-3.9,6.7-6.7,6.7-6.7S255.5,8.2,186.1,10z"/>

		<linearGradient id="SVGID_1_" gradientUnits="userSpaceOnUse" x1="64.1922" y1="273.5398" x2="310.1168" y2="273.5398" gradientTransform="matrix(1 0 0 -1 0 417.8898)">
		<stop offset="0" style="stop-color:#FFFFFF"/>
			<stop offset="0.9994" style="stop-color:#99AAD1"/>
	</linearGradient>
		<path class="st17" d="M310.1,124.4c0.3-19.6-3.5-25.4-5.1-27c-4.4-7-13.9-11.9-21.5-15.9c-1.1-0.6-2.2-1.1-3.2-1.7l-0.2-0.1   c-13.3-5.6-33.3-9.6-59.3-11.9c-12.6-1.1-23.7-1.5-29.9-1.6v-0.1h-2.3c0,0-0.5,0-1.5,0c-0.9,0-1.4,0-1.5,0h-2.3v0.1   c-6.2,0.1-17.2,0.5-29.9,1.6c-26,2.2-46,6.2-59.3,11.9L94,79.9c-1,0.5-2.1,1.1-3.2,1.7c-7.6,4-17.1,8.9-21.5,15.9   c-1.6,1.6-5.3,7.4-5.1,27V160v0.1c0.1,1.4,1.7,35.3,20.8,48l0.1,0.1c0.6,0.3,1.2,0.7,1.9,1.2c5.1,3.3,13.7,8.8,40.6,11.9l55.7,1.1   v0.2l3.8-0.1l3.8,0.1v-0.2l55.7-1.1c26.9-3.1,35.5-8.6,40.6-11.9c0.7-0.4,1.3-0.8,1.9-1.2l0.1-0.1c19.2-12.7,20.8-46.6,20.8-48V160   L310.1,124.4z M286.7,204.1c-0.6,0.4-1.3,0.8-2,1.2c-4.8,3.1-12.7,8.2-38.5,11.2l-55.3,1.1h-7.6l-55.3-1.1   c-25.7-3-33.7-8.1-38.5-11.2c-0.7-0.5-1.3-0.9-2-1.2c-16.8-11.3-18.6-42.9-18.7-44.2v-35.5c-0.2-18.2,3.1-22.9,3.6-23.6l0.3-0.1   l0.4-0.6c3.6-6,12.6-10.7,19.8-14.4c1.1-0.6,2.2-1.1,3.2-1.7c25.5-10.7,71.7-12.7,87.2-13.1h7.6c15.5,0.4,61.8,2.3,87.2,13.1   c1,0.5,2.1,1.1,3.2,1.7c7.2,3.8,16.2,8.4,19.8,14.4l0.4,0.6l0.3,0.1c0.5,0.6,3.9,5.4,3.6,23.6v35.5   C305.4,161.3,303.5,192.9,286.7,204.1z"/>
		<circle xmlns="http://www.w3.org/2000/svg" class="st18" cx="127.1" cy="161.4" r="27.5">

		<animate accumulate="none" additive="replace" attributeName="r" calcMode="linear" dur="2s" fill="remove" keyTimes="0;0.01;0.02;0.98;0.99;1" repeatCount="indefinite" restart="always" values="0;0;27.8;27.8;0;0">
		</animate>
	</circle>
		<circle xmlns="http://www.w3.org/2000/svg" transform="translate(120,0)" class="st18" cx="127.1" cy="161.4" r="27.5">

		<animate accumulate="none" additive="replace" attributeName="r" calcMode="linear" dur="2s" fill="remove" keyTimes="0;0.01;0.02;0.98;0.99;1" repeatCount="indefinite" restart="always" values="0;0;27.8;27.8;0;0">
		</animate>
	</circle>


		<circle class="st18" cx="186.4" cy="197.1" r="4.7"/>
		<g>
		<g>
			<path class="st4" d="M65.4,251.3c0,0,16.5,11.6,18.6,12c2.1,0.3,6.4,1.2,7.3,0.7v-3.3l4.5-8.1c0,0,1-2.1,0-3.2     c-1-1.1-18.2-11.4-18.2-11.4s-3.6-3.6-5.7-3.7c0,0-3.8,1.8-5.7,6C64.2,244.3,65.4,251.3,65.4,251.3z"/>
			<path class="st19" d="M91.3,260.6l-26.2-14.1c0,2.6,0.4,4.8,0.4,4.8s16.5,11.6,18.6,12c2.1,0.3,6.4,1.2,7.3,0.7v-3.4H91.3z"/>
			<path class="st20" d="M76.5,236.9c-1.2-1.1-3.3-2.7-4.7-2.8c0,0-3.8,1.8-5.7,6c-1.9,4.2-0.7,11.2-0.7,11.2l2,1.4l3-3.2     C70.5,249.5,73.5,241.4,76.5,236.9z"/>
			<path class="st10" d="M65.4,251.3c0,0,16.5,11.6,18.6,12c2.1,0.3,6.4,1.2,7.3,0.7v-3.3l4.5-8.1c0,0,1-2.1,0-3.2     c-1-1.1-18.2-11.4-18.2-11.4s-3.6-3.6-5.7-3.7c0,0-3.8,1.8-5.7,6C64.2,244.3,65.4,251.3,65.4,251.3z"/>
		</g>
			<g>
			<path class="st4" d="M306,251.3c0,0-16.5,11.6-18.6,12c-2.1,0.3-6.4,1.2-7.3,0.7v-3.3l-4.5-8.1c0,0-1-2.1,0-3.2     c1-1.1,18.2-11.4,18.2-11.4s3.6-3.6,5.7-3.7c0,0,3.8,1.8,5.7,6C307.2,244.3,306,251.3,306,251.3z"/>
				<path class="st19" d="M280.2,260.6l26.2-14.1c0,2.6-0.4,4.8-0.4,4.8s-16.5,11.6-18.6,12c-2.1,0.3-6.4,1.2-7.3,0.7L280.2,260.6     L280.2,260.6z"/>
				<path class="st20" d="M294.9,236.9c1.2-1.1,3.3-2.7,4.7-2.8c0,0,3.8,1.8,5.7,6c1.9,4.2,0.7,11.2,0.7,11.2l-2,1.4l-3-3.2     C300.9,249.5,297.9,241.4,294.9,236.9z"/>
				<path class="st10" d="M306,251.3c0,0-16.5,11.6-18.6,12c-2.1,0.3-6.4,1.2-7.3,0.7v-3.3l-4.5-8.1c0,0-1-2.1,0-3.2     c1-1.1,18.2-11.4,18.2-11.4s3.6-3.6,5.7-3.7c0,0,3.8,1.8,5.7,6C307.2,244.3,306,251.3,306,251.3z"/>
		</g>
			<path class="st18" d="M5.9,146.6l30,3.2l1.4,17.3L5,163.4C5,163.4,4.4,151.4,5.9,146.6z"/>
			<path class="st18" d="M365,146.6l-30,3.2l-1.4,17.3l32.3-3.7C366,163.4,366.5,151.4,365,146.6z"/>
			<path class="st21" d="M6.2,151.8c0,0,2.1-19.3,7.2-23.7s11.9-14.4,40.7-20.5s85.1,0.6,94.7,8.4c10.7,8.6,15.6,16.3,12.3,43.3    s-16.6,51.1-29,58.4c-12.4,7.3-69.2,23.6-98.5,9.6S5.4,157.2,6.2,151.8z"/>
			<path class="st22" d="M92.9,124.1c0,0-3.4,30.1-58.8,68.2c0,0-18.7,9-20.1-3.4s-4.1-47.5,8.2-58.1c12.3-10.6,29.2-19.7,58.5-19.2    C80.6,111.5,98.6,109.3,92.9,124.1z"/>
			<path class="st21" d="M364.2,151.8c0,0-2.1-19.3-7.2-23.7s-11.9-14.4-40.7-20.5s-85.1,0.6-94.7,8.4c-10.7,8.6-15.6,16.3-12.3,43.3    s16.6,51.1,29,58.4c12.4,7.3,69.2,23.6,98.5,9.6S365,157.2,364.2,151.8z"/>
			<path class="st18" d="M363.3,121.3c-6.8-10.5-35.6-23.6-58.9-23.9s-69.6,1.6-80.5,2.2c-9.6,0.6-37.5,0.7-37.5,0.7    s-30.2-0.1-39.8-0.7c-11-0.6-57.3-2.5-80.6-2.2s-52.1,13.4-58.9,23.9s-6.8,40-6.8,40s5.4,59.6,34.2,71.3    c28.9,11.8,93.6-5,106.1-15.1s24.7-36.7,29.8-56.2c4.7-17.8,13-19.1,15.8-19.1s8.9,1.3,13.5,19.1c5.1,19.5,17.2,46.1,29.8,56.2    s77.3,26.9,106.1,15.1c28.9-11.8,34.2-71.3,34.2-71.3S370,131.8,363.3,121.3z M161.2,159.3c-3.3,27-16.6,51.1-29,58.4    c-12.4,7.3-69.2,23.6-98.5,9.6S5.5,157.2,6.2,151.9c0,0,2.1-19.3,7.2-23.7c5.1-4.4,11.9-14.4,40.7-20.5    c28.9-6.1,85.1,0.6,94.7,8.4C159.6,124.6,164.5,132.3,161.2,159.3z M198.3,138.6c-2-1.3-7.4-2.9-12.5-3c-5.8-0.1-11.4,1.5-13.7,3    c0,0-4.3-22.1-7.5-22.4c0,0,4.4-2.7,21.8-2.7s19.5,2.7,19.5,2.7C202.6,116.6,198.3,138.6,198.3,138.6z M336.8,227.2    c-29.3,14-86.1-2.3-98.5-9.6s-25.8-31.4-29-58.4c-3.3-27,1.6-34.7,12.3-43.3c9.6-7.7,65.9-14.4,94.7-8.4    c28.9,6.1,35.6,16.1,40.7,20.5s7.2,23.7,7.2,23.7C365,157.2,366.1,213.3,336.8,227.2z"/>
			<path class="st18" d="M370,159.4c-0.1-6.8-1-29.2-6.7-38.1c-6.8-10.5-35.6-23.6-58.9-23.9s-69.6,1.6-80.5,2.2    c-9.6,0.6-37.5,0.7-37.5,0.7s-30.2-0.1-39.8-0.7c-11-0.6-57.3-2.5-80.6-2.2s-52.1,13.4-58.9,23.9c-5.2,8-6.4,27.2-6.7,35.8    c1.4-13.3,4.6-28.9,12.2-36.2c14.3-13.8,41-20,73.1-19.3c22.3,0.5,62,2.1,84.1,3l-0.1,0.7h14.5c0,0,0.3,0,0.9,0c0.6,0,0.9,0,0.9,0    h14.5l-0.1-0.7c22.1-0.9,61.8-2.5,84.1-3c32.1-0.8,58.8,5.5,73.1,19.3C365.6,128.6,368.8,145.7,370,159.4z"/>
			<path class="st22" d="M218.3,180.5c0,0-12.6-32.1-1.8-49.6s26-19.2,48.9-21c0,0,4.6,0,0,9.8S258,142.6,218.3,180.5z"/>

			<animateTransform accumulate="none" additive="replace" attributeName="transform" calcMode="linear" dur="2s" fill="remove" keyTimes="0;0.05;0.1;0.98;0.99;1" repeatCount="indefinite" restart="always" type="translate" values="0 -3;0 -3;0 5;0 5;0 -3;0 -3">
			</animateTransform>
	</g>

		<animateTransform accumulate="none" additive="replace" attributeName="transform" calcMode="linear" dur="2s" fill="remove" keyTimes="0;0.5;1" repeatCount="indefinite" restart="always" type="translate" values="0 -3;0 5;0 -3">
		</animateTransform>
		<path class="st23" d="M210.6,276c0.2,0,0.4,0,0.6,0c5.4,0,10.8,0,16.2,0c1.3,0,2.5-0.8,2.7-2c0.1-0.7,0.1-1.4-0.1-2.1   c-0.4-2.4-1.5-4.5-3.2-6.2c-0.8-0.9-1-1.9-0.5-2.9c0.8-1.4,2.7-1.7,3.9-0.5c1.9,1.9,3.3,4.2,4.1,6.8c2.5,8.1-1.2,16.6-8.9,20.2   c-2.3,1.1-4.7,1.6-7.2,1.6c-1.1,0-2.1-0.8-2.3-1.8c-0.3-1.2,0.2-2.3,1.3-2.8c0.4-0.2,0.8-0.2,1.3-0.3c2.4-0.1,4.6-0.8,6.6-2.2   c0.7-0.5,1-1.2,0.8-2c-0.2-1.3-1.5-1.9-2.7-1.3c-0.8,0.3-1.5,0.8-2.3,1.1c-4.2,1.5-9-0.9-10.3-5.2   C210.6,276.3,210.6,276.1,210.6,276z"/>
		<path class="st23" d="M201.5,274.5c0-7.6,4.5-13.9,11.2-16.3c1.8-0.6,3.6-0.9,5.5-0.9c1.4,0,2.5,1,2.5,2.3c0.1,1.3-0.9,2.4-2.4,2.5   c-1.3,0.1-2.5,0.2-3.7,0.6c-4.2,1.5-6.9,4.4-7.9,8.8c-0.9,4.2,0.2,7.8,3.2,11c0.8,0.8,0.9,1.9,0.5,2.8c-0.4,0.9-1.3,1.4-2.4,1.3   c-0.6,0-1.1-0.3-1.6-0.8C203.2,282.5,201.6,278.6,201.5,274.5z"/>
		<path class="st23" d="M226.1,272c-5.2,0-10.3,0-15.5,0c0.3-1.2,0.8-2.2,1.5-3.1c1.4-1.7,3.2-2.7,5.4-2.9c2.4-0.2,4.4,0.5,6.2,2.1   C224.9,269.1,225.7,270.4,226.1,272z"/>
</g>
</svg>