<svg xmlns="http://www.w3.org/2000/svg" x="0px" y="0px" viewBox="0 -10 323.1 448.2" xml:space="preserve">
    <style type="text/css">
        .st1 {
            fill: #FFFFFF;
        }

        .st24 {
            fill: #fbf9f9;
        }

        .st7 {
            fill: #EFEFEF;
        }

        .st21 {
            fill: #d6d6d6;
        }

        .st13 {
            opacity: 0.1;
            fill: #FFFFFF;
        }

        .st6618 {
            fill: #ECF0F1;
        }

        .st35 {
            fill: #E0E0E0;
        }

        .st45 {
            fill: #E3E3E3;
        }

        .st51 {
            fill: #E1E1E1;
        }

        .st52 {
            fill: #FDFDFB;
        }

        .st625 {
            fill: #D1D1D1;
        }

        .st5 {
            fill: #606373;
        }

        .st4 {
            opacity: 0.1;
            fill: #a3a3a3;
        }

        .st6 {
            fill: #11113B;
        }

        .st8 {
            fill: #B1B1C9;
        }

        .st9 {
            fill: #DCDBEA;
            stroke: #8D8DAA;
            stroke-miterlimit: 10;
        }

        .st18 {
            fill: #8D8DAA;
        }

        .st12 {
            fill: none;
            stroke: #8D8DAA;
            stroke-miterlimit: 10;
        }

        .st11 {
            fill: #0052ff;
            stroke: #FFFFFF;
            stroke-miterlimit: 10;
        }

        .st14 {
            fill: #060423;
        }

        .st22 {
            fill: #ffffff24;
        }

        .st26 {
            fill: url(#SVGID_1_);
        }

        .st27 {
            fill: #2CFBFB;
        }

        .st47 {
            fill: #ffffff24;
        }

        .st1019 {
            fill: #882043;
        }

        .st1021 {
            opacity: 0.3;
            fill: #16DAE8;
        }

        .st1022 {
            opacity: 0.3;
            fill: #1FDBE7;
        }

        .st1023 {
            opacity: 0.5;
            fill: #BA8887;
        }

        .st1024 {
            fill: #212154;
        }

        .st1026 {
            fill: none;
        }

        .st1029 {
            fill: #5497D3;
        }

        .st1030 {
            fill: #2775CA;
        }

        .st1031 {
            fill: #FFDE55;
        }

        .st1032 {
            fill: #FFCE00;
        }

        .st1034 {
            fill: #E33F00;
        }

        .st10 {
            fill: none;
            stroke: #2CFBFB;
            stroke-width: 8;
            stroke-linecap: round;
            stroke-miterlimit: 10;
        }

        .st33 {
            fill: none;
            stroke: #2CFBFB;
            stroke-width: 2;
            stroke-linecap: round;
            stroke-miterlimit: 10;
        }

        .st716 {
            fill: #56256B;
        }

        .st717 {
            fill: #00A8E1;
        }

        .st718 {
            fill: #E26D83;
        }

        .st719 {
            fill: #D85C72;
        }

        .st720 {
            fill: #803743;
        }

        .st721 {
            fill: #0071CE;
        }

        .st6619 {
            fill: #F87F6E;
        }

        .st6620 {
            fill: #231F20;
        }

        .st6621 {
            fill: #212154;
        }

        .st32 {
            fill: #77788B;
        }

        .st38 {
            fill: #9A9AB7;
        }

        .st39 {
            fill: #060423;
            stroke: #FFFFFF;
            stroke-miterlimit: 10;
        }

        .st43 {
            fill: #212154;
        }

        .st54 {
            opacity: 0.3;
            fill: #B1B1C9;
        }

        .st55 {
            opacity: 0.3;
            fill: #FFFFFF;
        }

        .st615 {
            fill: #9B9BA2;
        }

        .st620 {
            fill: #FFD469;
        }

        .st621 {
            fill: #00B1FF;
        }

        .st622 {
            fill: #0096D1;
        }

        .st623 {
            fill: #727272;
        }

        .st624 {
            fill: #B2B2B2;
        }

        .st816 {
            fill: #9B9BA2;
        }

        .st820 {
            fill: #75B7B1;
        }

        .st823 {
            opacity: 0.8;
        }

        .st824 {
            opacity: 0.6;
        }

        .st826 {
            fill: none;
            stroke: #01DEEB;
            stroke-width: 2;
            stroke-miterlimit: 10;
        }

        .sta18 {
            fill: #9B9BA2;
        }

        .sta21 {
            opacity: 0.1;
            fill: #3AECFE;
        }

        .sta22 {
            opacity: 0.2;
            fill: #FFFFFF;
        }

        .sta23 {
            fill: #956EC4;
        }

        .sta24 {
            fill: #B77FD8;
        }

        .sta25 {
            fill: #6D2C92;
        }

        .sta26 {
            fill: #1C2042;
        }

        .stb1 {
            fill: #F87F6E;
        }

        .stb2 {
            fill: #D65649;
        }

        .stb6 {
            fill: #882043;
        }

        .sta27 {
            fill: none;
            stroke: #FFA81E;
            stroke-width: 15;
            stroke-linecap: round;
            stroke-linejoin: round;
            stroke-miterlimit: 10;
        }

        .sta28 {
            fill: none;
            stroke: #FFD92D;
            stroke-width: 15;
            stroke-linecap: round;
            stroke-linejoin: round;
            stroke-miterlimit: 10;
        }
    </style>
    <ellipse class="st4" cx="167.9" cy="412.2" rx="135.6" ry="16">
        <animate accumulate="none" additive="replace" attributeName="rx" calcMode="linear" dur="2s" fill="remove"
            keyTimes="0;0.5;1" repeatCount="indefinite" restart="always" values="115.6;135.6;115.6">
        </animate>
    </ellipse>
    <g>
        <path class="st5" d="M95.8,240C78.2,241.3,73,251.7,73,251.7c38.9,9.1,150.1,9.1,189.1,0c0,0-6.7-11.4-24.2-12.7
	C216.2,237.4,117,238.4,95.8,240z"></path>
        <path class="st18"
            d="M220.7,256.4c0.4-0.9,1.5-2,3.3-3.4c16.3-12.2,32.1-2.1,33.9-0.8C248.2,254.1,235.3,255.5,220.7,256.4z">
        </path>
        <path class="st18"
            d="M118.7,257.4c-0.4-0.9-1.5-2-3.3-3.4c-16.3-12.2-32.1-2.1-33.9-0.8C91.2,255.1,104.1,256.5,118.7,257.4z">
        </path>
        <path class="st6" d="M224.5,245.8c0,0,3.2-4.2-0.6-7.4s-108.2-1.5-112-0.3s-0.9,7.7-0.9,7.7c-3.2,5.3,1.2,7.8,1.2,7.8
	c-1.4,1.4,1.2,3.2,1.2,3.2l3.3,2.9l48.5-0.6l53.5,0.6l3.3-2.9c0,0,2.7-1.8,1.2-3.2C223.2,253.7,227.7,251.2,224.5,245.8z">
        </path>
        <path class="st7" d="M262.1,251.7c-38.9,9.1-150.1,9.1-189.1,0c0,0-6.4,101.1,50.2,116c0,0,21.6,5.3,44.3,5.1
	c22.8,0.2,44.3-5.1,44.3-5.1C268.5,352.8,262.1,251.7,262.1,251.7z"></path>
        <path class="st8" d="M233.1,278.6c-0.9-13.9-1.8-18.9-1.9-19.8v-0.2l0,0l0,0c0,0-0.6,0.1-1.8,0.2c-5.9,0.7-26.1,2.6-61.2,2.6
	s-55.3-1.9-61.2-2.6c-1.2-0.1-1.8-0.2-1.8-0.2l0,0l0,0v0.2c-0.2,0.9-1.1,6-1.9,19.8c-0.5,8.6,0,19.4,0,19.4s-0.1,19.3,12.2,34.8
	c0.9,1.2,2,2.4,3.1,3.5c2.7,2.8,5.1,5.2,7.9,7.3l0.1,0.1c0.1,0.1,0.2,0.1,0.3,0.2c0.9,0.6,1.8,1.2,2.8,1.8l0,0
	c0.3,0.2,0.7,0.4,1,0.6c0.2,0.1,0.5,0.3,0.7,0.4c0.1,0.1,0.2,0.1,0.3,0.2c7.1,3.4,17.3,5.2,36.1,5.2c0.1,0,0.1,0,0.2,0
	c0.1,0,0.1,0,0.2,0c0.1,0,0.1,0,0.2,0c0.1,0,0.1,0,0.2,0c18.8,0,29-1.8,36.1-5.2c0.1-0.1,0.2-0.1,0.3-0.2c0.3-0.1,0.5-0.2,0.7-0.4
	c0.4-0.2,0.7-0.4,1-0.6l0,0c1-0.6,1.9-1.2,2.8-1.8c0.1-0.1,0.2-0.1,0.3-0.2l0.1-0.1c2.8-2.1,5.2-4.5,7.9-7.3
	c1.1-1.1,2.1-2.3,3.1-3.5c12.3-15.5,12.2-34.8,12.2-34.8S233.6,287.2,233.1,278.6z"></path>
        <circle class="st9" cx="111.9" cy="264.7" r="3.8"></circle>
        <circle class="st9" cx="128.6" cy="333.2" r="3.8"></circle>
        <path class="st18" d="M229.4,258.8C229.4,258.8,229.3,258.8,229.4,258.8c-2.1,0.2-5.8,0.6-11.2,1c1.7,12.6,3.2,44.2-7.7,59.6
	c-14.7,20.9-60.4,39.3-87.2,21.7c1,0.9,2,1.8,3.1,2.6l0.1,0.1c0.1,0.1,0.2,0.1,0.3,0.2c0.9,0.6,1.8,1.2,2.8,1.8l0,0
	c0.3,0.2,0.7,0.4,1,0.6c0.2,0.1,0.5,0.3,0.7,0.4c0.1,0.1,0.2,0.1,0.3,0.2c7.1,3.4,17.3,5.2,36.1,5.2c0.1,0,0.1,0,0.2,0
	c0.1,0,0.1,0,0.2,0c0.1,0,0.1,0,0.2,0c0.1,0,0.1,0,0.2,0c18.8,0,29-1.8,36.1-5.2c0.1-0.1,0.2-0.1,0.3-0.2c0.3-0.1,0.5-0.2,0.7-0.4
	c0.4-0.2,0.7-0.4,1-0.6l0,0c1-0.6,1.9-1.2,2.8-1.8c0.1-0.1,0.2-0.1,0.3-0.2l0.1-0.1c2.8-2.1,5.2-4.5,7.9-7.3
	c1.1-1.1,2.1-2.3,3.1-3.5c12.3-15.5,12.2-34.8,12.2-34.8s0.5-10.8,0-19.4c-0.9-13.9-1.8-18.9-1.9-19.8v-0.2
	C231.1,258.6,230.5,258.7,229.4,258.8z"></path>
        <circle class="st11" cx="202.3" cy="286.4" r="21.6">
            <animate accumulate="none" additive="replace" attributeName="fill" calcMode="linear" dur="2s" fill="remove"
                keyTimes="0;0.5;1" repeatCount="indefinite" restart="always" values="#272362;#0052ff;#272362">
            </animate>
        </circle>
        <circle class="st9" cx="223.9" cy="264.7" r="3.8"></circle>
        <path class="st12" d="M262.1,251.7c-38.9,9.1-150.1,9.1-189.1,0c0,0-6.4,101.1,50.2,116c0,0,21.6,5.3,44.3,5.1
	c22.8,0.2,44.3-5.1,44.3-5.1C268.5,352.8,262.1,251.7,262.1,251.7z"></path>
        <path class="st13" d="M188.3,302.9c3.8,3.2,8.6,5.1,13.9,5.1c11.9,0,21.6-9.7,21.6-21.6c0-6.1-2.6-11.7-6.7-15.6
	c1.5,3.7,7.5,20.5-7.9,31.4C209.4,302.2,200.7,306.8,188.3,302.9z"></path>
        <path class="st1" d="M202.3,292.7c-3.5,0-6.3-2.8-6.3-6.3s2.8-6.3,6.3-6.3c3.1,0,5.7,2.3,6.2,5.3h6.4c-0.5-6.5-6-11.6-12.6-11.6
	c-7,0-12.7,5.7-12.7,12.7s5.7,12.7,12.7,12.7c6.6,0,12.1-5.1,12.6-11.6h-6.4C208,290.4,205.4,292.7,202.3,292.7z"></path>
        <circle class="st9" cx="208" cy="333.2" r="3.8"></circle>
        <path class="st14" d="M251.4,326c-10.7-6.7-21.1,11-21.1,11c-16.3,29.9-51.8,35.5-51.8,35.5l0,0c18.3-1.1,33.4-4.8,33.4-4.8
	c20.5-5.4,32.8-22.1,40-41.3C251.8,326.2,251.6,326.1,251.4,326z"></path>
        <path class="st14" d="M104.1,336.9c0,0-10.4-17.7-21.1-11c7.2,19.3,19.5,36.2,40.2,41.7c0,0,14.8,3.6,32.7,4.8
	C155.8,372.4,120.4,366.8,104.1,336.9z"></path>
        <path class="st12" d="M262.1,251.7c-38.9,9.1-150.1,9.1-189.1,0c0,0-6.4,101.1,50.2,116c0,0,21.6,5.3,44.3,5.1
	c22.8,0.2,44.3-5.1,44.3-5.1C268.5,352.8,262.1,251.7,262.1,251.7z"></path>
        <path class="st7" d="M268.8,18.2c-19-9-210.9,4.6-228.5,16.3c0,0-41,24.8-40.6,72.1l4,56.2c0,0,4.5,44.7,20.9,59.6
	s31.9,21.9,54.3,24.2c19.7,2,67,0.6,87.8-0.5l0,0.1c1,0,2.1-0.1,3.4-0.3c1.3-0.1,2.5-0.2,3.4-0.2l0-0.1c20.8-1.9,67.8-7.1,87-12
	c21.8-5.5,36.1-14.7,50.3-31.6c14.2-17,12.3-62,12.3-62l-4-56.2C312.8,37,268.8,18.2,268.8,18.2z"></path>
        <path class="st1"
            d="M0.2,106.4l2.3,31.9C6.1,62.8,48.7,38,48.7,38l-2.5-6.6c-2.1,1-3.9,2-5.3,2.9C40.8,34.3-0.2,59.1,0.2,106.4z">
        </path>
        <path class="st14" d="M275.7,199.8c-0.6,0.4-1.3,0.9-2,1.5c-4.9,3.7-13,9.7-40.4,14.9l-59.1,5.4l-8.1,0.6l-59.3,3
	c-27.8-1.2-36.7-6.1-42.1-9c-0.8-0.4-1.5-0.8-2.2-1.2c-18.9-10.7-23.2-44.5-23.4-45.9l-2.7-38c-1.7-19.5,1.6-24.8,2.1-25.5l0.3-0.1
	l0.3-0.7c3.5-6.7,12.7-12.4,20.1-16.9c1.1-0.7,2.2-1.3,3.2-2c26.4-13.4,75.7-19,92.4-20.6l8.1-0.6c16.7-0.8,66.3-2.2,94.4,7.3
	c1.1,0.4,2.3,1,3.6,1.5c8,3.5,18,7.7,22.3,14l0.4,0.6l0.3,0.1c0.6,0.6,4.6,5.5,5.6,24.9l2.7,38C292.5,152.5,292.9,186.5,275.7,199.8
	z"></path>
        <path class="st21" d="M268.8,18.2c-0.2-0.1-0.4-0.1-0.5-0.2l6.9,6.7c0,0,37.8,26,36,77.9c-1.8,51.8-5.9,91.6-45.7,117.7
	c-34.5,22.6-107.3,25.9-194.9,25.2c2.7,0.5,5.5,0.8,8.4,1.2c19.7,2,67,0.6,87.8-0.5l0,0.1c1,0,2.1-0.1,3.4-0.3
	c1.3-0.1,2.5-0.2,3.4-0.2l0-0.1c20.8-1.9,67.8-7.1,87-12c21.8-5.5,36.1-14.7,50.3-31.6c14.2-17,12.3-62,12.3-62l-4-56.2
	C312.8,37,268.8,18.2,268.8,18.2z"></path>
        <path class="st22" d="M85.1,218.7c0,0-26.9-1.7-33.6-31.6s-6.3-66.5-6.3-66.5s-1.3-13.3,21.2-24.4c13.8-6.8,49.5-21.9,100.1-24.2
	c31.9-1.5,84.6-4.2,111.6,16c0,0-137.6-30.4-198.5,34C79.5,122.1,35.4,167.3,85.1,218.7z"></path>
        <path class="st22"
            d="M238,95.9c0,0-150.8-22.6-165,81.2c0,0-14.6-63.5,79.5-82.7C152.5,94.4,205.6,86.7,238,95.9z"></path>
        <path class="st12" d="M268.8,18.2c-19-9-210.9,4.6-228.5,16.3c0,0-41,24.8-40.6,72.1l4,56.2c0,0,4.5,44.7,20.9,59.6
	s31.9,21.9,54.3,24.2c19.7,2,67,0.6,87.8-0.5l0,0.1c1,0,2.1-0.1,3.4-0.3c1.3-0.1,2.5-0.2,3.4-0.2l0-0.1c20.8-1.9,67.8-7.1,87-12
	c21.8-5.5,36.1-14.7,50.3-31.6c14.2-17,12.3-62,12.3-62l-4-56.2C312.8,37,268.8,18.2,268.8,18.2z"></path>
        <path class="st24" d="M153.4-0.4C79,3,40.5,31.5,40.5,31.5s4.5,2.6,7.7,6.6c3.1,4,7,8.5,19.5,12.7c15.9,5.3,89.4,1.2,89.4,1.2
	s73.5-6.2,88.3-13.8c11.8-5.9,15-10.9,17.5-15.3c2.6-4.4,6.6-7.7,6.6-7.7S227.5-7.6,153.4-0.4z"></path>
        <polygon class="st18" points="270.3,19 270.5,15.1 267,17.7 "></polygon>
        <path class="st7" d="M249.7,7.6c-11.5,8.4-49.7,33.9-90.3,37C110.7,48.3,49,37.7,49,37.7c-0.3,0.1-0.5,0.3-0.7,0.4
	c3.1,4,7.1,8.4,19.5,12.6c15.9,5.3,89.4,1.2,89.4,1.2s73.5-6.2,88.3-13.8c11.8-5.9,15-10.9,17.5-15.3c2.6-4.4,6.6-7.7,6.6-7.7
	S262.8,11.5,249.7,7.6z"></path>
        <path class="st12" d="M153.4-0.4C79,3,40.5,31.5,40.5,31.5s4.5,2.6,7.7,6.6c3.1,4,7,8.5,19.5,12.7c15.9,5.3,89.4,1.2,89.4,1.2
	s73.5-6.2,88.3-13.8c11.8-5.9,15-10.9,17.5-15.3c2.6-4.4,6.6-7.7,6.6-7.7S227.5-7.6,153.4-0.4z"></path>
        <linearGradient id="SVGID_1_" gradientUnits="userSpaceOnUse" x1="-133.0176" y1="155.419" x2="133.5611"
            y2="155.419" gradientTransform="matrix(0.9892 -0.1465 0.1465 0.9892 142.1772 -9.1212)">
            <stop offset="0" style="stop-color:#FFFFFF"></stop>
            <stop offset="0.9994" style="stop-color:#99AAD1"></stop>
        </linearGradient>
        <path class="st26" d="M294.7,112.7c-1.2-21.1-5.7-27-7.5-28.5c-5.2-7.1-15.7-11.7-24.2-15.3c-1.3-0.5-2.5-1-3.6-1.6l-0.2-0.1
	c-14.7-5-36.3-7.8-64.4-8.2c-13.6-0.2-25.4,0.2-32.1,0.5l0-0.1l-2.5,0.2c0,0-0.6,0.1-1.6,0.1s-1.5,0.1-1.6,0.1l-2.5,0.2l0,0.1
	c-6.6,0.6-18.4,1.8-31.9,4C95.1,68.6,74,74.4,60.2,81.4L60,81.5c-1,0.7-2.1,1.3-3.3,2c-7.9,4.8-17.6,10.8-21.8,18.6
	c-1.6,1.7-5.1,8.2-3.3,29.3l2.7,38l0,0.1c0.1,1.5,4.5,37.7,26,49.7l0.1,0.1c0.7,0.3,1.3,0.7,2.1,1.1c5.7,3.1,15.3,8.4,44.3,9.6
	l59.7-3l0,0.2l4.1-0.4l4.1-0.2l0-0.2l59.6-5.4c28.5-5.3,37.3-11.9,42.5-15.8c0.6-0.5,1.3-1,1.9-1.4l0.1-0.1
	c19.5-15.1,18.7-51.4,18.7-52.9l0-0.1L294.7,112.7z M275.7,199.8c-0.6,0.4-1.3,0.9-2,1.5c-4.9,3.7-13,9.7-40.4,14.9l-59.1,5.4
	l-8.1,0.6l-59.3,3c-27.8-1.2-36.7-6.1-42.1-9c-0.8-0.4-1.5-0.8-2.2-1.2c-18.9-10.7-23.2-44.5-23.4-45.9l-2.7-38
	c-1.7-19.5,1.6-24.8,2.1-25.5l0.3-0.1l0.3-0.7c3.5-6.7,12.7-12.4,20.1-16.9c1.1-0.7,2.2-1.3,3.2-2c26.4-13.4,75.7-19,92.4-20.6
	l8.1-0.6c16.7-0.8,66.3-2.2,94.4,7.3c1.1,0.4,2.3,1,3.6,1.5c8,3.5,18,7.7,22.3,14l0.4,0.6l0.3,0.1c0.6,0.6,4.6,5.5,5.6,24.9l2.7,38
	C292.5,152.5,292.9,186.4,275.7,199.8z"></path>
        <polygon class="st18" points="39.8,34.3 39.5,31.4 42.7,32.7 "></polygon>
        <path class="st5" d="M167.9,242.6"></path>
        <g>
            <path class="st1" d="M163.1,253.5h-20.2"></path>
        </g>

        <path class="st27" d="M167.9,205.5c4.7-0.5,8-4.7,7.5-9.4l-16.9,1.9C159,202.6,163.2,206,167.9,205.5z"></path>
        <path class="st5" d="M167.4,241.8"></path>
        <path class="st10" d="M248.2,168.4c-2.4-9.8-11.8-16.5-22.1-15.4c-10.3,1.1-17.9,9.8-18.2,19.8">
            <animateTransform attributeName="transform" type="translate" repeatCount="indefinite" dur="0.4s"
                keyTimes="0;0.5;1" values="0 -3;0 2;0 -3"></animateTransform>
        </path>
        <path class="st10" d="M122.7,182.3c-2.4-9.8-11.8-16.5-22.1-15.4c-10.3,1.1-17.9,9.8-18.2,19.8">
            <animateTransform attributeName="transform" type="translate" repeatCount="indefinite" dur="0.4s"
                keyTimes="0;0.5;1" values="0 -3;0 2;0 -3"></animateTransform>
        </path>
        <path class="st5" d="M121.2,12.7"></path>
        <g>
            <path class="st6618" d="M248.4,289H88.5c-6.4,0-11.5,5.2-11.5,11.5v40.4c0,6.4,5.2,11.5,11.5,11.5h159.9c6.4,0,11.5-5.2,11.5-11.5
		v-40.4C259.9,294.1,254.7,289,248.4,289z"></path>
            <rect x="114.8" y="230" class="st6619" width="107.3" height="59"></rect>
            <rect x="134.3" y="249.5" class="st6618" width="22.9" height="20"></rect>
            <rect x="146.8" y="181.7" class="st27" width="41.5" height="24.4"></rect>
            <g>
                <g>
                    <path class="st6620" d="M248.4,284.1H227V230c0-2.7-2.2-4.9-4.9-4.9h-49.7v-14.1h15.9c2.7,0,4.9-2.2,4.9-4.9v-24.4
				c0-2.7-2.2-4.9-4.9-4.9h-41.5c-2.7,0-4.9,2.2-4.9,4.9v24.4c0,2.7,2.2,4.9,4.9,4.9h15.9v14.1h-47.8c-2.7,0-4.9,2.2-4.9,4.9v54.1
				H88.5c-9,0-16.4,7.3-16.4,16.4v40.4c0,9,7.3,16.4,16.4,16.4h159.9c9,0,16.4-7.3,16.4-16.4v-40.4
				C264.8,291.4,257.4,284.1,248.4,284.1z M151.6,186.5h31.7v14.6h-31.7V186.5z M119.7,234.8h97.5v49.3h-97.5V234.8z M107.5,347.5
				h121.9 M255,340.9c0,3.7-3,6.6-6.6,6.6h-9.2H97.7h-9.2c-3.7,0-6.6-3-6.6-6.6v-40.4c0-3.7,3-6.6,6.6-6.6h159.9
				c3.7,0,6.6,3,6.6,6.6V340.9L255,340.9z"></path>
                    <path class="st6621" d="M157.2,244.6h-22.9c-2.7,0-4.9,2.2-4.9,4.9v20c0,2.7,2.2,4.9,4.9,4.9h22.9c2.7,0,4.9-2.2,4.9-4.9v-20
				C162.1,246.8,159.9,244.6,157.2,244.6z M152.3,264.6h-13.2v-10.2h13.2V264.6z"></path>
                    <rect x="197.7" y="245.6" class="st6621" width="9.8" height="9.8"></rect>
                    <rect x="197.7" y="265.1" class="st6621" width="9.8" height="9.8"></rect>
                    <rect x="177.7" y="245.6" class="st6621" width="9.8" height="9.8"></rect>
                    <rect x="177.7" y="265.1" class="st6621" width="9.8" height="9.8"></rect>
                </g>
            </g>
            <path class="st14" d="M220.8,339.2H117.5c-10.2,0-18.5-8.3-18.5-18.5v-0.2c0-10.2,8.3-18.5,18.5-18.5h103.3
		c10.2,0,18.5,8.3,18.5,18.5v0.2C239.3,331,231,339.2,220.8,339.2z"></path>
            <path class="st27" d="M117.5,309.2c-6.3,0-11.5,5.1-11.5,11.5v0.2c0,6.3,5.1,11.5,11.5,11.5h103.3c6.3,0,11.5-5.1,11.5-11.5v-0.2
		c0-6.3-5.1-11.5-11.5-11.5H117.5z"></path>
            <path class="st14" d="M221.3,324.2H116.6c-1.9,0-3.5-1.6-3.5-3.5c0-1.9,1.6-3.5,3.5-3.5h104.7c1.9,0,3.5,1.6,3.5,3.5
		C224.8,322.6,223.2,324.2,221.3,324.2z"></path>
        </g><svg xmlns="http://www.w3.org/2000/svg" xmlns:xlink="http://www.w3.org/1999/xlink"
            style="margin:auto;background:#fff;display:block;" width="1500px" height="1850px" viewBox="-40 0 800 800"
            preserveAspectRatio="xMidYMid">
            <defs>
                <clipPath id="ldio-ounten1u6f-cp">
                    <rect x="0" y="-105" width="100" height="182.235"></rect>
                </clipPath>
            </defs>

            <g clip-path="url(#ldio-ounten1u6f-cp)">
                <g>
                    <animateTransform attributeName="transform" type="translate" repeatCount="indefinite" dur="0.8s"
                        values="0 150;0 -50" keyTimes="0;1"></animateTransform>
                    <g transform="translate(0 -75)">
                        <path fill="#ffb856"
                            d="M50 25c-13.785 0-25 11.215-25 25s11.215 25 25 25s25-11.216 25-25S63.784 25 50 25z M50 70.845 c-11.494 0-20.844-9.351-20.844-20.845S38.506 29.155 50 29.155S70.845 38.506 70.845 50S61.493 70.845 50 70.845z">
                        </path>
                        <path fill="#ffd55d"
                            d="M50 29.155c-11.494 0-20.844 9.351-20.844 20.844S38.506 70.845 50 70.845S70.845 61.493 70.845 50S61.493 29.155 50 29.155 z">
                        </path>
                        <path fill="#ffff34"
                            d="M48.11 62.796v-1.64c-1.535-0.068-3.041-0.358-4.281-0.765c-1.029-0.337-1.611-1.421-1.342-2.469 l0.043-0.167c0.297-1.158 1.521-1.781 2.653-1.395c1.152 0.392 2.465 0.662 3.855 0.662c2.032 0 3.421-0.783 3.421-2.21 c0-1.354-1.14-2.21-3.778-3.101c-3.814-1.283-6.416-3.066-6.416-6.523c0-3.137 2.211-5.596 6.025-6.345v-1.639 c0-0.965 0.782-1.746 1.746-1.746h0c0.965 0 1.746 0.782 1.746 1.746v1.39c1.275 0.057 2.327 0.226 3.21 0.459 c1.107 0.291 1.782 1.404 1.498 2.513v0c-0.287 1.118-1.44 1.803-2.546 1.473c-0.843-0.251-1.887-0.453-3.16-0.453 c-2.317 0-3.066 0.998-3.066 1.997c0 1.176 1.247 1.924 4.277 3.065c4.241 1.498 5.953 3.458 5.953 6.666 c0 3.173-2.246 5.882-6.345 6.594v1.89c0 0.965-0.782 1.746-1.746 1.746h-0.001C48.892 64.543 48.11 63.761 48.11 62.796z">
                        </path>
                    </g>
                </g>
            </g>

        </svg>

        <g>
            <path class="st21" d="M264.4,251.9c0,0-9.3,14.2-20.6,20.7c-14.3,8.2-20.5,12.8-22.4,18c-1.9,5.1,6.1,9.4,17.6,8.2
		s19.8-8.3,25.2-14c5.4-5.7,17.3-10.7,12.8-24.8C272.5,246,264.4,251.9,264.4,251.9z"></path>
            <path class="st12" d="M264.4,251.9c0,0-9.3,14.2-20.6,20.7c-14.3,8.2-20.5,12.8-22.4,18c-1.9,5.1,6.1,9.4,17.6,8.2s19.8-8.3,25.2-14
		c5.4-5.7,17.3-10.7,12.8-24.8C272.5,246,264.4,251.9,264.4,251.9z"></path>
            <path class="st7" d="M264.4,251.9c0,0-9.3,14.2-20.6,20.7c-9.2,5.3-15.1,9.1-18.6,12.5c3.2,11.7,17,8.9,20,7.6
		c3.4-1.6,8-6.4,13.6-10.8c5.6-4.3,9.6-13.2,10.2-18.2c0.3-2.9-1.2-8.4-3.1-12.6C265,251.5,264.4,251.9,264.4,251.9z">
            </path>
        </g>
        <g>
            <path class="st21" d="M70.1,252.2c0,0,9,20.1,26.5,27c19.1,7.6,16.7,12.4,15.9,14.3c-0.8,1.8-2.9,10.2-16.3,8.4
		c-13.4-1.8-33-18.3-37.1-26.7s2.4-20.8,4.5-23S70.1,252.2,70.1,252.2z"></path>
            <path class="st7" d="M70.1,252.2c0,0-4.5-2.2-6.5,0s-8.6,14.6-4.5,23c2.7,5.5,11.9,14.4,21.8,20.4c3.1,0.1,6.3,0.2,9.7,0.1
		c13.9-0.4,13.9-3.8,15.1-6.8c0.6-1.3-1.4-4.4-3.7-7.4c-1.6-0.7-3.4-1.5-5.4-2.3C79,272.3,70.1,252.2,70.1,252.2z"></path>
            <path class="st12" d="M70.1,252.2c0,0,9,20.1,26.5,27c19.1,7.6,16.7,12.4,15.9,14.3c-0.8,1.8-2.9,10.2-16.3,8.4
		c-13.4-1.8-33-18.3-37.1-26.7s2.4-20.8,4.5-23S70.1,252.2,70.1,252.2z"></path>
        </g>
    </g>
    <animateTransform attributeName="transform" type="translate" repeatCount="indefinite" dur="2s" keyTimes="0;0.5;1"
        values="0 -3;0 5;0 -3"></animateTransform>
</svg>