<?xml version="1.0" encoding="utf-8"?>
<!-- Generator: Adobe Illustrator 27.0.0, SVG Export Plug-In . SVG Version: 6.00 Build 0)  -->
<svg version="1.1" id="图层_1" xmlns="http://www.w3.org/2000/svg" xmlns:xlink="http://www.w3.org/1999/xlink" x="0px" y="0px"
	 viewBox="0 0 446.1 498.1" style="enable-background:new 0 0 446.1 498.1;" xml:space="preserve">
<style type="text/css">
	.st0{opacity:0.1;fill:#A3A3A3;enable-background:new    ;}
	.st1{fill:#606373;}
	.st2{fill:#11113B;}
	.st3{fill:#EFEFEF;}
	.st4{fill:#B1B1C9;}
	.st5{fill:#DCDBEA;stroke:#8D8DAA;stroke-miterlimit:10;}
	.st6{fill:#8D8DAA;}
	.st7{fill:#0052FF;stroke:#FFFFFF;stroke-miterlimit:10;}
	.st8{fill:none;stroke:#8D8DAA;stroke-miterlimit:10;}
	.st9{opacity:0.1;fill:#FFFFFF;enable-background:new    ;}
	.st10{fill:#060423;}
	.st11{fill:#FFFFFF;}
	.st12{fill:#D6D6D6;}
	.st13{fill:#FBF9F9;}
	.st14{fill:url(#SVGID_1_);}
	.st15{fill:#2CFBFB;}
	.st16{fill:none;stroke:#2CFBFB;stroke-width:8;stroke-linecap:round;stroke-miterlimit:10;}
	.st17{fill:#9B9BA2;}
	.st18{fill:none;stroke:#2CFBFB;stroke-width:2;stroke-linecap:round;stroke-miterlimit:10;}
	.st19{opacity:0.1;fill:#3AECFE;enable-background:new    ;}
	.st20{opacity:0.2;fill:#FFFFFF;enable-background:new    ;}
	.st21{fill:#956EC4;}
	.st22{fill:#B77FD8;}
	.st23{fill:#6D2C92;}
	.st24{fill:#1C2042;}
	.st25{fill:none;stroke:#FFA81E;stroke-width:15;stroke-linecap:round;stroke-linejoin:round;stroke-miterlimit:10;}
	.st26{fill:none;stroke:#FFD92D;stroke-width:15;stroke-linecap:round;stroke-linejoin:round;stroke-miterlimit:10;}
</style>
<ellipse class="st0" cx="211.7" cy="482.1" rx="135.6" ry="16">
<animate  accumulate="none" additive="replace" attributeName="rx" calcMode="linear" dur="2s" fill="remove" keyTimes="0;0.5;1" repeatCount="indefinite" rest10art="always" restart="always" values="115.6;135.6;115.6">
	</animate>
</ellipse>
<g>
	<path class="st1" d="M130.3,313.7c-17.6,1.3-22.8,11.7-22.8,11.7c38.9,9.1,150.1,9.1,189.1,0c0,0-6.7-11.4-24.2-12.7
		C250.7,311.1,151.5,312.1,130.3,313.7z"/>
	<path class="st2" d="M259,319.5c0,0,3.2-4.2-0.6-7.4c-3.8-3.2-108.2-1.5-112-0.3s-0.9,7.7-0.9,7.7c-3.2,5.3,1.2,7.8,1.2,7.8
		c-1.4,1.4,1.2,3.2,1.2,3.2l3.3,2.9l48.5-0.6l53.5,0.6l3.3-2.9c0,0,2.7-1.8,1.2-3.2C257.7,327.4,262.2,324.9,259,319.5z"/>
	<path class="st3" d="M296.6,325.4c-38.9,9.1-150.1,9.1-189.1,0c0,0-6.4,101.1,50.2,116c0,0,21.6,5.3,44.3,5.1
		c22.8,0.2,44.3-5.1,44.3-5.1C303,426.5,296.6,325.4,296.6,325.4z"/>
	<path class="st4" d="M267.6,352.3c-0.9-13.9-1.8-18.9-1.9-19.8v-0.2l0,0l0,0c0,0-0.6,0.1-1.8,0.2c-5.9,0.7-26.1,2.6-61.2,2.6
		s-55.3-1.9-61.2-2.6c-1.2-0.1-1.8-0.2-1.8-0.2l0,0l0,0v0.2c-0.2,0.9-1.1,6-1.9,19.8c-0.5,8.6,0,19.4,0,19.4s-0.1,19.3,12.2,34.8
		c0.9,1.2,2,2.4,3.1,3.5c2.7,2.8,5.1,5.2,7.9,7.3l0.1,0.1c0.1,0.1,0.2,0.1,0.3,0.2c0.9,0.6,1.8,1.2,2.8,1.8l0,0
		c0.3,0.2,0.7,0.4,1,0.6c0.2,0.1,0.5,0.3,0.7,0.4c0.1,0.1,0.2,0.1,0.3,0.2c7.1,3.4,17.3,5.2,36.1,5.2c0.1,0,0.1,0,0.2,0
		c0.1,0,0.1,0,0.2,0c0.1,0,0.1,0,0.2,0c0.1,0,0.1,0,0.2,0c18.8,0,29-1.8,36.1-5.2c0.1-0.1,0.2-0.1,0.3-0.2c0.3-0.1,0.5-0.2,0.7-0.4
		c0.4-0.2,0.7-0.4,1-0.6l0,0c1-0.6,1.9-1.2,2.8-1.8c0.1-0.1,0.2-0.1,0.3-0.2l0.1-0.1c2.8-2.1,5.2-4.5,7.9-7.3
		c1.1-1.1,2.1-2.3,3.1-3.5c12.3-15.5,12.2-34.8,12.2-34.8S268.1,360.9,267.6,352.3z"/>
	<circle class="st5" cx="146.4" cy="338.4" r="3.8"/>
	<circle class="st5" cx="163.1" cy="406.9" r="3.8"/>
	<path class="st6" d="M263.9,332.5C263.9,332.5,263.8,332.5,263.9,332.5c-2.1,0.2-5.8,0.6-11.2,1c1.7,12.6,3.2,44.2-7.7,59.6
		c-14.7,20.9-60.4,39.3-87.2,21.7c1,0.9,2,1.8,3.1,2.6l0.1,0.1c0.1,0.1,0.2,0.1,0.3,0.2c0.9,0.6,1.8,1.2,2.8,1.8l0,0
		c0.3,0.2,0.7,0.4,1,0.6c0.2,0.1,0.5,0.3,0.7,0.4c0.1,0.1,0.2,0.1,0.3,0.2c7.1,3.4,17.3,5.2,36.1,5.2c0.1,0,0.1,0,0.2,0
		c0.1,0,0.1,0,0.2,0c0.1,0,0.1,0,0.2,0c0.1,0,0.1,0,0.2,0c18.8,0,29-1.8,36.1-5.2c0.1-0.1,0.2-0.1,0.3-0.2c0.3-0.1,0.5-0.2,0.7-0.4
		c0.4-0.2,0.7-0.4,1-0.6l0,0c1-0.6,1.9-1.2,2.8-1.8c0.1-0.1,0.2-0.1,0.3-0.2l0.1-0.1c2.8-2.1,5.2-4.5,7.9-7.3
		c1.1-1.1,2.1-2.3,3.1-3.5c12.3-15.5,12.2-34.8,12.2-34.8s0.5-10.8,0-19.4c-0.9-13.9-1.8-18.9-1.9-19.8v-0.2
		C265.6,332.3,265,332.4,263.9,332.5z"/>
	
		<ellipse transform="matrix(0.1602 -0.9871 0.9871 0.1602 -156.5814 536.1607)" class="st7" cx="236.8" cy="360.1" rx="21.6" ry="21.6">
	
		<animate  accumulate="none" additive="replace" attributeName="fill" calcMode="linear" dur="2s" fill="remove" keyTimes="0;0.5;1" repeatCount="indefinite" restart="always" values="#272362;#0052ff;#272362">
		</animate>
	</ellipse>
	<circle class="st5" cx="258.4" cy="338.4" r="3.8"/>
	<path class="st8" d="M296.6,325.4c-38.9,9.1-150.1,9.1-189.1,0c0,0-6.4,101.1,50.2,116c0,0,21.6,5.3,44.3,5.1
		c22.8,0.2,44.3-5.1,44.3-5.1C303,426.5,296.6,325.4,296.6,325.4z"/>
	<path class="st9" d="M222.8,376.6c3.8,3.2,8.6,5.1,13.9,5.1c11.9,0,21.6-9.7,21.6-21.6c0-6.1-2.6-11.7-6.7-15.6
		c1.5,3.7,7.5,20.5-7.9,31.4C243.9,375.9,235.2,380.5,222.8,376.6z"/>
	<circle class="st5" cx="242.5" cy="406.9" r="3.8"/>
	<path class="st10" d="M285.9,399.7c-10.7-6.7-21.1,11-21.1,11c-16.3,29.9-51.8,35.5-51.8,35.5l0,0c18.3-1.1,33.4-4.8,33.4-4.8
		c20.5-5.4,32.8-22.1,40-41.3C286.3,399.9,286.1,399.8,285.9,399.7z"/>
	<path class="st10" d="M138.6,410.6c0,0-10.4-17.7-21.1-11c7.2,19.3,19.5,36.2,40.2,41.7c0,0,14.8,3.6,32.7,4.8
		C190.3,446.1,154.9,440.5,138.6,410.6z"/>
	<path class="st6" d="M153.2,330c-0.4-0.9-1.5-2-3.3-3.4c-16.3-12.2-32.1-2.1-33.9-0.8C125.7,327.7,138.6,329.1,153.2,330z"/>
	<path class="st6" d="M261.3,330c0.4-0.9,1.5-2,3.3-3.4c16.3-12.2,32.1-2.1,33.9-0.8C288.8,327.7,275.9,329.1,261.3,330z"/>
	<path class="st8" d="M296.6,325.4c-38.9,9.1-150.1,9.1-189.1,0c0,0-6.4,101.1,50.2,116c0,0,21.6,5.3,44.3,5.1
		c22.8,0.2,44.3-5.1,44.3-5.1C303,426.5,296.6,325.4,296.6,325.4z"/>
	<path class="st3" d="M303.2,92c-19-9-210.9,4.6-228.5,16.3c0,0-41,24.8-40.6,72.1l4,56.2c0,0,4.5,44.7,20.9,59.6
		c16.4,14.8,32,21.8,54.4,24.2c19.7,2,67,0.6,87.8-0.5v0.1c1,0,2.1-0.1,3.4-0.3c1.3-0.1,2.5-0.2,3.4-0.2v-0.1
		c20.8-1.9,67.8-7.1,87-12c21.8-5.5,36.1-14.7,50.3-31.6c14.2-17,12.3-62,12.3-62l-4-56.2C347.3,110.7,303.2,92,303.2,92z"/>
	<path class="st11" d="M34.7,180.2l2.3,31.9c3.6-75.5,46.2-100.4,46.2-100.4l-2.5-6.6c-2.1,1-3.9,2-5.3,2.9
		C75.2,108.1,34.2,132.8,34.7,180.2z"/>
	<path class="st10" d="M310.2,273.5c-0.6,0.4-1.3,0.9-2,1.5c-4.9,3.7-13,9.7-40.4,14.9l-59.1,5.4l-8.1,0.6l-59.3,3
		c-27.8-1.2-36.7-6.1-42.1-9c-0.8-0.4-1.5-0.8-2.2-1.2c-18.9-10.7-23.2-44.5-23.4-45.9l-2.7-38c-1.7-19.5,1.6-24.8,2.1-25.5l0.3-0.1
		l0.3-0.7c3.5-6.7,12.7-12.4,20.1-16.9c1.1-0.7,2.2-1.3,3.2-2c26.4-13.4,75.7-19,92.4-20.6l8.1-0.6c16.7-0.8,66.3-2.2,94.4,7.3
		c1.1,0.4,2.3,1,3.6,1.5c8,3.5,18,7.7,22.3,14l0.4,0.6l0.3,0.1c0.6,0.6,4.6,5.5,5.6,24.9l2.7,38C327,226.2,327.4,260.3,310.2,273.5z
		"/>
	<path class="st12" d="M303.2,92c-0.2-0.1-0.4-0.1-0.5-0.2l6.9,6.7c0,0,37.8,26,36,77.9c-1.8,51.8-5.9,91.6-45.7,117.7
		C265.4,316.7,192.6,320,105,319.3c2.7,0.5,5.5,0.8,8.4,1.2c19.7,2,67,0.6,87.8-0.5v0.1c1,0,2.1-0.1,3.4-0.3
		c1.3-0.1,2.5-0.2,3.4-0.2v-0.1c20.8-1.9,67.8-7.1,87-12c21.8-5.5,36.1-14.7,50.3-31.6s12.3-62,12.3-62l-4-56.2
		C347.3,110.7,303.2,92,303.2,92z"/>
	<path d="M119.5,292.5c0,0-26.9-1.7-33.6-31.6s-6.3-66.5-6.3-66.5s-1.3-13.3,21.2-24.4c13.8-6.8,49.5-21.9,100.1-24.2
		c31.9-1.5,84.6-4.2,111.6,16c0,0-137.6-30.4-198.5,34C114,195.8,69.9,241.1,119.5,292.5z"/>
	<path d="M272.5,169.6c0,0-150.8-22.6-165,81.2c0,0-14.6-63.5,79.5-82.7C186.9,168.1,240.1,160.5,272.5,169.6z"/>
	<path class="st8" d="M303.2,92c-19-9-210.9,4.6-228.5,16.3c0,0-41,24.8-40.6,72.1l4,56.2c0,0,4.5,44.7,20.9,59.6
		c16.4,14.8,32,21.8,54.4,24.2c19.7,2,67,0.6,87.8-0.5v0.1c1,0,2.1-0.1,3.4-0.3c1.3-0.1,2.5-0.2,3.4-0.2v-0.1
		c20.8-1.9,67.8-7.1,87-12c21.8-5.5,36.1-14.7,50.3-31.6c14.2-17,12.3-62,12.3-62l-4-56.2C347.3,110.7,303.2,92,303.2,92z"/>
	<path class="st13" d="M187.9,73.4c-74.4,3.3-113,31.9-113,31.9s4.5,2.6,7.7,6.6c3.1,4,7,8.5,19.5,12.7c15.9,5.3,89.4,1.2,89.4,1.2
		s73.5-6.2,88.3-13.8c11.8-5.9,15-10.9,17.5-15.3c2.6-4.4,6.6-7.7,6.6-7.7S262,66.1,187.9,73.4z"/>
	<polygon class="st6" points="304.8,92.8 305,88.9 301.4,91.4 	"/>
	<path class="st3" d="M284.2,81.4c-11.5,8.4-49.7,33.9-90.3,37c-48.7,3.7-110.4-6.9-110.4-6.9c-0.3,0.1-0.5,0.3-0.7,0.4
		c3.1,4,7.1,8.4,19.5,12.6c15.9,5.3,89.4,1.2,89.4,1.2s73.5-6.2,88.3-13.8c11.8-5.9,15-10.9,17.5-15.3c2.6-4.4,6.6-7.7,6.6-7.7
		S297.3,85.3,284.2,81.4z"/>
	<path class="st8" d="M187.9,73.4c-74.4,3.3-113,31.9-113,31.9s4.5,2.6,7.7,6.6c3.1,4,7,8.5,19.5,12.7c15.9,5.3,89.4,1.2,89.4,1.2
		s73.5-6.2,88.3-13.8c11.8-5.9,15-10.9,17.5-15.3c2.6-4.4,6.6-7.7,6.6-7.7S262,66.1,187.9,73.4z"/>
	
		<linearGradient id="SVGID_1_" gradientUnits="userSpaceOnUse" x1="-126.5414" y1="261.3629" x2="140.1426" y2="261.3629" gradientTransform="matrix(0.9892 -0.1465 -0.1465 -0.9892 231.2168 477.7693)">
		<stop  offset="0" style="stop-color:#000000"/>
		<stop  offset="0.9994" style="stop-color:#000000"/>
	</linearGradient>
	<path class="st14" d="M329.2,186.5c-1.2-21.1-5.7-27-7.5-28.5c-5.2-7.1-15.7-11.7-24.2-15.3c-1.3-0.5-2.5-1-3.6-1.6l-0.2-0.1
		c-14.7-5-36.3-7.8-64.4-8.2c-13.6-0.2-25.4,0.2-32.1,0.5v-0.1l-2.5,0.2c0,0-0.6,0.1-1.6,0.1s-1.5,0.1-1.6,0.1l-2.5,0.2v0.1
		c-6.6,0.6-18.4,1.8-31.9,4c-27.7,4.4-48.7,10.2-62.6,17.2l-0.2,0.1c-1,0.7-2.1,1.3-3.3,2c-7.9,4.8-17.6,10.8-21.8,18.6
		c-1.6,1.7-5.1,8.2-3.3,29.3l2.7,38v0.1c0.1,1.5,4.5,37.7,26,49.7l0.1,0.1c0.7,0.3,1.3,0.7,2.1,1.1c5.7,3.1,15.3,8.4,44.3,9.6
		l59.7-3v0.2l4.1-0.4l4.1-0.2v-0.2l59.6-5.4c28.5-5.3,37.3-11.9,42.5-15.8c0.6-0.5,1.3-1,1.9-1.4l0.1-0.1
		c19.5-15.1,18.7-51.4,18.7-52.9v-0.1L329.2,186.5z M310.2,273.5c-0.6,0.4-1.3,0.9-2,1.5c-4.9,3.7-13,9.7-40.4,14.9l-59.1,5.4
		l-8.1,0.6l-59.3,3c-27.8-1.2-36.7-6.1-42.1-9c-0.8-0.4-1.5-0.8-2.2-1.2c-18.9-10.7-23.2-44.5-23.4-45.9l-2.7-38
		c-1.7-19.5,1.6-24.8,2.1-25.5l0.3-0.1l0.3-0.7c3.5-6.7,12.7-12.4,20.1-16.9c1.1-0.7,2.2-1.3,3.2-2c26.4-13.4,75.7-19,92.4-20.6
		l8.1-0.6c16.7-0.8,66.3-2.2,94.4,7.3c1.1,0.4,2.3,1,3.6,1.5c8,3.5,18,7.7,22.3,14l0.4,0.6l0.3,0.1c0.6,0.6,4.6,5.5,5.6,24.9l2.7,38
		C327,226.2,327.3,260.2,310.2,273.5z"/>
	<polygon class="st6" points="74.2,108.1 74,105.2 77.1,106.5 	"/>
	<path class="st1" d="M202.3,316.4"/>
	<g>
		<path class="st11" d="M197.5,327.2h-20.2"/>
	</g>
	<path class="st15" d="M202.3,279.2c4.7-0.5,8-4.7,7.5-9.4l-16.9,1.9C193.4,276.4,197.7,279.7,202.3,279.2z"/>
	<path class="st1" d="M201.8,315.5"/>
	<path class="st16" d="M282.7,242.2c-2.4-9.8-11.8-16.5-22.1-15.4c-10.3,1.1-17.9,9.8-18.2,19.8"/>
	<polyline class="st16" points="157.2,256.1 135.1,240.7 116.9,260.5 	">
	
		<animateTransform  accumulate="none" additive="replace" attributeName="transform" calcMode="linear" dur="0.4s" fill="remove" keyTimes="0;0.5;1" repeatCount="indefinite" restart="always" type="translate" values="0 -3;0 2;0 -3">
		</animateTransform>
	</polyline>
	<path class="st17" d="M107.7,325.8c0.7-0.2,1.4-0.4,2.1-0.5c3,0.6,6.2,1.2,9.9,1.7l2.3,1.6c0,0,1.7,45-1.5,51.3
		c-1.8,3.5-4.5,5.6-6.6,6.8C106.6,359.4,107.4,331.3,107.7,325.8z"/>
	<path class="st3" d="M108.2,319c0,0-10,11-16.1,45.3c0,0-1.2,9.1,3.4,12.9c4.3,3.5,8.7-1.8,10.4-4.5c3.5-5.3,4.1-10,6.5-21.3
		s10.6-27,10.6-27l-11.1-2.2L108.2,319z"/>
	<path class="st12" d="M123.1,324.3c0,0-8.2,15.8-10.6,27c-2.4,11.3-3,16-6.5,21.3c-0.8,1.2-2.2,3-3.8,4.2c-0.2-1.3-0.4-2.7-0.5-4.1
		c-1.8-19.9,11.1-39.4,18.7-49L123.1,324.3z"/>
	<path class="st8" d="M108.2,319c0,0-10,11-16.1,45.3c0,0-1.2,9.1,3.4,12.9c4.3,3.5,8.7-1.8,10.4-4.5c3.5-5.3,4.1-10,6.5-21.3
		s10.6-27,10.6-27l-11.1-2.2L108.2,319z"/>
	<path class="st18" d="M221.4,322.6c0,0-76.6,7.5-121.8-2.5c-43.2-9.6-68.2-24.9-82.5-56.2S-29.5,136.7,64.7,52.3
		c28-25.1,76.1-41.4,139.9-40.2c77.5,1.5,130.3,40.9,152.1,71.5c26,36.6,64,189.5-53.3,227.7C285.5,316.7,264.9,320.5,221.4,322.6z"
		/>
	<path class="st19" d="M221.4,322.6c0,0-76.6,7.5-121.8-2.5c-43.2-9.6-68.2-24.9-82.5-56.2S-29.5,136.7,64.7,52.3
		c28-25.1,76.1-41.4,139.9-40.2c77.5,1.5,130.3,40.9,152.1,71.5c26,36.6,64,189.5-53.3,227.7C285.5,316.7,264.9,320.5,221.4,322.6z"
		/>
	<path class="st20" d="M328.3,69.7c0,0-124.9-40.6-174.7-9.7s-62,69.1-66.2,111.8S37.6,268.4,20.1,229c0,0-29.6-115.5,76.5-176.1
		C215.6-15.1,328.3,69.7,328.3,69.7z"/>
	<g>
		<path class="st12" d="M308.4,319.4c0,0-3.6,1-4.7,5.2s-0.5,7.9,0.3,9.5c2,4,3.4,4.9,7.6,5.3c5.6,0.5,28.7,6.2,46.8-13.4
			c0,0,6.3-12.5-2-15.3c0,0-7.1-1.6-13.6,1C336.3,314.3,317.4,319.8,308.4,319.4z"/>
		<path class="st3" d="M337.1,333.9c4.7-1.7,11.9-8.9,13.7-12.3c1.8-3.5-3.7-8.8-3.7-8.8s-1-0.7-2.4-1.6c-0.6,0.2-1.2,0.4-1.9,0.6
			c-6.5,2.6-25.3,8.1-34.4,7.7c0,0-3.6,1-4.7,5.2c-0.3,1.1-0.4,2.2-0.5,3.2c1.5,2.7,3.2,4.9,4,5.5c1.9,1.2,3.4,1.4,6.5,2.4
			C316.9,336.6,333.2,335.3,337.1,333.9z"/>
		<path class="st8" d="M308.4,319.4c0,0-3.6,1-4.7,5.2s-0.5,7.9,0.3,9.5c2,4,3.4,4.9,7.6,5.3c5.6,0.5,28.7,6.2,46.8-13.4
			c0,0,6.3-12.5-2-15.3c0,0-7.1-1.6-13.6,1C336.3,314.3,317.4,319.8,308.4,319.4z"/>
	</g>
	<g>
		<circle class="st21" cx="307" cy="234.8" r="80.8"/>
		<path class="st22" d="M262.5,288c-31.6-31.6-31.6-82.7,0-114.3c7.8-7.8,16.8-13.7,26.4-17.6c-14.3,3.3-27.9,10.5-39.1,21.6
			c-31.6,31.6-31.6,82.7,0,114.3c23.8,23.8,58.6,29.6,87.9,17.6C311.5,315.6,282.9,308.4,262.5,288z"/>
		<path class="st23" d="M374.9,191l7.8-7.8c3.4-3.4,3.4-8.8,0-12.2l-10.9-10.9c-3.4-3.4-8.8-3.4-12.2,0l-7.6,7.6
			c-23-15.5-52.3-17.8-77.2-7c26.2-6,54.8,1.2,75.2,21.6c31.6,31.6,31.6,82.7,0,114.3c-7.4,7.4-15.9,13.1-24.9,17
			c14.3-3.3,27.9-10.5,39.1-21.6C391.5,264.5,395.1,222.3,374.9,191z"/>
		<circle class="st22" cx="277.6" cy="252.3" r="24.5"/>
		<g>
			<path class="st24" d="M383.7,209.6c-1.8,0.5-2.9,2.4-2.4,4.3c0.4,1.4,0.7,2.8,1,4.2c0.4,1.6,1.8,2.7,3.4,2.7c0.2,0,0.5,0,0.7-0.1
				c1.9-0.4,3.1-2.3,2.7-4.1c-0.3-1.5-0.7-3-1.1-4.5C387.5,210.2,385.5,209.1,383.7,209.6z"/>
			<path class="st24" d="M422.4,184.3c3.2-5.2,6.1-10.2,5-17.2c-1.6-9.6-10.9-20.4-23.8-21.7c-11-1.1-21.4,4.7-26.9,14.4l-2.6-2.6
				c-4.7-4.7-12.4-4.7-17.1,0l-5.7,5.7c-13.2-8.2-28.5-12.7-44.5-12.7c-22.5,0-43.7,8.8-59.6,24.7c-32.9,32.9-32.9,86.3,0,119.2
				c16.4,16.4,38,24.6,59.6,24.6s43.2-8.2,59.6-24.6c12-12,20-27.2,23.2-43.8c0.4-1.9-0.9-3.7-2.8-4.1c-1.9-0.4-3.7,0.9-4.1,2.8
				c-2.9,15.3-10.3,29.2-21.3,40.2c-30.2,30.2-79.2,30.2-109.4,0c-30.2-30.2-30.2-79.2,0-109.4c26.4-26.4,67.4-29.7,97.4-9.8
				c0.1,0.1,0.1,0.1,0.2,0.2c3.7,2.5,7.2,5.3,10.4,8.3c0.1,0.1,0.1,0.1,0.2,0.2c0.4,0.4,0.8,0.8,1.2,1.1c0.5,0.5,0.9,0.9,1.4,1.4
				c0,0,0,0,0.1,0.1c3.2,3.4,6.2,7.2,8.8,11.2c0.1,0.1,0.2,0.2,0.3,0.3c2,3.1,3.8,6.4,5.3,9.8c0.8,1.7,2.8,2.5,4.6,1.7
				c1.7-0.8,2.5-2.8,1.7-4.6c-1.4-3-2.9-5.9-4.6-8.7l5.9-5.9c4.7-4.7,4.7-12.4,0-17.1l-3.2-3.2c3.8-8.3,12.4-13.5,21-12.6
				c9.5,1,16.6,9,17.7,15.9c0.7,4.5-1.2,7.7-4.1,12.5c-2.3,3.8-5.1,8.4-7,14.8c-3.3,10.9-3,22.9,0.9,35.6c0.5,1.5,1.8,2.5,3.3,2.5
				c0.3,0,0.7,0,1-0.2c1.8-0.6,2.9-2.5,2.3-4.3c-3.5-11.4-3.8-22-0.9-31.6C417.8,192,420.2,187.9,422.4,184.3z M380.1,180.4
				l-4.9,4.9c-2-2.7-4.1-5.4-6.4-7.9l0,0c-0.4-0.4-0.7-0.8-1.1-1.2s-0.8-0.8-1.2-1.2l0,0l0,0c-0.7-0.7-1.4-1.3-2.1-2
				c-0.1-0.1-0.2-0.2-0.2-0.2c-2.2-2.1-4.6-4-7-5.8l4.8-4.8c2-2,5.3-2,7.3,0l10.9,10.9C382.1,175.1,382.1,178.4,380.1,180.4z"/>
		</g>
		<g>
			<g>
				<line class="st25" x1="408.1" y1="234.7" x2="395.4" y2="247.4">
				
					<animateTransform  accumulate="none" additive="replace" attributeName="transform" calcMode="linear" dur="0.4s" fill="remove" keyTimes="0;0.3;1" repeatCount="indefinite" restart="always" type="scale" values="1;1.01;1">
					</animateTransform>
				</line>
				<line class="st25" x1="421.3" y1="232.9" x2="434" y2="245.7">
				
					<animateTransform  accumulate="none" additive="replace" attributeName="transform" calcMode="linear" dur="0.2s" fill="remove" keyTimes="0;0.2;1" repeatCount="indefinite" restart="always" type="scale" values="1;1.01;1">
					</animateTransform>
				</line>
			</g>
			<line class="st26" x1="415" y1="236.6" x2="415" y2="254.6">
			
				<animateTransform  accumulate="none" additive="replace" attributeName="transform" calcMode="linear" dur="0.3s" fill="remove" keyTimes="0;0.45;1" repeatCount="indefinite" restart="always" type="scale" values="1;1.01;1">
				</animateTransform>
			</line>
		</g>
		<g>
			<path class="st11" d="M266.1,290.9c-0.7,0-1.4-0.2-2.1-0.7c-9.8-7.3-14.8-14.5-19.3-23.2c-0.9-1.7-0.2-3.8,1.5-4.7
				s3.8-0.2,4.7,1.5c4.2,8,8.5,14.3,17.3,20.8c1.5,1.1,1.9,3.3,0.7,4.9C268.3,290.4,267.2,290.9,266.1,290.9z"/>
			<path class="st11" d="M243.9,258.2c-1.5,0-2.9-1-3.3-2.5l-0.1-0.4c-0.1-0.3-0.1-0.3-0.2-0.6l-0.1-0.4c-0.5-1.9,0.7-3.7,2.6-4.2
				c1.9-0.5,3.7,0.7,4.2,2.6l0.1,0.4c0,0.2,0,0.2,0.1,0.3l0.1,0.4c0.5,1.8-0.5,3.8-2.4,4.3C244.5,258.1,244.2,258.2,243.9,258.2z"/>
		</g>
		
			<animateTransform  accumulate="none" additive="replace" attributeName="transform" calcMode="linear" dur="0.6s" fill="remove" keyTimes="0;0.2;1" repeatCount="indefinite" restart="always" type="translate" values="0 -3;0 2;0 -3">
			</animateTransform>
	</g>
	
		<animateTransform  accumulate="none" additive="replace" attributeName="transform" calcMode="linear" dur="2s" fill="remove" keyTimes="0;0.5;1" repeatCount="indefinite" restart="always" type="translate" values="0 -3;0 5;0 -3">
		</animateTransform>
	<path class="st11" d="M229.1,362.1c0.2,0,0.4,0,0.6,0c5.4,0,10.8,0,16.2,0c1.3,0,2.5-0.8,2.7-2c0.1-0.7,0.1-1.4-0.1-2.1
		c-0.4-2.4-1.5-4.5-3.2-6.2c-0.8-0.9-1-1.9-0.5-2.9c0.8-1.4,2.7-1.7,3.9-0.5c1.9,1.9,3.3,4.2,4.1,6.8c2.5,8.1-1.2,16.6-8.9,20.2
		c-2.3,1.1-4.7,1.6-7.2,1.6c-1.1,0-2.1-0.8-2.3-1.8c-0.3-1.2,0.2-2.3,1.3-2.8c0.4-0.2,0.8-0.2,1.3-0.3c2.4-0.1,4.6-0.8,6.6-2.2
		c0.7-0.5,1-1.2,0.8-2c-0.2-1.3-1.5-1.9-2.7-1.3c-0.8,0.3-1.5,0.8-2.3,1.1c-4.2,1.5-9-0.9-10.3-5.2
		C229.1,362.4,229.1,362.2,229.1,362.1z"/>
	<path class="st11" d="M220,360.6c0-7.6,4.5-13.9,11.2-16.3c1.8-0.6,3.6-0.9,5.5-0.9c1.4,0,2.5,1,2.5,2.3c0.1,1.3-0.9,2.4-2.4,2.5
		c-1.3,0.1-2.5,0.2-3.7,0.6c-4.2,1.5-6.9,4.4-7.9,8.8c-0.9,4.2,0.2,7.8,3.2,11c0.8,0.8,0.9,1.9,0.5,2.8c-0.4,0.9-1.3,1.4-2.4,1.3
		c-0.6,0-1.1-0.3-1.6-0.8C221.7,368.6,220.1,364.7,220,360.6z"/>
	<path class="st11" d="M244.6,358.1c-5.2,0-10.3,0-15.5,0c0.3-1.2,0.8-2.2,1.5-3.1c1.4-1.7,3.2-2.7,5.4-2.9c2.4-0.2,4.4,0.5,6.2,2.1
		C243.4,355.2,244.2,356.5,244.6,358.1z"/>
</g>
</svg>
