<?xml version="1.0" encoding="utf-8"?>
<!-- Generator: Adobe Illustrator 27.0.0, SVG Export Plug-In . SVG Version: 6.00 Build 0)  -->
<svg version="1.1" id="图层_1" xmlns="http://www.w3.org/2000/svg" xmlns:xlink="http://www.w3.org/1999/xlink" x="0px" y="0px"
	 viewBox="0 0 353.3 443.1" style="enable-background:new 0 0 353.3 443.1;" xml:space="preserve">
<style type="text/css">
	.st0{opacity:0.1;fill:#A3A3A3;enable-background:new    ;}
	.st1{fill:#606373;}
	.st2{fill:#11113B;}
	.st3{fill:#EFEFEF;}
	.st4{fill:#B1B1C9;}
	.st5{fill:#DCDBEA;stroke:#8D8DAA;stroke-miterlimit:10;}
	.st6{fill:#8D8DAA;}
	.st7{fill:#0052FF;stroke:#FFFFFF;stroke-miterlimit:10;}
	.st8{fill:none;stroke:#8D8DAA;stroke-miterlimit:10;}
	.st9{opacity:0.1;fill:#FFFFFF;enable-background:new    ;}
	.st10{fill:#060423;}
	.st11{fill:#FFFFFF;}
	.st12{fill:#D6D6D6;}
	.st13{fill:#FBF9F9;}
	.st14{fill:url(#SVGID_1_);}
	.st15{fill:#9B9BA2;}
	.st16{fill:#2CFBFB;}
	.st17{fill:none;stroke:#2CFBFB;stroke-width:8;stroke-linecap:round;stroke-miterlimit:10;}
	.st18{fill:#75B7B1;}
	.st19{fill:url(#SVGID_00000028304629518491861120000000390542989192331394_);}
	.st20{opacity:0.8;}
	.st21{opacity:0.6;}
	.st22{fill:none;stroke:#01DEEB;stroke-width:2;stroke-miterlimit:10;}
</style>
<ellipse class="st0" cx="167.6" cy="427.1" rx="135.6" ry="16">
<animate  accumulate="none" additive="replace" attributeName="rx" calcMode="linear" dur="2s" fill="remove" keyTimes="0;0.5;1" repeatCount="indefinite" restart="always" values="115.6;135.6;115.6">
	</animate>
</ellipse>
<g>
	<path class="st1" d="M96.1,253.1c-17.6,1.3-22.8,11.7-22.8,11.7c38.9,9.1,150.1,9.1,189.1,0c0,0-6.7-11.4-24.2-12.7
		C216.5,250.5,117.3,251.5,96.1,253.1z"/>
	<path class="st2" d="M224.8,258.9c0,0,3.2-4.2-0.6-7.4s-108.2-1.5-112-0.3s-0.9,7.7-0.9,7.7c-3.2,5.3,1.2,7.8,1.2,7.8
		c-1.4,1.4,1.2,3.2,1.2,3.2l3.3,2.9l48.5-0.6l53.5,0.6l3.3-2.9c0,0,2.7-1.8,1.2-3.2C223.5,266.8,228,264.3,224.8,258.9z"/>
	<path class="st3" d="M262.4,264.8c-38.9,9.1-150.1,9.1-189.1,0c0,0-6.4,101.1,50.2,116c0,0,21.6,5.3,44.3,5.1
		c22.8,0.2,44.3-5.1,44.3-5.1C268.8,365.9,262.4,264.8,262.4,264.8z"/>
	<path class="st4" d="M233.4,291.7c-0.9-13.9-1.8-18.9-1.9-19.8v-0.2l0,0l0,0c0,0-0.6,0.1-1.8,0.2c-5.9,0.7-26.1,2.6-61.2,2.6
		s-55.3-1.9-61.2-2.6c-1.2-0.1-1.8-0.2-1.8-0.2l0,0l0,0v0.2c-0.2,0.9-1.1,6-1.9,19.8c-0.5,8.6,0,19.4,0,19.4s-0.1,19.3,12.2,34.8
		c0.9,1.2,2,2.4,3.1,3.5c2.7,2.8,5.1,5.2,7.9,7.3l0.1,0.1c0.1,0.1,0.2,0.1,0.3,0.2c0.9,0.6,1.8,1.2,2.8,1.8l0,0
		c0.3,0.2,0.7,0.4,1,0.6c0.2,0.1,0.5,0.3,0.7,0.4c0.1,0.1,0.2,0.1,0.3,0.2c7.1,3.4,17.3,5.2,36.1,5.2c0.1,0,0.1,0,0.2,0
		c0.1,0,0.1,0,0.2,0c0.1,0,0.1,0,0.2,0c0.1,0,0.1,0,0.2,0c18.8,0,29-1.8,36.1-5.2c0.1-0.1,0.2-0.1,0.3-0.2c0.3-0.1,0.5-0.2,0.7-0.4
		c0.4-0.2,0.7-0.4,1-0.6l0,0c1-0.6,1.9-1.2,2.8-1.8c0.1-0.1,0.2-0.1,0.3-0.2l0.1-0.1c2.8-2.1,5.2-4.5,7.9-7.3
		c1.1-1.1,2.1-2.3,3.1-3.5c12.3-15.5,12.2-34.8,12.2-34.8S233.9,300.3,233.4,291.7z"/>
	<circle class="st5" cx="112.2" cy="277.8" r="3.8"/>
	<circle class="st5" cx="128.9" cy="346.3" r="3.8"/>
	<path class="st6" d="M229.7,271.9C229.7,271.9,229.6,271.9,229.7,271.9c-2.1,0.2-5.8,0.6-11.2,1c1.7,12.6,3.2,44.2-7.7,59.6
		c-14.7,20.9-60.4,39.3-87.2,21.7c1,0.9,2,1.8,3.1,2.6l0.1,0.1c0.1,0.1,0.2,0.1,0.3,0.2c0.9,0.6,1.8,1.2,2.8,1.8l0,0
		c0.3,0.2,0.7,0.4,1,0.6c0.2,0.1,0.5,0.3,0.7,0.4c0.1,0.1,0.2,0.1,0.3,0.2c7.1,3.4,17.3,5.2,36.1,5.2c0.1,0,0.1,0,0.2,0
		c0.1,0,0.1,0,0.2,0c0.1,0,0.1,0,0.2,0c0.1,0,0.1,0,0.2,0c18.8,0,29-1.8,36.1-5.2c0.1-0.1,0.2-0.1,0.3-0.2c0.3-0.1,0.5-0.2,0.7-0.4
		c0.4-0.2,0.7-0.4,1-0.6l0,0c1-0.6,1.9-1.2,2.8-1.8c0.1-0.1,0.2-0.1,0.3-0.2l0.1-0.1c2.8-2.1,5.2-4.5,7.9-7.3
		c1.1-1.1,2.1-2.3,3.1-3.5c12.3-15.5,12.2-34.8,12.2-34.8s0.5-10.8,0-19.4c-0.9-13.9-1.8-18.9-1.9-19.8v-0.2
		C231.4,271.7,230.8,271.8,229.7,271.9z"/>
	<circle class="st7" cx="202.6" cy="299.5" r="21.6">
	
		<animate  accumulate="none" additive="replace" attributeName="fill" calcMode="linear" dur="2s" fill="remove" keyTimes="0;0.5;1" repeatCount="indefinite" restart="always" values="#272362;#0052ff;#272362">
		</animate>
	</circle>
	<circle class="st5" cx="224.2" cy="277.8" r="3.8"/>
	<path class="st8" d="M262.4,264.8c-38.9,9.1-150.1,9.1-189.1,0c0,0-6.4,101.1,50.2,116c0,0,21.6,5.3,44.3,5.1
		c22.8,0.2,44.3-5.1,44.3-5.1C268.8,365.9,262.4,264.8,262.4,264.8z"/>
	<path class="st9" d="M188.6,316c3.8,3.2,8.6,5.1,13.9,5.1c11.9,0,21.6-9.7,21.6-21.6c0-6.1-2.6-11.7-6.7-15.6
		c1.5,3.7,7.5,20.5-7.9,31.4C209.7,315.3,201,319.9,188.6,316z"/>
	<circle class="st5" cx="208.3" cy="346.3" r="3.8"/>
	<path class="st10" d="M251.7,339.1c-10.7-6.7-21.1,11-21.1,11c-16.3,29.9-51.8,35.5-51.8,35.5l0,0c18.3-1.1,33.4-4.8,33.4-4.8
		c20.5-5.4,32.8-22.1,40-41.3C252.1,339.3,251.9,339.2,251.7,339.1z"/>
	<path class="st10" d="M104.4,350c0,0-10.4-17.7-21.1-11c7.2,19.3,19.5,36.2,40.2,41.7c0,0,14.8,3.6,32.7,4.8
		C156.1,385.5,120.7,379.9,104.4,350z"/>
	<path class="st6" d="M119,269.3c-0.4-0.9-1.5-2-3.3-3.4c-16.3-12.2-32.1-2.1-33.9-0.8C91.5,267,104.4,268.4,119,269.3z"/>
	<path class="st6" d="M227.1,269.3c0.4-0.9,1.5-2,3.3-3.4c16.3-12.2,32.1-2.1,33.9-0.8C254.6,267,241.7,268.4,227.1,269.3z"/>
	<path class="st8" d="M262.4,264.8c-38.9,9.1-150.1,9.1-189.1,0c0,0-6.4,101.1,50.2,116c0,0,21.6,5.3,44.3,5.1
		c22.8,0.2,44.3-5.1,44.3-5.1C268.8,365.9,262.4,264.8,262.4,264.8z"/>
	<path class="st3" d="M269.1,31.3c-19-9-210.9,4.6-228.5,16.3c0,0-41,24.8-40.6,72.1l4,56.2c0,0,4.5,44.7,20.9,59.6
		s31.9,21.9,54.3,24.2c19.7,2,67,0.6,87.8-0.5v0.1c1,0,2.1-0.1,3.4-0.3c1.3-0.1,2.5-0.2,3.4-0.2v-0.1c20.8-1.9,67.8-7.1,87-12
		c21.8-5.5,36.1-14.7,50.3-31.6c14.2-17,12.3-62,12.3-62l-4-56.2C313.1,50,269.1,31.3,269.1,31.3z"/>
	<path class="st11" d="M0.5,119.5l2.3,31.9C6.4,75.9,49,51.1,49,51.1l-2.5-6.6c-2.1,1-3.9,2-5.3,2.9C41.1,47.4,0,72.1,0.5,119.5z"/>
	<path class="st10" d="M276,212.8c-0.6,0.4-1.3,0.9-2,1.5c-4.9,3.7-13,9.7-40.4,14.9l-59.1,5.4l-8.1,0.6l-59.3,3
		c-27.8-1.2-36.7-6.1-42.1-9c-0.8-0.4-1.5-0.8-2.2-1.2c-18.9-10.7-23.2-44.5-23.4-45.9l-2.7-38c-1.7-19.5,1.6-24.8,2.1-25.5l0.3-0.1
		l0.3-0.7c3.5-6.7,12.7-12.4,20.1-16.9c1.1-0.7,2.2-1.3,3.2-2c26.4-13.4,75.7-19,92.4-20.6l8.1-0.6c16.7-0.8,66.3-2.2,94.4,7.3
		c1.1,0.4,2.3,1,3.6,1.5c8,3.5,18,7.7,22.3,14l0.4,0.6l0.3,0.1c0.6,0.6,4.6,5.5,5.6,24.9l2.7,38C292.8,165.6,293.2,199.6,276,212.8z
		"/>
	<path class="st12" d="M269.1,31.3c-0.2-0.1-0.4-0.1-0.5-0.2l6.9,6.7c0,0,37.8,26,36,77.9s-5.9,91.6-45.7,117.7
		c-34.5,22.6-107.3,25.9-194.9,25.2c2.7,0.5,5.5,0.8,8.4,1.2c19.7,2,67,0.6,87.8-0.5v0.1c1,0,2.1-0.1,3.4-0.3
		c1.3-0.1,2.5-0.2,3.4-0.2v-0.1c20.8-1.9,67.8-7.1,87-12c21.8-5.5,36.1-14.7,50.3-31.6c14.2-17,12.3-62,12.3-62l-4-56.2
		C313.1,50,269.1,31.3,269.1,31.3z"/>
	<path d="M85.3,231.8c0,0-26.9-1.7-33.6-31.6s-6.3-66.5-6.3-66.5s-1.3-13.3,21.2-24.4c13.8-6.8,49.5-21.9,100.1-24.2
		c31.9-1.5,84.6-4.2,111.6,16c0,0-137.6-30.4-198.5,34C79.8,135.1,35.7,180.4,85.3,231.8z"/>
	<path d="M238.3,108.9c0,0-150.8-22.6-165,81.2c0,0-14.6-63.5,79.5-82.7C152.8,107.5,205.9,99.8,238.3,108.9z"/>
	<path class="st8" d="M269.1,31.3c-19-9-210.9,4.6-228.5,16.3c0,0-41,24.8-40.6,72.1l4,56.2c0,0,4.5,44.7,20.9,59.6
		s31.9,21.9,54.3,24.2c19.7,2,67,0.6,87.8-0.5v0.1c1,0,2.1-0.1,3.4-0.3c1.3-0.1,2.5-0.2,3.4-0.2v-0.1c20.8-1.9,67.8-7.1,87-12
		c21.8-5.5,36.1-14.7,50.3-31.6c14.2-17,12.3-62,12.3-62l-4-56.2C313.1,50,269.1,31.3,269.1,31.3z"/>
	<path class="st13" d="M153.7,12.7c-74.4,3.3-113,31.9-113,31.9s4.5,2.6,7.7,6.6c3.1,4,7,8.5,19.5,12.7c15.9,5.3,89.4,1.2,89.4,1.2
		s73.5-6.2,88.3-13.8c11.8-5.9,15-10.9,17.5-15.3c2.6-4.4,6.6-7.7,6.6-7.7S227.8,5.5,153.7,12.7z"/>
	<polygon class="st6" points="270.6,32.1 270.8,28.2 267.3,30.8 	"/>
	<path class="st3" d="M250,20.7c-11.5,8.4-49.7,33.9-90.3,37C111,61.4,49.2,50.8,49.2,50.8c-0.3,0.1-0.5,0.3-0.7,0.4
		c3.1,4,7.1,8.4,19.5,12.6c15.9,5.3,89.4,1.2,89.4,1.2s73.5-6.2,88.3-13.8c11.8-5.9,15-10.9,17.5-15.3c2.6-4.4,6.6-7.7,6.6-7.7
		S263.1,24.6,250,20.7z"/>
	<path class="st8" d="M153.7,12.7c-74.4,3.3-113,31.9-113,31.9s4.5,2.6,7.7,6.6c3.1,4,7,8.5,19.5,12.7c15.9,5.3,89.4,1.2,89.4,1.2
		s73.5-6.2,88.3-13.8c11.8-5.9,15-10.9,17.5-15.3c2.6-4.4,6.6-7.7,6.6-7.7S227.8,5.5,153.7,12.7z"/>
	
		<linearGradient id="SVGID_1_" gradientUnits="userSpaceOnUse" x1="-177.5166" y1="253.8753" x2="89.1674" y2="253.8753" gradientTransform="matrix(0.9892 -0.1465 -0.1465 -0.9892 246.3445 402.1947)">
		<stop  offset="0" style="stop-color:#000000"/>
		<stop  offset="0.9994" style="stop-color:#000000"/>
	</linearGradient>
	<path class="st14" d="M295,125.8c-1.2-21.1-5.7-27-7.5-28.5c-5.2-7.1-15.7-11.7-24.2-15.3c-1.3-0.5-2.5-1-3.6-1.6l-0.2-0.1
		c-14.7-5-36.3-7.8-64.4-8.2c-13.6-0.2-25.4,0.2-32.1,0.5v-0.1l-2.5,0.2c0,0-0.6,0.1-1.6,0.1s-1.5,0.1-1.6,0.1l-2.5,0.2v0.1
		c-6.6,0.6-18.4,1.8-31.9,4c-27.7,4.4-48.7,10.2-62.6,17.2l-0.2,0.1c-1,0.7-2.1,1.3-3.3,2c-7.9,4.8-17.6,10.8-21.8,18.6
		c-1.6,1.7-5.1,8.2-3.3,29.3l2.7,38v0.1c0.1,1.5,4.5,37.7,26,49.7l0.1,0.1c0.7,0.3,1.3,0.7,2.1,1.1c5.7,3.1,15.3,8.4,44.3,9.6
		l59.7-3v0.2l4.1-0.4l4.1-0.2v-0.2l59.6-5.4c28.5-5.3,37.3-11.9,42.5-15.8c0.6-0.5,1.3-1,1.9-1.4l0.1-0.1
		c19.5-15.1,18.7-51.4,18.7-52.9v-0.1L295,125.8z M276,212.8c-0.6,0.4-1.3,0.9-2,1.5c-4.9,3.7-13,9.7-40.4,14.9l-59.1,5.4l-8.1,0.6
		l-59.3,3c-27.8-1.2-36.7-6.1-42.1-9c-0.8-0.4-1.5-0.8-2.2-1.2c-18.9-10.7-23.2-44.5-23.4-45.9l-2.7-38c-1.7-19.5,1.6-24.8,2.1-25.5
		l0.3-0.1l0.3-0.7c3.5-6.7,12.7-12.4,20.1-16.9c1.1-0.7,2.2-1.3,3.2-2c26.4-13.4,75.7-19,92.4-20.6l8.1-0.6
		c16.7-0.8,66.3-2.2,94.4,7.3c1.1,0.4,2.3,1,3.6,1.5c8,3.5,18,7.7,22.3,14l0.4,0.6l0.3,0.1c0.6,0.6,4.6,5.5,5.6,24.9l2.7,38
		C292.8,165.6,293.2,199.5,276,212.8z"/>
	<polygon class="st6" points="40.1,47.4 39.8,44.5 42.9,45.8 	"/>
	<path class="st1" d="M168.1,255.7"/>
	<g>
		<path class="st11" d="M163.4,266.6h-20.2"/>
	</g>
	<path class="st15" d="M74.1,266.5c0.7-0.2,1.4-0.4,2.1-0.5c3,0.6,6.2,1.2,9.9,1.7l2.3,1.6c0,0,1.7,45-1.5,51.3
		c-1.8,3.5-4.5,5.6-6.6,6.8C73,300.2,73.8,272,74.1,266.5z"/>
	<path class="st3" d="M73.6,265.4c0,0-7.8,12.6-7.5,47.5c0,0,0.6,9.2,5.8,12c4.9,2.6,8.2-3.4,9.4-6.3c2.5-5.9,2.1-10.6,2.5-22.2
		s5.4-28.5,5.4-28.5l-11.3-0.1L73.6,265.4z"/>
	<path class="st12" d="M89.2,267.8c0,0-5.1,17-5.4,28.5s0,16.3-2.5,22.2c-0.6,1.4-1.6,3.3-3,4.9c-0.4-1.2-0.9-2.6-1.3-4
		c-5.5-19.2,3.7-40.8,9.4-51.6H89.2z"/>
	<path class="st8" d="M73.6,265.4c0,0-7.8,12.6-7.5,47.5c0,0,0.6,9.2,5.8,12c4.9,2.6,8.2-3.4,9.4-6.3c2.5-5.9,2.1-10.6,2.5-22.2
		s5.4-28.5,5.4-28.5l-11.3-0.1L73.6,265.4z"/>
	<path class="st16" d="M168.1,218.5c4.7-0.5,8-4.7,7.5-9.4l-16.9,1.9C159.3,215.7,163.5,219.1,168.1,218.5z"/>
	<path class="st1" d="M167.7,254.8"/>
	<path class="st17" d="M248.5,181.5c-2.4-9.8-11.8-16.5-22.1-15.4s-17.9,9.8-18.2,19.8	">
<animateTransform  accumulate="none" additive="replace" attributeName="transform" calcMode="linear" dur="0.4s" fill="remove" keyTimes="0;0.5;1" repeatCount="indefinite" restart="always" type="translate" values="0 -3;0 2;0 -3">
			</animateTransform>
	</path>
	<path class="st17" d="M123,195.4c-2.4-9.8-11.8-16.5-22.1-15.4s-17.9,9.8-18.2,19.8	">
<animateTransform  accumulate="none" additive="replace" attributeName="transform" calcMode="linear" dur="0.4s" fill="remove" keyTimes="0;0.5;1" repeatCount="indefinite" restart="always" type="translate" values="0 -3;0 2;0 -3">
			</animateTransform>
	</path>
	<path class="st3" d="M265.8,262.6l1.4,3.8c0,0-0.5,12.2-2.5,12.7c0,0,16,17,35.6,22c0,0,14.7,1.5,15.3-5.9
		c0.6-7.4-8.3-10.7-8.3-10.7s-28.2-11.6-38.4-19.8L265.8,262.6z"/>
	<path class="st12" d="M315.1,296.9c-3.5,0.3-8.4,0.6-13.5-0.2c-7.3-1.2-31.9-22-34.8-24.4c-0.4,3.2-1,6.6-2,6.8c0,0,16,17,35.6,22
		C300.3,301,312.5,302.3,315.1,296.9z"/>
	<path class="st8" d="M265.8,262.6l1.4,3.8c0,0-0.5,12.2-2.5,12.7c0,0,16,17,35.6,22c0,0,14.7,1.5,15.3-5.9
		c0.6-7.4-8.3-10.7-8.3-10.7s-28.2-11.6-38.4-19.8L265.8,262.6z"/>
	
		<ellipse transform="matrix(0.2822 -0.9594 0.9594 0.2822 -61.1824 493.3808)" class="st18" cx="299.1" cy="287.6" rx="2.9" ry="4"/>
	
		<linearGradient id="SVGID_00000023999861187679882260000012607043543471063722_" gradientUnits="userSpaceOnUse" x1="303.7212" y1="233.0852" x2="302.4535" y2="156.6327" gradientTransform="matrix(1 0 0 -1 0 443.8898)">
		<stop  offset="0" style="stop-color:#FFFFFF;stop-opacity:0"/>
		<stop  offset="0.1093" style="stop-color:#F2FDFE;stop-opacity:0.1093"/>
		<stop  offset="0.313" style="stop-color:#CFF9FA;stop-opacity:0.313"/>
		<stop  offset="0.5886" style="stop-color:#96F1F5;stop-opacity:0.5886"/>
		<stop  offset="0.9225" style="stop-color:#49E7ED;stop-opacity:0.9225"/>
		<stop  offset="1" style="stop-color:#36E5EB"/>
	</linearGradient>
	<polygon style="fill:url(#SVGID_00000023999861187679882260000012607043543471063722_);" points="297.1,288.8 261.3,215.1 
		346,215.1 	">
	
		<animate  accumulate="none" additive="replace" attributeName="opacity" begin="-0.7s" calcMode="linear" dur="0.1s" fill="remove" keyTimes="0;0.5;1" repeatCount="indefinite" restart="always" values="1;0;0.5">
		</animate>
	</polygon>
	<g>
		<g class="st20">
			<path class="st11" d="M277.8,199.8h-6.3v-1c0-1.2,0-1.8-0.2-2.2s-0.4-0.6-1-0.6c-0.4,0-0.6,0.2-0.8,0.4s-0.4,0.8-0.4,1.4
				c0,1,0.2,1.6,0.6,2s1.6,1.2,3.4,2.4c1.6,1,2.8,1.8,3.4,2.2c0.6,0.6,1.2,1.2,1.6,2.2s0.6,2.2,0.6,3.6c0,2.2-0.6,3.9-1.6,5.1
				c-1.2,1.2-2.8,2-4.9,2.4v2.4h-3v-2.4c-1.8-0.2-3.2-0.8-4.5-2c-1.2-1.2-2-3-2-5.7v-1.2h6.3v1.6c0,1.6,0,2.8,0.2,3.2s0.4,0.6,1,0.6
				c0.4,0,0.8-0.2,1-0.4s0.4-0.8,0.4-1.2c0-1.4-0.2-2.4-0.4-3s-0.8-1.2-2-2c-2-1.2-3.4-2-3.9-2.6c-0.8-0.6-1.4-1.4-1.8-2.4
				c-0.6-1-0.8-2.2-0.8-3.4c0-1.8,0.6-3.4,1.6-4.3c1-1,2.8-1.8,4.9-2v-2h3v2c2,0.2,3.4,1,4.3,2c1,1,1.4,2.6,1.4,4.3
				C277.8,198.8,277.8,199.2,277.8,199.8z"/>
		</g>
		<g class="st21">
			<path class="st16" d="M332.9,163.2c2.2,0,4.8,1.8,7.4,4.5l4.5-0.9c1.6-0.4,3-2.4,2.6-4.1l-0.2-1c-0.4-2-2.4-3.2-4.1-2.8
				l-29.6,5.9v8.3l9.2-1.8C326,166.6,329.9,163.2,332.9,163.2z"/>
			<path class="st16" d="M316.1,251.1h-28.8c-2.2,0-3.9-1.8-3.9-3.9v-1c0-2.2,1.8-3.9,3.9-3.9h28.8c2.2,0,3.9,1.8,3.9,3.9v1
				C320,249.3,318.3,251.1,316.1,251.1z"/>
			<path class="st16" d="M313.3,239.9H290v-0.6c0-3.2,2.6-5.7,5.7-5.7h11.6c3.2,0,5.7,2.6,5.7,5.7v0.6H313.3z"/>
			<rect x="297.1" y="193.1" class="st16" width="9.1" height="37.7"/>
			<path class="st16" d="M288.5,209.5c0,9.7-8.1,17.6-18,17.6s-18.2-8.1-18.2-17.6s12.4-29.4,18-29.4S288.5,199.8,288.5,209.5z"/>
			<path class="st16" d="M332.9,167.6c-5.5,0-18,19.5-18,29.2s8.1,17.6,18,17.6s18-7.9,18-17.6S338.4,167.6,332.9,167.6z
				 M320.8,189.7c2.6-7.3,8.9-16.2,12-16.2s9.5,8.9,12.2,16.2H320.8z"/>
			<path class="st16" d="M302.5,189.3h-1.6c-3.6,0-6.5-3-6.5-6.5v-23.9c0-3.6,3-6.5,6.5-6.5h1.6c3.6,0,6.5,3,6.5,6.5V183
				C309,186.6,306,189.3,302.5,189.3z"/>
			<path class="st16" d="M256.3,181.1c0.4,1.8,2,2.9,3.6,2.8c3.5-4.8,7.4-8.2,10.4-8.2c2.2,0,4.9,1.8,7.6,4.7l12.2-2.4v-8.2l-31,6.3
				c-2,0.4-3.2,2.4-2.8,4.1L256.3,181.1L256.3,181.1z"/>
			<polygon class="st16" points="290,169.6 290,169.6 290.2,169.6 			"/>
		</g>
		<g>
			<g>
				<path class="st22" d="M302.5,189.3h-1.6c-3.6,0-6.5-3-6.5-6.5v-23.9c0-3.6,3-6.5,6.5-6.5h1.6c3.6,0,6.5,3,6.5,6.5V183
					C309,186.6,306,189.3,302.5,189.3z"/>
				<rect x="297.1" y="193.1" class="st22" width="9.1" height="37.7"/>
				<path class="st22" d="M313.3,239.9H290v-0.6c0-3.2,2.6-5.7,5.7-5.7h11.6c3.2,0,5.7,2.6,5.7,5.7v0.6H313.3z"/>
				<path class="st22" d="M316.1,251.1h-28.8c-2.2,0-3.9-1.8-3.9-3.9v-1c0-2.2,1.8-3.9,3.9-3.9h28.8c2.2,0,3.9,1.8,3.9,3.9v1
					C320,249.3,318.3,251.1,316.1,251.1z"/>
				<path class="st22" d="M288.5,209.5c0,9.7-8.1,17.6-18,17.6s-18.2-8.1-18.2-17.6s12.4-29.4,18-29.4S288.5,199.8,288.5,209.5z"/>
				<path class="st22" d="M332.9,167.6c-5.5,0-18,19.5-18,29.2s8.1,17.6,18,17.6s18-7.9,18-17.6S338.4,167.6,332.9,167.6z
					 M320.8,189.7c2.6-7.3,8.9-16.2,12-16.2s9.5,8.9,12.2,16.2H320.8z"/>
				<path class="st22" d="M256.3,181.1c0.4,1.8,2,2.9,3.6,2.8c3.5-4.8,7.4-8.2,10.4-8.2c2.2,0,4.9,1.8,7.6,4.7l12.2-2.4v-8.2
					l-31,6.3c-2,0.4-3.2,2.4-2.8,4.1L256.3,181.1L256.3,181.1z"/>
				<polygon class="st22" points="290,169.6 290,169.6 290.2,169.6 				"/>
				<path class="st22" d="M332.9,163.2c2.2,0,4.8,1.8,7.4,4.5l4.5-0.9c1.6-0.4,3-2.4,2.6-4.1l-0.2-1c-0.4-2-2.4-3.2-4.1-2.8
					l-29.6,5.9v8.3l9.2-1.8C326,166.6,329.9,163.2,332.9,163.2z"/>
				
					<animate  accumulate="none" additive="replace" attributeName="opacity" begin="-0.7s" calcMode="linear" dur="0.5s" fill="remove" keyTimes="0;0.5;1" repeatCount="indefinite" restart="always" values="1;0;0.5">
					</animate>
			</g>
		</g>
		
			<animateTransform  accumulate="none" additive="replace" attributeName="transform" calcMode="linear" dur="2s" fill="remove" keyTimes="0;0.5;1" repeatCount="indefinite" restart="always" type="translate" values="-5 -3;3 5;-5 -3">
			</animateTransform>
	</g>
	
		<animateTransform  accumulate="none" additive="replace" attributeName="transform" calcMode="linear" dur="2s" fill="remove" keyTimes="0;0.5;1" repeatCount="indefinite" restart="always" type="translate" values="0 -3;0 5;0 -3">
		</animateTransform>
	<path class="st11" d="M194.9,301.5c0.2,0,0.4,0,0.6,0c5.4,0,10.8,0,16.2,0c1.3,0,2.5-0.8,2.7-2c0.1-0.7,0.1-1.4-0.1-2.1
		c-0.4-2.4-1.5-4.5-3.2-6.2c-0.8-0.9-1-1.9-0.5-2.9c0.8-1.4,2.7-1.7,3.9-0.5c1.9,1.9,3.3,4.2,4.1,6.8c2.5,8.1-1.2,16.6-8.9,20.2
		c-2.3,1.1-4.7,1.6-7.2,1.6c-1.1,0-2.1-0.8-2.3-1.8c-0.3-1.2,0.2-2.3,1.3-2.8c0.4-0.2,0.8-0.2,1.3-0.3c2.4-0.1,4.6-0.8,6.6-2.2
		c0.7-0.5,1-1.2,0.8-2c-0.2-1.3-1.5-1.9-2.7-1.3c-0.8,0.3-1.5,0.8-2.3,1.1c-4.2,1.5-9-0.9-10.3-5.2
		C194.9,301.8,194.9,301.6,194.9,301.5z"/>
	<path class="st11" d="M185.8,300c0-7.6,4.5-13.9,11.2-16.3c1.8-0.6,3.6-0.9,5.5-0.9c1.4,0,2.5,1,2.5,2.3c0.1,1.3-0.9,2.4-2.4,2.5
		c-1.3,0.1-2.5,0.2-3.7,0.6c-4.2,1.5-6.9,4.4-7.9,8.8c-0.9,4.2,0.2,7.8,3.2,11c0.8,0.8,0.9,1.9,0.5,2.8c-0.4,0.9-1.3,1.4-2.4,1.3
		c-0.6,0-1.1-0.3-1.6-0.8C187.5,308,185.9,304.1,185.8,300z"/>
	<path class="st11" d="M210.4,297.5c-5.2,0-10.3,0-15.5,0c0.3-1.2,0.8-2.2,1.5-3.1c1.4-1.7,3.2-2.7,5.4-2.9c2.4-0.2,4.4,0.5,6.2,2.1
		C209.2,294.6,210,295.9,210.4,297.5z"/>
</g>
</svg>
