<?xml version="1.0" encoding="utf-8"?>
<!-- Generator: Adobe Illustrator 27.0.0, SVG Export Plug-In . SVG Version: 6.00 Build 0)  -->
<svg version="1.1" id="图层_1" xmlns="http://www.w3.org/2000/svg" xmlns:xlink="http://www.w3.org/1999/xlink" x="0px" y="0px"
	 viewBox="0 0 428.8 441" style="enable-background:new 0 0 428.8 441;" xml:space="preserve">
<style type="text/css">
	.st0{opacity:0.1;fill:#A3A3A3;enable-background:new    ;}
	.st1{fill:#606373;}
	.st2{fill:#11113B;}
	.st3{fill:#EFEFEF;}
	.st4{fill:#B1B1C9;}
	.st5{fill:#DCDBEA;stroke:#8D8DAA;stroke-miterlimit:10;}
	.st6{fill:#8D8DAA;}
	.st7{fill:#0052FF;stroke:#FFFFFF;stroke-miterlimit:10;}
	.st8{fill:none;stroke:#8D8DAA;stroke-miterlimit:10;}
	.st9{opacity:0.1;fill:#FFFFFF;enable-background:new    ;}
	.st10{fill:#060423;}
	.st11{fill:#FFFFFF;}
	.st12{fill:#D6D6D6;}
	.st13{fill:#FBF9F9;}
	.st14{fill:url(#SVGID_1_);}
	.st15{fill:#9B9BA2;}
	.st16{fill:#2CFBFB;}
	.st17{fill:none;stroke:#2CFBFB;stroke-width:8;stroke-linecap:round;stroke-miterlimit:10;}
	.st18{fill:#FFD469;}
	.st19{fill:#00B1FF;}
	.st20{fill:#0096D1;}
	.st21{fill:#727272;}
	.st22{fill:#B2B2B2;}
	.st23{fill:#D1D1D1;}
</style>
<ellipse class="st0" cx="170.2" cy="424" rx="135.6" ry="16">
<animate  accumulate="none" additive="replace" attributeName="rx" calcMode="linear" dur="2s" fill="remove" keyTimes="0;0.5;1" repeatCount="indefinite" restart="always" values="115.6;135.6;115.6">
	</animate>
</ellipse>
<g>
	<path class="st1" d="M98.2,251.8c-17.6,1.3-22.8,11.7-22.8,11.7c38.9,9.1,150.1,9.1,189.1,0c0,0-6.7-11.4-24.2-12.7
		C218.6,249.2,119.4,250.2,98.2,251.8z"/>
	<path class="st2" d="M226.9,257.6c0,0,3.2-4.2-0.6-7.4s-108.2-1.5-112-0.3s-0.9,7.7-0.9,7.7c-3.2,5.3,1.2,7.8,1.2,7.8
		c-1.4,1.4,1.2,3.2,1.2,3.2l3.3,2.9l48.5-0.6l53.5,0.6l3.3-2.9c0,0,2.7-1.8,1.2-3.2C225.6,265.5,230.1,263,226.9,257.6z"/>
	<path class="st3" d="M264.5,263.5c-38.9,9.1-150.1,9.1-189.1,0c0,0-6.4,101.1,50.2,116c0,0,21.6,5.3,44.3,5.1
		c22.8,0.2,44.3-5.1,44.3-5.1C270.9,364.6,264.5,263.5,264.5,263.5z"/>
	<path class="st4" d="M235.5,290.4c-0.9-13.9-1.8-18.9-1.9-19.8v-0.2l0,0l0,0c0,0-0.6,0.1-1.8,0.2c-5.9,0.7-26.1,2.6-61.2,2.6
		s-55.3-1.9-61.2-2.6c-1.2-0.1-1.8-0.2-1.8-0.2l0,0l0,0v0.2c-0.2,0.9-1.1,6-1.9,19.8c-0.5,8.6,0,19.4,0,19.4s-0.1,19.3,12.2,34.8
		c0.9,1.2,2,2.4,3.1,3.5c2.7,2.8,5.1,5.2,7.9,7.3l0.1,0.1c0.1,0.1,0.2,0.1,0.3,0.2c0.9,0.6,1.8,1.2,2.8,1.8l0,0
		c0.3,0.2,0.7,0.4,1,0.6c0.2,0.1,0.5,0.3,0.7,0.4c0.1,0.1,0.2,0.1,0.3,0.2c7.1,3.4,17.3,5.2,36.1,5.2c0.1,0,0.1,0,0.2,0
		c0.1,0,0.1,0,0.2,0c0.1,0,0.1,0,0.2,0c0.1,0,0.1,0,0.2,0c18.8,0,29-1.8,36.1-5.2c0.1-0.1,0.2-0.1,0.3-0.2c0.3-0.1,0.5-0.2,0.7-0.4
		c0.4-0.2,0.7-0.4,1-0.6l0,0c1-0.6,1.9-1.2,2.8-1.8c0.1-0.1,0.2-0.1,0.3-0.2l0.1-0.1c2.8-2.1,5.2-4.5,7.9-7.3
		c1.1-1.1,2.1-2.3,3.1-3.5c12.3-15.5,12.2-34.8,12.2-34.8S236,299,235.5,290.4z"/>
	<circle class="st5" cx="114.3" cy="276.5" r="3.8"/>
	<circle class="st5" cx="131" cy="345" r="3.8"/>
	<path class="st6" d="M231.8,270.6C231.8,270.6,231.7,270.6,231.8,270.6c-2.1,0.2-5.8,0.6-11.2,1c1.7,12.6,3.2,44.2-7.7,59.6
		c-14.7,20.9-60.4,39.3-87.2,21.7c1,0.9,2,1.8,3.1,2.6l0.1,0.1c0.1,0.1,0.2,0.1,0.3,0.2c0.9,0.6,1.8,1.2,2.8,1.8l0,0
		c0.3,0.2,0.7,0.4,1,0.6c0.2,0.1,0.5,0.3,0.7,0.4c0.1,0.1,0.2,0.1,0.3,0.2c7.1,3.4,17.3,5.2,36.1,5.2c0.1,0,0.1,0,0.2,0
		c0.1,0,0.1,0,0.2,0c0.1,0,0.1,0,0.2,0c0.1,0,0.1,0,0.2,0c18.8,0,29-1.8,36.1-5.2c0.1-0.1,0.2-0.1,0.3-0.2c0.3-0.1,0.5-0.2,0.7-0.4
		c0.4-0.2,0.7-0.4,1-0.6l0,0c1-0.6,1.9-1.2,2.8-1.8c0.1-0.1,0.2-0.1,0.3-0.2l0.1-0.1c2.8-2.1,5.2-4.5,7.9-7.3
		c1.1-1.1,2.1-2.3,3.1-3.5c12.3-15.5,12.2-34.8,12.2-34.8s0.5-10.8,0-19.4c-0.9-13.9-1.8-18.9-1.9-19.8v-0.2
		C233.5,270.4,232.9,270.5,231.8,270.6z"/>
	<circle class="st7" cx="204.7" cy="298.2" r="21.6">
	
		<animate  accumulate="none" additive="replace" attributeName="fill" calcMode="linear" dur="2s" fill="remove" keyTimes="0;0.5;1" repeatCount="indefinite" rest6art="always" restart="always" values="#272362;#0052ff;#272362">
		</animate>
	</circle>
	<circle class="st5" cx="226.3" cy="276.5" r="3.8"/>
	<path class="st8" d="M264.5,263.5c-38.9,9.1-150.1,9.1-189.1,0c0,0-6.4,101.1,50.2,116c0,0,21.6,5.3,44.3,5.1
		c22.8,0.2,44.3-5.1,44.3-5.1C270.9,364.6,264.5,263.5,264.5,263.5z"/>
	<path class="st9" d="M190.7,314.7c3.8,3.2,8.6,5.1,13.9,5.1c11.9,0,21.6-9.7,21.6-21.6c0-6.1-2.6-11.7-6.7-15.6
		c1.5,3.7,7.5,20.5-7.9,31.4C211.8,314,203.1,318.6,190.7,314.7z"/>
	<circle class="st5" cx="210.4" cy="345" r="3.8"/>
	<path class="st10" d="M253.8,337.8c-10.7-6.7-21.1,11-21.1,11c-16.3,29.9-51.8,35.5-51.8,35.5l0,0c18.3-1.1,33.4-4.8,33.4-4.8
		c20.5-5.4,32.8-22.1,40-41.3C254.2,338,254,337.9,253.8,337.8z"/>
	<path class="st10" d="M106.5,348.7c0,0-10.4-17.7-21.1-11c7.2,19.3,19.5,36.2,40.2,41.7c0,0,14.8,3.6,32.7,4.8
		C158.2,384.2,122.8,378.6,106.5,348.7z"/>
	<path class="st6" d="M121.1,268c-0.4-0.9-1.5-2-3.3-3.4c-16.3-12.2-32.1-2.1-33.9-0.8C93.6,265.7,106.5,267.1,121.1,268z"/>
	<path class="st6" d="M229.2,268c0.4-0.9,1.5-2,3.3-3.4c16.3-12.2,32.1-2.1,33.9-0.8C256.7,265.7,243.8,267.1,229.2,268z"/>
	<path class="st8" d="M264.5,263.5c-38.9,9.1-150.1,9.1-189.1,0c0,0-6.4,101.1,50.2,116c0,0,21.6,5.3,44.3,5.1
		c22.8,0.2,44.3-5.1,44.3-5.1C270.9,364.6,264.5,263.5,264.5,263.5z"/>
	<path class="st3" d="M271.1,30c-19-9-210.9,4.6-228.5,16.3c0,0-41,24.8-40.6,72.1l4,56.2c0,0,4.5,44.7,20.9,59.6
		s31.9,21.9,54.3,24.2c19.7,2,67,0.6,87.8-0.5v0.1c1,0,2.1-0.1,3.4-0.3c1.3-0.1,2.5-0.2,3.4-0.2v-0.1c20.8-1.9,67.8-7.1,87-12
		c21.8-5.5,36.1-14.7,50.3-31.6c14.2-17,12.3-62,12.3-62l-4-56.2C315.2,48.8,271.1,30,271.1,30z"/>
	<path class="st11" d="M2.6,118.2l2.3,31.9C8.4,74.6,51.1,49.8,51.1,49.8l-2.5-6.6c-2.1,1-3.9,2-5.3,2.9
		C43.1,46.1,2.1,70.9,2.6,118.2z"/>
	<path class="st10" d="M278.1,211.6c-0.6,0.4-1.3,0.9-2,1.5c-4.9,3.7-13,9.7-40.4,14.9l-59.1,5.4l-8.1,0.6l-59.3,3
		c-27.8-1.2-36.7-6.1-42.1-9c-0.8-0.4-1.5-0.8-2.2-1.2c-18.9-10.7-23.2-44.5-23.4-45.9l-2.7-38c-1.7-19.5,1.6-24.8,2.1-25.5l0.3-0.1
		l0.3-0.7c3.5-6.7,12.7-12.4,20.1-16.9c1.1-0.7,2.2-1.3,3.2-2c26.4-13.4,75.7-19,92.4-20.6l8.1-0.6c16.7-0.8,66.3-2.2,94.4,7.3
		c1.1,0.4,2.3,1,3.6,1.5c8,3.5,18,7.7,22.3,14l0.4,0.7l0.3,0.1c0.6,0.6,4.6,5.5,5.6,24.9l2.7,38
		C294.9,164.3,295.3,198.3,278.1,211.6z"/>
	<path class="st12" d="M271.1,30c-0.2-0.1-0.4-0.1-0.5-0.2l6.9,6.7c0,0,37.8,26,36,77.9c-1.8,51.8-5.9,91.6-45.7,117.7
		c-34.5,22.6-107.3,25.9-194.9,25.2c2.7,0.5,5.5,0.8,8.4,1.2c19.7,2,67,0.6,87.8-0.5v0.1c1,0,2.1-0.1,3.4-0.3
		c1.3-0.1,2.5-0.2,3.4-0.2v-0.1c20.8-1.9,67.8-7.1,87-12c21.8-5.5,36.1-14.7,50.3-31.6c14.2-17,12.3-62,12.3-62l-4-56.2
		C315.2,48.8,271.1,30,271.1,30z"/>
	<path d="M87.4,230.5c0,0-26.9-1.7-33.6-31.6s-6.3-66.5-6.3-66.5s-1.2-13.3,21.2-24.4c13.8-6.8,49.5-21.9,100.1-24.2
		c31.9-1.5,84.6-4.2,111.6,16c0,0-137.6-30.4-198.5,34C81.9,133.9,37.8,179.1,87.4,230.5z"/>
	<path d="M240.4,107.7c0,0-150.8-22.6-165,81.2c0,0-14.6-63.5,79.5-82.7C154.8,106.2,208,98.5,240.4,107.7z"/>
	<path class="st8" d="M271.1,30c-19-9-210.9,4.6-228.5,16.3c0,0-41,24.8-40.6,72.1l4,56.2c0,0,4.5,44.7,20.9,59.6
		s31.9,21.9,54.3,24.2c19.7,2,67,0.6,87.8-0.5v0.1c1,0,2.1-0.1,3.4-0.3c1.3-0.1,2.5-0.2,3.4-0.2v-0.1c20.8-1.9,67.8-7.1,87-12
		c21.8-5.5,36.1-14.7,50.3-31.6c14.2-17,12.3-62,12.3-62l-4-56.2C315.2,48.8,271.1,30,271.1,30z"/>
	<path class="st13" d="M155.8,11.4c-74.4,3.4-113,31.9-113,31.9s4.5,2.6,7.7,6.6c3.1,4,7,8.5,19.5,12.7c15.9,5.3,89.4,1.2,89.4,1.2
		s73.5-6.2,88.3-13.8c11.8-5.9,15-10.9,17.5-15.3s6.6-7.7,6.6-7.7S229.9,4.2,155.8,11.4z"/>
	<polygon class="st6" points="272.7,30.8 272.9,26.9 269.3,29.5 	"/>
	<path class="st3" d="M252.1,19.4c-11.5,8.4-49.7,33.9-90.3,37C113,60.1,51.3,49.5,51.3,49.5c-0.3,0.1-0.5,0.3-0.7,0.4
		c3.1,4,7.1,8.4,19.5,12.6c15.9,5.3,89.4,1.2,89.4,1.2s73.5-6.2,88.3-13.8c11.8-5.9,15-10.9,17.5-15.3c2.6-4.4,6.6-7.7,6.6-7.7
		S265.2,23.3,252.1,19.4z"/>
	<path class="st8" d="M155.8,11.4c-74.4,3.4-113,31.9-113,31.9s4.5,2.6,7.7,6.6c3.1,4,7,8.5,19.5,12.7c15.9,5.3,89.4,1.2,89.4,1.2
		s73.5-6.2,88.3-13.8c11.8-5.9,15-10.9,17.5-15.3s6.6-7.7,6.6-7.7S229.9,4.2,155.8,11.4z"/>
	
		<linearGradient id="SVGID_1_" gradientUnits="userSpaceOnUse" x1="-173.5285" y1="262.5358" x2="93.1556" y2="262.5358" gradientTransform="matrix(0.9892 -0.1465 -0.1465 -0.9892 245.7682 410.0459)">
		<stop  offset="0" style="stop-color:#FFFFFF"/>
		<stop  offset="0.9994" style="stop-color:#99AAD1"/>
	</linearGradient>
	<path class="st14" d="M297.1,124.5c-1.2-21.1-5.7-27-7.5-28.5c-5.2-7.1-15.7-11.7-24.2-15.3c-1.3-0.5-2.5-1-3.6-1.6l-0.2-0.1
		c-14.7-5-36.3-7.8-64.4-8.2c-13.6-0.2-25.4,0.2-32.1,0.5v-0.1l-2.5,0.2c0,0-0.6,0.1-1.6,0.1s-1.5,0.1-1.6,0.1l-2.5,0.2v0.1
		c-6.6,0.6-18.4,1.8-31.9,4c-27.7,4.4-48.7,10.2-62.6,17.2l-0.2,0.1c-1,0.7-2.1,1.3-3.3,2C51,100,41.3,106,37.1,113.8
		c-1.6,1.7-5.1,8.2-3.3,29.3l2.7,38v0.1c0.1,1.5,4.5,37.7,26,49.7l0.1,0.1c0.7,0.3,1.3,0.7,2.1,1.1c5.7,3.1,15.3,8.4,44.3,9.6
		l59.7-3v0.2l4.1-0.4l4.1-0.2v-0.2l59.6-5.4c28.5-5.3,37.3-11.9,42.5-15.8c0.6-0.5,1.3-1,1.9-1.4l0.1-0.1
		c19.5-15.1,18.7-51.4,18.7-52.9v-0.1L297.1,124.5z M278.1,211.6c-0.6,0.4-1.3,0.9-2,1.5c-4.9,3.7-13,9.7-40.4,14.9l-59.1,5.4
		l-8.1,0.6l-59.3,3c-27.8-1.2-36.7-6.1-42.1-9c-0.8-0.4-1.5-0.8-2.2-1.2c-18.9-10.7-23.2-44.5-23.4-45.9l-2.7-38
		c-1.7-19.5,1.6-24.8,2.1-25.5l0.3-0.1l0.3-0.7c3.5-6.7,12.7-12.4,20.1-16.9c1.1-0.7,2.2-1.3,3.2-2c26.4-13.4,75.7-19,92.4-20.6
		l8.1-0.6c16.7-0.8,66.3-2.2,94.4,7.3c1.1,0.4,2.3,1,3.6,1.5c8,3.5,18,7.7,22.3,14l0.4,0.7l0.3,0.1c0.6,0.6,4.6,5.5,5.6,24.9l2.7,38
		C294.9,164.3,295.2,198.2,278.1,211.6z"/>
	<polygon class="st6" points="42.1,46.1 41.9,43.2 45,44.5 	"/>
	<path class="st1" d="M170.2,254.4"/>
	<g>
		<path class="st11" d="M165.4,265.3h-20.2"/>
	</g>
	<path class="st15" d="M76.2,265.2c0.7-0.2,1.4-0.4,2.1-0.5c3,0.6,6.2,1.2,9.9,1.7l2.3,1.6c0,0,1.7,45-1.5,51.3
		c-1.8,3.5-4.5,5.6-6.6,6.8C75,298.9,75.9,270.7,76.2,265.2z"/>
	<path class="st3" d="M75.7,264.1c0,0-7.8,12.6-7.5,47.5c0,0,0.6,9.2,5.8,12c4.9,2.6,8.2-3.4,9.4-6.3c2.5-5.9,2.1-10.6,2.5-22.2
		s5.4-28.5,5.4-28.5L80,266.4L75.7,264.1z"/>
	<path class="st12" d="M91.3,266.5c0,0-5.1,17-5.4,28.5s0,16.3-2.5,22.2c-0.6,1.4-1.6,3.3-3,4.9c-0.4-1.2-0.9-2.6-1.3-4
		c-5.5-19.2,3.7-40.8,9.4-51.6H91.3z"/>
	<path class="st8" d="M75.7,264.1c0,0-7.8,12.6-7.5,47.5c0,0,0.6,9.2,5.8,12c4.9,2.6,8.2-3.4,9.4-6.3c2.5-5.9,2.1-10.6,2.5-22.2
		s5.4-28.5,5.4-28.5L80,266.4L75.7,264.1z"/>
	<path class="st16" d="M170.2,217.3c4.7-0.5,8-4.7,7.5-9.4l-16.9,1.9C161.3,214.4,165.5,217.8,170.2,217.3z"/>
	<path class="st1" d="M169.7,253.5"/>
	<path class="st11" d="M197,300.5c0.2,0,0.4,0,0.6,0c5.4,0,10.8,0,16.2,0c1.3,0,2.5-0.8,2.7-2c0.1-0.7,0.1-1.4-0.1-2.1
		c-0.4-2.4-1.5-4.5-3.2-6.2c-0.8-0.9-1-1.9-0.5-2.9c0.8-1.4,2.7-1.7,3.9-0.5c1.9,1.9,3.3,4.2,4.1,6.8c2.5,8.1-1.2,16.6-8.9,20.2
		c-2.3,1.1-4.7,1.6-7.2,1.6c-1.1,0-2.1-0.8-2.3-1.8c-0.3-1.2,0.2-2.3,1.3-2.8c0.4-0.2,0.8-0.2,1.3-0.3c2.4-0.1,4.6-0.8,6.6-2.2
		c0.7-0.5,1-1.2,0.8-2c-0.2-1.3-1.5-1.9-2.7-1.3c-0.8,0.3-1.5,0.8-2.3,1.1c-4.2,1.5-9-0.9-10.3-5.2C197,300.8,197,300.7,197,300.5z"
		/>
	<path class="st11" d="M187.9,299.1c0-7.6,4.5-13.9,11.2-16.3c1.8-0.6,3.6-0.9,5.5-0.9c1.4,0,2.5,1,2.5,2.3c0.1,1.3-0.9,2.4-2.4,2.5
		c-1.3,0.1-2.5,0.2-3.7,0.6c-4.2,1.5-6.9,4.4-7.9,8.8c-0.9,4.2,0.2,7.8,3.2,11c0.8,0.8,0.9,1.9,0.5,2.8c-0.4,0.9-1.3,1.4-2.4,1.3
		c-0.6,0-1.1-0.3-1.6-0.8C189.6,307,188,303.1,187.9,299.1z"/>
	<path class="st11" d="M212.5,296.6c-5.2,0-10.3,0-15.5,0c0.3-1.2,0.8-2.2,1.5-3.1c1.4-1.7,3.2-2.7,5.4-2.9c2.4-0.2,4.4,0.5,6.2,2.1
		C211.3,293.7,212.1,295,212.5,296.6z"/>
	<path class="st17" d="M250.6,180.2c-2.4-9.8-11.8-16.5-22.1-15.4s-17.9,9.8-18.2,19.8	">
<animateTransform  accumulate="none" additive="replace" attributeName="transform" calcMode="linear" dur="0.4s" fill="remove" keyTimes="0;0.5;1" repeatCount="indefinite" restart="always" type="translate" values="0 -3;0 2;0 -3">
			</animateTransform>
	</path>
	<path class="st17" d="M125.1,194.1c-2.4-9.8-11.8-16.5-22.1-15.4s-17.9,9.8-18.2,19.8	">
<animateTransform  accumulate="none" additive="replace" attributeName="transform" calcMode="linear" dur="0.4s" fill="remove" keyTimes="0;0.5;1" repeatCount="indefinite" restart="always" type="translate" values="0 -3;0 2;0 -3">
			</animateTransform>
	</path>
	<g>
		<path class="st18" d="M353.4,171.6L392,146c1.6-1.1,3.9-0.4,4.7,1.5l5.5,12.8c0.8,1.8-0.2,3.8-1.9,4.3l-44,12.7
			C352.7,178.3,350.5,173.6,353.4,171.6L353.4,171.6z		">
<animateTransform  accumulate="none" additive="replace" attributeName="transform" calcMode="linear" dur="1s" fill="remove" keyTimes="0;0.45;1" repeatCount="indefinite" restart="always" type="scale" values="1;1.05;1">
				</animateTransform>
		</path>
		<path class="st18" d="M353.7,200.7c0,1.3,1,2.4,2.3,2.5l36.6,4.3c1.5,0.2,2.8-1.1,2.7-2.5l-0.2-11c0-1.6-1.5-2.8-3-2.5l-36.4,6.7
			C354.6,198.4,353.7,199.5,353.7,200.7L353.7,200.7z		">
<animateTransform  accumulate="none" additive="replace" attributeName="transform" calcMode="linear" dur="1s" fill="remove" keyTimes="0;0.5;1" repeatCount="indefinite" restart="always" type="scale" values="1;1.03;1">
				</animateTransform>
		</path>
		<path class="st18" d="M333.9,156.5c0.9,0.9,2.4,1,3.4,0.2l28.1-23.1c1.2-0.9,1.2-2.7,0.1-3.8l-7.9-7.8c-1.1-1.1-3-1-3.9,0.3
			l-20.3,30.9C332.8,154.3,333,155.7,333.9,156.5L333.9,156.5z		">
<animateTransform  accumulate="none" additive="replace" attributeName="transform" calcMode="linear" dur="1s" fill="remove" keyTimes="0;0.4;1" repeatCount="indefinite" restart="always" type="scale" values="1;1.03;1">
				</animateTransform>
		</path>
		<path class="st19" d="M249.2,314.7l-7.7,2.6c-6.3,2.1-13.2-1.3-15.4-7.7L213.4,274c-2.3-6.4,1-13.3,7.2-15.4l7.7-2.6
			c6.3-2.1,13.2,1.3,15.4,7.7l12.7,35.6C258.7,305.6,255.4,312.5,249.2,314.7z"/>
		<path class="st20" d="M212.2,274.4l74-22.5l-32.9-82.4L184.2,202C158.2,218.5,182.8,278.9,212.2,274.4z"/>
		<path class="st21" d="M337.8,184.7c35.5,93.5,4.6,105.4-34.1,13.1C268.3,104.3,299.2,92.4,337.8,184.7L337.8,184.7z"/>
		<path class="st22" d="M295.9,165.5c7.8-3,19.6,8.3,26.3,25.2c15.4,40.9-11.2,51.2-28.2,10.8C287.3,184.7,288.1,168.5,295.9,165.5z
			"/>
		<path class="st23" d="M348.4,261.5c-8.2,3.2-28.5-28.3-42.8-64.4c-13.9-36.3-23-74.3-11.6-76.1c-3.5-0.8-7.2,0.3-9.9,3.7
			c-12,15.2-41.5,48.2-41.5,48.2c-18.3,18.4,7.6,82.6,34,83.7c0,0,44.1,4.8,63.3,8c4.5,0.7,8.1-1.1,10.1-4.2
			C349.4,260.9,348.9,261.3,348.4,261.5L348.4,261.5z"/>
		<path class="st19" d="M190.9,224.2c-5.8-1.2-7.2-9.7-1.2-12.1l28.1-10.8c7.7-2.7,12.2,8.6,4.7,11.8l-28.1,10.8
			C193.2,224.3,192,224.4,190.9,224.2z"/>
	</g>
	<g>
		<path class="st12" d="M265.5,267.8c0,0-9.3,14.2-20.6,20.7c-14.3,8.2-20.5,12.8-22.4,18c-1.9,5.1,6.1,9.4,17.6,8.2
			s19.8-8.3,25.2-14c5.4-5.7,17.3-10.7,12.8-24.8C273.6,261.8,265.5,267.8,265.5,267.8z"/>
		<path class="st8" d="M265.5,267.8c0,0-9.3,14.2-20.6,20.7c-14.3,8.2-20.5,12.8-22.4,18c-1.9,5.1,6.1,9.4,17.6,8.2
			s19.8-8.3,25.2-14c5.4-5.7,17.3-10.7,12.8-24.8C273.6,261.8,265.5,267.8,265.5,267.8z"/>
		<path class="st3" d="M265.5,267.8c0,0-9.3,14.2-20.6,20.7c-9.2,5.3-15.1,9.1-18.6,12.5c3.2,11.7,17,8.9,20,7.6
			c3.4-1.6,8-6.4,13.6-10.8c5.6-4.3,9.6-13.2,10.2-18.2c0.3-2.9-1.2-8.4-3.1-12.6C266,267.4,265.5,267.8,265.5,267.8z"/>
	</g>
	
		<animateTransform  accumulate="none" additive="replace" attributeName="transform" calcMode="linear" dur="2s" fill="remove" keyTimes="0;0.5;1" repeatCount="indefinite" restart="always" type="translate" values="0 -3;0 5;0 -3">
		</animateTransform>
</g>
</svg>
