<svg xmlns="http://www.w3.org/2000/svg" x="0px" y="0px"
	 viewBox="0 0 86.1 85" xml:space="preserve">
<style type="text/css">
	.st0{fill:url(#SVGID_1_);}
</style>
<linearGradient id="SVGID_1_" gradientUnits="userSpaceOnUse" x1="2.843781e-02" y1="42.4963" x2="86.2511" y2="42.4963">
	<stop  offset="0" style="stop-color:#00C698"/>
	<stop  offset="0.3605" style="stop-color:#0BCFC3"/>
	<stop  offset="0.6608" style="stop-color:#00CFD8"/>
	<stop  offset="1" style="stop-color:#0AA0C3"/>
</linearGradient>
<path class="st0" d="M69.3,32.7c0.2,0.2,0.4,0.3,0.7,0.4l0.5,7.9c-0.6,0.4-1.1,1-1.3,1.7l-11.7-0.5l0.3-0.7L69.3,32.7z M70.5,30.3
	c-0.5,0-0.9,0.4-0.9,0.9s0.4,0.9,0.9,0.9s0.9-0.4,0.9-0.9S71,30.3,70.5,30.3z M58.1,14.4c-0.9,0-1.6,0.7-1.6,1.6s0.7,1.6,1.6,1.6
	s1.6-0.7,1.6-1.6S59,14.4,58.1,14.4z M68.7,53.1c0-0.3,0.1-0.6,0.2-0.8l-12-8h-0.2l3.1,21.6c0.1,0,0.2,0,0.3,0
	c0.3,0,0.6,0.1,0.9,0.2l8.1-11.7C68.9,54,68.7,53.6,68.7,53.1z M51.9,32.4h1.3v-1.3h-1.3V32.4z M60.1,70.1c0.9,0,1.6-0.7,1.6-1.6
	s-0.7-1.6-1.6-1.6s-1.6,0.7-1.6,1.6S59.2,70.1,60.1,70.1z M55.2,43.3h1.3V42h-1.3V43.3z M57.3,22.2H56v1.3h1.3V22.2z M58.2,18.7
	l-0.4,2.6h0.5v0.7h4.4l-3.4-3.6C59,18.5,58.6,18.7,58.2,18.7z M71,33.1l0.5,7.6c0.1,0,0.2,0,0.3,0c0.1,0,0.3,0,0.4,0l5.2-17.4
	l-5.7,6.6c0.4,0.4,0.7,0.9,0.7,1.4C72.4,32.1,71.8,32.8,71,33.1z M70.2,51.3l0.7-5.6c-0.8-0.3-1.4-1.1-1.6-1.9l-11.8-0.5v0.3l12,8
	C69.7,51.4,69.9,51.3,70.2,51.3z M44.6,63.8h-0.6l0,8.9c0.6,0.2,1,0.6,1.3,1.2L57.6,69c0-0.2,0-0.3,0-0.5c0-0.2,0-0.4,0.1-0.6
	L44.6,63.8z M70.2,43.2c0,0.9,0.7,1.6,1.6,1.6s1.6-0.7,1.6-1.6s-0.7-1.6-1.6-1.6S70.2,42.3,70.2,43.2z M65.1,22.2h-1.3v1.3h1.3V22.2
	z M68.7,31.9c-0.1-0.2-0.1-0.4-0.1-0.7c0-0.4,0.1-0.7,0.3-1l-4.2-5.1l-6,14.5L68.7,31.9z M51.6,30.1h0.8l2.4-6.1H55v-2.8h1.8
	l0.4-2.7c-0.7-0.2-1.2-0.7-1.5-1.4l-10.3,6.4c0.1,0.2,0.1,0.4,0.1,0.6c0,0.2,0,0.3-0.1,0.5L51.6,30.1z M58.8,66.2l-2.9-20.1
	l-5.3,12.7c-0.1,0.2-1.6,3.3-5.3,4.1l-0.1,0L58,67C58.2,66.7,58.5,66.4,58.8,66.2z M44.8,22.7l10.7-6.6c0,0,0,0,0,0
	c0-0.3,0-0.5,0.1-0.7l-10.5-3.5c-0.3,0.4-0.6,0.6-1.1,0.7l0,9.7c0,0,0,0,0,0C44.3,22.3,44.6,22.5,44.8,22.7z M43.8,83.7h0.5v0.3v1
	h-1.3v-0.3l-3.4-1.2l0,0l-21.3-7.5v0.8h-3.3v-3.3h0.2L5.4,60.7H3v-3.3h1L1.5,39.2H0v-3.3h1.8L7,21.6H6v-3.3h3.3v0.1l15-13.1V2.7h3.3
	v0.9l15.3-3.1V0h1.3v0.9v0.4h-0.4l0,0L28,4.5l15.4,5.3l0,0c0.1,0,0.1,0,0.2,0c0,0,0,0,0,0s0,0,0,0c0.5,0,0.9,0.4,0.9,0.9
	s-0.4,0.9-0.9,0.9c0,0,0,0,0,0s0,0,0,0c-0.1,0-0.3,0-0.4-0.1l-5,1.7v0l-6.8,2.2c0,0.1,0,0.2,0,0.3l11.7,7.6l0,0
	c0.1-0.1,0.3-0.1,0.4-0.1c0,0,0,0,0,0s0,0,0,0c0.5,0,0.9,0.4,0.9,0.9S44.1,25,43.6,25c0,0,0,0,0,0s0,0,0,0c-0.2,0-0.4-0.1-0.5-0.2
	l0,0l-4.9,4.5v0l-1.5,1.4v2.6h-0.2l3.3,8.9v0l0.1,0.3l3.5,9.2c0,0,0.1,0.1,0.2,0.1c0,0,0,0,0,0c0.1,0,0.2-0.1,0.2-0.1l0,0L44,26h0
	c0.3-0.1,0.6-0.2,0.8-0.5l6,5.4v2.6h0.2l-7.3,18.3l0,11.6l-13.6,4.5c0,0.1-0.1,0.3-0.1,0.4l13.2,5.3c0.1,0,0.2-0.1,0.4-0.1
	c0,0,0,0,0,0s0,0,0,0c0.5,0,0.9,0.4,0.9,0.9s-0.4,0.9-0.9,0.9c0,0,0,0,0,0s0,0,0,0c-0.5,0-0.9-0.4-0.9-0.9l-3.1-1.3v0l-10-4.1
	c-0.1,0.1-0.2,0.2-0.3,0.3L43.8,83.7z M16.7,33.4c0.6,0.5,1,1.2,1,2.1c0,0.3-0.1,0.6-0.1,0.8L29,41.7v-0.5l-6.7-16.6L16.7,33.4z
	 M23.3,23.6v-1.3h-1.3v1.3H23.3z M30,43.2h1.3v-1.3H30V43.2z M35.6,31.1h-1.3v1.3h1.3V31.1z M31.6,22.2h-1.3v1.3h1.3V22.2z
	 M15.1,33.8c-0.9,0-1.6,0.7-1.6,1.6s0.7,1.6,1.6,1.6c0.9,0,1.6-0.7,1.6-1.6S16,33.8,15.1,33.8z M12.6,36l-9.2,1.2v1.4l12.1,13.6
	c0.1-0.1,0.2-0.2,0.4-0.2l-1.3-14C13.5,37.7,12.8,36.9,12.6,36z M15.7,53.7c0,0.5,0.4,0.9,0.9,0.9s0.9-0.4,0.9-0.9s-0.4-0.9-0.9-0.9
	S15.7,53.2,15.7,53.7z M17.9,52.3L29,43.8v-1.1l-0.1,0.1l-11.8-5.7c-0.4,0.5-1,0.8-1.6,0.9l1.3,13.8C17.2,51.8,17.6,52,17.9,52.3z
	 M18.6,53.7c0,0.4-0.1,0.8-0.4,1.1l8,10.4c0.4-0.2,0.8-0.4,1.3-0.4c0.1,0,0.1,0,0.2,0l2.1-20.4l-11.2,8.6
	C18.5,53.3,18.6,53.5,18.6,53.7z M25.9,67.5c0,0.9,0.7,1.6,1.6,1.6s1.6-0.7,1.6-1.6s-0.7-1.6-1.6-1.6S25.9,66.6,25.9,67.5z
	 M41.8,62.9L41.8,62.9c-3.8-0.8-5.6-3.9-5.7-4l-5.5-13.6l-2,19.9c0.7,0.3,1.2,0.9,1.4,1.7L41.8,62.9z M41.6,24.1
	c0-0.2,0-0.3,0.1-0.5l-10.4-6.8c-0.2,0.7-0.7,1.2-1.3,1.5l1.2,2.8h1.5v1.9l0.5,1.2l2.2,5.8h0.7l2.2-2l0,0l3.6-3.3
	C41.7,24.6,41.6,24.4,41.6,24.1z M30.4,16.1c0-0.9-0.7-1.6-1.6-1.6s-1.6,0.7-1.6,1.6s0.7,1.6,1.6,1.6S30.4,16.9,30.4,16.1z M26.9,6
	l1.5,7.4c0.1,0,0.3,0,0.4,0c0.9,0,1.7,0.4,2.1,1.1l7.2-2.4l0,0l3.5-1.1c0-0.1,0-0.2,0-0.3c0-0.1,0-0.3,0-0.4l-3.5-1.2l0,0L27.6,5.4
	V6H26.9z M25.3,5h1.3V3.7h-1.3V5z M10.5,18.7l15.7-3.1c0.1-0.8,0.6-1.4,1.2-1.8L25.9,6H25L10.5,18.7z M9.3,20.7l11.7,1.6v-1.1h3.3
	v0.7h5v-0.7H30L29,18.7c-0.1,0-0.1,0-0.2,0c-1.2,0-2.3-0.9-2.6-2L9.3,20V20.7z M8.7,21.6L14.2,33c0.3-0.1,0.6-0.2,1-0.2
	c0.2,0,0.5,0,0.7,0.1l5.2-8.3h-0.1v-1.2L8.7,21.6L8.7,21.6z M8.3,20.6v-1.3H7v1.3H8.3z M2.9,35.9h0.4v0.3l9.2-1.2
	c0.1-0.6,0.4-1.1,0.8-1.4L7.9,22.2L2.9,35.9z M2.4,36.9H1v1.3h1.3V36.9z M5.3,58.4H4v1.3h1.3V58.4z M6.3,57.4v0.3l8.4-3.9
	c0,0,0-0.1,0-0.1c0-0.2,0-0.4,0.1-0.7L2.5,39.2L5,57.4H6.3z M16.3,73.5L16.3,73.5l-0.5-18.1c-0.3-0.2-0.6-0.4-0.8-0.7l-8.7,4.1v1.5
	L16.3,73.5z M17.2,74.5h-1.3v1.3h1.3V74.5z M25,68.3c-0.1-0.3-0.1-0.5-0.1-0.8c0-0.6,0.2-1.2,0.6-1.6l-8.1-10.5
	c-0.2,0.1-0.4,0.1-0.5,0.1l0.5,17.9L25,68.3z M41.7,83.2L28.3,70c-0.3,0.1-0.5,0.1-0.8,0.1c-0.8,0-1.5-0.4-2-1l-7.3,5V75l21.3,7.5
	l0,0L41.7,83.2z M70.1,55c-0.1,0-0.1,0-0.2-0.1l-8.1,11.6c0.5,0.5,0.9,1.2,0.9,1.9c0,0.3-0.1,0.7-0.2,1l7,4.1H70L70.1,55z M70,74.5
	v0.7v0.6h1.3v-1.3H71H70z M57.9,69.9l-12.5,4.9c-0.1,0.7-0.7,1.3-1.4,1.5l0,6.4h0.4l14-12.1C58.3,70.4,58.1,70.1,57.9,69.9z
	 M70.6,54c0.5,0,0.9-0.4,0.9-0.9s-0.4-0.9-0.9-0.9s-0.9,0.4-0.9,0.9S70.1,54,70.6,54z M60.1,71.1c-0.2,0-0.4,0-0.6-0.1L45.6,83
	L69,75.2v-0.9l-6.9-4C61.6,70.8,60.9,71.1,60.1,71.1z M81.9,58.9v1.3h0.1h1.2v-1.3h-0.5H81.9z M85.3,36.9h-0.4v1.3h0.4h1v-1.3H85.3z
	 M72.5,53.1c0,0.1,0,0.2,0,0.3l9,4.5h0.7l2.3-18.6l-12,13.5C72.5,52.9,72.5,53,72.5,53.1z M71.1,55L71,73.5h0.1l9.8-12.6v-2.2
	l-8.8-4.4C71.9,54.6,71.5,54.9,71.1,55z M79.7,20.6v-1.3h-1.3h-0.1v1.3h1H79.7z M83.9,35.9h0.3L79,21.6H79L73.2,41
	c0.4,0.2,0.7,0.6,0.9,0.9l9.8-3.6V35.9z M44,8.9c0.2,0.1,0.5,0.2,0.7,0.3l14.9-4V4.6L45.2,1.8v0.5H44L44,8.9z M60.4,17.3
	c-0.1,0.2-0.2,0.3-0.3,0.4l3.4,3.5h2.6v3.3h-0.6l4.1,5c0.3-0.2,0.6-0.3,0.9-0.3c0.1,0,0.2,0,0.3,0l6.7-7.7h-0.2V20L60.4,17.3z
	 M82.7,39.8l-8.3,3c0,0.1,0,0.2,0,0.3c0,1.4-1.2,2.6-2.6,2.6c0,0,0,0,0,0l-0.6,5.4c0.3,0.1,0.6,0.3,0.8,0.5L82.7,39.8z M45.5,10.7
	c0,0.1,0,0.1,0,0.2L56,14.4c0.5-0.6,1.2-1,1.9-1l1.7-7.3L45.3,10C45.4,10.2,45.5,10.5,45.5,10.7z M62,4.9V3.7h-1.3v0.4V5H62V4.9z
	 M59,13.6c1,0.4,1.7,1.3,1.7,2.5c0,0.1,0,0.2,0,0.3l16.3,2.6L62.2,6h-1.4L59,13.6z"/>
</svg>
