<?xml version="1.0" encoding="utf-8"?>
<!-- Generator: Adobe Illustrator 27.0.0, SVG Export Plug-In . SVG Version: 6.00 Build 0)  -->
<svg version="1.1" id="图层_1" xmlns="http://www.w3.org/2000/svg" xmlns:xlink="http://www.w3.org/1999/xlink" x="0px" y="0px"
	 viewBox="0 0 816.7 188.9" style="enable-background:new 0 0 816.7 188.9;" xml:space="preserve">
<style type="text/css">
	.st0{fill:#F4F4F4;}
</style>
<g id="_x36_49877" transform="matrix(9.6178 0 0 9.6178 178.2371 376.7799)">
	<g>
		<g vector-effect="non-scaling-stroke">
			<g id="图层_1_00000081613028534958051540000005728145211793111726_" transform="matrix(1 0 0 1 2.5655 1.286)">
				<path class="st0" d="M-15.8-29.5c0.1,0,0.2,0,0.4,0c3.1,0,6.3,0,9.4,0c0.8,0,1.4-0.5,1.6-1.1c0.1-0.4,0-0.8,0-1.2
					c-0.2-1.3-0.9-2.6-1.9-3.6c-0.5-0.5-0.6-1.1-0.3-1.7c0.4-0.8,1.6-1,2.3-0.3c1.1,1.1,2,2.5,2.4,3.9c1.4,4.7-0.7,9.6-5.2,11.8
					c-1.3,0.6-2.7,0.9-4.1,0.9c-0.6,0-1.2-0.5-1.3-1c-0.1-0.7,0.1-1.3,0.7-1.6c0.2-0.1,0.5-0.1,0.7-0.1c1.4,0,2.7-0.4,3.8-1.2
					c0.4-0.3,0.6-0.7,0.5-1.1c-0.1-0.7-0.8-1.1-1.6-0.7c-0.4,0.2-0.8,0.5-1.3,0.6c-2.5,0.9-5.3-0.5-6-3
					C-15.8-29.4-15.8-29.4-15.8-29.5z"/>
			</g>
			<g id="图层_1_00000091016816546679448930000003463379191631443349_" transform="matrix(1 0 0 1 -4.05 -1.1904)">
				<path class="st0" d="M-14.5-28c0-4.4,2.6-8.1,6.5-9.5c1-0.4,2.1-0.5,3.2-0.5c0.8,0,1.4,0.5,1.4,1.3s-0.5,1.4-1.3,1.4
					s-1.6,0.1-2.2,0.4c-2.5,0.8-4.1,2.5-4.7,5.1c-0.5,2.5,0.1,4.5,1.9,6.4c0.4,0.5,0.5,1,0.3,1.7c-0.2,0.5-0.7,0.8-1.3,0.7
					c-0.4,0-0.6-0.2-0.9-0.4C-13.6-23.3-14.5-25.6-14.5-28z"/>
			</g>
			<g id="图层_1_00000173148187129875227550000015057372668634707642_" transform="matrix(1 0 0 1 0 -2.8075)">
				<path class="st0" d="M-4.3-27.8c-3,0-6,0-9,0c0.1-0.6,0.4-1.2,0.9-1.8c0.8-1,1.9-1.6,3.1-1.7c1.3-0.1,2.6,0.3,3.6,1.2
					C-4.9-29.4-4.5-28.7-4.3-27.8z"/>
			</g>
		</g>
	</g>
</g>
<g>
	<path class="st0" d="M290.5,44.2h31.9l38.4,109h-22.5l-8.8-25.3H283l-8.8,25.2h-22.3L290.5,44.2z M323.9,110.8L307,62.1h-1.2
		l-16.9,48.7H323.9z"/>
	<path class="st0" d="M377.4,44.2h20.8v109h-20.8V44.2z"/>
	<path class="st0" d="M563.9,135.3V153h-92.7V44.2H561v17.9h-68.7v25.3h51v16.4h-51v31.5L563.9,135.3L563.9,135.3z"/>
	<path class="st0" d="M602.5,108.1l26.5-4v-6.9c0-7.2-6.2-10.3-15.3-10.3c-11.1,0-15.6,5-15.5,13.1h-20.3c0-19.8,15-28.9,37-28.9
		c20.7,0,34.6,7.6,34.6,23.7l-0.2,42.7c1,0.5,3.1,0.8,5.4,0.8c2.7,0,6.2-0.5,8.2-1.1v16c-3.2,1.1-8.4,1.9-13.1,1.9
		c-9.4,0-17.1-3.1-17.9-11.6l-0.3-2.6h-1.2c-3.7,8.6-14.6,14.5-27.9,14.5c-16.1,0-26.5-8.9-26.5-22.7
		C575.9,118.4,586.5,110.5,602.5,108.1z M609.3,140.4c8.2,0,16.5-4,19.7-11.4v-11.3l-21.3,3.1c-7,1-10.7,4.6-10.7,10
		C596.9,137,601.8,140.4,609.3,140.4z"/>
	<path class="st0" d="M676.2,73.3h19.7v12.6h1.5c3.7-8.4,10.9-13.6,22-13.6c3.1,0,5.2,0.3,6.4,0.7l1.2,18.9
		c-2.3-0.5-5.2-0.8-7.9-0.8c-13.2,0-20,6-22.3,16.2v46h-20.5V73.3z"/>
	<path class="st0" d="M741.8,73.3h20.3V85h1.5c3.6-8.4,13.6-14,25-14c16.6,0.2,28,10.8,28,29.9v52.2h-20.3v-47c0-11.7-5.7-17-14-17
		c-8.9,0-17.1,6-20.2,15.3v48.9h-20.3L741.8,73.3L741.8,73.3z"/>
</g>
</svg>
