<svg  xmlns="http://www.w3.org/2000/svg"  x="0px" y="0px"
	 viewBox="0 0 48 48" style="enable-background:new 0 0 48 48;" xml:space="preserve">
<style type="text/css">
	.st0{fill:#BFE9FF;}
	.st1{fill:#CED2DB;}
	.st2{fill:#0052FF;}
	.st3{fill:#0A0B0D;}
	.st4{fill-rule:evenodd;clip-rule:evenodd;fill:#0A0B0D;}
	.st5{fill:#FFFFFF;}
</style>
<path class="st0" d="M27,48V0H0v48H27z"/>
<path class="st1" d="M27,48V0H0v48H27z"/>
<path class="st2" d="M9.5,40h37c0.8,0,1.5-0.8,1.5-1.8V9.8c0-1-0.7-1.8-1.5-1.8h-37C8.7,8,8,8.8,8,9.8v28.4C8,39.2,8.7,40,9.5,40z"
	/>
<path class="st3" d="M27,8H9.5C8.7,8,8,8.8,8,9.8v28.4c0,1,0.7,1.8,1.5,1.8H27V8z"/>
<path class="st4" d="M44,25H31v-2h13V25z M44,29H31v-2h13V29z M44,21H31v-2h13V21z"/>
<path class="st5" d="M10.5,27.5c0.1,0,0.3,0,0.4-0.1l1.9-1c0.8,1.4,2.4,2.4,4.1,2.4c2.6,0,4.8-2.1,4.8-4.8c0-0.1,0-0.2,0-0.3
	l3.1-1.4c0.4-0.2,0.6-0.6,0.4-1s-0.6-0.6-1-0.4l-2.8,1.3c-0.7-1.7-2.4-2.9-4.4-2.9c-2.6,0-4.8,2.1-4.8,4.8c0,0.3,0,0.6,0.1,0.8
	L10.1,26c-0.4,0.2-0.5,0.7-0.3,1.1C10,27.3,10.2,27.5,10.5,27.5z M16.9,27.2c-1.2,0-2.2-0.6-2.7-1.6l1.8-1l1,0.8
	c0.2,0.2,0.6,0.2,0.8,0.1l2.3-1C19.8,26,18.5,27.2,16.9,27.2z M13.7,24c0-1.7,1.4-3.2,3.2-3.2c1.3,0,2.5,0.8,2.9,2l-2.3,1l-1-0.8
	c-0.3-0.2-0.6-0.2-0.9-0.1L13.7,24L13.7,24z"/>
</svg>
