<?xml version="1.0" encoding="utf-8"?>
<!-- Generator: Adobe Illustrator 27.0.0, SVG Export Plug-In . SVG Version: 6.00 Build 0)  -->
<svg version="1.1" id="图层_1" xmlns="http://www.w3.org/2000/svg" xmlns:xlink="http://www.w3.org/1999/xlink" x="0px" y="0px"
	 viewBox="0 0 18.9 18.9" style="enable-background:new 0 0 18.9 18.9;" xml:space="preserve">
<style type="text/css">
	.st0{fill:#0052FF;}
</style>
<path class="st0" d="M5.1,10.6c0.1,0,0.2,0,0.4,0c3,0,6.1,0,9.1,0c0.8,0,1.4-0.5,1.5-1.1c0.1-0.4,0-0.8,0-1.2
	c-0.2-1.3-0.9-2.5-1.8-3.5c-0.5-0.5-0.6-1.1-0.3-1.6c0.4-0.8,1.5-1,2.2-0.3c1.1,1.1,1.9,2.4,2.3,3.8c1.4,4.5-0.7,9.3-5,11.4
	c-1.3,0.6-2.6,0.9-4,0.9c-0.6,0-1.2-0.5-1.3-1c-0.1-0.7,0.1-1.3,0.7-1.5c0.2-0.1,0.5-0.1,0.7-0.1c1.4,0,2.6-0.4,3.7-1.2
	c0.4-0.3,0.6-0.7,0.5-1.1c-0.1-0.7-0.8-1.1-1.5-0.7c-0.4,0.2-0.8,0.5-1.3,0.6c-2.4,0.9-5.1-0.5-5.8-2.9C5.1,10.7,5.1,10.7,5.1,10.6z
	"/>
<path class="st0" d="M0,9.7c0-4.3,2.5-7.8,6.3-9.2c1-0.4,2-0.5,3.1-0.5c0.8,0,1.4,0.5,1.4,1.3c0,0.8-0.5,1.4-1.3,1.4
	C8.7,2.7,8,2.8,7.4,3.1C5,3.9,3.4,5.5,2.9,8c-0.5,2.4,0.1,4.4,1.8,6.2c0.4,0.5,0.5,1,0.3,1.6c-0.2,0.5-0.7,0.8-1.3,0.7
	c-0.4,0-0.6-0.2-0.9-0.4C0.9,14.2,0,12,0,9.7z"/>
<path class="st0" d="M13.8,8.3c-2.9,0-5.8,0-8.7,0C5.2,7.7,5.5,7.1,6,6.6C6.8,5.6,7.8,5.1,9,5c1.3-0.1,2.5,0.3,3.5,1.2
	C13.2,6.7,13.6,7.4,13.8,8.3z"/>
</svg>
