<?xml version="1.0" encoding="utf-8"?>
<!-- Generator: Adobe Illustrator 27.0.0, SVG Export Plug-In . SVG Version: 6.00 Build 0)  -->
<svg version="1.1" id="图层_1" xmlns="http://www.w3.org/2000/svg" xmlns:xlink="http://www.w3.org/1999/xlink" x="0px" y="0px"
	 viewBox="0 0 32 32" style="enable-background:new 0 0 32 32;" xml:space="preserve">
<style type="text/css">
	.st0{fill:#0052FF;}
</style>
<path class="st0" d="M8.6,17.9c0.2,0,0.4,0,0.6,0c5.1,0,10.3,0,15.4,0c1.3,0,2.4-0.8,2.6-1.9c0.1-0.7,0.1-1.4-0.1-2
	c-0.4-2.3-1.5-4.2-3.1-5.9c-0.8-0.8-0.9-1.9-0.5-2.8c0.7-1.4,2.6-1.6,3.7-0.5c1.8,1.8,3.1,4,3.9,6.5c2.4,7.7-1.2,15.8-8.4,19.2
	c-2.2,1-4.4,1.5-6.8,1.5c-1.1,0-2-0.8-2.2-1.7c-0.2-1.1,0.2-2.2,1.2-2.6c0.4-0.2,0.8-0.2,1.2-0.2c2.3-0.1,4.4-0.7,6.3-2.1
	c0.7-0.5,0.9-1.1,0.8-1.9c-0.2-1.2-1.4-1.8-2.6-1.3c-0.7,0.3-1.4,0.8-2.2,1.1c-4,1.5-8.6-0.8-9.8-4.9C8.7,18.2,8.7,18,8.6,17.9z"/>
<path class="st0" d="M0,16.5C0,9.2,4.2,3.2,10.7,0.9C12.3,0.3,14.1,0,15.9,0c1.4,0,2.4,0.9,2.4,2.2c0.1,1.3-0.9,2.3-2.3,2.4
	c-1.2,0.1-2.4,0.2-3.6,0.6c-4,1.4-6.6,4.2-7.5,8.4C4,17.5,5.1,21,7.9,24c0.7,0.8,0.9,1.8,0.5,2.7C8,27.5,7.1,28,6.1,27.9
	c-0.6,0-1.1-0.3-1.5-0.7C1.6,24.1,0.1,20.3,0,16.5z"/>
<path class="st0" d="M23.4,14.1c-5,0-9.8,0-14.8,0c0.2-1.1,0.8-2.1,1.5-2.9c1.3-1.6,3.1-2.6,5.2-2.8c2.2-0.2,4.2,0.5,5.9,2
	C22.2,11.4,23,12.6,23.4,14.1z"/>
</svg>
