<?xml version="1.0" encoding="utf-8"?>
<!-- Generator: Adobe Illustrator 27.0.0, SVG Export Plug-In . SVG Version: 6.00 Build 0)  -->
<svg version="1.1" id="图层_1" xmlns="http://www.w3.org/2000/svg" xmlns:xlink="http://www.w3.org/1999/xlink" x="0px" y="0px"
	 viewBox="0 0 392.8 475.6" style="enable-background:new 0 0 392.8 475.6;" xml:space="preserve">
<style type="text/css">
	.st0{opacity:0.1;fill:#A3A3A3;enable-background:new    ;}
	.st1{fill:#606373;}
	.st2{fill:#77788B;}
	.st3{fill:#11113B;}
	.st4{fill:#EFEFEF;}
	.st5{fill:#E0E0E0;}
	.st6{fill:#B1B1C9;}
	.st7{fill:#DCDBEA;stroke:#9A9AB7;stroke-miterlimit:10;}
	.st8{fill:#8D8DAA;}
	.st9{fill:#0052FF;stroke:#FFFFFF;stroke-miterlimit:10;}
	.st10{fill:none;stroke:#8D8DAA;stroke-miterlimit:10;}
	.st11{opacity:0.1;fill:#FFFFFF;enable-background:new    ;}
	.st12{fill:#060423;}
	.st13{fill:#DEDEDE;stroke:#9A9AB7;stroke-miterlimit:10;}
	.st14{fill:#EEEEEA;}
	.st15{fill:none;stroke:#9A9AB7;stroke-miterlimit:10;}
	.st16{fill:#D6D6D6;}
	.st17{fill:none;stroke:#8D8DAA;stroke-width:1.1014;stroke-miterlimit:11.0143;}
	.st18{fill:#FBF9F9;}
	.st19{fill:url(#SVGID_1_);}
	.st20{fill:#2CFBFB;}
	.st21{fill:#FFFFFF;}
</style>
<ellipse class="st0" cx="196" cy="459.6" rx="135.6" ry="16">
<animate  accumulate="none" additive="replace" attributeName="rx" calcMode="linear" dur="2s" fill="remove" keyTimes="0;0.5;1" repeatCount="indefinite" restart="always" values="115.6;135.6;115.6">
	</animate>
</ellipse>
<g>
	<path class="st1" d="M294,278.7c-19.5,3.4-66.8,5.4-87.6,5.8h-6.8c-20.8-0.4-68.1-2.3-87.6-5.8c-1-0.2-2-0.4-3-0.6l0.1,12.1
		c38.9,9.1,150.1,9.1,189.1,0l0.2-12.4C296.9,278.2,295.5,278.5,294,278.7z"/>
	<path class="st2" d="M149.6,295.5c-0.4-0.9-1.5-2-3.3-3.4c-16.3-12.2-32.1-2.1-33.9-0.8C122.1,293.2,135,294.6,149.6,295.5z"/>
	<path class="st2" d="M257.7,295.5c0.4-0.9,1.5-2,3.3-3.4c16.3-12.2,32.1-2.1,33.9-0.8C285.2,293.2,272.3,294.6,257.7,295.5z"/>
	<path class="st3" d="M260.5,284.4h-4.3h-105h-4.3c-3.2,5.3,1.2,7.8,1.2,7.8c-1.4,1.4,1.2,3.2,1.2,3.2l3.3,2.9l48.5-0.6l53.5,0.6
		l3.3-2.9c0,0,2.7-1.8,1.2-3.2C259.2,292.3,263.7,289.8,260.5,284.4z"/>
	<path class="st4" d="M298.1,290.3c-38.9,9.1-150.1,9.1-189.1,0c0,0-6.4,101.1,50.2,116c0,0,21.6,5.3,44.3,5.1
		c22.8,0.2,44.3-5.1,44.3-5.1C304.5,391.4,298.1,290.3,298.1,290.3z"/>
	<path class="st5" d="M298.1,290.3c-6.9,1.6-16.1,3-26.8,4l-0.1,0.1c0,0,11.4,54.5-4.4,75.2c-15.2,19.9-24.5,34.3-111.3,34.8
		c-0.7,0-1.3,0-2,0c1.8,0.7,3.7,1.4,5.7,1.9c0,0,21.6,5.3,44.3,5.1c22.8,0.2,44.3-5.1,44.3-5.1C304.5,391.4,298.1,290.3,298.1,290.3
		z"/>
	<path class="st6" d="M269.1,317.2c-0.9-13.9-1.8-18.9-1.9-19.8v-0.2l0,0l0,0c0,0-0.6,0.1-1.8,0.2c-5.9,0.7-26.1,2.6-61.2,2.6
		s-55.3-1.9-61.2-2.6c-1.2-0.1-1.8-0.2-1.8-0.2l0,0l0,0v0.2c-0.2,0.9-1.1,6-1.9,19.8c-0.5,8.6,0,19.4,0,19.4s-0.1,19.3,12.2,34.8
		c0.9,1.2,2,2.4,3.1,3.5c2.7,2.8,5.1,5.2,7.9,7.3l0.1,0.1c0.1,0.1,0.2,0.1,0.3,0.2c0.9,0.6,1.8,1.2,2.8,1.8l0,0
		c0.3,0.2,0.7,0.4,1,0.6c0.2,0.1,0.5,0.3,0.7,0.4c0.1,0.1,0.2,0.1,0.3,0.2c7.1,3.4,17.3,5.2,36.1,5.2c0.1,0,0.1,0,0.2,0
		c0.1,0,0.1,0,0.2,0c0.1,0,0.1,0,0.2,0c0.1,0,0.1,0,0.2,0c18.8,0,29-1.8,36.1-5.2c0.1-0.1,0.2-0.1,0.3-0.2c0.3-0.1,0.5-0.2,0.7-0.4
		c0.4-0.2,0.7-0.4,1-0.6l0,0c1-0.6,1.9-1.2,2.8-1.8c0.1-0.1,0.2-0.1,0.3-0.2l0.1-0.1c2.8-2.1,5.2-4.5,7.9-7.3
		c1.1-1.1,2.1-2.3,3.1-3.5c12.3-15.5,12.2-34.8,12.2-34.8S269.6,325.8,269.1,317.2z"/>
	<circle class="st7" cx="147.9" cy="303.3" r="3.8"/>
	<circle class="st7" cx="164.6" cy="371.8" r="3.8"/>
	<path class="st8" d="M265.4,297.4C265.3,297.4,265.3,297.4,265.4,297.4c-2.1,0.2-5.8,0.6-11.2,1c1.7,12.6,3.2,44.2-7.7,59.6
		c-14.7,20.9-60.4,39.3-87.2,21.7c1,0.9,2,1.8,3.1,2.6l0.1,0.1c0.1,0.1,0.2,0.1,0.3,0.2c0.9,0.6,1.8,1.2,2.8,1.8l0,0
		c0.3,0.2,0.7,0.4,1,0.6c0.2,0.1,0.5,0.3,0.7,0.4c0.1,0.1,0.2,0.1,0.3,0.2c7.1,3.4,17.3,5.2,36.1,5.2c0.1,0,0.1,0,0.2,0
		c0.1,0,0.1,0,0.2,0c0.1,0,0.1,0,0.2,0c0.1,0,0.1,0,0.2,0c18.8,0,29-1.8,36.1-5.2c0.1-0.1,0.2-0.1,0.3-0.2c0.3-0.1,0.5-0.2,0.7-0.4
		c0.4-0.2,0.7-0.4,1-0.6l0,0c1-0.6,1.9-1.2,2.8-1.8c0.1-0.1,0.2-0.1,0.3-0.2l0.1-0.1c2.8-2.1,5.2-4.5,7.9-7.3
		c1.1-1.1,2.1-2.3,3.1-3.5c12.3-15.5,12.2-34.8,12.2-34.8s0.5-10.8,0-19.4c-0.9-13.9-1.8-18.9-1.9-19.8v-0.2
		C267.1,297.2,266.5,297.3,265.4,297.4z"/>
	
		<ellipse transform="matrix(0.1602 -0.9871 0.9871 0.1602 -120.6601 507.981)" class="st9" cx="238.2" cy="324.9" rx="21.6" ry="21.6">
	
		<animate  accumulate="none" additive="replace" attributeName="fill" calcMode="linear" dur="2s" fill="remove" keyTimes="0;0.5;1" repeatCount="indefinite" restart="always" values="#272362;#0052ff;#272362">
		</animate>
	</ellipse>
	<circle class="st7" cx="259.9" cy="303.3" r="3.8"/>
	<path class="st10" d="M298.1,290.3c-38.9,9.1-150.1,9.1-189.1,0c0,0-6.4,101.1,50.2,116c0,0,21.6,5.3,44.3,5.1
		c22.8,0.2,44.3-5.1,44.3-5.1C304.5,391.4,298.1,290.3,298.1,290.3z"/>
	<path class="st11" d="M224.3,341.5c3.8,3.2,8.6,5.1,13.9,5.1c11.9,0,21.6-9.7,21.6-21.6c0-6.1-2.6-11.7-6.7-15.6
		c1.5,3.7,7.5,20.5-7.9,31.4C245.4,340.8,236.7,345.5,224.3,341.5z"/>
	<circle class="st7" cx="244" cy="371.8" r="3.8"/>
	<path class="st12" d="M287.4,364.6c-10.7-6.7-21.1,11-21.1,11c-16.3,29.9-51.8,35.5-51.8,35.5l0,0c18.3-1.1,33.4-4.8,33.4-4.8
		c20.5-5.4,32.8-22.1,40-41.3C287.8,364.8,287.6,364.7,287.4,364.6z"/>
	<path class="st4" d="M317.4,68.4c-18.3-10.4-210.7-10.4-229,0c0,0-42.7,21.8-45.6,69.1v56.4c0,0,1.3,45,16.6,60.9
		s30.3,24.1,52.4,28c19.5,3.4,66.8,5.4,87.6,5.8v0.1c1,0,2.1,0,3.4,0c1.3,0,2.5,0,3.4,0v-0.1c20.8-0.4,68.1-2.3,87.6-5.8
		c22.1-3.9,37.1-12.1,52.4-28c15.3-16,16.6-60.9,16.6-60.9v-56.4C360.1,90.2,317.4,68.4,317.4,68.4z"/>
	<path class="st12" d="M140.1,375.5c0,0-10.4-17.7-21.1-11c7.2,19.3,19.5,36.2,40.2,41.7c0,0,14.8,3.6,32.7,4.8
		C191.8,411,156.4,405.4,140.1,375.5z"/>
	<path class="st12" d="M311.6,250c-0.7,0.4-1.4,0.8-2.1,1.3c-5.1,3.3-13.7,8.8-41.3,12l-59.3,1.2h-8.1l-59.3-1.2
		c-27.6-3.2-36.2-8.7-41.3-12c-0.8-0.5-1.4-0.9-2.1-1.3c-18.1-12.1-20-46-20.1-47.5v-38.1c-0.3-19.5,3.3-24.6,3.9-25.3l0.3-0.1
		l0.4-0.6c3.9-6.5,13.5-11.5,21.3-15.5c1.2-0.6,2.3-1.2,3.4-1.8c27.3-11.5,76.9-13.6,93.6-14h8.1c16.7,0.4,66.3,2.5,93.6,14
		c1.1,0.6,2.2,1.2,3.4,1.8c7.8,4,17.4,9,21.3,15.5l0.4,0.6l0.3,0.1c0.6,0.7,4.1,5.8,3.9,25.3v38.1C331.6,204,329.7,237.9,311.6,250z
		"/>
	<g>
		<path class="st13" d="M289.3,283.2l-1.7,31.6c0,0-3.5,19.3,3.6,21.6c7,2.3,9.8-7,9.8-7s10.5-23.6,4.1-49.5
			C305,279.9,296.9,283.9,289.3,283.2z"/>
		<path class="st14" d="M305,279.9c0,0-0.5,0.2-1.2,0.5c1.3,8.3,3.3,31.4-8.5,55.9c4-1.5,5.6-7,5.6-7S311.4,305.8,305,279.9z"/>
		<path class="st15" d="M289.3,283.2l-1.7,31.6c0,0-3.5,19.3,3.6,21.6c7,2.3,9.8-7,9.8-7s10.5-23.6,4.1-49.5
			C305,279.9,296.9,283.9,289.3,283.2z"/>
	</g>
	<path class="st10" d="M42.8,137.5v32c8.9-75.1,53.1-96.9,53.1-96.9l-2-6.8c-2.2,0.8-4,1.7-5.6,2.6C88.4,68.4,45.8,90.2,42.8,137.5z
		"/>
	<path class="st16" d="M317.4,68.4c-0.2-0.1-0.4-0.2-0.6-0.3l6.4,7.2c0,0,35.9,28.7,30.4,80.2c-5.5,51.6-12.4,90.9-53.9,114.1
		c-36,20.1-108.8,18.3-196.2,11.4c2.6,0.7,5.4,1.2,8.3,1.7c19.5,3.4,66.8,5.4,87.6,5.8v0.1c1,0,2.1,0,3.4,0c1.3,0,2.5,0,3.4,0v-0.1
		c20.8-0.4,68.1-2.3,87.6-5.8c22.1-3.9,37.1-12.1,52.4-28c15.3-16,16.6-60.9,16.6-60.9v-56.4C360.1,90.2,317.4,68.4,317.4,68.4z"/>
	<path class="st16" d="M118.3,284.1l1.7,31.6c0,0,3.5,19.3-3.6,21.6c-7,2.3-9.8-7-9.8-7s-10.5-23.6-4.1-49.5
		C102.5,280.8,110.6,284.8,118.3,284.1z"/>
	<path class="st4" d="M100.7,291.4c-1.9,21.3,5.9,38.8,5.9,38.8s0.7,2.5,2.4,4.6c5.3-3.4,4.6-20.8,2.1-31.3
		C109.1,295.2,103.8,292.4,100.7,291.4z"/>
	<path class="st17" d="M118.3,284.1l1.7,31.6c0,0,3.5,19.3-3.6,21.6c-7,2.3-9.8-7-9.8-7s-10.5-23.6-4.1-49.5
		C102.5,280.8,110.6,284.8,118.3,284.1z"/>
	<path d="M120,255.4c0,0-26.7-3.6-31.3-33.9s-1.6-66.8-1.6-66.8s-0.3-13.4,22.8-22.8c14.2-5.8,51-18.3,101.6-17.1
		c31.9,0.8,84.7,1.8,110.1,23.9c0,0-135.2-40.1-200.3,19.9C121.3,158.6,74.1,200.6,120,255.4z"/>
	<path d="M281.3,143.6c0,0-148.9-33.2-170.4,69.4c0,0-10.1-64.3,85.2-76.9C196.1,136.2,249.7,132.2,281.3,143.6z"/>
	<path class="st10" d="M317.4,68.4c-18.3-10.4-210.7-10.4-229,0c0,0-42.7,21.8-45.6,69.1v56.4c0,0,1.3,45,16.6,60.9
		s30.3,24.1,52.4,28c19.5,3.4,66.8,5.4,87.6,5.8v0.1c1,0,2.1,0,3.4,0c1.3,0,2.5,0,3.4,0v-0.1c20.8-0.4,68.1-2.3,87.6-5.8
		c22.1-3.9,37.1-12.1,52.4-28c15.3-16,16.6-60.9,16.6-60.9v-56.4C360.1,90.2,317.4,68.4,317.4,68.4z"/>
	<path class="st18" d="M203.7,41.7c-74.5-2-114.9,23.8-114.9,23.8s4.3,2.9,7.2,7.2c2.9,4.2,6.4,8.9,18.6,14
		c15.4,6.5,89.1,7.5,89.1,7.5s73.7-1,89.1-7.5c12.1-5.1,15.7-9.8,18.6-14c2.9-4.2,7.2-7.2,7.2-7.2S278.2,39.7,203.7,41.7z"/>
	<polygon class="st8" points="319,69.3 319.5,65.5 315.8,67.7 	"/>
	<path class="st4" d="M299.2,56.4c-12.1,7.5-52,30.4-92.8,30.6C157.6,87.2,96.8,72.3,96.8,72.3c-0.3,0.1-0.5,0.2-0.8,0.4
		c2.9,4.2,6.5,8.9,18.5,14c15.4,6.5,89.1,7.5,89.1,7.5s73.7-1,89.1-7.5c12.1-5.1,15.7-9.8,18.6-14c2.9-4.2,7.2-7.2,7.2-7.2
		S312,61.3,299.2,56.4z"/>
	<path class="st10" d="M203.7,41.7c-74.5-2-114.9,23.8-114.9,23.8s4.3,2.9,7.2,7.2c2.9,4.2,6.4,8.9,18.6,14
		c15.4,6.5,89.1,7.5,89.1,7.5s73.7-1,89.1-7.5c12.1-5.1,15.7-9.8,18.6-14c2.9-4.2,7.2-7.2,7.2-7.2S278.2,39.7,203.7,41.7z"/>
	<polygon class="st8" points="87.9,68.4 87.9,65.5 91,66.9 	"/>
	
		<linearGradient id="SVGID_1_" gradientUnits="userSpaceOnUse" x1="81.446" y1="558.3256" x2="345.262" y2="558.3256" gradientTransform="matrix(1 0 0 1 -8.362 -372.4756)">
		<stop  offset="0" style="stop-color:#FFFFFF"/>
		<stop  offset="0.9994" style="stop-color:#99AAD1"/>
	</linearGradient>
	<path class="st19" d="M336.7,164.5c0.3-21.1-3.8-27.3-5.4-29c-4.7-7.5-14.9-12.8-23.1-17c-1.2-0.6-2.4-1.2-3.4-1.8l-0.2-0.1
		c-14.3-6-35.7-10.3-63.6-12.7c-13.5-1.2-25.4-1.6-32-1.7V102h-2.5c0,0-0.6,0-1.6,0s-1.5,0-1.6,0h-2.5v0.1c-6.6,0.1-18.5,0.6-32,1.7
		c-27.9,2.4-49.3,6.7-63.6,12.7l-0.2,0.1c-1.1,0.6-2.2,1.2-3.4,1.8c-8.2,4.3-18.4,9.5-23.1,17c-1.7,1.7-5.7,7.9-5.4,29v38.1v0.1
		c0.1,1.5,1.8,37.8,22.4,51.5l0.1,0.1c0.6,0.4,1.3,0.8,2,1.3c5.5,3.5,14.7,9.5,43.5,12.8l59.8,1.2v0.2l4.1-0.1l4.1,0.1v-0.2
		l59.8-1.2c28.9-3.3,38.1-9.2,43.5-12.8c0.7-0.5,1.4-0.9,2-1.3l0.1-0.1c20.5-13.7,22.3-50,22.4-51.5v-0.1L336.7,164.5z M311.6,250
		c-0.7,0.4-1.4,0.8-2.1,1.3c-5.1,3.3-13.7,8.8-41.3,12l-59.3,1.2h-8.1l-59.3-1.2c-27.6-3.2-36.2-8.7-41.3-12
		c-0.8-0.5-1.4-0.9-2.1-1.3c-18.1-12.1-20-46-20.1-47.5v-38.1c-0.3-19.5,3.3-24.6,3.9-25.3l0.3-0.1l0.4-0.6
		c3.9-6.5,13.5-11.5,21.3-15.5c1.2-0.6,2.3-1.2,3.4-1.8c27.3-11.5,76.9-13.6,93.6-14h8.1c16.7,0.4,66.3,2.5,93.6,14
		c1.1,0.6,2.2,1.2,3.4,1.8c7.8,4,17.4,9,21.3,15.5l0.4,0.6l0.3,0.1c0.6,0.7,4.1,5.8,3.9,25.3v38.1C331.6,204,329.7,237.9,311.6,250z
		"/>
	<path class="st6" d="M56.2,81.5l-1.6-18.6c0,0,8.9-6,10-15.3c0,0,12.9-10.2-2-21.2c0,0-5.7-4.4-16-1.5c0,0-13.7-7.7-23.5-1
		c0,0-8.6,2.6-7.3,14.7c0,0-14.4,2.9-9,21.2c0,0,11.4,21.7,33.4,10.2L56.2,81.5z	">
<animate  accumulate="none" additive="replace" attributeName="opacity" begin="-0.7142857142857143s" calcMode="linear" dur="1s" fill="remove" keyTimes="0;0.5;1" repeatCount="indefinite" restart="always" values="1;0.5;1" xmlns="http://www.w3.org/2000/svg">
			</animate>
	</path>
	<path class="st6" d="M41.6,99.2l-13.1-5.1c0,0,0.4-11.3-5.1-12.6c-5.5-1.3-10.6,2-11.1,5.5c0,0-12.8,1.3-8.9,12.2
		c0,0-7.7,10.9,0.9,14.4c0,0-2.9,14,8.6,12.9s12.6-7.3,12.9-10c0,0,8.9-7.1,6.2-14.5L41.6,99.2z	">
<animate  accumulate="none" additive="replace" attributeName="opacity" begin="-0.2142857142857143s" calcMode="linear" dur="1s" fill="remove" keyTimes="0;0.5;1" repeatCount="indefinite" restart="always" values="1;0.5;1" xmlns="http://www.w3.org/2000/svg">
			</animate>
	</path>
	<path class="st20" d="M203.9,245.2c-4.7,0-8.5,3.8-8.5,8.5h17C212.5,249,208.7,245.2,203.9,245.2z"/>
	<path class="st20" d="M157.3,192.3l-46.8,28.9c2,14.5,14.8,25.7,30.3,25.7c16.9,0,30.6-13.3,30.6-29.7
		C171.4,206.8,165.7,197.5,157.3,192.3z"/>
	<path class="st20" d="M254.4,192.3l46.8,28.9c-2,14.5-14.8,25.7-30.3,25.7c-16.9,0-30.6-13.3-30.6-29.7
		C240.3,206.8,245.9,197.5,254.4,192.3z"/>
	
		<rect x="99.6" y="203.6" transform="matrix(0.8501 -0.5266 0.5266 0.8501 -88.5722 100.1585)" class="st12" width="64.1" height="4.1">
	
		<animate  accumulate="none" additive="replace" attributeName="height" calcMode="linear" dur="2s" fill="remove" keyTimes="0;0.33;0.66;1" repeatCount="indefinite" restart="always" values="40;4;4;40" xmlns="http://www.w3.org/2000/svg">
		</animate>
	</rect>
	<path class="st1" d="M186,297"/>
	
		<rect x="268.4" y="158.1" transform="matrix(0.5049 -0.8632 0.8632 0.5049 -21.3505 343.1336)" class="st12" width="40" height="64.1">
	
		<animate  accumulate="none" additive="replace" attributeName="x" calcMode="linear" dur="2s" fill="remove" keyTimes="0;0.33;0.66;1" repeatCount="indefinite" restart="always" values="242;277.3;277.3;242" xmlns="http://www.w3.org/2000/svg">
		</animate>
	</rect>
	
		<animateTransform  accumulate="none" additive="replace" attributeName="transform" calcMode="linear" dur="2s" fill="remove" keyTimes="0;0.5;1" repeatCount="indefinite" restart="always" type="translate" values="0 -3;0 5;0 -3" xmlns="http://www.w3.org/2000/svg">
		</animateTransform>
	<path class="st21" d="M230.5,326.9c0.2,0,0.4,0,0.6,0c5.4,0,10.8,0,16.2,0c1.3,0,2.5-0.8,2.7-2c0.1-0.7,0.1-1.4-0.1-2.1
		c-0.4-2.4-1.5-4.5-3.2-6.2c-0.8-0.9-1-1.9-0.5-2.9c0.8-1.4,2.7-1.7,3.9-0.5c1.9,1.9,3.3,4.2,4.1,6.8c2.5,8.1-1.2,16.6-8.9,20.2
		c-2.3,1.1-4.7,1.6-7.2,1.6c-1.1,0-2.1-0.8-2.3-1.8c-0.3-1.2,0.2-2.3,1.3-2.8c0.4-0.2,0.8-0.2,1.3-0.3c2.4-0.1,4.6-0.8,6.6-2.2
		c0.7-0.5,1-1.2,0.8-2c-0.2-1.3-1.5-1.9-2.7-1.3c-0.8,0.3-1.5,0.8-2.3,1.1c-4.2,1.5-9-0.9-10.3-5.2
		C230.5,327.2,230.5,327,230.5,326.9z"/>
	<path class="st21" d="M221.4,325.4c0-7.6,4.5-13.9,11.2-16.3c1.8-0.6,3.6-0.9,5.5-0.9c1.4,0,2.5,1,2.5,2.3c0.1,1.3-0.9,2.4-2.4,2.5
		c-1.3,0.1-2.5,0.2-3.7,0.6c-4.2,1.5-6.9,4.4-7.9,8.8c-0.9,4.2,0.2,7.8,3.2,11c0.8,0.8,0.9,1.9,0.5,2.8c-0.4,0.9-1.3,1.4-2.4,1.3
		c-0.6,0-1.1-0.3-1.6-0.8C223.1,333.4,221.5,329.5,221.4,325.4z"/>
	<path class="st21" d="M246,322.9c-5.2,0-10.3,0-15.5,0c0.3-1.2,0.8-2.2,1.5-3.1c1.4-1.7,3.2-2.7,5.4-2.9c2.4-0.2,4.4,0.5,6.2,2.1
		C244.8,320,245.6,321.3,246,322.9z"/>
</g>
</svg>
