<svg xmlns="http://www.w3.org/2000/svg" x="0px" y="0px"
	 viewBox="0 0 510.7 499.6" style="enable-background:new 0 0 510.7 499.6;" xml:space="preserve">
<style type="text/css">
	.st0{fill:#CED2DB;}
	.st1{fill:#0052FF;}
	.st2{fill:#0A0B0D;}
</style>
<path class="st0" d="M254.7,499.6V0H0v499.6H254.7z"/>
<path class="st1" d="M175.9,148.7h18.8c0,0,11.1-9.6,18.8-9.6s12.5,1.5,15.5,1.9s21.2,5.3,34.2-1.9c13-7.2,20.8-16.4,24.2-24.6
	l32.8-27c0,0-6.3-19.8-34.8-23.6s-62.2-7.7-85.8,7.7S171.5,116.4,175.9,148.7z"/>
<path class="st1" d="M294.5,113.4L323,92.2c0,0,21.7,5.3,10.2,56.5h-21.2C311.9,148.7,308,129.8,294.5,113.4z"/>
<g>
	<polygon class="st1" points="177.1,57.7 144.3,57.7 133.1,57.7 133.1,68.9 133.1,101.7 144.3,101.7 144.3,68.9 177.1,68.9 	"/>
	<polygon class="st1" points="377.6,101.7 377.6,68.9 377.6,57.7 366.4,57.7 333.6,57.7 333.6,68.9 366.4,68.9 366.4,101.7 	"/>
	<polygon class="st1" points="177.1,261.3 144.3,261.3 133.1,261.3 133.1,250 133.1,217.3 144.3,217.3 144.3,250 177.1,250 	"/>
	<polygon class="st1" points="377.6,217.3 377.6,250 377.6,261.3 366.4,261.3 333.6,261.3 333.6,250 366.4,250 366.4,217.3 	"/>
</g>
<g>
	<path class="st1" d="M449.2,172.4h-19.2c-1.5,0-2.6-1.2-2.6-2.6V165c0-1.5,1.2-2.6,2.6-2.6h19.2c1.5,0,2.6,1.2,2.6,2.6v4.8
		C451.8,171.2,450.6,172.4,449.2,172.4z"/>
	<path class="st1" d="M80.8,172.4H61.5c-1.5,0-2.6-1.2-2.6-2.6V165c0-1.5,1.2-2.6,2.6-2.6h19.2c1.5,0,2.6,1.2,2.6,2.6v4.8
		C83.4,171.2,82.2,172.4,80.8,172.4z"/>
	<path class="st1" d="M152.7,172.4h-40.2c-1.5,0-2.6-1.2-2.6-2.6V165c0-1.5,1.2-2.6,2.6-2.6h40.2c1.5,0,2.6,1.2,2.6,2.6v4.8
		C155.2,171.2,154.1,172.4,152.7,172.4z"/>
	<path class="st1" d="M214.1,172.6h-40.2c-1.5,0-2.6-1.2-2.6-2.6v-4.8c0-1.5,1.2-2.6,2.6-2.6h40.2c1.5,0,2.6,1.2,2.6,2.6v4.8
		C216.7,171.4,215.5,172.6,214.1,172.6z"/>
	<path class="st1" d="M275.5,172.4h-40.2c-1.5,0-2.6-1.2-2.6-2.6V165c0-1.5,1.2-2.6,2.6-2.6h40.2c1.5,0,2.6,1.2,2.6,2.6v4.8
		C278.1,171.2,276.9,172.4,275.5,172.4z"/>
	<path class="st1" d="M336.8,172.4h-40.2c-1.5,0-2.6-1.2-2.6-2.6V165c0-1.5,1.2-2.6,2.6-2.6h40.2c1.5,0,2.6,1.2,2.6,2.6v4.8
		C339.5,171.2,338.3,172.4,336.8,172.4z"/>
	<path class="st1" d="M398.2,172.4H358c-1.5,0-2.6-1.2-2.6-2.6V165c0-1.5,1.2-2.6,2.6-2.6h40.2c1.5,0,2.6,1.2,2.6,2.6v4.8
		C400.8,171.2,399.7,172.4,398.2,172.4z"/>
</g>
<path class="st1" d="M408.7,345.1c-1.8-11.5-12.2-26.6-14.8-28.7s-28.7-21.9-62.6-37.6c-28.8-13.3-36.4-33.7-38-39.5
	c2.4-2.2,4.5-4.4,6.2-6.5c5.4-6.3,8.6-12.2,10.4-15.9c1.8,1.2,4.3,1.7,7.5,1.5c7-0.5,14.6-22.8,17.3-31.8H330
	c-5.3,17.3-11.1,27.2-13.1,27.4c-3.1,0.2-4.4-0.5-4.9-0.9c-0.4-0.4-0.5-0.7-0.5-0.7l-2-0.3c-1.3-0.2-2.6,0.5-3.2,1.7
	c-3.2,7.2-15.7,30.7-47,39.2c-3.8,1.1-7.8,1.1-11.6,0c-31.8-8.7-44.3-32.9-47.2-39.6c-0.5-1-1.5-1.5-2.6-1.4l-2.4,0.4
	c0,0,0,0.4-0.5,0.7c-0.5,0.5-1.8,1.2-4.9,0.9c-2-0.2-7.8-10.2-13.1-27.4h-4.6c2.8,9,10.3,31.2,17.3,31.8c3.2,0.2,5.6-0.2,7.5-1.5
	c1.8,3.7,5,9.6,10.4,15.9c1.8,2.1,3.8,4.2,6.2,6.5c-1.1,3.9-4.9,14.7-16.5,25.4c-5.4,4.9-12.4,9.8-21.5,14.1
	c-8.5,3.9-16.4,8.1-23.6,12.2c36.2,8.7,63.2,41.3,63.2,80.1c0,15.5-4.3,30.1-11.8,42.5h40h20.1h154.3
	C416.3,403,410.5,356.6,408.7,345.1z M254.8,311.7c-2.9,0.2-44.5,2-55.5-42.8c0.4-0.3,0.7-0.6,1.1-0.9c10.8-10,15.3-20.1,17.2-25.5
	c7.2,5.8,16.6,11.3,29,14.7c4.6,1.2,9.5,1.2,14.1,0c3.5-0.9,6.8-2.1,9.8-3.4c2.9-1.1,5.6-2.5,8.1-3.9c4.2-2.3,7.8-4.8,11.1-7.5
	c2,5.9,7.2,17.4,20.2,28.2C298.2,313.7,257.7,311.8,254.8,311.7z"/>
<path class="st2" d="M130.8,300c-39.2,0-71,31.8-71,71s31.8,71,71,71s71-31.8,71-71S169.9,300,130.8,300z M174.8,349.3l-54.4,54.4
	c-1.1,1.1-4.5,1.1-5.5,0L86,374.9c-1.1-1.1-1.1-4.5,0-5.5l6.7-6.7c1.1-1.1,4.5-1.1,5.5,0l18.8,20l45.5-44.4c1.1-1.1,4.5-1.1,5.5,0
	l6.7,6.7C177,347.1,177,349.3,174.8,349.3z"/>
</svg>
