<svg xmlns="http://www.w3.org/2000/svg" x="0px" y="0px"
	 viewBox="0 0 46.1 48" style="enable-background:new 0 0 46.1 48;" xml:space="preserve">
<style type="text/css">
	.st0{fill:#CED2DB;}
	.st1{fill:#0A0B0D;}
	.st2{fill:#0052FF;}
	.st3{fill:#0A0B0D;stroke:#FFFFFF;stroke-miterlimit:10;}
</style>
<path class="st0" d="M9.9,39.6c0,4.6,5.9,8.4,13.1,8.4s13.1-3.8,13.1-8.4s-5.9-8.4-13.1-8.4C15.8,31.2,9.9,35,9.9,39.6z"/>
<path class="st1" d="M36.2,31.9c0-7.3-5.9-13.3-13.1-13.3S10,24.6,10,31.9H36.2z"/>
<rect x="9.9" y="31.2" class="st0" width="26.2" height="9"/>
<path class="st2" d="M32.8,28.8H13.4c-6.9,0-12.5-5.6-12.5-12.5v-3.8C0.9,5.6,6.5,0,13.4,0h19.3c6.9,0,12.5,5.6,12.5,12.5v3.8
	C45.2,23.2,39.6,28.8,32.8,28.8z"/>
<g>
	<circle class="st3" cx="14.5" cy="14.4" r="4.6"/>
	<circle class="st3" cx="31.7" cy="14.4" r="4.6"/>
</g>
</svg>
