<svg xmlns="http://www.w3.org/2000/svg" x="0px" y="0px"
	 viewBox="0 0 240 240" style="enable-background:new 0 0 240 240;" xml:space="preserve">
<style type="text/css">
	.st0{opacity:0.8;fill-rule:evenodd;clip-rule:evenodd;fill:#F8F9FD;}
	.st1{opacity:0.3;fill:#ADADAD;}
	.st2{fill-rule:evenodd;clip-rule:evenodd;fill:#0A0B0D;}
	.st3{fill:#FFFFFF;}
	.st4{fill:#FFD200;}
	.st5{fill:#0052FF;}
	.st6{fill:none;stroke:#000000;stroke-miterlimit:10;}
	.st7{fill:none;stroke:#FFFFFF;stroke-miterlimit:10;}
</style>
<polygon class="st0" points="25.5,240.1 77.8,240.1 88.5,217.4 148.4,217.4 216.1,202.4 206.2,194.7 194.7,192.3 215.4,181.6 
	203.1,177.1 184.5,180.6 202.3,162.5 196.3,160.5 187.1,160.9 167.3,180.3 173.4,160.9 163.9,160.5 158.5,165.9 148.1,184 
	143.4,190.4 109.8,177.8 139.5,163.7 148.1,156.4 149.8,148.3 149.8,146.2 85.3,168.8 67.7,177.9 54,190.5 "/>
<polygon class="st1" points="56.2,138 50.4,138 36.2,122.1 22.4,138 16.2,138 16.2,31.7 31.1,31.7 31.1,8.9 48.8,8.9 48.7,64.8 
	56.2,64.8 "/>
<path class="st2" d="M192.2,180.1l-7.7,3.9l-1-2l7.7-3.9c8-3.9,17.6-2.5,24.2,3.5l1.2,1.1l-21.2,11.6l-2.9,1.6l-43,23.6l-1.1-2
	l42.9-23.6l2.9-1.6l18.4-10.1C206.9,177.7,198.9,176.9,192.2,180.1L192.2,180.1z"/>
<path class="st2" d="M213.3,202.2c-4.3-5.7-11.2-8.6-18.3-7.7l-0.3-2.2c8.5-1,16.8,2.9,21.4,10.1l0.8,1.3l-67.7,16l-0.5-2.2
	L213.3,202.2L213.3,202.2z"/>
<circle class="st3" cx="36.2" cy="140" r="11.3"/>
<path class="st2" d="M182.2,166.5L182.2,166.5L167,180.6l-1.5-1.6l15.2-14.1c6.6-6.1,16.2-7.5,24.2-3.7l1.4,0.7l-20.1,20.4l-1.1,1.1
	l0,0l-35.3,35.9l-1.6-1.6l34.7-35.3l0,0l1.7-1.8l17.8-18.1C195.5,159.9,187.7,161.4,182.2,166.5z M152.5,145.1l-0.1,1.7
	c-0.4,4.6-2,8.9-4.8,12.6c-2.7,3.7-6.4,6.5-10.7,8.2l0,0l-23.5,9.2l33.2,12.5l-5.6,10.9l-26.6-10c-28.1-10.6-59.7,0.6-75,26.5l0,0
	l-1.9-1.1l0,0l0,0l6.6-11.2c10.4-18,26.8-31.7,46.2-38.9c1.1-0.4,2.3-0.8,3.4-1.2L152.5,145.1L152.5,145.1z M48.2,201.8
	c10.3-15.7,25.3-27.7,42.9-34.2l0,0c1.1-0.4,2.2-0.8,3.3-1.2l0,0l55.4-18.1c-1.3,7.8-6.5,14.3-13.8,17.1l-28.9,11.3l36.3,13.7
	l-3.5,6.9l-24.8-9.3C91.6,179.2,65.6,185,48.2,201.8L48.2,201.8z"/>
<path class="st2" d="M156,170.9L156,170.9l-10,19.5l-5,9.8l-26.6-10c-28.1-10.6-59.7,0.6-75,26.5l-13.9,23.4l-1.9-1.1l13.8-23.5
	c15.8-26.8,48.6-38.4,77.7-27.4l24.8,9.3l4.1-8l10-19.5c4-7.8,12.5-12.2,21.2-11l1.5,0.2l-9.4,21.2l-14.4,32.5l-3.1,6.9h-60
	l-12,20.4l-1.9-1.1l12.6-21.6h59.9l2.5-5.6l14.4-32.5l8.2-18.4C166.2,160.5,159.3,164.4,156,170.9z"/>
<polygon class="st1" points="224.1,115.2 183.5,115.2 183.5,63.4 199.9,63.4 200.1,31.7 208.7,31.7 208.7,0 224.1,0 "/>
<path class="st4" d="M103.4,131.3c-6.2,0-11.3,5-11.3,11.3c0-6.2-5-11.3-11.3-11.3c6.2,0,11.3-5,11.3-11.3
	C92.1,126.2,97.2,131.3,103.4,131.3z"/>
<path class="st5" d="M55.7,137.3l-5.5-3l2.3-5.5c0.2-0.3,0.1-0.7-0.1-1l-3.4-3.4c-0.2-0.2-0.6-0.3-0.9-0.2l-6,1.8l-2.3-5.5
	c-0.1-0.4-0.4-0.6-0.8-0.6h-4.7c-0.3,0-0.6,0.2-0.8,0.5l-3,5.5l-5.5-2.3c-0.3-0.2-0.7-0.1-1,0.1l-3.4,3.4c-0.2,0.2-0.3,0.6-0.2,0.9
	l1.8,6l-5.5,2.3c-0.4,0.1-0.6,0.4-0.6,0.8v4.7c0,0.3,0.2,0.6,0.5,0.8l5.5,3l-2.3,5.5c-0.2,0.3-0.1,0.7,0.1,1l3.4,3.4
	c0.2,0.2,0.6,0.3,0.9,0.2l6-1.8l2.3,5.5c0.1,0.4,0.4,0.6,0.8,0.6H38c0.3,0,0.6-0.2,0.8-0.5l3-5.5l5.5,2.3c0.3,0.2,0.7,0.1,1-0.1
	l3.4-3.4c0.2-0.2,0.3-0.6,0.2-0.9l-1.8-6l5.5-2.3c0.4-0.1,0.6-0.4,0.6-0.8V138C56.2,137.7,56,137.4,55.7,137.3z M47.5,140
	c0,6.2-5,11.3-11.3,11.3c-6.2,0-11.3-5-11.3-11.3c0-6.2,5-11.3,11.3-11.3C42.4,128.7,47.5,133.8,47.5,140z"/>
<circle class="st4" cx="203.6" cy="115.2" r="20.5"/>
<circle class="st6" cx="36.2" cy="140" r="5.7"/>
<path class="st5" d="M203.6,94.7c-11.3,0-20.5,9.2-20.5,20.5h41C224.1,103.8,215,94.7,203.6,94.7z"/>
<rect x="72.2" y="0" class="st1" width="97.2" height="63.4"/>
<path class="st3" d="M219.8,115.2c-8.9,0-16.1,7.2-16.1,16.1c0-8.9-7.2-16.1-16.1-16.1c8.9,0,16.1-7.2,16.1-16.1
	C203.6,107.9,210.9,115.2,219.8,115.2z"/>
<path class="st5" d="M238.5,23.8c-8.2,0-14.9,6.7-14.9,14.9c0-8.2-6.7-14.9-14.9-14.9c8.2,0,14.9-6.7,14.9-14.9
	C223.6,17.2,230.3,23.8,238.5,23.8z"/>
<path class="st4" d="M1.4,79.8c8.2,0,14.9,6.7,14.9,14.9V64.8C16.4,73.1,9.7,79.8,1.4,79.8z"/>
<path class="st4" d="M238.5,23.8c-8.2,0-14.9-6.7-14.9-14.9v29.8C223.6,30.5,230.3,23.8,238.5,23.8z"/>
<circle class="st5" cx="120.8" cy="63.4" r="48.6"/>
<circle class="st7" cx="120.8" cy="63.4" r="35"/>
<g>
	<g>
		<path class="st3" d="M117.9,73.8c0-0.6,0-1.1,0-1.4c0-1.8,0.3-3.3,0.8-4.6c0.4-1,1-2,1.8-3c0.6-0.7,1.7-1.8,3.3-3.2
			c1.6-1.4,2.6-2.5,3.1-3.3s0.7-1.7,0.7-2.7c0-1.8-0.7-3.3-2.1-4.7s-3.1-2-5.1-2c-1.9,0-3.6,0.6-4.9,1.8s-2.2,3.1-2.6,5.7l-4.7-0.6
			c0.4-3.5,1.7-6.1,3.8-7.9c2.1-1.8,4.8-2.8,8.3-2.8c3.6,0,6.5,1,8.7,3s3.2,4.4,3.2,7.2c0,1.6-0.4,3.1-1.1,4.5c-0.8,1.4-2.2,3-4.5,5
			c-1.5,1.3-2.5,2.3-2.9,2.9c-0.5,0.6-0.8,1.3-1,2.2c-0.2,0.8-0.3,2.1-0.4,3.9H117.9z M117.6,82.9v-5.2h5.2v5.2H117.6z"/>
	</g>
</g>
<path class="st5" d="M16.4,64.8c0,0.7-0.1,1.3-0.1,2v25.8c0.1,0.7,0.1,1.3,0.1,2c0-8.2,6.7-14.9,14.9-14.9
	C23,79.8,16.4,73.1,16.4,64.8z"/>
</svg>
